<?xml version="1.0" encoding="UTF-8" standalone="no"?>
<svg
   height="24"
   viewBox="0 0 24 24"
   width="24"
   version="1.1"
   id="svg4"
   sodipodi:docname="battery-full-charging.svg"
   inkscape:version="1.1 (c68e22c387, 2021-05-23)"
   xmlns:inkscape="http://www.inkscape.org/namespaces/inkscape"
   xmlns:sodipodi="http://sodipodi.sourceforge.net/DTD/sodipodi-0.dtd"
   xmlns="http://www.w3.org/2000/svg"
   xmlns:svg="http://www.w3.org/2000/svg">
  <defs
     id="defs8" />
  <sodipodi:namedview
     id="namedview6"
     pagecolor="#ffffff"
     bordercolor="#666666"
     borderopacity="1.0"
     inkscape:pageshadow="2"
     inkscape:pageopacity="0.0"
     inkscape:pagecheckerboard="0"
     showgrid="false"
     inkscape:zoom="33.541667"
     inkscape:cx="12.014907"
     inkscape:cy="12.014907"
     inkscape:window-width="1920"
     inkscape:window-height="1016"
     inkscape:window-x="0"
     inkscape:window-y="0"
     inkscape:window-maximized="1"
     inkscape:current-layer="svg4" />
  <path fill="#B9D4F0"
     d="M15.67 4H14V3c0-.55-.45-1-1-1h-2c-.55 0-1 .45-1 1v1H8.33C7.6 4 7 4.6 7 5.33v15.33C7 21.4 7.6 22 8.34 22h7.32c.74 0 1.34-.6 1.34-1.33V5.33C17 4.6 16.4 4 15.67 4zm-1.06 9.24l-2.67 5c-.24.45-.94.28-.94-.24v-3.5H9.83c-.38 0-.62-.4-.44-.74l2.67-5c.24-.45.94-.28.94.24v3.5h1.17c.37 0 .62.4.44.74z"
     id="path2"
     style="opacity:0.3" />
</svg>
