<?xml version="1.0" encoding="UTF-8" standalone="no"?>
<svg
   xmlns:dc="http://purl.org/dc/elements/1.1/"
   xmlns:cc="http://creativecommons.org/ns#"
   xmlns:rdf="http://www.w3.org/1999/02/22-rdf-syntax-ns#"
   xmlns:svg="http://www.w3.org/2000/svg"
   xmlns="http://www.w3.org/2000/svg"
   xmlns:sodipodi="http://sodipodi.sourceforge.net/DTD/sodipodi-0.dtd"
   xmlns:inkscape="http://www.inkscape.org/namespaces/inkscape"
   enable-background="new 0 0 24 24"
   height="24"
   viewBox="0 0 24 24"
   width="24"
   version="1.1"
   id="svg8"
   sodipodi:docname="user-available-symbolic.svg"
   inkscape:version="1.0.1 (3bc2e813f5, 2020-09-07)">
  <metadata
     id="metadata14">
    <rdf:RDF>
      <cc:Work
         rdf:about="">
        <dc:format>image/svg+xml</dc:format>
        <dc:type
           rdf:resource="http://purl.org/dc/dcmitype/StillImage" />
      </cc:Work>
    </rdf:RDF>
  </metadata>
  <defs
     id="defs12" />
  <sodipodi:namedview
     pagecolor="#ffffff"
     bordercolor="#666666"
     borderopacity="1"
     objecttolerance="10"
     gridtolerance="10"
     guidetolerance="10"
     inkscape:pageopacity="0"
     inkscape:pageshadow="2"
     inkscape:window-width="948"
     inkscape:window-height="482"
     id="namedview10"
     showgrid="false"
     inkscape:zoom="10.960155"
     inkscape:cx="14.418806"
     inkscape:cy="12.288281"
     inkscape:window-x="56"
     inkscape:window-y="50"
     inkscape:window-maximized="0"
     inkscape:current-layer="svg8" />
  <path fill="#5294e2"
     d="m 18.05,19.29 c -0.39,0.39 -1.02,0.39 -1.41,0 l -2.12,-2.12 c -0.39,-0.39 -0.39,-1.02 0,-1.41 v 0 c 0.39,-0.39 1.02,-0.39 1.41,0 l 1.41,1.41 3.54,-3.54 c 0.39,-0.39 1.02,-0.39 1.41,0 v 0 c 0.39,0.39 0.39,1.02 0,1.41 z M 12,17 c 0,-3.87 3.13,-7 7,-7 1.08,0 2.09,0.25 3,0.68 V 3.9999999 c 0,-1.1 -0.9,-2 -2,-2 H 4 c -1.1,0 -2,0.9 -2,2 V 22 l 4,-4 h 6 v 0 c 0,-0.17 0.01,-0.33 0.03,-0.5 C 12.01,17.33 12,17.17 12,17 Z"
     id="path4-3" />
</svg>
