<?xml version="1.0" encoding="UTF-8" standalone="no"?>
<svg
   xmlns:dc="http://purl.org/dc/elements/1.1/"
   xmlns:cc="http://creativecommons.org/ns#"
   xmlns:rdf="http://www.w3.org/1999/02/22-rdf-syntax-ns#"
   xmlns:svg="http://www.w3.org/2000/svg"
   xmlns="http://www.w3.org/2000/svg"
   xmlns:sodipodi="http://sodipodi.sourceforge.net/DTD/sodipodi-0.dtd"
   xmlns:inkscape="http://www.inkscape.org/namespaces/inkscape"
   version="1.1"
   id="mdi-arrow-collapse-horizontal"
   width="24"
   height="24"
   viewBox="0 0 24 24"
   sodipodi:docname="distribute-vertical-equal (copy).svg"
   inkscape:version="1.0.2 (e86c870879, 2021-01-15)">
  <metadata
     id="metadata9">
    <rdf:RDF>
      <cc:Work
         rdf:about="">
        <dc:format>image/svg+xml</dc:format>
        <dc:type
           rdf:resource="http://purl.org/dc/dcmitype/StillImage" />
      </cc:Work>
    </rdf:RDF>
  </metadata>
  <defs
     id="defs7" />
  <sodipodi:namedview
     pagecolor="#ffffff"
     bordercolor="#666666"
     borderopacity="1"
     objecttolerance="10"
     gridtolerance="10"
     guidetolerance="10"
     inkscape:pageopacity="0"
     inkscape:pageshadow="2"
     inkscape:window-width="1920"
     inkscape:window-height="1011"
     id="namedview5"
     showgrid="false"
     inkscape:zoom="33.208333"
     inkscape:cx="11.47781"
     inkscape:cy="8.9113082"
     inkscape:window-x="0"
     inkscape:window-y="0"
     inkscape:window-maximized="1"
     inkscape:current-layer="mdi-arrow-collapse-horizontal"
     inkscape:document-rotation="0" />
  <path fill="#484848"
     id="path2-3"
     d="m 20.5,10.5 c 0,-0.5499998 -0.45,-0.9999998 -1,-0.9999998 H 5.4999998 c -0.55,0 -1,0.45 -1,0.9999998 0,0.55 0.45,1 1,1 H 19.5 c 0.55,0 1,-0.45 1,-1 z m 0,3 c 0,-0.55 -0.45,-1 -1,-1 H 5.4999998 c -0.55,0 -1,0.45 -1,1 0,0.55 0.45,1 1,1 H 19.5 c 0.55,0 1,-0.45 1,-1 z M 15.787109,5.2363283 c -0.01594,0.094219 -0.05922,0.1861719 -0.136719,0.2636719 l -2.791015,2.7890625 c -0.200001,0.2 -0.508985,0.2 -0.708984,0 L 9.3593748,5.5000002 c -0.32,-0.31 -0.098437,-0.8496094 0.351563,-0.8496094 H 11.5 v -2 c 0,-0.55 0.45,-1 1,-1 0.55,0 1,0.45 1,1 v 2 h 1.789062 c 0.3375,0 0.54586,0.3032812 0.498047,0.5859375 z m 0,13.5273437 c 0.04781,0.282656 -0.160547,0.585938 -0.498047,0.585937 H 13.5 v 2 c 0,0.550001 -0.45,1 -1,1 -0.55,0 -1,-0.449999 -1,-1 v -2 H 9.7109378 c -0.45,0 -0.671563,-0.539609 -0.351563,-0.849609 l 2.7910162,-2.789062 c 0.199999,-0.2 0.508983,-0.2 0.708984,0 L 15.65039,18.5 c 0.0775,0.0775 0.120782,0.169453 0.136719,0.263672 z"
     sodipodi:nodetypes="sssssssssssssssccccscssscsssccssscsccccs" />
</svg>
