<?xml version="1.0" encoding="UTF-8" standalone="no"?>
<svg
   xmlns:dc="http://purl.org/dc/elements/1.1/"
   xmlns:cc="http://creativecommons.org/ns#"
   xmlns:rdf="http://www.w3.org/1999/02/22-rdf-syntax-ns#"
   xmlns:svg="http://www.w3.org/2000/svg"
   xmlns="http://www.w3.org/2000/svg"
   xmlns:sodipodi="http://sodipodi.sourceforge.net/DTD/sodipodi-0.dtd"
   xmlns:inkscape="http://www.inkscape.org/namespaces/inkscape"
   height="24"
   viewBox="0 0 24 24"
   width="24"
   version="1.1"
   id="svg4"
   sodipodi:docname="final_activity.svg"
   inkscape:version="1.0.2 (e86c870879, 2021-01-15)">
  <metadata
     id="metadata10">
    <rdf:RDF>
      <cc:Work
         rdf:about="">
        <dc:format>image/svg+xml</dc:format>
        <dc:type
           rdf:resource="http://purl.org/dc/dcmitype/StillImage" />
      </cc:Work>
    </rdf:RDF>
  </metadata>
  <defs
     id="defs8" />
  <sodipodi:namedview
     pagecolor="#ffffff"
     bordercolor="#666666"
     borderopacity="1"
     objecttolerance="10"
     gridtolerance="10"
     guidetolerance="10"
     inkscape:pageopacity="0"
     inkscape:pageshadow="2"
     inkscape:window-width="1940"
     inkscape:window-height="1031"
     id="namedview6"
     showgrid="false"
     inkscape:zoom="42"
     inkscape:cx="12"
     inkscape:cy="12"
     inkscape:window-x="1892"
     inkscape:window-y="1109"
     inkscape:window-maximized="0"
     inkscape:current-layer="svg4" />
  <path fill="#484848"
     id="path2"
     d="M 12 2 C 6.48 2 2 6.4800003 2 12 C 2 17.52 6.48 22 12 22 C 17.52 22 22 17.52 22 12 C 22 6.4800003 17.52 2 12 2 z M 12 4 C 12.253166 4 12.50286 4.0141344 12.75 4.0371094 C 12.847363 4.0462184 12.942763 4.061635 13.039062 4.0742188 C 13.185875 4.093282 13.332367 4.1137204 13.476562 4.140625 C 13.592046 4.1623154 13.706662 4.1882173 13.820312 4.2148438 C 13.940688 4.2428705 14.059519 4.2732505 14.177734 4.3066406 C 14.296927 4.3405258 14.414422 4.3767714 14.53125 4.4160156 C 14.633982 4.4502796 14.735111 4.4890746 14.835938 4.5273438 C 14.966955 4.5774598 15.098989 4.6268322 15.226562 4.6835938 C 15.258912 4.697872 15.290143 4.713823 15.322266 4.7285156 C 15.886377 4.9886545 16.416883 5.3098102 16.900391 5.6894531 L 12 10.589844 L 7.0996094 5.6894531 C 7.5831168 5.3098102 8.1136235 4.9886545 8.6777344 4.7285156 C 8.7098376 4.7137113 8.7411047 4.6979796 8.7734375 4.6835938 C 8.9010114 4.6268322 9.0330446 4.5774598 9.1640625 4.5273438 C 9.2648891 4.4890746 9.3660185 4.4502796 9.46875 4.4160156 C 9.5855781 4.3767714 9.7030731 4.3405258 9.8222656 4.3066406 C 9.9404814 4.2732505 10.059312 4.2428705 10.179688 4.2148438 C 10.293338 4.1882173 10.407954 4.1623154 10.523438 4.140625 C 10.667633 4.1137204 10.814125 4.093282 10.960938 4.0742188 C 11.057237 4.061635 11.152637 4.0462184 11.25 4.0371094 C 11.49714 4.0141344 11.746834 4 12 4 z M 5.6894531 7.0996094 L 10.589844 12 L 5.6894531 16.900391 C 5.3098102 16.416883 4.9886545 15.886377 4.7285156 15.322266 C 4.7137113 15.290162 4.6979796 15.258895 4.6835938 15.226562 C 4.6268322 15.098989 4.5774598 14.966955 4.5273438 14.835938 C 4.4890746 14.735111 4.4502796 14.633982 4.4160156 14.53125 C 4.3767714 14.414422 4.3405258 14.296927 4.3066406 14.177734 C 4.2732505 14.059519 4.2428705 13.940688 4.2148438 13.820312 C 4.1882173 13.706662 4.1623154 13.592046 4.140625 13.476562 C 4.1137204 13.332367 4.093282 13.185875 4.0742188 13.039062 C 4.061635 12.942763 4.0462184 12.847363 4.0371094 12.75 C 4.0141344 12.50286 4 12.253166 4 12 C 4 11.746834 4.0141344 11.49714 4.0371094 11.25 C 4.0462184 11.152637 4.061635 11.057237 4.0742188 10.960938 C 4.093282 10.814125 4.1137204 10.667633 4.140625 10.523438 C 4.1623154 10.407954 4.1882173 10.293338 4.2148438 10.179688 C 4.2428705 10.059312 4.2732505 9.9404814 4.3066406 9.8222656 C 4.3405258 9.7030731 4.3767714 9.5855781 4.4160156 9.46875 C 4.4502796 9.3660185 4.4890746 9.2648891 4.5273438 9.1640625 C 4.5774598 9.0330446 4.6268322 8.9010114 4.6835938 8.7734375 C 4.6979796 8.7411047 4.7137113 8.7098376 4.7285156 8.6777344 C 4.9886545 8.1136235 5.3098102 7.5831168 5.6894531 7.0996094 z M 18.310547 7.0996094 C 18.69019 7.5831168 19.011346 8.1136235 19.271484 8.6777344 C 19.28372 8.7042682 19.298597 8.7291685 19.310547 8.7558594 C 19.313042 8.7614774 19.313924 8.7678127 19.316406 8.7734375 C 19.373168 8.9010114 19.42254 9.0330446 19.472656 9.1640625 C 19.510925 9.2648891 19.54972 9.3660185 19.583984 9.46875 C 19.623229 9.5855781 19.659474 9.7030731 19.693359 9.8222656 C 19.726749 9.9404814 19.757129 10.059312 19.785156 10.179688 C 19.811783 10.293338 19.837685 10.407954 19.859375 10.523438 C 19.88628 10.667633 19.906718 10.814125 19.925781 10.960938 C 19.938365 11.057237 19.953782 11.152637 19.962891 11.25 C 19.985866 11.49714 20 11.746834 20 12 C 20 12.253166 19.985866 12.50286 19.962891 12.75 C 19.953782 12.847363 19.938365 12.942763 19.925781 13.039062 C 19.906718 13.185875 19.88628 13.332367 19.859375 13.476562 C 19.837685 13.592046 19.811783 13.706662 19.785156 13.820312 C 19.757129 13.940688 19.726749 14.059519 19.693359 14.177734 C 19.659474 14.296927 19.623229 14.414422 19.583984 14.53125 C 19.54972 14.633982 19.510925 14.735111 19.472656 14.835938 C 19.42254 14.966955 19.373168 15.098989 19.316406 15.226562 C 19.313911 15.232172 19.313055 15.238538 19.310547 15.244141 C 19.298692 15.270833 19.283622 15.295728 19.271484 15.322266 C 19.011346 15.886377 18.69019 16.416883 18.310547 16.900391 L 13.410156 12 L 18.310547 7.0996094 z M 12 13.410156 L 16.900391 18.310547 C 16.416883 18.69019 15.886377 19.011346 15.322266 19.271484 C 15.290143 19.286177 15.258912 19.302128 15.226562 19.316406 C 15.098989 19.373168 14.966955 19.42254 14.835938 19.472656 C 14.735111 19.510925 14.633982 19.54972 14.53125 19.583984 C 14.414422 19.623229 14.296927 19.659474 14.177734 19.693359 C 14.059519 19.726749 13.940688 19.757129 13.820312 19.785156 C 13.706662 19.811783 13.592046 19.837685 13.476562 19.859375 C 13.332367 19.88628 13.185875 19.906718 13.039062 19.925781 C 12.942763 19.938365 12.847363 19.953782 12.75 19.962891 C 12.50286 19.985866 12.253166 20 12 20 C 11.746834 20 11.49714 19.985866 11.25 19.962891 C 11.152637 19.953782 11.057237 19.938365 10.960938 19.925781 C 10.814125 19.906718 10.667633 19.88628 10.523438 19.859375 C 10.407954 19.837685 10.293338 19.811783 10.179688 19.785156 C 10.059312 19.757129 9.9404814 19.726749 9.8222656 19.693359 C 9.7030731 19.659474 9.5855781 19.623229 9.46875 19.583984 C 9.3660185 19.54972 9.2648891 19.510925 9.1640625 19.472656 C 9.0330446 19.42254 8.9010114 19.373168 8.7734375 19.316406 C 8.7411047 19.30202 8.7098376 19.286289 8.6777344 19.271484 C 8.1136235 19.011346 7.5831168 18.69019 7.0996094 18.310547 L 12 13.410156 z " />
</svg>
