<?xml version="1.0" encoding="UTF-8" standalone="no"?>
<svg
   xmlns:dc="http://purl.org/dc/elements/1.1/"
   xmlns:cc="http://creativecommons.org/ns#"
   xmlns:rdf="http://www.w3.org/1999/02/22-rdf-syntax-ns#"
   xmlns:svg="http://www.w3.org/2000/svg"
   xmlns="http://www.w3.org/2000/svg"
   xmlns:sodipodi="http://sodipodi.sourceforge.net/DTD/sodipodi-0.dtd"
   xmlns:inkscape="http://www.inkscape.org/namespaces/inkscape"
   version="1.1"
   id="mdi-transit-skip"
   width="24"
   height="24"
   viewBox="0 0 24 24"
   sodipodi:docname="node-align-vertical.svg"
   inkscape:version="1.0.2 (e86c870879, 2021-01-15)">
  <metadata
     id="metadata9">
    <rdf:RDF>
      <cc:Work
         rdf:about="">
        <dc:format>image/svg+xml</dc:format>
        <dc:type
           rdf:resource="http://purl.org/dc/dcmitype/StillImage" />
      </cc:Work>
    </rdf:RDF>
  </metadata>
  <defs
     id="defs7" />
  <sodipodi:namedview
     pagecolor="#ffffff"
     bordercolor="#666666"
     borderopacity="1"
     objecttolerance="10"
     gridtolerance="10"
     guidetolerance="10"
     inkscape:pageopacity="0"
     inkscape:pageshadow="2"
     inkscape:window-width="3824"
     inkscape:window-height="2107"
     id="namedview5"
     showgrid="false"
     inkscape:zoom="42"
     inkscape:cx="12"
     inkscape:cy="12"
     inkscape:window-x="8"
     inkscape:window-y="33"
     inkscape:window-maximized="0"
     inkscape:current-layer="mdi-transit-skip" />
  <path fill="#484848"
     id="path2"
     d="M 12 1 C 11.810323 1 11.626136 1.019174 11.447266 1.0527344 C 10.544383 1.2107051 9.8103214 1.7531125 9.3886719 2.5136719 C 9.3822515 2.5244316 9.3773929 2.536035 9.3710938 2.546875 C 9.3149214 2.6513368 9.2585849 2.7550458 9.2148438 2.8671875 C 9.1251157 3.0699174 9.0473123 3.2792091 9 3.5 C 5.5 4.7 3 7.9999996 3 12 C 3 15.9 5.5 19.3 9 20.5 C 9.0473123 20.720791 9.1251157 20.930083 9.2148438 21.132812 C 9.2567558 21.240265 9.3099402 21.339036 9.3632812 21.439453 C 9.372858 21.456119 9.3807632 21.473757 9.390625 21.490234 C 9.8127288 22.248314 10.546248 22.789621 11.447266 22.947266 C 11.626136 22.980826 11.810323 23 12 23 C 12.189677 23 12.373864 22.980826 12.552734 22.947266 C 13.453752 22.789621 14.187271 22.248314 14.609375 21.490234 C 14.619237 21.473757 14.627142 21.456119 14.636719 21.439453 C 14.69006 21.339036 14.743244 21.240265 14.785156 21.132812 C 14.874884 20.930083 14.952688 20.720791 15 20.5 C 18.5 19.3 21 15.9 21 12 C 21 8 18.5 4.7 15 3.5 C 14.952688 3.2792091 14.874884 3.0699174 14.785156 2.8671875 C 14.741415 2.7550458 14.685079 2.6513368 14.628906 2.546875 C 14.622976 2.5358465 14.617392 2.5246098 14.611328 2.5136719 C 14.189679 1.7531125 13.455617 1.2107051 12.552734 1.0527344 C 12.373864 1.019174 12.189677 1 12 1 z M 12 3 C 12.6 3 13 3.4 13 4 C 13 4.6 12.6 5 12 5 C 11.4 5 11 4.6 11 4 C 11 3.85 11.025391 3.7117188 11.072266 3.5898438 C 11.212891 3.2242187 11.55 3 12 3 z M 9.3984375 5.5019531 C 9.6544366 5.956566 10.022713 6.3279871 10.474609 6.5878906 C 10.657945 6.6933339 10.853077 6.7784632 11.060547 6.84375 C 11.128458 6.8659974 11.195843 6.8887571 11.265625 6.90625 C 11.339681 6.9238983 11.413857 6.938875 11.490234 6.9511719 C 11.657289 6.9798834 11.826391 7 12 7 C 12.173609 7 12.342711 6.9798834 12.509766 6.9511719 C 12.586143 6.938875 12.660319 6.9238983 12.734375 6.90625 C 12.804157 6.8887571 12.871542 6.8659974 12.939453 6.84375 C 13.146923 6.7784632 13.342055 6.6933339 13.525391 6.5878906 C 13.977287 6.3279871 14.345563 5.956566 14.601562 5.5019531 C 17.200243 6.5025809 19 9.0009423 19 12 C 19 14.89909 17.200244 17.497357 14.601562 18.498047 C 14.241704 17.858997 13.65831 17.38246 12.939453 17.15625 C 12.871542 17.134003 12.804157 17.111243 12.734375 17.09375 C 12.660319 17.076102 12.586143 17.061125 12.509766 17.048828 C 12.342711 17.020117 12.173609 17 12 17 C 11.826391 17 11.657289 17.020117 11.490234 17.048828 C 11.413857 17.061125 11.339681 17.076102 11.265625 17.09375 C 11.195843 17.111243 11.128458 17.134003 11.060547 17.15625 C 10.34169 17.38246 9.7582959 17.858997 9.3984375 18.498047 C 6.7997561 17.497357 5 14.89909 5 12 C 5 9.0009419 6.7997566 6.5025809 9.3984375 5.5019531 z M 12 9 C 10.9375 9 10.030273 9.5068358 9.5 10.302734 C 9.49972 10.303154 9.5002798 10.304268 9.5 10.304688 C 9.288387 10.622709 9.136212 10.98692 9.0585938 11.382812 C 9.0197266 11.581055 9 11.7875 9 12 C 9 13.7 10.3 15 12 15 C 12.2125 15 12.418945 14.980273 12.617188 14.941406 C 14.004883 14.669336 15 13.4875 15 12 C 15 11.15 14.674219 10.400781 14.136719 9.8632812 C 13.599219 9.3257811 12.85 9 12 9 z M 12 19 C 12.6 19 13 19.4 13 20 C 13 20.6 12.6 21 12 21 C 11.4 21 11 20.6 11 20 C 11 19.85 11.025391 19.711719 11.072266 19.589844 C 11.212891 19.224219 11.55 19 12 19 z " />
</svg>
