<?xml version="1.0" encoding="UTF-8" standalone="no"?>
<svg
   xmlns:dc="http://purl.org/dc/elements/1.1/"
   xmlns:cc="http://creativecommons.org/ns#"
   xmlns:rdf="http://www.w3.org/1999/02/22-rdf-syntax-ns#"
   xmlns:svg="http://www.w3.org/2000/svg"
   xmlns="http://www.w3.org/2000/svg"
   xmlns:sodipodi="http://sodipodi.sourceforge.net/DTD/sodipodi-0.dtd"
   xmlns:inkscape="http://www.inkscape.org/namespaces/inkscape"
   height="24"
   viewBox="0 0 24 24"
   width="24"
   version="1.1"
   id="svg4"
   sodipodi:docname="preview-render-on (copy).svg"
   inkscape:version="1.0.2 (e86c870879, 2021-01-15)">
  <metadata
     id="metadata10">
    <rdf:RDF>
      <cc:Work
         rdf:about="">
        <dc:format>image/svg+xml</dc:format>
        <dc:type
           rdf:resource="http://purl.org/dc/dcmitype/StillImage" />
      </cc:Work>
    </rdf:RDF>
  </metadata>
  <defs
     id="defs8" />
  <sodipodi:namedview
     pagecolor="#ffffff"
     bordercolor="#666666"
     borderopacity="1"
     objecttolerance="10"
     gridtolerance="10"
     guidetolerance="10"
     inkscape:pageopacity="0"
     inkscape:pageshadow="2"
     inkscape:window-width="1940"
     inkscape:window-height="1031"
     id="namedview6"
     showgrid="false"
     inkscape:zoom="42"
     inkscape:cx="12"
     inkscape:cy="12"
     inkscape:window-x="1892"
     inkscape:window-y="1109"
     inkscape:window-maximized="0"
     inkscape:current-layer="svg4" />
  <path fill="#484848"
     id="path2"
     d="M 12 2 C 9.8528972 2 7.8682467 2.6847199 6.2382812 3.8378906 C 6.712429 4.3117209 7.1773564 4.7773486 7.6796875 5.2792969 C 8.9275313 4.4741439 10.408242 4 12 4 C 16.41 4 20 7.59 20 12 C 20 13.589243 19.527426 15.067833 18.724609 16.314453 C 19.194902 16.784312 19.732272 17.322497 20.166016 17.755859 C 21.316715 16.126965 22 14.144579 22 12 C 22 6.48 17.52 2 12 2 z M 4.7285156 5.1503906 C 3.0411431 6.9409502 2 9.3473634 2 12 C 2 17.52 6.48 22 12 22 C 14.655612 22 17.064298 20.956356 18.855469 19.265625 L 17.439453 17.849609 C 16.010283 19.179426 14.100715 20 12 20 C 7.59 20 4 16.41 4 12 C 4 9.9017867 4.8194767 7.995029 6.1464844 6.5664062 L 4.7285156 5.1503906 z M 10.535156 8 C 10.497113 7.9973718 10.462839 8.0154218 10.425781 8.0214844 C 12.157965 9.752148 13.379308 10.972738 15.091797 12.683594 L 15.470703 12.400391 C 15.740703 12.200391 15.740703 11.799609 15.470703 11.599609 L 10.800781 8.0996094 C 10.718281 8.0371094 10.625625 8.00625 10.535156 8 z M 10 10.416016 L 10 15.5 C 10 15.91 10.470781 16.150391 10.800781 15.900391 L 13.478516 13.892578 L 10 10.416016 z " />
  <path fill="#484848"
     id="path2-3"
     d="m 2.4140625,3.2265625 c -0.255,0 -0.508125,0.097969 -0.703125,0.2929687 -0.39,0.3900001 -0.39,1.0201563 0,1.4101563 2.6248857,2.6230847 5.7312293,5.7293845 8.6816405,8.6777345 2.94835,2.950411 6.05465,6.056755 8.677734,8.68164 0.390001,0.390001 1.020157,0.390001 1.410157,0 0.39,-0.39 0.39,-1.018203 0,-1.408203 L 18.507812,18.90625 c -0.0073,-0.0078 -0.01,-0.01779 -0.01758,-0.02539 l -6.6875,-6.683593 -6.6835934,-6.6875004 c -0.0076,-0.0076 -0.01761,-0.010272 -0.025391,-0.017578 L 3.1191406,3.5195312 c -0.195,-0.195 -0.4500781,-0.2929687 -0.7050781,-0.2929687 z" />
</svg>
