<?xml version="1.0" encoding="UTF-8" standalone="no"?>
<svg
   xmlns:dc="http://purl.org/dc/elements/1.1/"
   xmlns:cc="http://creativecommons.org/ns#"
   xmlns:rdf="http://www.w3.org/1999/02/22-rdf-syntax-ns#"
   xmlns:svg="http://www.w3.org/2000/svg"
   xmlns="http://www.w3.org/2000/svg"
   xmlns:sodipodi="http://sodipodi.sourceforge.net/DTD/sodipodi-0.dtd"
   xmlns:inkscape="http://www.inkscape.org/namespaces/inkscape"
   version="1.1"
   id="mdi-note-plus"
   width="24"
   height="24"
   viewBox="0 0 24 24"
   sodipodi:docname="view-certificate-add (copy).svg"
   inkscape:version="1.0.2 (e86c870879, 2021-01-15)">
  <metadata
     id="metadata9">
    <rdf:RDF>
      <cc:Work
         rdf:about="">
        <dc:format>image/svg+xml</dc:format>
        <dc:type
           rdf:resource="http://purl.org/dc/dcmitype/StillImage" />
      </cc:Work>
    </rdf:RDF>
  </metadata>
  <defs
     id="defs7" />
  <sodipodi:namedview
     pagecolor="#ffffff"
     bordercolor="#666666"
     borderopacity="1"
     objecttolerance="10"
     gridtolerance="10"
     guidetolerance="10"
     inkscape:pageopacity="0"
     inkscape:pageshadow="2"
     inkscape:window-width="1908"
     inkscape:window-height="1031"
     id="namedview5"
     showgrid="false"
     inkscape:zoom="42"
     inkscape:cx="12"
     inkscape:cy="12"
     inkscape:window-x="8"
     inkscape:window-y="1109"
     inkscape:window-maximized="0"
     inkscape:current-layer="mdi-note-plus" />
  <path fill="#484848"
     id="path2"
     d="M 5 3 C 3.89 3 3 3.89 3 5 L 3 19 C 3 20.1 3.89 21 5 21 L 19 21 C 20.104569 21 21 20.104569 21 19 L 21 9 L 15 3 L 5 3 z M 14 4.5 L 19.5 10 L 14 10 L 14 4.5 z M 8.8925781 10.507812 C 9.174707 10.474355 9.4746875 10.556563 9.7109375 10.789062 L 12.300781 13.378906 C 12.690781 13.768906 12.690781 14.399062 12.300781 14.789062 L 9.7109375 17.378906 C 9.0809375 18.008906 8 17.569922 8 16.669922 L 8 11.5 C 8 10.94375 8.4223633 10.563574 8.8925781 10.507812 z " />
</svg>
