<?xml version="1.0" encoding="UTF-8" standalone="no"?>
<svg
   xmlns:dc="http://purl.org/dc/elements/1.1/"
   xmlns:cc="http://creativecommons.org/ns#"
   xmlns:rdf="http://www.w3.org/1999/02/22-rdf-syntax-ns#"
   xmlns:svg="http://www.w3.org/2000/svg"
   xmlns="http://www.w3.org/2000/svg"
   xmlns:sodipodi="http://sodipodi.sourceforge.net/DTD/sodipodi-0.dtd"
   xmlns:inkscape="http://www.inkscape.org/namespaces/inkscape"
   height="24"
   viewBox="0 0 24 24"
   width="24"
   version="1.1"
   id="svg6"
   sodipodi:docname="emoji-body-symbolic.svg"
   inkscape:version="1.0.1 (3bc2e813f5, 2020-09-07)">
  <metadata
     id="metadata12">
    <rdf:RDF>
      <cc:Work
         rdf:about="">
        <dc:format>image/svg+xml</dc:format>
        <dc:type
           rdf:resource="http://purl.org/dc/dcmitype/StillImage" />
      </cc:Work>
    </rdf:RDF>
  </metadata>
  <defs
     id="defs10" />
  <sodipodi:namedview
     pagecolor="#ffffff"
     bordercolor="#666666"
     borderopacity="1"
     objecttolerance="10"
     gridtolerance="10"
     guidetolerance="10"
     inkscape:pageopacity="0"
     inkscape:pageshadow="2"
     inkscape:window-width="948"
     inkscape:window-height="482"
     id="namedview8"
     showgrid="false"
     inkscape:zoom="31"
     inkscape:cx="12"
     inkscape:cy="12"
     inkscape:window-x="56"
     inkscape:window-y="50"
     inkscape:window-maximized="0"
     inkscape:current-layer="svg6" />
  <path fill="white"
     d="M13.12 2.06L7.58 7.6c-.37.37-.58.88-.58 1.41V19c0 1.1.9 2 2 2h9c.8 0 1.52-.48 1.84-1.21l3.26-7.61C23.94 10.2 22.49 8 20.34 8h-5.65l.95-4.58c.1-.5-.05-1.01-.41-1.37-.59-.58-1.53-.58-2.11.01zM3 21c1.1 0 2-.9 2-2v-8c0-1.1-.9-2-2-2s-2 .9-2 2v8c0 1.1.9 2 2 2z"
     id="path4" />
</svg>
