<?xml version="1.0" encoding="UTF-8" standalone="no"?>
<svg
   height="24"
   viewBox="0 0 24 24"
   width="24"
   version="1.1"
   id="svg4"
   sodipodi:docname="appointment-soon.svg"
   inkscape:version="1.1 (c68e22c387, 2021-05-23)"
   xmlns:inkscape="http://www.inkscape.org/namespaces/inkscape"
   xmlns:sodipodi="http://sodipodi.sourceforge.net/DTD/sodipodi-0.dtd"
   xmlns="http://www.w3.org/2000/svg"
   xmlns:svg="http://www.w3.org/2000/svg">
  <defs
     id="defs8" />
  <sodipodi:namedview
     id="namedview6"
     pagecolor="#ffffff"
     bordercolor="#666666"
     borderopacity="1.0"
     inkscape:pageshadow="2"
     inkscape:pageopacity="0.0"
     inkscape:pagecheckerboard="0"
     showgrid="false"
     inkscape:zoom="37.458333"
     inkscape:cx="8.7296997"
     inkscape:cy="11.986652"
     inkscape:window-width="1920"
     inkscape:window-height="1080"
     inkscape:window-x="0"
     inkscape:window-y="0"
     inkscape:window-maximized="0"
     inkscape:current-layer="svg4" />
  <path fill="#909090"
     id="path2"
     d="M 11.990234 2 C 6.4702348 2 2 6.48 2 12 C 2 17.52 6.4702348 22 11.990234 22 C 17.520234 22 22 17.52 22 12 C 22 6.48 17.520234 2 11.990234 2 z M 12 7 C 12.55 7 13 7.45 13 8 L 13 12 C 13 12.55 12.55 13 12 13 C 11.45 13 11 12.55 11 12 L 11 8 C 11 7.45 11.45 7 12 7 z M 12 15 C 12.552285 15 13 15.447715 13 16 C 13 16.552285 12.552285 17 12 17 C 11.447715 17 11 16.552285 11 16 C 11 15.447715 11.447715 15 12 15 z " />
</svg>
