<?xml version="1.0" encoding="UTF-8" standalone="no"?>
<svg
   xmlns:dc="http://purl.org/dc/elements/1.1/"
   xmlns:cc="http://creativecommons.org/ns#"
   xmlns:rdf="http://www.w3.org/1999/02/22-rdf-syntax-ns#"
   xmlns:svg="http://www.w3.org/2000/svg"
   xmlns="http://www.w3.org/2000/svg"
   xmlns:sodipodi="http://sodipodi.sourceforge.net/DTD/sodipodi-0.dtd"
   xmlns:inkscape="http://www.inkscape.org/namespaces/inkscape"
   height="24"
   viewBox="0 0 24 24"
   width="24"
   version="1.1"
   id="svg4"
   sodipodi:docname="microphone-sensitivity-low-symbolic (copy).svg"
   inkscape:version="1.0.1 (3bc2e813f5, 2020-09-07)">
  <metadata
     id="metadata10">
    <rdf:RDF>
      <cc:Work
         rdf:about="">
        <dc:format>image/svg+xml</dc:format>
        <dc:type
           rdf:resource="http://purl.org/dc/dcmitype/StillImage" />
      </cc:Work>
    </rdf:RDF>
  </metadata>
  <defs
     id="defs8" />
  <sodipodi:namedview
     pagecolor="#ffffff"
     bordercolor="#666666"
     borderopacity="1"
     objecttolerance="10"
     gridtolerance="10"
     guidetolerance="10"
     inkscape:pageopacity="0"
     inkscape:pageshadow="2"
     inkscape:window-width="1904"
     inkscape:window-height="1005"
     id="namedview6"
     showgrid="false"
     inkscape:zoom="31"
     inkscape:cx="12.064516"
     inkscape:cy="12"
     inkscape:window-x="56"
     inkscape:window-y="50"
     inkscape:window-maximized="0"
     inkscape:current-layer="svg4" />
  <path fill="#afafaf"
     d="m 12,14 c 1.66,0 3,-1.34 3,-3 V 5 C 15,3.34 13.66,2 12,2 10.34,2 9,3.34 9,5 v 6 c 0,1.66 1.34,3 3,3 z M 11,5 c 0,-0.55 0.45,-1 1,-1 0.55,0 1,0.45 1,1 v 3.1052167 c 0,0.55 -0.45,1 -1,1 -0.55,0 -1,-0.45 -1,-1 z m 6.91,6 c -0.49,0 -0.9,0.36 -0.98,0.85 C 16.52,14.2 14.47,16 12,16 9.53,16 7.48,14.2 7.07,11.85 6.99,11.36 6.58,11 6.09,11 c -0.61,0 -1.09,0.54 -1,1.14 0.49,3 2.89,5.35 5.91,5.78 V 20 c 0,0.55 0.45,1 1,1 0.55,0 1,-0.45 1,-1 v -2.08 c 3.02,-0.43 5.42,-2.78 5.91,-5.78 0.1,-0.6 -0.39,-1.14 -1,-1.14 z"
     id="path2"
     sodipodi:nodetypes="ssssssssssssssscscsccsssccs" />
</svg>
