<?xml version="1.0" encoding="UTF-8" standalone="no"?>
<svg
   xmlns:dc="http://purl.org/dc/elements/1.1/"
   xmlns:cc="http://creativecommons.org/ns#"
   xmlns:rdf="http://www.w3.org/1999/02/22-rdf-syntax-ns#"
   xmlns:svg="http://www.w3.org/2000/svg"
   xmlns="http://www.w3.org/2000/svg"
   xmlns:sodipodi="http://sodipodi.sourceforge.net/DTD/sodipodi-0.dtd"
   xmlns:inkscape="http://www.inkscape.org/namespaces/inkscape"
   version="1.1"
   width="24"
   height="24"
   viewBox="0 0 24 24"
   id="svg4"
   sodipodi:docname="nightthemeswitcher-ondemand-on.svg"
   inkscape:version="1.0.1 (3bc2e813f5, 2020-09-07)">
  <metadata
     id="metadata10">
    <rdf:RDF>
      <cc:Work
         rdf:about="">
        <dc:format>image/svg+xml</dc:format>
        <dc:type
           rdf:resource="http://purl.org/dc/dcmitype/StillImage" />
      </cc:Work>
    </rdf:RDF>
  </metadata>
  <defs
     id="defs8" />
  <sodipodi:namedview
     pagecolor="#ffffff"
     bordercolor="#666666"
     borderopacity="1"
     objecttolerance="10"
     gridtolerance="10"
     guidetolerance="10"
     inkscape:pageopacity="0"
     inkscape:pageshadow="2"
     inkscape:window-width="1908"
     inkscape:window-height="1022"
     id="namedview6"
     showgrid="false"
     inkscape:zoom="39.833333"
     inkscape:cx="12.050209"
     inkscape:cy="12"
     inkscape:window-x="8"
     inkscape:window-y="1098"
     inkscape:window-maximized="0"
     inkscape:current-layer="svg4" />
  <path fill="#afafaf"
     d="M 17.75,4.09 15.22,6.03 16.13,9.09 13.5,7.28 10.87,9.09 11.78,6.03 9.25,4.09 12.44,4 13.5,1 l 1.06,3 3.19,0.09 m 3.5,6.91 -1.64,1.25 0.59,1.98 -1.7,-1.17 -1.7,1.17 0.59,-1.98 L 15.75,11 17.81,10.95 18.5,9 19.19,10.95 21.25,11 m -2.28,4.95 c 0.83,-0.08 1.72,1.1 1.19,1.85 -0.32,0.45 -0.66,0.87 -1.08,1.27 C 15.17,23 8.84,23 4.94,19.07 1.03,15.17 1.03,8.83 4.94,4.93 5.34,4.53 5.76,4.17 6.21,3.85 6.96,3.32 8.14,4.21 8.06,5.04 c -0.27,2.86 0.69,5.83 2.89,8.02 2.19,2.2 5.15,3.16 8.02,2.89"
     id="path2"
     sodipodi:nodetypes="ccccccccccccccccccccccccccccccc" />
</svg>
