<?xml version="1.0" encoding="UTF-8" standalone="no"?>
<svg
   xmlns:dc="http://purl.org/dc/elements/1.1/"
   xmlns:cc="http://creativecommons.org/ns#"
   xmlns:rdf="http://www.w3.org/1999/02/22-rdf-syntax-ns#"
   xmlns:svg="http://www.w3.org/2000/svg"
   xmlns="http://www.w3.org/2000/svg"
   xmlns:sodipodi="http://sodipodi.sourceforge.net/DTD/sodipodi-0.dtd"
   xmlns:inkscape="http://www.inkscape.org/namespaces/inkscape"
   height="24"
   viewBox="0 0 24 24"
   width="24"
   version="1.1"
   id="svg4"
   sodipodi:docname="media-playlist-shuffle-symbolic-rtl.svg"
   inkscape:version="1.0.1 (3bc2e813f5, 2020-09-07)">
  <metadata
     id="metadata10">
    <rdf:RDF>
      <cc:Work
         rdf:about="">
        <dc:format>image/svg+xml</dc:format>
        <dc:type
           rdf:resource="http://purl.org/dc/dcmitype/StillImage" />
      </cc:Work>
    </rdf:RDF>
  </metadata>
  <defs
     id="defs8" />
  <sodipodi:namedview
     pagecolor="#ffffff"
     bordercolor="#666666"
     borderopacity="1"
     objecttolerance="10"
     gridtolerance="10"
     guidetolerance="10"
     inkscape:pageopacity="0"
     inkscape:pageshadow="2"
     inkscape:window-width="948"
     inkscape:window-height="1000"
     id="namedview6"
     showgrid="false"
     inkscape:zoom="8.3020833"
     inkscape:cx="9.6660841"
     inkscape:cy="15.010926"
     inkscape:window-x="26"
     inkscape:window-y="23"
     inkscape:window-maximized="0"
     inkscape:current-layer="svg4" />
  <path fill="#484848"
     d="m 13.8175,9.17 4.47,-4.47 c 0.39,-0.39 1.02,-0.39 1.41,0 0.39,0.39 0.39,1.02 0,1.41 l -4.46,4.46 z m -4.76,-4.32 -1.19,1.19 11.84,11.84 c 0.39,0.39 0.39,1.02 0,1.41 -0.39,0.39 -1.02,0.39 -1.41,0 L 6.4475,7.46 5.2575,8.65 c -0.31,0.31 -0.85,0.09 -0.85,-0.36 V 4.5 c 0,-0.28 0.22,-0.5 0.5,-0.5 h 3.79 c 0.45,0 0.67,0.54 0.36,0.85 z m 0.52,8.56 1.41,1.41 -3.13,3.13 1.2,1.2 c 0.31,0.31 0.09,0.85 -0.36,0.85 h -3.79 c -0.28,0 -0.5,-0.22 -0.5,-0.5 v -3.79 c 0,-0.45 0.54,-0.67 0.85,-0.35 l 1.19,1.19 z"
     id="path2" />
</svg>
