<?xml version="1.0" encoding="UTF-8" standalone="no"?>
<svg
   xmlns:dc="http://purl.org/dc/elements/1.1/"
   xmlns:cc="http://creativecommons.org/ns#"
   xmlns:rdf="http://www.w3.org/1999/02/22-rdf-syntax-ns#"
   xmlns:svg="http://www.w3.org/2000/svg"
   xmlns="http://www.w3.org/2000/svg"
   xmlns:sodipodi="http://sodipodi.sourceforge.net/DTD/sodipodi-0.dtd"
   xmlns:inkscape="http://www.inkscape.org/namespaces/inkscape"
   height="24"
   viewBox="0 0 24 24"
   width="24"
   version="1.1"
   id="svg6"
   sodipodi:docname="orientation-portrait-right-symbolic.svg"
   inkscape:version="1.0.1 (3bc2e813f5, 2020-09-07)">
  <metadata
     id="metadata12">
    <rdf:RDF>
      <cc:Work
         rdf:about="">
        <dc:format>image/svg+xml</dc:format>
        <dc:type
           rdf:resource="http://purl.org/dc/dcmitype/StillImage" />
        <dc:title />
      </cc:Work>
    </rdf:RDF>
  </metadata>
  <defs
     id="defs10" />
  <sodipodi:namedview
     pagecolor="#ffffff"
     bordercolor="#666666"
     borderopacity="1"
     objecttolerance="10"
     gridtolerance="10"
     guidetolerance="10"
     inkscape:pageopacity="0"
     inkscape:pageshadow="2"
     inkscape:window-width="948"
     inkscape:window-height="492"
     id="namedview8"
     showgrid="false"
     inkscape:zoom="36.833333"
     inkscape:cx="8.5439017"
     inkscape:cy="12"
     inkscape:window-x="8"
     inkscape:window-y="8"
     inkscape:window-maximized="0"
     inkscape:current-layer="svg6"
     inkscape:document-rotation="0" />
  <path
     d="m 5,5 v 14 c 0,1.1 0.9,2 2,2 h 10 c 1.1,0 2,-0.9 2,-2 V 5 C 19,3.9 18.1,3 17,3 H 7 C 5.9,3 5,3.9 5,5 Z m 12,1 v 12 c 0,0.55 -0.45,1 -1,1 H 8 C 7.45,19 7,18.55 7,18 V 6 C 7,5.45 7.45,5 8,5 h 8 c 0.55,0 1,0.45 1,1 z"
     id="path4" />
  <path
     d="M 9.65125,9.0399999 V 14.96 c 0,0.42 0.48,0.65 0.81,0.39 l 3.7,-2.96 c 0.25,-0.2 0.25,-0.58 0,-0.78 l -3.7,-2.96 c -0.33,-0.26 -0.81,-0.03 -0.81,0.3899999 z"
     id="path4-3"
     sodipodi:nodetypes="sscsscs" />
</svg>
