<?xml version="1.0" encoding="UTF-8" standalone="no"?>
<svg
   xmlns:dc="http://purl.org/dc/elements/1.1/"
   xmlns:cc="http://creativecommons.org/ns#"
   xmlns:rdf="http://www.w3.org/1999/02/22-rdf-syntax-ns#"
   xmlns:svg="http://www.w3.org/2000/svg"
   xmlns="http://www.w3.org/2000/svg"
   xmlns:sodipodi="http://sodipodi.sourceforge.net/DTD/sodipodi-0.dtd"
   xmlns:inkscape="http://www.inkscape.org/namespaces/inkscape"
   height="24"
   viewBox="0 0 24 24"
   width="24"
   version="1.1"
   id="svg4"
   sodipodi:docname="audio-volume-overamplified-symbolic.svg"
   inkscape:version="1.0.1 (3bc2e813f5, 2020-09-07)">
  <metadata
     id="metadata10">
    <rdf:RDF>
      <cc:Work
         rdf:about="">
        <dc:format>image/svg+xml</dc:format>
        <dc:type
           rdf:resource="http://purl.org/dc/dcmitype/StillImage" />
      </cc:Work>
    </rdf:RDF>
  </metadata>
  <defs
     id="defs8" />
  <sodipodi:namedview
     pagecolor="#ffffff"
     bordercolor="#666666"
     borderopacity="1"
     objecttolerance="10"
     gridtolerance="10"
     guidetolerance="10"
     inkscape:pageopacity="0"
     inkscape:pageshadow="2"
     inkscape:window-width="1908"
     inkscape:window-height="2108"
     id="namedview6"
     showgrid="false"
     inkscape:zoom="18.416667"
     inkscape:cx="2.1236123"
     inkscape:cy="9.337868"
     inkscape:window-x="5764"
     inkscape:window-y="8"
     inkscape:window-maximized="0"
     inkscape:current-layer="svg4"
     inkscape:document-rotation="0" />
  <g
     id="g3156"
     transform="translate(-0.039394)">
    <path
       d="m 3.039394,10 v 4 c 0,0.55 0.45,1 1,1 h 3 l 3.29,3.29 c 0.63,0.63 1.71,0.18 1.71,-0.71 V 6.41 c 0,-0.89 -1.08,-1.34 -1.71,-0.71 l -3.29,3.3 h -3 c -0.55,0 -1,0.45 -1,1 z"
       id="path2"
       sodipodi:nodetypes="ssscsssccss" />
    <path
       d="M 19.022142,6.4393371 V 17.560663 c 0,0.55 0.45,1 1,1 0.55,0 1.000001,-0.45 1.000001,-1 V 6.4393371 c 0,-0.55 -0.450001,-1 -1.000001,-1 -0.55,0 -1,0.45 -1,1 z"
       id="path4-6"
       sodipodi:nodetypes="sssssss" />
    <path
       d="M 14.530768,6.4393368 V 17.560663 c 0,0.55 0.45,1 1,1 0.55,0 1.000001,-0.45 1.000001,-1 V 6.4393368 c 0,-0.55 -0.450001,-1 -1.000001,-1 -0.55,0 -1,0.45 -1,1 z"
       id="path4-6-1"
       sodipodi:nodetypes="sssssss" />
  </g>
</svg>
