<?xml version="1.0" encoding="UTF-8" standalone="no"?>
<svg
   xmlns:dc="http://purl.org/dc/elements/1.1/"
   xmlns:cc="http://creativecommons.org/ns#"
   xmlns:rdf="http://www.w3.org/1999/02/22-rdf-syntax-ns#"
   xmlns:svg="http://www.w3.org/2000/svg"
   xmlns="http://www.w3.org/2000/svg"
   xmlns:sodipodi="http://sodipodi.sourceforge.net/DTD/sodipodi-0.dtd"
   xmlns:inkscape="http://www.inkscape.org/namespaces/inkscape"
   enable-background="new 0 0 612 792"
   version="1.1"
   viewBox="0 0 500 500"
   xml:space="preserve"
   id="svg6"
   sodipodi:docname="text-x-sass.svg"
   inkscape:version="1.0.2 (e86c870879, 2021-01-15)"><metadata
     id="metadata12"><rdf:RDF><cc:Work
         rdf:about=""><dc:format>image/svg+xml</dc:format><dc:type
           rdf:resource="http://purl.org/dc/dcmitype/StillImage" /></cc:Work></rdf:RDF></metadata><defs
     id="defs10" /><sodipodi:namedview
     pagecolor="#ffffff"
     bordercolor="#666666"
     borderopacity="1"
     objecttolerance="10"
     gridtolerance="10"
     guidetolerance="10"
     inkscape:pageopacity="0"
     inkscape:pageshadow="2"
     inkscape:window-width="1908"
     inkscape:window-height="2107"
     id="namedview8"
     showgrid="false"
     inkscape:zoom="1.594"
     inkscape:cx="250"
     inkscape:cy="250"
     inkscape:window-x="1924"
     inkscape:window-y="33"
     inkscape:window-maximized="0"
     inkscape:current-layer="svg6"
     inkscape:document-rotation="0" /><g
     transform="matrix(1.311 0 0 1.311 -150.32 -269.45)"
     
     stroke="#ec407a"
     stroke-width="12.423"
     id="g4"
     style="fill:#B9D4F0;fill-opacity:1;stroke:#B9D4F0;stroke-opacity:1"><g
       id="path2"
       style="opacity:1;stroke:#B9D4F0
         style="color:#000000;font-style:normal;font-variant:normal;font-weight:normal;font-stretch:normal;font-size:medium;line-height:normal;font-family:sans-serif;font-variant-ligatures:normal;font-variant-position:normal;font-variant-caps:normal;font-variant-numeric:normal;font-variant-alternates:normal;font-variant-east-asian:normal;font-feature-settings:normal;font-variation-settings:normal;text-indent:0;text-align:start;text-decoration:none;text-decoration-line:none;text-decoration-style:solid;text-decoration-color:#000000;letter-spacing:normal;word-spacing:normal;text-transform:none;writing-mode:lr-tb;direction:ltr;text-orientation:mixed;dominant-baseline:auto;baseline-shift:baseline;text-anchor:start;white-space:normal;shape-padding:0;shape-margin:0;inline-size:0;clip-rule:nonzero;display:inline;overflow:visible;visibility:visible;isolation:auto;mix-blend-mode:normal;color-interpolation:sRGB;color-interpolation-filters:linearRGB;solid-color:#000000;solid-opacity:1;vector-effect:none;fill:#B9D4F0;fill-opacity:1;fill-rule:nonzero;stroke:#B9D4F0;stroke-width:12.423;stroke-linecap:butt;stroke-linejoin:miter;stroke-miterlimit:4;stroke-dasharray:none;stroke-dashoffset:0;stroke-opacity:1;color-rendering:auto;image-rendering:auto;shape-rendering:auto;text-rendering:auto;enable-background:accumulate;stop-color:#000000;stop-opacity:1"
         d="m 434.3,278.93 c -9.3,-36.49 -69.8,-48.48 -127.06,-28.14 -34.08,12.11 -70.96,31.11 -97.49,55.92 -31.54,29.5 -36.57,55.17 -34.49,65.9 7.31,37.85 59.18,62.6 80.5,80.95 v 0.11 c -6.29,3.09 -52.3,26.38 -63.07,50.19 -11.36,25.12 1.81,43.14 10.53,45.57 27.02,7.52 54.74,-6 69.65,-28.23 14.38,-21.45 13.18,-49.14 6.93,-62.92 8.62,-2.27 18.67,-3.29 31.44,-1.8 36.04,4.21 43.11,26.71 41.76,36.13 -1.35,9.42 -8.91,14.6 -11.44,16.16 -2.53,1.56 -3.3,2.11 -3.09,3.27 0.31,1.69 1.48,1.63 3.63,1.26 2.97,-0.5 18.92,-7.66 19.61,-25.04 0.87,-22.07 -20.28,-46.76 -57.73,-46.11 -15.42,0.27 -25.12,1.73 -32.13,4.34 -0.52,-0.59 -1.04,-1.18 -1.59,-1.76 -23.15,-24.7 -65.95,-42.17 -64.14,-75.38 0.66,-12.07 4.86,-43.86 82.24,-82.42 63.39,-31.59 114.14,-22.89 122.91,-3.63 12.53,27.52 -27.12,78.67 -92.95,86.05 -25.08,2.81 -38.29,-6.91 -41.57,-10.53 -3.46,-3.81 -3.97,-3.98 -5.27,-3.27 -2.1,1.17 -0.77,4.53 0,6.54 1.97,5.12 10.03,14.19 23.78,18.7 12.1,3.97 41.54,6.15 77.16,-7.62 39.88,-15.45 71.03,-58.37 61.88,-94.24 z M 264.61,464.87 c 2.99,11.06 2.66,21.37 -0.43,30.7 -0.34,1.04 -0.72,2.06 -1.13,3.08 -0.41,1.01 -0.85,2.01 -1.33,3 -2.38,4.94 -5.58,9.56 -9.49,13.83 -11.94,13.02 -28.61,17.95 -35.76,13.8 -7.72,-4.48 -3.85,-22.84 9.98,-37.46 14.89,-15.74 36.31,-25.86 36.31,-25.86 l -0.03,-0.06 c 0.62,-0.34 1.24,-0.68 1.88,-1.03 z"
         id="path839" /><path fill="#B9D4F0"
         style="color:#000000;font-style:normal;font-variant:normal;font-weight:normal;font-stretch:normal;font-size:medium;line-height:normal;font-family:sans-serif;font-variant-ligatures:normal;font-variant-position:normal;font-variant-caps:normal;font-variant-numeric:normal;font-variant-alternates:normal;font-variant-east-asian:normal;font-feature-settings:normal;font-variation-settings:normal;text-indent:0;text-align:start;text-decoration:none;text-decoration-line:none;text-decoration-style:solid;text-decoration-color:#000000;letter-spacing:normal;word-spacing:normal;text-transform:none;writing-mode:lr-tb;direction:ltr;text-orientation:mixed;dominant-baseline:auto;baseline-shift:baseline;text-anchor:start;white-space:normal;shape-padding:0;shape-margin:0;inline-size:0;clip-rule:nonzero;display:inline;overflow:visible;visibility:visible;isolation:auto;mix-blend-mode:normal;color-interpolation:sRGB;color-interpolation-filters:linearRGB;solid-color:#000000;solid-opacity:1;vector-effect:none;fill:#B9D4F0;fill-opacity:1;fill-rule:nonzero;stroke:#B9D4F0;stroke-linecap:butt;stroke-linejoin:miter;stroke-miterlimit:4;stroke-dasharray:none;stroke-dashoffset:0;stroke-opacity:1;color-rendering:auto;image-rendering:auto;shape-rendering:auto;text-rendering:auto;enable-background:accumulate;stop-color:#000000;stop-opacity:1"
         d="M 360.09766 234.72461 C 342.51797 235.01073 323.68703 238.35635 305.16016 244.9375 C 270.48087 257.26045 232.97981 276.4829 205.50781 302.17383 C 172.89951 332.67303 166.37644 359.4021 169.16211 373.78711 C 173.28801 395.15038 189.37652 411.67366 206.38086 425.25195 C 219.87119 436.02424 234.11363 445.09673 244.40625 452.63477 C 238.49209 455.8191 231.09927 460.00757 222.43555 465.84375 C 208.41716 475.28701 193.47168 487.06246 187.03125 501.30078 C 180.75012 515.19004 181.07314 527.84459 184.60547 537.32227 C 188.1378 546.79994 194.14703 553.35032 201.55273 555.41406 L 201.55469 555.41406 C 231.48452 563.7439 261.78443 548.88038 278.0293 524.66016 L 278.0293 524.6582 C 291.76604 504.16772 292.82142 479.71213 288.03125 462.90039 C 294.40632 461.87624 301.66614 461.61738 310.51953 462.65039 C 344.11929 466.57533 347.57249 486.69803 346.85156 491.72852 C 345.91817 498.24152 340.3074 502.24514 338.30078 503.48242 C 336.99782 504.28583 335.99215 504.78185 334.61914 506.14062 C 333.24613 507.4994 331.98471 511.08767 332.35742 513.14648 L 332.35938 513.1543 L 332.36133 513.16016 C 332.56511 514.27107 333.00671 515.66223 334.07617 516.95703 C 335.14564 518.25183 336.79537 519.14562 338.08789 519.46875 C 340.65792 520.11126 341.93173 519.63517 343.13086 519.42578 C 345.3691 519.04897 346.87805 518.34784 349.21484 517.11719 C 351.55164 515.88654 354.25792 514.13416 356.92969 511.71484 C 362.27323 506.8762 367.4971 499.05773 367.91602 488.50586 L 367.91602 488.50391 C 368.94927 462.29257 344.09246 435.24139 303.87305 435.93945 L 303.87109 435.93945 C 290.53816 436.17291 281.18892 437.31458 273.71094 439.45508 C 261.44624 426.74089 245.41741 416.40715 232.90234 405.54102 C 220.03802 394.37164 211.56527 383.57685 212.32227 369.6875 C 212.62934 364.07278 213.40824 355.0555 223.42383 341.82227 C 233.44042 328.58771 253.01059 311.48633 291.13086 292.49023 C 322.02986 277.09192 349.65866 271.65857 370.11719 272.25586 C 390.57572 272.85315 402.95864 280.03651 405.61719 285.875 C 410.25563 296.06562 405.22614 313.50913 389.71289 329.56055 C 374.19881 345.61283 349.1022 359.64936 317.62891 363.17773 C 294.36388 365.78438 282.77636 356.21878 281.35352 354.64844 L 281.35156 354.64648 L 281.34766 354.64453 C 279.54645 352.66113 278.67537 351.45749 276.48242 350.15234 C 275.38595 349.49977 273.54354 348.8909 271.83594 349.03711 C 270.12833 349.18331 269.06841 349.78828 268.50195 350.09766 L 268.48047 350.11133 L 268.45703 350.12305 C 266.58429 351.16643 265.09998 353.17836 264.55273 354.94141 C 264.00549 356.70445 264.08951 358.15191 264.24805 359.33203 C 264.56513 361.69227 265.30845 363.34343 265.67969 364.3125 L 265.68164 364.31641 L 265.68359 364.32031 C 268.80978 372.44521 277.91387 381.63681 293.32422 386.69141 C 307.61992 391.38182 337.76087 393.22744 374.66016 378.96289 L 374.66211 378.96289 L 374.66406 378.96289 C 395.90276 370.73476 414.52811 355.41444 426.88672 337.19336 C 439.24495 318.97284 445.45643 297.5417 440.31836 277.39648 C 434.91247 256.18563 414.88476 242.78721 390.05469 237.47461 C 380.74341 235.48239 370.64547 234.55293 360.09766 234.72461 z M 360.32031 247.18359 C 370.01072 247.01837 379.18261 247.85308 387.45508 249.62305 C 409.515 254.34295 424.38714 265.1857 428.28125 280.46484 C 432.29231 296.18908 427.50436 314.15179 416.60547 330.2207 C 405.70658 346.28962 388.81708 360.15704 370.17578 367.37891 C 336.79283 380.28303 308.85241 378.25434 298.21484 375.14648 C 304.15622 376.08914 310.98387 376.42289 319.01172 375.52344 C 353.36843 371.67181 381.01057 356.44108 398.64648 338.19336 C 416.2824 319.94564 424.81409 298.05618 416.92383 280.72656 C 410.81237 267.30505 393.43498 260.5081 370.47852 259.83789 C 347.52205 259.16768 318.08085 265.17941 285.58984 281.37109 C 246.33011 300.935 225.11099 319.00627 213.51758 334.32422 C 201.92417 349.64217 200.27096 362.55632 199.91797 369.01172 C 198.86496 388.33237 210.88714 402.87875 224.75781 414.92188 C 238.62848 426.965 254.95996 437.48896 265.72852 448.97852 L 265.74023 448.99023 L 265.75195 449.00391 C 266.19982 449.47621 266.66945 450.00766 267.18945 450.59766 L 270.01367 453.80078 L 274.01758 452.31055 C 279.98149 450.09003 289.0142 448.62526 304.08789 448.36133 C 321.79149 448.05406 334.93891 453.75007 343.53711 461.75781 C 336.17143 456.26755 325.91429 451.9405 311.96094 450.31055 L 311.95898 450.31055 C 298.49224 448.73925 287.54538 449.81735 278.21875 452.27344 L 271.10547 454.14648 L 274.14258 460.8457 C 279.22319 472.04743 280.62515 498.47669 267.71094 517.74023 C 254.13581 537.98002 228.99493 550.15547 204.88477 543.44531 C 203.56828 543.07675 198.63788 539.40183 196.24609 532.98438 C 193.85342 526.56455 193.27074 517.65066 198.34961 506.41992 C 202.67918 496.84824 216.12339 485.07322 229.375 476.14648 C 242.62661 467.21975 255.51663 460.70878 258.49805 459.24414 L 261.9707 457.53906 L 261.9707 450.71094 L 259.8125 448.85156 C 248.31131 438.95256 230.22097 428.38968 214.13281 415.54297 C 198.04465 402.69626 184.54347 387.91837 181.35938 371.43164 L 181.35742 371.42969 L 181.35742 371.42773 C 179.9857 364.35149 183.52446 339.74318 213.99219 311.24609 C 239.57976 287.31742 275.83811 268.53966 309.31836 256.64258 C 326.57899 250.51123 344.16963 247.45897 360.32031 247.18359 z M 268.54883 455.63672 L 261.62891 459.41992 C 260.98481 459.77216 260.36414 460.11313 259.74414 460.45312 L 258.10547 461.35156 C 253.38227 463.69176 235.79741 472.89967 221.9375 487.55078 C 214.32922 495.59366 209.40118 504.58892 207.34961 512.85742 C 206.32382 516.99168 205.98284 520.97299 206.73242 524.78906 C 207.482 528.60514 209.63369 532.49482 213.35156 534.65234 C 219.66275 538.31548 227.06916 537.37348 234.64258 534.66797 C 242.216 531.96245 250.12931 526.96118 256.80859 519.67773 L 256.80859 519.67578 L 256.81055 519.67578 C 261.084 515.00886 264.64168 509.89104 267.30859 504.35938 L 267.30859 504.35742 C 267.85454 503.2313 268.34981 502.10687 268.80469 500.98633 L 268.80859 500.97656 L 268.8125 500.9668 C 269.2586 499.85698 269.68627 498.71389 270.07617 497.52344 L 270.07812 497.51758 C 273.55419 487.01793 273.87871 475.35576 270.60547 463.24805 L 268.54883 455.63672 z M 260.11914 474.43555 C 260.91758 481.31184 260.24842 487.68337 258.2832 493.61719 L 258.2793 493.62891 L 258.27539 493.64062 C 257.98741 494.5215 257.658 495.41127 257.28711 496.33398 C 256.92458 497.22596 256.54157 498.09237 256.13086 498.93945 L 256.12695 498.94727 L 256.125 498.95312 C 254.03267 503.29604 251.19134 507.41605 247.64844 511.28516 C 242.38845 517.01948 235.99759 520.99224 230.46484 522.96875 C 224.93076 524.94574 220.4267 524.39506 219.58789 523.9082 C 219.44576 523.82573 219.18573 523.73978 218.92188 522.39648 C 218.65802 521.05319 218.70274 518.6909 219.4082 515.84766 C 220.81913 510.16116 224.74117 502.66501 230.96289 496.08789 C 240.54595 485.95778 253.14323 478.30395 260.11914 474.43555 z "
         id="path841" /></g></g></svg>
