<?xml version="1.0" encoding="UTF-8" standalone="no"?>
<svg
   xmlns:dc="http://purl.org/dc/elements/1.1/"
   xmlns:cc="http://creativecommons.org/ns#"
   xmlns:rdf="http://www.w3.org/1999/02/22-rdf-syntax-ns#"
   xmlns:svg="http://www.w3.org/2000/svg"
   xmlns="http://www.w3.org/2000/svg"
   xmlns:sodipodi="http://sodipodi.sourceforge.net/DTD/sodipodi-0.dtd"
   xmlns:inkscape="http://www.inkscape.org/namespaces/inkscape"
   enable-background="new 0 0 24 24"
   height="24"
   viewBox="0 0 24 24"
   width="24"
   version="1.1"
   id="svg4"
   sodipodi:docname="align_vertical_bottom.svg"
   inkscape:version="1.0.2 (e86c870879, 2021-01-15)">
  <metadata
     id="metadata10">
    <rdf:RDF>
      <cc:Work
         rdf:about="">
        <dc:format>image/svg+xml</dc:format>
        <dc:type
           rdf:resource="http://purl.org/dc/dcmitype/StillImage" />
      </cc:Work>
    </rdf:RDF>
  </metadata>
  <defs
     id="defs8" />
  <sodipodi:namedview
     pagecolor="#ffffff"
     bordercolor="#666666"
     borderopacity="1"
     objecttolerance="10"
     gridtolerance="10"
     guidetolerance="10"
     inkscape:pageopacity="0"
     inkscape:pageshadow="2"
     inkscape:window-width="3824"
     inkscape:window-height="2107"
     id="namedview6"
     showgrid="false"
     inkscape:zoom="42"
     inkscape:cx="12"
     inkscape:cy="12"
     inkscape:window-x="8"
     inkscape:window-y="33"
     inkscape:window-maximized="0"
     inkscape:current-layer="svg4" />
  <path fill="#B9D4F0"
     id="path2"
     d="M 8.5 2 C 7.67 2 7 2.67 7 3.5 L 7 10.5 L 7 12.5 C 7 13.33 7.6699999 14 8.5 14 C 9.33 14 10 13.33 10 12.5 L 10 5.5 L 10 3.5 C 10 2.67 9.33 2 8.5 2 z M 15.5 8 C 14.67 8 14 8.67 14 9.5 L 14 13.5 L 14 16 L 3 16 C 2.45 16 2 16.45 2 17 C 2 17.55 2.45 18 3 18 L 14 18 L 14 20.5 C 14 21.33 14.67 22 15.5 22 C 16.33 22 17 21.33 17 20.5 L 17 18 L 21 18 C 21.55 18 22 17.55 22 17 C 22 16.45 21.55 16 21 16 L 17 16 L 17 13.5 L 17 9.5 C 17 8.67 16.33 8 15.5 8 z " />
</svg>
