<?xml version="1.0" encoding="UTF-8" standalone="no"?>
<svg
   xmlns:dc="http://purl.org/dc/elements/1.1/"
   xmlns:cc="http://creativecommons.org/ns#"
   xmlns:rdf="http://www.w3.org/1999/02/22-rdf-syntax-ns#"
   xmlns:svg="http://www.w3.org/2000/svg"
   xmlns="http://www.w3.org/2000/svg"
   xmlns:sodipodi="http://sodipodi.sourceforge.net/DTD/sodipodi-0.dtd"
   xmlns:inkscape="http://www.inkscape.org/namespaces/inkscape"
   height="24"
   viewBox="0 0 24 24"
   width="24"
   version="1.1"
   id="svg4"
   sodipodi:docname="gnumeric-format-border-thick-outside.svg"
   inkscape:version="1.0.1 (3bc2e813f5, 2020-09-07)">
  <metadata
     id="metadata10">
    <rdf:RDF>
      <cc:Work
         rdf:about="">
        <dc:format>image/svg+xml</dc:format>
        <dc:type
           rdf:resource="http://purl.org/dc/dcmitype/StillImage" />
      </cc:Work>
    </rdf:RDF>
  </metadata>
  <defs
     id="defs8" />
  <sodipodi:namedview
     pagecolor="#ffffff"
     bordercolor="#666666"
     borderopacity="1"
     objecttolerance="10"
     gridtolerance="10"
     guidetolerance="10"
     inkscape:pageopacity="0"
     inkscape:pageshadow="2"
     inkscape:window-width="950"
     inkscape:window-height="1022"
     id="namedview6"
     showgrid="false"
     inkscape:zoom="39.833333"
     inkscape:cx="12.050209"
     inkscape:cy="12"
     inkscape:window-x="2882"
     inkscape:window-y="35"
     inkscape:window-maximized="0"
     inkscape:current-layer="svg4" />
  <path fill="#B9D4F0"
     d="m 13,11 h -2 v 2 h 2 z M 3,5 v 14 c 0,1.1 0.9,2 2,2 h 14 c 1.1,0 2,-0.9 2,-2 V 5 C 21,3.9 20.1,3 19,3 H 5 C 3.9,3 3,3.9 3,5 Z M 16,17 H 8 C 7.45,17 7,16.55 7,16 V 8 C 7,7.45 7.45,7 8,7 h 8 c 0.55,0 1,0.45 1,1 v 8 c 0,0.55 -0.45,1 -1,1 z"
     id="path2"
     sodipodi:nodetypes="cccccssssssssssssssssss" />
</svg>
