<?xml version="1.0" encoding="UTF-8" standalone="no"?>
<svg
   enable-background="new 0 0 24 24"
   height="24px"
   viewBox="0 0 24 24"
   width="24px"
   
   version="1.1"
   id="svg10"
   sodipodi:docname="emblem-mail.svg"
   inkscape:version="1.1 (c68e22c387, 2021-05-23)"
   xmlns:inkscape="http://www.inkscape.org/namespaces/inkscape"
   xmlns:sodipodi="http://sodipodi.sourceforge.net/DTD/sodipodi-0.dtd"
   xmlns="http://www.w3.org/2000/svg"
   xmlns:svg="http://www.w3.org/2000/svg">
  <defs
     id="defs14" />
  <sodipodi:namedview
     id="namedview12"
     pagecolor="#ffffff"
     bordercolor="#666666"
     borderopacity="1.0"
     inkscape:pageshadow="2"
     inkscape:pageopacity="0.0"
     inkscape:pagecheckerboard="0"
     showgrid="false"
     inkscape:zoom="37.458333"
     inkscape:cx="4.5116797"
     inkscape:cy="11.986652"
     inkscape:window-width="1920"
     inkscape:window-height="1080"
     inkscape:window-x="0"
     inkscape:window-y="0"
     inkscape:window-maximized="0"
     inkscape:current-layer="svg10" />
  <path fill="#B9D4F0"
     id="path6"
     style="fill:#B9D4F0;fill-opacity:1"
     d="M 12 2 C 6.49 2 2 6.49 2 12 C 2 17.51 6.49 22 12 22 C 17.51 22 22 17.51 22 12 C 22 6.49 17.51 2 12 2 z M 12 5.6113281 C 12.21 5.6113281 12.419469 5.6663437 12.605469 5.7773438 L 17.429688 8.6035156 C 17.771687 8.8135156 17.994141 9.1910469 17.994141 9.6230469 L 18 15.623047 C 18 16.283047 17.460781 16.824219 16.800781 16.824219 L 7.1992188 16.824219 C 6.5392188 16.824219 6 16.283047 6 15.623047 L 6 9.6230469 C 6 9.1910469 6.2283125 8.8135156 6.5703125 8.6035156 L 11.394531 5.7773438 C 11.580531 5.6663437 11.79 5.6113281 12 5.6113281 z M 12 6.8105469 C 11.79 6.8105469 11.580531 6.8675156 11.394531 6.9785156 L 7.0449219 9.5273438 L 11.363281 12.228516 C 11.753281 12.468516 12.246719 12.468516 12.636719 12.228516 L 16.955078 9.5273438 L 12.605469 6.9785156 C 12.419469 6.8675156 12.21 6.8105469 12 6.8105469 z " />
</svg>
