<?xml version="1.0" encoding="UTF-8" standalone="no"?>
<svg
   enable-background="new 0 0 24 24"
   height="24px"
   viewBox="0 0 24 24"
   width="24px"
   
   version="1.1"
   id="svg10"
   sodipodi:docname="emblem-photos.svg"
   inkscape:version="1.1 (c68e22c387, 2021-05-23)"
   xmlns:inkscape="http://www.inkscape.org/namespaces/inkscape"
   xmlns:sodipodi="http://sodipodi.sourceforge.net/DTD/sodipodi-0.dtd"
   xmlns="http://www.w3.org/2000/svg"
   xmlns:svg="http://www.w3.org/2000/svg">
  <defs
     id="defs14" />
  <sodipodi:namedview
     id="namedview12"
     pagecolor="#ffffff"
     bordercolor="#666666"
     borderopacity="1.0"
     inkscape:pageshadow="2"
     inkscape:pageopacity="0.0"
     inkscape:pagecheckerboard="0"
     showgrid="false"
     inkscape:zoom="26.487041"
     inkscape:cx="-1.5101725"
     inkscape:cy="14.648673"
     inkscape:window-width="1920"
     inkscape:window-height="1080"
     inkscape:window-x="0"
     inkscape:window-y="0"
     inkscape:window-maximized="0"
     inkscape:current-layer="svg10" />
  <path fill="#B9D4F0"
     id="path6"
     style="fill:#B9D4F0;fill-opacity:1"
     d="M 12 2 C 6.48 2 2 6.48 2 12 C 2 17.52 6.48 22 12 22 C 17.52 22 22 17.52 22 12 C 22 6.48 17.52 2 12 2 z M 8.1113281 7 L 15.888672 7 C 16.499784 7 17 7.5002171 17 8.1113281 L 17 15.888672 C 17 16.499784 16.499784 17 15.888672 17 L 8.1113281 17 C 7.5002171 17 7 16.499784 7 15.888672 L 7 8.1113281 C 7 7.5002171 7.5002171 7 8.1113281 7 z M 13.388672 12.181641 C 13.305339 12.180953 13.221571 12.21684 13.166016 12.289062 L 11.445312 14.505859 L 10.277344 13.099609 C 10.160677 12.960719 9.9493056 12.966884 9.84375 13.111328 L 8.4609375 14.888672 C 8.316493 15.072005 8.4444011 15.337891 8.6777344 15.337891 L 15.339844 15.337891 C 15.567566 15.337891 15.699435 15.077864 15.560547 14.894531 L 13.611328 12.294922 C 13.555773 12.21995 13.472005 12.182328 13.388672 12.181641 z " />
</svg>
