<?xml version="1.0" encoding="UTF-8" standalone="no"?>
<svg
   enable-background="new 0 0 24 24"
   height="24px"
   viewBox="0 0 24 24"
   width="24px"
   
   version="1.1"
   id="svg10"
   sodipodi:docname="emblem-important.svg"
   inkscape:version="1.1 (c68e22c387, 2021-05-23)"
   xmlns:inkscape="http://www.inkscape.org/namespaces/inkscape"
   xmlns:sodipodi="http://sodipodi.sourceforge.net/DTD/sodipodi-0.dtd"
   xmlns="http://www.w3.org/2000/svg"
   xmlns:svg="http://www.w3.org/2000/svg">
  <defs
     id="defs14" />
  <sodipodi:namedview
     id="namedview12"
     pagecolor="#ffffff"
     bordercolor="#666666"
     borderopacity="1.0"
     inkscape:pageshadow="2"
     inkscape:pageopacity="0.0"
     inkscape:pagecheckerboard="0"
     showgrid="false"
     inkscape:zoom="37.458333"
     inkscape:cx="4.6451613"
     inkscape:cy="11.986652"
     inkscape:window-width="1920"
     inkscape:window-height="1080"
     inkscape:window-x="0"
     inkscape:window-y="0"
     inkscape:window-maximized="0"
     inkscape:current-layer="svg10" />
  <path fill="#B9D4F0"
     d="M 12,2 C 6.48,2 2,6.48 2,12 2,17.52 6.48,22 12,22 17.52,22 22,17.52 22,12 22,6.48 17.52,2 12,2 Z m 0,16.5 c -0.83,0 -1.5,-0.67 -1.5,-1.5 h 3 c 0,0.83 -0.67,1.5 -1.5,1.5 z M 16,16 H 8 C 7.45,16 7,15.55 7,15 v 0 C 7,14.45 7.45,14 8,14 V 11 C 8,9.14 9.28,7.59 11,7.14 V 6.5 c 0,-0.55 0.45,-1 1,-1 0.55,0 1,0.45 1,1 v 0.64 c 1.72,0.45 3,2 3,3.86 v 3 c 0.55,0 1,0.45 1,1 v 0 c 0,0.55 -0.45,1 -1,1 z"
     id="path6"
     style="fill:#B9D4F0;fill-opacity:1" />
</svg>
