<?xml version="1.0" encoding="UTF-8" standalone="no"?>
<svg
   xmlns:dc="http://purl.org/dc/elements/1.1/"
   xmlns:cc="http://creativecommons.org/ns#"
   xmlns:rdf="http://www.w3.org/1999/02/22-rdf-syntax-ns#"
   xmlns:svg="http://www.w3.org/2000/svg"
   xmlns="http://www.w3.org/2000/svg"
   xmlns:sodipodi="http://sodipodi.sourceforge.net/DTD/sodipodi-0.dtd"
   xmlns:inkscape="http://www.inkscape.org/namespaces/inkscape"
   height="24"
   viewBox="0 0 24 24"
   width="24"
   version="1.1"
   id="svg4"
   sodipodi:docname="color-picker-white (copy).svg"
   inkscape:version="1.0.1 (3bc2e813f5, 2020-09-07)">
  <metadata
     id="metadata10">
    <rdf:RDF>
      <cc:Work
         rdf:about="">
        <dc:format>image/svg+xml</dc:format>
        <dc:type
           rdf:resource="http://purl.org/dc/dcmitype/StillImage" />
      </cc:Work>
    </rdf:RDF>
  </metadata>
  <defs
     id="defs8" />
  <sodipodi:namedview
     pagecolor="#ffffff"
     bordercolor="#666666"
     borderopacity="1"
     objecttolerance="10"
     gridtolerance="10"
     guidetolerance="10"
     inkscape:pageopacity="0"
     inkscape:pageshadow="2"
     inkscape:window-width="1904"
     inkscape:window-height="1004"
     id="namedview6"
     showgrid="false"
     inkscape:zoom="31"
     inkscape:cx="12"
     inkscape:cy="12"
     inkscape:window-x="56"
     inkscape:window-y="50"
     inkscape:window-maximized="0"
     inkscape:current-layer="svg4" />
  <path fill="#B9D4F0"
     d="M18 19H6c-.55 0-1-.45-1-1V6c0-.55.45-1 1-1h12c.55 0 1 .45 1 1v12c0 .55-.45 1-1 1zm1-16H5c-1.1 0-2 .9-2 2v14c0 1.1.9 2 2 2h14c1.1 0 2-.9 2-2V5c0-1.1-.9-2-2-2z"
     id="path2" />
  <path fill="#B9D4F0"
     d="M 7,5 H 9.000001 V 7 H 7 Z"
     id="path2-3"
     sodipodi:nodetypes="ccccccccc" />
  <path fill="#B9D4F0"
     d="m 11,5 h 2.000001 V 7 H 11 Z"
     id="path2-3-3"
     sodipodi:nodetypes="ccccccccc" />
  <path fill="#B9D4F0"
     d="m 15,5 h 2.000001 V 7 H 15 Z"
     id="path2-3-6"
     sodipodi:nodetypes="ccccccccc" />
  <path fill="#B9D4F0"
     d="m 7,9 h 2.000001 v 2 H 7 Z"
     id="path2-3-7"
     sodipodi:nodetypes="ccccccccc" />
  <path fill="#B9D4F0"
     d="m 11,9 h 2.000001 v 2 H 11 Z"
     id="path2-3-3-5"
     sodipodi:nodetypes="ccccccccc" />
  <path fill="#B9D4F0"
     d="m 15,9 h 2.000001 v 2 H 15 Z"
     id="path2-3-6-3"
     sodipodi:nodetypes="ccccccccc" />
  <path fill="#B9D4F0"
     d="m 7.0000002,13 h 2.000001 v 2 h -2.000001 z"
     id="path2-3-7-5"
     sodipodi:nodetypes="ccccccccc" />
  <path fill="#B9D4F0"
     d="m 11,13 h 2.000001 v 2 H 11 Z"
     id="path2-3-3-5-6"
     sodipodi:nodetypes="ccccccccc" />
  <path fill="#B9D4F0"
     d="m 15,13 h 2.000001 v 2 H 15 Z"
     id="path2-3-6-3-2"
     sodipodi:nodetypes="ccccccccc" />
  <path fill="#B9D4F0"
     d="m 7.0000005,17 h 2.000001 v 2 h -2.000001 z"
     id="path2-3-7-5-9"
     sodipodi:nodetypes="ccccccccc" />
  <path fill="#B9D4F0"
     d="m 11,17 h 2.000001 v 2 H 11 Z"
     id="path2-3-3-5-6-1"
     sodipodi:nodetypes="ccccccccc" />
  <path fill="#B9D4F0"
     d="m 15,17 h 2.000002 v 2 H 15 Z"
     id="path2-3-6-3-2-2"
     sodipodi:nodetypes="ccccccccc" />
  <path fill="#B9D4F0"
     d="m 13.000001,15 h 2.000001 v 2 h -2.000001 z"
     id="path2-3-6-3-2-7"
     sodipodi:nodetypes="ccccccccc" />
  <path fill="#B9D4F0"
     d="m 17.000001,15 h 2.000001 v 2 h -2.000001 z"
     id="path2-3-6-3-2-7-0"
     sodipodi:nodetypes="ccccccccc" />
  <path fill="#B9D4F0"
     d="m 9.0000012,15 h 2.0000008 v 2 H 9.0000012 Z"
     id="path2-3-6-3-2-7-0-9"
     sodipodi:nodetypes="ccccccccc" />
  <path fill="#B9D4F0"
     d="m 4.9999993,15 h 2.0000012 v 2 H 4.9999993 Z"
     id="path2-3-6-3-2-7-0-9-3"
     sodipodi:nodetypes="ccccccccc" />
  <path fill="#B9D4F0"
     d="m 13,11 h 2.000002 v 2 H 13 Z"
     id="path2-3-6-3-2-7-6"
     sodipodi:nodetypes="ccccccccc" />
  <path fill="#B9D4F0"
     d="m 17.000001,11 h 2.000001 v 2 h -2.000001 z"
     id="path2-3-6-3-2-7-0-0"
     sodipodi:nodetypes="ccccccccc" />
  <path fill="#B9D4F0"
     d="m 9.000001,11 h 2 v 2 h -2 z"
     id="path2-3-6-3-2-7-0-9-6"
     sodipodi:nodetypes="ccccccccc" />
  <path fill="#B9D4F0"
     d="M 4.999999,11 H 7 v 2 H 4.999999 Z"
     id="path2-3-6-3-2-7-0-9-3-2"
     sodipodi:nodetypes="ccccccccc" />
  <path fill="#B9D4F0"
     d="M 12.999999,7 H 15 v 2 h -2.000001 z"
     id="path2-3-6-3-2-7-61"
     sodipodi:nodetypes="ccccccccc" />
  <path fill="#B9D4F0"
     d="M 16.999999,7 H 19 v 2 h -2.000001 z"
     id="path2-3-6-3-2-7-0-8"
     sodipodi:nodetypes="ccccccccc" />
  <path fill="#B9D4F0"
     d="M 8.9999992,7 H 11 V 9 H 8.9999992 Z"
     id="path2-3-6-3-2-7-0-9-7"
     sodipodi:nodetypes="ccccccccc" />
  <path fill="#B9D4F0"
     d="M 4.9999973,7 H 6.9999985 V 9 H 4.9999973 Z"
     id="path2-3-6-3-2-7-0-9-3-9"
     sodipodi:nodetypes="ccccccccc" />
</svg>
