<?xml version="1.0" encoding="UTF-8" standalone="no"?>
<svg
   version="1.1"
   id="mdi-comment-processing"
   width="24"
   height="24"
   viewBox="0 0 24 24"
   sodipodi:docname="imagecomment (copy).svg"
   inkscape:version="1.1 (c68e22c387, 2021-05-23)"
   xmlns:inkscape="http://www.inkscape.org/namespaces/inkscape"
   xmlns:sodipodi="http://sodipodi.sourceforge.net/DTD/sodipodi-0.dtd"
   xmlns="http://www.w3.org/2000/svg"
   xmlns:svg="http://www.w3.org/2000/svg">
  <defs
     id="defs7" />
  <sodipodi:namedview
     id="namedview5"
     pagecolor="#ffffff"
     bordercolor="#666666"
     borderopacity="1.0"
     inkscape:pageshadow="2"
     inkscape:pageopacity="0.0"
     inkscape:pagecheckerboard="0"
     showgrid="false"
     inkscape:zoom="33.541667"
     inkscape:cx="11.970186"
     inkscape:cy="12.014907"
     inkscape:window-width="1904"
     inkscape:window-height="1000"
     inkscape:window-x="26"
     inkscape:window-y="23"
     inkscape:window-maximized="0"
     inkscape:current-layer="mdi-comment-processing" />
  <path fill="#B9D4F0"
     id="path2"
     d="M 4 2 C 2.9 2 2 2.89 2 4 L 2 16 C 2 17.104569 2.8954305 18 4 18 L 8 18 L 8 21 C 8 21.552285 8.4477153 22 9 22 L 9.5 22 C 9.75 22 9.9992182 21.900939 10.199219 21.710938 L 13.900391 18 L 20 18 C 21.104569 18 22 17.104569 22 16 L 22 4 C 22 2.8954305 21.104569 2 20 2 L 4 2 z M 12 5 C 12.55 5 13 5.45 13 6 L 13 9 L 16 9 C 16.55 9 17 9.4500003 17 10 C 17 10.55 16.55 11 16 11 L 13 11 L 13 14 C 13 14.55 12.55 15 12 15 C 11.45 15 11 14.55 11 14 L 11 11 L 8 11 C 7.45 11 7 10.55 7 10 C 7 9.4500003 7.45 9 8 9 L 11 9 L 11 6 C 11 5.45 11.45 5 12 5 z " />
</svg>
