<?xml version="1.0" encoding="UTF-8" standalone="no"?>
<svg
   version="1.1"
   id="mdi-file-document-outline"
   width="24"
   height="24"
   viewBox="0 0 24 24"
   sodipodi:docname="application-vnd.iccprofile.svg"
   inkscape:version="1.1 (c68e22c387, 2021-05-23)"
   xmlns:inkscape="http://www.inkscape.org/namespaces/inkscape"
   xmlns:sodipodi="http://sodipodi.sourceforge.net/DTD/sodipodi-0.dtd"
   xmlns="http://www.w3.org/2000/svg"
   xmlns:svg="http://www.w3.org/2000/svg"
   xmlns:rdf="http://www.w3.org/1999/02/22-rdf-syntax-ns#"
   xmlns:cc="http://creativecommons.org/ns#"
   xmlns:dc="http://purl.org/dc/elements/1.1/">
  <metadata
     id="metadata9">
    <rdf:RDF>
      <cc:Work
         rdf:about="">
        <dc:format>image/svg+xml</dc:format>
        <dc:type
           rdf:resource="http://purl.org/dc/dcmitype/StillImage" />
      </cc:Work>
    </rdf:RDF>
  </metadata>
  <defs
     id="defs7" />
  <sodipodi:namedview
     pagecolor="#ffffff"
     bordercolor="#666666"
     borderopacity="1"
     objecttolerance="10"
     gridtolerance="10"
     guidetolerance="10"
     inkscape:pageopacity="0"
     inkscape:pageshadow="2"
     inkscape:window-width="1904"
     inkscape:window-height="1008"
     id="namedview5"
     showgrid="false"
     inkscape:zoom="16.493489"
     inkscape:cx="-2.1826794"
     inkscape:cy="19.098445"
     inkscape:window-x="45"
     inkscape:window-y="29"
     inkscape:window-maximized="0"
     inkscape:current-layer="mdi-file-document-outline"
     inkscape:pagecheckerboard="0" />
  <path fill="#B9D4F0"
     id="path2"
     d="m 6,2 c -0.069036,0 -0.137844,0.00294 -0.2050781,0.00977 -0.066357,0.00686 -0.1329456,0.017999 -0.1972657,0.03125 -0.065098,0.013321 -0.1307334,0.029349 -0.1933593,0.048828 -0.061916,0.019429 -0.1224334,0.043206 -0.1816407,0.068359 -0.059169,0.025588 -0.1173769,0.053382 -0.1738281,0.083984 h -0.00195 c -0.020342,0.011051 -0.03869,0.025385 -0.058594,0.037109 -0.042131,0.024816 -0.082984,0.052349 -0.1230468,0.080078 -0.040553,0.028198 -0.080827,0.056853 -0.1191406,0.087891 -0.02235,0.018054 -0.042915,0.037659 -0.064453,0.056641 -0.062933,0.055563 -0.1221716,0.1148017 -0.1777344,0.1777344 -0.019591,0.022229 -0.039991,0.043312 -0.058594,0.066406 -0.027939,0.034592 -0.054444,0.069052 -0.080078,0.1054687 -0.033976,0.048416 -0.066026,0.09893 -0.095703,0.1503906 -0.00848,0.014703 -0.019229,0.028031 -0.027344,0.042969 -0.031194,0.057122 -0.058376,0.115504 -0.083984,0.1757812 -0.025588,0.059169 -0.048969,0.1192975 -0.068359,0.1816407 -0.019795,0.063084 -0.035324,0.1278112 -0.048828,0.1933593 -0.013321,0.065098 -0.024422,0.1300315 -0.03125,0.1972657 C 4.002775,3.8625613 4,3.9305922 4,4 v 16 c 0,0.06875 0.00298,0.136108 0.00977,0.203125 6.43e-5,6.39e-4 -6.49e-5,0.0013 0,0.002 0.013635,0.133356 0.041533,0.264221 0.080078,0.388672 1.844e-4,5.95e-4 -1.85e-4,0.0014 0,0.002 0.019239,0.06191 0.041487,0.122437 0.066406,0.181641 0.012407,0.02941 0.027262,0.05727 0.041016,0.08594 0.014134,0.02953 0.027454,0.05918 0.042969,0.08789 4.144e-4,7.65e-4 0.00154,0.0012 0.00195,0.002 0.030264,0.05584 0.062409,0.111576 0.097656,0.164063 4.965e-4,7.37e-4 0.00146,0.0012 0.00195,0.002 0.0353,0.05241 0.073325,0.10166 0.1132812,0.15039 5.829e-4,7.08e-4 0.00137,0.0012 0.00195,0.002 0.040759,0.04939 0.083665,0.09734 0.1289063,0.142578 0.044107,0.04423 0.090617,0.087 0.1386719,0.126954 0.00108,8.94e-4 0.00283,0.0011 0.00391,0.002 0.048114,0.03982 0.096698,0.07806 0.1484375,0.113281 0.00119,8.1e-4 0.00271,0.0011 0.00391,0.002 0.1047221,0.07075 0.2164184,0.133438 0.3339844,0.183594 0.00188,8.04e-4 0.00397,0.0012 0.00586,0.002 0.1794576,0.0759 0.3725163,0.126 0.5742188,0.146484 C 5.859369,21.996584 5.9241225,22 5.9902344,22 5.9935106,22.000016 5.99672,22 6,22 h 12 c 0.06202,-6.08e-4 0.123007,-0.0036 0.183594,-0.0098 0.04781,-0.0043 0.0939,-0.01183 0.140625,-0.01953 0.0013,-2.08e-4 0.0026,2.1e-4 0.0039,0 0.0098,-0.0016 0.01959,-0.0022 0.0293,-0.0039 0.0033,-6.05e-4 0.0065,-0.0013 0.0098,-0.002 0.002,-3.76e-4 0.0038,-0.0016 0.0059,-0.002 0.03485,-0.0066 0.06923,-0.01499 0.103515,-0.02344 0.01228,-0.003 0.02492,-0.0046 0.03711,-0.0078 0.0045,-0.0012 0.0091,-0.0027 0.01367,-0.0039 8.34e-4,-2.31e-4 0.0012,-0.0015 0.002,-0.002 6.07e-4,-1.68e-4 0.0013,1.69e-4 0.002,0 0.0529,-0.01456 0.105197,-0.03211 0.15625,-0.05078 0.04306,-0.01575 0.08534,-0.03223 0.126953,-0.05078 0.02541,-0.01143 0.04937,-0.02466 0.07422,-0.03711 0.02962,-0.01472 0.05913,-0.02881 0.08789,-0.04492 0.0013,-7.09e-4 0.0027,-0.0012 0.0039,-0.002 0.04677,-0.02634 0.09238,-0.0541 0.136719,-0.08398 0.07438,-0.05014 0.142174,-0.108575 0.208984,-0.167969 0.02134,-0.01905 0.04394,-0.03671 0.06445,-0.05664 0.05277,-0.05111 0.103508,-0.105495 0.150391,-0.16211 0.003,-0.0036 0.0049,-0.0081 0.0078,-0.01172 0.03752,-0.04607 0.07404,-0.09132 0.107422,-0.140624 0.03573,-0.05277 0.0709,-0.107911 0.101562,-0.164063 2.65e-4,-4.85e-4 -2.64e-4,-0.0015 0,-0.002 0.03019,-0.05538 0.05709,-0.111573 0.08203,-0.169922 0.003,-0.007 0.0049,-0.0144 0.0078,-0.02148 0.01804,-0.04358 0.03581,-0.08778 0.05078,-0.132813 0.0072,-0.02187 0.01304,-0.04421 0.01953,-0.06641 0.01248,-0.04243 0.02353,-0.08538 0.0332,-0.128906 0.0044,-0.02009 0.0079,-0.04023 0.01172,-0.06055 0.0055,-0.0289 0.01141,-0.05858 0.01563,-0.08789 0.0051,-0.03601 0.0105,-0.07276 0.01367,-0.109375 1.13e-4,-0.0013 -1.11e-4,-0.0026 0,-0.0039 C 19.996952,20.113647 20,20.057526 20,20 V 8.8300781 c 0,-0.53 -0.209844,-1.0401562 -0.589844,-1.4101562 L 14.589844,2.5898438 C 14.209844,2.2098438 13.699922,2 13.169922,2 Z M 6.9804688,4 H 10.470703 13 v 4 c 0,0.55 0.45,1 1,1 h 4 V 19.101562 C 17.948098,19.603727 17.52506,20 17.009766,20 H 6.9804688 C 6.4992187,20 6.0936523,19.655762 6,19.201172 V 4.7988281 C 6.0936523,4.3442383 6.4992187,4 6.9804688,4 Z"
     sodipodi:nodetypes="sccccccsccccccscccccssscscccscscsccscscscccsccsccccscsccsccscsccscsscsccccccscssccsssccssccssccs" />
</svg>
