<?xml version="1.0" encoding="UTF-8" standalone="no"?>
<svg
   xmlns:dc="http://purl.org/dc/elements/1.1/"
   xmlns:cc="http://creativecommons.org/ns#"
   xmlns:rdf="http://www.w3.org/1999/02/22-rdf-syntax-ns#"
   xmlns:svg="http://www.w3.org/2000/svg"
   xmlns="http://www.w3.org/2000/svg"
   xmlns:sodipodi="http://sodipodi.sourceforge.net/DTD/sodipodi-0.dtd"
   xmlns:inkscape="http://www.inkscape.org/namespaces/inkscape"
   height="24"
   viewBox="0 0 24 24"
   width="24"
   version="1.1"
   id="svg4"
   sodipodi:docname="flag-filled.svg"
   inkscape:version="1.0.2 (e86c870879, 2021-01-15)">
  <metadata
     id="metadata10">
    <rdf:RDF>
      <cc:Work
         rdf:about="">
        <dc:format>image/svg+xml</dc:format>
        <dc:type
           rdf:resource="http://purl.org/dc/dcmitype/StillImage" />
      </cc:Work>
    </rdf:RDF>
  </metadata>
  <defs
     id="defs8" />
  <sodipodi:namedview
     pagecolor="#ffffff"
     bordercolor="#666666"
     borderopacity="1"
     objecttolerance="10"
     gridtolerance="10"
     guidetolerance="10"
     inkscape:pageopacity="0"
     inkscape:pageshadow="2"
     inkscape:window-width="3824"
     inkscape:window-height="2080"
     id="namedview6"
     showgrid="false"
     inkscape:zoom="42"
     inkscape:cx="12"
     inkscape:cy="12"
     inkscape:window-x="3848"
     inkscape:window-y="35"
     inkscape:window-maximized="0"
     inkscape:current-layer="svg4" />
  <path fill="#B9D4F0"
     id="path2"
     d="M 6 4 C 5.45 4 5 4.45 5 5 L 5 20 C 5 20.55 5.45 21 6 21 C 6.55 21 7 20.55 7 20 L 7 14 L 12.599609 14 L 12.839844 15.199219 C 12.929844 15.669219 13.340313 16 13.820312 16 L 19 16 C 19.55 16 20 15.55 20 15 L 20 7 C 20 6.45 19.55 6 19 6 L 14.400391 6 L 14.160156 4.8007812 C 14.070156 4.3407813 13.659687 4 13.179688 4 L 6 4 z M 8 6 L 10.400391 6 A 1.2 1.2 0 0 1 11.599609 7.1992188 L 11.599609 8.4003906 C 11.599609 8.9043906 11.299469 9.3297656 10.855469 9.5097656 L 11.599609 12 L 10.400391 12 L 9.6796875 9.5996094 L 9.1992188 9.5996094 L 9.1992188 12 L 8 12 L 8 6 z M 9.1992188 7.1992188 L 9.1992188 8.4003906 L 10.400391 8.4003906 L 10.400391 7.1992188 L 9.1992188 7.1992188 z " />
</svg>
