<?xml version="1.0" encoding="UTF-8" standalone="no"?>
<svg
   version="1.1"
   id="mdi-text-box-plus-outline"
   width="24"
   height="24"
   viewBox="0 0 24 24"
   sodipodi:docname="insert-text-frame.svg"
   inkscape:version="1.1 (c68e22c387, 2021-05-23)"
   xmlns:inkscape="http://www.inkscape.org/namespaces/inkscape"
   xmlns:sodipodi="http://sodipodi.sourceforge.net/DTD/sodipodi-0.dtd"
   xmlns="http://www.w3.org/2000/svg"
   xmlns:svg="http://www.w3.org/2000/svg">
  <defs
     id="defs7" />
  <sodipodi:namedview
     id="namedview5"
     pagecolor="#ffffff"
     bordercolor="#666666"
     borderopacity="1.0"
     inkscape:pageshadow="2"
     inkscape:pageopacity="0.0"
     inkscape:pagecheckerboard="0"
     showgrid="false"
     inkscape:zoom="30.458333"
     inkscape:cx="12.016416"
     inkscape:cy="12.016416"
     inkscape:window-width="1920"
     inkscape:window-height="1024"
     inkscape:window-x="0"
     inkscape:window-y="0"
     inkscape:window-maximized="1"
     inkscape:current-layer="mdi-text-box-plus-outline" />
  <g
     id="g2"
     transform="matrix(1,0,0,-1,-20,24)" />
  <g
     id="g18"
     transform="matrix(1,0,0,-1,0,24)">
    <g
       id="g4" />
    <g
       id="g16">
      <path fill="#B9D4F0"
         d="m 18,12 c -0.55,0 -1,0.45 -1,1 v 5.22 c 0,0.55 -0.45,1 -1,1 H 6 c -0.55,0 -1,-0.45 -1,-1 V 8 C 5,7.45 5.45,7 6,7 h 5 C 11.55,7 12,6.55 12,6 12,5.45 11.55,5 11,5 H 5 C 3.9,5 3,5.9 3,7 v 12 c 0,1.1 0.9,2 2,2 h 12 c 1.1,0 2,-0.9 2,-2 v -6 c 0,-0.55 -0.45,-1 -1,-1 z"
         id="path6" />
      <path fill="#B9D4F0"
         d="M 21.02,5 H 19 V 2.98 C 19,2.44 18.56,2 18.02,2 H 17.99 C 17.44,2 17,2.44 17,2.98 V 5 H 14.99 C 14.45,5 14.01,5.44 14,5.98 14,5.99 14,6 14,6.01 14,6.56 14.44,7 14.99,7 H 17 v 2.01 c 0,0.54 0.44,0.99 0.99,0.98 0.01,0 0.02,0 0.03,0 C 18.56,9.99 19,9.55 19,9.01 V 7 h 2.02 C 21.56,7 22,6.56 22,6.02 V 5.98 C 22,5.44 21.56,5 21.02,5 Z"
         id="path8" />
      <path fill="#B9D4F0"
         d="M 14,9 H 8 c -0.55,0 -1,0.45 -1,1 0,0.55 0.45,1 1,1 h 6 c 0.55,0 1,-0.45 1,-1 0,-0.55 -0.45,-1 -1,-1 z"
         id="path10" />
      <path fill="#B9D4F0"
         d="M 14,12 H 8 c -0.55,0 -1,0.45 -1,1 0,0.55 0.45,1 1,1 h 6 c 0.55,0 1,-0.45 1,-1 0,-0.55 -0.45,-1 -1,-1 z"
         id="path12" />
      <path fill="#B9D4F0"
         d="M 14,15 H 8 c -0.55,0 -1,0.45 -1,1 0,0.55 0.45,1 1,1 h 6 c 0.55,0 1,-0.45 1,-1 0,-0.55 -0.45,-1 -1,-1 z"
         id="path14" />
    </g>
  </g>
</svg>
