<?xml version="1.0" encoding="UTF-8" standalone="no"?>
<svg
   xmlns:dc="http://purl.org/dc/elements/1.1/"
   xmlns:cc="http://creativecommons.org/ns#"
   xmlns:rdf="http://www.w3.org/1999/02/22-rdf-syntax-ns#"
   xmlns:svg="http://www.w3.org/2000/svg"
   xmlns="http://www.w3.org/2000/svg"
   xmlns:sodipodi="http://sodipodi.sourceforge.net/DTD/sodipodi-0.dtd"
   xmlns:inkscape="http://www.inkscape.org/namespaces/inkscape"
   enable-background="new 0 0 24 24"
   height="24"
   viewBox="0 0 24 24"
   width="24"
   version="1.1"
   id="svg6"
   sodipodi:docname="dash-long-symbolic.svg"
   inkscape:version="1.0.2 (e86c870879, 2021-01-15)">
  <metadata
     id="metadata12">
    <rdf:RDF>
      <cc:Work
         rdf:about="">
        <dc:format>image/svg+xml</dc:format>
        <dc:type
           rdf:resource="http://purl.org/dc/dcmitype/StillImage" />
      </cc:Work>
    </rdf:RDF>
  </metadata>
  <defs
     id="defs10" />
  <sodipodi:namedview
     pagecolor="#ffffff"
     bordercolor="#666666"
     borderopacity="1"
     objecttolerance="10"
     gridtolerance="10"
     guidetolerance="10"
     inkscape:pageopacity="0"
     inkscape:pageshadow="2"
     inkscape:window-width="1904"
     inkscape:window-height="1000"
     id="namedview8"
     showgrid="false"
     inkscape:zoom="33.958333"
     inkscape:cx="12.07362"
     inkscape:cy="11.226994"
     inkscape:window-x="26"
     inkscape:window-y="23"
     inkscape:window-maximized="0"
     inkscape:current-layer="svg6"
     inkscape:document-rotation="0" />
  <g
     id="g2" />
  <path fill="#B9D4F0"
     id="path4-3"
     d="m 20,3.0021874 c -0.255,-10e-8 -0.510078,0.097969 -0.705078,0.2929687 -0.39,0.39 -0.39,1.0201562 0,1.4101563 0.39,0.3899999 1.020156,0.3899999 1.410156,0 0.390001,-0.3900001 0.390001,-1.0201563 0,-1.4101563 C 20.510078,3.1001561 20.255,3.0021874 20,3.0021874 Z" />
  <path fill="#B9D4F0"
     id="path4-3-2"
     d="m 16,7.0021874 c -0.255,-1e-7 -0.510078,0.097969 -0.705078,0.2929687 -0.39,0.39 -0.39,1.0201561 0,1.4101562 0.39,0.3899999 1.020156,0.3899999 1.410156,0 0.390001,-0.3900001 0.390001,-1.0201563 0,-1.4101562 C 16.510078,7.1001561 16.255,7.0021874 16,7.0021874 Z" />
  <path fill="#B9D4F0"
     id="path4-3-2-9"
     d="m 4.705891,20.705892 c 0.180313,-0.180312 0.291405,-0.429955 0.291405,-0.705726 0,-0.551543 -0.445587,-0.99713 -0.997131,-0.99713 -0.551543,0 -0.99713,0.445587 -0.99713,0.99713 -1e-6,0.551544 0.445587,0.997133 0.99713,0.997131 0.275772,0 0.525414,-0.111093 0.705726,-0.291405 z" />
  <path fill="#B9D4F0"
     id="path4-3-2-9-1"
     d="m 7.9999996,15.002188 c -0.255,0 -0.510078,0.09797 -0.705078,0.292969 -0.39,0.39 -0.39,1.020156 0,1.410156 0.39,0.39 1.020156,0.39 1.410156,0 0.390001,-0.39 0.390001,-1.020157 0,-1.410156 -0.195,-0.195 -0.450078,-0.292969 -0.705078,-0.292969 z" />
  <path fill="#B9D4F0"
     style="fill:#B9D4F0;fill-opacity:1;stroke:none;stroke-width:1px;stroke-linecap:butt;stroke-linejoin:miter;stroke-opacity:1"
     d="m 3.2944398,19.294441 3.9998338,-3.999932 1.41112,1.41112 -3.9995026,4.000263 z"
     id="path1070-6"
     sodipodi:nodetypes="ccccc" />
  <path fill="#B9D4F0"
     id="path4-3-2-9-0-1"
     d="m 7.9999996,15.002188 c -0.255001,0 -0.51008,0.09797 -0.705079,0.292969 -0.390001,0.39 -0.390001,1.020156 0,1.410156 0.39,0.39 1.020156,0.39 1.410156,0 0.390001,-0.39 0.390002,-1.020157 0,-1.410156 -0.194999,-0.195 -0.450078,-0.292969 -0.705077,-0.292969 z" />
  <path fill="#B9D4F0"
     id="path4-3-2-9-8"
     d="m 16.705892,8.7058914 c 0.180313,-0.180312 0.291405,-0.429955 0.291405,-0.705726 0,-0.551543 -0.445587,-0.99713 -0.997131,-0.99713 -0.551543,0 -0.99713,0.445587 -0.99713,0.99713 -10e-7,0.551544 0.445587,0.997133 0.99713,0.997131 0.275772,0 0.525414,-0.111093 0.705726,-0.291405 z" />
  <path fill="#B9D4F0"
     style="fill:#B9D4F0;fill-opacity:1;stroke:none;stroke-width:1px;stroke-linecap:butt;stroke-linejoin:miter;stroke-opacity:1"
     d="m 15.294441,7.29444 3.999833,-3.999932 1.41112,1.41112 -3.999502,4.000263 z"
     id="path1070-6-7"
     sodipodi:nodetypes="ccccc" />
  <path fill="#B9D4F0"
     id="path4-3-2-9-0-1-9"
     d="m 20,3.0021874 c -0.255001,0 -0.51008,0.09797 -0.705079,0.292969 -0.390001,0.39 -0.390001,1.020156 0,1.410156 0.39,0.39 1.020156,0.39 1.410156,0 0.390001,-0.39 0.390002,-1.020157 0,-1.410156 C 20.510078,3.1001564 20.254999,3.0021874 20,3.0021874 Z" />
  <path fill="#B9D4F0"
     id="path4-3-2-9-0-1-9-2"
     d="m 12,11.002187 c -0.255001,0 -0.51008,0.09797 -0.705079,0.292969 -0.390001,0.39 -0.390001,1.020156 0,1.410156 0.39,0.39 1.020156,0.39 1.410156,0 0.390001,-0.39 0.390002,-1.020157 0,-1.410156 C 12.510078,11.100156 12.254999,11.002187 12,11.002187 Z" />
  <path fill="#B9D4F0"
     style="fill:#B9D4F0;fill-opacity:1;stroke:none;stroke-width:1px;stroke-linecap:butt;stroke-linejoin:miter;stroke-opacity:1"
     d="m 7.2944398,15.294441 3.9998332,-3.999932 1.411121,1.41112 -3.999503,4.000263 z"
     id="path1070-6-3"
     sodipodi:nodetypes="ccccc" />
</svg>
