<?xml version="1.0" encoding="UTF-8" standalone="no"?>
<svg
   xmlns:dc="http://purl.org/dc/elements/1.1/"
   xmlns:cc="http://creativecommons.org/ns#"
   xmlns:rdf="http://www.w3.org/1999/02/22-rdf-syntax-ns#"
   xmlns:svg="http://www.w3.org/2000/svg"
   xmlns="http://www.w3.org/2000/svg"
   xmlns:sodipodi="http://sodipodi.sourceforge.net/DTD/sodipodi-0.dtd"
   xmlns:inkscape="http://www.inkscape.org/namespaces/inkscape"
   version="1.1"
   width="24"
   height="24"
   viewBox="0 0 24 24"
   id="svg4"
   sodipodi:docname="kstars_hgrid (copy).svg"
   inkscape:version="1.0.2 (e86c870879, 2021-01-15)">
  <metadata
     id="metadata10">
    <rdf:RDF>
      <cc:Work
         rdf:about="">
        <dc:format>image/svg+xml</dc:format>
        <dc:type
           rdf:resource="http://purl.org/dc/dcmitype/StillImage" />
      </cc:Work>
    </rdf:RDF>
  </metadata>
  <defs
     id="defs8" />
  <sodipodi:namedview
     pagecolor="#ffffff"
     bordercolor="#666666"
     borderopacity="1"
     objecttolerance="10"
     gridtolerance="10"
     guidetolerance="10"
     inkscape:pageopacity="0"
     inkscape:pageshadow="2"
     inkscape:window-width="1908"
     inkscape:window-height="2107"
     id="namedview6"
     showgrid="false"
     inkscape:zoom="42"
     inkscape:cx="12"
     inkscape:cy="12"
     inkscape:window-x="1924"
     inkscape:window-y="33"
     inkscape:window-maximized="0"
     inkscape:current-layer="svg4" />
  <path fill="#B9D4F0"
     d="M 16.497199,10.331228 C 16.087077,9.807969 15.662813,9.2988521 15.181981,8.8180195 14.701148,8.3371869 14.192031,7.9129228 13.668772,7.5028009 L 16.058793,5.11278 c 0.565685,0.3394112 1.110158,0.7424621 1.598061,1.2303658 0.487904,0.4879036 0.890955,1.0323759 1.230366,1.5980613 m 0.289914,7.5731139 c -0.360625,-1.209153 -0.883884,-2.38295 -1.541493,-3.493108 l 2.085965,-2.0859648 c 0.487904,1.8455488 0.311127,3.8325188 -0.544472,5.5790728 m -4.108291,-3.754737 -3.309259,3.309259 C 11.222183,14.672864 10.713066,14.2486 10.232233,13.767767 9.7514004,13.286934 9.3200653,12.770746 8.9311566,12.240416 L 12.240416,8.9311566 c 0.523259,0.3959798 1.046518,0.8202438 1.527351,1.3010764 0.480833,0.480833 0.898026,0.997021 1.301076,1.527351 m 2.559727,5.868986 c -1.435427,-0.26163 -2.84964,-0.72832 -4.150717,-1.449569 l 2.701148,-2.701148 c 0.721249,1.301077 1.187939,2.71529 1.449569,4.150717 M 6.3431458,12 4.2783939,14.064752 C 3.7763481,12.219203 3.9601959,10.225162 4.8157951,8.4927504 5.1764196,9.701903 5.7067496,10.868629 6.3431458,12 M 9.9352482,19.721606 12,17.656854 c 1.131371,0.636396 2.298097,1.166726 3.50725,1.527351 -1.739483,0.848528 -3.733524,1.032376 -5.5720018,0.537401 M 7.9412071,18.88722 C 7.3755217,18.547809 6.8310494,18.144758 6.3431458,17.656854 5.8552421,17.168951 5.4521912,16.624478 5.11278,16.058793 l 2.3900209,-2.390021 c 0.4101219,0.523259 0.834386,1.032376 1.3152186,1.513209 0.4808326,0.480832 0.9899495,0.905096 1.5132085,1.315218 M 6.364359,6.364359 C 7.7997857,6.6259885 9.2210703,7.09975 10.522147,7.8209989 L 7.8209989,10.522147 C 7.09975,9.2210703 6.6259885,7.7997857 6.364359,6.364359 M 14.064752,4.2783939 11.978787,6.364359 C 10.868629,5.7067496 9.6948319,5.1834906 8.4856793,4.8228662 10.232233,3.967267 12.212132,3.7834192 14.064752,4.2783939 M 4.9289322,4.9289322 c -3.9103005,3.9103005 -3.8890873,10.2530488 0,14.1421358 a 10,10 0 0 0 14.1421358,0 10,10 0 0 0 0,-14.1421358 10,10 0 0 0 -14.1421358,0 z"
     id="path2" />
</svg>
