<?xml version="1.0" encoding="UTF-8" standalone="no"?>
<svg
   xmlns:dc="http://purl.org/dc/elements/1.1/"
   xmlns:cc="http://creativecommons.org/ns#"
   xmlns:rdf="http://www.w3.org/1999/02/22-rdf-syntax-ns#"
   xmlns:svg="http://www.w3.org/2000/svg"
   xmlns="http://www.w3.org/2000/svg"
   xmlns:sodipodi="http://sodipodi.sourceforge.net/DTD/sodipodi-0.dtd"
   xmlns:inkscape="http://www.inkscape.org/namespaces/inkscape"
   height="24"
   viewBox="0 0 24 24"
   width="24"
   version="1.1"
   id="svg4"
   sodipodi:docname="process-working.svg"
   inkscape:version="1.0.1 (3bc2e813f5, 2020-09-07)">
  <metadata
     id="metadata10">
    <rdf:RDF>
      <cc:Work
         rdf:about="">
        <dc:format>image/svg+xml</dc:format>
        <dc:type
           rdf:resource="http://purl.org/dc/dcmitype/StillImage" />
      </cc:Work>
    </rdf:RDF>
  </metadata>
  <defs
     id="defs8" />
  <sodipodi:namedview
     pagecolor="#ffffff"
     bordercolor="#666666"
     borderopacity="1"
     objecttolerance="10"
     gridtolerance="10"
     guidetolerance="10"
     inkscape:pageopacity="0"
     inkscape:pageshadow="2"
     inkscape:window-width="948"
     inkscape:window-height="482"
     id="namedview6"
     showgrid="false"
     inkscape:zoom="31"
     inkscape:cx="12"
     inkscape:cy="12"
     inkscape:window-x="56"
     inkscape:window-y="50"
     inkscape:window-maximized="0"
     inkscape:current-layer="svg4" />
  <path fill="#B9D4F0"
     d="m 12,20 v 1.79 c 0,0.45 -0.54,0.67 -0.85,0.35 l -2.8,-2.79 c -0.2,-0.2 -0.2,-0.51 0,-0.71 l 2.79,-2.79 C 11.46,15.54 12,15.76 12,16.21 V 18 c 3.31,0 6,-2.69 6,-6 C 18,11.21 17.85,10.44 17.56,9.75 17.41,9.39 17.52,8.98 17.79,8.71 18.3,8.2 19.16,8.38 19.43,9.05 19.8,9.96 20,10.96 20,12 c 0,4.42 -3.58,8 -8,8 z M 12,6 c -3.31,0 -6,2.69 -6,6 0,0.79 0.15,1.56 0.44,2.25 0.15,0.36 0.04,0.77 -0.23,1.04 C 5.7,15.8 4.84,15.62 4.57,14.95 4.2,14.04 4,13.04 4,12 4,7.58 7.58,4 12,4 V 2.21 c 0,-0.45 0.54,-0.67 0.85,-0.35 l 2.79,2.79 c 0.2,0.2 0.2,0.51 0,0.71 L 12.85,8.15 C 12.54,8.46 12,8.24 12,7.79 Z"
     id="path2" />
</svg>
