<?xml version="1.0" encoding="UTF-8" standalone="no"?>
<svg
   xmlns:dc="http://purl.org/dc/elements/1.1/"
   xmlns:cc="http://creativecommons.org/ns#"
   xmlns:rdf="http://www.w3.org/1999/02/22-rdf-syntax-ns#"
   xmlns:svg="http://www.w3.org/2000/svg"
   xmlns="http://www.w3.org/2000/svg"
   xmlns:sodipodi="http://sodipodi.sourceforge.net/DTD/sodipodi-0.dtd"
   xmlns:inkscape="http://www.inkscape.org/namespaces/inkscape"
   version="1.1"
   id="mdi-filmstrip-box"
   width="24"
   height="24"
   viewBox="0 0 24 24"
   sodipodi:docname="filmstrip-box.svg"
   inkscape:version="1.0.2 (e86c870879, 2021-01-15)">
  <metadata
     id="metadata9">
    <rdf:RDF>
      <cc:Work
         rdf:about="">
        <dc:format>image/svg+xml</dc:format>
        <dc:type
           rdf:resource="http://purl.org/dc/dcmitype/StillImage" />
      </cc:Work>
    </rdf:RDF>
  </metadata>
  <defs
     id="defs7" />
  <sodipodi:namedview
     pagecolor="#ffffff"
     bordercolor="#666666"
     borderopacity="1"
     objecttolerance="10"
     gridtolerance="10"
     guidetolerance="10"
     inkscape:pageopacity="0"
     inkscape:pageshadow="2"
     inkscape:window-width="1940"
     inkscape:window-height="2107"
     id="namedview5"
     showgrid="false"
     inkscape:zoom="14.849242"
     inkscape:cx="13.529728"
     inkscape:cy="-7.0121024"
     inkscape:window-x="1892"
     inkscape:window-y="33"
     inkscape:window-maximized="0"
     inkscape:current-layer="mdi-filmstrip-box" />
  <path fill="#B9D4F0"
     id="path2"
     d="M 5 3 C 3.9 3 3 3.9 3 5 L 3 19 C 3 20.1 3.9 21 5 21 L 19 21 C 20.1 21 21 20.1 21 19 L 21 5 C 21 3.9 20.1 3 19 3 L 5 3 z M 5 6 L 7 6 L 7 8 L 5 8 L 5 6 z M 17 6 L 19 6 L 19 8 L 17 8 L 17 6 z M 12 8.3496094 L 13.199219 10.75 L 15.800781 11.150391 L 13.900391 13.050781 L 14.300781 15.650391 L 12 14.349609 L 9.5996094 15.550781 L 10.099609 12.949219 L 8.1992188 11.150391 L 10.800781 10.75 L 12 8.3496094 z M 5 11 L 7 11 L 7 13 L 5 13 L 5 11 z M 17 11 L 19 11 L 19 13 L 17 13 L 17 11 z M 5 16 L 7 16 L 7 18 L 5 18 L 5 16 z M 17 16 L 19 16 L 19 18 L 17 18 L 17 16 z " />
</svg>
