<?xml version="1.0" encoding="UTF-8" standalone="no"?>
<svg
   version="1.1"
   id="mdi-shield-alert"
   width="24"
   height="24"
   viewBox="0 0 24 24"
   sodipodi:docname="arch-error.svg"
   inkscape:version="1.1 (c68e22c387, 2021-05-23)"
   xmlns:inkscape="http://www.inkscape.org/namespaces/inkscape"
   xmlns:sodipodi="http://sodipodi.sourceforge.net/DTD/sodipodi-0.dtd"
   xmlns="http://www.w3.org/2000/svg"
   xmlns:svg="http://www.w3.org/2000/svg">
  <defs
     id="defs7" />
  <sodipodi:namedview
     id="namedview5"
     pagecolor="#ffffff"
     bordercolor="#666666"
     borderopacity="1.0"
     inkscape:pageshadow="2"
     inkscape:pageopacity="0.0"
     inkscape:pagecheckerboard="0"
     showgrid="false"
     inkscape:zoom="20.011674"
     inkscape:cx="-2.8983082"
     inkscape:cy="10.493875"
     inkscape:window-width="1920"
     inkscape:window-height="1016"
     inkscape:window-x="0"
     inkscape:window-y="0"
     inkscape:window-maximized="1"
     inkscape:current-layer="mdi-shield-alert" />
  <path fill="#B9D4F0"
     id="path2-6"
     d="M 12 1.1875 C 11.7225 1.1875 11.444453 1.244375 11.189453 1.359375 L 4.1894531 4.4707031 C 3.4694531 4.7907031 3 5.5107812 3 6.3007812 L 3 11 C 3 16.549999 6.8400002 21.740001 12 23 C 17.16 21.74 21 16.549999 21 11 L 21 6.3007812 C 21 5.5107812 20.530547 4.7907031 19.810547 4.4707031 L 12.810547 1.359375 C 12.555547 1.244375 12.2775 1.1875 12 1.1875 z M 12 7 C 12.552285 7 13 7.4477153 13 8 L 13 12 C 13 12.552285 12.552285 13 12 13 C 11.447715 13 11 12.552285 11 12 L 11 8 C 11 7.4477153 11.447715 7 12 7 z M 12 15 C 12.552285 15 13 15.447715 13 16 C 13 16.552285 12.552285 17 12 17 C 11.447715 17 11 16.552285 11 16 C 11 15.447715 11.447715 15 12 15 z " />
</svg>
