<?xml version="1.0" encoding="UTF-8" standalone="no"?>
<svg
   xmlns:dc="http://purl.org/dc/elements/1.1/"
   xmlns:cc="http://creativecommons.org/ns#"
   xmlns:rdf="http://www.w3.org/1999/02/22-rdf-syntax-ns#"
   xmlns:svg="http://www.w3.org/2000/svg"
   xmlns="http://www.w3.org/2000/svg"
   xmlns:sodipodi="http://sodipodi.sourceforge.net/DTD/sodipodi-0.dtd"
   xmlns:inkscape="http://www.inkscape.org/namespaces/inkscape"
   version="1.1"
   id="mdi-transit-skip"
   width="24"
   height="24"
   viewBox="0 0 24 24"
   sodipodi:docname="snap-nodes-midpoint-symbolic (copy).svg"
   inkscape:version="1.0.1 (3bc2e813f5, 2020-09-07)">
  <metadata
     id="metadata9">
    <rdf:RDF>
      <cc:Work
         rdf:about="">
        <dc:format>image/svg+xml</dc:format>
        <dc:type
           rdf:resource="http://purl.org/dc/dcmitype/StillImage" />
      </cc:Work>
    </rdf:RDF>
  </metadata>
  <defs
     id="defs7" />
  <sodipodi:namedview
     pagecolor="#ffffff"
     bordercolor="#666666"
     borderopacity="1"
     objecttolerance="10"
     gridtolerance="10"
     guidetolerance="10"
     inkscape:pageopacity="0"
     inkscape:pageshadow="2"
     inkscape:window-width="950"
     inkscape:window-height="1022"
     id="namedview5"
     showgrid="false"
     inkscape:zoom="14.08321"
     inkscape:cx="12.183774"
     inkscape:cy="14.617495"
     inkscape:window-x="1924"
     inkscape:window-y="35"
     inkscape:window-maximized="0"
     inkscape:current-layer="mdi-transit-skip"
     inkscape:document-rotation="0" />
  <path fill="#B9D4F0"
     d="M 12,3 C 8,3 4.7,5.5 3.5,9 2.1,9.3 1,10.500001 1,12.000001 c 0,1.7 1.3,3 3,3 1.7,0 3,-1.3 3,-3 C 7,10.900001 6.4,9.9 5.5,9.4 6.5,6.8 9,5 12,5 c 2.9,0 5.5,1.8 6.5,4.4 -0.9,0.5 -1.5,1.500001 -1.5,2.600001 0,1.7 1.3,3 3,3 1.7,0 3,-1.3 3,-3 C 23,10.500001 21.9,9.3 20.5,9 19.3,5.5 15.9,3 12,3 m -7,9.000001 c 0,0.6 -0.4,1 -1,1 -0.6,0 -1,-0.4 -1,-1 0,-0.6 0.4,-1 1,-1 0.6,0 1,0.4 1,1 m 16,0 c 0,0.6 -0.4,1 -1,1 -0.6,0 -1,-0.4 -1,-1 0,-0.6 0.4,-1 1,-1 0.6,0 1,0.4 1,1 m -12,0 C 9,10.300001 10.3,9 12,9 c 1.7,0 3,1.3 3,3.000001 0,1.7 -1.3,3 -3,3 -1.7,0 -3,-1.3 -3,-3 z"
     id="path2" />
</svg>
