<?xml version="1.0" encoding="UTF-8" standalone="no"?>
<svg
   xmlns:dc="http://purl.org/dc/elements/1.1/"
   xmlns:cc="http://creativecommons.org/ns#"
   xmlns:rdf="http://www.w3.org/1999/02/22-rdf-syntax-ns#"
   xmlns:svg="http://www.w3.org/2000/svg"
   xmlns="http://www.w3.org/2000/svg"
   xmlns:sodipodi="http://sodipodi.sourceforge.net/DTD/sodipodi-0.dtd"
   xmlns:inkscape="http://www.inkscape.org/namespaces/inkscape"
   version="1.1"
   width="24"
   height="24"
   viewBox="0 0 24 24"
   id="svg4"
   sodipodi:docname="lingerie.svg"
   inkscape:version="1.0.2 (e86c870879, 2021-01-15)">
  <metadata
     id="metadata10">
    <rdf:RDF>
      <cc:Work
         rdf:about="">
        <dc:format>image/svg+xml</dc:format>
        <dc:type
           rdf:resource="http://purl.org/dc/dcmitype/StillImage" />
      </cc:Work>
    </rdf:RDF>
  </metadata>
  <defs
     id="defs8" />
  <sodipodi:namedview
     pagecolor="#ffffff"
     bordercolor="#666666"
     borderopacity="1"
     objecttolerance="10"
     gridtolerance="10"
     guidetolerance="10"
     inkscape:pageopacity="0"
     inkscape:pageshadow="2"
     inkscape:window-width="1908"
     inkscape:window-height="2107"
     id="namedview6"
     showgrid="false"
     inkscape:zoom="42"
     inkscape:cx="12"
     inkscape:cy="8.1904762"
     inkscape:window-x="1924"
     inkscape:window-y="33"
     inkscape:window-maximized="0"
     inkscape:current-layer="svg4" />
  <path fill="#B9D4F0"
     id="path2"
     d="M 4.3984375,2 C 4.8732611,2.4745853 5.479121,3.0810228 6,3.6015625 V 2 Z M 18,2 V 4.3398438 L 12,6.9101562 7.2949219,4.8945312 C 10.08082,7.678368 12.444906,10.039525 15.402344,12.994141 15.435272,12.994865 15.466884,13 15.5,13 c 2.31,0 4.199219,-1.75 4.449219,-4 H 22 V 7 H 20 V 2 Z M 4.8482492,6.5990179 4,7 H 2 V 9 H 4.0507812 C 4.3007812,11.25 6.19,13 8.5,13 c 1.1361039,0 2.165258,-0.433819 2.953125,-1.132812 L 10.037109,10.453125 C 9.6130882,10.790143 9.0851242,11 8.5,11 7.12,11 6,9.88 6,8.5 v -2 l 0.140625,0.060547 z M 18,6.5 v 2 C 18,9.88 16.88,11 15.5,11 14.17,11 13.1,9.9603906 13,8.6503906 Z M 2,15 v 2 h 1 c 2.97,0 5.4301562,2.17 5.9101562,5 h 6.1796878 c 0.278239,-1.640453 1.234113,-3.042505 2.55664,-3.945312 L 14.587891,15 Z m 15.408203,0 c 0.754779,0.754067 1.507667,1.506327 2.189453,2.1875 C 20.049565,17.078079 20.514398,17 21,17 h 1 v -2 z m -9.1191405,2 h 7.4218755 c -0.920001,0.82 -1.651094,1.84 -2.121094,3 H 10.410156 C 9.9401562,18.84 9.2090625,17.82 8.2890625,17 Z"
     sodipodi:nodetypes="cccccccccscccccccccccsccssccccssccccscccccccscccccccc" />
  <path fill="#B9D4F0"
     d="M 5.12,5.51 C 4.73,5.12 4.1,5.12 3.71,5.51 c -0.39,0.39 -0.39,1.02 0,1.41 5.3817311,5.383485 10.716774,10.723586 15.36,15.37 0.39,0.39 1.02,0.39 1.41,0 0.39,-0.39 0.39,-1.02 0,-1.41 z"
     id="path2-3"
     sodipodi:nodetypes="csccscc" />
</svg>
