<?xml version="1.0" encoding="UTF-8" standalone="no"?>
<svg
   xmlns:dc="http://purl.org/dc/elements/1.1/"
   xmlns:cc="http://creativecommons.org/ns#"
   xmlns:rdf="http://www.w3.org/1999/02/22-rdf-syntax-ns#"
   xmlns:svg="http://www.w3.org/2000/svg"
   xmlns="http://www.w3.org/2000/svg"
   xmlns:sodipodi="http://sodipodi.sourceforge.net/DTD/sodipodi-0.dtd"
   xmlns:inkscape="http://www.inkscape.org/namespaces/inkscape"
   version="1.1"
   id="mdi-checkbox-multiple-blank-outline"
   width="24"
   height="24"
   viewBox="0 0 24 24"
   sodipodi:docname="symbol-fit.svg"
   inkscape:version="1.0.2 (e86c870879, 2021-01-15)">
  <metadata
     id="metadata9">
    <rdf:RDF>
      <cc:Work
         rdf:about="">
        <dc:format>image/svg+xml</dc:format>
        <dc:type
           rdf:resource="http://purl.org/dc/dcmitype/StillImage" />
      </cc:Work>
    </rdf:RDF>
  </metadata>
  <defs
     id="defs7" />
  <sodipodi:namedview
     pagecolor="#ffffff"
     bordercolor="#666666"
     borderopacity="1"
     objecttolerance="10"
     gridtolerance="10"
     guidetolerance="10"
     inkscape:pageopacity="0"
     inkscape:pageshadow="2"
     inkscape:window-width="1748"
     inkscape:window-height="1031"
     id="namedview5"
     showgrid="false"
     inkscape:zoom="14.849242"
     inkscape:cx="13.748228"
     inkscape:cy="9.5846134"
     inkscape:window-x="8"
     inkscape:window-y="8"
     inkscape:window-maximized="0"
     inkscape:current-layer="mdi-checkbox-multiple-blank-outline" />
  <path fill="#B9D4F0"
     id="path2"
     d="M 8 2 C 6.89 2 6 2.89 6 4 L 6 16 C 6 17.1 6.89 18 8 18 L 20 18 C 21.104569 18 22 17.104569 22 16 L 22 4 C 22 2.8954305 21.104569 2 20 2 L 8 2 z M 8 4 L 20 4 L 20 16 L 8 16 L 8 4 z M 3 6 C 2.45 6 2 6.45 2 7 L 2 9 L 2 17.5 L 2 20 C 2 20.1375 2.0142578 20.272461 2.0410156 20.402344 C 2.2008664 21.183515 2.8164854 21.799134 3.5976562 21.958984 C 3.7275391 21.985742 3.8625 22 4 22 L 17 22 C 17.1375 22 17.269141 21.972656 17.388672 21.921875 C 17.747266 21.769531 18 21.4125 18 21 C 18 20.45 17.55 20 17 20 L 5.5 20 L 5 20 C 4.45 20 4 19.55 4 19 L 4 7 C 4 6.45 3.55 6 3 6 z " />
</svg>
