<?xml version="1.0" encoding="UTF-8" standalone="no"?>
<svg
   xmlns:dc="http://purl.org/dc/elements/1.1/"
   xmlns:cc="http://creativecommons.org/ns#"
   xmlns:rdf="http://www.w3.org/1999/02/22-rdf-syntax-ns#"
   xmlns:svg="http://www.w3.org/2000/svg"
   xmlns="http://www.w3.org/2000/svg"
   xmlns:sodipodi="http://sodipodi.sourceforge.net/DTD/sodipodi-0.dtd"
   xmlns:inkscape="http://www.inkscape.org/namespaces/inkscape"
   height="24"
   viewBox="0 0 24 24"
   width="24"
   version="1.1"
   id="svg4"
   sodipodi:docname="frmt-text-direction-vertical-symbolic.svg"
   inkscape:version="1.0.1 (3bc2e813f5, 2020-09-07)">
  <metadata
     id="metadata10">
    <rdf:RDF>
      <cc:Work
         rdf:about="">
        <dc:format>image/svg+xml</dc:format>
        <dc:type
           rdf:resource="http://purl.org/dc/dcmitype/StillImage" />
      </cc:Work>
    </rdf:RDF>
  </metadata>
  <defs
     id="defs8" />
  <sodipodi:namedview
     pagecolor="#ffffff"
     bordercolor="#666666"
     borderopacity="1"
     objecttolerance="10"
     gridtolerance="10"
     guidetolerance="10"
     inkscape:pageopacity="0"
     inkscape:pageshadow="2"
     inkscape:window-width="837"
     inkscape:window-height="482"
     id="namedview6"
     showgrid="false"
     inkscape:zoom="31"
     inkscape:cx="12"
     inkscape:cy="12"
     inkscape:window-x="56"
     inkscape:window-y="50"
     inkscape:window-maximized="0"
     inkscape:current-layer="svg4" />
  <path fill="#B9D4F0"
     d="m 8.7268703,5 c 0.46,0 0.87,0.27 1.05,0.69 l 3.8799997,8.97 c 0.27,0.63 -0.2,1.34 -0.89,1.34 -0.39,0 -0.74,-0.24 -0.89,-0.6 l -0.66,-1.6 H 6.2168703 l -0.66,1.6 c -0.15,0.36 -0.5,0.6 -0.89,0.6 -0.69,0 -1.15,-0.71 -0.88,-1.34 l 3.88,-8.97 c 0.19,-0.42 0.6,-0.69 1.06,-0.69 z m 1.8699997,7 -1.8699997,-5.02 -1.87,5.02 z m 6.78,7.64 -1.79,-1.79 c -0.32,-0.31 -0.1,-0.85 0.35,-0.85 h 0.79 V 5 c 0,-0.55 0.45,-1 1,-1 0.55,0 1,0.44 1,1 v 12 h 0.79 c 0.45,0 0.67,0.54 0.35,0.85 l -1.79,1.79 c -0.19,0.2 -0.51,0.2 -0.7,0 z"
     id="path2"
     style="stroke-width:0.999999" />
</svg>
