<?xml version="1.0" encoding="UTF-8" standalone="no"?>
<svg
   version="1.1"
   id="mdi-filter-minus"
   width="24"
   height="24"
   viewBox="0 0 24 24"
   sodipodi:docname="timepp-filter-symbolic.svg"
   inkscape:version="1.1 (c68e22c387, 2021-05-23)"
   xmlns:inkscape="http://www.inkscape.org/namespaces/inkscape"
   xmlns:sodipodi="http://sodipodi.sourceforge.net/DTD/sodipodi-0.dtd"
   xmlns="http://www.w3.org/2000/svg"
   xmlns:svg="http://www.w3.org/2000/svg"
   xmlns:rdf="http://www.w3.org/1999/02/22-rdf-syntax-ns#"
   xmlns:cc="http://creativecommons.org/ns#"
   xmlns:dc="http://purl.org/dc/elements/1.1/">
  <metadata
     id="metadata9">
    <rdf:RDF>
      <cc:Work
         rdf:about="">
        <dc:format>image/svg+xml</dc:format>
        <dc:type
           rdf:resource="http://purl.org/dc/dcmitype/StillImage" />
      </cc:Work>
    </rdf:RDF>
  </metadata>
  <defs
     id="defs7" />
  <sodipodi:namedview
     pagecolor="#ffffff"
     bordercolor="#666666"
     borderopacity="1"
     objecttolerance="10"
     gridtolerance="10"
     guidetolerance="10"
     inkscape:pageopacity="0"
     inkscape:pageshadow="2"
     inkscape:window-width="1904"
     inkscape:window-height="1000"
     id="namedview5"
     showgrid="false"
     inkscape:zoom="4.8667283"
     inkscape:cx="-5.547875"
     inkscape:cy="39.246078"
     inkscape:window-x="26"
     inkscape:window-y="23"
     inkscape:window-maximized="0"
     inkscape:current-layer="mdi-filter-minus"
     inkscape:pagecheckerboard="0" />
  <path fill="#B9D4F0"
     id="path2"
     d="M 3.1152344 3.0253906 C 3.1152344 3.0253906 2.6860937 3.1041406 2.4960938 3.2441406 C 2.0660938 3.5841406 1.9861719 4.2145313 2.3261719 4.6445312 L 8.1152344 12.025391 L 8.1152344 17.884766 C 8.0752344 18.184766 8.1742969 18.494609 8.4042969 18.724609 L 10.416016 20.734375 C 10.806016 21.124375 11.436172 21.124375 11.826172 20.734375 C 12.056172 20.524375 12.155234 20.204297 12.115234 19.904297 L 12.115234 12.025391 L 17.904297 4.6445312 C 18.244297 4.2145313 18.164375 3.5841406 17.734375 3.2441406 C 17.544375 3.1041406 17.115234 3.0253906 17.115234 3.0253906 L 3.1152344 3.0253906 z M 5.1152344 5.0253906 L 15.115234 5.0253906 L 10.105469 11.324219 L 5.1152344 5.0253906 z " />
</svg>
