<?xml version="1.0" encoding="UTF-8" standalone="no"?>
<svg
   xmlns:dc="http://purl.org/dc/elements/1.1/"
   xmlns:cc="http://creativecommons.org/ns#"
   xmlns:rdf="http://www.w3.org/1999/02/22-rdf-syntax-ns#"
   xmlns:svg="http://www.w3.org/2000/svg"
   xmlns="http://www.w3.org/2000/svg"
   xmlns:sodipodi="http://sodipodi.sourceforge.net/DTD/sodipodi-0.dtd"
   xmlns:inkscape="http://www.inkscape.org/namespaces/inkscape"
   version="1.1"
   id="mdi-toilet"
   width="24"
   height="24"
   viewBox="0 0 24 24"
   sodipodi:docname="toilet (copy).svg"
   inkscape:version="1.0.2 (e86c870879, 2021-01-15)">
  <metadata
     id="metadata9">
    <rdf:RDF>
      <cc:Work
         rdf:about="">
        <dc:format>image/svg+xml</dc:format>
        <dc:type
           rdf:resource="http://purl.org/dc/dcmitype/StillImage" />
      </cc:Work>
    </rdf:RDF>
  </metadata>
  <defs
     id="defs7" />
  <sodipodi:namedview
     pagecolor="#ffffff"
     bordercolor="#666666"
     borderopacity="1"
     objecttolerance="10"
     gridtolerance="10"
     guidetolerance="10"
     inkscape:pageopacity="0"
     inkscape:pageshadow="2"
     inkscape:window-width="1908"
     inkscape:window-height="2107"
     id="namedview5"
     showgrid="false"
     inkscape:zoom="42"
     inkscape:cx="12"
     inkscape:cy="12"
     inkscape:window-x="1924"
     inkscape:window-y="33"
     inkscape:window-maximized="0"
     inkscape:current-layer="mdi-toilet" />
  <path fill="#B9D4F0"
     id="path2"
     d="M 15 2 C 13.89 2 13 2.9 13 4 L 13 10.123047 L 16.875 14 L 18.710938 14 C 18.575782 14.45289 18.391656 14.885834 18.171875 15.296875 L 19.625 16.751953 C 20.487151 15.368458 21 13.74734 21 12 L 21 4 A 2 2 0 0 0 19 2 L 15 2 z M 15 4 L 19 4 L 19 12 L 15 12 L 15 4 z M 16 5 L 16 8 L 18 8 L 18 5 L 16 5 z M 3 12 C 3 15.09 5 18 9 19.5 L 9 22 L 17 22 L 17 19.5 C 17.502209 19.160332 17.958787 18.762184 18.382812 18.332031 L 16.970703 16.921875 C 16.400677 17.5005 15.738193 17.98392 15 18.330078 L 15 20 L 11 20 L 11 18.330078 C 9 18.000078 5.8590625 15.91 5.2890625 14 L 14.046875 14 L 12.044922 12 L 3 12 z " />
  <path fill="#B9D4F0"
     d="M 3.09,4.44 C 2.7,4.83 2.7,5.46 3.09,5.85 L 5,7.78 18.23,21 l 0.91,0.91 c 0.39,0.39 1.02,0.39 1.41,0 0.39,-0.39 0.39,-1.02 0,-1.41 L 4.5,4.44 C 4.11,4.05 3.48,4.05 3.09,4.44 Z"
     id="path2-3"
     sodipodi:nodetypes="scccssccs" />
</svg>
