<?xml version="1.0" encoding="UTF-8" standalone="no"?>
<svg
   xmlns:dc="http://purl.org/dc/elements/1.1/"
   xmlns:cc="http://creativecommons.org/ns#"
   xmlns:rdf="http://www.w3.org/1999/02/22-rdf-syntax-ns#"
   xmlns:svg="http://www.w3.org/2000/svg"
   xmlns="http://www.w3.org/2000/svg"
   xmlns:sodipodi="http://sodipodi.sourceforge.net/DTD/sodipodi-0.dtd"
   xmlns:inkscape="http://www.inkscape.org/namespaces/inkscape"
   version="1.1"
   id="mdi-transit-detour"
   width="24"
   height="24"
   viewBox="0 0 24 24"
   sodipodi:docname="tool-arc-symbolic.svg"
   inkscape:version="1.0.2 (e86c870879, 2021-01-15)">
  <metadata
     id="metadata9">
    <rdf:RDF>
      <cc:Work
         rdf:about="">
        <dc:format>image/svg+xml</dc:format>
        <dc:type
           rdf:resource="http://purl.org/dc/dcmitype/StillImage" />
      </cc:Work>
    </rdf:RDF>
  </metadata>
  <defs
     id="defs7" />
  <sodipodi:namedview
     pagecolor="#ffffff"
     bordercolor="#666666"
     borderopacity="1"
     objecttolerance="10"
     gridtolerance="10"
     guidetolerance="10"
     inkscape:pageopacity="0"
     inkscape:pageshadow="2"
     inkscape:window-width="1904"
     inkscape:window-height="1000"
     id="namedview5"
     showgrid="false"
     inkscape:zoom="33.958333"
     inkscape:cx="12"
     inkscape:cy="12"
     inkscape:window-x="26"
     inkscape:window-y="23"
     inkscape:window-maximized="0"
     inkscape:current-layer="mdi-transit-detour" />
  <path fill="#B9D4F0"
     d="m 21.50665,14.496862 c 0.01668,2.083345 -2.043102,3.548924 -4.005873,2.85031 -1.962771,-0.698613 -2.633354,-3.136016 -1.304127,-4.74031 -1.894647,-1.833077 -4.467646,-2.7934211 -7.1000002,-2.6500001 -0.22,0.01 -0.43,0.04 -0.65,0.08 C 8.0134592,12.402248 5.1128503,13.322051 3.3956739,11.638734 1.6784975,9.9554169 2.540359,7.0370679 4.8966498,6.5568619 c 1.1015065,-0.1645673 1.3378399,-0.089621 2.11,0.35 0.4696277,0.27606 0.8564477,0.673241 1.12,1.15 0.29,-0.06 0.57,-0.06 0.88,-0.1 3.3693192,-0.179449 6.6467402,1.133714 8.9600002,3.5900001 0.178091,-0.03316 0.358849,-0.04989 0.54,-0.05 1.656854,0 3,1.343146 3,3 z"
     id="path2"
     sodipodi:nodetypes="cscccsccccccc" />
</svg>
