<?xml version="1.0" encoding="UTF-8" standalone="no"?>
<svg
   height="24"
   viewBox="0 0 24 24"
   width="24"
   version="1.1"
   id="svg4"
   sodipodi:docname="vcs-stash-pop.svg"
   inkscape:version="1.1 (c68e22c387, 2021-05-23)"
   xmlns:inkscape="http://www.inkscape.org/namespaces/inkscape"
   xmlns:sodipodi="http://sodipodi.sourceforge.net/DTD/sodipodi-0.dtd"
   xmlns="http://www.w3.org/2000/svg"
   xmlns:svg="http://www.w3.org/2000/svg">
  <defs
     id="defs8" />
  <sodipodi:namedview
     id="namedview6"
     pagecolor="#ffffff"
     bordercolor="#666666"
     borderopacity="1.0"
     inkscape:pageshadow="2"
     inkscape:pageopacity="0.0"
     inkscape:pagecheckerboard="0"
     showgrid="false"
     inkscape:zoom="30.698777"
     inkscape:cx="11.840863"
     inkscape:cy="11.238233"
     inkscape:window-width="1920"
     inkscape:window-height="1016"
     inkscape:window-x="0"
     inkscape:window-y="0"
     inkscape:window-maximized="1"
     inkscape:current-layer="svg4" />
  <path fill="#B9D4F0"
     id="path2"
     d="M 7,3 C 6.45,3 6,3.45 6,4 V 8 C 6,8.55 6.45,9 7,9 7.55,9 8,8.55 8,8 V 5 h 8 v 10 h -1.789062 c -0.45,0 -0.671563,0.539609 -0.351563,0.849609 l 2.791016,2.791016 c 0.2,0.2 0.508984,0.2 0.708984,0 l 2.791016,-2.791016 c 0.31,-0.31 -0.06131,-0.514216 -0.361329,-0.849609 H 18 V 4 C 18,3.45 17.55,3 17,3 Z m -3,8 c -0.55,0 -1,0.45 -1,1 0,0.55 0.45,1 1,1 h 6 c 0.55,0 1,-0.45 1,-1 0,-0.55 -0.45,-1 -1,-1 z m 0,4 c -0.55,0 -1,0.45 -1,1 0,0.55 0.45,1 1,1 h 6 c 0.55,0 1,-0.45 1,-1 0,-0.55 -0.45,-1 -1,-1 z m 0,4 c -0.55,0 -1,0.45 -1,1 0,0.55 0.45,1 1,1 h 6 c 0.55,0 1,-0.45 1,-1 0,-0.55 -0.45,-1 -1,-1 z"
     sodipodi:nodetypes="ssssscccscsssscssssssssssssssssssssssss" />
</svg>
