<?xml version="1.0" encoding="UTF-8" standalone="no"?>
<svg
   xmlns:dc="http://purl.org/dc/elements/1.1/"
   xmlns:cc="http://creativecommons.org/ns#"
   xmlns:rdf="http://www.w3.org/1999/02/22-rdf-syntax-ns#"
   xmlns:svg="http://www.w3.org/2000/svg"
   xmlns="http://www.w3.org/2000/svg"
   xmlns:sodipodi="http://sodipodi.sourceforge.net/DTD/sodipodi-0.dtd"
   xmlns:inkscape="http://www.inkscape.org/namespaces/inkscape"
   version="1.1"
   id="mdi-note-plus"
   width="24"
   height="24"
   viewBox="0 0 24 24"
   sodipodi:docname="view-certificate-add (copy).svg"
   inkscape:version="1.0.2 (e86c870879, 2021-01-15)">
  <metadata
     id="metadata9">
    <rdf:RDF>
      <cc:Work
         rdf:about="">
        <dc:format>image/svg+xml</dc:format>
        <dc:type
           rdf:resource="http://purl.org/dc/dcmitype/StillImage" />
      </cc:Work>
    </rdf:RDF>
  </metadata>
  <defs
     id="defs7" />
  <sodipodi:namedview
     pagecolor="#ffffff"
     bordercolor="#666666"
     borderopacity="1"
     objecttolerance="10"
     gridtolerance="10"
     guidetolerance="10"
     inkscape:pageopacity="0"
     inkscape:pageshadow="2"
     inkscape:window-width="1908"
     inkscape:window-height="1031"
     id="namedview5"
     showgrid="false"
     inkscape:zoom="21"
     inkscape:cx="6.5263588"
     inkscape:cy="10.643033"
     inkscape:window-x="8"
     inkscape:window-y="1109"
     inkscape:window-maximized="0"
     inkscape:current-layer="mdi-note-plus" />
  <path fill="#B9D4F0"
     id="path2"
     d="M 5 3 C 3.89 3 3 3.89 3 5 L 3 19 C 3 20.1 3.89 21 5 21 L 19 21 C 20.104569 21 21 20.104569 21 19 L 21 9 L 15 3 L 5 3 z M 14 4.5 L 19.5 10 L 14 10 L 14 4.5 z M 6.96875 14.912109 L 8.96875 14.912109 L 8.96875 16.912109 L 6.96875 16.912109 L 6.96875 14.912109 z M 10.46875 14.912109 L 12.46875 14.912109 L 12.46875 16.912109 L 10.46875 16.912109 L 10.46875 14.912109 z M 13.96875 14.912109 L 15.96875 14.912109 L 15.96875 16.912109 L 13.96875 16.912109 L 13.96875 14.912109 z " />
</svg>
