<?xml version="1.0" encoding="UTF-8" standalone="no"?>
<svg
   xmlns:dc="http://purl.org/dc/elements/1.1/"
   xmlns:cc="http://creativecommons.org/ns#"
   xmlns:rdf="http://www.w3.org/1999/02/22-rdf-syntax-ns#"
   xmlns:svg="http://www.w3.org/2000/svg"
   xmlns="http://www.w3.org/2000/svg"
   xmlns:sodipodi="http://sodipodi.sourceforge.net/DTD/sodipodi-0.dtd"
   xmlns:inkscape="http://www.inkscape.org/namespaces/inkscape"
   height="24"
   viewBox="0 0 24 24"
   width="24"
   version="1.1"
   id="svg4"
   sodipodi:docname="view-readermode.svg"
   inkscape:version="1.0.2 (e86c870879, 2021-01-15)">
  <metadata
     id="metadata10">
    <rdf:RDF>
      <cc:Work
         rdf:about="">
        <dc:format>image/svg+xml</dc:format>
        <dc:type
           rdf:resource="http://purl.org/dc/dcmitype/StillImage" />
      </cc:Work>
    </rdf:RDF>
  </metadata>
  <defs
     id="defs8" />
  <sodipodi:namedview
     pagecolor="#ffffff"
     bordercolor="#666666"
     borderopacity="1"
     objecttolerance="10"
     gridtolerance="10"
     guidetolerance="10"
     inkscape:pageopacity="0"
     inkscape:pageshadow="2"
     inkscape:window-width="1908"
     inkscape:window-height="1031"
     id="namedview6"
     showgrid="false"
     inkscape:zoom="42"
     inkscape:cx="12"
     inkscape:cy="13.904762"
     inkscape:window-x="8"
     inkscape:window-y="1109"
     inkscape:window-maximized="0"
     inkscape:current-layer="svg4" />
  <path fill="#B9D4F0"
     id="path2"
     d="M 3 4 C 2.45 4 1.9503906 4.2253906 1.5878906 4.5878906 C 1.4066406 4.7691406 1.2597656 4.9835937 1.1582031 5.2226562 C 1.0566406 5.4617188 1 5.725 1 6 L 1 19 C 1 19.275 1.0566406 19.538281 1.1582031 19.777344 C 1.2597656 20.016406 1.4066406 20.230859 1.5878906 20.412109 C 1.9503906 20.774609 2.45 21 3 21 L 21 21 C 22.1 21 23 20.1 23 19 L 23 6 C 23 4.9 22.1 4 21 4 L 3 4 z M 4 6 L 12 6 L 20 6 C 20.55 6 21 6.45 21 7 L 21 18 C 21 18.55 20.55 19 20 19 L 12 19 L 4 19 C 3.45 19 3 18.55 3 18 L 3 7 C 3 6.45 3.45 6 4 6 z M 13.75 9.5 C 13.34 9.5 13 9.84 13 10.25 C 13 10.66 13.34 11 13.75 11 L 19.25 11 C 19.66 11 20 10.66 20 10.25 C 20 9.84 19.66 9.5 19.25 9.5 L 13.75 9.5 z M 13.75 12 C 13.34 12 13 12.34 13 12.75 C 13 13.16 13.34 13.5 13.75 13.5 L 19.25 13.5 C 19.66 13.5 20 13.16 20 12.75 C 20 12.34 19.66 12 19.25 12 L 13.75 12 z M 13.75 14.5 C 13.34 14.5 13 14.84 13 15.25 C 13 15.66 13.34 16 13.75 16 L 19.25 16 C 19.66 16 20 15.66 20 15.25 C 20 14.84 19.66 14.5 19.25 14.5 L 13.75 14.5 z " />
</svg>
