<?xml version="1.0" encoding="UTF-8" standalone="no"?>
<svg
   xmlns:dc="http://purl.org/dc/elements/1.1/"
   xmlns:cc="http://creativecommons.org/ns#"
   xmlns:rdf="http://www.w3.org/1999/02/22-rdf-syntax-ns#"
   xmlns:svg="http://www.w3.org/2000/svg"
   xmlns="http://www.w3.org/2000/svg"
   xmlns:sodipodi="http://sodipodi.sourceforge.net/DTD/sodipodi-0.dtd"
   xmlns:inkscape="http://www.inkscape.org/namespaces/inkscape"
   version="1.1"
   width="24"
   height="24"
   viewBox="0 0 24 24"
   id="svg4"
   sodipodi:docname="weather-clouds.svg"
   inkscape:version="1.0.2 (e86c870879, 2021-01-15)">
  <metadata
     id="metadata10">
    <rdf:RDF>
      <cc:Work
         rdf:about="">
        <dc:format>image/svg+xml</dc:format>
        <dc:type
           rdf:resource="http://purl.org/dc/dcmitype/StillImage" />
      </cc:Work>
    </rdf:RDF>
  </metadata>
  <defs
     id="defs8" />
  <sodipodi:namedview
     pagecolor="#ffffff"
     bordercolor="#666666"
     borderopacity="1"
     objecttolerance="10"
     gridtolerance="10"
     guidetolerance="10"
     inkscape:pageopacity="0"
     inkscape:pageshadow="2"
     inkscape:window-width="1908"
     inkscape:window-height="1031"
     id="namedview6"
     showgrid="false"
     inkscape:zoom="33.208333"
     inkscape:cx="11.939774"
     inkscape:cy="12"
     inkscape:window-x="8"
     inkscape:window-y="1109"
     inkscape:window-maximized="0"
     inkscape:current-layer="svg4"
     inkscape:document-rotation="0" />
  <path fill="#B9D4F0"
     id="path837"
     style="fill:#B9D4F0;fill-opacity:1;stroke:none;stroke-width:1px;stroke-linecap:butt;stroke-linejoin:miter;stroke-opacity:1"
     d="M 14.369141 1.8203125 L 11.880859 3.1191406 C 12.450859 3.2291406 13.000781 3.400625 13.550781 3.640625 C 14.190781 3.930625 14.759531 4.2909375 15.269531 4.7109375 L 14.369141 1.8203125 z M 4.9101562 2.8203125 L 4.8007812 5.6308594 C 5.1707813 5.1908594 5.5998437 4.7894531 6.0898438 4.4394531 C 6.6498437 4.0294531 7.2491406 3.71 7.8691406 3.5 L 4.9101562 2.8203125 z M 10.611328 4.9980469 C 8.4714844 4.9628906 6.415 6.1897656 5.5 8.2597656 C 4.6 10.239766 4.9995313 12.45 6.2695312 14 L 6 14 A 4 4 0 0 0 2 18 A 4 4 0 0 0 6 22 L 19 22 A 3 3 0 0 0 22 19 A 3 3 0 0 0 19 16 C 18.65 16 18.31 16.059922 18 16.169922 L 18 16 C 18 14.19 17.189922 12.560937 15.919922 11.460938 C 16.349922 9.0309375 15.100234 6.5007031 12.740234 5.4707031 C 12.047734 5.1632031 11.324609 5.0097656 10.611328 4.9980469 z M 10.570312 6.9921875 C 11.025469 7.00125 11.487188 7.1007812 11.929688 7.3007812 C 13.179687 7.8607813 13.94 9.0598438 14 10.339844 C 13.38 10.119844 12.7 10 12 10 C 10.16 10 8.5001562 10.830859 7.4101562 12.130859 C 6.9301563 11.220859 6.8505469 10.090312 7.3105469 9.0703125 C 7.8955469 7.7503125 9.2048438 6.965 10.570312 6.9921875 z M 17.589844 8 C 17.779844 8.55 17.91 9.1209375 18 9.7109375 C 18.05 10.400937 18.029922 11.080469 17.919922 11.730469 L 19.970703 9.5 L 17.589844 8 z M 3.0996094 9.2792969 L 1.0605469 11.5 L 3.4296875 13 C 3.2396875 12.47 3.1090625 11.900781 3.0390625 11.300781 C 2.9690625 10.610781 2.9996094 9.9292969 3.0996094 9.2792969 z " />
</svg>
