<?xml version="1.0" encoding="UTF-8" standalone="no"?>
<svg
   version="1.1"
   id="mdi-google-photos"
   width="24"
   height="24"
   viewBox="0 0 24 24"
   sodipodi:docname="google-photos.svg"
   inkscape:version="1.1 (c68e22c387, 2021-05-23)"
   xmlns:inkscape="http://www.inkscape.org/namespaces/inkscape"
   xmlns:sodipodi="http://sodipodi.sourceforge.net/DTD/sodipodi-0.dtd"
   xmlns="http://www.w3.org/2000/svg"
   xmlns:svg="http://www.w3.org/2000/svg">
  <defs
     id="defs7">
    <linearGradient
       id="linearGradient1303"
       x1="48.455379"
       y1="-4.5159969"
       x2="220.34271"
       y2="265.60095"
       gradientTransform="scale(1.0350986,0.9660915)"
       gradientUnits="userSpaceOnUse">
      <stop
         offset="0%"
         stop-opacity="1"
         style="stop-color:#2a70d5;stop-opacity:1"
         id="stop1299" />
      <stop
         offset="100%"
         stop-opacity="1"
         style="stop-color:#9fbeed;stop-opacity:1"
         id="stop1301" />
    </linearGradient>
    <linearGradient
       id="_lgradient_9"
       x1="48.455376"
       y1="-4.5159969"
       x2="220.34271"
       y2="265.60095"
       gradientTransform="scale(1.0350986,0.9660915)"
       gradientUnits="userSpaceOnUse">
      <stop
         offset="2.608695652173913%"
         stop-opacity="1"
         style="stop-color:rgb(0,121,70)"
         id="stop25" />
      <stop
         offset="100%"
         stop-opacity="1"
         style="stop-color:#00ec88;stop-opacity:1"
         id="stop27" />
    </linearGradient>
    <linearGradient
       id="_lgradient_13"
       x1="48.455379"
       y1="-4.5159969"
       x2="220.34271"
       y2="265.60095"
       gradientTransform="matrix(1.0350986,0,0,0.9660915,-265.23259,-91.984396)"
       gradientUnits="userSpaceOnUse">
      <stop
         offset="3.0434782608695654%"
         stop-opacity="1"
         style="stop-color:rgb(253,201,43)"
         id="stop25-7" />
      <stop
         offset="97.3913043478261%"
         stop-opacity="1"
         style="stop-color:rgb(254,229,129)"
         id="stop27-9" />
    </linearGradient>
  </defs>
  <sodipodi:namedview
     id="namedview5"
     pagecolor="#ffffff"
     bordercolor="#666666"
     borderopacity="1.0"
     inkscape:pageshadow="2"
     inkscape:pageopacity="0.0"
     inkscape:pagecheckerboard="0"
     showgrid="false"
     inkscape:zoom="11.183237"
     inkscape:cx="2.8614255"
     inkscape:cy="21.81837"
     inkscape:window-width="1904"
     inkscape:window-height="1008"
     inkscape:window-x="45"
     inkscape:window-y="29"
     inkscape:window-maximized="0"
     inkscape:current-layer="mdi-google-photos" />
  <g
     id="g901"
     transform="matrix(0.10289132,0,0,0.10289132,10.763615,10.763615)">
    <path fill="#909090"
       class="st1"
       d="m 59.750549,-31.719053 c 0,24.1419776 -19.593489,43.735466 -43.735466,43.735466 h -3.998671 v -83.472261 c 0,-2.199269 1.799402,-3.998671 3.998671,-3.998671 v 0 c 24.141977,0 43.735466,19.593489 43.735466,43.735466 z"
       id="path894-7"
       style="fill:#909090;fill-opacity:1;stroke-width:0.499834;enable-background:new" />
    <path fill="#909090"
       class="st1"
       d="m -31.719055,-35.717719 c 24.1419776,0 43.735467,19.593489 43.735467,43.7354663 V 12.016419 H -71.45585 c -2.199269,0 -3.998671,-1.799403 -3.998671,-3.9986717 v 0 c 0,-24.1419773 19.593489,-43.7354663 43.735466,-43.7354663 z"
       id="path894-7-6"
       style="fill:#909090;fill-opacity:1;stroke-width:0.499834;enable-background:new" />
    <path fill="#909090"
       class="st1"
       d="m -35.717731,55.751885 c 0,-24.141978 19.593489,-43.735466 43.7354663,-43.735466 H 12.016407 V 95.48868 c 0,2.199269 -1.799403,3.998671 -3.9986717,3.998671 v 0 c -24.1419773,0 -43.7354663,-19.593489 -43.7354663,-43.735466 z"
       id="path894-7-6-2"
       style="fill:#909090;fill-opacity:1;stroke-width:0.499834;enable-background:new" />
    <path fill="#909090"
       class="st1"
       d="m 55.75188,59.75055 c -24.14198,0 -43.73547,-19.59349 -43.73547,-43.73547 v -3.99867 h 83.47227 c 2.19927,0 3.99867,1.79941 3.99867,3.99867 v 0 c 0,24.14198 -19.59349,43.73547 -43.73547,43.73547 z"
       id="path894-7-7"
       style="fill:#909090;fill-opacity:1;stroke-width:0.499834;enable-background:new" />
  </g>
</svg>
