<?xml version="1.0" encoding="UTF-8" standalone="no"?>
<svg
   xmlns:dc="http://purl.org/dc/elements/1.1/"
   xmlns:cc="http://creativecommons.org/ns#"
   xmlns:rdf="http://www.w3.org/1999/02/22-rdf-syntax-ns#"
   xmlns:svg="http://www.w3.org/2000/svg"
   xmlns="http://www.w3.org/2000/svg"
   xmlns:sodipodi="http://sodipodi.sourceforge.net/DTD/sodipodi-0.dtd"
   xmlns:inkscape="http://www.inkscape.org/namespaces/inkscape"
   version="1.1"
   width="24"
   height="24"
   viewBox="0 0 24 24"
   id="svg4"
   sodipodi:docname="libreoffice-draw.svg"
   inkscape:version="1.0.2 (e86c870879, 2021-01-15)">
  <metadata
     id="metadata10">
    <rdf:RDF>
      <cc:Work
         rdf:about="">
        <dc:format>image/svg+xml</dc:format>
        <dc:type
           rdf:resource="http://purl.org/dc/dcmitype/StillImage" />
      </cc:Work>
    </rdf:RDF>
  </metadata>
  <defs
     id="defs8" />
  <sodipodi:namedview
     pagecolor="#ffffff"
     bordercolor="#666666"
     borderopacity="1"
     objecttolerance="10"
     gridtolerance="10"
     guidetolerance="10"
     inkscape:pageopacity="0"
     inkscape:pageshadow="2"
     inkscape:window-width="1972"
     inkscape:window-height="1036"
     id="namedview6"
     showgrid="false"
     inkscape:zoom="39.833333"
     inkscape:cx="12.1983"
     inkscape:cy="10.547223"
     inkscape:window-x="1860"
     inkscape:window-y="1084"
     inkscape:window-maximized="0"
     inkscape:current-layer="svg4" />
  <path fill="#909090"
     id="path2"
     d="M 7.8300781 3.25 C 7.6100781 3.25 7.4135677 3.3333333 7.2402344 3.5 C 7.0802344 3.66 7 3.8534114 7 4.0800781 L 7 7 L 2.8300781 7 C 2.6100781 7 2.4135677 7.0802344 2.2402344 7.2402344 C 2.0802344 7.4135677 2 7.6100781 2 7.8300781 L 2 16.169922 C 2 16.389922 2.0802344 16.586433 2.2402344 16.759766 C 2.4135677 16.919766 2.6100781 17 2.8300781 17 L 7 17 L 7 19.919922 C 7 20.146589 7.0802344 20.34 7.2402344 20.5 C 7.4135677 20.666667 7.6100781 20.75 7.8300781 20.75 L 21.169922 20.75 C 21.389922 20.75 21.586433 20.666667 21.759766 20.5 C 21.919766 20.34 22 20.146589 22 19.919922 L 22 4.0800781 C 22 3.8534114 21.919766 3.66 21.759766 3.5 C 21.586433 3.333333 21.389922 3.25 21.169922 3.25 L 7.8300781 3.25 z M 8.25 4.5 L 20.75 4.5 L 20.75 8.25 L 17 8.25 L 17 19.5 L 8.25 19.5 L 8.25 17 L 11.169922 17 C 11.389922 17 11.586433 16.919766 11.759766 16.759766 C 11.919766 16.586433 12 16.389922 12 16.169922 L 12 7.8300781 C 12 7.6100781 11.919766 7.4135677 11.759766 7.2402344 C 11.586433 7.0802344 11.389922 7 11.169922 7 L 8.25 7 L 8.25 4.5 z M 4.2636719 8.7304688 L 7.1503906 8.7304688 C 9.3543104 8.7304688 9.8105469 10.605184 9.8105469 11.84375 C 9.8105469 13.246245 9.2540875 15.269531 7.0957031 15.269531 L 4.2636719 15.269531 L 4.2636719 8.7304688 z M 18.25 9.5 L 20.75 9.5 L 20.75 12 L 18.25 12 L 18.25 9.5 z M 5.6035156 9.8613281 L 5.6035156 14.140625 L 6.9316406 14.140625 C 8.0427077 14.140625 8.4160156 13.021904 8.4160156 11.947266 C 8.4160156 10.016559 7.4969173 9.8613281 6.9140625 9.8613281 L 5.6035156 9.8613281 z M 18.25 13.25 L 20.75 13.25 L 20.75 15.75 L 18.25 15.75 L 18.25 13.25 z M 18.25 17 L 20.75 17 L 20.75 19.5 L 18.25 19.5 L 18.25 17 z " />
</svg>
