<?xml version="1.0" encoding="UTF-8" standalone="no"?>
<svg
   xmlns:dc="http://purl.org/dc/elements/1.1/"
   xmlns:cc="http://creativecommons.org/ns#"
   xmlns:rdf="http://www.w3.org/1999/02/22-rdf-syntax-ns#"
   xmlns:svg="http://www.w3.org/2000/svg"
   xmlns="http://www.w3.org/2000/svg"
   xmlns:sodipodi="http://sodipodi.sourceforge.net/DTD/sodipodi-0.dtd"
   xmlns:inkscape="http://www.inkscape.org/namespaces/inkscape"
   height="24"
   viewBox="0 0 24 24"
   width="24"
   version="1.1"
   id="svg4"
   sodipodi:docname="audio-card-symbolic.svg"
   inkscape:version="1.0.2 (e86c870879, 2021-01-15)">
  <metadata
     id="metadata10">
    <rdf:RDF>
      <cc:Work
         rdf:about="">
        <dc:format>image/svg+xml</dc:format>
        <dc:type
           rdf:resource="http://purl.org/dc/dcmitype/StillImage" />
      </cc:Work>
    </rdf:RDF>
  </metadata>
  <defs
     id="defs8" />
  <sodipodi:namedview
     pagecolor="#ffffff"
     bordercolor="#666666"
     borderopacity="1"
     objecttolerance="10"
     gridtolerance="10"
     guidetolerance="10"
     inkscape:pageopacity="0"
     inkscape:pageshadow="2"
     inkscape:window-width="1972"
     inkscape:window-height="1036"
     id="namedview6"
     showgrid="false"
     inkscape:zoom="39.833333"
     inkscape:cx="12.050209"
     inkscape:cy="11.349332"
     inkscape:window-x="1860"
     inkscape:window-y="1084"
     inkscape:window-maximized="0"
     inkscape:current-layer="svg4" />
  <path fill="#909090"
     d="M 8.05,15.54 C 7.72,13.64 9.16,12 11,12 c 0.35,0 0.69,0.07 1,0.18 V 8 c 0,-1.1 0.9,-2 2,-2 h 2 c 0.55,0 1,0.45 1,1 0,0.55 -0.45,1 -1,1 h -2 v 7.03 c -0.02,1.82 -1.66,3.26 -3.55,2.92 -1.21,-0.21 -2.2,-1.2 -2.4,-2.41 z"
     id="path2"
     sodipodi:nodetypes="cscssssscccc" />
  <path fill="#909090"
     d="M 21,21 V 2.9999999 c 0,-1.1 -0.9,-2 -2,-2 H 4.9999999 c -1.1,0 -2,0.9 -2,2 V 21 c 0,1.1 0.9,2 2,2 H 19 c 1.1,0 2,-0.9 2,-2 z M 4.9999999,20 V 3.9999999 c 0,-0.55 0.45,-1 1,-1 H 18 c 0.55,0 1,0.45 1,1 V 20 c 0,0.55 -0.45,1 -1,1 H 5.9999999 c -0.55,0 -1,-0.45 -1,-1 z"
     id="path2-3"
     sodipodi:nodetypes="ssssssssssssssssss" />
</svg>
