<?xml version="1.0" encoding="UTF-8" standalone="no"?>
<svg
   xmlns:dc="http://purl.org/dc/elements/1.1/"
   xmlns:cc="http://creativecommons.org/ns#"
   xmlns:rdf="http://www.w3.org/1999/02/22-rdf-syntax-ns#"
   xmlns:svg="http://www.w3.org/2000/svg"
   xmlns="http://www.w3.org/2000/svg"
   xmlns:sodipodi="http://sodipodi.sourceforge.net/DTD/sodipodi-0.dtd"
   xmlns:inkscape="http://www.inkscape.org/namespaces/inkscape"
   version="1.1"
   id="mdi-calendar"
   width="24"
   height="24"
   viewBox="0 0 24 24"
   sodipodi:docname="google-agenda.svg"
   inkscape:version="1.0.2 (e86c870879, 2021-01-15)">
  <metadata
     id="metadata9">
    <rdf:RDF>
      <cc:Work
         rdf:about="">
        <dc:format>image/svg+xml</dc:format>
        <dc:type
           rdf:resource="http://purl.org/dc/dcmitype/StillImage" />
      </cc:Work>
    </rdf:RDF>
  </metadata>
  <defs
     id="defs7" />
  <sodipodi:namedview
     pagecolor="#ffffff"
     bordercolor="#666666"
     borderopacity="1"
     objecttolerance="10"
     gridtolerance="10"
     guidetolerance="10"
     inkscape:pageopacity="0"
     inkscape:pageshadow="2"
     inkscape:window-width="1920"
     inkscape:window-height="1016"
     id="namedview5"
     showgrid="false"
     inkscape:zoom="31"
     inkscape:cx="16.709393"
     inkscape:cy="12"
     inkscape:window-x="0"
     inkscape:window-y="0"
     inkscape:window-maximized="1"
     inkscape:current-layer="mdi-calendar"
     inkscape:document-rotation="0" />
  <path fill="#909090"
     id="path2-3"
     style="fill:#909090;fill-opacity:1;stroke-width:1.125"
     d="M 5.1994628,5.25 C 3.9917269,5.25 3,6.2417268 3,7.449463 v 2.55542 C 3,14.827574 6.9224261,18.75 11.745117,18.75 h 0.509765 C 17.077574,18.75 21,14.827574 21,10.004883 V 7.449463 C 21,6.2417268 20.008273,5.25 18.800537,5.25 Z M 16.352784,8.8776858 c 0.241787,0 0.483072,0.091959 0.667968,0.2768554 0.369793,0.3697927 0.369793,0.9683418 0,1.3381338 l -4.352783,4.352784 c -0.369793,0.369793 -0.966146,0.369793 -1.335938,0 L 6.9792476,10.492675 c -0.369792,-0.369792 -0.369792,-0.9683411 0,-1.3381338 0.3697932,-0.3603108 0.9771312,-0.3697928 1.3469243,0 l 3.6782221,3.6804198 3.678224,-3.6804198 c 0.184896,-0.1848964 0.428377,-0.2768554 0.670166,-0.2768554 z" />
</svg>
