<?xml version="1.0" encoding="UTF-8" standalone="no"?>
<svg
   xmlns:dc="http://purl.org/dc/elements/1.1/"
   xmlns:cc="http://creativecommons.org/ns#"
   xmlns:rdf="http://www.w3.org/1999/02/22-rdf-syntax-ns#"
   xmlns:svg="http://www.w3.org/2000/svg"
   xmlns="http://www.w3.org/2000/svg"
   xmlns:sodipodi="http://sodipodi.sourceforge.net/DTD/sodipodi-0.dtd"
   xmlns:inkscape="http://www.inkscape.org/namespaces/inkscape"
   version="1.1"
   id="mdi-surround-sound"
   width="24"
   height="24"
   viewBox="0 0 24 24"
   sodipodi:docname="audio-subwoofer.svg"
   inkscape:version="1.0.1 (3bc2e813f5, 2020-09-07)">
  <metadata
     id="metadata9">
    <rdf:RDF>
      <cc:Work
         rdf:about="">
        <dc:format>image/svg+xml</dc:format>
        <dc:type
           rdf:resource="http://purl.org/dc/dcmitype/StillImage" />
      </cc:Work>
    </rdf:RDF>
  </metadata>
  <defs
     id="defs7" />
  <sodipodi:namedview
     pagecolor="#ffffff"
     bordercolor="#666666"
     borderopacity="1"
     objecttolerance="10"
     gridtolerance="10"
     guidetolerance="10"
     inkscape:pageopacity="0"
     inkscape:pageshadow="2"
     inkscape:window-width="1908"
     inkscape:window-height="1022"
     id="namedview5"
     showgrid="false"
     inkscape:zoom="39.833333"
     inkscape:cx="12.050209"
     inkscape:cy="12"
     inkscape:window-x="8"
     inkscape:window-y="36"
     inkscape:window-maximized="0"
     inkscape:current-layer="mdi-surround-sound" />
  <path
     d="M 20,4 H 4 C 2.8954305,4 2,4.8954305 2,6 v 12 c 0,1.104569 0.8954305,2 2,2 h 16 c 1.104569,0 2,-0.895431 2,-2 V 6 C 22,4.8954305 21.104569,4 20,4 M 7.76,16.24 6.35,17.65 C 4.78,16.1 4,14.05 4,12 4,9.95 4.78,7.9 6.34,6.34 L 7.75,7.75 C 6.59,8.93 6,10.46 6,12 c 0,1.54 0.59,3.07 1.76,4.24 M 12,16 C 9.790861,16 8,14.209139 8,12 8,9.790861 9.790861,8 12,8 c 2.209139,0 4,1.790861 4,4 0,2.209139 -1.790861,4 -4,4 m 5.66,1.66 -1.41,-1.41 C 17.41,15.07 18,13.54 18,12 18,10.46 17.41,8.93 16.24,7.76 L 17.65,6.35 C 19.22,7.9 20,9.95 20,12 c 0,2.05 -0.78,4.1 -2.34,5.66"
     id="path2"
     sodipodi:nodetypes="cssssssscccsccsccssscccsccsc" />
</svg>
