<?xml version="1.0" encoding="UTF-8" standalone="no"?>
<svg
   xmlns:dc="http://purl.org/dc/elements/1.1/"
   xmlns:cc="http://creativecommons.org/ns#"
   xmlns:rdf="http://www.w3.org/1999/02/22-rdf-syntax-ns#"
   xmlns:svg="http://www.w3.org/2000/svg"
   xmlns="http://www.w3.org/2000/svg"
   xmlns:sodipodi="http://sodipodi.sourceforge.net/DTD/sodipodi-0.dtd"
   xmlns:inkscape="http://www.inkscape.org/namespaces/inkscape"
   enable-background="new 0 0 24 24"
   height="24"
   viewBox="0 0 24 24"
   width="24"
   version="1.1"
   id="svg12"
   sodipodi:docname="network-cellular-5g-symbolic.svg"
   inkscape:version="1.0.1 (3bc2e813f5, 2020-09-07)">
  <metadata
     id="metadata18">
    <rdf:RDF>
      <cc:Work
         rdf:about="">
        <dc:format>image/svg+xml</dc:format>
        <dc:type
           rdf:resource="http://purl.org/dc/dcmitype/StillImage" />
      </cc:Work>
    </rdf:RDF>
  </metadata>
  <defs
     id="defs16" />
  <sodipodi:namedview
     pagecolor="#ffffff"
     bordercolor="#666666"
     borderopacity="1"
     objecttolerance="10"
     gridtolerance="10"
     guidetolerance="10"
     inkscape:pageopacity="0"
     inkscape:pageshadow="2"
     inkscape:window-width="948"
     inkscape:window-height="482"
     id="namedview14"
     showgrid="false"
     inkscape:zoom="31"
     inkscape:cx="12"
     inkscape:cy="12"
     inkscape:window-x="56"
     inkscape:window-y="50"
     inkscape:window-maximized="0"
     inkscape:current-layer="svg12" />
  <g
     id="g10">
    <g
       id="g8">
      <path fill="white"
         d="M18,13h1v2h-5V9h6c0.55,0,1-0.45,1-1v0c0-0.55-0.45-1-1-1h-6c-1.1,0-2,0.9-2,2v6c0,1.1,0.9,2,2,2h5c1.1,0,2-0.9,2-2v-3 c0-0.55-0.45-1-1-1h-2c-0.55,0-1,0.45-1,1v0C17,12.55,17.45,13,18,13z"
         id="path4" />
      <path fill="white"
         d="M4,13h4v2H4c-0.55,0-1,0.45-1,1v0c0,0.55,0.45,1,1,1h4c1.1,0,2-0.9,2-2v-2c0-1.1-0.9-2-2-2H5V9h4c0.55,0,1-0.45,1-1v0 c0-0.55-0.45-1-1-1H4C3.45,7,3,7.45,3,8v4C3,12.55,3.45,13,4,13z"
         id="path6" />
    </g>
  </g>
</svg>
