<?xml version="1.0" encoding="UTF-8" standalone="no"?>
<svg
   xmlns:dc="http://purl.org/dc/elements/1.1/"
   xmlns:cc="http://creativecommons.org/ns#"
   xmlns:rdf="http://www.w3.org/1999/02/22-rdf-syntax-ns#"
   xmlns:svg="http://www.w3.org/2000/svg"
   xmlns="http://www.w3.org/2000/svg"
   xmlns:sodipodi="http://sodipodi.sourceforge.net/DTD/sodipodi-0.dtd"
   xmlns:inkscape="http://www.inkscape.org/namespaces/inkscape"
   height="24"
   viewBox="0 0 24 24"
   width="24"
   version="1.1"
   id="svg6"
   sodipodi:docname="user-offline-symbolic.svg"
   inkscape:version="1.0.1 (3bc2e813f5, 2020-09-07)">
  <metadata
     id="metadata12">
    <rdf:RDF>
      <cc:Work
         rdf:about="">
        <dc:format>image/svg+xml</dc:format>
        <dc:type
           rdf:resource="http://purl.org/dc/dcmitype/StillImage" />
      </cc:Work>
    </rdf:RDF>
  </metadata>
  <defs
     id="defs10" />
  <sodipodi:namedview
     pagecolor="#ffffff"
     bordercolor="#666666"
     borderopacity="1"
     objecttolerance="10"
     gridtolerance="10"
     guidetolerance="10"
     inkscape:pageopacity="0"
     inkscape:pageshadow="2"
     inkscape:window-width="948"
     inkscape:window-height="482"
     id="namedview8"
     showgrid="false"
     inkscape:zoom="9.2083333"
     inkscape:cx="19.279859"
     inkscape:cy="6.865973"
     inkscape:window-x="56"
     inkscape:window-y="50"
     inkscape:window-maximized="0"
     inkscape:current-layer="svg6"
     inkscape:document-rotation="0" />
  <path fill="white"
     d="M1.91 2.36c-.35-.35-.92-.35-1.27 0s-.35.92 0 1.27l1.38 1.38L2 22l4-4h9l5.09 5.09c.35.35.92.35 1.27 0s.35-.92 0-1.27L1.91 2.36zM7 14c-.55 0-1-.45-1-1s.45-1 1-1 1 .45 1 1-.45 1-1 1zm0-3c-.55 0-1-.45-1-1s.45-1 1-1 1 .45 1 1-.45 1-1 1zm13-9H4.08l7 7H17c.55 0 1 .45 1 1s-.45 1-1 1h-3.92l6.99 6.99C21.14 17.95 22 17.08 22 16V4c0-1.1-.9-2-2-2zm-3 6h-6c-.55 0-1-.45-1-1s.45-1 1-1h6c.55 0 1 .45 1 1s-.45 1-1 1z"
     id="path4" />
  <rect fill="white"
     style="fill:white;fill-rule:evenodd"
     id="rect837"
     width="3.4370222"
     height="5.9930172"
     x="4.8297987"
     y="8.9842367" />
  <path fill="white"
     style="fill:white;fill-opacity:1;"
     d="m 11.08,9 2,2 4.770471,1.261599 0.761003,-6.7456818 -9.327617,0.1192174 0.735926,2.0165712 z"
     id="path839" />
</svg>
