<?xml version="1.0" encoding="UTF-8" standalone="no"?>
<svg
   xmlns:dc="http://purl.org/dc/elements/1.1/"
   xmlns:cc="http://creativecommons.org/ns#"
   xmlns:rdf="http://www.w3.org/1999/02/22-rdf-syntax-ns#"
   xmlns:svg="http://www.w3.org/2000/svg"
   xmlns="http://www.w3.org/2000/svg"
   xmlns:sodipodi="http://sodipodi.sourceforge.net/DTD/sodipodi-0.dtd"
   xmlns:inkscape="http://www.inkscape.org/namespaces/inkscape"
   version="1.1"
   width="24"
   height="24"
   viewBox="0 0 24 24"
   id="svg4"
   sodipodi:docname="weather-clouds-night-symbolic.svg"
   inkscape:version="1.0.1 (3bc2e813f5, 2020-09-07)">
  <metadata
     id="metadata10">
    <rdf:RDF>
      <cc:Work
         rdf:about="">
        <dc:format>image/svg+xml</dc:format>
        <dc:type
           rdf:resource="http://purl.org/dc/dcmitype/StillImage" />
      </cc:Work>
    </rdf:RDF>
  </metadata>
  <defs
     id="defs8" />
  <sodipodi:namedview
     pagecolor="#ffffff"
     bordercolor="#666666"
     borderopacity="1"
     objecttolerance="10"
     gridtolerance="10"
     guidetolerance="10"
     inkscape:pageopacity="0"
     inkscape:pageshadow="2"
     inkscape:window-width="948"
     inkscape:window-height="482"
     id="namedview6"
     showgrid="false"
     inkscape:zoom="33.208333"
     inkscape:cx="11.939774"
     inkscape:cy="12"
     inkscape:window-x="56"
     inkscape:window-y="50"
     inkscape:window-maximized="0"
     inkscape:current-layer="svg4"
     inkscape:document-rotation="0" />
  <path fill="white"
     style="fill:white;stroke:#000000;stroke-width:1px;stroke-linecap:butt;stroke-linejoin:miter;stroke-opacity:1;fill-opacity:1"
     d="m 3.5726161,18.412406 0.2777211,-2.020507 3.1222161,-1.27874 1.8546503,-2.614531 2.8466124,-1.259097 2.812618,0.773173 1.778779,2.381038 0.486159,2.626765 3.990551,0.347122 0.625784,2.761566 -3.468632,1.200047 -13.1158253,-0.454399 z"
     id="path839" />
  <path fill="white"
     d="M22,10.28C21.74,10.3 21.5,10.31 21.26,10.31C19.32,10.31 17.39,9.57 15.91,8.09C14.25,6.44 13.5,4.19 13.72,2C13.77,1.53 13.22,1 12.71,1C12.57,1 12.44,1.04 12.32,1.12C12,1.36 11.66,1.64 11.36,1.94C9.05,4.24 8.55,7.66 9.84,10.46C8.31,11.11 7.13,12.43 6.69,14.06L6,14A4,4 0 0,0 2,18A4,4 0 0,0 6,22H19A3,3 0 0,0 22,19A3,3 0 0,0 19,16C18.42,16 17.88,16.16 17.42,16.45L17.5,15.5C17.5,15.28 17.5,15.05 17.46,14.83C19.14,14.67 20.77,13.94 22.06,12.64C22.38,12.34 22.64,12 22.88,11.68C23.27,11.13 22.65,10.28 22.04,10.28M19,18A1,1 0 0,1 20,19A1,1 0 0,1 19,20H6A2,2 0 0,1 4,18A2,2 0 0,1 6,16H8.5V15.5C8.5,13.94 9.53,12.64 10.94,12.18C11.1,12.13 11.26,12.09 11.43,12.06C11.61,12.03 11.8,12 12,12C12.23,12 12.45,12.03 12.66,12.07C12.73,12.08 12.8,12.1 12.87,12.13C13,12.16 13.15,12.2 13.28,12.25C13.36,12.28 13.44,12.32 13.5,12.36C13.63,12.41 13.74,12.47 13.84,12.54C13.92,12.59 14,12.64 14.07,12.7C14.17,12.77 14.25,12.84 14.34,12.92C14.41,13 14.5,13.05 14.55,13.12C14.63,13.2 14.69,13.29 14.76,13.37C14.82,13.45 14.89,13.53 14.94,13.62C15,13.71 15.04,13.8 15.09,13.9C15.14,14 15.2,14.08 15.24,14.18C15.41,14.59 15.5,15.03 15.5,15.5V18M16.83,12.86C15.9,11.16 14.08,10 12,10H11.87C11.41,9.19 11.14,8.26 11.14,7.29C11.14,6.31 11.39,5.37 11.86,4.55C12.21,6.41 13.12,8.14 14.5,9.5C15.86,10.88 17.58,11.79 19.45,12.14C18.66,12.6 17.76,12.84 16.83,12.86Z"
     id="path2" />
</svg>
