<?xml version="1.0" encoding="UTF-8" standalone="no"?>
<svg
   xmlns:dc="http://purl.org/dc/elements/1.1/"
   xmlns:cc="http://creativecommons.org/ns#"
   xmlns:rdf="http://www.w3.org/1999/02/22-rdf-syntax-ns#"
   xmlns:svg="http://www.w3.org/2000/svg"
   xmlns="http://www.w3.org/2000/svg"
   xmlns:sodipodi="http://sodipodi.sourceforge.net/DTD/sodipodi-0.dtd"
   xmlns:inkscape="http://www.inkscape.org/namespaces/inkscape"
   version="1.1"
   width="24"
   height="24"
   viewBox="0 0 24 24"
   id="svg4"
   sodipodi:docname="window-new.svg"
   inkscape:version="1.0.2 (e86c870879, 2021-01-15)">
  <metadata
     id="metadata10">
    <rdf:RDF>
      <cc:Work
         rdf:about="">
        <dc:format>image/svg+xml</dc:format>
        <dc:type
           rdf:resource="http://purl.org/dc/dcmitype/StillImage" />
      </cc:Work>
    </rdf:RDF>
  </metadata>
  <defs
     id="defs8" />
  <sodipodi:namedview
     pagecolor="#ffffff"
     bordercolor="#666666"
     borderopacity="1"
     objecttolerance="10"
     gridtolerance="10"
     guidetolerance="10"
     inkscape:pageopacity="0"
     inkscape:pageshadow="2"
     inkscape:window-width="2132"
     inkscape:window-height="1017"
     id="namedview6"
     showgrid="false"
     inkscape:zoom="14.849242"
     inkscape:cx="20.517582"
     inkscape:cy="11.499098"
     inkscape:window-x="5540"
     inkscape:window-y="1097"
     inkscape:window-maximized="0"
     inkscape:current-layer="svg4"
     inkscape:document-rotation="0" />
  <path fill="#909090"
     id="path2"
     d="M 8 2 C 7.7225 2 7.4582812 2.0554688 7.21875 2.15625 C 6.7396875 2.3578125 6.3578125 2.7396875 6.15625 3.21875 C 6.1560255 3.2192794 6.156474 3.2201734 6.15625 3.2207031 C 6.1062047 3.3399583 6.0673939 3.4657554 6.0410156 3.5957031 C 6.0408888 3.5963199 6.0411419 3.5970393 6.0410156 3.5976562 C 6.0147584 3.7276435 6 3.8619135 6 4 L 6 16 C 6 16.275 6.0554688 16.538281 6.15625 16.777344 C 6.1837292 16.84248 6.2218935 16.901489 6.2558594 16.962891 C 6.2841983 17.014162 6.307253 17.068777 6.3398438 17.117188 C 6.3403348 17.117916 6.3413049 17.118412 6.3417969 17.119141 C 6.4130846 17.224718 6.4943206 17.322135 6.5839844 17.412109 C 6.5846334 17.41276 6.5852876 17.413413 6.5859375 17.414062 C 6.6757249 17.503914 6.7733225 17.584697 6.8789062 17.65625 C 6.8796697 17.656767 6.8800951 17.657687 6.8808594 17.658203 C 6.9865792 17.729645 7.0998041 17.791363 7.21875 17.841797 C 7.3020165 17.877147 7.3918754 17.899894 7.4804688 17.923828 C 7.5193959 17.934321 7.5558546 17.950818 7.5957031 17.958984 C 7.5963199 17.959111 7.5970393 17.958858 7.5976562 17.958984 C 7.7276435 17.985493 7.8619135 18 8 18 L 20 18 C 21.104569 18 22 17.104569 22 16 L 22 4 C 22 2.89543 21.104569 2 20 2 L 8 2 z M 8 4 L 20 4 L 20 16 L 8 16 L 8 4 z M 3 6 C 2.45 6 2 6.45 2 7 L 2 8 L 2 9 L 2 17 L 2 17.5 L 2 20 C 2 20.1375 2.0142556 20.272461 2.0410156 20.402344 C 2.0774604 20.580445 2.1442494 20.746874 2.2246094 20.904297 C 2.2409697 20.936352 2.2573807 20.967019 2.2753906 20.998047 C 2.3630326 21.149222 2.4631818 21.291307 2.5859375 21.414062 C 2.7086932 21.536818 2.8507781 21.636967 3.0019531 21.724609 C 3.0329809 21.742619 3.0636482 21.75903 3.0957031 21.775391 C 3.2531263 21.855751 3.4195551 21.92254 3.5976562 21.958984 C 3.7275382 21.985742 3.8625 22 4 22 L 17 22 C 17.1375 22 17.269141 21.972656 17.388672 21.921875 C 17.495562 21.876466 17.587687 21.808301 17.671875 21.730469 C 17.699551 21.705012 17.721411 21.676818 17.746094 21.648438 C 17.799105 21.587391 17.843671 21.52176 17.880859 21.449219 C 17.898083 21.415804 17.916256 21.385049 17.929688 21.349609 C 17.971294 21.239781 18 21.123875 18 21 C 18 20.45 17.55 20 17 20 L 16 20 L 5.5 20 L 5 20 C 4.45 20 4 19.55 4 19 L 4 7 C 4 6.45 3.55 6 3 6 z M 14 6 C 13.45 6 13 6.45 13 7 L 13 9 L 11 9 C 10.45 9 10 9.45 10 10 C 10 10.55 10.45 11 11 11 L 13 11 L 13 13 C 13 13.55 13.45 14 14 14 C 14.55 14 15 13.55 15 13 L 15 11 L 17 11 C 17.55 11 18 10.55 18 10 C 18 9.45 17.55 9 17 9 L 15 9 L 15 7 C 15 6.45 14.55 6 14 6 z " />
</svg>
