<?xml version="1.0" encoding="UTF-8" standalone="no"?>
<svg
   xmlns:dc="http://purl.org/dc/elements/1.1/"
   xmlns:cc="http://creativecommons.org/ns#"
   xmlns:rdf="http://www.w3.org/1999/02/22-rdf-syntax-ns#"
   xmlns:svg="http://www.w3.org/2000/svg"
   xmlns="http://www.w3.org/2000/svg"
   xmlns:sodipodi="http://sodipodi.sourceforge.net/DTD/sodipodi-0.dtd"
   xmlns:inkscape="http://www.inkscape.org/namespaces/inkscape"
   version="1.1"
   id="mdi-folder-multiple"
   width="24"
   height="24"
   viewBox="0 0 24 24"
   sodipodi:docname="hb-category.svg"
   inkscape:version="1.0.2 (e86c870879, 2021-01-15)">
  <metadata
     id="metadata9">
    <rdf:RDF>
      <cc:Work
         rdf:about="">
        <dc:format>image/svg+xml</dc:format>
        <dc:type
           rdf:resource="http://purl.org/dc/dcmitype/StillImage" />
      </cc:Work>
    </rdf:RDF>
  </metadata>
  <defs
     id="defs7" />
  <sodipodi:namedview
     pagecolor="#ffffff"
     bordercolor="#666666"
     borderopacity="1"
     objecttolerance="10"
     gridtolerance="10"
     guidetolerance="10"
     inkscape:pageopacity="0"
     inkscape:pageshadow="2"
     inkscape:window-width="1110"
     inkscape:window-height="1031"
     id="namedview5"
     showgrid="false"
     inkscape:zoom="10.934399"
     inkscape:cx="15.786141"
     inkscape:cy="12.424714"
     inkscape:window-x="2722"
     inkscape:window-y="1084"
     inkscape:window-maximized="0"
     inkscape:current-layer="mdi-folder-multiple" />
  <path fill="#909090"
     id="path2"
     d="M 6 2 C 4.8954305 2 4 2.8954305 4 4 L 4 16 C 4 17.104569 4.8954305 18 6 18 L 22 18 C 23.104569 18 24 17.104569 24 16 L 24 6 C 24 4.8954305 23.104569 4 22 4 L 14 4 L 12 2 L 6 2 z M 1 6 C 0.45000003 6 -1.4802974e-16 6.45 0 7 L 0 9 L 0 17.5 L 0 20 C 0 20.1375 0.014255625 20.272461 0.041015625 20.402344 C 0.20086662 21.183515 0.81648525 21.799134 1.5976562 21.958984 C 1.7275383 21.985744 1.8625 22 2 22 L 19 22 C 19.1375 22 19.269141 21.972665 19.388672 21.921875 C 19.747266 21.769536 20 21.4125 20 21 C 20 20.45 19.55 20 19 20 L 3.5 20 L 3 20 C 2.45 20 2 19.55 2 19 L 2 7 C 2 6.45 1.55 6 1 6 z " />
</svg>
