<?xml version="1.0" encoding="UTF-8" standalone="no"?>
<svg
   xmlns:dc="http://purl.org/dc/elements/1.1/"
   xmlns:cc="http://creativecommons.org/ns#"
   xmlns:rdf="http://www.w3.org/1999/02/22-rdf-syntax-ns#"
   xmlns:svg="http://www.w3.org/2000/svg"
   xmlns="http://www.w3.org/2000/svg"
   xmlns:sodipodi="http://sodipodi.sourceforge.net/DTD/sodipodi-0.dtd"
   xmlns:inkscape="http://www.inkscape.org/namespaces/inkscape"
   version="1.1"
   id="mdi-exponent-box"
   width="24"
   height="24"
   viewBox="0 0 24 24"
   sodipodi:docname="text_superscript-symbolic (copy).svg"
   inkscape:version="1.0.1 (3bc2e813f5, 2020-09-07)">
  <metadata
     id="metadata9">
    <rdf:RDF>
      <cc:Work
         rdf:about="">
        <dc:format>image/svg+xml</dc:format>
        <dc:type
           rdf:resource="http://purl.org/dc/dcmitype/StillImage" />
      </cc:Work>
    </rdf:RDF>
  </metadata>
  <defs
     id="defs7" />
  <sodipodi:namedview
     pagecolor="#ffffff"
     bordercolor="#666666"
     borderopacity="1"
     objecttolerance="10"
     gridtolerance="10"
     guidetolerance="10"
     inkscape:pageopacity="0"
     inkscape:pageshadow="2"
     inkscape:window-width="1908"
     inkscape:window-height="1022"
     id="namedview5"
     showgrid="false"
     inkscape:zoom="39.833333"
     inkscape:cx="12.050209"
     inkscape:cy="12"
     inkscape:window-x="8"
     inkscape:window-y="1097"
     inkscape:window-maximized="0"
     inkscape:current-layer="mdi-exponent-box" />
  <path fill="#909090"
     d="M 5,3 C 3.89,3 3,3.89 3,5 v 14 c 0,1.104569 0.8954305,2 2,2 h 14 c 1.104569,0 2,-0.895431 2,-2 V 5 C 21,3.8954305 20.104569,3 19,3 H 5 m 8.76,7.976625 h 1.63 l 1.11,2.6 1.09,-2.6 h 1.65 c 0,0 -1.74,4.57 -2.78,6.32 -0.38,0.57 -1.11,0.95 -1.96,0.93 v -1.5 c 0.46,0.01 0.75,-0.25 1,-0.62 0.11,-0.13 0.18,-0.33 0.24,-0.49 l -1.98,-4.64 m -7.35,-4.4100002 2.8,2.79 2.79,-2.79 1.41,1.41 -2.79,2.7900002 2.79,2.8 -1.41,1.41 -2.79,-2.79 -2.8,2.79 -1.41,-1.41 2.79,-2.8 L 5,7.9766248 Z"
     id="path2"
     sodipodi:nodetypes="csssssssccccccccccccccccccccccccc" />
</svg>
