<?xml version="1.0" encoding="UTF-8" standalone="no"?>
<svg
   xmlns:dc="http://purl.org/dc/elements/1.1/"
   xmlns:cc="http://creativecommons.org/ns#"
   xmlns:rdf="http://www.w3.org/1999/02/22-rdf-syntax-ns#"
   xmlns:svg="http://www.w3.org/2000/svg"
   xmlns="http://www.w3.org/2000/svg"
   xmlns:sodipodi="http://sodipodi.sourceforge.net/DTD/sodipodi-0.dtd"
   xmlns:inkscape="http://www.inkscape.org/namespaces/inkscape"
   height="24"
   viewBox="0 0 24 24"
   width="24"
   version="1.1"
   id="svg4"
   sodipodi:docname="go-jump-declaration (copy).svg"
   inkscape:version="1.0.2 (e86c870879, 2021-01-15)">
  <metadata
     id="metadata10">
    <rdf:RDF>
      <cc:Work
         rdf:about="">
        <dc:format>image/svg+xml</dc:format>
        <dc:type
           rdf:resource="http://purl.org/dc/dcmitype/StillImage" />
      </cc:Work>
    </rdf:RDF>
  </metadata>
  <defs
     id="defs8" />
  <sodipodi:namedview
     pagecolor="#ffffff"
     bordercolor="#666666"
     borderopacity="1"
     objecttolerance="10"
     gridtolerance="10"
     guidetolerance="10"
     inkscape:pageopacity="0"
     inkscape:pageshadow="2"
     inkscape:window-width="1908"
     inkscape:window-height="2107"
     id="namedview6"
     showgrid="false"
     inkscape:zoom="22.627417"
     inkscape:cx="5.0406618"
     inkscape:cy="17.03254"
     inkscape:window-x="1924"
     inkscape:window-y="33"
     inkscape:window-maximized="0"
     inkscape:current-layer="svg4"
     inkscape:document-rotation="0" />
  <path fill="#909090"
     d="M 20.71,6.7925 C 20.224543,10.027475 19.861359,8.3961775 21,9.9125001 V 20.0825 c 0,0.55 -0.45,1 -1,1 h -4 c -0.55,0 -1,-0.45 -1,-1 0,-0.55 0.45,-1 1,-1 h 3 V 9.9125001 C 19.609676,8.4681883 19.460229,9.4190486 19.29,6.7925 c 0.39,-0.39 1.03,-0.39 1.42,0 z"
     id="path4"
     sodipodi:nodetypes="ccssssscccc" />
  <path fill="#909090"
     d="m 19.000395,5.7725 v 9.01 c 0,0.55 0.45,1 1,1 0.55,0 1,-0.45 1,-1 v -9.01 h 1.79 c 0.45,0 0.67,-0.54 0.35,-0.85 l -2.79,-2.78 c -0.2,-0.19 -0.51,-0.19 -0.71,0 l -2.79,2.78 c -0.32,0.31 -0.09,0.85 0.35,0.85 z"
     id="path2-3"
     sodipodi:nodetypes="cssscsccccsc" />
  <path fill="#909090"
     d="m 17,16.083333 c 0,0.316666 -0.175,0.591666 -0.441667,0.733333 l -6.5833337,3.7 c -0.133333,0.1 -0.3,0.15 -0.475,0.15 -0.175,0 -0.341666,-0.05 -0.474999,-0.15 l -6.5833336,-3.7 C 2.175,16.674999 2,16.399999 2,16.083333 v -7.5 C 2,8.266666 2.175,7.991666 2.4416667,7.849999 L 9.0250003,4.15 C 9.1583333,4.05 9.3249993,4 9.4999993,4 c 0.175,0 0.341667,0.05 0.475,0.15 L 16.558333,7.849999 C 16.825,7.991666 17,8.266666 17,8.583333 v 7.5 M 9.5115263,6.228398 4.8722122,8.801776 9.4999993,11.374999 14.139314,8.801621 Z"
     id="path2-36-7"
     sodipodi:nodetypes="cccsccssccsccscccccc"
     style="stroke-width:0.833333" />
</svg>
