<?xml version="1.0" encoding="UTF-8" standalone="no"?>
<svg
   xmlns:dc="http://purl.org/dc/elements/1.1/"
   xmlns:cc="http://creativecommons.org/ns#"
   xmlns:rdf="http://www.w3.org/1999/02/22-rdf-syntax-ns#"
   xmlns:svg="http://www.w3.org/2000/svg"
   xmlns="http://www.w3.org/2000/svg"
   xmlns:sodipodi="http://sodipodi.sourceforge.net/DTD/sodipodi-0.dtd"
   xmlns:inkscape="http://www.inkscape.org/namespaces/inkscape"
   version="1.1"
   id="mdi-alert-rhombus"
   width="24"
   height="24"
   viewBox="0 0 24 24"
   sodipodi:docname="alert-rhombus.svg"
   inkscape:version="1.0.2 (e86c870879, 2021-01-15)">
  <metadata
     id="metadata9">
    <rdf:RDF>
      <cc:Work
         rdf:about="">
        <dc:format>image/svg+xml</dc:format>
        <dc:type
           rdf:resource="http://purl.org/dc/dcmitype/StillImage" />
      </cc:Work>
    </rdf:RDF>
  </metadata>
  <defs
     id="defs7" />
  <sodipodi:namedview
     pagecolor="#ffffff"
     bordercolor="#666666"
     borderopacity="1"
     objecttolerance="10"
     gridtolerance="10"
     guidetolerance="10"
     inkscape:pageopacity="0"
     inkscape:pageshadow="2"
     inkscape:window-width="1908"
     inkscape:window-height="2107"
     id="namedview5"
     showgrid="false"
     inkscape:zoom="21"
     inkscape:cx="10.913255"
     inkscape:cy="19.547491"
     inkscape:window-x="1924"
     inkscape:window-y="33"
     inkscape:window-maximized="0"
     inkscape:current-layer="mdi-alert-rhombus" />
  <path fill="#909090"
     id="path2"
     d="M 12 2 C 11.5 2 10.999844 2.1898437 10.589844 2.5898438 L 2.5898438 10.589844 C 1.7998437 11.369844 1.7998437 12.630156 2.5898438 13.410156 L 10.589844 21.410156 C 11.369844 22.200156 12.630156 22.200156 13.410156 21.410156 L 21.410156 13.410156 C 22.200156 12.630156 22.200156 11.369844 21.410156 10.589844 L 13.410156 2.5898438 C 13.000156 2.1898438 12.5 2 12 2 z M 11 7 L 15 7 L 15 9 L 11 9 L 11 11 L 13 11 C 14.104569 11 15 11.895431 15 13 L 15 15 C 15 16.104569 14.104569 17 13 17 L 9 17 L 9 15 L 13 15 L 13 13 L 11 13 C 9.8954305 13 9 12.104569 9 11 L 9 9 C 9 7.8954305 9.8954305 7 11 7 z " />
</svg>
