<?xml version="1.0" encoding="UTF-8" standalone="no"?>
<svg
   xmlns:dc="http://purl.org/dc/elements/1.1/"
   xmlns:cc="http://creativecommons.org/ns#"
   xmlns:rdf="http://www.w3.org/1999/02/22-rdf-syntax-ns#"
   xmlns:svg="http://www.w3.org/2000/svg"
   xmlns="http://www.w3.org/2000/svg"
   xmlns:sodipodi="http://sodipodi.sourceforge.net/DTD/sodipodi-0.dtd"
   xmlns:inkscape="http://www.inkscape.org/namespaces/inkscape"
   height="24"
   viewBox="0 0 24 24"
   width="24"
   version="1.1"
   id="svg4"
   sodipodi:docname="stroke-cap-round-symbolic.svg"
   inkscape:version="1.0.1 (3bc2e813f5, 2020-09-07)">
  <metadata
     id="metadata10">
    <rdf:RDF>
      <cc:Work
         rdf:about="">
        <dc:format>image/svg+xml</dc:format>
        <dc:type
           rdf:resource="http://purl.org/dc/dcmitype/StillImage" />
      </cc:Work>
    </rdf:RDF>
  </metadata>
  <defs
     id="defs8" />
  <sodipodi:namedview
     pagecolor="#ffffff"
     bordercolor="#666666"
     borderopacity="1"
     objecttolerance="10"
     gridtolerance="10"
     guidetolerance="10"
     inkscape:pageopacity="0"
     inkscape:pageshadow="2"
     inkscape:window-width="1908"
     inkscape:window-height="1022"
     id="namedview6"
     showgrid="false"
     inkscape:zoom="39.833333"
     inkscape:cx="14.655485"
     inkscape:cy="14.008368"
     inkscape:window-x="8"
     inkscape:window-y="1097"
     inkscape:window-maximized="0"
     inkscape:current-layer="svg4"
     inkscape:document-rotation="0" />
  <path fill="#909090"
     d="m 11,21 h 2 v -2 h -2 z m 0,-4 h 2 v -2 h -2 z m 0,-4 h 2 v -2 h -2 z m -7,8 c 0.55,0 1,-0.45 1,-1 V 10 C 5,9.45 4.55,9 4,9 3.45,9 3,9.45 3,10 v 10 c 0,0.55 0.45,1 1,1 z"
     id="path2"
     sodipodi:nodetypes="cccccccccccccccsssssss" />
  <path fill="#909090"
     d="m 20,21 c 0.55,0 1,-0.45 1,-1 V 9.9999999 C 21,9.45 20.55,9 20,9 19.45,9 19,9.45 19,9.9999999 V 20 c 0,0.55 0.45,1 1,1 z"
     id="path2-6"
     sodipodi:nodetypes="sssssss" />
  <path fill="#909090"
     d="m 21,7.9999997 c 0,-2.7614237 -2.238576,-5 -5,-5 h -5 v 2 h 5 c 1.656854,0 3,1.3431458 3,3 V 13 h 2 z"
     id="path2-5"
     sodipodi:nodetypes="ssccssccs" />
  <path fill="#909090"
     d="m 3,7.9999997 c 0,-2.7614237 2.238576,-5 5,-5 h 5 v 2 H 8 c -1.656854,0 -3,1.3431458 -3,3 V 13 H 3 Z"
     id="path2-5-3"
     sodipodi:nodetypes="ssccssccs" />
</svg>
