<?xml version="1.0" encoding="UTF-8" standalone="no"?>
<svg
   xmlns:dc="http://purl.org/dc/elements/1.1/"
   xmlns:cc="http://creativecommons.org/ns#"
   xmlns:rdf="http://www.w3.org/1999/02/22-rdf-syntax-ns#"
   xmlns:svg="http://www.w3.org/2000/svg"
   xmlns="http://www.w3.org/2000/svg"
   xmlns:sodipodi="http://sodipodi.sourceforge.net/DTD/sodipodi-0.dtd"
   xmlns:inkscape="http://www.inkscape.org/namespaces/inkscape"
   enable-background="new 0 0 24 24"
   height="24"
   viewBox="0 0 24 24"
   width="24"
   version="1.1"
   id="svg16"
   sodipodi:docname="network-cellular-3g-symbolic.svg"
   inkscape:version="1.0.1 (3bc2e813f5, 2020-09-07)">
  <metadata
     id="metadata22">
    <rdf:RDF>
      <cc:Work
         rdf:about="">
        <dc:format>image/svg+xml</dc:format>
        <dc:type
           rdf:resource="http://purl.org/dc/dcmitype/StillImage" />
      </cc:Work>
    </rdf:RDF>
  </metadata>
  <defs
     id="defs20" />
  <sodipodi:namedview
     pagecolor="#ffffff"
     bordercolor="#666666"
     borderopacity="1"
     objecttolerance="10"
     gridtolerance="10"
     guidetolerance="10"
     inkscape:pageopacity="0"
     inkscape:pageshadow="2"
     inkscape:window-width="948"
     inkscape:window-height="482"
     id="namedview18"
     showgrid="false"
     inkscape:zoom="36.833333"
     inkscape:cx="0.77109954"
     inkscape:cy="12.356309"
     inkscape:window-x="56"
     inkscape:window-y="50"
     inkscape:window-maximized="0"
     inkscape:current-layer="svg16"
     inkscape:document-rotation="0" />
  <g
     id="g14">
    <g
       id="g12">
      <path fill="#909090"
         d="M18,13h1v2h-5V9h6c0.55,0,1-0.45,1-1v0c0-0.55-0.45-1-1-1h-6c-1.1,0-2,0.9-2,2v6c0,1.1,0.9,2,2,2h5c1.1,0,2-0.9,2-2v-3 c0-0.55-0.45-1-1-1h-2c-0.55,0-1,0.45-1,1v0C17,12.55,17.45,13,18,13z"
         id="path8" />
      <path fill="#909090"
         d="m 4,13 h 4 v 2 H 4 c -0.55,0 -1,0.45 -1,1 v 0 c 0,0.55 0.45,1 1,1 h 4 c 1.1,0 2,-0.9 2,-2 V 13 C 10,11.9 9.1,11 8,11 l -5,1 c 0,0.55 0.45,1 1,1 z"
         id="path10"
         sodipodi:nodetypes="sccsssssssccs" />
    </g>
  </g>
  <path fill="#909090"
     d="M 4,11 H 8 V 9.0000003 H 4 c -0.55,0 -1,-0.45 -1,-1 v 0 c 0,-0.55 0.45,-1 1,-1 h 4 c 1.1,0 2,0.9 2,2 V 11 c 0,1.1 -0.9,2 -2,2 L 3,12 c 0,-0.55 0.45,-1 1,-1 z"
     id="path10-3"
     sodipodi:nodetypes="sccsssssssccs" />
</svg>
