<?xml version="1.0" encoding="UTF-8" standalone="no"?>
<svg
   xmlns:dc="http://purl.org/dc/elements/1.1/"
   xmlns:cc="http://creativecommons.org/ns#"
   xmlns:rdf="http://www.w3.org/1999/02/22-rdf-syntax-ns#"
   xmlns:svg="http://www.w3.org/2000/svg"
   xmlns="http://www.w3.org/2000/svg"
   xmlns:sodipodi="http://sodipodi.sourceforge.net/DTD/sodipodi-0.dtd"
   xmlns:inkscape="http://www.inkscape.org/namespaces/inkscape"
   enable-background="new 0 0 24 24"
   height="24"
   viewBox="0 0 24 24"
   width="24"
   version="1.1"
   id="svg8"
   sodipodi:docname="network-offline-symbolic.svg"
   inkscape:version="1.0.1 (3bc2e813f5, 2020-09-07)">
  <metadata
     id="metadata14">
    <rdf:RDF>
      <cc:Work
         rdf:about="">
        <dc:format>image/svg+xml</dc:format>
        <dc:type
           rdf:resource="http://purl.org/dc/dcmitype/StillImage" />
      </cc:Work>
    </rdf:RDF>
  </metadata>
  <defs
     id="defs12" />
  <sodipodi:namedview
     pagecolor="#ffffff"
     bordercolor="#666666"
     borderopacity="1"
     objecttolerance="10"
     gridtolerance="10"
     guidetolerance="10"
     inkscape:pageopacity="0"
     inkscape:pageshadow="2"
     inkscape:window-width="948"
     inkscape:window-height="482"
     id="namedview10"
     showgrid="false"
     inkscape:zoom="9.2083333"
     inkscape:cx="-4.4963408"
     inkscape:cy="10.795492"
     inkscape:window-x="56"
     inkscape:window-y="50"
     inkscape:window-maximized="0"
     inkscape:current-layer="svg8"
     inkscape:document-rotation="0" />
  <path fill="#909090"
     d="m 17,5.21 c 0,-0.45 0.54,-0.67 0.85,-0.35 l 2.789999,2.79 c 0.2,0.2 0.2,0.51 0,0.71 L 17.85,11.15 C 17.54,11.46 17,11.24 17,10.79 V 9 H 14 C 13.45,9 13,8.55 13,8 v 0 c 0,-0.55 0.45,-1 1,-1 h 3 z M 7,17 h 3 c 0.55,0 1,-0.45 1,-1 v 0 c 0,-0.55 -0.45,-1 -1,-1 H 7 V 13.21 C 7,12.76 6.46,12.54 6.15,12.86 l -2.79,2.79 c -0.2,0.2 -0.2,0.51 0,0.71 l 2.79,2.79 C 6.46,19.46 7,19.24 7,18.79 Z"
     id="path4-3"
     sodipodi:nodetypes="scsssscsssscscsssscscssssc" />
</svg>
