<?xml version="1.0" encoding="UTF-8" standalone="no"?>
<svg
   xmlns:dc="http://purl.org/dc/elements/1.1/"
   xmlns:cc="http://creativecommons.org/ns#"
   xmlns:rdf="http://www.w3.org/1999/02/22-rdf-syntax-ns#"
   xmlns:svg="http://www.w3.org/2000/svg"
   xmlns="http://www.w3.org/2000/svg"
   xmlns:sodipodi="http://sodipodi.sourceforge.net/DTD/sodipodi-0.dtd"
   xmlns:inkscape="http://www.inkscape.org/namespaces/inkscape"
   height="24"
   viewBox="0 0 24 24"
   width="24"
   version="1.1"
   id="svg6"
   sodipodi:docname="no-wheelchair.svg"
   inkscape:version="1.0.2 (e86c870879, 2021-01-15)">
  <metadata
     id="metadata12">
    <rdf:RDF>
      <cc:Work
         rdf:about="">
        <dc:format>image/svg+xml</dc:format>
        <dc:type
           rdf:resource="http://purl.org/dc/dcmitype/StillImage" />
      </cc:Work>
    </rdf:RDF>
  </metadata>
  <defs
     id="defs10" />
  <sodipodi:namedview
     pagecolor="#ffffff"
     bordercolor="#666666"
     borderopacity="1"
     objecttolerance="10"
     gridtolerance="10"
     guidetolerance="10"
     inkscape:pageopacity="0"
     inkscape:pageshadow="2"
     inkscape:window-width="1908"
     inkscape:window-height="1031"
     id="namedview8"
     showgrid="false"
     inkscape:zoom="21"
     inkscape:cx="5.4099023"
     inkscape:cy="12.294446"
     inkscape:window-x="1924"
     inkscape:window-y="1109"
     inkscape:window-maximized="0"
     inkscape:current-layer="svg6" />
  <path fill="#909090"
     id="circle2"
     d="M 11.951172 2 A 2 2 0 0 0 10 4 A 2 2 0 0 0 12 6 A 2 2 0 0 0 14 4 A 2 2 0 0 0 12 2 A 2 2 0 0 0 11.951172 2 z M 4.4140625 5.2167969 C 4.1590625 5.2167969 3.9059375 5.3147656 3.7109375 5.5097656 C 3.3209375 5.8997656 3.3209375 6.5299219 3.7109375 6.9199219 C 5.5334675 8.7430458 7.1253438 10.337084 8.9121094 12.125 C 6.6772451 12.619567 5 14.612123 5 17 C 5 19.76 7.24 22 10 22 C 12.387025 22 14.377583 20.323511 14.873047 18.089844 C 15.561503 18.778829 16.333015 19.549314 17 20.216797 L 17 21 C 17 21.55 17.45 22 18 22 C 18.218566 22 18.411155 21.915086 18.576172 21.794922 C 18.726916 21.945772 18.920978 22.139626 19.070312 22.289062 C 19.460313 22.679063 20.090469 22.679063 20.480469 22.289062 C 20.870469 21.899062 20.870469 21.270859 20.480469 20.880859 L 5.1191406 5.5097656 C 4.9241406 5.3147656 4.6690625 5.2167969 4.4140625 5.2167969 z M 12.091797 7.0136719 C 11.981484 7.0094531 11.8675 7.0142969 11.75 7.0292969 C 11.148415 7.1000716 10.653311 7.4536759 10.34375 7.9394531 C 11.699775 9.2942919 12.636513 10.231554 14 11.59375 L 14 11.050781 C 15 11.880781 16.400781 12.589141 17.800781 12.869141 C 18.420781 12.999141 19 12.530391 19 11.900391 C 19 11.410391 18.640156 11.009688 18.160156 10.929688 C 16.910156 10.719686 15.729687 10.049922 14.929688 9.1699219 L 13.640625 7.7402344 C 13.470625 7.5502344 13.259297 7.3990625 13.029297 7.2890625 C 13.019297 7.2890625 13.019766 7.2792969 13.009766 7.2792969 L 13 7.2792969 C 12.7225 7.1217969 12.422734 7.0263281 12.091797 7.0136719 z M 9 12.212891 C 9.3432035 12.556316 9.6592522 12.871909 10 13.212891 L 10 15 C 10 16.1 10.9 17 12 17 L 13.785156 17 C 14.113063 17.328158 14.459447 17.675995 14.783203 18 L 12.830078 18 C 12.420078 19.16 11.31 20 10 20 C 8.34 20 7 18.66 7 17 C 7 15.69 7.84 14.589922 9 14.169922 L 9 12.212891 z M 16.908203 14.5 C 17.641726 15.232827 18.327112 15.917572 19 16.589844 L 19 16.5 C 19 15.4 18.1 14.5 17 14.5 L 16.908203 14.5 z " />
</svg>
