<?xml version="1.0" encoding="UTF-8" standalone="no"?>
<svg
   xmlns:dc="http://purl.org/dc/elements/1.1/"
   xmlns:cc="http://creativecommons.org/ns#"
   xmlns:rdf="http://www.w3.org/1999/02/22-rdf-syntax-ns#"
   xmlns:svg="http://www.w3.org/2000/svg"
   xmlns="http://www.w3.org/2000/svg"
   xmlns:sodipodi="http://sodipodi.sourceforge.net/DTD/sodipodi-0.dtd"
   xmlns:inkscape="http://www.inkscape.org/namespaces/inkscape"
   version="1.1"
   width="24"
   height="24"
   viewBox="0 0 24 24"
   id="svg4"
   sodipodi:docname="libreoffice-impress.svg"
   inkscape:version="1.0.2 (e86c870879, 2021-01-15)">
  <metadata
     id="metadata10">
    <rdf:RDF>
      <cc:Work
         rdf:about="">
        <dc:format>image/svg+xml</dc:format>
        <dc:type
           rdf:resource="http://purl.org/dc/dcmitype/StillImage" />
      </cc:Work>
    </rdf:RDF>
  </metadata>
  <defs
     id="defs8" />
  <sodipodi:namedview
     pagecolor="#ffffff"
     bordercolor="#666666"
     borderopacity="1"
     objecttolerance="10"
     gridtolerance="10"
     guidetolerance="10"
     inkscape:pageopacity="0"
     inkscape:pageshadow="2"
     inkscape:window-width="1972"
     inkscape:window-height="1036"
     id="namedview6"
     showgrid="false"
     inkscape:zoom="39.833333"
     inkscape:cx="12.050209"
     inkscape:cy="12"
     inkscape:window-x="1860"
     inkscape:window-y="1084"
     inkscape:window-maximized="0"
     inkscape:current-layer="svg4" />
  <path fill="#909090"
     d="m 13.25,3.25 c 0.806667,0 1.583333,0.1033333 2.33,0.31 0.746667,0.2133333 1.443333,0.51 2.09,0.89 0.646667,0.3666667 1.236667,0.82 1.77,1.36 0.526667,0.5333333 0.98,1.1233333 1.36,1.77 0.386667,0.6466667 0.683333,1.3433333 0.89,2.09 0.206667,0.746667 0.31,1.523333 0.31,2.33 0,0.806667 -0.103333,1.583333 -0.31,2.33 -0.206667,0.746667 -0.503333,1.443333 -0.89,2.09 -0.38,0.646667 -0.833333,1.236667 -1.36,1.77 -0.533333,0.54 -1.123333,0.993333 -1.77,1.36 -0.646667,0.386667 -1.343333,0.683333 -2.09,0.89 -0.746667,0.206667 -1.523333,0.31 -2.33,0.31 -0.713333,0 -1.413333,-0.08333 -2.1,-0.25 C 10.463333,20.326667 9.8133333,20.08 9.2,19.76 8.5866667,19.433333 8.02,19.04 7.5,18.58 6.96,18.113333 6.4833333,17.586667 6.07,17 H 2.83 C 2.61,17 2.4133333,16.92 2.24,16.76 2.08,16.586667 2,16.39 2,16.17 V 7.83 C 2,7.61 2.08,7.4166667 2.24,7.25 2.4133333,7.0833333 2.61,7 2.83,7 H 6.07 C 6.4833333,6.4133333 6.96,5.8866667 7.5,5.42 8.02,4.9533333 8.5866667,4.56 9.2,4.24 9.82,3.92 10.47,3.6733333 11.15,3.5 11.836667,3.3333333 12.536667,3.25 13.25,3.25 m 0.63,1.28 v 6.84 h 6.84 C 20.64,10.456667 20.41,9.6033333 20.03,8.81 19.65,8.0166667 19.156667,7.3133333 18.55,6.7 17.943333,6.0933333 17.236667,5.6 16.43,5.22 15.63,4.84 14.78,4.61 13.88,4.53 m -6.2934384,4.19 -1.54,0 v 6.55 h 1.54 M 13.25,19.5 c 0.653333,0 1.283333,-0.08 1.89,-0.24 0.6,-0.173333 1.17,-0.4 1.71,-0.68 0.54,-0.3 1.033333,-0.66 1.48,-1.08 0.446667,-0.406667 0.836667,-0.863333 1.17,-1.37 0.333333,-0.513333 0.61,-1.066667 0.83,-1.66 0.206667,-0.593333 0.336667,-1.21 0.39,-1.85 H 12.64 V 4.53 C 11.673333,4.61 10.763333,4.8633333 9.91,5.29 9.0566667,5.7166667 8.31,6.2866667 7.67,7 h 3.5 c 0.22,0 0.416667,0.083333 0.59,0.25 C 11.92,7.4166667 12,7.61 12,7.83 v 8.34 c 0,0.22 -0.08,0.416667 -0.24,0.59 C 11.586667,16.92 11.39,17 11.17,17 h -3.5 c 0.3533333,0.4 0.7433333,0.753333 1.17,1.06 0.44,0.293333 0.89,0.553333 1.35,0.78 0.48,0.22 0.976667,0.383333 1.49,0.49 0.513333,0.113333 1.036667,0.17 1.57,0.17"
     id="path2"
     sodipodi:nodetypes="cccccssscccssccccscsscsccccccccsccccccccccccccccscscsscsccccc" />
</svg>
