<?xml version="1.0" encoding="UTF-8" standalone="no"?>
<svg
   xmlns:dc="http://purl.org/dc/elements/1.1/"
   xmlns:cc="http://creativecommons.org/ns#"
   xmlns:rdf="http://www.w3.org/1999/02/22-rdf-syntax-ns#"
   xmlns:svg="http://www.w3.org/2000/svg"
   xmlns="http://www.w3.org/2000/svg"
   xmlns:sodipodi="http://sodipodi.sourceforge.net/DTD/sodipodi-0.dtd"
   xmlns:inkscape="http://www.inkscape.org/namespaces/inkscape"
   height="24"
   viewBox="0 0 24 24"
   width="24"
   version="1.1"
   id="svg4"
   sodipodi:docname="page-3sides.svg"
   inkscape:version="1.0.2 (e86c870879, 2021-01-15)">
  <metadata
     id="metadata10">
    <rdf:RDF>
      <cc:Work
         rdf:about="">
        <dc:format>image/svg+xml</dc:format>
        <dc:type
           rdf:resource="http://purl.org/dc/dcmitype/StillImage" />
      </cc:Work>
    </rdf:RDF>
  </metadata>
  <defs
     id="defs8" />
  <sodipodi:namedview
     pagecolor="#ffffff"
     bordercolor="#666666"
     borderopacity="1"
     objecttolerance="10"
     gridtolerance="10"
     guidetolerance="10"
     inkscape:pageopacity="0"
     inkscape:pageshadow="2"
     inkscape:window-width="1908"
     inkscape:window-height="2107"
     id="namedview6"
     showgrid="false"
     inkscape:zoom="42"
     inkscape:cx="12"
     inkscape:cy="12"
     inkscape:window-x="1924"
     inkscape:window-y="33"
     inkscape:window-maximized="0"
     inkscape:current-layer="svg4" />
  <path fill="#909090"
     d="m 10.5,19 h 3 c 0.55,0 1,-0.45 1,-1 V 6 c 0,-0.55 -0.45,-1 -1,-1 h -3 c -0.55,0 -1,0.45 -1,1 v 12 c 0,0.55 0.45,1 1,1 z M 4,19 h 3 c 0.55,0 1,-0.45 1,-1 V 6 C 8,5.45 7.55,5 7,5 H 4 C 3.45,5 3,5.45 3,6 v 12 c 0,0.55 0.45,1 1,1 z M 16,6 v 12 c 0,0.55 0.45,1 1,1 h 3 c 0.55,0 1,-0.45 1,-1 V 6 C 21,5.45 20.55,5 20,5 h -3 c -0.55,0 -1,0.45 -1,1 z"
     id="path2"
     sodipodi:nodetypes="sssssssssssssssssssssssssss" />
</svg>
