<?xml version="1.0" encoding="UTF-8" standalone="no"?>
<svg
   xmlns:dc="http://purl.org/dc/elements/1.1/"
   xmlns:cc="http://creativecommons.org/ns#"
   xmlns:rdf="http://www.w3.org/1999/02/22-rdf-syntax-ns#"
   xmlns:svg="http://www.w3.org/2000/svg"
   xmlns="http://www.w3.org/2000/svg"
   xmlns:sodipodi="http://sodipodi.sourceforge.net/DTD/sodipodi-0.dtd"
   xmlns:inkscape="http://www.inkscape.org/namespaces/inkscape"
   height="24"
   viewBox="0 0 24 24"
   width="24"
   version="1.1"
   id="svg4"
   sodipodi:docname="resizerow (copy).svg"
   inkscape:version="1.0.2 (e86c870879, 2021-01-15)">
  <metadata
     id="metadata10">
    <rdf:RDF>
      <cc:Work
         rdf:about="">
        <dc:format>image/svg+xml</dc:format>
        <dc:type
           rdf:resource="http://purl.org/dc/dcmitype/StillImage" />
      </cc:Work>
    </rdf:RDF>
  </metadata>
  <defs
     id="defs8" />
  <sodipodi:namedview
     pagecolor="#ffffff"
     bordercolor="#666666"
     borderopacity="1"
     objecttolerance="10"
     gridtolerance="10"
     guidetolerance="10"
     inkscape:pageopacity="0"
     inkscape:pageshadow="2"
     inkscape:window-width="1908"
     inkscape:window-height="1031"
     id="namedview6"
     showgrid="false"
     inkscape:zoom="42"
     inkscape:cx="5.5238095"
     inkscape:cy="12"
     inkscape:window-x="8"
     inkscape:window-y="1109"
     inkscape:window-maximized="0"
     inkscape:current-layer="svg4"
     inkscape:document-rotation="0" />
  <path fill="#909090"
     d="M 4.64,9.21 V 11 h 3 c 0.55,0 1,0.45 1,1 0,0.55 -0.45,1 -1,1 h -3 v 1.79 c 0,0.45 -0.54,0.67 -0.85,0.35 L 1,12.35 C 0.8,12.15 0.8,11.84 1,11.64 L 3.79,8.85 C 4.1,8.54 4.64,8.76 4.64,9.21 Z m 14.72,5.58 V 13 h -3 c -0.55,0 -1,-0.45 -1,-1 0,-0.55 0.45,-1 1,-1 h 3 V 9.21 c 0,-0.45 0.54,-0.67 0.85,-0.36 L 23,11.64 c 0.2,0.2 0.2,0.51 0,0.71 l -2.79,2.79 c -0.31,0.32 -0.85,0.1 -0.85,-0.35 z M 12,4 c -0.55,0 -1,0.45 -1,1 v 14 c 0,0.55 0.45,1 1,1 0.55,0 1,-0.45 1,-1 V 5 C 13,4.45 12.55,4 12,4 Z"
     id="path2"
     sodipodi:nodetypes="scssscscssssscssscsssscssssssss" />
</svg>
