<?xml version="1.0" encoding="UTF-8" standalone="no"?>
<svg
   xmlns:dc="http://purl.org/dc/elements/1.1/"
   xmlns:cc="http://creativecommons.org/ns#"
   xmlns:rdf="http://www.w3.org/1999/02/22-rdf-syntax-ns#"
   xmlns:svg="http://www.w3.org/2000/svg"
   xmlns="http://www.w3.org/2000/svg"
   xmlns:sodipodi="http://sodipodi.sourceforge.net/DTD/sodipodi-0.dtd"
   xmlns:inkscape="http://www.inkscape.org/namespaces/inkscape"
   version="1.1"
   id="mdi-vector-ellipse"
   width="24"
   height="24"
   viewBox="0 0 24 24"
   sodipodi:docname="pts2ellipse.svg"
   inkscape:version="1.0.2 (e86c870879, 2021-01-15)">
  <metadata
     id="metadata9">
    <rdf:RDF>
      <cc:Work
         rdf:about="">
        <dc:format>image/svg+xml</dc:format>
        <dc:type
           rdf:resource="http://purl.org/dc/dcmitype/StillImage" />
      </cc:Work>
    </rdf:RDF>
  </metadata>
  <defs
     id="defs7" />
  <sodipodi:namedview
     pagecolor="#ffffff"
     bordercolor="#666666"
     borderopacity="1"
     objecttolerance="10"
     gridtolerance="10"
     guidetolerance="10"
     inkscape:pageopacity="0"
     inkscape:pageshadow="2"
     inkscape:window-width="1904"
     inkscape:window-height="1000"
     id="namedview5"
     showgrid="false"
     inkscape:zoom="34.907543"
     inkscape:cx="12.164882"
     inkscape:cy="11.937234"
     inkscape:window-x="26"
     inkscape:window-y="23"
     inkscape:window-maximized="0"
     inkscape:current-layer="mdi-vector-ellipse" />
  <path fill="#909090"
     id="path2"
     d="m 12,4.0116984 c -0.377067,0 -0.746432,0.024437 -1.111328,0.064453 -0.05321,0.00606 -0.105306,0.014579 -0.158203,0.021484 -0.338097,0.042528 -0.669212,0.1027812 -0.9941408,0.1777343 -0.014313,0.0034 -0.028684,0.00825 -0.042969,0.011719 C 7.153439,4.8849713 5.0581701,6.443374 3.9218748,8.4980267 h -0.021484 c -0.0445,0.0817 -0.077649,0.168729 -0.1191406,0.251953 -0.00615,0.01221 -0.011491,0.02487 -0.017578,0.03711 -0.1561587,0.317492 -0.2885899,0.644763 -0.3984375,0.982422 -0.028736,0.08738 -0.060505,0.173121 -0.085937,0.2617193 -0.035813,0.126176 -0.064751,0.254269 -0.09375,0.382812 -0.034354,0.150303 -0.063183,0.301809 -0.087891,0.455078 -0.016847,0.106351 -0.032838,0.212602 -0.044922,0.320313 -0.027712,0.240902 -0.045748,0.485577 -0.048828,0.732422 -2.086e-4,0.0224 -0.00391,0.04396 -0.00391,0.06641 0,0.0039 -6.4e-6,0.0078 0,0.01172 -6.4e-6,0.0039 0,0.0078 0,0.01172 0,0.0225 0.0037,0.04396 0.00391,0.06641 0.00309,0.246757 0.021126,0.48965 0.048828,0.730468 0.01209,0.107801 0.028061,0.213874 0.044922,0.320313 0.024707,0.153269 0.053537,0.304775 0.087891,0.455078 0.028999,0.128544 0.057937,0.256636 0.09375,0.382813 0.027305,0.09512 0.062639,0.187536 0.09375,0.28125 0.1084299,0.33007 0.2378805,0.650205 0.390625,0.960937 0.00636,0.0128 0.011143,0.0263 0.017578,0.03906 0.041492,0.08322 0.07464,0.170256 0.1191406,0.251953 h 0.021484 c 1.1362953,2.054649 3.2315642,3.615028 5.7714844,4.21289 0.014285,0.0035 0.028656,0.0064 0.042969,0.0098 0.3249293,0.07495 0.6560443,0.135204 0.9941413,0.177734 0.0529,0.0069 0.104993,0.01538 0.158203,0.02148 0.364896,0.04002 0.734261,0.06641 1.111328,0.06641 0.377067,0 0.746433,-0.0264 1.111328,-0.06641 0.05321,-0.006 0.105303,-0.01459 0.158203,-0.02148 0.338097,-0.04253 0.669212,-0.102784 0.994141,-0.177734 0.01431,-0.0034 0.02868,-0.0063 0.04297,-0.0098 2.539919,-0.597885 4.635189,-2.158238 5.771484,-4.21289 h 0.02148 c 0.0445,-0.0817 0.07765,-0.16873 0.119141,-0.251953 0.0013,-0.0026 0.0026,-0.0052 0.0039,-0.0078 0.0051,-0.01017 0.0086,-0.02106 0.01367,-0.03125 0.152745,-0.310732 0.282195,-0.630867 0.390625,-0.960937 0.03111,-0.09371 0.06644,-0.186127 0.09375,-0.28125 0.03581,-0.126177 0.06475,-0.254269 0.09375,-0.382813 0.03435,-0.150303 0.06318,-0.301809 0.08789,-0.455078 0.01686,-0.106439 0.03283,-0.212512 0.04492,-0.320313 0.0277,-0.240818 0.04574,-0.483711 0.04883,-0.730468 2.09e-4,-0.02245 0.0039,-0.04391 0.0039,-0.06641 0,-0.0039 6e-6,-0.0078 0,-0.01172 6e-6,-0.0039 0,-0.0078 0,-0.01172 0,-0.02245 -0.0037,-0.04401 -0.0039,-0.06641 -0.0031,-0.246845 -0.02112,-0.49152 -0.04883,-0.732422 -0.01208,-0.107711 -0.02807,-0.213962 -0.04492,-0.320313 -0.02471,-0.153269 -0.05354,-0.304775 -0.08789,-0.455078 -0.029,-0.128543 -0.05794,-0.256636 -0.09375,-0.382812 -0.02543,-0.0886 -0.0572,-0.1743424 -0.08594,-0.2617194 -0.109848,-0.337659 -0.242279,-0.66493 -0.398438,-0.982422 -0.0048,-0.0097 -0.0089,-0.01964 -0.01367,-0.0293 -0.0013,-0.0026 -0.0026,-0.0052 -0.0039,-0.0078 -0.04149,-0.08322 -0.07464,-0.170257 -0.119141,-0.251953 h -0.02148 C 18.94183,6.443374 16.846561,4.8849741 14.306641,4.287089 14.292351,4.283629 14.277981,4.278779 14.263671,4.27537 13.938742,4.200417 13.607627,4.1401636 13.26953,4.0976357 13.21663,4.0907357 13.164537,4.0822107 13.111327,4.0761517 12.746433,4.0361389 12.377067,4.0116984 12,4.0116984 Z m 0,2 c 0.381132,0 0.752966,0.031421 1.117188,0.082031 0.0474,0.00653 0.09551,0.010238 0.142578,0.017578 0.358572,0.056409 0.70783,0.1367164 1.044922,0.2382812 0.03268,0.00978 0.0652,0.01912 0.09766,0.029297 0.712685,0.2250902 1.371987,0.5440279 1.955078,0.9433593 v -0.00391 c 0.538408,0.3679229 1.004196,0.808894 1.396484,1.294922 0.147809,0.184294 0.285998,0.374344 0.410156,0.572266 0.02519,0.04017 0.05398,0.07842 0.07813,0.11914 0.143471,0.241597 0.266081,0.493225 0.371093,0.751953 0.03125,0.07745 0.05443,0.157474 0.08203,0.236328 0.06701,0.190263 0.123339,0.384309 0.167969,0.582032 0.02011,0.08944 0.04124,0.178723 0.05664,0.269531 0.04386,0.258895 0.07137,0.522167 0.07422,0.791016 3.2e-4,0.02173 0.0058,0.04266 0.0059,0.06445 -4.9e-5,0.02185 -0.0055,0.04266 -0.0059,0.06445 -0.0029,0.268732 -0.03039,0.530274 -0.07422,0.789062 -0.0154,0.09081 -0.03653,0.180092 -0.05664,0.269532 -0.04463,0.197722 -0.100962,0.391768 -0.167969,0.582031 -0.0276,0.07885 -0.05078,0.158874 -0.08203,0.236328 -0.105231,0.259269 -0.227246,0.511843 -0.371093,0.753906 -0.02217,0.03737 -0.04921,0.07246 -0.07227,0.109375 -0.12725,0.203595 -0.269646,0.39869 -0.421875,0.587891 -0.391215,0.483278 -0.854729,0.920903 -1.390625,1.287109 v -0.0039 c -0.583091,0.399331 -1.242393,0.718269 -1.955078,0.943359 -0.03246,0.01018 -0.06498,0.0195 -0.09766,0.0293 -0.337091,0.101565 -0.68635,0.181871 -1.044922,0.238281 -0.04707,0.0073 -0.09518,0.01108 -0.142578,0.01758 -0.364222,0.05061 -0.736056,0.08398 -1.117188,0.08398 -0.381132,0 -0.752966,-0.03337 -1.117188,-0.08398 -0.0474,-0.0065 -0.09551,-0.01028 -0.142578,-0.01758 -0.358572,-0.05641 -0.707831,-0.136716 -1.0449214,-0.238281 -0.032678,-0.0098 -0.065202,-0.01912 -0.097656,-0.0293 -0.712685,-0.22509 -1.3719868,-0.544028 -1.9550781,-0.943359 v 0.0039 C 7.1066809,16.313463 6.6431688,15.875835 6.2519532,15.392558 6.0997237,15.203357 5.9573277,15.008262 5.8300782,14.804667 5.807023,14.76775 5.7799858,14.732664 5.7578126,14.695292 5.6139654,14.453229 5.4919501,14.200655 5.3867189,13.941386 5.3554676,13.863932 5.3322895,13.783912 5.3046876,13.705058 5.2376809,13.514795 5.1813494,13.320749 5.1367189,13.123027 c -0.020108,-0.08944 -0.041237,-0.178724 -0.056641,-0.269532 -0.043829,-0.258788 -0.071366,-0.52033 -0.074219,-0.789062 -3.221e-4,-0.02179 -0.00581,-0.04261 -0.00586,-0.06445 4.92e-5,-0.02179 0.00554,-0.04272 0.00586,-0.06445 0.00285,-0.268849 0.03036,-0.532121 0.074219,-0.791016 0.015403,-0.09081 0.036533,-0.180091 0.056641,-0.269531 0.044631,-0.197723 0.100962,-0.391769 0.1679687,-0.582032 0.027602,-0.07885 0.05078,-0.158874 0.082031,-0.236328 0.1050118,-0.2587281 0.2276227,-0.5103561 0.3710937,-0.7519531 0.024144,-0.04072 0.052935,-0.07897 0.078125,-0.11914 C 5.9600964,8.987605 6.098285,8.797555 6.2460939,8.613261 6.6383824,8.127233 7.1041683,7.6882137 7.6425782,7.3202921 v 0.00391 C 8.2256695,6.9248631 8.8849714,6.6059292 9.5976563,6.380839 9.6301103,6.370662 9.6626346,6.361317 9.6953126,6.3515421 10.032403,6.2499773 10.381662,6.167717 10.740234,6.1113078 c 0.04707,-0.00734 0.09518,-0.0091 0.142578,-0.015625 C 11.247035,6.0450722 11.618868,6.0116984 12,6.0116984 Z" />
</svg>
