<?xml version="1.0" encoding="UTF-8" standalone="no"?>
<svg
   xmlns:dc="http://purl.org/dc/elements/1.1/"
   xmlns:cc="http://creativecommons.org/ns#"
   xmlns:rdf="http://www.w3.org/1999/02/22-rdf-syntax-ns#"
   xmlns:svg="http://www.w3.org/2000/svg"
   xmlns="http://www.w3.org/2000/svg"
   xmlns:sodipodi="http://sodipodi.sourceforge.net/DTD/sodipodi-0.dtd"
   xmlns:inkscape="http://www.inkscape.org/namespaces/inkscape"
   version="1.1"
   id="mdi-skew-more"
   width="24"
   height="24"
   viewBox="0 0 24 24"
   sodipodi:docname="transform-shear-right.svg"
   inkscape:version="1.0.2 (e86c870879, 2021-01-15)">
  <metadata
     id="metadata9">
    <rdf:RDF>
      <cc:Work
         rdf:about="">
        <dc:format>image/svg+xml</dc:format>
        <dc:type
           rdf:resource="http://purl.org/dc/dcmitype/StillImage" />
      </cc:Work>
    </rdf:RDF>
  </metadata>
  <defs
     id="defs7" />
  <sodipodi:namedview
     pagecolor="#ffffff"
     bordercolor="#666666"
     borderopacity="1"
     objecttolerance="10"
     gridtolerance="10"
     guidetolerance="10"
     inkscape:pageopacity="0"
     inkscape:pageshadow="2"
     inkscape:window-width="1920"
     inkscape:window-height="1011"
     id="namedview5"
     showgrid="false"
     inkscape:zoom="33.208333"
     inkscape:cx="12"
     inkscape:cy="12"
     inkscape:window-x="0"
     inkscape:window-y="0"
     inkscape:window-maximized="1"
     inkscape:current-layer="mdi-skew-more" />
  <path fill="#909090"
     id="path2"
     d="M 17.585938 2.7070312 C 17.303281 2.6573437 17 2.8692187 17 3.1992188 L 17 5 L 10 5 C 9.4499997 5 9 5.45 9 6 C 9 6.55 9.4499997 7 10 7 L 17 7 L 17 8.7890625 C 17 9.2390625 17.539609 9.460625 17.849609 9.140625 L 20.630859 6.3496094 C 20.820859 6.1496094 20.820859 5.840625 20.630859 5.640625 L 17.849609 2.8496094 C 17.772109 2.7696094 17.680156 2.7235938 17.585938 2.7070312 z M 6 9 L 3 22 L 12 22 L 15 9 L 6 9 z M 7.5898438 11 L 12.5 11 L 10.410156 20 L 5.5 20 L 7.5898438 11 z " />
</svg>
