<?xml version="1.0" encoding="UTF-8" standalone="no"?>
<svg
   enable-background="new 0 0 24 24"
   height="24px"
   viewBox="0 0 24 24"
   width="24px"
   fill="#000000"
   version="1.1"
   id="svg10"
   sodipodi:docname="circle_notifications_black_24dp.svg"
   inkscape:version="1.1 (c68e22c387, 2021-05-23)"
   xmlns:inkscape="http://www.inkscape.org/namespaces/inkscape"
   xmlns:sodipodi="http://sodipodi.sourceforge.net/DTD/sodipodi-0.dtd"
   xmlns="http://www.w3.org/2000/svg"
   xmlns:svg="http://www.w3.org/2000/svg">
  <defs
     id="defs14" />
  <sodipodi:namedview
     id="namedview12"
     pagecolor="#ffffff"
     bordercolor="#666666"
     borderopacity="1.0"
     inkscape:pageshadow="2"
     inkscape:pageopacity="0.0"
     inkscape:pagecheckerboard="0"
     showgrid="false"
     inkscape:zoom="37.458333"
     inkscape:cx="11.946607"
     inkscape:cy="12"
     inkscape:window-width="1908"
     inkscape:window-height="1017"
     inkscape:window-x="5764"
     inkscape:window-y="1097"
     inkscape:window-maximized="0"
     inkscape:current-layer="svg10" />
  <circle
     style="fill:#ffffff;fill-opacity:1;stroke-width:0.5;stroke-linecap:round"
     id="path1049"
     cx="12"
     cy="12"
     r="8.0402222" />
  <g
     id="g8"
     style="fill:#ffd180;fill-opacity:1">
    <path
       d="M12,2C6.48,2,2,6.48,2,12s4.48,10,10,10s10-4.48,10-10S17.52,2,12,2z M12,18.5c-0.83,0-1.5-0.67-1.5-1.5h3 C13.5,17.83,12.83,18.5,12,18.5z M16,16H8c-0.55,0-1-0.45-1-1v0c0-0.55,0.45-1,1-1l0-3c0-1.86,1.28-3.41,3-3.86V6.5 c0-0.55,0.45-1,1-1s1,0.45,1,1v0.64c1.72,0.45,3,2,3,3.86l0,3c0.55,0,1,0.45,1,1v0C17,15.55,16.55,16,16,16z"
       id="path6"
       style="fill:#ffd180;fill-opacity:1" />
  </g>
</svg>
