<?xml version="1.0" encoding="UTF-8" standalone="no"?>
<svg
   xmlns:dc="http://purl.org/dc/elements/1.1/"
   xmlns:cc="http://creativecommons.org/ns#"
   xmlns:rdf="http://www.w3.org/1999/02/22-rdf-syntax-ns#"
   xmlns:svg="http://www.w3.org/2000/svg"
   xmlns="http://www.w3.org/2000/svg"
   xmlns:sodipodi="http://sodipodi.sourceforge.net/DTD/sodipodi-0.dtd"
   xmlns:inkscape="http://www.inkscape.org/namespaces/inkscape"
   height="24"
   viewBox="0 0 24 24"
   width="24"
   version="1.1"
   id="svg4"
   sodipodi:docname="security-high.svg"
   inkscape:version="1.0.2 (e86c870879, 2021-01-15)">
  <metadata
     id="metadata10">
    <rdf:RDF>
      <cc:Work
         rdf:about="">
        <dc:format>image/svg+xml</dc:format>
        <dc:type
           rdf:resource="http://purl.org/dc/dcmitype/StillImage" />
      </cc:Work>
    </rdf:RDF>
  </metadata>
  <defs
     id="defs8" />
  <sodipodi:namedview
     pagecolor="#ffffff"
     bordercolor="#666666"
     borderopacity="1"
     objecttolerance="10"
     gridtolerance="10"
     guidetolerance="10"
     inkscape:pageopacity="0"
     inkscape:pageshadow="2"
     inkscape:window-width="1904"
     inkscape:window-height="1000"
     id="namedview6"
     showgrid="false"
     inkscape:zoom="33.208333"
     inkscape:cx="12"
     inkscape:cy="12"
     inkscape:window-x="26"
     inkscape:window-y="23"
     inkscape:window-maximized="0"
     inkscape:current-layer="svg4" />
  <ellipse
     style="fill:#ffffff;fill-opacity:1;fill-rule:evenodd;stroke-width:1.00157;stroke-linecap:round"
     id="path844"
     cx="12.025114"
     cy="11.541307"
     rx="7.7582536"
     ry="5.8594928" />
  <path
     d="M11.19 1.36l-7 3.11C3.47 4.79 3 5.51 3 6.3V11c0 5.55 3.84 10.74 9 12 5.16-1.26 9-6.45 9-12V6.3c0-.79-.47-1.51-1.19-1.83l-7-3.11c-.51-.23-1.11-.23-1.62 0zm-1.9 14.93L6.7 13.7c-.39-.39-.39-1.02 0-1.41.39-.39 1.02-.39 1.41 0L10 14.17l5.88-5.88c.39-.39 1.02-.39 1.41 0 .39.39.39 1.02 0 1.41l-6.59 6.59c-.38.39-1.02.39-1.41 0z"
     id="path2"
     style="fill:#ff8a80;fill-opacity:1" />
</svg>
