<?xml version="1.0" encoding="UTF-8" standalone="no"?>
<svg
   height="24"
   viewBox="0 0 24 24"
   width="24"
   version="1.1"
   id="svg4"
   sodipodi:docname="emblem-insync-synced.svg"
   inkscape:version="1.1 (c68e22c387, 2021-05-23)"
   xmlns:inkscape="http://www.inkscape.org/namespaces/inkscape"
   xmlns:sodipodi="http://sodipodi.sourceforge.net/DTD/sodipodi-0.dtd"
   xmlns="http://www.w3.org/2000/svg"
   xmlns:svg="http://www.w3.org/2000/svg"
   xmlns:rdf="http://www.w3.org/1999/02/22-rdf-syntax-ns#"
   xmlns:cc="http://creativecommons.org/ns#"
   xmlns:dc="http://purl.org/dc/elements/1.1/">
  <metadata
     id="metadata10">
    <rdf:RDF>
      <cc:Work
         rdf:about="">
        <dc:format>image/svg+xml</dc:format>
        <dc:type
           rdf:resource="http://purl.org/dc/dcmitype/StillImage" />
      </cc:Work>
    </rdf:RDF>
  </metadata>
  <defs
     id="defs8" />
  <sodipodi:namedview
     pagecolor="#ffffff"
     bordercolor="#666666"
     borderopacity="1"
     objecttolerance="10"
     gridtolerance="10"
     guidetolerance="10"
     inkscape:pageopacity="0"
     inkscape:pageshadow="2"
     inkscape:window-width="1908"
     inkscape:window-height="1031"
     id="namedview6"
     showgrid="false"
     inkscape:zoom="39.833333"
     inkscape:cx="3.5020921"
     inkscape:cy="11.987448"
     inkscape:window-x="8"
     inkscape:window-y="1084"
     inkscape:window-maximized="0"
     inkscape:current-layer="svg4"
     inkscape:document-rotation="0"
     inkscape:pagecheckerboard="0" />
  <path
     d="M 12,2 C 6.48,2 2,6.48 2,12 2,17.52 6.48,22 12,22 17.52,22 22,17.52 22,12 22,6.48 17.52,2 12,2 Z"
     id="path2"
     style="fill:#90a4ae;fill-opacity:1"
     sodipodi:nodetypes="sssss" />
  <path
     d="M 11.591519,6.5869914 8.0614326,8.1553582 C 7.6983381,8.3167335 7.461318,8.6798281 7.461318,9.0782235 v 2.3702005 c 0,2.798854 1.9365043,5.41616 4.538682,6.051576 2.602178,-0.635416 4.538682,-3.252722 4.538682,-6.051576 V 9.0782235 c 0,-0.3983954 -0.23702,-0.76149 -0.600115,-0.9228653 L 12.408481,6.5869914 c -0.257192,-0.1159885 -0.55977,-0.1159885 -0.816962,0 z M 12,11.947679 h 3.530086 C 15.262808,14.025387 13.875989,15.87616 12,16.456103 V 11.952722 H 8.469914 V 9.0782235 L 12,7.5098567 Z"
     id="path2-5"
     style="fill:#ffffff;fill-opacity:1;stroke-width:0.504298" />
</svg>
