<?xml version="1.0" encoding="UTF-8" standalone="no"?>
<svg
   xmlns:dc="http://purl.org/dc/elements/1.1/"
   xmlns:cc="http://creativecommons.org/ns#"
   xmlns:rdf="http://www.w3.org/1999/02/22-rdf-syntax-ns#"
   xmlns:svg="http://www.w3.org/2000/svg"
   xmlns="http://www.w3.org/2000/svg"
   xmlns:sodipodi="http://sodipodi.sourceforge.net/DTD/sodipodi-0.dtd"
   xmlns:inkscape="http://www.inkscape.org/namespaces/inkscape"
   version="1.1"
   id="mdi-share-circle"
   width="24"
   height="24"
   viewBox="0 0 24 24"
   sodipodi:docname="software-update-available.svg"
   inkscape:version="1.0.2 (e86c870879, 2021-01-15)">
  <metadata
     id="metadata9">
    <rdf:RDF>
      <cc:Work
         rdf:about="">
        <dc:format>image/svg+xml</dc:format>
        <dc:type
           rdf:resource="http://purl.org/dc/dcmitype/StillImage" />
      </cc:Work>
    </rdf:RDF>
  </metadata>
  <defs
     id="defs7" />
  <sodipodi:namedview
     pagecolor="#ffffff"
     bordercolor="#666666"
     borderopacity="1"
     objecttolerance="10"
     gridtolerance="10"
     guidetolerance="10"
     inkscape:pageopacity="0"
     inkscape:pageshadow="2"
     inkscape:window-width="1904"
     inkscape:window-height="1000"
     id="namedview5"
     showgrid="false"
     inkscape:zoom="39.833333"
     inkscape:cx="6.7907947"
     inkscape:cy="12"
     inkscape:window-x="26"
     inkscape:window-y="23"
     inkscape:window-maximized="0"
     inkscape:current-layer="mdi-share-circle"
     inkscape:document-rotation="0" />
  <ellipse
     style="fill:#ffffff;fill-opacity:1"
     id="path834"
     cx="11.733901"
     cy="11.117701"
     rx="9.111475"
     ry="8.5828953" />
  <path
     d="M 12,2 C 6.5,2 2,6.5 2,12 2,17.5 6.5,22 12,22 17.5,22 22,17.5 22,12 22,6.5 17.5,2 12,2"
     id="path2"
     style="fill:#00bfa5;fill-opacity:1"
     sodipodi:nodetypes="csssc" />
  <path
     d="m 10.234974,17.546076 h 3.523415 c 0.48447,0 0.880854,-0.396385 0.880854,-0.880854 v -4.404269 h 1.400558 c 0.78396,0 1.180344,-0.951322 0.625406,-1.50626 L 12.622088,6.7115743 c -0.343533,-0.343533 -0.898471,-0.343533 -1.242004,0 L 7.3369649,10.754693 c -0.5549379,0.554938 -0.1673623,1.50626 0.6165977,1.50626 h 1.4005575 v 4.404269 c 0,0.484469 0.3963842,0.880854 0.8808539,0.880854 z"
     id="path2-3"
     sodipodi:nodetypes="ssscsssssscss"
     style="fill:#ffffff;fill-opacity:1;stroke-width:0.880854" />
</svg>
