<?xml version="1.0" encoding="UTF-8" standalone="no"?>
<svg
   version="1.1"
   id="mdi-share-circle"
   width="24"
   height="24"
   viewBox="0 0 24 24"
   sodipodi:docname="software-update-available.svg"
   inkscape:version="1.1 (c68e22c387, 2021-05-23)"
   xmlns:inkscape="http://www.inkscape.org/namespaces/inkscape"
   xmlns:sodipodi="http://sodipodi.sourceforge.net/DTD/sodipodi-0.dtd"
   xmlns="http://www.w3.org/2000/svg"
   xmlns:svg="http://www.w3.org/2000/svg"
   xmlns:rdf="http://www.w3.org/1999/02/22-rdf-syntax-ns#"
   xmlns:cc="http://creativecommons.org/ns#"
   xmlns:dc="http://purl.org/dc/elements/1.1/">
  <metadata
     id="metadata9">
    <rdf:RDF>
      <cc:Work
         rdf:about="">
        <dc:format>image/svg+xml</dc:format>
        <dc:type
           rdf:resource="http://purl.org/dc/dcmitype/StillImage" />
      </cc:Work>
    </rdf:RDF>
  </metadata>
  <defs
     id="defs7" />
  <sodipodi:namedview
     pagecolor="#ffffff"
     bordercolor="#666666"
     borderopacity="1"
     objecttolerance="10"
     gridtolerance="10"
     guidetolerance="10"
     inkscape:pageopacity="0"
     inkscape:pageshadow="2"
     inkscape:window-width="3824"
     inkscape:window-height="2107"
     id="namedview5"
     showgrid="false"
     inkscape:zoom="39.833333"
     inkscape:cx="6.7405858"
     inkscape:cy="11.987448"
     inkscape:window-x="8"
     inkscape:window-y="8"
     inkscape:window-maximized="0"
     inkscape:current-layer="mdi-share-circle"
     inkscape:document-rotation="0"
     inkscape:pagecheckerboard="0" />
  <ellipse
     style="fill:#ffffff;fill-opacity:1"
     id="path834"
     cx="11.733901"
     cy="11.117701"
     rx="9.111475"
     ry="8.5828953" />
  <path
     d="M 12,2 C 6.5,2 2,6.5 2,12 2,17.5 6.5,22 12,22 17.5,22 22,17.5 22,12 22,6.5 17.5,2 12,2"
     id="path2"
     style="fill:#00bfa5;fill-opacity:1"
     sodipodi:nodetypes="csssc" />
  <path
     d="m 10.408761,17 h 3.176494 c 0.436769,0 0.794123,-0.357357 0.794123,-0.794124 v -3.970618 h 1.262658 c 0.70677,0 1.064125,-0.857653 0.563827,-1.357951 L 12.560837,7.2322809 c -0.309708,-0.3097082 -0.810007,-0.3097082 -1.119715,0 L 7.796095,10.877307 c -0.5002978,0.500298 -0.1508835,1.357951 0.5558865,1.357951 h 1.2626563 v 3.970618 C 9.6146378,16.642643 9.9719933,17 10.408761,17 Z"
     id="path2-3"
     sodipodi:nodetypes="ssscsssssscss"
     style="fill:#ffffff;fill-opacity:1;stroke-width:0.794124" />
</svg>
