<?xml version="1.0" encoding="UTF-8" standalone="no"?>
<svg
   height="24px"
   viewBox="0 0 24 24"
   width="24px"
   fill="#000000"
   version="1.1"
   id="svg4"
   sodipodi:docname="stock_view-details.svg"
   inkscape:version="1.1 (c68e22c387, 2021-05-23)"
   xmlns:inkscape="http://www.inkscape.org/namespaces/inkscape"
   xmlns:sodipodi="http://sodipodi.sourceforge.net/DTD/sodipodi-0.dtd"
   xmlns="http://www.w3.org/2000/svg"
   xmlns:svg="http://www.w3.org/2000/svg">
  <defs
     id="defs8" />
  <sodipodi:namedview
     id="namedview6"
     pagecolor="#ffffff"
     bordercolor="#666666"
     borderopacity="1.0"
     inkscape:pageshadow="2"
     inkscape:pageopacity="0.0"
     inkscape:pagecheckerboard="0"
     showgrid="false"
     inkscape:zoom="37.458333"
     inkscape:cx="11.893215"
     inkscape:cy="9.8642937"
     inkscape:window-width="3824"
     inkscape:window-height="2107"
     inkscape:window-x="8"
     inkscape:window-y="8"
     inkscape:window-maximized="0"
     inkscape:current-layer="svg4" />
  <ellipse
     style="opacity:1;fill:#ffffff;fill-opacity:1;stroke-width:0.5;stroke-linecap:round"
     id="path1415"
     cx="12"
     cy="-11.999758"
     rx="5.8024497"
     ry="9.3885612"
     transform="scale(1,-1)" />
  <path
     id="path2"
     d="M 11.871094,21.999758 C 6.4105501,21.930513 2,17.476633 2,11.999758 2,6.4797577 6.48,1.9997577 12,1.9997577 c 5.52,0 10,4.48 10,10.0000003 0,5.52 -4.48,10 -10,10 -0.04312,0 -0.08591,5.45e-4 -0.128906,0 z"
     style="fill:#82b1ff;fill-opacity:1"
     sodipodi:nodetypes="cssssc" />
  <path
     d="M 12.797146,6.999999 A 0.93724359,0.93724359 0 0 0 11.859903,7.937242 0.93724359,0.93724359 0 0 0 12.797146,8.874486 0.93724359,0.93724359 0 0 0 13.73439,7.937242 0.93724359,0.93724359 0 0 0 12.797146,6.999999 m -0.224938,2.980434 c -0.743546,0.06248 -2.7742414,1.68079 -2.7742414,1.68079 -0.1249655,0.09372 -0.08748,0.08748 0.0125,0.262428 0.09998,0.168704 0.08748,0.181201 0.2061944,0.09998 0.124966,-0.08123 0.33116,-0.212442 0.674815,-0.424883 1.324638,-0.849768 0.212442,1.112195 -0.356152,4.41754 -0.224938,1.637053 1.249658,0.793534 1.630804,0.543602 0.374897,-0.243683 1.380872,-0.937244 1.480845,-1.005975 0.137462,-0.09372 0.03749,-0.168704 -0.06873,-0.324911 -0.07498,-0.106221 -0.149958,-0.03125 -0.149958,-0.03125 -0.406139,0.268678 -1.149685,0.831023 -1.249659,0.47487 -0.118717,-0.356152 0.643574,-2.799233 1.06221,-4.480024 0.06873,-0.399891 0.25618,-1.274651 -0.468622,-1.212168 z"
     id="path2-3"
     style="fill:#fefefe;fill-opacity:1;stroke-width:0.624829" />
</svg>
