<?xml version="1.0" encoding="UTF-8" standalone="no"?>
<svg
   enable-background="new 0 0 24 24"
   height="24"
   viewBox="0 0 24 24"
   width="24"
   version="1.1"
   id="svg6"
   sodipodi:docname="timepp-question.svg"
   inkscape:version="1.1 (c68e22c387, 2021-05-23)"
   xmlns:inkscape="http://www.inkscape.org/namespaces/inkscape"
   xmlns:sodipodi="http://sodipodi.sourceforge.net/DTD/sodipodi-0.dtd"
   xmlns="http://www.w3.org/2000/svg"
   xmlns:svg="http://www.w3.org/2000/svg">
  <defs
     id="defs10" />
  <sodipodi:namedview
     id="namedview8"
     pagecolor="#ffffff"
     bordercolor="#666666"
     borderopacity="1.0"
     inkscape:pageshadow="2"
     inkscape:pageopacity="0.0"
     inkscape:pagecheckerboard="0"
     showgrid="false"
     inkscape:zoom="64"
     inkscape:cx="16.070312"
     inkscape:cy="12.765625"
     inkscape:window-width="3824"
     inkscape:window-height="2080"
     inkscape:window-x="3848"
     inkscape:window-y="35"
     inkscape:window-maximized="0"
     inkscape:current-layer="svg6" />
  <path fill="#484848"
     id="path2"
     style="stroke-width:1.33333"
     d="M 11.972656 4 C 10.212656 4 8.8523958 4.8660677 8.0390625 6.0527344 C 7.6123959 6.6660677 7.8655989 7.5207812 8.5722656 7.8007812 C 9.1189322 8.0274479 9.7057288 7.8003125 10.039062 7.3203125 C 10.425728 6.7469792 11.05138 6.2675781 11.998047 6.2675781 C 14.158046 6.2675781 14.584219 8.2930469 13.824219 9.3730469 C 13.104219 10.399713 11.86427 11.093906 11.210938 12.253906 C 10.957605 12.70724 10.8525 13.173619 10.8125 13.626953 C 10.745833 14.320286 11.291042 14.90625 11.984375 14.90625 L 12.064453 14.90625 C 12.664453 14.90625 13.198955 14.467187 13.265625 13.867188 C 13.305625 13.453853 13.384245 13.267344 13.517578 13.027344 C 14.037578 12.080677 14.998385 11.612813 16.011719 10.132812 C 16.918382 8.7861462 16.571042 6.9873437 15.984375 6.0273438 C 15.291042 4.8940104 13.945989 4 11.972656 4 z M 12.005859 16.826172 C 11.169206 16.826172 10.5 17.471708 10.5 18.320312 C 10.5 19.156966 11.169205 19.826172 12.005859 19.826172 C 12.854465 19.826172 13.488 19.145014 13.5 18.320312 C 13.5 17.471707 12.854465 16.826172 12.005859 16.826172 z " />
</svg>
