<?xml version="1.0" encoding="UTF-8" standalone="no"?>
<svg
   xmlns:dc="http://purl.org/dc/elements/1.1/"
   xmlns:cc="http://creativecommons.org/ns#"
   xmlns:rdf="http://www.w3.org/1999/02/22-rdf-syntax-ns#"
   xmlns:svg="http://www.w3.org/2000/svg"
   xmlns="http://www.w3.org/2000/svg"
   xmlns:sodipodi="http://sodipodi.sourceforge.net/DTD/sodipodi-0.dtd"
   xmlns:inkscape="http://www.inkscape.org/namespaces/inkscape"
   version="1.1"
   viewBox="0 0 24 24"
   id="svg4"
   sodipodi:docname="text-x-c-symbolic.svg"
   inkscape:version="1.0.1 (3bc2e813f5, 2020-09-07)">
  <metadata
     id="metadata10">
    <rdf:RDF>
      <cc:Work
         rdf:about="">
        <dc:format>image/svg+xml</dc:format>
        <dc:type
           rdf:resource="http://purl.org/dc/dcmitype/StillImage" />
      </cc:Work>
    </rdf:RDF>
  </metadata>
  <defs
     id="defs8" />
  <sodipodi:namedview
     pagecolor="#ffffff"
     bordercolor="#666666"
     borderopacity="1"
     objecttolerance="10"
     gridtolerance="10"
     guidetolerance="10"
     inkscape:pageopacity="0"
     inkscape:pageshadow="2"
     inkscape:window-width="948"
     inkscape:window-height="1000"
     id="namedview6"
     showgrid="false"
     inkscape:zoom="33.208333"
     inkscape:cx="12"
     inkscape:cy="12"
     inkscape:window-x="26"
     inkscape:window-y="23"
     inkscape:window-maximized="0"
     inkscape:current-layer="svg4" />
  <path fill="#484848"
     d="m16.45 15.97.42 2.44c-.26.14-.68.27-1.24.39-.57.13-1.24.2-2.01.2-2.21-.04-3.87-.7-4.98-1.96-1.14-1.27-1.68-2.88-1.68-4.83.04-2.31.72-4.08 2.04-5.32 1.28-1.25 2.92-1.89 4.9-1.89.75 0 1.4.07 1.94.19s.94.25 1.2.4l-.6 2.49-1.04-.34c-.4-.1-.87-.15-1.4-.15-1.15-.01-2.11.36-2.86 1.1-.76.73-1.14 1.85-1.18 3.34.01 1.36.37 2.42 1.08 3.2.71.77 1.7 1.17 2.99 1.18l1.33-.12c.43-.08.79-.19 1.09-.32z"
     style="fill:#484848;fill-opacity:1"
     id="path2" />
</svg>
