<?xml version="1.0" encoding="UTF-8" standalone="no"?>
<svg
   xmlns:dc="http://purl.org/dc/elements/1.1/"
   xmlns:cc="http://creativecommons.org/ns#"
   xmlns:rdf="http://www.w3.org/1999/02/22-rdf-syntax-ns#"
   xmlns:svg="http://www.w3.org/2000/svg"
   xmlns="http://www.w3.org/2000/svg"
   xmlns:sodipodi="http://sodipodi.sourceforge.net/DTD/sodipodi-0.dtd"
   xmlns:inkscape="http://www.inkscape.org/namespaces/inkscape"
   enable-background="new 0 0 24 24"
   height="24"
   viewBox="0 0 24 24"
   width="24"
   version="1.1"
   id="svg4"
   sodipodi:docname="align-horizontal-bottom-out (3rd copy).svg"
   inkscape:version="1.0.2 (e86c870879, 2021-01-15)">
  <metadata
     id="metadata10">
    <rdf:RDF>
      <cc:Work
         rdf:about="">
        <dc:format>image/svg+xml</dc:format>
        <dc:type
           rdf:resource="http://purl.org/dc/dcmitype/StillImage" />
      </cc:Work>
    </rdf:RDF>
  </metadata>
  <defs
     id="defs8" />
  <sodipodi:namedview
     pagecolor="#ffffff"
     bordercolor="#666666"
     borderopacity="1"
     objecttolerance="10"
     gridtolerance="10"
     guidetolerance="10"
     inkscape:pageopacity="0"
     inkscape:pageshadow="2"
     inkscape:window-width="3824"
     inkscape:window-height="2107"
     id="namedview6"
     showgrid="false"
     inkscape:zoom="42"
     inkscape:cx="5.5238095"
     inkscape:cy="12"
     inkscape:window-x="8"
     inkscape:window-y="33"
     inkscape:window-maximized="0"
     inkscape:current-layer="svg4"
     inkscape:document-rotation="0" />
  <path fill="#ffffff"
     id="path2"
     d="m 22,15.5 c 0,0.83 -0.67,1.5 -1.5,1.5 h -7 -2 C 10.67,17 10,16.33 10,15.5 10,14.67 10.67,14 11.5,14 h 7 2 c 0.83,0 1.5,0.67 1.5,1.5 z m -6,-7 C 16,9.33 15.33,10 14.5,10 H 10.5 8 V 21 C 8,21.55 7.55,22 7,22 6.45,22 6,21.55 6,21 V 10 H 3.5 C 2.67,10 2,9.33 2,8.5 2,7.67 2.67,7 3.5,7 H 6 V 3 C 6,2.45 6.45,2 7,2 7.55,2 8,2.45 8,3 v 4 h 2.5 4 C 15.33,7 16,7.67 16,8.5 Z" />
</svg>
