<?xml version="1.0" encoding="UTF-8" standalone="no"?>
<svg
   xmlns:dc="http://purl.org/dc/elements/1.1/"
   xmlns:cc="http://creativecommons.org/ns#"
   xmlns:rdf="http://www.w3.org/1999/02/22-rdf-syntax-ns#"
   xmlns:svg="http://www.w3.org/2000/svg"
   xmlns="http://www.w3.org/2000/svg"
   xmlns:sodipodi="http://sodipodi.sourceforge.net/DTD/sodipodi-0.dtd"
   xmlns:inkscape="http://www.inkscape.org/namespaces/inkscape"
   enable-background="new 0 0 24 24"
   height="24"
   viewBox="0 0 24 24"
   width="24"
   version="1.1"
   id="svg4"
   sodipodi:docname="align-horizontal-bottom-out (another copy).svg"
   inkscape:version="1.0.2 (e86c870879, 2021-01-15)">
  <metadata
     id="metadata10">
    <rdf:RDF>
      <cc:Work
         rdf:about="">
        <dc:format>image/svg+xml</dc:format>
        <dc:type
           rdf:resource="http://purl.org/dc/dcmitype/StillImage" />
      </cc:Work>
    </rdf:RDF>
  </metadata>
  <defs
     id="defs8" />
  <sodipodi:namedview
     pagecolor="#ffffff"
     bordercolor="#666666"
     borderopacity="1"
     objecttolerance="10"
     gridtolerance="10"
     guidetolerance="10"
     inkscape:pageopacity="0"
     inkscape:pageshadow="2"
     inkscape:window-width="3824"
     inkscape:window-height="2107"
     id="namedview6"
     showgrid="false"
     inkscape:zoom="42"
     inkscape:cx="5.5238095"
     inkscape:cy="12"
     inkscape:window-x="8"
     inkscape:window-y="33"
     inkscape:window-maximized="0"
     inkscape:current-layer="svg4"
     inkscape:document-rotation="0" />
  <path fill="#ffffff"
     id="path2"
     d="M 2,15.5 C 2,16.33 2.67,17 3.5,17 h 7 2 C 13.33,17 14,16.33 14,15.5 14,14.67 13.33,14 12.5,14 h -7 -2 C 2.67,14 2,14.67 2,15.5 Z m 6,-7 C 8,9.33 8.67,10 9.5,10 h 4 2.5 v 11 c 0,0.55 0.45,1 1,1 0.55,0 1,-0.45 1,-1 V 10 h 2.5 C 21.33,10 22,9.33 22,8.5 22,7.67 21.33,7 20.5,7 H 18 V 3 C 18,2.45 17.55,2 17,2 16.45,2 16,2.45 16,3 v 4 h -2.5 -4 C 8.67,7 8,7.67 8,8.5 Z" />
</svg>
