<?xml version="1.0" encoding="UTF-8" standalone="no"?>
<svg
   xmlns:dc="http://purl.org/dc/elements/1.1/"
   xmlns:cc="http://creativecommons.org/ns#"
   xmlns:rdf="http://www.w3.org/1999/02/22-rdf-syntax-ns#"
   xmlns:svg="http://www.w3.org/2000/svg"
   xmlns="http://www.w3.org/2000/svg"
   xmlns:sodipodi="http://sodipodi.sourceforge.net/DTD/sodipodi-0.dtd"
   xmlns:inkscape="http://www.inkscape.org/namespaces/inkscape"
   height="24"
   viewBox="0 0 24 24"
   width="24"
   version="1.1"
   id="svg4"
   sodipodi:docname="amarok_cart_add (copy).svg"
   inkscape:version="1.0.1 (3bc2e813f5, 2020-09-07)">
  <metadata
     id="metadata10">
    <rdf:RDF>
      <cc:Work
         rdf:about="">
        <dc:format>image/svg+xml</dc:format>
        <dc:type
           rdf:resource="http://purl.org/dc/dcmitype/StillImage" />
      </cc:Work>
    </rdf:RDF>
  </metadata>
  <defs
     id="defs8" />
  <sodipodi:namedview
     pagecolor="#ffffff"
     bordercolor="#666666"
     borderopacity="1"
     objecttolerance="10"
     gridtolerance="10"
     guidetolerance="10"
     inkscape:pageopacity="0"
     inkscape:pageshadow="2"
     inkscape:window-width="1904"
     inkscape:window-height="1004"
     id="namedview6"
     showgrid="false"
     inkscape:zoom="31"
     inkscape:cx="12.064516"
     inkscape:cy="12"
     inkscape:window-x="56"
     inkscape:window-y="50"
     inkscape:window-maximized="0"
     inkscape:current-layer="svg4" />
  <path fill="#ffffff"
     d="m 13,6 h 2 C 15.55,6 16,5.55 16,5 16,4.45 15.55,4 15,4 H 13 11 9 C 8.45,4 8,4.45 8,5 8,5.55 8.45,6 9,6 h 2 z M 7,18 c -1.1,0 -1.99,0.9 -1.99,2 0,1.1 0.89,2 1.99,2 1.1,0 2,-0.9 2,-2 0,-1.1 -0.9,-2 -2,-2 z m 10,0 c -1.1,0 -1.99,0.9 -1.99,2 0,1.1 0.89,2 1.99,2 1.1,0 2,-0.9 2,-2 0,-1.1 -0.9,-2 -2,-2 z M 8.1,13 h 7.45 c 0.75,0 1.41,-0.41 1.75,-1.03 L 20.68,5.84 C 20.95,5.36 20.77,4.75 20.29,4.48 19.81,4.22 19.2,4.39 18.94,4.87 L 15.55,11 H 8.53 L 4.54,2.57 C 4.38,2.22 4.02,2 3.64,2 H 2 C 1.45,2 1,2.45 1,3 1,3.55 1.45,4 2,4 h 1 l 3.6,7.59 -1.35,2.44 C 4.52,15.37 5.48,17 7,17 h 11 c 0.55,0 1,-0.45 1,-1 0,-0.55 -0.45,-1 -1,-1 H 7 Z"
     id="path2"
     sodipodi:nodetypes="csssccsssccsssssssssscscccccccsssscccsssscc" />
</svg>
