<?xml version="1.0" encoding="UTF-8" standalone="no"?>
<svg
   xmlns:dc="http://purl.org/dc/elements/1.1/"
   xmlns:cc="http://creativecommons.org/ns#"
   xmlns:rdf="http://www.w3.org/1999/02/22-rdf-syntax-ns#"
   xmlns:svg="http://www.w3.org/2000/svg"
   xmlns="http://www.w3.org/2000/svg"
   xmlns:sodipodi="http://sodipodi.sourceforge.net/DTD/sodipodi-0.dtd"
   xmlns:inkscape="http://www.inkscape.org/namespaces/inkscape"
   height="24"
   viewBox="0 0 24 24"
   width="24"
   version="1.1"
   id="svg4"
   sodipodi:docname="brush-right-symbolic.svg"
   inkscape:version="1.0.2 (e86c870879, 2021-01-15)">
  <metadata
     id="metadata10">
    <rdf:RDF>
      <cc:Work
         rdf:about="">
        <dc:format>image/svg+xml</dc:format>
        <dc:type
           rdf:resource="http://purl.org/dc/dcmitype/StillImage" />
      </cc:Work>
    </rdf:RDF>
  </metadata>
  <defs
     id="defs8" />
  <sodipodi:namedview
     pagecolor="#ffffff"
     bordercolor="#666666"
     borderopacity="1"
     objecttolerance="10"
     gridtolerance="10"
     guidetolerance="10"
     inkscape:pageopacity="0"
     inkscape:pageshadow="2"
     inkscape:window-width="1904"
     inkscape:window-height="1000"
     id="namedview6"
     showgrid="false"
     inkscape:zoom="33.958333"
     inkscape:cx="12"
     inkscape:cy="12"
     inkscape:window-x="26"
     inkscape:window-y="23"
     inkscape:window-maximized="0"
     inkscape:current-layer="svg4" />
  <path fill="white"
     id="path2"
     d="M 11.539062 8.7109375 C 11.256406 8.66125 10.953125 8.873125 10.953125 9.203125 L 10.953125 11 L 7.7734375 11 L 5 11 C 4.45 11 4 11.45 4 12 C 4 12.55 4.45 13 5 13 L 7.7734375 13 L 10.953125 13 L 10.953125 13.003906 L 10.953125 14.792969 C 10.953125 15.242969 11.492734 15.464531 11.802734 15.144531 L 13.939453 13 L 16.009766 13 L 18.783203 13 C 19.333203 13 19.783203 12.55 19.783203 12 C 19.783203 11.45 19.333203 11 18.783203 11 L 16.009766 11 L 13.941406 11 L 11.802734 8.8535156 C 11.725234 8.7735156 11.633281 8.7275 11.539062 8.7109375 z " />
</svg>
