<?xml version="1.0" encoding="UTF-8" standalone="no"?>
<svg
   xmlns:dc="http://purl.org/dc/elements/1.1/"
   xmlns:cc="http://creativecommons.org/ns#"
   xmlns:rdf="http://www.w3.org/1999/02/22-rdf-syntax-ns#"
   xmlns:svg="http://www.w3.org/2000/svg"
   xmlns="http://www.w3.org/2000/svg"
   xmlns:sodipodi="http://sodipodi.sourceforge.net/DTD/sodipodi-0.dtd"
   xmlns:inkscape="http://www.inkscape.org/namespaces/inkscape"
   version="1.1"
   id="mdi-wall"
   width="24"
   height="24"
   viewBox="0 0 24 24"
   sodipodi:docname="builder-build-configure.svg"
   inkscape:version="1.0.2 (e86c870879, 2021-01-15)">
  <metadata
     id="metadata9">
    <rdf:RDF>
      <cc:Work
         rdf:about="">
        <dc:format>image/svg+xml</dc:format>
        <dc:type
           rdf:resource="http://purl.org/dc/dcmitype/StillImage" />
      </cc:Work>
    </rdf:RDF>
  </metadata>
  <defs
     id="defs7" />
  <sodipodi:namedview
     pagecolor="#ffffff"
     bordercolor="#666666"
     borderopacity="1"
     objecttolerance="10"
     gridtolerance="10"
     guidetolerance="10"
     inkscape:pageopacity="0"
     inkscape:pageshadow="2"
     inkscape:window-width="3824"
     inkscape:window-height="2107"
     id="namedview5"
     showgrid="false"
     inkscape:zoom="28.177668"
     inkscape:cx="12.325631"
     inkscape:cy="14.095926"
     inkscape:window-x="8"
     inkscape:window-y="8"
     inkscape:window-maximized="0"
     inkscape:current-layer="mdi-wall"
     inkscape:document-rotation="0" />
  <path fill="white"
     id="path2"
     d="M 3 4 L 3 9 L 11 9 L 11 4 L 3 4 z M 12 4 L 12 9 L 21 9 L 21 4 L 12 4 z M 2 10 L 2 15 L 8 15 L 8 10 L 2 10 z M 9 10 L 9 15 L 12.339844 15 A 3.9209387 3.9209387 0 0 1 15 12.351562 L 15 10 L 9 10 z M 16 10 L 16 12.195312 A 3.9209387 3.9209387 0 0 1 16.097656 12.193359 A 3.9209387 3.9209387 0 0 1 19.857422 15 L 22 15 L 22 10 L 16 10 z M 3 16 L 3 21 L 12 21 L 12 16 L 3 16 z M 20.017578 16 A 3.9209387 3.9209387 0 0 1 20.019531 16.115234 A 3.9209387 3.9209387 0 0 1 19.994141 16.541016 L 21 17.546875 L 21 16 L 20.017578 16 z M 13 18.515625 L 13 21 L 17.494141 21 L 16.507812 20.013672 A 3.9209387 3.9209387 0 0 1 16.097656 20.035156 A 3.9209387 3.9209387 0 0 1 13 18.515625 z " />
  <path fill="white"
     d="m 17.891485,14.401085 c -0.757373,-0.757372 -1.891548,-0.911861 -2.80341,-0.467235 l 1.367793,1.367793 c 0.146952,0.146953 0.146952,0.384339 0,0.531292 l -0.599116,0.599116 c -0.146953,0.150721 -0.384339,0.150721 -0.531292,0 l -1.367793,-1.367793 c -0.440859,0.91563 -0.28637,2.042269 0.471003,2.799642 0.700853,0.700853 1.725756,0.885486 2.596169,0.557668 l 2.999348,2.999348 c 0.388107,0.388106 1.013599,0.388106 1.397938,0 0.388106,-0.388107 0.388106,-1.013599 0,-1.397938 l -2.984276,-2.988043 c 0.346658,-0.881718 0.165793,-1.921693 -0.546364,-2.63385 z"
     id="path2-3"
     style="stroke-width:0.376802" />
</svg>
