<?xml version="1.0" encoding="UTF-8" standalone="no"?>
<svg
   xmlns:dc="http://purl.org/dc/elements/1.1/"
   xmlns:cc="http://creativecommons.org/ns#"
   xmlns:rdf="http://www.w3.org/1999/02/22-rdf-syntax-ns#"
   xmlns:svg="http://www.w3.org/2000/svg"
   xmlns="http://www.w3.org/2000/svg"
   xmlns:sodipodi="http://sodipodi.sourceforge.net/DTD/sodipodi-0.dtd"
   xmlns:inkscape="http://www.inkscape.org/namespaces/inkscape"
   version="1.1"
   id="mdi-arrow-collapse-horizontal"
   width="24"
   height="24"
   viewBox="0 0 24 24"
   sodipodi:docname="distribute-horizontal-center.svg"
   inkscape:version="1.0.2 (e86c870879, 2021-01-15)">
  <metadata
     id="metadata9">
    <rdf:RDF>
      <cc:Work
         rdf:about="">
        <dc:format>image/svg+xml</dc:format>
        <dc:type
           rdf:resource="http://purl.org/dc/dcmitype/StillImage" />
      </cc:Work>
    </rdf:RDF>
  </metadata>
  <defs
     id="defs7" />
  <sodipodi:namedview
     pagecolor="#ffffff"
     bordercolor="#666666"
     borderopacity="1"
     objecttolerance="10"
     gridtolerance="10"
     guidetolerance="10"
     inkscape:pageopacity="0"
     inkscape:pageshadow="2"
     inkscape:window-width="1920"
     inkscape:window-height="1011"
     id="namedview5"
     showgrid="false"
     inkscape:zoom="33.208333"
     inkscape:cx="11.47781"
     inkscape:cy="13.371785"
     inkscape:window-x="0"
     inkscape:window-y="0"
     inkscape:window-maximized="1"
     inkscape:current-layer="mdi-arrow-collapse-horizontal" />
  <path fill="white"
     d="m 11,19.999999 c 0.55,0 1,-0.45 1,-1 V 5 C 12,4.45 11.55,4 11,4 10.45,4 10,4.45 10,5 v 13.999999 c 0,0.55 0.45,1 1,1 z"
     id="path2-3"
     sodipodi:nodetypes="sssssss" />
  <path fill="white"
     d="M 5,9.21 V 11 H 3 c -0.55,0 -1,0.45 -1,1 0,0.55 0.45,1 1,1 h 2 v 1.79 c 0,0.45 0.54,0.67 0.85,0.35 l 2.79,-2.790001 c 0.2,-0.199999 0.2,-0.509999 0,-0.71 L 5.85,8.85 C 5.54,8.54 5,8.76 5,9.21 Z"
     id="path2-3-6"
     sodipodi:nodetypes="scssscscccss" />
  <path fill="white"
     d="m 14,19.999999 c 0.55,0 1,-0.45 1,-1 V 5 C 15,4.45 14.55,4 14,4 13.45,4 13,4.45 13,5 v 13.999999 c 0,0.55 0.45,1 1,1 z"
     id="path2-3-7"
     sodipodi:nodetypes="sssssss" />
  <path fill="white"
     d="M 20,9.2100004 V 11 h 2 c 0.55,0 1,0.45 1,1 0,0.55 -0.45,1 -1,1 h -2 v 1.79 c 0,0.45 -0.54,0.67 -0.85,0.35 l -2.79,-2.790001 c -0.2,-0.199999 -0.2,-0.509999 0,-0.71 l 2.79,-2.7899986 c 0.31,-0.31 0.85,-0.09 0.85,0.36 z"
     id="path2-3-6-5"
     sodipodi:nodetypes="scssscscccss" />
</svg>
