<?xml version="1.0" encoding="UTF-8" standalone="no"?>
<svg
   xmlns:dc="http://purl.org/dc/elements/1.1/"
   xmlns:cc="http://creativecommons.org/ns#"
   xmlns:rdf="http://www.w3.org/1999/02/22-rdf-syntax-ns#"
   xmlns:svg="http://www.w3.org/2000/svg"
   xmlns="http://www.w3.org/2000/svg"
   xmlns:sodipodi="http://sodipodi.sourceforge.net/DTD/sodipodi-0.dtd"
   xmlns:inkscape="http://www.inkscape.org/namespaces/inkscape"
   height="24"
   viewBox="0 0 24 24"
   width="24"
   version="1.1"
   id="svg4"
   sodipodi:docname="document-export-rtl.svg"
   inkscape:version="1.0.2 (e86c870879, 2021-01-15)">
  <metadata
     id="metadata10">
    <rdf:RDF>
      <cc:Work
         rdf:about="">
        <dc:format>image/svg+xml</dc:format>
        <dc:type
           rdf:resource="http://purl.org/dc/dcmitype/StillImage" />
      </cc:Work>
    </rdf:RDF>
  </metadata>
  <defs
     id="defs8" />
  <sodipodi:namedview
     pagecolor="#ffffff"
     bordercolor="#666666"
     borderopacity="1"
     objecttolerance="10"
     gridtolerance="10"
     guidetolerance="10"
     inkscape:pageopacity="0"
     inkscape:pageshadow="2"
     inkscape:window-width="3824"
     inkscape:window-height="2107"
     id="namedview6"
     showgrid="false"
     inkscape:zoom="39.833333"
     inkscape:cx="-1.1297074"
     inkscape:cy="16.016736"
     inkscape:window-x="8"
     inkscape:window-y="33"
     inkscape:window-maximized="0"
     inkscape:current-layer="svg4"
     inkscape:document-rotation="0" />
  <path fill="white"
     d="m 8.2925,16.29 c -0.39,0.39 -1.02,0.39 -1.41,0 l -3.59,-3.59 c -0.39,-0.39 -0.39,-1.02 0,-1.41 l 3.59,-3.59 c 0.39,-0.39 1.02,-0.39 1.41,0 0.39,0.39 0.39,1.02 0,1.41 L 6.4125,11 h 8.67 c 0.55,0 1,0.45 1,1 0,0.55 -0.45,1 -1,1 h -8.67 l 1.88,1.88 c 0.39,0.39 0.38,1.03 0,1.41 z m 11,-13.29 h -14 c -1.11,0 -2,0.9 -2,2 v 1.1503436 c 0,0.55 0.45,1 1,1 0.55,0 1,-0.45 1,-1 V 6 c 0,-0.55 0.45,-1 1,-1 h 12 c 0.55,0 1,0.45 1,1 v 12 c 0,0.55 -0.45,1 -1,1 h -12 c -0.55,0 -1,-0.45 -1,-1 v -0.23353 c 0,-0.55 -0.45,-1 -1,-1 -0.55,0 -1,0.45 -1,1 V 19 c 0,1.1 0.9,2 2,2 h 14 c 1.1,0 2,-0.9 2,-2 V 5 c 0,-1.1 -0.9,-2 -2,-2 z"
     id="path2"
     sodipodi:nodetypes="ssssssccssscsssssssssssssssssssssssss" />
</svg>
