<?xml version="1.0" encoding="UTF-8" standalone="no"?>
<svg
   xmlns:dc="http://purl.org/dc/elements/1.1/"
   xmlns:cc="http://creativecommons.org/ns#"
   xmlns:rdf="http://www.w3.org/1999/02/22-rdf-syntax-ns#"
   xmlns:svg="http://www.w3.org/2000/svg"
   xmlns="http://www.w3.org/2000/svg"
   xmlns:sodipodi="http://sodipodi.sourceforge.net/DTD/sodipodi-0.dtd"
   xmlns:inkscape="http://www.inkscape.org/namespaces/inkscape"
   height="24"
   viewBox="0 0 24 24"
   width="24"
   version="1.1"
   id="svg4"
   sodipodi:docname="gnumeric-format-border-inside-horiz-symbolic (copy).svg"
   inkscape:version="1.0.1 (3bc2e813f5, 2020-09-07)">
  <metadata
     id="metadata10">
    <rdf:RDF>
      <cc:Work
         rdf:about="">
        <dc:format>image/svg+xml</dc:format>
        <dc:type
           rdf:resource="http://purl.org/dc/dcmitype/StillImage" />
      </cc:Work>
    </rdf:RDF>
  </metadata>
  <defs
     id="defs8" />
  <sodipodi:namedview
     pagecolor="#ffffff"
     bordercolor="#666666"
     borderopacity="1"
     objecttolerance="10"
     gridtolerance="10"
     guidetolerance="10"
     inkscape:pageopacity="0"
     inkscape:pageshadow="2"
     inkscape:window-width="950"
     inkscape:window-height="1022"
     id="namedview6"
     showgrid="false"
     inkscape:zoom="20.076378"
     inkscape:cx="9.6852676"
     inkscape:cy="11.527528"
     inkscape:window-x="2882"
     inkscape:window-y="1097"
     inkscape:window-maximized="0"
     inkscape:current-layer="svg4" />
  <path fill="#ffffff"
     d="M 3,13 H 5 V 11 H 3 Z M 5,7 H 3 V 9 H 5 Z M 5,3 H 3 V 5 H 5 Z M 9,3 H 7 v 2 h 2 z m 4,0 h -2 v 2 h 2 z m 6,14 h 2 v -2 h -2 z m -8,4 h 2 v -2 h -2 z m 8,-10 v 2 h 2 v -2 z m -4,10 h 2 v -2 h -2 z m 4,0 h 2 v -2 h -2 z"
     id="path2"
     sodipodi:nodetypes="cccccccccccccccccccccccccccccccccccccccccccccccccc" />
  <path fill="#ffffff"
     d="M 4.701584,20.712629 20.712629,4.701584 c 0.388909,-0.3889088 0.388909,-1.0253048 0,-1.4142135 -0.388909,-0.3889088 -1.025305,-0.3889089 -1.414214,0 L 3.2873705,19.298415 c -0.3889089,0.388909 -0.3889088,1.025305 0,1.414214 0.3889087,0.388909 1.0253047,0.388909 1.4142135,0 z"
     id="path2-3"
     sodipodi:nodetypes="sssssss" />
</svg>
