<?xml version="1.0" encoding="UTF-8" standalone="no"?>
<svg
   xmlns:dc="http://purl.org/dc/elements/1.1/"
   xmlns:cc="http://creativecommons.org/ns#"
   xmlns:rdf="http://www.w3.org/1999/02/22-rdf-syntax-ns#"
   xmlns:svg="http://www.w3.org/2000/svg"
   xmlns="http://www.w3.org/2000/svg"
   xmlns:sodipodi="http://sodipodi.sourceforge.net/DTD/sodipodi-0.dtd"
   xmlns:inkscape="http://www.inkscape.org/namespaces/inkscape"
   version="1.1"
   id="mdi-gesture-two-tap"
   width="24"
   height="24"
   viewBox="0 0 24 24"
   sodipodi:docname="gesture-two-tap.svg"
   inkscape:version="1.0.2 (e86c870879, 2021-01-15)">
  <metadata
     id="metadata9">
    <rdf:RDF>
      <cc:Work
         rdf:about="">
        <dc:format>image/svg+xml</dc:format>
        <dc:type
           rdf:resource="http://purl.org/dc/dcmitype/StillImage" />
      </cc:Work>
    </rdf:RDF>
  </metadata>
  <defs
     id="defs7" />
  <sodipodi:namedview
     pagecolor="#ffffff"
     bordercolor="#666666"
     borderopacity="1"
     objecttolerance="10"
     gridtolerance="10"
     guidetolerance="10"
     inkscape:pageopacity="0"
     inkscape:pageshadow="2"
     inkscape:window-width="1908"
     inkscape:window-height="1031"
     id="namedview5"
     showgrid="false"
     inkscape:zoom="29.698485"
     inkscape:cx="13.365294"
     inkscape:cy="11.921329"
     inkscape:window-x="8"
     inkscape:window-y="33"
     inkscape:window-maximized="0"
     inkscape:current-layer="mdi-gesture-two-tap" />
  <path fill="white"
     id="path2"
     d="m 8.9570312,1.0078125 c 0.094219,0.016563 0.1861719,0.060625 0.2636719,0.140625 L 12,3.9394531 c 0.19,0.2 0.19,0.5089844 0,0.7089844 L 9.2207031,7.4394531 c -0.31,0.32 -0.5522124,-0.013619 -0.8515625,-0.3496093 V 5.2988281 H 4.1425781 c -0.55,0 -1,-0.45 -1,-1 0,-0.55 0.45,-1 1,-1 H 8.3691406 V 1.5 c 0,-0.33 0.3052344,-0.541875 0.5878906,-0.4921875 z M 13,6 C 12.447715,6 12,6.4477153 12,7 V 9 C 12,8.4477153 11.552285,8 11,8 10.447715,8 10,8.4477153 10,9 V 19 L 6.8007812,17.279297 H 6.5800781 c -0.28,0 -0.5502343,0.110312 -0.7402343,0.320312 L 5.0996094,18.369141 10,22.570312 C 10.26,22.850312 10.62,23 11,23 h 6.5 c 0.82,-0.03 1.47,-0.68 1.5,-1.5 v -6.359375 c 0,-0.56 -0.339609,-1.070781 -0.849609,-1.300781 L 16,12.886719 V 8.5234375 c 0,-0.5522847 -0.447715,-1 -1,-1 -0.552285,0 -1,0.4477153 -1,1 V 7 C 14,6.4477153 13.552285,6 13,6 Z"
     sodipodi:nodetypes="sccccscssscsssscssccscccsccsccsscss" />
</svg>
