<?xml version="1.0" encoding="UTF-8" standalone="no"?>
<svg
   xmlns:dc="http://purl.org/dc/elements/1.1/"
   xmlns:cc="http://creativecommons.org/ns#"
   xmlns:rdf="http://www.w3.org/1999/02/22-rdf-syntax-ns#"
   xmlns:svg="http://www.w3.org/2000/svg"
   xmlns="http://www.w3.org/2000/svg"
   xmlns:sodipodi="http://sodipodi.sourceforge.net/DTD/sodipodi-0.dtd"
   xmlns:inkscape="http://www.inkscape.org/namespaces/inkscape"
   height="24"
   viewBox="0 0 24 24"
   width="24"
   version="1.1"
   id="svg4"
   sodipodi:docname="size-vertically (copy).svg"
   inkscape:version="1.0.2 (e86c870879, 2021-01-15)">
  <metadata
     id="metadata10">
    <rdf:RDF>
      <cc:Work
         rdf:about="">
        <dc:format>image/svg+xml</dc:format>
        <dc:type
           rdf:resource="http://purl.org/dc/dcmitype/StillImage" />
      </cc:Work>
    </rdf:RDF>
  </metadata>
  <defs
     id="defs8" />
  <sodipodi:namedview
     pagecolor="#ffffff"
     bordercolor="#666666"
     borderopacity="1"
     objecttolerance="10"
     gridtolerance="10"
     guidetolerance="10"
     inkscape:pageopacity="0"
     inkscape:pageshadow="2"
     inkscape:window-width="1920"
     inkscape:window-height="1011"
     id="namedview6"
     showgrid="false"
     inkscape:zoom="42"
     inkscape:cx="11.936756"
     inkscape:cy="16.032738"
     inkscape:window-x="0"
     inkscape:window-y="0"
     inkscape:window-maximized="1"
     inkscape:current-layer="svg4"
     inkscape:document-rotation="0" />
  <path fill="white"
     d="M 9.21,19 H 11 v 3 c 0,0.55 0.45,1 1,1 0.55,0 1,-0.45 1,-1 v -3 h 1.79 c 0.45,0 0.67,-0.54 0.35,-0.85 l -2.79,-2.79 c -0.2,-0.2 -0.51,-0.2 -0.71,0 L 8.85,18.15 C 8.54,18.46 8.76,19 9.21,19 Z M 14.79,5 H 13 V 2 C 13,1.45 12.55,1 12,1 11.45,1 11,1.45 11,2 V 5 H 9.21 C 8.76,5 8.54,5.54 8.85,5.85 l 2.79,2.79 c 0.2,0.2 0.51,0.2 0.71,0 L 15.14,5.85 C 15.46,5.54 15.24,5 14.79,5 Z M 4,12 c 0,0.55 0.45,1 1,1 h 14 c 0.55,0 1,-0.45 1,-1 0,-0.55 -0.45,-1 -1,-1 H 5 c -0.55,0 -1,0.45 -1,1 z"
     id="path2"
     sodipodi:nodetypes="scssscscssssscssscsssscssssssss" />
</svg>
