<?xml version="1.0" encoding="UTF-8" standalone="no"?>
<svg
   xmlns:dc="http://purl.org/dc/elements/1.1/"
   xmlns:cc="http://creativecommons.org/ns#"
   xmlns:rdf="http://www.w3.org/1999/02/22-rdf-syntax-ns#"
   xmlns:svg="http://www.w3.org/2000/svg"
   xmlns="http://www.w3.org/2000/svg"
   xmlns:sodipodi="http://sodipodi.sourceforge.net/DTD/sodipodi-0.dtd"
   xmlns:inkscape="http://www.inkscape.org/namespaces/inkscape"
   height="24"
   viewBox="0 0 24 24"
   width="24"
   version="1.1"
   id="svg4"
   sodipodi:docname="settings.svg"
   inkscape:version="1.0.2 (e86c870879, 2021-01-15)">
  <metadata
     id="metadata10">
    <rdf:RDF>
      <cc:Work
         rdf:about="">
        <dc:format>image/svg+xml</dc:format>
        <dc:type
           rdf:resource="http://purl.org/dc/dcmitype/StillImage" />
      </cc:Work>
    </rdf:RDF>
  </metadata>
  <defs
     id="defs8" />
  <sodipodi:namedview
     pagecolor="#ffffff"
     bordercolor="#666666"
     borderopacity="1"
     objecttolerance="10"
     gridtolerance="10"
     guidetolerance="10"
     inkscape:pageopacity="0"
     inkscape:pageshadow="2"
     inkscape:window-width="1844"
     inkscape:window-height="1031"
     id="namedview6"
     showgrid="false"
     inkscape:zoom="42"
     inkscape:cx="12"
     inkscape:cy="12"
     inkscape:window-x="8"
     inkscape:window-y="1109"
     inkscape:window-maximized="0"
     inkscape:current-layer="svg4" />
  <path fill="white"
     d="M 6,3 C 5.45,3 5,3.45 5,4 V 9 H 7 V 4 C 7,3.45 6.55,3 6,3 Z m 12,0 c -0.55,0 -1,0.45 -1,1 v 9 h 2 V 4 C 19,3.45 18.55,3 18,3 Z M 4,13 h 1 v 7 c 0,0.55 0.45,1 1,1 0.55,0 1,-0.45 1,-1 V 13 H 8 C 8.55,13 9,12.55 9,12 9,11.45 8.55,11 8,11 H 4 c -0.55,0 -1,0.45 -1,1 0,0.55 0.45,1 1,1 z M 14,7 H 13 V 4 C 13,3.45 12.55,3 12,3 11.45,3 11,3.45 11,4 V 7 H 10 C 9.45,7 9,7.45 9,8 9,8.55 9.45,9 10,9 h 4 C 14.55,9 15,8.55 15,8 15,7.45 14.55,7 14,7 Z m -2,14 c 0.55,0 1,-0.45 1,-1 v -9 h -2 v 9 c 0,0.55 0.45,1 1,1 z m 3,-5 c 0,0.55 0.45,1 1,1 h 1 v 3 c 0,0.55 0.45,1 1,1 0.55,0 1,-0.45 1,-1 v -3 h 1 c 0.55,0 1,-0.45 1,-1 0,-0.55 -0.45,-1 -1,-1 h -4 c -0.55,0 -1,0.45 -1,1 z"
     id="path2" />
</svg>
