<?xml version="1.0" encoding="UTF-8" standalone="no"?>
<svg
   xmlns:dc="http://purl.org/dc/elements/1.1/"
   xmlns:cc="http://creativecommons.org/ns#"
   xmlns:rdf="http://www.w3.org/1999/02/22-rdf-syntax-ns#"
   xmlns:svg="http://www.w3.org/2000/svg"
   xmlns="http://www.w3.org/2000/svg"
   xmlns:sodipodi="http://sodipodi.sourceforge.net/DTD/sodipodi-0.dtd"
   xmlns:inkscape="http://www.inkscape.org/namespaces/inkscape"
   version="1.1"
   id="mdi-script"
   width="24"
   height="24"
   viewBox="0 0 24 24"
   sodipodi:docname="papyrus-vertical-symbolic (copy).svg"
   inkscape:version="1.0.1 (3bc2e813f5, 2020-09-07)">
  <metadata
     id="metadata9">
    <rdf:RDF>
      <cc:Work
         rdf:about="">
        <dc:format>image/svg+xml</dc:format>
        <dc:type
           rdf:resource="http://purl.org/dc/dcmitype/StillImage" />
      </cc:Work>
    </rdf:RDF>
  </metadata>
  <defs
     id="defs7" />
  <sodipodi:namedview
     pagecolor="#ffffff"
     bordercolor="#666666"
     borderopacity="1"
     objecttolerance="10"
     gridtolerance="10"
     guidetolerance="10"
     inkscape:pageopacity="0"
     inkscape:pageshadow="2"
     inkscape:window-width="1908"
     inkscape:window-height="1054"
     id="namedview5"
     showgrid="false"
     inkscape:zoom="39.833333"
     inkscape:cx="12"
     inkscape:cy="12"
     inkscape:window-x="8"
     inkscape:window-y="35"
     inkscape:window-maximized="0"
     inkscape:current-layer="mdi-script" />
  <path fill="#ffffff"
     d="M 4,17.8 C 2.8,17.4 2,16.3 2,15 V 5 C 2,3.3 3.3,2 5,2 h 1 v 3 9.2 C 4.8,14.6 4,15.7 4,17 v 0.8 M 22,19 V 8 C 22,6.3 20.7,5 19,5 H 8 V 16 H 7 c -0.6,0 -1,0.4 -1,1 v 1 h 13 c 0.6,0 1,0.4 1,1 0,0.6 -0.4,1 -1,1 h -1 v 2 h 1 c 1.7,0 3,-1.3 3,-3 z"
     id="path2" />
</svg>
