<?xml version="1.0" encoding="UTF-8" standalone="no"?>
<svg
   xmlns:dc="http://purl.org/dc/elements/1.1/"
   xmlns:cc="http://creativecommons.org/ns#"
   xmlns:rdf="http://www.w3.org/1999/02/22-rdf-syntax-ns#"
   xmlns:svg="http://www.w3.org/2000/svg"
   xmlns="http://www.w3.org/2000/svg"
   xmlns:sodipodi="http://sodipodi.sourceforge.net/DTD/sodipodi-0.dtd"
   xmlns:inkscape="http://www.inkscape.org/namespaces/inkscape"
   version="1.1"
   id="mdi-script-outline"
   width="24"
   height="24"
   viewBox="0 0 24 24"
   sodipodi:docname="roll-vertical-symbolic (copy).svg"
   inkscape:version="1.0.1 (3bc2e813f5, 2020-09-07)">
  <metadata
     id="metadata9">
    <rdf:RDF>
      <cc:Work
         rdf:about="">
        <dc:format>image/svg+xml</dc:format>
        <dc:type
           rdf:resource="http://purl.org/dc/dcmitype/StillImage" />
      </cc:Work>
    </rdf:RDF>
  </metadata>
  <defs
     id="defs7" />
  <sodipodi:namedview
     pagecolor="#ffffff"
     bordercolor="#666666"
     borderopacity="1"
     objecttolerance="10"
     gridtolerance="10"
     guidetolerance="10"
     inkscape:pageopacity="0"
     inkscape:pageshadow="2"
     inkscape:window-width="1908"
     inkscape:window-height="1054"
     id="namedview5"
     showgrid="false"
     inkscape:zoom="39.833333"
     inkscape:cx="12"
     inkscape:cy="12"
     inkscape:window-x="8"
     inkscape:window-y="35"
     inkscape:window-maximized="0"
     inkscape:current-layer="mdi-script-outline" />
  <path fill="white"
     d="m 4,15 a 1,1 0 0 0 1,1 H 20 V 8 A 1,1 0 0 0 19,7 H 8 V 5 h 11 a 3,3 0 0 1 3,3 v 11 a 3,3 0 0 1 -3,3 h -1 v -2 h 1 a 1,1 0 0 0 1,-1 1,1 0 0 0 -1,-1 H 15 5 A 3,3 0 0 1 2,15 V 5 A 3,3 0 0 1 5,2 h 1 v 11 a 2,2 0 0 0 -2,2 z"
     id="path2" />
</svg>
