<?xml version="1.0" encoding="UTF-8" standalone="no"?>
<svg
   xmlns:dc="http://purl.org/dc/elements/1.1/"
   xmlns:cc="http://creativecommons.org/ns#"
   xmlns:rdf="http://www.w3.org/1999/02/22-rdf-syntax-ns#"
   xmlns:svg="http://www.w3.org/2000/svg"
   xmlns="http://www.w3.org/2000/svg"
   xmlns:sodipodi="http://sodipodi.sourceforge.net/DTD/sodipodi-0.dtd"
   xmlns:inkscape="http://www.inkscape.org/namespaces/inkscape"
   version="1.1"
   id="mdi-layers-plus"
   width="24"
   height="24"
   viewBox="0 0 24 24"
   sodipodi:docname="selection-move-to-layer-above.svg"
   inkscape:version="1.0.2 (e86c870879, 2021-01-15)">
  <metadata
     id="metadata9">
    <rdf:RDF>
      <cc:Work
         rdf:about="">
        <dc:format>image/svg+xml</dc:format>
        <dc:type
           rdf:resource="http://purl.org/dc/dcmitype/StillImage" />
      </cc:Work>
    </rdf:RDF>
  </metadata>
  <defs
     id="defs7" />
  <sodipodi:namedview
     pagecolor="#ffffff"
     bordercolor="#666666"
     borderopacity="1"
     objecttolerance="10"
     gridtolerance="10"
     guidetolerance="10"
     inkscape:pageopacity="0"
     inkscape:pageshadow="2"
     inkscape:window-width="1492"
     inkscape:window-height="1017"
     id="namedview5"
     showgrid="false"
     inkscape:zoom="5.25"
     inkscape:cx="10.463817"
     inkscape:cy="-17.614723"
     inkscape:window-x="3848"
     inkscape:window-y="1097"
     inkscape:window-maximized="0"
     inkscape:current-layer="mdi-layers-plus" />
  <path fill="white"
     id="path2"
     d="M 11.007812 2.5 C 10.666216 2.5 10.325923 2.590009 10.017578 2.7636719 L 2.9179688 8.2871094 C 2.5143569 8.7055995 2.5429044 9.39877 3.015625 9.7695312 L 9.7753906 15.029297 C 10.495391 15.589297 11.514375 15.589565 12.234375 15.019531 L 18.994141 9.7597656 C 19.438414 9.411315 19.49578 8.7743389 19.166016 8.3515625 L 11.939453 2.7304688 C 11.649119 2.5776686 11.328235 2.5 11.007812 2.5 z M 3.6152344 13.050781 C 3.4441957 13.050781 3.2784175 13.106712 3.125 13.195312 L 2.8730469 13.390625 C 2.5041016 13.810477 2.5461888 14.469552 3.0058594 14.830078 L 9.765625 20.089844 C 10.485625 20.649844 11.49461 20.649844 12.224609 20.089844 L 12.347656 19.994141 C 12.119045 19.385592 12 18.707806 12 18 L 12 17.75 L 11 18.539062 L 4.1347656 13.210938 C 3.9741173 13.11082 3.7970485 13.050781 3.6152344 13.050781 z M 18 14 C 17.45 14 17 14.45 17 15 L 17 17 L 15 17 C 14.45 17 14 17.45 14 18 C 14 18.55 14.45 19 15 19 L 17 19 L 17 21 C 17 21.55 17.45 22 18 22 C 18.55 22 19 21.55 19 21 L 19 19 L 21 19 C 21.55 19 22 18.55 22 18 C 22 17.45 21.55 17 21 17 L 19 17 L 19 15 C 19 14.45 18.55 14 18 14 z " />
</svg>
