<?xml version="1.0" encoding="UTF-8" standalone="no"?>
<svg
   xmlns:dc="http://purl.org/dc/elements/1.1/"
   xmlns:cc="http://creativecommons.org/ns#"
   xmlns:rdf="http://www.w3.org/1999/02/22-rdf-syntax-ns#"
   xmlns:svg="http://www.w3.org/2000/svg"
   xmlns="http://www.w3.org/2000/svg"
   xmlns:sodipodi="http://sodipodi.sourceforge.net/DTD/sodipodi-0.dtd"
   xmlns:inkscape="http://www.inkscape.org/namespaces/inkscape"
   height="24"
   viewBox="0 0 24 24"
   width="24"
   version="1.1"
   id="svg4"
   sodipodi:docname="vertical.svg"
   inkscape:version="1.0.2 (e86c870879, 2021-01-15)">
  <metadata
     id="metadata10">
    <rdf:RDF>
      <cc:Work
         rdf:about="">
        <dc:format>image/svg+xml</dc:format>
        <dc:type
           rdf:resource="http://purl.org/dc/dcmitype/StillImage" />
      </cc:Work>
    </rdf:RDF>
  </metadata>
  <defs
     id="defs8" />
  <sodipodi:namedview
     pagecolor="#ffffff"
     bordercolor="#666666"
     borderopacity="1"
     objecttolerance="10"
     gridtolerance="10"
     guidetolerance="10"
     inkscape:pageopacity="0"
     inkscape:pageshadow="2"
     inkscape:window-width="3824"
     inkscape:window-height="2107"
     id="namedview6"
     showgrid="false"
     inkscape:zoom="42"
     inkscape:cx="12"
     inkscape:cy="12"
     inkscape:window-x="8"
     inkscape:window-y="33"
     inkscape:window-maximized="0"
     inkscape:current-layer="svg4" />
  <path fill="white"
     d="M 9.21,19.36 H 11 v -3 c 0,-0.55 0.45,-1 1,-1 0.55,0 1,0.45 1,1 v 3 h 1.79 c 0.45,0 0.67,0.54 0.35,0.85 L 12.35,23 c -0.2,0.2 -0.51,0.2 -0.71,0 L 8.85,20.21 C 8.54,19.9 8.76,19.36 9.21,19.36 Z M 14.79,4.64 H 13 v 3 c 0,0.55 -0.45,1 -1,1 -0.55,0 -1,-0.45 -1,-1 v -3 H 9.21 C 8.76,4.64 8.54,4.1 8.85,3.79 L 11.64,1 c 0.2,-0.2 0.51,-0.2 0.71,0 l 2.79,2.79 c 0.32,0.31 0.1,0.85 -0.35,0.85 z M 4,12 c 0,0.55 0.45,1 1,1 h 14 c 0.55,0 1,-0.45 1,-1 0,-0.55 -0.45,-1 -1,-1 H 5 c -0.55,0 -1,0.45 -1,1 z"
     id="path2"
     sodipodi:nodetypes="scssscscssssscssscsssscssssssss" />
</svg>
