<?xml version="1.0" encoding="UTF-8" standalone="no"?>
<svg
   xmlns:dc="http://purl.org/dc/elements/1.1/"
   xmlns:cc="http://creativecommons.org/ns#"
   xmlns:rdf="http://www.w3.org/1999/02/22-rdf-syntax-ns#"
   xmlns:svg="http://www.w3.org/2000/svg"
   xmlns="http://www.w3.org/2000/svg"
   xmlns:sodipodi="http://sodipodi.sourceforge.net/DTD/sodipodi-0.dtd"
   xmlns:inkscape="http://www.inkscape.org/namespaces/inkscape"
   height="24"
   viewBox="0 0 24 24"
   width="24"
   version="1.1"
   id="svg4"
   sodipodi:docname="social-network-none.svg"
   inkscape:version="1.0.2 (e86c870879, 2021-01-15)">
  <metadata
     id="metadata10">
    <rdf:RDF>
      <cc:Work
         rdf:about="">
        <dc:format>image/svg+xml</dc:format>
        <dc:type
           rdf:resource="http://purl.org/dc/dcmitype/StillImage" />
      </cc:Work>
    </rdf:RDF>
  </metadata>
  <defs
     id="defs8" />
  <sodipodi:namedview
     pagecolor="#ffffff"
     bordercolor="#666666"
     borderopacity="1"
     objecttolerance="10"
     gridtolerance="10"
     guidetolerance="10"
     inkscape:pageopacity="0"
     inkscape:pageshadow="2"
     inkscape:window-width="1920"
     inkscape:window-height="1016"
     id="namedview6"
     showgrid="false"
     inkscape:zoom="33.958333"
     inkscape:cx="12"
     inkscape:cy="11.785439"
     inkscape:window-x="0"
     inkscape:window-y="0"
     inkscape:window-maximized="1"
     inkscape:current-layer="svg4" />
  <path fill="white"
     d="M 7.2756288,8.2041411 C 6.9056288,8.5741411 7,8.48 7,9.01 V 19 c 0,1.1 0.9,2 2,2 h 9 c 0.8,0 0.810951,-0.169302 1.130951,-0.899302 z M 3,21 c 1.1,0 2,-0.9 2,-2 V 11 C 5,9.9 4.1,9 3,9 1.9,9 1,9.9 1,11 v 8 c 0,1.1 0.9,2 2,2 z"
     id="path2"
     sodipodi:nodetypes="cssssccsssssss" />
  <g
     id="g4">
    <path fill="white"
       d="M 20.49,20.49 3.51,3.51 C 3.12,3.12 2.49,3.12 2.1,3.51 1.71,3.9 1.71,4.53 2.1,4.92 L 19.08,21.9 c 0.39,0.39 1.02,0.39 1.41,0 0.39,-0.39 0.39,-1.02 0,-1.41 z"
       id="path2-3"
       sodipodi:nodetypes="sssccss" />
  </g>
  <path fill="white"
     d="M 13.12,2.06 9.021066,6.2239264 20.693758,17.891994 23.1,12.18 C 23.94,10.2 22.49,8 20.34,8 H 14.69 L 15.64,3.42 C 15.74,2.92 15.59,2.41 15.23,2.05 14.64,1.47 13.7,1.47 13.12,2.06 Z"
     id="path2-5"
     sodipodi:nodetypes="ccccscccc" />
</svg>
