<?xml version="1.0" encoding="UTF-8" standalone="no"?>
<svg
   xmlns:dc="http://purl.org/dc/elements/1.1/"
   xmlns:cc="http://creativecommons.org/ns#"
   xmlns:rdf="http://www.w3.org/1999/02/22-rdf-syntax-ns#"
   xmlns:svg="http://www.w3.org/2000/svg"
   xmlns="http://www.w3.org/2000/svg"
   xmlns:sodipodi="http://sodipodi.sourceforge.net/DTD/sodipodi-0.dtd"
   xmlns:inkscape="http://www.inkscape.org/namespaces/inkscape"
   version="1.1"
   id="mdi-crop-square"
   width="24"
   height="24"
   viewBox="0 0 24 24"
   sodipodi:docname="square-outline-thin.svg"
   inkscape:version="1.0.2 (e86c870879, 2021-01-15)">
  <metadata
     id="metadata9">
    <rdf:RDF>
      <cc:Work
         rdf:about="">
        <dc:format>image/svg+xml</dc:format>
        <dc:type
           rdf:resource="http://purl.org/dc/dcmitype/StillImage" />
      </cc:Work>
    </rdf:RDF>
  </metadata>
  <defs
     id="defs7" />
  <sodipodi:namedview
     pagecolor="#ffffff"
     bordercolor="#666666"
     borderopacity="1"
     objecttolerance="10"
     gridtolerance="10"
     guidetolerance="10"
     inkscape:pageopacity="0"
     inkscape:pageshadow="2"
     inkscape:window-width="1908"
     inkscape:window-height="1031"
     id="namedview5"
     showgrid="false"
     inkscape:zoom="42"
     inkscape:cx="12"
     inkscape:cy="9.1428571"
     inkscape:window-x="1924"
     inkscape:window-y="1109"
     inkscape:window-maximized="0"
     inkscape:current-layer="mdi-crop-square" />
  <path fill="white"
     d="M18,18H6V6H18M18,4H6A2,2 0 0,0 4,6V18A2,2 0 0,0 6,20H18A2,2 0 0,0 20,18V6C20,4.89 19.1,4 18,4Z"
     id="path2" />
  <path fill="white"
     d="M 14,8 H 10 C 8.8954308,8 8.0000003,8.8954305 8.0000003,10 v 4 c 0,1.104569 0.8954305,2 1.9999997,2 h 4 c 1.104569,0 2,-0.895431 2,-2 V 10 C 16,8.89 15.1,8 14,8 Z"
     id="path2-3"
     sodipodi:nodetypes="sssssssss" />
</svg>
