<?xml version="1.0" encoding="UTF-8" standalone="no"?>
<svg
   xmlns:dc="http://purl.org/dc/elements/1.1/"
   xmlns:cc="http://creativecommons.org/ns#"
   xmlns:rdf="http://www.w3.org/1999/02/22-rdf-syntax-ns#"
   xmlns:svg="http://www.w3.org/2000/svg"
   xmlns="http://www.w3.org/2000/svg"
   xmlns:sodipodi="http://sodipodi.sourceforge.net/DTD/sodipodi-0.dtd"
   xmlns:inkscape="http://www.inkscape.org/namespaces/inkscape"
   height="24"
   viewBox="0 0 24 24"
   width="24"
   version="1.1"
   id="svg4"
   sodipodi:docname="block.svg"
   inkscape:version="1.0.2 (e86c870879, 2021-01-15)">
  <metadata
     id="metadata10">
    <rdf:RDF>
      <cc:Work
         rdf:about="">
        <dc:format>image/svg+xml</dc:format>
        <dc:type
           rdf:resource="http://purl.org/dc/dcmitype/StillImage" />
      </cc:Work>
    </rdf:RDF>
  </metadata>
  <defs
     id="defs8" />
  <sodipodi:namedview
     pagecolor="#ffffff"
     bordercolor="#666666"
     borderopacity="1"
     objecttolerance="10"
     gridtolerance="10"
     guidetolerance="10"
     inkscape:pageopacity="0"
     inkscape:pageshadow="2"
     inkscape:window-width="3824"
     inkscape:window-height="2107"
     id="namedview6"
     showgrid="false"
     inkscape:zoom="42"
     inkscape:cx="12"
     inkscape:cy="12"
     inkscape:window-x="8"
     inkscape:window-y="33"
     inkscape:window-maximized="0"
     inkscape:current-layer="svg4" />
  <path fill="white"
     d="m 19.071068,4.9289322 c -3.90323,-3.9032294 -10.2389064,-3.9032294 -14.1421358,0 -3.9032294,3.9032294 -3.9032294,10.2389058 0,14.1421358 3.9032294,3.903229 10.2389058,3.903229 14.1421358,0 3.903229,-3.90323 3.903229,-10.2389064 0,-14.1421358 z M 6.3431458,6.3431458 c 3.1254119,-3.125412 8.1882962,-3.125412 11.3137082,0 1.308148,1.3081475 2.064752,2.9557063 2.269813,4.6598332 l -15.853334,0 C 4.2783939,9.2988521 5.0349982,7.6512933 6.3431458,6.3431458 Z m 0,11.3137082 C 5.0349982,16.348707 4.2783939,14.701148 4.073333,12.997021 h 15.853334 c -0.205061,1.704127 -0.961665,3.351686 -2.269813,4.659833 -3.125412,3.125412 -8.1882963,3.125412 -11.3137082,0 z"
     id="path2" />
</svg>
