<?xml version="1.0" encoding="UTF-8" standalone="no"?>
<svg
   xmlns:dc="http://purl.org/dc/elements/1.1/"
   xmlns:cc="http://creativecommons.org/ns#"
   xmlns:rdf="http://www.w3.org/1999/02/22-rdf-syntax-ns#"
   xmlns:svg="http://www.w3.org/2000/svg"
   xmlns="http://www.w3.org/2000/svg"
   xmlns:sodipodi="http://sodipodi.sourceforge.net/DTD/sodipodi-0.dtd"
   xmlns:inkscape="http://www.inkscape.org/namespaces/inkscape"
   version="1.1"
   id="mdi-go-kart-track"
   width="24"
   height="24"
   viewBox="0 0 24 24"
   sodipodi:docname="spiro.svg"
   inkscape:version="1.0.2 (e86c870879, 2021-01-15)">
  <metadata
     id="metadata9">
    <rdf:RDF>
      <cc:Work
         rdf:about="">
        <dc:format>image/svg+xml</dc:format>
        <dc:type
           rdf:resource="http://purl.org/dc/dcmitype/StillImage" />
      </cc:Work>
    </rdf:RDF>
  </metadata>
  <defs
     id="defs7" />
  <sodipodi:namedview
     pagecolor="#ffffff"
     bordercolor="#666666"
     borderopacity="1"
     objecttolerance="10"
     gridtolerance="10"
     guidetolerance="10"
     inkscape:pageopacity="0"
     inkscape:pageshadow="2"
     inkscape:window-width="1904"
     inkscape:window-height="1000"
     id="namedview5"
     showgrid="false"
     inkscape:zoom="22.607168"
     inkscape:cx="5.1104573"
     inkscape:cy="8.171596"
     inkscape:window-x="26"
     inkscape:window-y="23"
     inkscape:window-maximized="0"
     inkscape:current-layer="mdi-go-kart-track" />
  <path fill="white"
     d="M 22,5.5 C 22,3.5670034 20.432997,2 18.5,2 16.567003,2 15,3.5670034 15,5.5 V 6 C 15,7.6568542 13.656854,9 12,9 10,9 9,6 6,6 3.790861,6 2,7.790861 2,10 v 5 H 4 V 10 C 4,8.8954305 4.8954305,8 6,8 6.86,8 7.42,8.45 8.32,9.24 9.28,10.27 10.6,10.9 12,11 14.761424,11 17,8.7614237 17,6 V 5.5 C 17,4.6715729 17.671573,4 18.5,4 19.328427,4 20,4.6715729 20,5.5 19.86,6.35 19.58,7.18 19.17,7.94 18.5,9.2 18.11,10.58 18,12 c 0.09,1.37 0.5,2.71 1.21,3.89 0.39,0.65 0.66,1.36 0.79,2.11 0,1.104569 -0.895431,2 -2,2 -1.104569,0 -2,-0.895431 -2,-2 0,-2.071068 -1.678932,-3.75 -3.75,-3.75 -2.071068,0 -3.75,1.678932 -3.75,3.75 v 0.5 C 8.5,19.328427 7.8284271,20 7,20 5.3431458,20 4,18.656854 4,17 V 15 H 2 v 2 c 0,2.761424 2.2385763,5 5,5 1.9329966,0 3.5,-1.567003 3.5,-3.5 V 18 c 0,-0.966498 0.783502,-1.75 1.75,-1.75 0.966498,0 1.75,0.783502 1.75,1.75 0,2.209139 1.790861,4 4,4 2.209139,0 4,-1.790861 4,-4 0,-2 -2,-4 -2,-6 0,-2 2,-4.5 2,-6.5 z"
     id="path2"
     sodipodi:nodetypes="sssssssccssccssscccccsssssssccssssssssss" />
</svg>
