<?xml version="1.0" encoding="UTF-8" standalone="no"?>
<svg
   xmlns:dc="http://purl.org/dc/elements/1.1/"
   xmlns:cc="http://creativecommons.org/ns#"
   xmlns:rdf="http://www.w3.org/1999/02/22-rdf-syntax-ns#"
   xmlns:svg="http://www.w3.org/2000/svg"
   xmlns="http://www.w3.org/2000/svg"
   xmlns:sodipodi="http://sodipodi.sourceforge.net/DTD/sodipodi-0.dtd"
   xmlns:inkscape="http://www.inkscape.org/namespaces/inkscape"
   height="24"
   viewBox="0 0 24 24"
   width="24"
   version="1.1"
   id="svg4"
   sodipodi:docname="ui-menu-symbolic.symbolic (copy).svg"
   inkscape:version="1.0.2 (e86c870879, 2021-01-15)">
  <metadata
     id="metadata10">
    <rdf:RDF>
      <cc:Work
         rdf:about="">
        <dc:format>image/svg+xml</dc:format>
        <dc:type
           rdf:resource="http://purl.org/dc/dcmitype/StillImage" />
      </cc:Work>
    </rdf:RDF>
  </metadata>
  <defs
     id="defs8" />
  <sodipodi:namedview
     pagecolor="#ffffff"
     bordercolor="#666666"
     borderopacity="1"
     objecttolerance="10"
     gridtolerance="10"
     guidetolerance="10"
     inkscape:pageopacity="0"
     inkscape:pageshadow="2"
     inkscape:window-width="3824"
     inkscape:window-height="2107"
     id="namedview6"
     showgrid="false"
     inkscape:zoom="42"
     inkscape:cx="12"
     inkscape:cy="12"
     inkscape:window-x="8"
     inkscape:window-y="33"
     inkscape:window-maximized="0"
     inkscape:current-layer="svg4" />
  <path fill="white"
     d="m 8,10.5 c -0.83,0 -1.5,0.67 -1.5,1.5 0,0.83 0.67,1.5 1.5,1.5 0.83,0 1.5,-0.67 1.5,-1.5 C 9.5,11.17 8.83,10.5 8,10.5 Z M 4,4.5 C 3.17,4.5 2.5,5.17 2.5,6 2.5,6.83 3.17,7.5 4,7.5 4.83,7.5 5.5,6.83 5.5,6 5.5,5.17 4.83,4.5 4,4.5 Z m 4,12 c -0.83,0 -1.5,0.68 -1.5,1.5 0,0.82 0.68,1.5 1.5,1.5 0.82,0 1.5,-0.68 1.5,-1.5 0,-0.82 -0.67,-1.5 -1.5,-1.5 z m 4,2.5 h 8 c 0.55,0 1,-0.45 1,-1 0,-0.55 -0.45,-1 -1,-1 h -8 c -0.55,0 -1,0.45 -1,1 0,0.55 0.45,1 1,1 z m 0,-6 h 8 c 0.55,0 1,-0.45 1,-1 0,-0.55 -0.45,-1 -1,-1 h -8 c -0.55,0 -1,0.45 -1,1 0,0.55 0.45,1 1,1 z M 7,6 C 7,6.55 7.45,7 8,7 H 20 C 20.55,7 21,6.55 21,6 21,5.45 20.55,5 20,5 H 8 C 7.45,5 7,5.45 7,6 Z"
     id="path2"
     sodipodi:nodetypes="ssssssssssssssssssssssssssssssssssss" />
</svg>
