<?xml version="1.0" encoding="UTF-8" standalone="no"?>
<svg
   xmlns:dc="http://purl.org/dc/elements/1.1/"
   xmlns:cc="http://creativecommons.org/ns#"
   xmlns:rdf="http://www.w3.org/1999/02/22-rdf-syntax-ns#"
   xmlns:svg="http://www.w3.org/2000/svg"
   xmlns="http://www.w3.org/2000/svg"
   xmlns:sodipodi="http://sodipodi.sourceforge.net/DTD/sodipodi-0.dtd"
   xmlns:inkscape="http://www.inkscape.org/namespaces/inkscape"
   height="24"
   viewBox="0 0 24 24"
   width="24"
   version="1.1"
   id="svg4"
   sodipodi:docname="view-calendar-wedding-anniversary.svg"
   inkscape:version="1.0.2 (e86c870879, 2021-01-15)">
  <metadata
     id="metadata10">
    <rdf:RDF>
      <cc:Work
         rdf:about="">
        <dc:format>image/svg+xml</dc:format>
        <dc:type
           rdf:resource="http://purl.org/dc/dcmitype/StillImage" />
        <dc:title></dc:title>
      </cc:Work>
    </rdf:RDF>
  </metadata>
  <defs
     id="defs8" />
  <sodipodi:namedview
     pagecolor="#ffffff"
     bordercolor="#666666"
     borderopacity="1"
     objecttolerance="10"
     gridtolerance="10"
     guidetolerance="10"
     inkscape:pageopacity="0"
     inkscape:pageshadow="2"
     inkscape:window-width="1302"
     inkscape:window-height="1031"
     id="namedview6"
     showgrid="false"
     inkscape:zoom="14.849242"
     inkscape:cx="11.97123"
     inkscape:cy="0.66189419"
     inkscape:window-x="1220"
     inkscape:window-y="1084"
     inkscape:window-maximized="0"
     inkscape:current-layer="svg4"
     inkscape:document-rotation="0" />
  <path fill="#ffffff"
     d="M 19,3 H 18 V 2 C 18,1.45 17.55,1 17,1 16.45,1 16,1.45 16,2 V 3 H 8 V 2 C 8,1.45 7.55,1 7,1 6.45,1 6,1.45 6,2 V 3 H 5 C 3.89,3 3.01,3.9 3.01,5 L 3,19 c 0,1.1 0.89,2 2,2 h 14 c 1.1,0 2,-0.9 2,-2 V 5 C 21,3.9 20.1,3 19,3 Z M 18,19 H 6 C 5.45,19 5,18.55 5,18 V 8 h 14 v 10 c 0,0.55 -0.45,1 -1,1 z"
     id="path2"
     sodipodi:nodetypes="scsssccssscsccssssssssccss" />
  <path fill="#ffffff"
     d="m 12,17.17 -0.58,-0.53 c -2.0599997,-1.87 -3.4199997,-3.1 -3.4199997,-4.61 0,-1.23 0.97,-2.2 2.1999997,-2.2 0.7,0 1.36,0.32 1.8,0.83 0.44,-0.51 1.1,-0.83 1.8,-0.83 1.23,0 2.2,0.97 2.2,2.2 0,1.51 -1.36,2.74 -3.42,4.61 z"
     id="path2-3"
     sodipodi:nodetypes="ccsscsscc" />
</svg>
