<?xml version="1.0" encoding="UTF-8" standalone="no"?>
<svg
   xmlns:dc="http://purl.org/dc/elements/1.1/"
   xmlns:cc="http://creativecommons.org/ns#"
   xmlns:rdf="http://www.w3.org/1999/02/22-rdf-syntax-ns#"
   xmlns:svg="http://www.w3.org/2000/svg"
   xmlns="http://www.w3.org/2000/svg"
   xmlns:sodipodi="http://sodipodi.sourceforge.net/DTD/sodipodi-0.dtd"
   xmlns:inkscape="http://www.inkscape.org/namespaces/inkscape"
   version="1.1"
   id="mdi-arrow-collapse-right"
   width="24"
   height="24"
   viewBox="0 0 24 24"
   sodipodi:docname="x-zoom-in (copy).svg"
   inkscape:version="1.0.2 (e86c870879, 2021-01-15)">
  <metadata
     id="metadata9">
    <rdf:RDF>
      <cc:Work
         rdf:about="">
        <dc:format>image/svg+xml</dc:format>
        <dc:type
           rdf:resource="http://purl.org/dc/dcmitype/StillImage" />
      </cc:Work>
    </rdf:RDF>
  </metadata>
  <defs
     id="defs7" />
  <sodipodi:namedview
     pagecolor="#ffffff"
     bordercolor="#666666"
     borderopacity="1"
     objecttolerance="10"
     gridtolerance="10"
     guidetolerance="10"
     inkscape:pageopacity="0"
     inkscape:pageshadow="2"
     inkscape:window-width="1920"
     inkscape:window-height="1011"
     id="namedview5"
     showgrid="false"
     inkscape:zoom="25.00354"
     inkscape:cx="15.632387"
     inkscape:cy="13.858448"
     inkscape:window-x="0"
     inkscape:window-y="0"
     inkscape:window-maximized="1"
     inkscape:current-layer="mdi-arrow-collapse-right"
     inkscape:document-rotation="0" />
  <path fill="white"
     id="path2-3"
     d="M 2,3 C 2,3.55 2.45,4 3,4 H 21 C 21.55,4 22,3.55 22,3 22,2.45 21.55,2 21,2 H 3 C 2.45,2 2,2.45 2,3 Z m 2.4179688,10.594921 c 0,0.255 0.097969,0.510079 0.2929687,0.705079 0.39,0.39 1.0182032,0.39 1.4082031,0 L 11,9.41914 V 21 c 0,0.55 0.45,1 1,1 0.55,0 1,-0.45 1,-1 V 9.41914 L 17.880859,14.3 c 0.39,0.39 1.029922,0.39 1.419922,0 0.39,-0.390001 0.39,-1.020157 0,-1.410157 L 12.710938,6.3 c -0.390001,-0.390001 -1.020157,-0.390001 -1.410157,0 l -6.5898435,6.589843 c -0.195,0.195 -0.2929687,0.450078 -0.2929687,0.705078 z"
     sodipodi:nodetypes="sssssssssscssscsssscss" />
</svg>
