<?xml version="1.0" encoding="UTF-8" standalone="no"?>
<svg
   xmlns:dc="http://purl.org/dc/elements/1.1/"
   xmlns:cc="http://creativecommons.org/ns#"
   xmlns:rdf="http://www.w3.org/1999/02/22-rdf-syntax-ns#"
   xmlns:svg="http://www.w3.org/2000/svg"
   xmlns="http://www.w3.org/2000/svg"
   xmlns:sodipodi="http://sodipodi.sourceforge.net/DTD/sodipodi-0.dtd"
   xmlns:inkscape="http://www.inkscape.org/namespaces/inkscape"
   version="1.1"
   id="mdi-arrow-decision"
   width="24"
   height="24"
   viewBox="0 0 24 24"
   sodipodi:docname="distribute-unclump.svg"
   inkscape:version="1.0.2 (e86c870879, 2021-01-15)">
  <metadata
     id="metadata9">
    <rdf:RDF>
      <cc:Work
         rdf:about="">
        <dc:format>image/svg+xml</dc:format>
        <dc:type
           rdf:resource="http://purl.org/dc/dcmitype/StillImage" />
      </cc:Work>
    </rdf:RDF>
  </metadata>
  <defs
     id="defs7" />
  <sodipodi:namedview
     pagecolor="#ffffff"
     bordercolor="#666666"
     borderopacity="1"
     objecttolerance="10"
     gridtolerance="10"
     guidetolerance="10"
     inkscape:pageopacity="0"
     inkscape:pageshadow="2"
     inkscape:window-width="1920"
     inkscape:window-height="1011"
     id="namedview5"
     showgrid="false"
     inkscape:zoom="19.48252"
     inkscape:cx="2.0080622"
     inkscape:cy="14.433983"
     inkscape:window-x="0"
     inkscape:window-y="0"
     inkscape:window-maximized="1"
     inkscape:current-layer="mdi-arrow-decision" />
  <path fill="#5294e2"
     id="path2"
     d="M 11.994141 1.2109375 C 11.866641 1.2109375 11.740625 1.259375 11.640625 1.359375 L 8.8496094 4.1503906 C 8.5396094 4.4603906 8.7609375 5 9.2109375 5 L 11 5 L 11 5.0097656 L 11 11.119141 C 11.58 10.459141 12.25 9.8896875 13 9.4296875 L 13 5.0097656 L 13 5 L 14.789062 5 C 15.239062 5 15.460625 4.4603906 15.140625 4.1503906 L 12.349609 1.359375 C 12.249609 1.259375 12.121641 1.2109375 11.994141 1.2109375 z M 18.537109 7.6816406 C 18.254453 7.6338281 17.949219 7.8421877 17.949219 8.1796875 L 17.949219 9.9707031 L 17.939453 9.9707031 C 14.333812 9.8261332 11.309717 12.573211 11 16.169922 C 9.44 16.719922 8.6199219 18.44 9.1699219 20 C 9.7199219 21.56 11.44 22.380078 13 21.830078 C 14.56 21.270078 15.380078 19.56 14.830078 18 C 14.530078 17.14 13.85 16.469922 13 16.169922 C 13.468266 12.184682 17.435439 11.972222 17.939453 11.970703 L 17.949219 11.970703 L 17.949219 13.759766 C 17.949219 14.209766 18.490781 14.429375 18.800781 14.109375 L 21.589844 11.320312 C 21.789844 11.120313 21.789844 10.809375 21.589844 10.609375 L 18.800781 7.8203125 C 18.723281 7.7428125 18.631328 7.6975781 18.537109 7.6816406 z M 5.4140625 7.7167969 C 5.3198437 7.7341406 5.2278906 7.779375 5.1503906 7.859375 L 2.359375 10.650391 C 2.159375 10.850391 2.159375 11.159375 2.359375 11.359375 L 5.1503906 14.150391 C 5.4603906 14.460391 6 14.239063 6 13.789062 L 6 12 L 6.0097656 12 C 7.3462611 12.032063 8.6330825 12.50258 9.640625 13.400391 C 9.890625 12.760391 10.220859 12.149844 10.630859 11.589844 C 9.3039803 10.572237 7.6776113 10.002668 6.0117188 10 C 6.0110657 9.999999 6.0104187 10.000001 6.0097656 10 L 6 10 L 6 8.2109375 C 6 7.8734375 5.6967188 7.6647656 5.4140625 7.7167969 z " />
</svg>
