<?xml version="1.0" encoding="UTF-8" standalone="no"?>
<svg
   xmlns:dc="http://purl.org/dc/elements/1.1/"
   xmlns:cc="http://creativecommons.org/ns#"
   xmlns:rdf="http://www.w3.org/1999/02/22-rdf-syntax-ns#"
   xmlns:svg="http://www.w3.org/2000/svg"
   xmlns="http://www.w3.org/2000/svg"
   xmlns:sodipodi="http://sodipodi.sourceforge.net/DTD/sodipodi-0.dtd"
   xmlns:inkscape="http://www.inkscape.org/namespaces/inkscape"
   version="1.1"
   id="mdi-arrow-collapse-horizontal"
   width="24"
   height="24"
   viewBox="0 0 24 24"
   sodipodi:docname="distribute-horizontal-equal.svg"
   inkscape:version="1.0.2 (e86c870879, 2021-01-15)">
  <metadata
     id="metadata9">
    <rdf:RDF>
      <cc:Work
         rdf:about="">
        <dc:format>image/svg+xml</dc:format>
        <dc:type
           rdf:resource="http://purl.org/dc/dcmitype/StillImage" />
      </cc:Work>
    </rdf:RDF>
  </metadata>
  <defs
     id="defs7" />
  <sodipodi:namedview
     pagecolor="#ffffff"
     bordercolor="#666666"
     borderopacity="1"
     objecttolerance="10"
     gridtolerance="10"
     guidetolerance="10"
     inkscape:pageopacity="0"
     inkscape:pageshadow="2"
     inkscape:window-width="1920"
     inkscape:window-height="1011"
     id="namedview5"
     showgrid="false"
     inkscape:zoom="33.208333"
     inkscape:cx="11.47781"
     inkscape:cy="13.371785"
     inkscape:window-x="0"
     inkscape:window-y="0"
     inkscape:window-maximized="1"
     inkscape:current-layer="mdi-arrow-collapse-horizontal"
     inkscape:document-rotation="0" />
  <path fill="#5294e2"
     id="path2-3"
     d="M 11 4 C 10.45 4 10 4.45 10 5 L 10 19 C 10 19.55 10.45 20 11 20 C 11.55 20 12 19.55 12 19 L 12 5 C 12 4.45 11.55 4 11 4 z M 14 4 C 13.45 4 13 4.45 13 5 L 13 19 C 13 19.55 13.45 20 14 20 C 14.55 20 15 19.55 15 19 L 15 5 C 15 4.45 14.55 4 14 4 z M 5.203125 8.7128906 C 5.1089063 8.7288281 5.0169531 8.7721094 4.9394531 8.8496094 L 2.1503906 11.640625 C 1.9503906 11.840626 1.9503906 12.14961 2.1503906 12.349609 L 4.9394531 15.140625 C 5.2494531 15.460625 5.7890625 15.239062 5.7890625 14.789062 L 5.7890625 13 L 7.7890625 13 C 8.3390625 13 8.7890625 12.55 8.7890625 12 C 8.7890625 11.45 8.3390625 11 7.7890625 11 L 5.7890625 11 L 5.7890625 9.2109375 C 5.7890625 8.8734375 5.4857813 8.6650781 5.203125 8.7128906 z M 19.796875 8.7128906 C 19.514219 8.6650781 19.210937 8.8734375 19.210938 9.2109375 L 19.210938 11 L 17.210938 11 C 16.660937 11 16.210938 11.45 16.210938 12 C 16.210938 12.55 16.660937 13 17.210938 13 L 19.210938 13 L 19.210938 14.789062 C 19.210938 15.239062 19.750547 15.460625 20.060547 15.140625 L 22.849609 12.349609 C 23.049609 12.14961 23.049609 11.840626 22.849609 11.640625 L 20.060547 8.8496094 C 19.983047 8.7721094 19.891094 8.7288281 19.796875 8.7128906 z " />
</svg>
