<?xml version="1.0" encoding="UTF-8" standalone="no"?>
<svg
   xmlns:dc="http://purl.org/dc/elements/1.1/"
   xmlns:cc="http://creativecommons.org/ns#"
   xmlns:rdf="http://www.w3.org/1999/02/22-rdf-syntax-ns#"
   xmlns:svg="http://www.w3.org/2000/svg"
   xmlns="http://www.w3.org/2000/svg"
   xmlns:sodipodi="http://sodipodi.sourceforge.net/DTD/sodipodi-0.dtd"
   xmlns:inkscape="http://www.inkscape.org/namespaces/inkscape"
   version="1.1"
   id="mdi-folder-multiple-plus"
   width="24"
   height="24"
   viewBox="0 0 24 24"
   sodipodi:docname="folder-copy.svg"
   inkscape:version="1.0.2 (e86c870879, 2021-01-15)">
  <metadata
     id="metadata9">
    <rdf:RDF>
      <cc:Work
         rdf:about="">
        <dc:format>image/svg+xml</dc:format>
        <dc:type
           rdf:resource="http://purl.org/dc/dcmitype/StillImage" />
      </cc:Work>
    </rdf:RDF>
  </metadata>
  <defs
     id="defs7" />
  <sodipodi:namedview
     pagecolor="#ffffff"
     bordercolor="#666666"
     borderopacity="1"
     objecttolerance="10"
     gridtolerance="10"
     guidetolerance="10"
     inkscape:pageopacity="0"
     inkscape:pageshadow="2"
     inkscape:window-width="3824"
     inkscape:window-height="2107"
     id="namedview5"
     showgrid="false"
     inkscape:zoom="42"
     inkscape:cx="12"
     inkscape:cy="12"
     inkscape:window-x="8"
     inkscape:window-y="33"
     inkscape:window-maximized="0"
     inkscape:current-layer="mdi-folder-multiple-plus" />
  <path fill="#5294e2"
     d="m 21.97619,8 h -8 l -2,-2 H 5.9761905 c -0.4,0 -0.8,0.1 -1.1,0.3 l -0.6,0.6 c -0.2,0.3 -0.3,0.7 -0.3,1.1 v 12 c 0,0.4 0.1,0.8 0.3,1.1 0.1,0.1 0.2,0.2 0.2,0.3 0.5,0.4 1,0.6 1.5,0.6 H 21.97619 c 1.1,0 2,-0.9 2,-2 V 10 c 0,-1.1 -0.9,-2 -2,-2"
     id="path2"
     sodipodi:nodetypes="cccsccssccssssc" />
  <path fill="#5294e2"
     d="M 19,2 H 2 C 0.9,2 0,2.9 0,4 v 13.000001 c 0,0.55 0.45,1 0.99999997,1 C 1.55,18.000001 2,17.550001 2,17.000001 V 5 C 2,4.45 2.45,4 3,4 H 19 C 19.55,4 20,3.55 20,3 20,2.45 19.55,2 19,2 Z"
     id="path2-3"
     sodipodi:nodetypes="sssssssssss" />
</svg>
