<?xml version="1.0" encoding="UTF-8" standalone="no"?>
<svg
   xmlns:dc="http://purl.org/dc/elements/1.1/"
   xmlns:cc="http://creativecommons.org/ns#"
   xmlns:rdf="http://www.w3.org/1999/02/22-rdf-syntax-ns#"
   xmlns:svg="http://www.w3.org/2000/svg"
   xmlns="http://www.w3.org/2000/svg"
   xmlns:sodipodi="http://sodipodi.sourceforge.net/DTD/sodipodi-0.dtd"
   xmlns:inkscape="http://www.inkscape.org/namespaces/inkscape"
   height="24"
   viewBox="0 0 24 24"
   width="24"
   version="1.1"
   id="svg4"
   sodipodi:docname="keyboard-extend-symbolic.svg"
   inkscape:version="1.0.1 (3bc2e813f5, 2020-09-07)">
  <metadata
     id="metadata10">
    <rdf:RDF>
      <cc:Work
         rdf:about="">
        <dc:format>image/svg+xml</dc:format>
        <dc:type
           rdf:resource="http://purl.org/dc/dcmitype/StillImage" />
      </cc:Work>
    </rdf:RDF>
  </metadata>
  <defs
     id="defs8" />
  <sodipodi:namedview
     pagecolor="#ffffff"
     bordercolor="#666666"
     borderopacity="1"
     objecttolerance="10"
     gridtolerance="10"
     guidetolerance="10"
     inkscape:pageopacity="0"
     inkscape:pageshadow="2"
     inkscape:window-width="1908"
     inkscape:window-height="1054"
     id="namedview6"
     showgrid="false"
     inkscape:zoom="39.833333"
     inkscape:cx="12"
     inkscape:cy="16.016736"
     inkscape:window-x="8"
     inkscape:window-y="35"
     inkscape:window-maximized="0"
     inkscape:current-layer="svg4" />
  <path fill="#5294e2"
     d="M 20,8.7925 H 4 c -1.1,0 -1.99,0.9 -1.99,2 l -0.01,10 c 0,1.1 0.9,2 2,2 h 16 c 1.1,0 2,-2 2,-2 v -10 c 0,0 -0.9,-2 -2,-2 z m -9,3 h 2 v 2 h -2 z m 0,3 h 2 v 2 h -2 z m -3,-3 h 2 v 2 H 8 Z m 0,3 h 2 v 2 H 8 Z m -1,2 H 5 v -2 h 2 z m 0,-3 H 5 v -2 h 2 z m 8,7 H 9 c -0.55,0 -1,-0.45 -1,-1 0,-0.55 0.45,-1 1,-1 h 6 c 0.55,0 1,0.45 1,1 0,0.55 -0.45,1 -1,1 z m 1,-4 h -2 v -2 h 2 z m 0,-3 h -2 v -2 h 2 z m 3,3 h -2 v -2 h 2 z m 0,-3 h -2 v -2 h 2 z m -6.65,-10.65 2.79,2.79 c 0.31,0.31 0.09,0.85 -0.35,0.85 H 9.21 c -0.45,0 -0.67,-0.54 -0.35,-0.85 l 2.79,-2.79 c 0.19,-0.19 0.51,-0.19 0.7,0 z"
     id="path2"
     sodipodi:nodetypes="ssccsssssccccccccccccccccccccccccccccccsssssssccccccccccccccccccccsssscss" />
</svg>
