<?xml version="1.0" encoding="UTF-8" standalone="no"?>
<svg
   xmlns:dc="http://purl.org/dc/elements/1.1/"
   xmlns:cc="http://creativecommons.org/ns#"
   xmlns:rdf="http://www.w3.org/1999/02/22-rdf-syntax-ns#"
   xmlns:svg="http://www.w3.org/2000/svg"
   xmlns="http://www.w3.org/2000/svg"
   xmlns:sodipodi="http://sodipodi.sourceforge.net/DTD/sodipodi-0.dtd"
   xmlns:inkscape="http://www.inkscape.org/namespaces/inkscape"
   version="1.1"
   id="mdi-grid"
   width="24"
   height="24"
   viewBox="0 0 24 24"
   sodipodi:docname="grid.svg"
   inkscape:version="1.0.2 (e86c870879, 2021-01-15)">
  <metadata
     id="metadata9">
    <rdf:RDF>
      <cc:Work
         rdf:about="">
        <dc:format>image/svg+xml</dc:format>
        <dc:type
           rdf:resource="http://purl.org/dc/dcmitype/StillImage" />
      </cc:Work>
    </rdf:RDF>
  </metadata>
  <defs
     id="defs7" />
  <sodipodi:namedview
     pagecolor="#ffffff"
     bordercolor="#666666"
     borderopacity="1"
     objecttolerance="10"
     gridtolerance="10"
     guidetolerance="10"
     inkscape:pageopacity="0"
     inkscape:pageshadow="2"
     inkscape:window-width="1908"
     inkscape:window-height="2107"
     id="namedview5"
     showgrid="false"
     inkscape:zoom="42"
     inkscape:cx="12"
     inkscape:cy="12"
     inkscape:window-x="1924"
     inkscape:window-y="33"
     inkscape:window-maximized="0"
     inkscape:current-layer="mdi-grid" />
  <path fill="#B9D4F0"
     d="m 10,4 v 5 h 4 V 4 h -4 m 6,0 v 5 h 4 V 4 h -4 m 0,7 v 2 h 4 v -2 h -4 m 0,4 v 5 h 4 v -5 h -4 m -2,5 v -5 h -4 v 5 h 4 M 8,20 V 15 H 4 v 5 H 8 M 8,13 V 11 H 4 v 2 H 8 M 8,9 V 4 H 4 v 5 h 4 m 2,4 h 4 v -2 h -4 v 2 M 4,2 h 16 c 1.104569,0 2,0.8954305 2,2 v 16 c 0,1.104569 -0.895431,2 -2,2 H 4 C 2.92,22 2,21.1 2,20 V 4 C 2,2.8954305 2.8954305,2 4,2 Z"
     id="path2"
     sodipodi:nodetypes="cccccccccccccccccccccccccccccccccccccccccccccsssssssss" />
</svg>
