<?xml version="1.0" encoding="UTF-8" standalone="no"?>
<svg
   xmlns:dc="http://purl.org/dc/elements/1.1/"
   xmlns:cc="http://creativecommons.org/ns#"
   xmlns:rdf="http://www.w3.org/1999/02/22-rdf-syntax-ns#"
   xmlns:svg="http://www.w3.org/2000/svg"
   xmlns="http://www.w3.org/2000/svg"
   xmlns:sodipodi="http://sodipodi.sourceforge.net/DTD/sodipodi-0.dtd"
   xmlns:inkscape="http://www.inkscape.org/namespaces/inkscape"
   version="1.1"
   id="mdi-table"
   width="24"
   height="24"
   viewBox="0 0 24 24"
   sodipodi:docname="table.svg"
   inkscape:version="1.0.2 (e86c870879, 2021-01-15)">
  <metadata
     id="metadata9">
    <rdf:RDF>
      <cc:Work
         rdf:about="">
        <dc:format>image/svg+xml</dc:format>
        <dc:type
           rdf:resource="http://purl.org/dc/dcmitype/StillImage" />
      </cc:Work>
    </rdf:RDF>
  </metadata>
  <defs
     id="defs7" />
  <sodipodi:namedview
     pagecolor="#ffffff"
     bordercolor="#666666"
     borderopacity="1"
     objecttolerance="10"
     gridtolerance="10"
     guidetolerance="10"
     inkscape:pageopacity="0"
     inkscape:pageshadow="2"
     inkscape:window-width="3824"
     inkscape:window-height="2107"
     id="namedview5"
     showgrid="false"
     inkscape:zoom="42"
     inkscape:cx="12"
     inkscape:cy="12"
     inkscape:window-x="8"
     inkscape:window-y="33"
     inkscape:window-maximized="0"
     inkscape:current-layer="mdi-table" />
  <path fill="#5294e2"
     id="path2"
     d="M 4.9511719 4 A 2 2 0 0 0 3 6 L 3 18 A 2 2 0 0 0 5 20 L 19 20 A 2 2 0 0 0 21 18 L 21 6 A 2 2 0 0 0 19 4 L 5 4 A 2 2 0 0 0 4.9511719 4 z M 5 8 L 11 8 L 13 8 L 19 8 L 19 12 L 19 14 L 19 18 L 13 18 L 11 18 L 5 18 L 5 14 L 5 12 L 5 8 z " />
</svg>
