<?xml version="1.0" encoding="UTF-8" standalone="no"?>
<svg
   xmlns:dc="http://purl.org/dc/elements/1.1/"
   xmlns:cc="http://creativecommons.org/ns#"
   xmlns:rdf="http://www.w3.org/1999/02/22-rdf-syntax-ns#"
   xmlns:svg="http://www.w3.org/2000/svg"
   xmlns="http://www.w3.org/2000/svg"
   xmlns:sodipodi="http://sodipodi.sourceforge.net/DTD/sodipodi-0.dtd"
   xmlns:inkscape="http://www.inkscape.org/namespaces/inkscape"
   version="1.1"
   width="24"
   height="24"
   viewBox="0 0 24 24"
   id="svg4"
   sodipodi:docname="no lingerie.svg"
   inkscape:version="1.0.2 (e86c870879, 2021-01-15)">
  <metadata
     id="metadata10">
    <rdf:RDF>
      <cc:Work
         rdf:about="">
        <dc:format>image/svg+xml</dc:format>
        <dc:type
           rdf:resource="http://purl.org/dc/dcmitype/StillImage" />
      </cc:Work>
    </rdf:RDF>
  </metadata>
  <defs
     id="defs8" />
  <sodipodi:namedview
     pagecolor="#ffffff"
     bordercolor="#666666"
     borderopacity="1"
     objecttolerance="10"
     gridtolerance="10"
     guidetolerance="10"
     inkscape:pageopacity="0"
     inkscape:pageshadow="2"
     inkscape:window-width="1908"
     inkscape:window-height="2107"
     id="namedview6"
     showgrid="false"
     inkscape:zoom="42"
     inkscape:cx="12"
     inkscape:cy="8.1904762"
     inkscape:window-x="1924"
     inkscape:window-y="33"
     inkscape:window-maximized="0"
     inkscape:current-layer="svg4" />
  <path fill="#5294e2"
     d="M22 7H20V2H18V4.34L12 6.91L6 4.34V2H4V7H2V9H4.05C4.3 11.25 6.19 13 8.5 13C9.92 13 11.18 12.33 12 11.3C12.83 12.33 14.08 13 15.5 13C17.81 13 19.7 11.25 19.95 9H22V7M8.5 11C7.12 11 6 9.88 6 8.5V6.5L11 8.65C10.9 9.96 9.83 11 8.5 11M18 8.5C18 9.88 16.88 11 15.5 11C14.17 11 13.1 9.96 13 8.65L18 6.5V8.5M2 15V17H3C5.97 17 8.43 19.17 8.91 22H15.09C15.57 19.17 18.03 17 21 17H22V15H2M13.59 20H10.41C9.94 18.84 9.21 17.82 8.29 17H15.71C14.79 17.82 14.06 18.84 13.59 20Z"
     id="path2" />
</svg>
