<?xml version="1.0" encoding="UTF-8" standalone="no"?>
<svg
   xmlns:dc="http://purl.org/dc/elements/1.1/"
   xmlns:cc="http://creativecommons.org/ns#"
   xmlns:rdf="http://www.w3.org/1999/02/22-rdf-syntax-ns#"
   xmlns:svg="http://www.w3.org/2000/svg"
   xmlns="http://www.w3.org/2000/svg"
   xmlns:sodipodi="http://sodipodi.sourceforge.net/DTD/sodipodi-0.dtd"
   xmlns:inkscape="http://www.inkscape.org/namespaces/inkscape"
   height="24"
   viewBox="0 0 24 24"
   width="24"
   version="1.1"
   id="svg4"
   sodipodi:docname="run-build-install-root (copy).svg"
   inkscape:version="1.0.2 (e86c870879, 2021-01-15)">
  <metadata
     id="metadata10">
    <rdf:RDF>
      <cc:Work
         rdf:about="">
        <dc:format>image/svg+xml</dc:format>
        <dc:type
           rdf:resource="http://purl.org/dc/dcmitype/StillImage" />
      </cc:Work>
    </rdf:RDF>
  </metadata>
  <defs
     id="defs8" />
  <sodipodi:namedview
     pagecolor="#ffffff"
     bordercolor="#666666"
     borderopacity="1"
     objecttolerance="10"
     gridtolerance="10"
     guidetolerance="10"
     inkscape:pageopacity="0"
     inkscape:pageshadow="2"
     inkscape:window-width="1908"
     inkscape:window-height="1031"
     id="namedview6"
     showgrid="false"
     inkscape:zoom="14.849242"
     inkscape:cx="-11.206625"
     inkscape:cy="8.962826"
     inkscape:window-x="8"
     inkscape:window-y="1109"
     inkscape:window-maximized="0"
     inkscape:current-layer="svg4"
     inkscape:document-rotation="0" />
  <path fill="#5294e2"
     id="path2"
     d="M 10 2 C 9.75 2 9.5397656 2.1799219 9.5097656 2.4199219 L 9.1308594 5.0703125 C 8.5208594 5.3203125 7.9594531 5.6607812 7.4394531 6.0507812 L 4.9492188 5.0507812 C 4.7192187 4.9607813 4.4598438 5.0495313 4.3398438 5.2695312 L 2.3398438 8.7304688 C 2.2098438 8.9504686 2.2709378 9.2191406 2.4609375 9.3691406 L 4.5703125 11.019531 C 4.5303125 11.339531 4.5 11.67 4.5 12 C 4.5 12.33 4.5303125 12.660469 4.5703125 12.980469 L 2.4609375 14.630859 C 2.2709375 14.780859 2.2198437 15.049531 2.3398438 15.269531 L 4.3398438 18.730469 C 4.4598438 18.950469 4.7292186 19.029219 4.9492188 18.949219 L 7.4394531 17.949219 C 7.9594531 18.349219 8.5208594 18.679686 9.1308594 18.929688 L 9.5097656 21.580078 C 9.5397661 21.820078 9.75 22 10 22 L 14 22 C 14.25 22 14.460234 21.820078 14.490234 21.580078 L 14.869141 18.929688 C 15.479141 18.679688 16.040547 18.339219 16.560547 17.949219 L 19.050781 18.949219 C 19.280781 19.039219 19.540156 18.950419 19.660156 18.730469 L 21.660156 15.269531 C 21.780156 15.049531 21.729066 14.780859 21.539062 14.630859 L 19.429688 12.980469 C 19.469686 12.660469 19.5 12.34 19.5 12 C 19.5 11.66 19.469687 11.339531 19.429688 11.019531 L 21.539062 9.3691406 C 21.729063 9.2191406 21.780156 8.9504687 21.660156 8.7304688 L 19.660156 5.2695312 C 19.540156 5.0495313 19.270781 4.9707814 19.050781 5.0507812 L 16.560547 6.0507812 C 16.040547 5.6507813 15.479141 5.3203125 14.869141 5.0703125 L 14.490234 2.4199219 C 14.460234 2.1799219 14.25 2 14 2 L 10 2 z M 10.404297 9.4082031 C 10.659297 9.4082031 10.914375 9.5042187 11.109375 9.6992188 L 12 10.589844 L 12.890625 9.7109375 C 13.280625 9.3209375 13.910781 9.3209375 14.300781 9.7109375 C 14.680781 10.090938 14.680781 10.729375 14.300781 11.109375 L 13.410156 12 L 14.300781 12.890625 C 14.690781 13.280625 14.690781 13.910781 14.300781 14.300781 C 13.910781 14.690781 13.280625 14.690781 12.890625 14.300781 L 12 13.410156 L 11.109375 14.300781 C 10.719375 14.690781 10.089219 14.690781 9.6992188 14.300781 C 9.3092187 13.910781 9.3092187 13.280625 9.6992188 12.890625 L 10.589844 12 L 9.6992188 11.109375 C 9.3092188 10.719375 9.3092188 10.089219 9.6992188 9.6992188 C 9.8942188 9.5042187 10.149297 9.4082031 10.404297 9.4082031 z " />
</svg>
