<?xml version="1.0" encoding="UTF-8" standalone="no"?>
<svg
   xmlns:dc="http://purl.org/dc/elements/1.1/"
   xmlns:cc="http://creativecommons.org/ns#"
   xmlns:rdf="http://www.w3.org/1999/02/22-rdf-syntax-ns#"
   xmlns:svg="http://www.w3.org/2000/svg"
   xmlns="http://www.w3.org/2000/svg"
   xmlns:sodipodi="http://sodipodi.sourceforge.net/DTD/sodipodi-0.dtd"
   xmlns:inkscape="http://www.inkscape.org/namespaces/inkscape"
   version="1.1"
   id="mdi-layers-minus"
   width="24"
   height="24"
   viewBox="0 0 24 24"
   sodipodi:docname="selection-move-to-layer-below.svg"
   inkscape:version="1.0.2 (e86c870879, 2021-01-15)">
  <metadata
     id="metadata9">
    <rdf:RDF>
      <cc:Work
         rdf:about="">
        <dc:format>image/svg+xml</dc:format>
        <dc:type
           rdf:resource="http://purl.org/dc/dcmitype/StillImage" />
      </cc:Work>
    </rdf:RDF>
  </metadata>
  <defs
     id="defs7" />
  <sodipodi:namedview
     pagecolor="#ffffff"
     bordercolor="#666666"
     borderopacity="1"
     objecttolerance="10"
     gridtolerance="10"
     guidetolerance="10"
     inkscape:pageopacity="0"
     inkscape:pageshadow="2"
     inkscape:window-width="2324"
     inkscape:window-height="1017"
     id="namedview5"
     showgrid="false"
     inkscape:zoom="14.849242"
     inkscape:cx="30.429103"
     inkscape:cy="14.248746"
     inkscape:window-x="5348"
     inkscape:window-y="1097"
     inkscape:window-maximized="0"
     inkscape:current-layer="mdi-layers-minus" />
  <path fill="#B9D4F0"
     id="path2-3"
     d="M 11.009766 2.5058594 C 10.66817 2.5058594 10.327876 2.5958683 10.019531 2.7695312 L 2.9199219 8.2929688 C 2.5163099 8.7114588 2.5448531 9.4046296 3.0175781 9.7753906 L 9.7773438 15.035156 C 10.497344 15.595156 11.516328 15.595425 12.236328 15.025391 L 18.996094 9.765625 C 19.440367 9.417174 19.497733 8.7801979 19.167969 8.3574219 L 11.941406 2.7363281 C 11.651072 2.583528 11.330188 2.5058594 11.009766 2.5058594 z M 3.6171875 13.056641 C 3.4461495 13.056641 3.2803701 13.112571 3.1269531 13.201172 L 2.875 13.396484 C 2.506055 13.816336 2.5481425 14.475412 3.0078125 14.835938 L 9.7675781 20.095703 C 10.487578 20.655703 11.496563 20.655703 12.226562 20.095703 L 12.349609 20 C 12.120998 19.391451 12.001953 18.713665 12.001953 18.005859 L 12.001953 17.755859 L 11.001953 18.544922 L 4.1367188 13.216797 C 3.9760698 13.11668 3.7990015 13.056641 3.6171875 13.056641 z M 15.001953 17.005859 C 14.451953 17.005859 14.001953 17.455859 14.001953 18.005859 C 14.001953 18.555859 14.451953 19.005859 15.001953 19.005859 L 17.001953 19.005859 L 19.001953 19.005859 L 21.001953 19.005859 C 21.551953 19.005859 22.001953 18.555859 22.001953 18.005859 C 22.001953 17.455859 21.551953 17.005859 21.001953 17.005859 L 19.001953 17.005859 L 17.001953 17.005859 L 15.001953 17.005859 z " />
</svg>
