<?xml version="1.0" encoding="UTF-8" standalone="no"?>
<svg
   xmlns:dc="http://purl.org/dc/elements/1.1/"
   xmlns:cc="http://creativecommons.org/ns#"
   xmlns:rdf="http://www.w3.org/1999/02/22-rdf-syntax-ns#"
   xmlns:svg="http://www.w3.org/2000/svg"
   xmlns="http://www.w3.org/2000/svg"
   xmlns:sodipodi="http://sodipodi.sourceforge.net/DTD/sodipodi-0.dtd"
   xmlns:inkscape="http://www.inkscape.org/namespaces/inkscape"
   height="24"
   viewBox="0 0 24 24"
   width="24"
   version="1.1"
   id="svg4"
   sodipodi:docname="stroke-join-bevel-symbolic.svg"
   inkscape:version="1.0.1 (3bc2e813f5, 2020-09-07)">
  <metadata
     id="metadata10">
    <rdf:RDF>
      <cc:Work
         rdf:about="">
        <dc:format>image/svg+xml</dc:format>
        <dc:type
           rdf:resource="http://purl.org/dc/dcmitype/StillImage" />
      </cc:Work>
    </rdf:RDF>
  </metadata>
  <defs
     id="defs8" />
  <sodipodi:namedview
     pagecolor="#ffffff"
     bordercolor="#666666"
     borderopacity="1"
     objecttolerance="10"
     gridtolerance="10"
     guidetolerance="10"
     inkscape:pageopacity="0"
     inkscape:pageshadow="2"
     inkscape:window-width="950"
     inkscape:window-height="1022"
     id="namedview6"
     showgrid="false"
     inkscape:zoom="39.833333"
     inkscape:cx="17.668037"
     inkscape:cy="12"
     inkscape:window-x="2882"
     inkscape:window-y="35"
     inkscape:window-maximized="0"
     inkscape:current-layer="svg4"
     inkscape:document-rotation="0" />
  <path fill="#5294e2"
     d="m 11,21 h 2 v -2 h -2 z m 0,-4 h 2 v -2 h -2 z m 0,-4 h 2 v -2 h -2 z m -7,8 c 0.55,0 1,-0.45 1,-1 V 12 C 5,11.45 4.55,11 4,11 3.45,11 3,11.45 3,12 v 8 c 0,0.55 0.45,1 1,1 z"
     id="path2"
     sodipodi:nodetypes="cccccccccccccccsssssss" />
  <path fill="#5294e2"
     d="M 21,4 C 21,3.45 20.55,3 20,3 h -8 c -0.55,0 -1,0.45 -1,1 0,0.55 0.45,1 1,1 h 8 c 0.55,0 1,-0.45 1,-1 z"
     id="path2-6-7"
     sodipodi:nodetypes="sssssss" />
  <path fill="#5294e2"
     d="m 12.60371,3.3134345 c -0.388908,-0.3889087 -1.02714,-0.3907364 -1.414213,0 L 3.2916818,11.286005 c -0.3870728,0.390737 -0.388909,1.025305 0,1.414214 0.388909,0.388909 1.0271411,0.390737 1.4142139,0 L 12.60371,4.7276481 c 0.387073,-0.3907365 0.388909,-1.0253049 0,-1.4142136 z"
     id="path2-6-7-3"
     sodipodi:nodetypes="sssssss" />
  <path fill="#5294e2"
     d="m 15,13 h 2 v -2 h -2 z"
     id="path2-3"
     sodipodi:nodetypes="ccccc" />
  <path fill="#5294e2"
     d="m 19,13 h 2 v -2 h -2 z"
     id="path2-3-6"
     sodipodi:nodetypes="ccccc" />
  <circle fill="#5294e2"
     style="fill:#5294e2"
     id="path40"
     cx="20"
     cy="20"
     r="1" />
</svg>
