<?xml version="1.0" encoding="UTF-8" standalone="no"?>
<svg
   xmlns:dc="http://purl.org/dc/elements/1.1/"
   xmlns:cc="http://creativecommons.org/ns#"
   xmlns:rdf="http://www.w3.org/1999/02/22-rdf-syntax-ns#"
   xmlns:svg="http://www.w3.org/2000/svg"
   xmlns="http://www.w3.org/2000/svg"
   xmlns:sodipodi="http://sodipodi.sourceforge.net/DTD/sodipodi-0.dtd"
   xmlns:inkscape="http://www.inkscape.org/namespaces/inkscape"
   version="1.1"
   id="mdi-file-document"
   width="24"
   height="24"
   viewBox="0 0 24 24"
   sodipodi:docname="file-document.svg"
   inkscape:version="1.0.2 (e86c870879, 2021-01-15)">
  <metadata
     id="metadata9">
    <rdf:RDF>
      <cc:Work
         rdf:about="">
        <dc:format>image/svg+xml</dc:format>
        <dc:type
           rdf:resource="http://purl.org/dc/dcmitype/StillImage" />
      </cc:Work>
    </rdf:RDF>
  </metadata>
  <defs
     id="defs7" />
  <sodipodi:namedview
     pagecolor="#ffffff"
     bordercolor="#666666"
     borderopacity="1"
     objecttolerance="10"
     gridtolerance="10"
     guidetolerance="10"
     inkscape:pageopacity="0"
     inkscape:pageshadow="2"
     inkscape:window-width="1908"
     inkscape:window-height="1031"
     id="namedview5"
     showgrid="false"
     inkscape:zoom="42"
     inkscape:cx="12"
     inkscape:cy="11.047619"
     inkscape:window-x="1924"
     inkscape:window-y="1109"
     inkscape:window-maximized="0"
     inkscape:current-layer="mdi-file-document" />
  <path fill="#B9D4F0"
     id="path2"
     d="M 6 2 C 5.5470458 2 5.1349403 2.1534209 4.8007812 2.4042969 C 7.7224335 5.3243577 10.84264 8.4397768 14.40625 12 L 18 12 L 18 14 L 16.408203 14 C 17.686722 15.277301 18.908256 16.497114 20 17.587891 L 20 8 L 14 2 L 6 2 z M 13 3.5 L 18.5 9 L 13 9 L 13 3.5 z M 4 4.421875 L 4 20 C 4 21.1 4.89 22 6 22 L 18 22 A 2 2 0 0 0 19.964844 20.373047 L 13.585938 14 L 6 14 L 6 12 L 11.583984 12 L 4 4.421875 z M 6 16 L 15 16 L 15 18 L 6 18 L 6 16 z " />
  <path fill="#B9D4F0"
     id="path2-3"
     d="m 2.4140625,3.2265625 c -0.255,0 -0.508125,0.097969 -0.703125,0.2929687 -0.39,0.3900001 -0.39,1.0201563 0,1.4101563 2.6248857,2.6230847 5.7312293,5.7293845 8.6816405,8.6777345 2.94835,2.950411 6.05465,6.056755 8.677734,8.68164 0.390001,0.390001 1.020157,0.390001 1.410157,0 0.39,-0.39 0.39,-1.018203 0,-1.408203 L 18.507812,18.90625 c -0.0073,-0.0078 -0.01,-0.01779 -0.01758,-0.02539 l -6.6875,-6.683593 -6.6835934,-6.6875004 c -0.0076,-0.0076 -0.01761,-0.010272 -0.025391,-0.017578 L 3.1191406,3.5195312 c -0.195,-0.195 -0.4500781,-0.2929687 -0.7050781,-0.2929687 z" />
</svg>
