<?xml version="1.0" encoding="UTF-8" standalone="no"?>
<svg
   xmlns:dc="http://purl.org/dc/elements/1.1/"
   xmlns:cc="http://creativecommons.org/ns#"
   xmlns:rdf="http://www.w3.org/1999/02/22-rdf-syntax-ns#"
   xmlns:svg="http://www.w3.org/2000/svg"
   xmlns="http://www.w3.org/2000/svg"
   xmlns:sodipodi="http://sodipodi.sourceforge.net/DTD/sodipodi-0.dtd"
   xmlns:inkscape="http://www.inkscape.org/namespaces/inkscape"
   version="1.1"
   id="mdi-calendar-clock"
   width="24"
   height="24"
   viewBox="0 0 24 24"
   sodipodi:docname="view-time-schedule-baselined.svg"
   inkscape:version="1.0.2 (e86c870879, 2021-01-15)">
  <metadata
     id="metadata9">
    <rdf:RDF>
      <cc:Work
         rdf:about="">
        <dc:format>image/svg+xml</dc:format>
        <dc:type
           rdf:resource="http://purl.org/dc/dcmitype/StillImage" />
      </cc:Work>
    </rdf:RDF>
  </metadata>
  <defs
     id="defs7" />
  <sodipodi:namedview
     pagecolor="#ffffff"
     bordercolor="#666666"
     borderopacity="1"
     objecttolerance="10"
     gridtolerance="10"
     guidetolerance="10"
     inkscape:pageopacity="0"
     inkscape:pageshadow="2"
     inkscape:window-width="1844"
     inkscape:window-height="1031"
     id="namedview5"
     showgrid="false"
     inkscape:zoom="21"
     inkscape:cx="2.3119545"
     inkscape:cy="11.264207"
     inkscape:window-x="8"
     inkscape:window-y="8"
     inkscape:window-maximized="0"
     inkscape:current-layer="mdi-calendar-clock" />
  <path fill="#5294e2"
     d="m 15,13 h 1.5 v 2.82 l 2.44,1.41 -0.75,1.3 L 15,16.69 V 13 M 19,8 H 5 V 19 H 9.67 C 9.24,18.09 9,17.07 9,16 c 0,-3.865993 3.134007,-7 7,-7 1.07,0 2.09,0.24 3,0.67 V 8 M 5,21 C 3.89,21 3,20.1 3,19 V 5 C 3,3.89 3.89,3 5,3 h 1 v 0 h 2 v 0 h 8 v 0 h 2 v 0 h 1 c 1.104569,0 2,0.8954305 2,2 v 6.1 c 1.24,1.26 2,2.99 2,4.9 0,3.865993 -3.134007,7 -7,7 -1.91,0 -3.64,-0.76 -4.9,-2 H 5 m 11,-9.85 c -2.678581,0 -4.85,2.171419 -4.85,4.85 0,2.68 2.17,4.85 4.85,4.85 2.678581,0 4.85,-2.171419 4.85,-4.85 0,-2.68 -2.17,-4.85 -4.85,-4.85 z"
     id="path2"
     sodipodi:nodetypes="cccccccccccsscccsssccccccccsscssccsssss" />
  <path fill="#5294e2"
     id="path2-3"
     d="M 7 1 C 6.45 1 6 1.45 6 2 L 6 3 L 5 3 C 3.89 3 3.0097656 3.9 3.0097656 5 L 3 19 C 3 20.1 3.89 21 5 21 L 6.296875 21 L 6.296875 19 L 6 19 C 5.45 19 5 18.55 5 18 L 5 8 L 19 8 L 19 8.7773438 L 21 8.7773438 L 21 5 C 21 3.9 20.1 3 19 3 L 18 3 L 18 2 C 18 1.45 17.55 1 17 1 C 16.45 1 16 1.45 16 2 L 16 3 L 8 3 L 8 2 C 8 1.45 7.55 1 7 1 z " />
</svg>
