<?xml version="1.0" encoding="UTF-8" standalone="no"?>
<svg
   xmlns:dc="http://purl.org/dc/elements/1.1/"
   xmlns:cc="http://creativecommons.org/ns#"
   xmlns:rdf="http://www.w3.org/1999/02/22-rdf-syntax-ns#"
   xmlns:svg="http://www.w3.org/2000/svg"
   xmlns="http://www.w3.org/2000/svg"
   xmlns:sodipodi="http://sodipodi.sourceforge.net/DTD/sodipodi-0.dtd"
   xmlns:inkscape="http://www.inkscape.org/namespaces/inkscape"
   version="1.1"
   id="mdi-calendar-start"
   width="24"
   height="24"
   viewBox="0 0 24 24"
   sodipodi:docname="view-time-schedule-insert (copy).svg"
   inkscape:version="1.0.2 (e86c870879, 2021-01-15)">
  <metadata
     id="metadata9">
    <rdf:RDF>
      <cc:Work
         rdf:about="">
        <dc:format>image/svg+xml</dc:format>
        <dc:type
           rdf:resource="http://purl.org/dc/dcmitype/StillImage" />
      </cc:Work>
    </rdf:RDF>
  </metadata>
  <defs
     id="defs7" />
  <sodipodi:namedview
     pagecolor="#ffffff"
     bordercolor="#666666"
     borderopacity="1"
     objecttolerance="10"
     gridtolerance="10"
     guidetolerance="10"
     inkscape:pageopacity="0"
     inkscape:pageshadow="2"
     inkscape:window-width="1908"
     inkscape:window-height="2107"
     id="namedview5"
     showgrid="false"
     inkscape:zoom="21"
     inkscape:cx="9.3526693"
     inkscape:cy="15.887307"
     inkscape:window-x="1924"
     inkscape:window-y="8"
     inkscape:window-maximized="0"
     inkscape:current-layer="mdi-calendar-start"
     inkscape:document-rotation="0" />
  <path fill="#5294e2"
     id="path2-3"
     d="M 7,1 C 6.45,1 6,1.45 6,2 V 3 H 5 C 3.9,3 3,3.9 3,5 v 14 c 0,1.1 0.9,2 2,2 h 1 3 c 0.55,0 1,-0.45 1,-1 0,-0.55 -0.45,-1 -1,-1 H 6 C 5.45,19 5,18.55 5,18 V 8 h 14 v 4.5 c 0,0.55 0.45,1 1,1 0.55,0 1,-0.45 1,-1 V 7 c 0,-0.014481 -0.0072,-0.026681 -0.0078,-0.041016 L 20.990234,5 C 20.990234,3.9 20.11,3 19,3 H 18 V 2 C 18,1.45 17.55,1 17,1 16.45,1 16,1.45 16,2 V 3 H 8 V 2 C 8,1.45 7.55,1 7,1 Z m 14.150391,13 c -0.55,0 -1,0.45 -1,1 v 2 2 2 c 0,0.55 0.45,1 1,1 0.55,0 1,-0.45 1,-1 v -6 c 0,-0.55 -0.45,-1 -1,-1 z m -5.205079,0.710938 c -0.282545,-0.05214 -0.585937,0.156641 -0.585937,0.49414 v 1.791016 c 1.26e-4,3e-6 -1.26e-4,0.0039 0,0.0039 h -2 -1.208984 c -0.55,0 -1,0.45 -1,1 0,0.55 0.45,1 1,1 h 1.208984 0.791016 1.208984 v 1.785156 c 0,0.45 0.539609,0.671328 0.849609,0.361328 L 19,18.355469 c 0.200001,-0.2 0.200001,-0.508985 0,-0.708985 l -2.791016,-2.791015 c -0.0775,-0.08 -0.16949,-0.127151 -0.263672,-0.144531 z"
     sodipodi:nodetypes="sscsssscsssssccssssccscsssccssssccssssssscccssscccsscccs" />
</svg>
