<?xml version="1.0" encoding="UTF-8" standalone="no"?>
<svg
   xmlns:dc="http://purl.org/dc/elements/1.1/"
   xmlns:cc="http://creativecommons.org/ns#"
   xmlns:rdf="http://www.w3.org/1999/02/22-rdf-syntax-ns#"
   xmlns:svg="http://www.w3.org/2000/svg"
   xmlns="http://www.w3.org/2000/svg"
   xmlns:sodipodi="http://sodipodi.sourceforge.net/DTD/sodipodi-0.dtd"
   xmlns:inkscape="http://www.inkscape.org/namespaces/inkscape"
   version="1.1"
   id="mdi-numeric-1-box-multiple-outline"
   width="24"
   height="24"
   viewBox="0 0 24 24"
   sodipodi:docname="zoom-2-to-1.svg"
   inkscape:version="1.0.2 (e86c870879, 2021-01-15)">
  <metadata
     id="metadata9">
    <rdf:RDF>
      <cc:Work
         rdf:about="">
        <dc:format>image/svg+xml</dc:format>
        <dc:type
           rdf:resource="http://purl.org/dc/dcmitype/StillImage" />
      </cc:Work>
    </rdf:RDF>
  </metadata>
  <defs
     id="defs7" />
  <sodipodi:namedview
     pagecolor="#ffffff"
     bordercolor="#666666"
     borderopacity="1"
     objecttolerance="10"
     gridtolerance="10"
     guidetolerance="10"
     inkscape:pageopacity="0"
     inkscape:pageshadow="2"
     inkscape:window-width="1652"
     inkscape:window-height="1017"
     id="namedview5"
     showgrid="false"
     inkscape:zoom="14.849242"
     inkscape:cx="16.308984"
     inkscape:cy="8.3016137"
     inkscape:window-x="3848"
     inkscape:window-y="1097"
     inkscape:window-maximized="0"
     inkscape:current-layer="mdi-numeric-1-box-multiple-outline"
     inkscape:document-rotation="0" />
  <path fill="#5294e2"
     d="M 9.7499996,18.5 H 11.5 v -9 H 8 v 1.8 h 1.7499996"
     id="path2"
     sodipodi:nodetypes="cccccc"
     style="stroke-width:0.887412" />
  <path fill="#5294e2"
     id="path2-3"
     d="m 16,22.000002 c 1.11,0 2,-0.89 2,-2 v -12 c 0,-1.1 -0.89,-2.0000003 -2,-2.0000003 H 4 c -1.1045691,0 -2,0.8954313 -2,2.0000003 v 12 c 0,1.104569 0.8954309,2 2,2 z m 0,-2 H 4 v -12 h 12 z m 5,-2 c 0.55,0 1,-0.45 1,-1 v -2 -8.5000001 -2.5 c 0,-0.1375 -0.01426,-0.272461 -0.04102,-0.402344 -0.159851,-0.7811709 -0.77547,-1.3967901 -1.556641,-1.55664 -0.129882,-0.02676 -0.264843,-0.04102 -0.402343,-0.04102 H 7 c -0.1375001,0 -0.2691411,0.02734 -0.388672,0.07813 C 6.252734,2.230467 6,2.5874981 6,2.999998 c 0,0.5499999 0.4499998,1 1,1 H 18.5 19 c 0.55,0 1,0.4499999 1,1.0000001 V 16.999998 c 0,0.55 0.45,1 1,1 z" />
</svg>
