<?xml version="1.0" encoding="UTF-8" standalone="no"?>
<svg
   xmlns:dc="http://purl.org/dc/elements/1.1/"
   xmlns:cc="http://creativecommons.org/ns#"
   xmlns:rdf="http://www.w3.org/1999/02/22-rdf-syntax-ns#"
   xmlns:svg="http://www.w3.org/2000/svg"
   xmlns="http://www.w3.org/2000/svg"
   xmlns:sodipodi="http://sodipodi.sourceforge.net/DTD/sodipodi-0.dtd"
   xmlns:inkscape="http://www.inkscape.org/namespaces/inkscape"
   enable-background="new 0 0 24 24"
   height="24"
   viewBox="0 0 24 24"
   width="24"
   version="1.1"
   id="svg14"
   sodipodi:docname="appointment-symbolic.svg"
   inkscape:version="1.0.1 (3bc2e813f5, 2020-09-07)">
  <metadata
     id="metadata20">
    <rdf:RDF>
      <cc:Work
         rdf:about="">
        <dc:format>image/svg+xml</dc:format>
        <dc:type
           rdf:resource="http://purl.org/dc/dcmitype/StillImage" />
      </cc:Work>
    </rdf:RDF>
  </metadata>
  <defs
     id="defs18" />
  <sodipodi:namedview
     pagecolor="#ffffff"
     bordercolor="#666666"
     borderopacity="1"
     objecttolerance="10"
     gridtolerance="10"
     guidetolerance="10"
     inkscape:pageopacity="0"
     inkscape:pageshadow="2"
     inkscape:window-width="1904"
     inkscape:window-height="1000"
     id="namedview16"
     showgrid="false"
     inkscape:zoom="33.208333"
     inkscape:cx="12"
     inkscape:cy="14.818381"
     inkscape:window-x="26"
     inkscape:window-y="23"
     inkscape:window-maximized="0"
     inkscape:current-layer="g10" />
  <g
     id="g2" />
  <g
     id="g12">
    <g
       id="g10"
       transform="translate(1,-1)">
      <path fill="#5294e2"
         d="M 10.75,8 C 10.34,8 10,8.34 10,8.75 v 4.69 c 0,0.35 0.18,0.67 0.47,0.85 l 3.64,2.24 c 0.33,0.2 0.76,0.11 0.97,-0.21 0.23,-0.34 0.12,-0.8 -0.23,-1.01 L 11.5,13.3 V 8.75 C 11.5,8.34 11.16,8 10.75,8 Z"
         id="path4" />
      <path fill="#5294e2"
         d="m 17.92,12 c 0.05,0.33 0.08,0.66 0.08,1 0,3.9 -3.1,7 -7,7 -3.9,0 -7,-3.1 -7,-7 0,-3.9 3.1,-7 7,-7 0.7,0 1.37,0.1 2,0.29 V 4.23 C 12.36,4.08 11.69,4 11,4 6,4 2,8 2,13 c 0,5 4,9 9,9 5,0 9,-4 9,-9 0,-0.34 -0.02,-0.67 -0.06,-1 z"
         id="path6" />
      <path fill="#5294e2"
         d="M 17.92,14 C 17.97,13.67 18,13.34 18,13 18,9.1000002 14.9,6.0000002 11,6.0000002 c -3.9,0 -7,3.1 -7,6.9999998 0,3.9 3.1,7 7,7 0.7,0 1.37,-0.1 2,-0.29 v 2.06 C 12.36,21.92 11.69,22 11,22 6,22 2,18 2,13 2,8.0000002 6,4.0000002 11,4.0000002 c 5,0 9,4 9,8.9999998 0,0.34 -0.02,0.67 -0.06,1 z"
         id="path6-3" />
    </g>
  </g>
</svg>
