<?xml version="1.0" encoding="UTF-8" standalone="no"?>
<svg
   xmlns:dc="http://purl.org/dc/elements/1.1/"
   xmlns:cc="http://creativecommons.org/ns#"
   xmlns:rdf="http://www.w3.org/1999/02/22-rdf-syntax-ns#"
   xmlns:svg="http://www.w3.org/2000/svg"
   xmlns="http://www.w3.org/2000/svg"
   xmlns:sodipodi="http://sodipodi.sourceforge.net/DTD/sodipodi-0.dtd"
   xmlns:inkscape="http://www.inkscape.org/namespaces/inkscape"
   version="1.1"
   id="mdi-arrow-collapse-horizontal"
   width="24"
   height="24"
   viewBox="0 0 24 24"
   sodipodi:docname="distribute-horizontal-left.svg"
   inkscape:version="1.0.2 (e86c870879, 2021-01-15)">
  <metadata
     id="metadata9">
    <rdf:RDF>
      <cc:Work
         rdf:about="">
        <dc:format>image/svg+xml</dc:format>
        <dc:type
           rdf:resource="http://purl.org/dc/dcmitype/StillImage" />
      </cc:Work>
    </rdf:RDF>
  </metadata>
  <defs
     id="defs7" />
  <sodipodi:namedview
     pagecolor="#ffffff"
     bordercolor="#666666"
     borderopacity="1"
     objecttolerance="10"
     gridtolerance="10"
     guidetolerance="10"
     inkscape:pageopacity="0"
     inkscape:pageshadow="2"
     inkscape:window-width="1920"
     inkscape:window-height="1011"
     id="namedview5"
     showgrid="false"
     inkscape:zoom="31"
     inkscape:cx="7.9908014"
     inkscape:cy="11.054561"
     inkscape:window-x="0"
     inkscape:window-y="0"
     inkscape:window-maximized="1"
     inkscape:current-layer="mdi-arrow-collapse-horizontal"
     inkscape:document-rotation="0" />
  <path fill="#B9D4F0"
     id="path2-3"
     d="m 3.5126953,4 c -0.55,0 -1,0.45 -1,1 v 14 c 0,0.55 0.45,1 1,1 0.55,0 1,-0.45 1,-1 V 5 c 0,-0.55 -0.45,-1 -1,-1 z m 3,0 c -0.55,0 -1,0.45 -1,1 v 14 c 0,0.55 0.45,1 1,1 0.55,0 1,-0.45 1,-1 V 5 c 0,-0.55 -0.45,-1 -1,-1 z m 5.3886717,4.7128906 c -0.09422,0.015937 -0.186171,0.059219 -0.263671,0.1367188 L 8.8486328,11.640625 c -0.2,0.200001 -0.2,0.508985 0,0.708984 l 2.7890632,2.791016 c 0.31,0.32 0.849609,0.09844 0.849609,-0.351563 V 13 h 8 c 0.55,0 1,-0.45 1,-1 0,-0.55 -0.45,-1 -1,-1 h -8 V 9.2109375 c 0,-0.3375 -0.303281,-0.5458594 -0.585938,-0.4980469 z" />
</svg>
