<?xml version="1.0" encoding="UTF-8" standalone="no"?>
<svg
   xmlns:dc="http://purl.org/dc/elements/1.1/"
   xmlns:cc="http://creativecommons.org/ns#"
   xmlns:rdf="http://www.w3.org/1999/02/22-rdf-syntax-ns#"
   xmlns:svg="http://www.w3.org/2000/svg"
   xmlns="http://www.w3.org/2000/svg"
   xmlns:sodipodi="http://sodipodi.sourceforge.net/DTD/sodipodi-0.dtd"
   xmlns:inkscape="http://www.inkscape.org/namespaces/inkscape"
   version="1.1"
   id="mdi-file-multiple"
   width="24"
   height="24"
   viewBox="0 0 24 24"
   sodipodi:docname="file-multiple.svg"
   inkscape:version="1.0.2 (e86c870879, 2021-01-15)">
  <metadata
     id="metadata9">
    <rdf:RDF>
      <cc:Work
         rdf:about="">
        <dc:format>image/svg+xml</dc:format>
        <dc:type
           rdf:resource="http://purl.org/dc/dcmitype/StillImage" />
      </cc:Work>
    </rdf:RDF>
  </metadata>
  <defs
     id="defs7" />
  <sodipodi:namedview
     pagecolor="#ffffff"
     bordercolor="#666666"
     borderopacity="1"
     objecttolerance="10"
     gridtolerance="10"
     guidetolerance="10"
     inkscape:pageopacity="0"
     inkscape:pageshadow="2"
     inkscape:window-width="1588"
     inkscape:window-height="1017"
     id="namedview5"
     showgrid="false"
     inkscape:zoom="21"
     inkscape:cx="7.5937166"
     inkscape:cy="14.993888"
     inkscape:window-x="3848"
     inkscape:window-y="1097"
     inkscape:window-maximized="0"
     inkscape:current-layer="mdi-file-multiple" />
  <path fill="#5294e2"
     id="path2"
     d="M 8 0 C 6.8954305 0 6 0.8954305 6 2 L 6 18 C 6 19.1 6.89 20 8 20 L 20 20 C 21.104569 20 22 19.104569 22 18 L 22 6 L 16 0 L 8 0 z M 15 1.5 L 20.5 7 L 15 7 L 15 1.5 z M 3 4 C 2.45 4 2 4.45 2 5 L 2 11 L 2 19.5 L 2 22 C 2 22.1375 2.0142576 22.272461 2.0410156 22.402344 C 2.2008664 23.183515 2.8164855 23.799134 3.5976562 23.958984 C 3.7275388 23.985744 3.8625 24 4 24 L 19 24 C 19.1375 24 19.269141 23.972665 19.388672 23.921875 C 19.747266 23.769536 20 23.4125 20 23 C 20 22.45 19.55 22 19 22 L 5.5 22 L 5 22 C 4.45 22 4 21.55 4 21 L 4 5 C 4 4.45 3.55 4 3 4 z " />
</svg>
