<?xml version="1.0" encoding="UTF-8" standalone="no"?>
<svg
   xmlns:dc="http://purl.org/dc/elements/1.1/"
   xmlns:cc="http://creativecommons.org/ns#"
   xmlns:rdf="http://www.w3.org/1999/02/22-rdf-syntax-ns#"
   xmlns:svg="http://www.w3.org/2000/svg"
   xmlns="http://www.w3.org/2000/svg"
   xmlns:sodipodi="http://sodipodi.sourceforge.net/DTD/sodipodi-0.dtd"
   xmlns:inkscape="http://www.inkscape.org/namespaces/inkscape"
   version="1.1"
   id="mdi-table-row-remove"
   width="24"
   height="24"
   viewBox="0 0 24 24"
   sodipodi:docname="gnumeric-row-add-symbolic.svg"
   inkscape:version="1.0.1 (3bc2e813f5, 2020-09-07)">
  <metadata
     id="metadata9">
    <rdf:RDF>
      <cc:Work
         rdf:about="">
        <dc:format>image/svg+xml</dc:format>
        <dc:type
           rdf:resource="http://purl.org/dc/dcmitype/StillImage" />
      </cc:Work>
    </rdf:RDF>
  </metadata>
  <defs
     id="defs7" />
  <sodipodi:namedview
     pagecolor="#ffffff"
     bordercolor="#666666"
     borderopacity="1"
     objecttolerance="10"
     gridtolerance="10"
     guidetolerance="10"
     inkscape:pageopacity="0"
     inkscape:pageshadow="2"
     inkscape:window-width="950"
     inkscape:window-height="1022"
     id="namedview5"
     showgrid="false"
     inkscape:zoom="28.16642"
     inkscape:cx="10.422041"
     inkscape:cy="11.518921"
     inkscape:window-x="2882"
     inkscape:window-y="35"
     inkscape:window-maximized="0"
     inkscape:current-layer="mdi-table-row-remove" />
  <path fill="#5294e2"
     d="m 22,9 c 0,1.104569 -0.895431,2 -2,2 H 4 C 2.8954305,11 2,10.104569 2,9 V 6 C 2,4.8954305 2.8954305,4 4,4 h 16 c 1.104569,0 2,0.8954305 2,2 V 9 M 4,9 H 8 V 6 H 4 v 3 m 6,0 h 4 V 6 h -4 v 3 m 6,0 h 4 V 6 h -4 z"
     id="path2"
     sodipodi:nodetypes="cssssssscccccccccccccccc" />
  <path fill="#5294e2"
     d="m 7.9082185,16.00298 3.0947605,-1e-6 v -3.094761 h 1.994042 v 3.094761 h 3.094761 v 1.994042 h -3.094761 l -1e-6,3.094761 H 11.002979 V 17.997021 H 7.9082186 l -10e-8,-1.994041"
     id="path2-3"
     sodipodi:nodetypes="ccccccccccccc" />
</svg>
