<?xml version="1.0" encoding="UTF-8" standalone="no"?>
<svg
   xmlns:dc="http://purl.org/dc/elements/1.1/"
   xmlns:cc="http://creativecommons.org/ns#"
   xmlns:rdf="http://www.w3.org/1999/02/22-rdf-syntax-ns#"
   xmlns:svg="http://www.w3.org/2000/svg"
   xmlns="http://www.w3.org/2000/svg"
   xmlns:sodipodi="http://sodipodi.sourceforge.net/DTD/sodipodi-0.dtd"
   xmlns:inkscape="http://www.inkscape.org/namespaces/inkscape"
   version="1.1"
   id="mdi-chevron-double-right"
   width="24"
   height="24"
   viewBox="0 0 24 24"
   sodipodi:docname="go-next-skip (another copy).svg"
   inkscape:version="1.0.2 (e86c870879, 2021-01-15)">
  <metadata
     id="metadata9">
    <rdf:RDF>
      <cc:Work
         rdf:about="">
        <dc:format>image/svg+xml</dc:format>
        <dc:type
           rdf:resource="http://purl.org/dc/dcmitype/StillImage" />
      </cc:Work>
    </rdf:RDF>
  </metadata>
  <defs
     id="defs7" />
  <sodipodi:namedview
     pagecolor="#ffffff"
     bordercolor="#666666"
     borderopacity="1"
     objecttolerance="10"
     gridtolerance="10"
     guidetolerance="10"
     inkscape:pageopacity="0"
     inkscape:pageshadow="2"
     inkscape:window-width="1920"
     inkscape:window-height="1011"
     id="namedview5"
     showgrid="false"
     inkscape:zoom="33.208333"
     inkscape:cx="12"
     inkscape:cy="14.846612"
     inkscape:window-x="0"
     inkscape:window-y="0"
     inkscape:window-maximized="1"
     inkscape:current-layer="mdi-chevron-double-right"
     inkscape:document-rotation="0" />
  <path fill="#5294e2"
     id="path2-3"
     d="m 17.294922,17.587656 c 0.255,0 0.510078,-0.09797 0.705078,-0.292969 0.39,-0.39 0.39,-1.018203 0,-1.408203 L 14.11914,12.005625 18,8.1247658 c 0.39,-0.39 0.38,-1.029922 0,-1.419922 -0.39,-0.39 -1.020157,-0.39 -1.410157,0 l -4.589842,4.5898432 c -0.390001,0.39 -0.390001,1.020157 0,1.410157 l 4.589842,4.589843 c 0.195001,0.195 0.450079,0.292969 0.705079,0.292969 z m -6,0 c 0.255,0 0.510078,-0.09797 0.705079,-0.292969 0.39,-0.39 0.39,-1.018203 0,-1.408203 L 8.1191408,12.005625 12.000001,8.1247658 c 0.39,-0.39 0.38,-1.029922 0,-1.419922 -0.39,-0.39 -1.020157,-0.39 -1.410157,0 L 6.0000008,11.294687 c -0.390001,0.39 -0.390001,1.020157 0,1.410157 l 4.5898432,4.589843 c 0.195,0.195 0.450078,0.292969 0.705078,0.292969 z" />
</svg>
