<?xml version="1.0" encoding="UTF-8" standalone="no"?>
<svg
   xmlns:dc="http://purl.org/dc/elements/1.1/"
   xmlns:cc="http://creativecommons.org/ns#"
   xmlns:rdf="http://www.w3.org/1999/02/22-rdf-syntax-ns#"
   xmlns:svg="http://www.w3.org/2000/svg"
   xmlns="http://www.w3.org/2000/svg"
   xmlns:sodipodi="http://sodipodi.sourceforge.net/DTD/sodipodi-0.dtd"
   xmlns:inkscape="http://www.inkscape.org/namespaces/inkscape"
   version="1.1"
   width="24"
   height="24"
   viewBox="0 0 24 24"
   id="svg4"
   sodipodi:docname="software-installed.svg"
   inkscape:version="1.0.2 (e86c870879, 2021-01-15)">
  <metadata
     id="metadata10">
    <rdf:RDF>
      <cc:Work
         rdf:about="">
        <dc:format>image/svg+xml</dc:format>
        <dc:type
           rdf:resource="http://purl.org/dc/dcmitype/StillImage" />
      </cc:Work>
    </rdf:RDF>
  </metadata>
  <defs
     id="defs8" />
  <sodipodi:namedview
     pagecolor="#ffffff"
     bordercolor="#666666"
     borderopacity="1"
     objecttolerance="10"
     gridtolerance="10"
     guidetolerance="10"
     inkscape:pageopacity="0"
     inkscape:pageshadow="2"
     inkscape:window-width="1908"
     inkscape:window-height="1017"
     id="namedview6"
     showgrid="false"
     inkscape:zoom="33.435953"
     inkscape:cx="10.34775"
     inkscape:cy="11.734914"
     inkscape:window-x="3848"
     inkscape:window-y="1097"
     inkscape:window-maximized="0"
     inkscape:current-layer="svg4" />
  <path fill="#B9D4F0"
     id="path2"
     d="M 14.953125 1.7890625 C 14.856465 1.7927625 14.761032 1.8197846 14.666016 1.8535156 L 12 3 L 9.4101562 1.890625 C 8.9501562 1.690625 8.4101562 1.870781 8.1601562 2.3007812 L 6.7109375 4.7207031 L 3.9609375 5.3398438 C 3.4728764 5.4494084 3.1329559 5.8967923 3.1796875 6.4042969 L 3.28125 7.4941406 L 3.4414062 9.2109375 L 1.5800781 11.339844 C 1.2500781 11.719844 1.2500781 12.280156 1.5800781 12.660156 L 3.4414062 14.779297 L 3.1953125 17.439453 L 3.1796875 17.599609 C 3.1308735 18.087751 3.4579262 18.532821 3.9199219 18.65625 L 6.7109375 19.289062 L 8.1621094 21.734375 C 8.4159558 22.137856 8.9082392 22.30741 9.359375 22.142578 L 12 21 L 14.589844 22.109375 C 15.049844 22.309375 15.589844 22.129215 15.839844 21.699219 L 17.28125 19.269531 L 20.041016 18.640625 C 20.531016 18.530625 20.860547 18.070312 20.810547 17.570312 L 20.550781 14.759766 L 22.410156 12.640625 C 22.750156 12.280625 22.749888 11.719844 22.419922 11.339844 L 20.560547 9.2207031 L 20.820312 6.4101562 C 20.820312 6.4101562 20.820312 6.4082031 20.820312 6.4082031 C 20.867983 5.9214563 20.544404 5.4774495 20.083984 5.3535156 L 17.289062 4.7207031 L 15.816406 2.2382812 C 15.617115 1.9449841 15.290924 1.7761388 14.953125 1.7890625 z M 16.585938 7.9980469 C 16.840937 7.9980465 17.094063 8.0940625 17.289062 8.2890625 C 17.679063 8.6790625 17.679065 9.3092211 17.289062 9.6992188 L 10.699219 16.289062 C 10.319219 16.679063 9.6790684 16.679057 9.2890625 16.289062 L 6.6992188 13.699219 C 6.3092128 13.309225 6.3092187 12.679062 6.6992188 12.289062 C 7.0892187 11.899062 7.719375 11.899062 8.109375 12.289062 L 10 14.169922 L 15.880859 8.2890625 C 16.075861 8.0940638 16.330938 7.9980472 16.585938 7.9980469 z " />
</svg>
