<?xml version="1.0" encoding="UTF-8" standalone="no"?>
<svg
   xmlns:dc="http://purl.org/dc/elements/1.1/"
   xmlns:cc="http://creativecommons.org/ns#"
   xmlns:rdf="http://www.w3.org/1999/02/22-rdf-syntax-ns#"
   xmlns:svg="http://www.w3.org/2000/svg"
   xmlns="http://www.w3.org/2000/svg"
   xmlns:sodipodi="http://sodipodi.sourceforge.net/DTD/sodipodi-0.dtd"
   xmlns:inkscape="http://www.inkscape.org/namespaces/inkscape"
   height="24"
   viewBox="0 0 24 24"
   width="24"
   version="1.1"
   id="svg4"
   sodipodi:docname="call_split.svg"
   inkscape:version="1.0.2 (e86c870879, 2021-01-15)">
  <metadata
     id="metadata10">
    <rdf:RDF>
      <cc:Work
         rdf:about="">
        <dc:format>image/svg+xml</dc:format>
        <dc:type
           rdf:resource="http://purl.org/dc/dcmitype/StillImage" />
      </cc:Work>
    </rdf:RDF>
  </metadata>
  <defs
     id="defs8" />
  <sodipodi:namedview
     pagecolor="#ffffff"
     bordercolor="#666666"
     borderopacity="1"
     objecttolerance="10"
     gridtolerance="10"
     guidetolerance="10"
     inkscape:pageopacity="0"
     inkscape:pageshadow="2"
     inkscape:window-width="1908"
     inkscape:window-height="2107"
     id="namedview6"
     showgrid="false"
     inkscape:zoom="42"
     inkscape:cx="12"
     inkscape:cy="10.095238"
     inkscape:window-x="1924"
     inkscape:window-y="33"
     inkscape:window-maximized="0"
     inkscape:current-layer="svg4" />
  <path fill="#5294e2"
     d="M 2.85,9.15 4.29,7.71 7.17,10.59 8.59,9.17 5.71,6.29 7.15,4.85 C 7.46,4.54 7.24,4 6.79,4 H 2.5 C 2.22,4 2,4.22 2,4.5 V 8.79 C 2,9.24 2.54,9.46 2.85,9.15 Z M 2,15.21 V 19.5 C 2,19.78 2.22,20 2.5,20 h 4.29 c 0.45,0 0.67,-0.54 0.35,-0.85 L 5.7,17.71 10.4,13 H 13 c 0.55,0 1,-0.45 1,-1 0,-0.55 -0.45,-1 -1,-1 h -3 c -0.26,0 -0.52,0.11 -0.71,0.29 l -5.01,5 -1.44,-1.44 C 2.54,14.54 2,14.76 2,15.21 Z"
     id="path2"
     sodipodi:nodetypes="sccccsssssssssscccsssscccs" />
  <path fill="#5294e2"
     d="m 21.15,14.85 -1.44,1.44 -2.88,-2.88 -1.42,1.42 2.88,2.88 -1.44,1.44 C 16.54,19.46 16.76,20 17.21,20 h 4.29 c 0.28,0 0.5,-0.22 0.5,-0.5 v -4.29 c 0,-0.45 -0.54,-0.67 -0.85,-0.36 z M 22,8.7900001 v -4.29 c 0,-0.28 -0.22,-0.5 -0.5,-0.5 h -4.29 c -0.45,0 -0.67,0.54 -0.35,0.85 l 1.44,1.44 L 13.6,11 H 11 c -0.55,0 -1,0.45 -1,1 0,0.55 0.45,1 1,1 h 3 c 0.26,0 0.52,-0.11 0.71,-0.29 l 5.01,-4.9999999 1.44,1.44 c 0.3,0.31 0.84,0.09 0.84,-0.36 z"
     id="path2-3"
     sodipodi:nodetypes="sccccsssssssssscccsssscccs" />
</svg>
