<?xml version="1.0" encoding="UTF-8" standalone="no"?>
<svg
   xmlns:dc="http://purl.org/dc/elements/1.1/"
   xmlns:cc="http://creativecommons.org/ns#"
   xmlns:rdf="http://www.w3.org/1999/02/22-rdf-syntax-ns#"
   xmlns:svg="http://www.w3.org/2000/svg"
   xmlns="http://www.w3.org/2000/svg"
   xmlns:sodipodi="http://sodipodi.sourceforge.net/DTD/sodipodi-0.dtd"
   xmlns:inkscape="http://www.inkscape.org/namespaces/inkscape"
   version="1.1"
   id="mdi-ruler-square"
   width="24"
   height="24"
   viewBox="0 0 24 24"
   sodipodi:docname="ruler-square.svg"
   inkscape:version="1.0.2 (e86c870879, 2021-01-15)">
  <metadata
     id="metadata9">
    <rdf:RDF>
      <cc:Work
         rdf:about="">
        <dc:format>image/svg+xml</dc:format>
        <dc:type
           rdf:resource="http://purl.org/dc/dcmitype/StillImage" />
      </cc:Work>
    </rdf:RDF>
  </metadata>
  <defs
     id="defs7" />
  <sodipodi:namedview
     pagecolor="#ffffff"
     bordercolor="#666666"
     borderopacity="1"
     objecttolerance="10"
     gridtolerance="10"
     guidetolerance="10"
     inkscape:pageopacity="0"
     inkscape:pageshadow="2"
     inkscape:window-width="1908"
     inkscape:window-height="2107"
     id="namedview5"
     showgrid="false"
     inkscape:zoom="42"
     inkscape:cx="12"
     inkscape:cy="12"
     inkscape:window-x="1924"
     inkscape:window-y="33"
     inkscape:window-maximized="0"
     inkscape:current-layer="mdi-ruler-square" />
  <g
     id="g845"
     transform="rotate(90,11.39625,11.39625)">
    <path fill="#5294e2"
       d="M 3,5 V 9 H 5 9 V 5 h 1.5 V 9 H 12 V 7 h 1.5 V 9 H 15 V 5 h 1.5 V 9 H 18 V 7 h 1.5 V 9 H 21 V 3 H 5 C 3.8954305,3 3,3.8954305 3,5 M 6,7 C 5.4477153,7 5,6.5522847 5,6 5,5.4477153 5.4477153,5 6,5 6.5522847,5 7,5.4477153 7,6 7,6.5522847 6.5522847,7 6,7 Z"
       id="path2"
       sodipodi:nodetypes="cccccccccccccccccccccscsssss" />
    <path fill="#5294e2"
       d="m 17.289369,18.2925 c -0.39,0.39 -0.925993,0.264457 -1.41,0 l -3.88,-3.88 -3.8800001,3.88 c -0.39,0.39 -1.02,0.39 -1.41,0 -0.39,-0.39 -0.39,-1.02 0,-1.41 l 4.5900001,-4.59 c 0.39,-0.39 1.02,-0.39 1.41,0 l 4.59,4.59 c 0.38,0.38 0.38,1.02 -0.01,1.41 z"
       id="path2-3"
       sodipodi:nodetypes="sscsssssss" />
  </g>
</svg>
