<?xml version="1.0" encoding="UTF-8" standalone="no"?>
<svg
   xmlns:dc="http://purl.org/dc/elements/1.1/"
   xmlns:cc="http://creativecommons.org/ns#"
   xmlns:rdf="http://www.w3.org/1999/02/22-rdf-syntax-ns#"
   xmlns:svg="http://www.w3.org/2000/svg"
   xmlns="http://www.w3.org/2000/svg"
   xmlns:sodipodi="http://sodipodi.sourceforge.net/DTD/sodipodi-0.dtd"
   xmlns:inkscape="http://www.inkscape.org/namespaces/inkscape"
   height="24"
   viewBox="0 0 24 24"
   width="24"
   version="1.1"
   id="svg4"
   sodipodi:docname="builder-unit-tests-fail-symbolic.symbolic (copy).svg"
   inkscape:version="1.0.2 (e86c870879, 2021-01-15)">
  <metadata
     id="metadata10">
    <rdf:RDF>
      <cc:Work
         rdf:about="">
        <dc:format>image/svg+xml</dc:format>
        <dc:type
           rdf:resource="http://purl.org/dc/dcmitype/StillImage" />
      </cc:Work>
    </rdf:RDF>
  </metadata>
  <defs
     id="defs8" />
  <sodipodi:namedview
     pagecolor="#ffffff"
     bordercolor="#666666"
     borderopacity="1"
     objecttolerance="10"
     gridtolerance="10"
     guidetolerance="10"
     inkscape:pageopacity="0"
     inkscape:pageshadow="2"
     inkscape:window-width="1908"
     inkscape:window-height="2107"
     id="namedview6"
     showgrid="false"
     inkscape:zoom="42"
     inkscape:cx="12"
     inkscape:cy="12"
     inkscape:window-x="8"
     inkscape:window-y="33"
     inkscape:window-maximized="0"
     inkscape:current-layer="svg4" />
  <path fill="#5294e2"
     id="path2"
     d="M 4.4707031 3 C 2.9307031 3 1.9702344 4.67 2.7402344 6 L 10.269531 19.009766 C 11.039531 20.339766 12.960469 20.339766 13.730469 19.009766 L 21.259766 6 C 22.029766 4.67 21.069297 3 19.529297 3 L 4.4707031 3 z M 6.8769531 5.5820312 C 7.2636761 5.5346683 7.6609375 5.7169827 7.8671875 6.0742188 L 12.001953 13.234375 L 16.134766 6.0742188 C 16.409766 5.5979048 17.023686 5.4320312 17.5 5.7070312 C 17.976314 5.9820312 18.142187 6.5979047 17.867188 7.0742188 L 12.867188 15.734375 C 12.855707 15.754275 12.834906 15.764403 12.822266 15.783203 C 12.787126 15.836331 12.742736 15.879651 12.697266 15.925781 C 12.648282 15.974827 12.601922 16.023307 12.544922 16.060547 C 12.527902 16.071817 12.51791 16.089269 12.5 16.099609 C 12.462099 16.121489 12.420269 16.124245 12.380859 16.140625 C 12.318038 16.166835 12.258126 16.191968 12.191406 16.205078 C 12.127547 16.217443 12.066123 16.216993 12.001953 16.216797 C 11.937034 16.217127 11.875147 16.215655 11.810547 16.203125 C 11.744073 16.190055 11.683694 16.166705 11.621094 16.140625 C 11.581281 16.124135 11.53828 16.121709 11.5 16.099609 C 11.4817 16.089049 11.472448 16.070134 11.455078 16.058594 C 11.39943 16.022144 11.354651 15.975464 11.306641 15.927734 C 11.258912 15.87972 11.212231 15.834947 11.175781 15.779297 C 11.164231 15.761927 11.145336 15.752675 11.134766 15.734375 L 6.1347656 7.0742188 C 5.8597656 6.5979047 6.023686 5.9820313 6.5 5.7070312 C 6.619078 5.6382813 6.7480451 5.5978192 6.8769531 5.5820312 z " />
</svg>
