<?xml version="1.0" encoding="UTF-8" standalone="no"?>
<svg
   xmlns:dc="http://purl.org/dc/elements/1.1/"
   xmlns:cc="http://creativecommons.org/ns#"
   xmlns:rdf="http://www.w3.org/1999/02/22-rdf-syntax-ns#"
   xmlns:svg="http://www.w3.org/2000/svg"
   xmlns="http://www.w3.org/2000/svg"
   xmlns:sodipodi="http://sodipodi.sourceforge.net/DTD/sodipodi-0.dtd"
   xmlns:inkscape="http://www.inkscape.org/namespaces/inkscape"
   version="1.1"
   id="mdi-code-json"
   width="24"
   height="24"
   viewBox="0 0 24 24"
   sodipodi:docname="code-json.svg"
   inkscape:version="1.0.2 (e86c870879, 2021-01-15)">
  <metadata
     id="metadata9">
    <rdf:RDF>
      <cc:Work
         rdf:about="">
        <dc:format>image/svg+xml</dc:format>
        <dc:type
           rdf:resource="http://purl.org/dc/dcmitype/StillImage" />
      </cc:Work>
    </rdf:RDF>
  </metadata>
  <defs
     id="defs7" />
  <sodipodi:namedview
     pagecolor="#ffffff"
     bordercolor="#666666"
     borderopacity="1"
     objecttolerance="10"
     gridtolerance="10"
     guidetolerance="10"
     inkscape:pageopacity="0"
     inkscape:pageshadow="2"
     inkscape:window-width="1908"
     inkscape:window-height="2107"
     id="namedview5"
     showgrid="false"
     inkscape:zoom="42"
     inkscape:cx="12"
     inkscape:cy="12.952381"
     inkscape:window-x="8"
     inkscape:window-y="33"
     inkscape:window-maximized="0"
     inkscape:current-layer="mdi-code-json" />
  <path fill="#5294e2"
     d="M 5,3 H 7 V 5 H 5 v 5 c 0,1.104569 -0.8954305,2 -2,2 1.1045695,0 2,0.895431 2,2 v 5 h 2 v 2 H 5 C 3.93,20.73 3,20.1 3,19 V 15 C 3,13.895431 2.1045695,13 1,13 H 0 V 11 H 1 C 2.1045695,11 3,10.104569 3,9 V 5 C 3,3.8954305 3.8954305,3 5,3 m 14,0 c 1.104569,0 2,0.8954305 2,2 v 4 c 0,1.104569 0.895431,2 2,2 h 1 v 2 h -1 c -1.104569,0 -2,0.895431 -2,2 v 4 c 0,1.104569 -0.895431,2 -2,2 h -2 v -2 h 2 v -5 c 0,-1.104569 0.895431,-2 2,-2 -1.104569,0 -2,-0.895431 -2,-2 V 5 H 17 V 3 h 2"
     id="path2"
     sodipodi:nodetypes="ccccscsccccsssccsssccsssccsssscccscscccc" />
  <path fill="#5294e2"
     d="m 9,7 v 10 h 2 v -5 l 2,5 h 2 V 7 h -2 v 5 L 11,7 Z"
     id="path2-7" />
</svg>
