<?xml version="1.0" encoding="UTF-8" standalone="no"?>
<svg
   xmlns:dc="http://purl.org/dc/elements/1.1/"
   xmlns:cc="http://creativecommons.org/ns#"
   xmlns:rdf="http://www.w3.org/1999/02/22-rdf-syntax-ns#"
   xmlns:svg="http://www.w3.org/2000/svg"
   xmlns="http://www.w3.org/2000/svg"
   xmlns:sodipodi="http://sodipodi.sourceforge.net/DTD/sodipodi-0.dtd"
   xmlns:inkscape="http://www.inkscape.org/namespaces/inkscape"
   enable-background="new 0 0 24 24"
   height="24"
   viewBox="0 0 24 24"
   width="24"
   version="1.1"
   id="svg12"
   sodipodi:docname="mail-mark-read-symbolic.svg"
   inkscape:version="1.0.1 (3bc2e813f5, 2020-09-07)">
  <metadata
     id="metadata18">
    <rdf:RDF>
      <cc:Work
         rdf:about="">
        <dc:format>image/svg+xml</dc:format>
        <dc:type
           rdf:resource="http://purl.org/dc/dcmitype/StillImage" />
      </cc:Work>
    </rdf:RDF>
  </metadata>
  <defs
     id="defs16" />
  <sodipodi:namedview
     pagecolor="#ffffff"
     bordercolor="#666666"
     borderopacity="1"
     objecttolerance="10"
     gridtolerance="10"
     guidetolerance="10"
     inkscape:pageopacity="0"
     inkscape:pageshadow="2"
     inkscape:window-width="1904"
     inkscape:window-height="1005"
     id="namedview14"
     showgrid="false"
     inkscape:zoom="31"
     inkscape:cx="12"
     inkscape:cy="10.356855"
     inkscape:window-x="56"
     inkscape:window-y="50"
     inkscape:window-maximized="0"
     inkscape:current-layer="svg12" />
  <path fill="#5294e2"
     d="m 18.05,21.29 c -0.39,0.39 -1.02,0.39 -1.41,0 l -2.12,-2.12 c -0.39,-0.39 -0.39,-1.02 0,-1.41 v 0 c 0.39,-0.39 1.02,-0.39 1.41,0 l 1.41,1.41 3.54,-3.54 c 0.39,-0.39 1.02,-0.39 1.41,0 v 0 c 0.39,0.39 0.39,1.02 0,1.41 z M 12.080001,20 H 4 C 2.9,20 2,19.1 2,18 V 6.0000004 c 0,-1.1 0.9,-2 2,-2 h 16 c 1.1,0 2,0.9 2,2 V 12.68 C 21.09,12.25 20.08,12 19,12 c -3.87,0 -7,3.13 -7,7 0,0.34 0.03,0.67 0.08,1 z M 11.47,12.67 c 0.320001,0.2 0.740001,0.2 1.060001,0 L 19.6,8.2500004 c 0.25,-0.16 0.4,-0.43 0.4,-0.72 0,-0.67 -0.73,-1.07 -1.3,-0.72 L 12,11 5.3,6.8100004 c -0.57,-0.35 -1.3,0.05 -1.3,0.72 0,0.29 0.15,0.56 0.4,0.72 z"
     id="path6-3" />
</svg>
