<?xml version="1.0" encoding="UTF-8" standalone="no"?>
<svg
   height="24px"
   viewBox="0 0 24 24"
   width="24px"
   
   version="1.1"
   id="svg6"
   sodipodi:docname="mail-inbox.svg"
   inkscape:version="1.1 (c68e22c387, 2021-05-23)"
   xmlns:inkscape="http://www.inkscape.org/namespaces/inkscape"
   xmlns:sodipodi="http://sodipodi.sourceforge.net/DTD/sodipodi-0.dtd"
   xmlns="http://www.w3.org/2000/svg"
   xmlns:svg="http://www.w3.org/2000/svg">
  <path fill="#B9D4F0"
     id="path4-7"
     d="M 4.9902344 3 C 3.8802344 3 3 3.9 3 5 L 3 6 L 3 9.6914062 L 3 14.308594 L 3 19 C 3 19.06875 3.0030476 19.136108 3.0097656 19.203125 C 3.015772 19.262411 3.0240715 19.321219 3.0351562 19.378906 C 3.0423172 19.416623 3.0532689 19.453289 3.0625 19.490234 C 3.0684502 19.513747 3.0733024 19.537368 3.0800781 19.560547 C 3.0923026 19.602901 3.1062124 19.644389 3.1210938 19.685547 C 3.1250986 19.696516 3.1286219 19.70787 3.1328125 19.71875 C 3.1485966 19.760111 3.1671615 19.799847 3.1855469 19.839844 C 3.1934352 19.856857 3.2006358 19.873872 3.2089844 19.890625 C 3.2286143 19.930352 3.2493539 19.969631 3.2714844 20.007812 C 3.2745738 20.013098 3.2781136 20.018182 3.28125 20.023438 C 3.3081443 20.068874 3.3368934 20.113225 3.3671875 20.15625 C 3.4644573 20.294397 3.5785531 20.418191 3.7070312 20.527344 C 3.7498994 20.563764 3.7939362 20.598136 3.8398438 20.630859 C 3.8853182 20.663274 3.9322246 20.694097 3.9804688 20.722656 C 4.0293013 20.751564 4.0794072 20.778011 4.1308594 20.802734 C 4.1817655 20.827195 4.2338526 20.849006 4.2871094 20.869141 C 4.3408089 20.889443 4.3952993 20.908158 4.4511719 20.923828 C 4.5057321 20.93913 4.5607604 20.952226 4.6171875 20.962891 C 4.6288612 20.965158 4.640597 20.966686 4.6523438 20.96875 C 4.6994703 20.976788 4.746666 20.985559 4.7949219 20.990234 C 4.859235 20.996466 4.9241555 21 4.9902344 21 L 19 21 C 19.077508 21 19.153238 20.99502 19.228516 20.986328 C 19.230563 20.986092 19.232329 20.984618 19.234375 20.984375 C 19.298093 20.97682 19.362045 20.966585 19.423828 20.953125 C 19.451608 20.947033 19.478518 20.938885 19.505859 20.931641 C 19.549883 20.920047 19.593914 20.909014 19.636719 20.894531 C 19.65856 20.887106 19.679672 20.877298 19.701172 20.869141 C 19.748961 20.851089 19.795805 20.832085 19.841797 20.810547 C 19.849499 20.80694 19.857585 20.804484 19.865234 20.800781 C 19.87211 20.797448 19.877933 20.792472 19.884766 20.789062 C 19.937557 20.762764 19.989014 20.733829 20.039062 20.703125 C 20.04397 20.700114 20.049807 20.698364 20.054688 20.695312 C 20.058227 20.693093 20.060928 20.689741 20.064453 20.6875 C 20.105016 20.661787 20.145056 20.635899 20.183594 20.607422 C 20.208234 20.589166 20.232095 20.570119 20.255859 20.550781 C 20.260163 20.547279 20.265257 20.544553 20.269531 20.541016 C 20.312921 20.505168 20.354304 20.467039 20.394531 20.427734 C 20.445975 20.377471 20.495173 20.325019 20.541016 20.269531 C 20.58221 20.21967 20.619949 20.168944 20.65625 20.115234 C 20.692517 20.062171 20.726928 20.007837 20.757812 19.951172 C 20.798246 19.876985 20.832354 19.800114 20.863281 19.720703 C 20.872113 19.698065 20.880656 19.675368 20.888672 19.652344 C 20.916957 19.571012 20.941344 19.487973 20.958984 19.402344 C 20.985742 19.272461 21 19.1375 21 19 L 21 14.308594 L 21 9.6914062 L 21 6 L 21 5 C 21 3.9 20.1 3 19 3 L 4.9902344 3 z M 5.9902344 5 L 18 5 C 18.06875 5 18.136231 5.0061523 18.201172 5.0195312 C 18.266113 5.0329102 18.328906 5.0527344 18.388672 5.078125 C 18.627734 5.1796875 18.820312 5.3722656 18.921875 5.6113281 C 18.947266 5.6710937 18.96709 5.7338867 18.980469 5.7988281 C 18.993848 5.8637695 19 5.93125 19 6 L 19 9.6914062 L 19 14.308594 L 19 15 L 17 15 L 15.869141 15 C 15.399141 15 15.018672 15.34078 14.888672 15.800781 C 14.538672 17.070781 13.369999 18 12 18 C 10.63 18 9.459376 17.070781 9.109375 15.800781 C 8.979376 15.34078 8.5989062 15 8.1289062 15 L 7 15 L 5 15 L 4.9902344 15 L 4.9902344 14.308594 L 4.9902344 9.6914062 L 4.9902344 6 C 4.9902344 5.93125 4.9963867 5.8637695 5.0097656 5.7988281 C 5.0231445 5.7338867 5.0429688 5.6710937 5.0683594 5.6113281 C 5.1699219 5.3722656 5.3625 5.1796875 5.6015625 5.078125 C 5.6613281 5.0527344 5.7241211 5.0329102 5.7890625 5.0195312 C 5.8540039 5.0061523 5.9214844 5 5.9902344 5 z M 5 17 L 7.421875 17 A 5 5 0 0 0 9.0214844 19 L 5.9902344 19 C 5.4847152 19 5.0647952 18.619409 5 18.130859 L 5 17 z M 16.578125 17 L 19 17 L 19 18 C 19 18.55 18.55 19 18 19 L 14.978516 19 A 5 5 0 0 0 16.578125 17 z " />
  <defs
     id="defs10" />
  <sodipodi:namedview
     id="namedview8"
     pagecolor="#ffffff"
     bordercolor="#666666"
     borderopacity="1.0"
     inkscape:pageshadow="2"
     inkscape:pageopacity="0.0"
     inkscape:pagecheckerboard="0"
     showgrid="false"
     inkscape:zoom="8.6263215"
     inkscape:cx="4.752895"
     inkscape:cy="8.7522822"
     inkscape:window-width="885"
     inkscape:window-height="477"
     inkscape:window-x="26"
     inkscape:window-y="23"
     inkscape:window-maximized="0"
     inkscape:current-layer="svg6" />
</svg>
