<?xml version="1.0" encoding="UTF-8" standalone="no"?>
<svg
   xmlns:dc="http://purl.org/dc/elements/1.1/"
   xmlns:cc="http://creativecommons.org/ns#"
   xmlns:rdf="http://www.w3.org/1999/02/22-rdf-syntax-ns#"
   xmlns:svg="http://www.w3.org/2000/svg"
   xmlns="http://www.w3.org/2000/svg"
   xmlns:sodipodi="http://sodipodi.sourceforge.net/DTD/sodipodi-0.dtd"
   xmlns:inkscape="http://www.inkscape.org/namespaces/inkscape"
   enable-background="new 0 0 24 24"
   height="24"
   viewBox="0 0 24 24"
   width="24"
   version="1.1"
   id="svg8"
   sodipodi:docname="mail-message-new-symbolic.svg"
   inkscape:version="1.0.1 (3bc2e813f5, 2020-09-07)">
  <metadata
     id="metadata14">
    <rdf:RDF>
      <cc:Work
         rdf:about="">
        <dc:format>image/svg+xml</dc:format>
        <dc:type
           rdf:resource="http://purl.org/dc/dcmitype/StillImage" />
      </cc:Work>
    </rdf:RDF>
  </metadata>
  <defs
     id="defs12" />
  <sodipodi:namedview
     pagecolor="#ffffff"
     bordercolor="#666666"
     borderopacity="1"
     objecttolerance="10"
     gridtolerance="10"
     guidetolerance="10"
     inkscape:pageopacity="0"
     inkscape:pageshadow="2"
     inkscape:window-width="948"
     inkscape:window-height="1005"
     id="namedview10"
     showgrid="false"
     inkscape:zoom="31"
     inkscape:cx="12.064516"
     inkscape:cy="12"
     inkscape:window-x="56"
     inkscape:window-y="50"
     inkscape:window-maximized="0"
     inkscape:current-layer="svg8" />
  <path fill="#B9D4F0"
     d="m 19,10 c 1.13,0 2.16,-0.39 3,-1.02 V 18 c 0,1.1 -0.9,2 -2,2 H 4 C 2.9,20 2,19.1 2,18 V 6 C 2,4.9 2.9,4 4,4 H 14.1 C 14.04,4.32 14,4.66 14,5 c 0,1.48 0.65,2.79 1.67,3.71 L 12,11 5.3,6.81 C 4.73,6.46 4,6.86 4,7.53 4,7.82 4.15,8.09 4.4,8.25 l 7.07,4.42 c 0.32,0.2 0.74,0.2 1.06,0 L 17.3,9.69 C 17.84,9.88 18.4,10 19,10 Z M 16,5 c 0,1.66 1.34,3 3,3 1.66,0 3,-1.34 3,-3 0,-1.66 -1.34,-3 -3,-3 -1.66,0 -3,1.34 -3,3 z"
     id="path4-3" />
</svg>
