<?xml version="1.0" encoding="UTF-8" standalone="no"?>
<svg
   xmlns:dc="http://purl.org/dc/elements/1.1/"
   xmlns:cc="http://creativecommons.org/ns#"
   xmlns:rdf="http://www.w3.org/1999/02/22-rdf-syntax-ns#"
   xmlns:svg="http://www.w3.org/2000/svg"
   xmlns="http://www.w3.org/2000/svg"
   xmlns:sodipodi="http://sodipodi.sourceforge.net/DTD/sodipodi-0.dtd"
   xmlns:inkscape="http://www.inkscape.org/namespaces/inkscape"
   version="1.1"
   width="24"
   height="24"
   viewBox="0 0 24 24"
   id="svg4"
   sodipodi:docname="window-new.svg"
   inkscape:version="1.0.2 (e86c870879, 2021-01-15)">
  <metadata
     id="metadata10">
    <rdf:RDF>
      <cc:Work
         rdf:about="">
        <dc:format>image/svg+xml</dc:format>
        <dc:type
           rdf:resource="http://purl.org/dc/dcmitype/StillImage" />
      </cc:Work>
    </rdf:RDF>
  </metadata>
  <defs
     id="defs8" />
  <sodipodi:namedview
     pagecolor="#ffffff"
     bordercolor="#666666"
     borderopacity="1"
     objecttolerance="10"
     gridtolerance="10"
     guidetolerance="10"
     inkscape:pageopacity="0"
     inkscape:pageshadow="2"
     inkscape:window-width="1908"
     inkscape:window-height="1031"
     id="namedview6"
     showgrid="false"
     inkscape:zoom="14.849242"
     inkscape:cx="20.517582"
     inkscape:cy="11.499098"
     inkscape:window-x="1924"
     inkscape:window-y="1084"
     inkscape:window-maximized="0"
     inkscape:current-layer="svg4"
     inkscape:document-rotation="0" />
  <path fill="#B9D4F0"
     id="path2"
     d="M 22,8 C 22,7.7225 21.94453,7.4582812 21.84375,7.21875 21.642187,6.7396875 21.260313,6.3578125 20.78125,6.15625 c -5.29e-4,-2.245e-4 -0.0014,2.24e-4 -0.002,0 -0.119255,-0.050045 -0.245052,-0.088856 -0.375,-0.1152344 -6.17e-4,-1.268e-4 -0.0013,1.263e-4 -0.002,0 C 20.272356,6.0147584 20.138086,6 20,6 H 8 C 7.725,6 7.461719,6.0554688 7.222656,6.15625 7.15752,6.1837292 7.098511,6.2218935 7.037109,6.2558594 6.985838,6.2841983 6.931223,6.307253 6.882812,6.3398438 c -7.28e-4,4.91e-4 -0.00122,0.00146 -0.00195,0.00195 -0.105577,0.071288 -0.202994,0.1525237 -0.292968,0.2421875 -6.51e-4,6.49e-4 -0.0013,0.0013 -0.00195,0.00195 C 6.496092,6.6757183 6.415309,6.7733163 6.343756,6.8789 6.343239,6.8796635 6.342316,6.88009 6.341806,6.88085 6.270355,6.9865792 6.208637,7.0998041 6.158203,7.21875 6.122853,7.3020165 6.100106,7.3918754 6.076172,7.4804688 c -0.010493,0.038927 -0.02699,0.075386 -0.035156,0.1152343 -1.27e-4,6.168e-4 1.26e-4,0.00134 0,0.00195 C 6.014507,7.7276435 6,7.8619135 6,8 v 12 c 0,1.104569 0.895431,2 2,2 h 12 c 1.10457,0 2,-0.895431 2,-2 z M 18,3 C 18,2.45 17.55,2 17,2 H 16 15 7 6.5 4 C 3.8625,2 3.727539,2.0142556 3.597656,2.0410156 3.419555,2.0774604 3.253126,2.1442494 3.095703,2.2246094 3.063648,2.2409697 3.032981,2.2573807 3.001953,2.2753906 2.850778,2.3630326 2.708693,2.4631818 2.585938,2.5859375 2.463182,2.7086932 2.363033,2.8507781 2.275391,3.0019531 2.257381,3.0329809 2.24097,3.0636482 2.224609,3.0957031 2.144249,3.2531263 2.07746,3.4195551 2.041016,3.5976562 2.014258,3.7275382 2,3.8625 2,4 v 13 c 0,0.1375 0.027344,0.269141 0.078125,0.388672 0.045409,0.10689 0.113574,0.199015 0.191406,0.283203 0.025457,0.02768 0.053651,0.04954 0.082031,0.07422 0.061047,0.05301 0.126678,0.09758 0.199219,0.134765 0.033415,0.01722 0.06417,0.0354 0.09961,0.04883 C 2.760219,17.971294 2.876125,18 3,18 3.55,18 4,17.55 4,17 V 16 5.5 5 C 4,4.45 4.45,4 5,4 h 12 c 0.55,0 1,-0.45 1,-1 z"
     sodipodi:nodetypes="ssscscssccscscscccscssssssssccccscccscccsssccccssccssss" />
</svg>
