<?xml version="1.0" encoding="UTF-8" standalone="no"?>
<svg
   xmlns:dc="http://purl.org/dc/elements/1.1/"
   xmlns:cc="http://creativecommons.org/ns#"
   xmlns:rdf="http://www.w3.org/1999/02/22-rdf-syntax-ns#"
   xmlns:svg="http://www.w3.org/2000/svg"
   xmlns="http://www.w3.org/2000/svg"
   xmlns:sodipodi="http://sodipodi.sourceforge.net/DTD/sodipodi-0.dtd"
   xmlns:inkscape="http://www.inkscape.org/namespaces/inkscape"
   height="24px"
   viewBox="0 0 24 24"
   width="24px"
   
   version="1.1"
   id="svg6"
   sodipodi:docname="alarm_off_black_24dp.svg"
   inkscape:version="1.0.2 (e86c870879, 2021-01-15)">
  <metadata
     id="metadata12">
    <rdf:RDF>
      <cc:Work
         rdf:about="">
        <dc:format>image/svg+xml</dc:format>
        <dc:type
           rdf:resource="http://purl.org/dc/dcmitype/StillImage" />
      </cc:Work>
    </rdf:RDF>
  </metadata>
  <defs
     id="defs10" />
  <sodipodi:namedview
     pagecolor="#ffffff"
     bordercolor="#666666"
     borderopacity="1"
     objecttolerance="10"
     gridtolerance="10"
     guidetolerance="10"
     inkscape:pageopacity="0"
     inkscape:pageshadow="2"
     inkscape:window-width="1908"
     inkscape:window-height="1031"
     id="namedview8"
     showgrid="false"
     inkscape:zoom="10.5"
     inkscape:cx="9.9796708"
     inkscape:cy="2.3086579"
     inkscape:window-x="8"
     inkscape:window-y="1084"
     inkscape:window-maximized="0"
     inkscape:current-layer="svg6" />
  <path fill="#B9D4F0"
     d="M10.04 6.29C10.66 6.11 11.32 6 12 6c3.86 0 7 3.14 7 7 0 .68-.11 1.34-.29 1.96l1.56 1.56c.47-1.08.73-2.27.73-3.52 0-4.97-4.03-9-9-9-1.25 0-2.44.26-3.53.72l1.57 1.57zm-6.33-3.5c-.38-.38-1-.38-1.39 0l-.02.03c-.39.39-.39 1.01 0 1.39l.68.68-.17.14c-.42.34-.47.96-.13 1.38l.03.03c.35.42.96.47 1.38.12l.31-.25.8.8C3.83 8.69 3 10.75 3 13c0 4.97 4.03 9 9 9 2.25 0 4.31-.83 5.89-2.2l1.41 1.41c.38.38 1 .38 1.39 0l.03-.03c.38-.38.38-1 0-1.39l-17.01-17zM12 20c-3.86 0-7-3.14-7-7 0-1.7.61-3.26 1.62-4.47l9.85 9.85C15.26 19.39 13.7 20 12 20zm7.91-13.44c.42.35 1.03.29 1.38-.12l.03-.03c.35-.42.29-1.03-.12-1.38l-3.1-2.59c-.42-.35-1.03-.29-1.38.12l-.03.03c-.35.42-.29 1.03.12 1.38l3.1 2.59zM7.43 3.68c.18-.34.15-.77-.11-1.09l-.03-.03c-.3-.36-.8-.43-1.2-.22l1.34 1.34z"
     id="path4" />
</svg>
