<?xml version="1.0" encoding="UTF-8" standalone="no"?>
<svg
   xmlns:dc="http://purl.org/dc/elements/1.1/"
   xmlns:cc="http://creativecommons.org/ns#"
   xmlns:rdf="http://www.w3.org/1999/02/22-rdf-syntax-ns#"
   xmlns:svg="http://www.w3.org/2000/svg"
   xmlns="http://www.w3.org/2000/svg"
   xmlns:sodipodi="http://sodipodi.sourceforge.net/DTD/sodipodi-0.dtd"
   xmlns:inkscape="http://www.inkscape.org/namespaces/inkscape"
   height="24"
   viewBox="0 0 24 24"
   width="24"
   version="1.1"
   id="svg4"
   sodipodi:docname="stroke-cap-round.svg"
   inkscape:version="1.0.2 (e86c870879, 2021-01-15)">
  <metadata
     id="metadata10">
    <rdf:RDF>
      <cc:Work
         rdf:about="">
        <dc:format>image/svg+xml</dc:format>
        <dc:type
           rdf:resource="http://purl.org/dc/dcmitype/StillImage" />
      </cc:Work>
    </rdf:RDF>
  </metadata>
  <defs
     id="defs8" />
  <sodipodi:namedview
     pagecolor="#ffffff"
     bordercolor="#666666"
     borderopacity="1"
     objecttolerance="10"
     gridtolerance="10"
     guidetolerance="10"
     inkscape:pageopacity="0"
     inkscape:pageshadow="2"
     inkscape:window-width="1904"
     inkscape:window-height="1000"
     id="namedview6"
     showgrid="false"
     inkscape:zoom="22.717448"
     inkscape:cx="14.699998"
     inkscape:cy="13.386892"
     inkscape:window-x="26"
     inkscape:window-y="23"
     inkscape:window-maximized="0"
     inkscape:current-layer="svg4"
     inkscape:document-rotation="0" />
  <path fill="#5294e2"
     id="path2-5"
     d="M 8 3 C 5.238576 3 3 5.2385763 3 8 L 3 13 L 3 16 C 3 18.761424 5.238576 21 8 21 L 13 21 L 16 21 C 18.761424 21 21 18.761424 21 16 L 21 13 L 21 11 L 21 8 C 21 5.2385763 18.761424 3 16 3 L 13 3 L 11 3 L 8 3 z M 8 5 L 11 5 L 13 5 L 16 5 C 17.656854 5 19 6.3431458 19 8 L 19 11 L 19 13 L 19 16 C 19 17.656854 17.656854 19 16 19 L 13 19 L 8 19 C 6.343146 19 5 17.656854 5 16 L 5 11 L 5 8 C 5 6.3431458 6.343146 5 8 5 z " />
</svg>
