<?xml version="1.0" encoding="UTF-8" standalone="no"?>
<svg
   xmlns:dc="http://purl.org/dc/elements/1.1/"
   xmlns:cc="http://creativecommons.org/ns#"
   xmlns:rdf="http://www.w3.org/1999/02/22-rdf-syntax-ns#"
   xmlns:svg="http://www.w3.org/2000/svg"
   xmlns="http://www.w3.org/2000/svg"
   xmlns:sodipodi="http://sodipodi.sourceforge.net/DTD/sodipodi-0.dtd"
   xmlns:inkscape="http://www.inkscape.org/namespaces/inkscape"
   version="1.1"
   id="mdi-calendar"
   width="24"
   height="24"
   viewBox="0 0 24 24"
   sodipodi:docname="view-calendar-timeline.svg"
   inkscape:version="1.0.2 (e86c870879, 2021-01-15)">
  <metadata
     id="metadata9">
    <rdf:RDF>
      <cc:Work
         rdf:about="">
        <dc:format>image/svg+xml</dc:format>
        <dc:type
           rdf:resource="http://purl.org/dc/dcmitype/StillImage" />
      </cc:Work>
    </rdf:RDF>
  </metadata>
  <defs
     id="defs7" />
  <sodipodi:namedview
     pagecolor="#ffffff"
     bordercolor="#666666"
     borderopacity="1"
     objecttolerance="10"
     gridtolerance="10"
     guidetolerance="10"
     inkscape:pageopacity="0"
     inkscape:pageshadow="2"
     inkscape:window-width="1908"
     inkscape:window-height="2080"
     id="namedview5"
     showgrid="false"
     inkscape:zoom="42"
     inkscape:cx="12"
     inkscape:cy="12"
     inkscape:window-x="3848"
     inkscape:window-y="35"
     inkscape:window-maximized="0"
     inkscape:current-layer="mdi-calendar" />
  <path fill="#5294e2"
     d="M 19,3 H 18 V 2 C 18,1.45 17.55,1 17,1 16.45,1 16,1.45 16,2 V 3 H 7.9999997 V 2 c 0,-0.55 -0.45,-1 -1,-1 -0.55,0 -1,0.45 -1,1 v 1 h -1 c -1.11,0 -1.99,0.9 -1.99,2 l -0.01,14 c 0,1.1 0.89,2 2,2 H 19 c 1.1,0 2,-0.9 2,-2 V 5 C 21,3.9 20.1,3 19,3 Z M 18,19 H 5.9999997 c -0.55,0 -1,-0.45 -1,-1 V 8 H 19 v 10 c 0,0.55 -0.45,1 -1,1 z m -5,-7 h 3 c 0.55,0 1,0.45 1,1 v 3 c 0,0.55 -0.45,1 -1,1 h -3 c -0.55,0 -1,-0.45 -1,-1 v -3 c 0,-0.55 0.45,-1 1,-1 z"
     id="path2-3"
     sodipodi:nodetypes="scsssccssscsccssssssssccsssssssssss" />
</svg>
