<?xml version="1.0" encoding="UTF-8" standalone="no"?>
<svg
   xmlns:dc="http://purl.org/dc/elements/1.1/"
   xmlns:cc="http://creativecommons.org/ns#"
   xmlns:rdf="http://www.w3.org/1999/02/22-rdf-syntax-ns#"
   xmlns:svg="http://www.w3.org/2000/svg"
   xmlns="http://www.w3.org/2000/svg"
   xmlns:sodipodi="http://sodipodi.sourceforge.net/DTD/sodipodi-0.dtd"
   xmlns:inkscape="http://www.inkscape.org/namespaces/inkscape"
   version="1.1"
   id="mdi-calendar-remove"
   width="24"
   height="24"
   viewBox="0 0 24 24"
   sodipodi:docname="view-time-schedule-baselined-remove.svg"
   inkscape:version="1.0.2 (e86c870879, 2021-01-15)">
  <metadata
     id="metadata9">
    <rdf:RDF>
      <cc:Work
         rdf:about="">
        <dc:format>image/svg+xml</dc:format>
        <dc:type
           rdf:resource="http://purl.org/dc/dcmitype/StillImage" />
      </cc:Work>
    </rdf:RDF>
  </metadata>
  <defs
     id="defs7" />
  <sodipodi:namedview
     pagecolor="#ffffff"
     bordercolor="#666666"
     borderopacity="1"
     objecttolerance="10"
     gridtolerance="10"
     guidetolerance="10"
     inkscape:pageopacity="0"
     inkscape:pageshadow="2"
     inkscape:window-width="1972"
     inkscape:window-height="1031"
     id="namedview5"
     showgrid="false"
     inkscape:zoom="29.698485"
     inkscape:cx="13.449629"
     inkscape:cy="15.583152"
     inkscape:window-x="1860"
     inkscape:window-y="1084"
     inkscape:window-maximized="0"
     inkscape:current-layer="mdi-calendar-remove" />
  <path fill="#5294e2"
     d="m 15.3,10.395413 c -0.39,-0.39 -1.02,-0.39 -1.41,0 L 12,12.274982 10.11,10.385413 c -0.3900445,-0.3899558 -1.02,-0.3900003 -1.41,0 -0.39,0.39 -0.3900444,1.020045 0,1.41 l 1.89,1.889569 -1.89,1.890431 c -0.3899555,0.390044 -0.39,1.02 0,1.41 0.39,0.39 1.0200445,0.390044 1.41,0 l 1.89,-1.890431 1.89,1.890431 c 0.389956,0.390044 1.02,0.39 1.41,0 0.39,-0.39 0.389956,-1.019956 0,-1.41 l -1.89,-1.890431 1.89,-1.889569 c 0.380043,-0.379957 0.38,-1.02 0,-1.4 z"
     id="path2-3"
     sodipodi:nodetypes="sccssscssscssscss" />
  <path fill="#5294e2"
     d="M 19,3 H 18 V 2 C 18,1.45 17.55,1 17,1 16.45,1 16,1.45 16,2 V 3 H 8 V 2 C 8,1.45 7.55,1 7,1 6.45,1 6,1.45 6,2 V 3 H 5 C 3.89,3 3.01,3.9 3.01,5 L 3,19 c 0,1.1 0.89,2 2,2 h 14 c 1.1,0 2,-0.9 2,-2 V 5 C 21,3.9 20.1,3 19,3 Z M 18,19 H 6 C 5.45,19 5,18.549999 5,18 V 8 h 14 v 10 c 0,0.549999 -0.45,1 -1,1 z"
     id="path2-6"
     sodipodi:nodetypes="scsssccssscsccssssssssccss" />
</svg>
