<?xml version="1.0" encoding="UTF-8" standalone="no"?>
<svg
   xmlns:dc="http://purl.org/dc/elements/1.1/"
   xmlns:cc="http://creativecommons.org/ns#"
   xmlns:rdf="http://www.w3.org/1999/02/22-rdf-syntax-ns#"
   xmlns:svg="http://www.w3.org/2000/svg"
   xmlns="http://www.w3.org/2000/svg"
   xmlns:sodipodi="http://sodipodi.sourceforge.net/DTD/sodipodi-0.dtd"
   xmlns:inkscape="http://www.inkscape.org/namespaces/inkscape"
   version="1.1"
   id="mdi-calendar-star"
   width="24"
   height="24"
   viewBox="0 0 24 24"
   sodipodi:docname="view-calendar-special-occasion.svg"
   inkscape:version="1.0.2 (e86c870879, 2021-01-15)">
  <metadata
     id="metadata9">
    <rdf:RDF>
      <cc:Work
         rdf:about="">
        <dc:format>image/svg+xml</dc:format>
        <dc:type
           rdf:resource="http://purl.org/dc/dcmitype/StillImage" />
      </cc:Work>
    </rdf:RDF>
  </metadata>
  <defs
     id="defs7" />
  <sodipodi:namedview
     pagecolor="#ffffff"
     bordercolor="#666666"
     borderopacity="1"
     objecttolerance="10"
     gridtolerance="10"
     guidetolerance="10"
     inkscape:pageopacity="0"
     inkscape:pageshadow="2"
     inkscape:window-width="1972"
     inkscape:window-height="1017"
     id="namedview5"
     showgrid="false"
     inkscape:zoom="7.4246212"
     inkscape:cx="9.6481273"
     inkscape:cy="-8.3276847"
     inkscape:window-x="5700"
     inkscape:window-y="1097"
     inkscape:window-maximized="0"
     inkscape:current-layer="mdi-calendar-star" />
  <path fill="#B9D4F0"
     d="M 19,4 H 18 V 3 C 18,2.45 17.55,2.0000001 17,2.0000001 16.45,2.0000001 16,2.45 16,3 V 4 H 8 V 3 C 8,2.45 7.55,2.0000001 7,2.0000001 6.45,2.0000001 6,2.45 6,3 V 4 H 5 C 3.89,4 3.01,4.9 3.01,6 L 3,20 c 0,1.1 0.89,2 2,2 h 14 c 1.1,0 2,-0.9 2,-2 V 6 C 21,4.9 20.1,4 19,4 Z M 18,20 H 6 C 5.45,20 5,19.55 5,19 V 9 h 14 v 10 c 0,0.55 -0.45,1 -1,1 z"
     id="path2-3"
     sodipodi:nodetypes="scsssccssscsccssssssssccss" />
  <g
     id="g6"
     transform="matrix(0.4428582,0,0,0.4428582,6.6857015,9.2729148)">
    <path fill="#B9D4F0"
       d="m 12,17.27 4.15,2.51 c 0.76,0.46 1.69,-0.22 1.49,-1.08 l -1.1,-4.72 3.67,-3.18 C 20.88,10.22 20.52,9.12 19.64,9.05 L 14.81,8.64 12.92,4.18 c -0.34,-0.81 -1.5,-0.81 -1.84,0 L 9.19,8.63 4.36,9.04 C 3.48,9.11 3.12,10.21 3.79,10.79 l 3.67,3.18 -1.1,4.72 c -0.2,0.86 0.73,1.54 1.49,1.08 z"
       id="path4" />
  </g>
</svg>
