<?xml version="1.0" encoding="UTF-8" standalone="no"?>
<svg
   height="24"
   viewBox="0 0 24 24"
   width="24"
   version="1.1"
   id="svg4"
   sodipodi:docname="vm_clone_wizard.svg"
   inkscape:version="1.1 (c68e22c387, 2021-05-23)"
   xmlns:inkscape="http://www.inkscape.org/namespaces/inkscape"
   xmlns:sodipodi="http://sodipodi.sourceforge.net/DTD/sodipodi-0.dtd"
   xmlns="http://www.w3.org/2000/svg"
   xmlns:svg="http://www.w3.org/2000/svg">
  <defs
     id="defs8" />
  <sodipodi:namedview
     id="namedview6"
     pagecolor="#ffffff"
     bordercolor="#666666"
     borderopacity="1.0"
     inkscape:pageshadow="2"
     inkscape:pageopacity="0.0"
     inkscape:pagecheckerboard="0"
     showgrid="false"
     inkscape:zoom="18.729167"
     inkscape:cx="6.1134594"
     inkscape:cy="7.8220245"
     inkscape:window-width="1908"
     inkscape:window-height="1031"
     inkscape:window-x="1924"
     inkscape:window-y="8"
     inkscape:window-maximized="0"
     inkscape:current-layer="svg4" />
  <path fill="#B9D4F0"
     id="path2"
     d="M 3,1 C 1.9,1 1,1.9000004 1,3 v 11 c 0,0.55 0.45,1 1,1 0.55,0 1,-0.45 1,-1 V 4 C 3,3.45 3.45,3 4,3 H 16 C 16.55,3 17,2.55 17,2 17,1.45 16.55,1 16,1 Z M 7,5 C 5.9,5 5,5.9 5,7 v 10 c 0,1.1 0.9,2 2,2 h 5 v 2 h -1 c -0.55,0 -1,0.45 -1,1 0,0.55 0.45,1 1,1 h 6 c 0.55,0 1,-0.45 1,-1 0,-0.55 -0.45,-1 -1,-1 h -1 v -2 h 5 c 1.1,0 2,-0.9 2,-2 V 7 C 23,5.9 22.1,5 21,5 Z m 1,2 h 12 c 0.55,0 1,0.45 1,1 v 8 c 0,0.55 -0.45,1 -1,1 H 8 C 7.45,17 7,16.55 7,16 V 8 C 7,7.45 7.45,7 8,7 Z" />
</svg>
