<?xml version="1.0" encoding="UTF-8" standalone="no"?>
<svg
   xmlns:dc="http://purl.org/dc/elements/1.1/"
   xmlns:cc="http://creativecommons.org/ns#"
   xmlns:rdf="http://www.w3.org/1999/02/22-rdf-syntax-ns#"
   xmlns:svg="http://www.w3.org/2000/svg"
   xmlns="http://www.w3.org/2000/svg"
   xmlns:sodipodi="http://sodipodi.sourceforge.net/DTD/sodipodi-0.dtd"
   xmlns:inkscape="http://www.inkscape.org/namespaces/inkscape"
   height="24"
   viewBox="0 0 24 24"
   width="24"
   version="1.1"
   id="svg6"
   sodipodi:docname="call-outgoing-symbolic.svg"
   inkscape:version="1.0.1 (3bc2e813f5, 2020-09-07)">
  <metadata
     id="metadata12">
    <rdf:RDF>
      <cc:Work
         rdf:about="">
        <dc:format>image/svg+xml</dc:format>
        <dc:type
           rdf:resource="http://purl.org/dc/dcmitype/StillImage" />
      </cc:Work>
    </rdf:RDF>
  </metadata>
  <defs
     id="defs10" />
  <sodipodi:namedview
     pagecolor="#ffffff"
     bordercolor="#666666"
     borderopacity="1"
     objecttolerance="10"
     gridtolerance="10"
     guidetolerance="10"
     inkscape:pageopacity="0"
     inkscape:pageshadow="2"
     inkscape:window-width="948"
     inkscape:window-height="482"
     id="namedview8"
     showgrid="false"
     inkscape:zoom="36.833333"
     inkscape:cx="21.383485"
     inkscape:cy="3.5328054"
     inkscape:window-x="56"
     inkscape:window-y="50"
     inkscape:window-maximized="0"
     inkscape:current-layer="svg6"
     inkscape:document-rotation="0" />
  <path fill="#ffffff"
     d="m 19.23,15.26 -2.54,-0.29 c -0.61,-0.07 -1.21,0.14 -1.64,0.57 l -1.84,1.84 C 10.38,15.94 8.06,13.63 6.62,10.79 L 8.47,8.94 C 8.9,8.51 9.11,7.91 9.04,7.3 L 8.75,4.78 C 8.63,3.77 7.78,3.01 6.76,3.01 H 5.03 c -1.13,0 -2.07,0.94 -2,2.07 0.53,8.54 7.36,15.36 15.89,15.89 1.13,0.07 2.07,-0.87 2.07,-2 V 17.24 C 21,16.23 20.24,15.38 19.23,15.26 Z M 18.72,3.28 h -4 c -0.55,0 -1,0.45 -1,1 0,0.55 0.45,1 1,1 h 1.59 L 12,9.59 c -0.39,0.39 -0.39,1.02 0,1.41 0.39,0.39 1.02,0.39 1.41,0 l 4.31,-4.31 v 1.59 c 0,0.55 0.45,1 1,1 0.55,0 1,-0.45 1,-1 v -4 c 0,-0.55 -0.45,-1 -1,-1 z"
     id="path4"
     sodipodi:nodetypes="ccsccsccssccsccsssscssscsssss" />
</svg>
