<?xml version="1.0" encoding="UTF-8" standalone="no"?>
<svg
   xmlns:dc="http://purl.org/dc/elements/1.1/"
   xmlns:cc="http://creativecommons.org/ns#"
   xmlns:rdf="http://www.w3.org/1999/02/22-rdf-syntax-ns#"
   xmlns:svg="http://www.w3.org/2000/svg"
   xmlns="http://www.w3.org/2000/svg"
   xmlns:sodipodi="http://sodipodi.sourceforge.net/DTD/sodipodi-0.dtd"
   xmlns:inkscape="http://www.inkscape.org/namespaces/inkscape"
   height="24"
   viewBox="0 0 24 24"
   width="24"
   version="1.1"
   id="svg4"
   sodipodi:docname="chat-none.svg"
   inkscape:version="1.0.2 (e86c870879, 2021-01-15)">
  <metadata
     id="metadata10">
    <rdf:RDF>
      <cc:Work
         rdf:about="">
        <dc:format>image/svg+xml</dc:format>
        <dc:type
           rdf:resource="http://purl.org/dc/dcmitype/StillImage" />
        <dc:title></dc:title>
      </cc:Work>
    </rdf:RDF>
  </metadata>
  <defs
     id="defs8" />
  <sodipodi:namedview
     pagecolor="#ffffff"
     bordercolor="#666666"
     borderopacity="1"
     objecttolerance="10"
     gridtolerance="10"
     guidetolerance="10"
     inkscape:pageopacity="0"
     inkscape:pageshadow="2"
     inkscape:window-width="1908"
     inkscape:window-height="1031"
     id="namedview6"
     showgrid="false"
     inkscape:zoom="21"
     inkscape:cx="12.177487"
     inkscape:cy="9.8291436"
     inkscape:window-x="1924"
     inkscape:window-y="33"
     inkscape:window-maximized="0"
     inkscape:current-layer="svg4" />
  <path fill="white"
     id="path2"
     d="M 4.8359375 2 L 8.8359375 6 L 17 6 C 17.55 6 18 6.45 18 7 C 18 7.55 17.55 8 17 8 L 10.835938 8 L 11.835938 9 L 17 9 C 17.55 9 18 9.45 18 10 C 18 10.55 17.55 11 17 11 L 13.835938 11 L 20.701172 17.865234 C 21.457002 17.579102 22 16.852891 22 16 L 22 4 C 22 2.9 21.1 2 20 2 L 4.8359375 2 z M 2.0175781 3.9199219 C 2.0164777 3.9470579 2.0097656 3.9725938 2.0097656 4 L 2 22 L 6 18 L 18.017578 18 L 13.712891 13.697266 C 13.531033 13.883255 13.279071 14 13 14 L 7 14 C 6.45 14 6 13.55 6 13 C 6 12.45 6.45 12 7 12 L 12.017578 12 L 11.015625 11 L 7 11 C 6.45 11 6 10.55 6 10 C 6 9.45 6.45 9 7 9 L 9.015625 9 L 8.015625 8 L 7 8 C 6.45 8 6 7.55 6 7 C 6 6.7209286 6.1167448 6.4689672 6.3027344 6.2871094 L 3.9355469 3.9199219 L 2.0175781 3.9199219 z " />
  <g
     id="g4"
     transform="translate(-0.02343579,-0.11418848)">
    <path fill="white"
       d="M 20.49,20.49 3.51,3.51 C 3.12,3.12 2.49,3.12 2.1,3.51 1.71,3.9 1.71,4.53 2.1,4.92 L 19.08,21.9 c 0.39,0.39 1.02,0.39 1.41,0 0.39,-0.39 0.39,-1.02 0,-1.41 z"
       id="path2-3"
       sodipodi:nodetypes="sssccss" />
  </g>
</svg>
