<?xml version="1.0" encoding="UTF-8" standalone="no"?>
<svg
   xmlns:dc="http://purl.org/dc/elements/1.1/"
   xmlns:cc="http://creativecommons.org/ns#"
   xmlns:rdf="http://www.w3.org/1999/02/22-rdf-syntax-ns#"
   xmlns:svg="http://www.w3.org/2000/svg"
   xmlns="http://www.w3.org/2000/svg"
   xmlns:sodipodi="http://sodipodi.sourceforge.net/DTD/sodipodi-0.dtd"
   xmlns:inkscape="http://www.inkscape.org/namespaces/inkscape"
   version="1.1"
   id="mdi-earth"
   width="24"
   height="24"
   viewBox="0 0 24 24"
   sodipodi:docname="abrowser (copy).svg"
   inkscape:version="1.0.2 (e86c870879, 2021-01-15)">
  <metadata
     id="metadata9">
    <rdf:RDF>
      <cc:Work
         rdf:about="">
        <dc:format>image/svg+xml</dc:format>
        <dc:type
           rdf:resource="http://purl.org/dc/dcmitype/StillImage" />
      </cc:Work>
    </rdf:RDF>
  </metadata>
  <defs
     id="defs7" />
  <sodipodi:namedview
     pagecolor="#ffffff"
     bordercolor="#666666"
     borderopacity="1"
     objecttolerance="10"
     gridtolerance="10"
     guidetolerance="10"
     inkscape:pageopacity="0"
     inkscape:pageshadow="2"
     inkscape:window-width="1908"
     inkscape:window-height="2080"
     id="namedview5"
     showgrid="false"
     inkscape:zoom="42"
     inkscape:cx="11.728318"
     inkscape:cy="13.904762"
     inkscape:window-x="3848"
     inkscape:window-y="35"
     inkscape:window-maximized="0"
     inkscape:current-layer="mdi-earth" />
  <path fill="#ffffff"
     style="color:#bebebe;font-style:normal;font-variant:normal;font-weight:normal;font-stretch:normal;font-size:medium;line-height:normal;font-family:sans-serif;font-variant-ligatures:normal;font-variant-position:normal;font-variant-caps:normal;font-variant-numeric:normal;font-variant-alternates:normal;font-variant-east-asian:normal;font-feature-settings:normal;font-variation-settings:normal;text-indent:0;text-align:start;text-decoration:none;text-decoration-line:none;text-decoration-style:solid;text-decoration-color:#000000;letter-spacing:normal;word-spacing:normal;text-transform:none;writing-mode:lr-tb;direction:ltr;text-orientation:mixed;dominant-baseline:auto;baseline-shift:baseline;text-anchor:start;white-space:normal;shape-padding:0;shape-margin:0;inline-size:0;clip-rule:nonzero;display:inline;overflow:visible;visibility:visible;opacity:1;isolation:auto;mix-blend-mode:normal;color-interpolation:sRGB;color-interpolation-filters:linearRGB;solid-color:#000000;solid-opacity:1;vector-effect:none;fill:#ffffff;fill-opacity:1;fill-rule:nonzero;stroke:#ffffff;stroke-linecap:butt;stroke-linejoin:miter;stroke-miterlimit:4;stroke-dasharray:none;stroke-dashoffset:0;stroke-opacity:1;marker:none;color-rendering:auto;image-rendering:auto;shape-rendering:auto;text-rendering:auto;enable-background:accumulate;stop-color:#000000;stop-opacity:1"
     d="M 12.001953,1.9921875 C 6.480459,1.991051 1.992188,6.4785093 1.992188,12 c 0,5.521491 4.488271,10.008949 10.009765,10.007812 C 17.521847,22.006676 22.007812,17.51989 22.007812,12 c 0,-5.5198903 -4.485965,-10.0066763 -10.005859,-10.0078125 z m 0,1.921875 h 0.01172 c 0.339399,5.449e-4 0.646479,0.1204848 0.976562,0.1621094 -0.564494,-0.102911 -1.139078,-0.1705919 -1.705078,-0.064453 0.244049,-0.021247 0.464597,-0.097647 0.716797,-0.097656 z m -0.724609,0.099609 C 9.914748,4.2646847 8.73996,5.0413973 7.8125,5.974609 6.17493,7.6251535 5.152274,9.9486 5.341797,12.3125 c 0.0909,1.141943 0.492596,2.251568 1.136719,3.210938 -0.501152,0.14355 -1.00319,0.280129 -1.517579,0.365234 C 2.116505,10.752698 5.504314,4.5218999 11.277344,4.0136715 Z M 13.478516,4.15625 c 2.900218,0.5485156 5.316386,2.5676578 6.216796,5.4511719 -0.845205,1.6681181 -1.988644,3.1680721 -3.402343,4.3945311 -0.706755,0.612089 -1.465816,1.146484 -2.285157,1.515625 -0.817245,0.368196 -1.706258,0.570532 -2.566406,0.521484 -0.281495,-0.01571 -0.531265,-0.161064 -0.802734,-0.230468 1.322989,-0.852753 2.556412,-1.837028 3.583984,-3.035156 v -0.002 c 0.851863,-0.997577 1.628851,-2.161885 1.935547,-3.5292965 h 0.002 C 16.312569,8.5593065 16.340658,7.8344776 16.193359,7.1269531 16.047998,6.4020795 15.707133,5.7300378 15.207031,5.1855469 l -0.0039,-0.00391 -0.0039,-0.00391 C 14.72911,4.6869403 14.127031,4.3545137 13.478516,4.15625 Z m -1.421875,1.5058594 c 0.493334,0 0.989676,0.1537454 1.365234,0.4375 0.339294,0.2557755 0.602707,0.6324304 0.751953,1.0527344 0.150335,0.4233711 0.192098,0.8999299 0.138672,1.3691406 -0.108781,0.9399704 -0.597628,1.8536146 -1.226562,2.6777346 v 0.002 c -1.116104,1.468491 -2.610798,2.652066 -4.275391,3.482422 -0.04361,0.02181 -0.09044,0.04114 -0.134766,0.0625 C 8.453957,14.514921 8.229438,14.285041 8.070312,14.005906 7.621838,13.212002 7.461124,12.241609 7.552734,11.294969 7.643564,10.344956 7.975644,9.4053044 8.433594,8.5176251 8.962528,7.4929738 9.666325,6.5692055 10.587891,6.0605939 11.046253,5.8076243 11.559105,5.6610531 12.056641,5.6621564 Z M 7.076172,9.1074219 C 6.997362,9.3107195 6.945218,9.5209892 6.880859,9.7304688 6.951689,9.5176677 6.98537,9.3138142 7.076172,9.1074219 Z m 12.890625,3.4531251 c -0.186781,3.226063 -2.102625,5.701147 -4.722656,6.847656 -2.820896,1.234406 -6.232393,0.858782 -8.802735,-1.667969 0.570179,-0.168941 1.142992,-0.329608 1.691406,-0.560546 0.36994,0.251064 0.749134,0.491242 1.169922,0.652343 1.509261,0.578527 3.18132,0.489525 4.66211,-0.02344 1.474598,-0.510827 2.75523,-1.413901 3.857422,-2.44336 v -0.002 c 0.864951,-0.809383 1.476623,-1.828794 2.144531,-2.802734 z"
     id="path834"
     sodipodi:nodetypes="sssssccccsccccccccccscccccccccccccsccccccccscccccsscccccccs" />
</svg>
