<?xml version="1.0" encoding="UTF-8" standalone="no"?>
<svg
   xmlns:dc="http://purl.org/dc/elements/1.1/"
   xmlns:cc="http://creativecommons.org/ns#"
   xmlns:rdf="http://www.w3.org/1999/02/22-rdf-syntax-ns#"
   xmlns:svg="http://www.w3.org/2000/svg"
   xmlns="http://www.w3.org/2000/svg"
   xmlns:sodipodi="http://sodipodi.sourceforge.net/DTD/sodipodi-0.dtd"
   xmlns:inkscape="http://www.inkscape.org/namespaces/inkscape"
   height="24"
   viewBox="0 0 24 24"
   width="24"
   version="1.1"
   id="svg4"
   sodipodi:docname="social-network-none.svg"
   inkscape:version="1.0.2 (e86c870879, 2021-01-15)">
  <metadata
     id="metadata10">
    <rdf:RDF>
      <cc:Work
         rdf:about="">
        <dc:format>image/svg+xml</dc:format>
        <dc:type
           rdf:resource="http://purl.org/dc/dcmitype/StillImage" />
        <dc:title></dc:title>
      </cc:Work>
    </rdf:RDF>
  </metadata>
  <defs
     id="defs8" />
  <sodipodi:namedview
     pagecolor="#ffffff"
     bordercolor="#666666"
     borderopacity="1"
     objecttolerance="10"
     gridtolerance="10"
     guidetolerance="10"
     inkscape:pageopacity="0"
     inkscape:pageshadow="2"
     inkscape:window-width="1908"
     inkscape:window-height="2107"
     id="namedview6"
     showgrid="false"
     inkscape:zoom="29.698485"
     inkscape:cx="9.882864"
     inkscape:cy="17.065015"
     inkscape:window-x="1924"
     inkscape:window-y="33"
     inkscape:window-maximized="0"
     inkscape:current-layer="svg4" />
  <path fill="#ffffff"
     id="path2"
     d="M 9.3691406 0.84570312 C 7.9266371 0.99869593 6.7010927 2.1995569 6.6816406 3.7929688 L 19.261719 16.375 C 19.517919 16.038793 19.677734 15.624699 19.677734 15.171875 L 19.677734 6.171875 C 19.677734 5.371875 19.196797 4.6500781 18.466797 4.3300781 L 10.857422 1.0703125 C 10.362422 0.8603125 9.8538281 0.79429688 9.3691406 0.84570312 z M 6.6777344 6.609375 L 6.6777344 9.4804688 L 6.1269531 9.2890625 C 5.6269531 9.1890625 5.1158594 9.3372656 4.7558594 9.6972656 C 4.1758594 10.287266 4.1157815 11.109962 4.4667969 11.910156 L 6.2773438 16.591797 C 6.4661722 17.079797 7.1575 17.171875 7.6875 17.171875 L 17.238281 17.171875 L 6.6777344 6.609375 z M 9.6777344 19.171875 C 8.5777344 19.171875 7.6777344 20.071875 7.6777344 21.171875 C 7.6777344 22.271875 8.5777344 23.171875 9.6777344 23.171875 L 17.677734 23.171875 C 18.777734 23.171875 19.677734 22.271875 19.677734 21.171875 C 19.677734 20.071875 18.777734 19.171875 17.677734 19.171875 L 9.6777344 19.171875 z " />
  <g
     id="g4"
     transform="translate(-0.02343579,-0.11418848)">
    <path fill="#ffffff"
       d="M 20.49,20.49 3.51,3.51 C 3.12,3.12 2.49,3.12 2.1,3.51 1.71,3.9 1.71,4.53 2.1,4.92 L 19.08,21.9 c 0.39,0.39 1.02,0.39 1.41,0 0.39,-0.39 0.39,-1.02 0,-1.41 z"
       id="path2-3"
       sodipodi:nodetypes="sssccss" />
  </g>
</svg>
