<?xml version="1.0" encoding="UTF-8" standalone="no"?>
<svg
   xmlns:dc="http://purl.org/dc/elements/1.1/"
   xmlns:cc="http://creativecommons.org/ns#"
   xmlns:rdf="http://www.w3.org/1999/02/22-rdf-syntax-ns#"
   xmlns:svg="http://www.w3.org/2000/svg"
   xmlns="http://www.w3.org/2000/svg"
   xmlns:sodipodi="http://sodipodi.sourceforge.net/DTD/sodipodi-0.dtd"
   xmlns:inkscape="http://www.inkscape.org/namespaces/inkscape"
   height="24"
   viewBox="0 0 24 24"
   width="24"
   version="1.1"
   id="svg4"
   sodipodi:docname="preferences-sound.svg"
   inkscape:version="1.0.2 (e86c870879, 2021-01-15)">
  <metadata
     id="metadata10">
    <rdf:RDF>
      <cc:Work
         rdf:about="">
        <dc:format>image/svg+xml</dc:format>
        <dc:type
           rdf:resource="http://purl.org/dc/dcmitype/StillImage" />
      </cc:Work>
    </rdf:RDF>
  </metadata>
  <defs
     id="defs8" />
  <sodipodi:namedview
     pagecolor="#ffffff"
     bordercolor="#666666"
     borderopacity="1"
     objecttolerance="10"
     gridtolerance="10"
     guidetolerance="10"
     inkscape:pageopacity="0"
     inkscape:pageshadow="2"
     inkscape:window-width="1908"
     inkscape:window-height="2080"
     id="namedview6"
     showgrid="false"
     inkscape:zoom="42"
     inkscape:cx="12"
     inkscape:cy="7.2380952"
     inkscape:window-x="3848"
     inkscape:window-y="35"
     inkscape:window-maximized="0"
     inkscape:current-layer="svg4" />
  <path fill="#ffffff"
     id="path2"
     d="M 14.992188 3.5449219 C 14.483047 3.4855859 14 3.8979687 14 4.4492188 L 14 4.6503906 C 14 5.0303906 14.249609 5.36 14.599609 5.5 C 14.676086 5.5305312 14.7452 5.5742832 14.820312 5.6074219 C 14.976485 5.6764636 15.127407 5.7521346 15.277344 5.8320312 C 15.446686 5.9221345 15.610801 6.0177835 15.771484 6.1210938 C 15.909129 6.2096251 16.043007 6.3007408 16.173828 6.3984375 C 16.330757 6.5155991 16.48058 6.6398747 16.626953 6.7695312 C 16.745271 6.8743102 16.861681 6.9793346 16.972656 7.0917969 C 17.11623 7.2372844 17.248424 7.3912744 17.378906 7.5488281 C 17.475474 7.6653651 17.573127 7.779627 17.662109 7.9023438 C 17.784048 8.0705828 17.891167 8.2487232 17.998047 8.4277344 C 18.074563 8.5558418 18.156215 8.6792689 18.224609 8.8125 C 18.323925 9.0058842 18.403049 9.2088744 18.484375 9.4121094 C 18.537446 9.5448114 18.599496 9.672036 18.644531 9.8085938 C 18.715068 10.02224 18.760596 10.244719 18.810547 10.466797 C 18.841997 10.606759 18.885281 10.741779 18.908203 10.884766 C 18.966531 11.248131 19 11.62064 19 12 C 19 12.37936 18.966531 12.751869 18.908203 13.115234 C 18.885281 13.258221 18.841997 13.393241 18.810547 13.533203 C 18.760596 13.755281 18.715068 13.97776 18.644531 14.191406 C 18.599496 14.327964 18.537446 14.455189 18.484375 14.587891 C 18.403049 14.791126 18.323925 14.994116 18.224609 15.1875 C 18.156215 15.320731 18.074563 15.444158 17.998047 15.572266 C 17.891167 15.751277 17.784048 15.929417 17.662109 16.097656 C 17.573127 16.220373 17.475474 16.334635 17.378906 16.451172 C 17.248424 16.608726 17.11623 16.762716 16.972656 16.908203 C 16.861681 17.020665 16.745271 17.12569 16.626953 17.230469 C 16.48058 17.360125 16.330757 17.484401 16.173828 17.601562 C 16.043007 17.699259 15.909129 17.790375 15.771484 17.878906 C 15.610801 17.982216 15.446686 18.077866 15.277344 18.167969 C 15.127407 18.247865 14.976485 18.323536 14.820312 18.392578 C 14.7452 18.425717 14.676086 18.469469 14.599609 18.5 C 14.239609 18.64 14 18.969609 14 19.349609 L 14 19.550781 C 14 20.166026 14.601583 20.595063 15.169922 20.410156 C 15.214115 20.393513 15.258876 20.378642 15.302734 20.361328 C 15.433433 20.309914 15.561851 20.254509 15.689453 20.197266 C 15.771368 20.160392 15.853006 20.123211 15.933594 20.083984 C 16.065278 20.020092 16.19429 19.952819 16.322266 19.882812 C 16.381622 19.85025 16.439516 19.815101 16.498047 19.78125 C 16.847125 19.579885 17.182717 19.358029 17.5 19.113281 C 17.540366 19.082078 17.579325 19.049447 17.619141 19.017578 C 17.933673 18.766313 18.233891 18.497538 18.511719 18.207031 C 18.514593 18.204022 18.516662 18.200278 18.519531 18.197266 C 18.534136 18.181932 18.548002 18.165827 18.5625 18.150391 C 18.825768 17.87042 19.067128 17.56977 19.292969 17.257812 C 19.337775 17.195872 19.386437 17.137331 19.429688 17.074219 C 19.455177 17.037049 19.478965 16.998508 19.503906 16.960938 C 19.609661 16.801527 19.711009 16.638977 19.806641 16.472656 C 19.838916 16.416541 19.869303 16.359606 19.900391 16.302734 C 19.98549 16.147026 20.066602 15.989246 20.142578 15.828125 C 20.173986 15.761499 20.20457 15.694467 20.234375 15.626953 C 20.298151 15.482548 20.35779 15.335775 20.414062 15.1875 C 20.446883 15.100946 20.477614 15.013596 20.507812 14.925781 C 20.558476 14.778609 20.605316 14.629034 20.648438 14.478516 C 20.672355 14.394913 20.697211 14.311149 20.71875 14.226562 C 20.758955 14.068883 20.792476 13.908936 20.824219 13.748047 C 20.839998 13.667956 20.857454 13.588658 20.871094 13.507812 C 20.904114 13.31237 20.929029 13.11358 20.949219 12.914062 C 20.954037 12.866322 20.960773 12.819445 20.964844 12.771484 C 20.986514 12.516838 21 12.260267 21 12 C 21 11.739733 20.986514 11.483162 20.964844 11.228516 C 20.960773 11.180555 20.954037 11.133678 20.949219 11.085938 C 20.929029 10.88642 20.904114 10.68763 20.871094 10.492188 C 20.857454 10.411342 20.839998 10.332044 20.824219 10.251953 C 20.792476 10.091064 20.758955 9.9311168 20.71875 9.7734375 C 20.697211 9.6888508 20.672355 9.6050867 20.648438 9.5214844 C 20.605316 9.3709664 20.558476 9.2213912 20.507812 9.0742188 C 20.477614 8.9864038 20.446883 8.8990541 20.414062 8.8125 C 20.35779 8.6642254 20.298151 8.5174516 20.234375 8.3730469 C 20.20457 8.3055325 20.173986 8.2385012 20.142578 8.171875 C 20.066602 8.0107536 19.98549 7.8529736 19.900391 7.6972656 C 19.869303 7.6403936 19.838916 7.5834591 19.806641 7.5273438 C 19.711009 7.3610227 19.609661 7.1984726 19.503906 7.0390625 C 19.478965 7.0014918 19.455177 6.9629515 19.429688 6.9257812 C 19.386437 6.862669 19.337775 6.8041276 19.292969 6.7421875 C 19.067128 6.4302299 18.825768 6.1295796 18.5625 5.8496094 C 18.548002 5.8341731 18.534136 5.8180681 18.519531 5.8027344 C 18.51669 5.7997549 18.514564 5.7959444 18.511719 5.7929688 C 18.233891 5.5024618 17.933673 5.2336872 17.619141 4.9824219 C 17.579325 4.950553 17.540366 4.9179217 17.5 4.8867188 C 17.182717 4.6419714 16.847125 4.4201148 16.498047 4.21875 C 16.439516 4.1848993 16.381622 4.1497504 16.322266 4.1171875 C 16.19429 4.047181 16.065278 3.9799081 15.933594 3.9160156 C 15.853006 3.8767889 15.771368 3.8396084 15.689453 3.8027344 C 15.561851 3.7454912 15.433433 3.6900858 15.302734 3.6386719 C 15.257531 3.6208269 15.211575 3.605023 15.166016 3.5878906 C 15.108231 3.5685011 15.049947 3.5516533 14.992188 3.5449219 z M 11.107422 5.4140625 C 10.841102 5.3822037 10.561498 5.4609239 10.332031 5.6679688 L 7 9 L 4 9 C 3.45 9 3 9.45 3 10 L 3 14 C 3 14.55 3.45 15 4 15 L 7 15 L 10.289062 18.289062 C 10.919063 18.919062 12 18.470078 12 17.580078 L 12 6.4101562 C 12 5.8539063 11.577637 5.4703125 11.107422 5.4140625 z M 14 7.9707031 L 14 16.019531 C 15.48 15.289531 16.5 13.77 16.5 12 C 16.5 10.23 15.48 8.7107031 14 7.9707031 z M 10 8.8300781 L 10 15.169922 L 7.8300781 13 L 5 13 L 5 11 L 7.8300781 11 L 10 8.8300781 z " />
</svg>
