<?xml version="1.0" encoding="UTF-8" standalone="no"?>
<svg
   xmlns:dc="http://purl.org/dc/elements/1.1/"
   xmlns:cc="http://creativecommons.org/ns#"
   xmlns:rdf="http://www.w3.org/1999/02/22-rdf-syntax-ns#"
   xmlns:svg="http://www.w3.org/2000/svg"
   xmlns="http://www.w3.org/2000/svg"
   xmlns:sodipodi="http://sodipodi.sourceforge.net/DTD/sodipodi-0.dtd"
   xmlns:inkscape="http://www.inkscape.org/namespaces/inkscape"
   height="24"
   viewBox="0 0 24 24"
   width="24"
   version="1.1"
   id="svg4"
   sodipodi:docname="social-network.svg"
   inkscape:version="1.0.2 (e86c870879, 2021-01-15)">
  <metadata
     id="metadata10">
    <rdf:RDF>
      <cc:Work
         rdf:about="">
        <dc:format>image/svg+xml</dc:format>
        <dc:type
           rdf:resource="http://purl.org/dc/dcmitype/StillImage" />
      </cc:Work>
    </rdf:RDF>
  </metadata>
  <defs
     id="defs8" />
  <sodipodi:namedview
     pagecolor="#ffffff"
     bordercolor="#666666"
     borderopacity="1"
     objecttolerance="10"
     gridtolerance="10"
     guidetolerance="10"
     inkscape:pageopacity="0"
     inkscape:pageshadow="2"
     inkscape:window-width="1908"
     inkscape:window-height="1031"
     id="namedview6"
     showgrid="false"
     inkscape:zoom="21"
     inkscape:cx="6.3615669"
     inkscape:cy="17.086016"
     inkscape:window-x="1924"
     inkscape:window-y="1109"
     inkscape:window-maximized="0"
     inkscape:current-layer="svg4" />
  <path fill="#5294e2"
     d="m 4.4663304,11.910133 1.8112286,4.680856 c 0.1888285,0.488 0.88,0.58 1.41,0.58 h 9.99 c 1.1,0 2,-0.9 2,-2 V 6.1709892 c 0,-0.8 -0.48,-1.52 -1.21,-1.84 l -7.61,-3.26 c -1.98,-0.83999999 -4.18,0.61 -4.18,2.76 v 5.65 L 6.126199,9.2881521 c -0.5,-0.1 -1.01,0.05 -1.37,0.41 -0.58,0.5899999 -0.640884,1.4117869 -0.2898686,2.2119809 z m 15.2112286,9.260856 c 0,-1.1 -0.9,-2 -2,-2 h -8 c -1.1,0 -2,0.9 -2,2 0,1.1 0.9,2 2,2 h 8 c 1.1,0 2,-0.9 2,-2 z"
     id="path2"
     sodipodi:nodetypes="csssssccsccccsssssss" />
</svg>
