<?xml version="1.0" encoding="UTF-8" standalone="no"?>
<svg
   xmlns:dc="http://purl.org/dc/elements/1.1/"
   xmlns:cc="http://creativecommons.org/ns#"
   xmlns:rdf="http://www.w3.org/1999/02/22-rdf-syntax-ns#"
   xmlns:svg="http://www.w3.org/2000/svg"
   xmlns="http://www.w3.org/2000/svg"
   xmlns:sodipodi="http://sodipodi.sourceforge.net/DTD/sodipodi-0.dtd"
   xmlns:inkscape="http://www.inkscape.org/namespaces/inkscape"
   version="1.1"
   width="24"
   height="24"
   viewBox="0 0 24 24"
   id="svg4"
   sodipodi:docname="libreoffice-math.svg"
   inkscape:version="1.0.2 (e86c870879, 2021-01-15)">
  <metadata
     id="metadata10">
    <rdf:RDF>
      <cc:Work
         rdf:about="">
        <dc:format>image/svg+xml</dc:format>
        <dc:type
           rdf:resource="http://purl.org/dc/dcmitype/StillImage" />
      </cc:Work>
    </rdf:RDF>
  </metadata>
  <defs
     id="defs8" />
  <sodipodi:namedview
     pagecolor="#ffffff"
     bordercolor="#666666"
     borderopacity="1"
     objecttolerance="10"
     gridtolerance="10"
     guidetolerance="10"
     inkscape:pageopacity="0"
     inkscape:pageshadow="2"
     inkscape:window-width="2036"
     inkscape:window-height="1022"
     id="namedview6"
     showgrid="false"
     inkscape:zoom="25.88358"
     inkscape:cx="17.514505"
     inkscape:cy="12.414652"
     inkscape:window-x="3848"
     inkscape:window-y="1098"
     inkscape:window-maximized="0"
     inkscape:current-layer="svg4" />
  <path fill="#B9D4F0"
     id="path2"
     d="M 15.210938 2 C 15.070938 2 14.943411 2.0534895 14.830078 2.1601562 L 10.099609 6.890625 L 2.8496094 6.890625 C 2.6162761 6.890625 2.4166667 6.9739583 2.25 7.140625 C 2.0833333 7.3072917 2 7.5069011 2 7.7402344 L 2 16.259766 C 2 16.493099 2.0833333 16.692708 2.25 16.859375 C 2.4166667 17.026045 2.6162761 17.109375 2.8496094 17.109375 L 10.099609 17.109375 L 14.839844 21.839844 C 14.946511 21.946514 15.070937 22 15.210938 22 C 15.290937 22 15.363017 21.982549 15.429688 21.949219 L 15.609375 21.820312 C 15.989375 21.440312 16.352552 21 16.699219 20.5 C 17.045886 20.033333 17.363724 19.533333 17.650391 19 C 17.937058 18.473333 18.190156 17.934192 18.410156 17.380859 C 18.636823 16.820859 18.820937 16.279766 18.960938 15.759766 C 19.047605 15.779766 19.190625 15.820859 19.390625 15.880859 L 20.029297 16.070312 C 20.255964 16.130313 20.466823 16.183799 20.660156 16.230469 C 20.853489 16.277139 20.979063 16.300781 21.039062 16.300781 C 21.172396 16.300781 21.287529 16.262783 21.380859 16.189453 C 21.460859 16.109453 21.520547 16.010625 21.560547 15.890625 C 21.640547 15.630625 21.706436 15.333333 21.759766 15 C 21.813096 14.666667 21.857295 14.324036 21.890625 13.970703 C 21.930625 13.624036 21.957373 13.279453 21.970703 12.939453 C 21.990703 12.599453 22 12.286667 22 12 L 22 11.080078 C 21.97333 10.740078 21.943486 10.400547 21.910156 10.060547 C 21.870156 9.7205469 21.822861 9.3841145 21.769531 9.0507812 C 21.709531 8.7241146 21.640547 8.4237239 21.560547 8.1503906 C 21.520547 8.0303906 21.460859 7.9296094 21.380859 7.8496094 C 21.287526 7.7762764 21.172396 7.7402344 21.039062 7.7402344 C 20.959062 7.7402344 20.830391 7.7607812 20.650391 7.8007812 C 20.463724 7.8474479 20.267214 7.9009375 20.060547 7.9609375 C 19.847214 8.0209375 19.639453 8.080625 19.439453 8.140625 C 19.239453 8.200625 19.080938 8.2459639 18.960938 8.2792969 C 18.474271 6.4592969 17.653333 4.7926302 16.5 3.2792969 C 16.366667 3.0926302 16.226745 2.9042708 16.080078 2.7109375 C 15.926745 2.5309375 15.763177 2.3530208 15.589844 2.1796875 C 15.529844 2.1196875 15.473252 2.0774483 15.419922 2.0507812 C 15.359922 2.0174483 15.290938 2 15.210938 2 z M 15.169922 3.6308594 C 15.776589 4.3908594 16.290937 5.18 16.710938 6 C 17.130937 6.7933333 17.46737 7.6627083 17.720703 8.609375 L 12.220703 10.070312 L 12.220703 7.7402344 C 12.220703 7.5802344 12.179609 7.4372136 12.099609 7.3105469 C 12.032942 7.1838802 11.934114 7.08 11.800781 7 L 15.169922 3.6308594 z M 4.4511719 8.7109375 L 5.8203125 8.7109375 L 7.0195312 12.650391 L 8.28125 8.7109375 L 9.6503906 8.7109375 L 10.960938 15.269531 L 9.5195312 15.269531 L 8.7402344 11.371094 L 7.5507812 15.140625 L 6.4101562 15.140625 L 5.3007812 11.390625 L 4.5195312 15.269531 L 3.140625 15.269531 L 4.4511719 8.7109375 z M 20.470703 9.1894531 C 20.55737 9.6561198 20.620156 10.123177 20.660156 10.589844 C 20.700156 11.056511 20.720703 11.526667 20.720703 12 C 20.720703 12.486667 20.700156 12.963021 20.660156 13.429688 C 20.620156 13.903021 20.557373 14.373177 20.470703 14.839844 C 19.090703 14.459844 17.716276 14.090469 16.349609 13.730469 C 14.982942 13.370469 13.60737 13.004192 12.220703 12.630859 L 12.210938 12.320312 L 12.210938 11.699219 C 12.210938 11.599219 12.214003 11.497292 12.220703 11.390625 C 13.60737 11.017292 14.982942 10.649062 16.349609 10.289062 C 17.716276 9.9223958 19.090703 9.5561198 20.470703 9.1894531 z M 12.220703 13.949219 L 17.730469 15.419922 L 17.730469 15.429688 C 17.490469 16.336354 17.154036 17.20573 16.720703 18.039062 C 16.28737 18.872396 15.77302 19.649141 15.179688 20.369141 L 11.800781 17 C 11.934114 16.92 12.032939 16.81612 12.099609 16.689453 C 12.179609 16.562786 12.220703 16.419766 12.220703 16.259766 L 12.220703 13.949219 z " />
</svg>
