<?xml version="1.0" encoding="UTF-8" standalone="no"?>
<svg
   xmlns:dc="http://purl.org/dc/elements/1.1/"
   xmlns:cc="http://creativecommons.org/ns#"
   xmlns:rdf="http://www.w3.org/1999/02/22-rdf-syntax-ns#"
   xmlns:svg="http://www.w3.org/2000/svg"
   xmlns="http://www.w3.org/2000/svg"
   xmlns:sodipodi="http://sodipodi.sourceforge.net/DTD/sodipodi-0.dtd"
   xmlns:inkscape="http://www.inkscape.org/namespaces/inkscape"
   version="1.1"
   viewBox="0 0 720 720"
   id="svg12"
   sodipodi:docname="text-x-matlab-symbolic.svg"
   inkscape:version="1.0.1 (3bc2e813f5, 2020-09-07)">
  <metadata
     id="metadata18">
    <rdf:RDF>
      <cc:Work
         rdf:about="">
        <dc:format>image/svg+xml</dc:format>
        <dc:type
           rdf:resource="http://purl.org/dc/dcmitype/StillImage" />
      </cc:Work>
    </rdf:RDF>
  </metadata>
  <defs
     id="defs16" />
  <sodipodi:namedview
     pagecolor="#ffffff"
     bordercolor="#666666"
     borderopacity="1"
     objecttolerance="10"
     gridtolerance="10"
     guidetolerance="10"
     inkscape:pageopacity="0"
     inkscape:pageshadow="2"
     inkscape:window-width="948"
     inkscape:window-height="1000"
     id="namedview14"
     showgrid="false"
     inkscape:zoom="1.1069444"
     inkscape:cx="360"
     inkscape:cy="360"
     inkscape:window-x="26"
     inkscape:window-y="23"
     inkscape:window-maximized="0"
     inkscape:current-layer="svg12" />
  <title
     id="title2">Layer 1</title>
  <g
     fill-rule="evenodd"
     id="g10"
     style="fill:#B9D4F0;fill-opacity:1">
    <path fill="#B9D4F0"
       d="m209.25 329.98-156.88 57.656 121.32 85.822 96.752-95.805-61.197-47.674z"
       
       id="path4"
       style="fill:#B9D4F0;fill-opacity:1" />
    <path fill="#B9D4F0"
       d="m480.19 71.446c-13.123 1.784-9.5653 1.013-28.4 16.091-18.009 14.417-69.925 100.35-97.674 129.26-24.688 25.721-34.46 12.199-60.102 33.661-25.68 21.494-65.273 64.464-65.273 64.464l63.978 47.319 101.43-139.48c23.948-32.932 23.693-37.266 36.743-71.821 6.3846-16.906 17.76-29.899 27.756-45.808 12.488-19.874 30.186-34.855 21.543-33.68z"
       
       id="path6"
       style="fill:#B9D4F0;fill-opacity:1" />
    <path fill="#B9D4F0"
       d="m478.21 69.796c-31.267-.18821-62.068 137.25-115.56 242.69-54.543 107.52-162.24 176.82-162.24 176.82 18.157 8.2431 34.682 4.9095 54.236 23.395 13.375 16.164 52.091 95.975 75.174 146.12 0 0 18.965-10.297 42.994-27.694 24.03-17.398 53.124-41.897 73.384-70.301 26.884-37.692 47.897-61.042 65.703-75.271s32.404-19.336 46.459-20.54c50.237-4.3047 124.58 85.792 124.58 85.792s-155.67-480.71-204.74-481.01z"
       
       id="path8"
       style="fill:#B9D4F0;fill-opacity:1" />
  </g>
</svg>
