<?xml version="1.0" encoding="UTF-8" standalone="no"?>
<svg
   version="1.1"
   id="mdi-file-document-outline"
   width="24"
   height="24"
   viewBox="0 0 24 24"
   sodipodi:docname="application-vnd.iccprofile.svg"
   inkscape:version="1.1 (c68e22c387, 2021-05-23)"
   xmlns:inkscape="http://www.inkscape.org/namespaces/inkscape"
   xmlns:sodipodi="http://sodipodi.sourceforge.net/DTD/sodipodi-0.dtd"
   xmlns="http://www.w3.org/2000/svg"
   xmlns:svg="http://www.w3.org/2000/svg"
   xmlns:rdf="http://www.w3.org/1999/02/22-rdf-syntax-ns#"
   xmlns:cc="http://creativecommons.org/ns#"
   xmlns:dc="http://purl.org/dc/elements/1.1/">
  <metadata
     id="metadata9">
    <rdf:RDF>
      <cc:Work
         rdf:about="">
        <dc:format>image/svg+xml</dc:format>
        <dc:type
           rdf:resource="http://purl.org/dc/dcmitype/StillImage" />
      </cc:Work>
    </rdf:RDF>
  </metadata>
  <defs
     id="defs7" />
  <sodipodi:namedview
     pagecolor="#ffffff"
     bordercolor="#666666"
     borderopacity="1"
     objecttolerance="10"
     gridtolerance="10"
     guidetolerance="10"
     inkscape:pageopacity="0"
     inkscape:pageshadow="2"
     inkscape:window-width="1904"
     inkscape:window-height="1008"
     id="namedview5"
     showgrid="false"
     inkscape:zoom="16.493489"
     inkscape:cx="-2.1826794"
     inkscape:cy="19.098445"
     inkscape:window-x="45"
     inkscape:window-y="29"
     inkscape:window-maximized="0"
     inkscape:current-layer="mdi-file-document-outline"
     inkscape:pagecheckerboard="0" />
  <path fill="#ffffff"
     id="path2"
     d="M 6 2 C 5.9309644 2 5.862156 2.0029376 5.7949219 2.0097656 C 5.7285646 2.0166237 5.6619763 2.0277647 5.5976562 2.0410156 C 5.5325586 2.0543365 5.4669228 2.070365 5.4042969 2.0898438 C 5.3423806 2.1092723 5.2818635 2.1330497 5.2226562 2.1582031 C 5.1634877 2.1837908 5.1052793 2.2115854 5.0488281 2.2421875 C 5.0488281 2.2421875 5.046875 2.2421875 5.046875 2.2421875 C 5.0265329 2.253238 5.0081852 2.2675729 4.9882812 2.2792969 C 4.9461506 2.304113 4.9052975 2.3316459 4.8652344 2.359375 C 4.8246811 2.3875726 4.7844077 2.4162284 4.7460938 2.4472656 C 4.7237438 2.4653198 4.7031784 2.4849244 4.6816406 2.5039062 C 4.6187079 2.559469 4.559469 2.6187079 4.5039062 2.6816406 C 4.4843149 2.7038699 4.4639151 2.7249529 4.4453125 2.7480469 C 4.4173731 2.7826384 4.3908683 2.8170993 4.3652344 2.8535156 C 4.3312587 2.9019313 4.2992082 2.952446 4.2695312 3.0039062 C 4.2610521 3.0186092 4.2503024 3.0319369 4.2421875 3.046875 C 4.2109934 3.1039969 4.1838111 3.162379 4.1582031 3.2226562 C 4.1326154 3.2818249 4.1092345 3.3419537 4.0898438 3.4042969 C 4.0700488 3.467381 4.0545195 3.5321081 4.0410156 3.5976562 C 4.0276947 3.6627539 4.0165936 3.7276877 4.0097656 3.7949219 C 4.002775 3.8625613 4 3.9305922 4 4 L 4 20 C 4 20.06875 4.0029785 20.136108 4.0097656 20.203125 C 4.0098299 20.203764 4.0097007 20.204439 4.0097656 20.205078 C 4.023401 20.338434 4.0512986 20.469299 4.0898438 20.59375 C 4.0900282 20.594345 4.0896588 20.595108 4.0898438 20.595703 C 4.1090823 20.657615 4.1313304 20.71814 4.15625 20.777344 C 4.1686569 20.806753 4.1835122 20.83461 4.1972656 20.863281 C 4.2113992 20.892814 4.2247199 20.922457 4.2402344 20.951172 C 4.2406488 20.951937 4.2417721 20.95236 4.2421875 20.953125 C 4.2724512 21.008961 4.3045963 21.064701 4.3398438 21.117188 C 4.3403403 21.117925 4.3412994 21.118404 4.3417969 21.119141 C 4.3770971 21.17155 4.4151216 21.220801 4.4550781 21.269531 C 4.455661 21.270239 4.4564475 21.270777 4.4570312 21.271484 C 4.4977901 21.320873 4.5406964 21.368821 4.5859375 21.414062 C 4.6300444 21.458291 4.676554 21.501065 4.7246094 21.541016 C 4.7256886 21.54191 4.7274345 21.542077 4.7285156 21.542969 C 4.7766292 21.582793 4.8252132 21.621025 4.8769531 21.65625 C 4.8781471 21.65706 4.8796635 21.657395 4.8808594 21.658203 C 4.9855815 21.728952 5.0972778 21.791641 5.2148438 21.841797 C 5.2167281 21.842601 5.2188158 21.842952 5.2207031 21.84375 C 5.4001607 21.919654 5.5932194 21.96975 5.7949219 21.990234 C 5.859369 21.996584 5.9241225 22 5.9902344 22 C 5.9935106 22.000016 5.99672 22 6 22 L 18 22 C 18.06202 21.999392 18.123007 21.996434 18.183594 21.990234 C 18.231406 21.985889 18.277499 21.9784 18.324219 21.970703 C 18.325478 21.970495 18.326867 21.970913 18.328125 21.970703 C 18.33788 21.969088 18.347715 21.968553 18.357422 21.966797 C 18.3607 21.966192 18.363914 21.965465 18.367188 21.964844 C 18.369206 21.964468 18.371029 21.963273 18.373047 21.962891 C 18.4079 21.956282 18.442279 21.947905 18.476562 21.939453 C 18.488846 21.936419 18.501477 21.934902 18.513672 21.931641 C 18.518213 21.930436 18.522816 21.92897 18.527344 21.927734 C 18.528178 21.927503 18.528539 21.926242 18.529297 21.925781 C 18.529904 21.925613 18.530643 21.92595 18.53125 21.925781 C 18.584151 21.911225 18.636447 21.893676 18.6875 21.875 C 18.730558 21.859249 18.772837 21.842775 18.814453 21.824219 C 18.839868 21.812792 18.863825 21.799556 18.888672 21.787109 C 18.918288 21.772392 18.947802 21.758302 18.976562 21.742188 C 18.977818 21.741479 18.979215 21.740946 18.980469 21.740234 C 19.027243 21.713893 19.072845 21.686138 19.117188 21.65625 C 19.191571 21.606114 19.259362 21.547675 19.326172 21.488281 C 19.347516 21.469229 19.370111 21.451575 19.390625 21.431641 C 19.44339 21.380531 19.494133 21.326146 19.541016 21.269531 C 19.543966 21.265968 19.545902 21.261396 19.548828 21.257812 C 19.586349 21.211744 19.622867 21.166493 19.65625 21.117188 C 19.691977 21.06442 19.727148 21.009277 19.757812 20.953125 C 19.758077 20.95264 19.757548 20.951657 19.757812 20.951172 C 19.787998 20.895789 19.814902 20.839599 19.839844 20.78125 C 19.842849 20.774211 19.84473 20.766846 19.847656 20.759766 C 19.865694 20.716189 19.883465 20.67199 19.898438 20.626953 C 19.905675 20.605082 19.911475 20.582747 19.917969 20.560547 C 19.930445 20.518116 19.941502 20.475168 19.951172 20.431641 C 19.955603 20.41155 19.95907 20.391408 19.962891 20.371094 C 19.968372 20.342198 19.974303 20.312514 19.978516 20.283203 C 19.983636 20.247192 19.989017 20.210439 19.992188 20.173828 C 19.992301 20.172537 19.992077 20.171214 19.992188 20.169922 C 19.996952 20.113647 20 20.057526 20 20 L 20 8.8300781 C 20 8.3000781 19.790156 7.7899219 19.410156 7.4199219 L 14.589844 2.5898438 C 14.209844 2.2098438 13.699922 2 13.169922 2 L 6 2 z M 6.9804688 4 L 10.470703 4 L 13 4 L 13 8 C 13 8.55 13.45 9 14 9 L 18 9 L 18 19.101562 C 17.948098 19.603727 17.52506 20 17.009766 20 L 6.9804688 20 C 6.4992187 20 6.0936523 19.655762 6 19.201172 L 6 4.7988281 C 6.0936523 4.3442383 6.4992187 4 6.9804688 4 z M 9 12 C 8.45 12 8 12.449999 8 13 C 8 13.55 8.45 14 9 14 L 15 14 C 15.55 14 16 13.55 16 13 C 16 12.449999 15.55 12 15 12 L 9 12 z M 9 16 C 8.45 16 8 16.449999 8 17 C 8 17.55 8.45 18 9 18 L 15 18 C 15.55 18 16 17.55 16 17 C 16 16.449999 15.55 16 15 16 L 9 16 z " />
</svg>
