<?xml version="1.0" encoding="UTF-8" standalone="no"?>
<svg
   xmlns:dc="http://purl.org/dc/elements/1.1/"
   xmlns:cc="http://creativecommons.org/ns#"
   xmlns:rdf="http://www.w3.org/1999/02/22-rdf-syntax-ns#"
   xmlns:svg="http://www.w3.org/2000/svg"
   xmlns="http://www.w3.org/2000/svg"
   xmlns:sodipodi="http://sodipodi.sourceforge.net/DTD/sodipodi-0.dtd"
   xmlns:inkscape="http://www.inkscape.org/namespaces/inkscape"
   height="24"
   viewBox="0 0 24 24"
   width="24"
   version="1.1"
   id="svg4"
   sodipodi:docname="folder-home.svg"
   inkscape:version="1.0.2 (e86c870879, 2021-01-15)">
  <metadata
     id="metadata10">
    <rdf:RDF>
      <cc:Work
         rdf:about="">
        <dc:format>image/svg+xml</dc:format>
        <dc:type
           rdf:resource="http://purl.org/dc/dcmitype/StillImage" />
      </cc:Work>
    </rdf:RDF>
  </metadata>
  <defs
     id="defs8" />
  <sodipodi:namedview
     pagecolor="#ffffff"
     bordercolor="#666666"
     borderopacity="1"
     objecttolerance="10"
     gridtolerance="10"
     guidetolerance="10"
     inkscape:pageopacity="0"
     inkscape:pageshadow="2"
     inkscape:window-width="3824"
     inkscape:window-height="2112"
     id="namedview6"
     showgrid="false"
     inkscape:zoom="39.833333"
     inkscape:cx="12.050209"
     inkscape:cy="9.9916318"
     inkscape:window-x="8"
     inkscape:window-y="8"
     inkscape:window-maximized="0"
     inkscape:current-layer="svg4" />
  <path fill="#000000"         
     id="path4-6"
     d="m 12,3.3457036 c -0.24,0 -0.479922,0.085859 -0.669922,0.2558594 L 2.970703,11.13086 C 2.630703,11.43086 2.840783,12 3.300781,12 H 5 v 7 c 0,0.550001 0.45,0.999999 1,1.000001 0.55,0 1,-0.45 1,-1.000001 V 18 16 14 12 10.191407 L 7.208985,10 9.429688,8 12,5.691407 14.570313,8 16.789063,10 17,10.191407 V 12 v 2 2 2 1 c 0,0.550001 0.45,0.999999 1,1.000001 0.55,0 1,-0.45 1,-1.000001 v -7 h 1.699219 c 0.46,0 0.680078,-0.56914 0.330078,-0.86914 L 12.669922,3.601563 C 12.479922,3.431563 12.24,3.3457036 12,3.3457036 Z" />
  <path fill="#000000"         
     d="m 5,19 c 0,0.55 0.45,1 1,1 h 12 c 0.55,0 1,-0.45 1,-1 0,-0.55 -0.45,-1 -1,-1 H 6 c -0.55,0 -1,0.45 -1,1 z"
     id="path2-6"
     sodipodi:nodetypes="sssssss" />
</svg>
