<?xml version="1.0" encoding="UTF-8" standalone="no"?>
<svg
   xmlns:dc="http://purl.org/dc/elements/1.1/"
   xmlns:cc="http://creativecommons.org/ns#"
   xmlns:rdf="http://www.w3.org/1999/02/22-rdf-syntax-ns#"
   xmlns:svg="http://www.w3.org/2000/svg"
   xmlns="http://www.w3.org/2000/svg"
   xmlns:sodipodi="http://sodipodi.sourceforge.net/DTD/sodipodi-0.dtd"
   xmlns:inkscape="http://www.inkscape.org/namespaces/inkscape"
   version="1.1"
   id="mdi-wall"
   width="24"
   height="24"
   viewBox="0 0 24 24"
   sodipodi:docname="builder-build-symbolic.symbolic (copy).svg"
   inkscape:version="1.0.2 (e86c870879, 2021-01-15)">
  <metadata
     id="metadata9">
    <rdf:RDF>
      <cc:Work
         rdf:about="">
        <dc:format>image/svg+xml</dc:format>
        <dc:type
           rdf:resource="http://purl.org/dc/dcmitype/StillImage" />
      </cc:Work>
    </rdf:RDF>
  </metadata>
  <defs
     id="defs7" />
  <sodipodi:namedview
     pagecolor="#ffffff"
     bordercolor="#666666"
     borderopacity="1"
     objecttolerance="10"
     gridtolerance="10"
     guidetolerance="10"
     inkscape:pageopacity="0"
     inkscape:pageshadow="2"
     inkscape:window-width="1908"
     inkscape:window-height="1031"
     id="namedview5"
     showgrid="false"
     inkscape:zoom="28.177668"
     inkscape:cx="12.325631"
     inkscape:cy="14.095926"
     inkscape:window-x="1924"
     inkscape:window-y="1109"
     inkscape:window-maximized="0"
     inkscape:current-layer="mdi-wall" />
  <path fill="white"
     id="path2"
     d="m 3,4 v 5 h 8 V 4 Z m 9,0 v 5 h 9 V 4 Z M 2,10 v 5 h 6 v -5 z m 7,0 v 5 h 4.138672 C 13.475365,14.150197 14.150197,13.475365 15,13.138672 V 10 Z m 7,0 v 2.921875 c 0.0691,-0.0044 0.134931,-0.02148 0.205078,-0.02148 1.391191,0 2.581837,0.875135 3.066406,2.099609 H 22 v -5 z m 0.732422,4.660156 c -0.01254,-0.0019 -0.02454,0.0076 -0.03711,0.0059 L 17.029297,15 h 0.46875 C 17.262988,14.829536 17.006972,14.703058 16.732422,14.660156 Z M 3,16 v 5 h 9 v -5 z m 14.462891,0 c -0.02564,0.218917 -0.104866,0.43299 -0.269532,0.597656 l -0.304687,0.304688 1.072266,0.183594 c 0.132681,-0.26564 0.214843,-0.561039 0.214843,-0.88086 0,-0.0702 -0.01293,-0.137047 -0.02148,-0.205078 z m 2.023437,0 c 0.0044,0.0691 0.02148,0.134931 0.02148,0.205078 0,0.308435 -0.05867,0.601056 -0.138671,0.884766 L 21,18.722656 V 16 Z m -4.822266,0.701172 c 0.05215,0.373711 0.211705,0.735143 0.501954,1.02539 0.202507,0.202508 0.445651,0.328422 0.699218,0.414063 0.110532,0.01887 0.223544,0.0332 0.339844,0.0332 0.290069,0 0.561659,-0.0656 0.808594,-0.175781 L 16.59375,17.197266 c -0.387973,0.389639 -1.054904,0.38855 -1.439453,-0.0059 z M 13,16.96875 V 21 h 5.673828 l -1.61914,-1.619141 c -0.272961,0.07361 -0.554186,0.126953 -0.84961,0.126953 -1.553159,0 -2.856774,-1.088797 -3.205078,-2.539062 z"
     sodipodi:nodetypes="cccccccccccccccccccccccscccccccccccccccsccscccscccccscsccccccccsc" />
  <path fill="white"
     d="m 17.878281,14.414523 c -0.757373,-0.757372 -1.891548,-0.911861 -2.80341,-0.467235 l 1.367793,1.367793 c 0.146952,0.146953 0.146952,0.384339 0,0.531292 l -0.599116,0.599116 c -0.146953,0.150721 -0.384339,0.150721 -0.531292,0 l -1.367793,-1.367793 c -0.440859,0.91563 -0.28637,2.042269 0.471003,2.799642 0.700853,0.700853 1.725756,0.885486 2.596169,0.557668 l 2.999348,2.999348 c 0.388107,0.388106 1.013599,0.388106 1.397938,0 0.388106,-0.388107 0.388106,-1.013599 0,-1.397938 l -2.984276,-2.988043 c 0.346658,-0.881718 0.165793,-1.921693 -0.546364,-2.63385 z"
     id="path2-3"
     style="stroke-width:0.376802" />
</svg>
