<?xml version="1.0" encoding="UTF-8" standalone="no"?>
<svg
   xmlns:dc="http://purl.org/dc/elements/1.1/"
   xmlns:cc="http://creativecommons.org/ns#"
   xmlns:rdf="http://www.w3.org/1999/02/22-rdf-syntax-ns#"
   xmlns:svg="http://www.w3.org/2000/svg"
   xmlns="http://www.w3.org/2000/svg"
   xmlns:sodipodi="http://sodipodi.sourceforge.net/DTD/sodipodi-0.dtd"
   xmlns:inkscape="http://www.inkscape.org/namespaces/inkscape"
   version="1.1"
   id="mdi-spray"
   width="24"
   height="24"
   viewBox="0 0 24 24"
   sodipodi:docname="spray.svg"
   inkscape:version="1.0.2 (e86c870879, 2021-01-15)">
  <metadata
     id="metadata9">
    <rdf:RDF>
      <cc:Work
         rdf:about="">
        <dc:format>image/svg+xml</dc:format>
        <dc:type
           rdf:resource="http://purl.org/dc/dcmitype/StillImage" />
      </cc:Work>
    </rdf:RDF>
  </metadata>
  <defs
     id="defs7" />
  <sodipodi:namedview
     pagecolor="#ffffff"
     bordercolor="#666666"
     borderopacity="1"
     objecttolerance="10"
     gridtolerance="10"
     guidetolerance="10"
     inkscape:pageopacity="0"
     inkscape:pageshadow="2"
     inkscape:window-width="3824"
     inkscape:window-height="2107"
     id="namedview5"
     showgrid="false"
     inkscape:zoom="42"
     inkscape:cx="12"
     inkscape:cy="12"
     inkscape:window-x="8"
     inkscape:window-y="33"
     inkscape:window-maximized="0"
     inkscape:current-layer="mdi-spray" />
  <path fill="#ffffff"
     d="m 10,4 h 2 V 6 H 10 V 4 M 7,3 H 9 V 5 H 7 V 3 M 7,6 H 9 V 8 H 7 V 6 M 6,8 v 2 H 4 V 8 H 6 M 6,5 V 7 H 4 V 5 H 6 M 6,2 V 4 H 4 V 2 h 2 m 7,20 c -1.104569,0 -2,-0.895431 -2,-2 V 10 C 11,8.8954305 11.895431,8 13,8 V 7 h 1 V 4 h 3 v 3 h 1 v 1 c 1.104569,0 2,0.8954305 2,2 v 10 c 0,1.104569 -0.895431,2 -2,2 h -5"
     id="path2"
     sodipodi:nodetypes="cccccccccccccccccccccccccccccccssccccccccsssc" />
</svg>
