<?xml version="1.0" encoding="UTF-8" standalone="no"?>
<svg
   xmlns:dc="http://purl.org/dc/elements/1.1/"
   xmlns:cc="http://creativecommons.org/ns#"
   xmlns:rdf="http://www.w3.org/1999/02/22-rdf-syntax-ns#"
   xmlns:svg="http://www.w3.org/2000/svg"
   xmlns="http://www.w3.org/2000/svg"
   xmlns:sodipodi="http://sodipodi.sourceforge.net/DTD/sodipodi-0.dtd"
   xmlns:inkscape="http://www.inkscape.org/namespaces/inkscape"
   height="24"
   viewBox="0 0 24 24"
   width="24"
   version="1.1"
   id="svg4"
   sodipodi:docname="timer.svg"
   inkscape:version="1.0.2 (e86c870879, 2021-01-15)">
  <metadata
     id="metadata10">
    <rdf:RDF>
      <cc:Work
         rdf:about="">
        <dc:format>image/svg+xml</dc:format>
        <dc:type
           rdf:resource="http://purl.org/dc/dcmitype/StillImage" />
      </cc:Work>
    </rdf:RDF>
  </metadata>
  <defs
     id="defs8" />
  <sodipodi:namedview
     pagecolor="#ffffff"
     bordercolor="#666666"
     borderopacity="1"
     objecttolerance="10"
     gridtolerance="10"
     guidetolerance="10"
     inkscape:pageopacity="0"
     inkscape:pageshadow="2"
     inkscape:window-width="3824"
     inkscape:window-height="2107"
     id="namedview6"
     showgrid="false"
     inkscape:zoom="42"
     inkscape:cx="12"
     inkscape:cy="12"
     inkscape:window-x="8"
     inkscape:window-y="33"
     inkscape:window-maximized="0"
     inkscape:current-layer="svg4" />
  <path fill="white"
     id="path2"
     d="M 10 1 C 9.45 1 9 1.45 9 2 C 9 2.55 9.45 3 10 3 L 14 3 C 14.55 3 15 2.55 15 2 C 15 1.45 14.55 1 14 1 L 10 1 z M 12 4 C 7.2 4 3.12 7.9597656 3 12.759766 C 2.87 17.839766 6.94 22 12 22 C 16.98 22 21 17.97 21 13 C 21 10.88 20.259297 8.930625 19.029297 7.390625 L 19.779297 6.640625 C 20.159297 6.260625 20.169297 5.6302344 19.779297 5.2402344 L 19.769531 5.2304688 C 19.379531 4.8404688 18.759141 4.8504687 18.369141 5.2304688 L 17.619141 5.9804688 C 16.069141 4.7404687 14.12 4 12 4 z M 12 8 C 12.55 8 13 8.45 13 9 L 13 13 C 13 13.55 12.55 14 12 14 C 11.45 14 11 13.55 11 13 L 11 9 C 11 8.45 11.45 8 12 8 z " />
</svg>
