<?xml version="1.0" encoding="UTF-8" standalone="no"?>
<svg
   xmlns:dc="http://purl.org/dc/elements/1.1/"
   xmlns:cc="http://creativecommons.org/ns#"
   xmlns:rdf="http://www.w3.org/1999/02/22-rdf-syntax-ns#"
   xmlns:svg="http://www.w3.org/2000/svg"
   xmlns="http://www.w3.org/2000/svg"
   xmlns:sodipodi="http://sodipodi.sourceforge.net/DTD/sodipodi-0.dtd"
   xmlns:inkscape="http://www.inkscape.org/namespaces/inkscape"
   height="24"
   viewBox="0 0 24 24"
   width="24"
   version="1.1"
   id="svg4"
   sodipodi:docname="depth16to8 (copy).svg"
   inkscape:version="1.0.2 (e86c870879, 2021-01-15)">
  <metadata
     id="metadata10">
    <rdf:RDF>
      <cc:Work
         rdf:about="">
        <dc:format>image/svg+xml</dc:format>
        <dc:type
           rdf:resource="http://purl.org/dc/dcmitype/StillImage" />
      </cc:Work>
    </rdf:RDF>
  </metadata>
  <defs
     id="defs8" />
  <sodipodi:namedview
     pagecolor="#ffffff"
     bordercolor="#666666"
     borderopacity="1"
     objecttolerance="10"
     gridtolerance="10"
     guidetolerance="10"
     inkscape:pageopacity="0"
     inkscape:pageshadow="2"
     inkscape:window-width="1908"
     inkscape:window-height="1031"
     id="namedview6"
     showgrid="false"
     inkscape:zoom="42"
     inkscape:cx="12"
     inkscape:cy="12"
     inkscape:window-x="8"
     inkscape:window-y="1109"
     inkscape:window-maximized="0"
     inkscape:current-layer="svg4" />
  <path fill="white"
     d="m 22,19 c 0.55,0 1,-0.45 1,-1 V 3 C 23,1.9 22.1,1 21,1 H 6 C 5.45,1 5,1.45 5,2 5,2.55 5.45,3 6,3 h 14 c 0.55,0 1,0.45 1,1 v 14 c 0,0.55 0.45,1 1,1 z M 3,23 h 14 c 1.1,0 2,-0.9 2,-2 V 7 C 19,5.9 18.1,5 17,5 H 3 C 1.9,5 1,5.9 1,7 v 14 c 0,1.1 0.9,2 2,2 z M 4,7 h 12 c 0.55,0 1,0.45 1,1 v 12 c 0,0.55 -0.45,1 -1,1 H 4 C 3.45,21 3,20.55 3,20 V 8 C 3,7.45 3.45,7 4,7 Z m 7,2 H 9 C 7.9,9 7,9.89 7,11 v 1.5 C 7,13.33 7.67,14 8.5,14 7.67,14 7,14.67 7,15.5 V 17 c 0,1.11 0.9,2 2,2 h 2 c 1.1,0 2,-0.89 2,-2 V 15.5 C 13,14.67 12.33,14 11.5,14 12.33,14 13,13.33 13,12.5 V 11 C 13,9.89 12.1,9 11,9 Z m 0,8 H 9 v -2 h 2 z m 0,-4 H 9 v -2 h 2 z"
     id="path2" />
</svg>
