<?xml version="1.0" encoding="UTF-8" standalone="no"?>
<svg
   xmlns:dc="http://purl.org/dc/elements/1.1/"
   xmlns:cc="http://creativecommons.org/ns#"
   xmlns:rdf="http://www.w3.org/1999/02/22-rdf-syntax-ns#"
   xmlns:svg="http://www.w3.org/2000/svg"
   xmlns="http://www.w3.org/2000/svg"
   xmlns:sodipodi="http://sodipodi.sourceforge.net/DTD/sodipodi-0.dtd"
   xmlns:inkscape="http://www.inkscape.org/namespaces/inkscape"
   version="1.1"
   id="mdi-arrow-expand-horizontal"
   width="24"
   height="24"
   viewBox="0 0 24 24"
   sodipodi:docname="distribute-horizontal-gaps.svg"
   inkscape:version="1.0.2 (e86c870879, 2021-01-15)">
  <metadata
     id="metadata9">
    <rdf:RDF>
      <cc:Work
         rdf:about="">
        <dc:format>image/svg+xml</dc:format>
        <dc:type
           rdf:resource="http://purl.org/dc/dcmitype/StillImage" />
      </cc:Work>
    </rdf:RDF>
  </metadata>
  <defs
     id="defs7" />
  <sodipodi:namedview
     pagecolor="#ffffff"
     bordercolor="#666666"
     borderopacity="1"
     objecttolerance="10"
     gridtolerance="10"
     guidetolerance="10"
     inkscape:pageopacity="0"
     inkscape:pageshadow="2"
     inkscape:window-width="1920"
     inkscape:window-height="1011"
     id="namedview5"
     showgrid="false"
     inkscape:zoom="33.208333"
     inkscape:cx="12"
     inkscape:cy="12"
     inkscape:window-x="0"
     inkscape:window-y="0"
     inkscape:window-maximized="1"
     inkscape:current-layer="mdi-arrow-expand-horizontal" />
  <path fill="white"
     d="m 3.0000003,19.999999 c 0.55,0 1,-0.45 1,-1 V 5.0000009 c 0,-0.55 -0.45,-0.9999999 -1,-0.9999999 C 2.45,4.000001 2,4.4500009 2,5.0000009 V 18.999999 c 0,0.55 0.4499999,1 1.0000003,1 z"
     id="path2-3"
     sodipodi:nodetypes="sssssss" />
  <path fill="white"
     d="M 9,9.2100003 V 11 h 4.000001 C 13.550001,11 14,11.45 14,12 c 0,0.55 -0.449999,1 -0.999999,1 H 9 v 1.79 c 0,0.449999 -0.5399996,0.669999 -0.8499996,0.35 L 5.3600003,12.349999 c -0.1999999,-0.199999 -0.1999999,-0.509999 0,-0.71 L 8.1500004,8.8500003 C 8.4600003,8.5400003 9,8.7600003 9,9.2100003 Z"
     id="path2-3-6"
     sodipodi:nodetypes="scssscscccss" />
  <path fill="white"
     d="m 21,19.999999 c 0.55,0 1,-0.45 1,-1 V 5.0000009 c 0,-0.55 -0.45,-0.9999999 -1,-0.9999999 -0.55,0 -1,0.4499999 -1,0.9999999 V 18.999999 c 0,0.55 0.45,1 1,1 z"
     id="path2-3-7"
     sodipodi:nodetypes="sssssss" />
  <path fill="white"
     d="M 15,9.2100005 V 11 h -4 c -0.55,0 -1,0.45 -1,1 0,0.55 0.45,1 1,1 h 4 v 1.79 c 0,0.449999 0.54,0.669999 0.85,0.35 l 2.79,-2.790001 c 0.2,-0.199999 0.2,-0.509999 0,-0.71 L 15.85,8.8500005 c -0.31,-0.31 -0.85,-0.09 -0.85,0.36 z"
     id="path2-3-6-5"
     sodipodi:nodetypes="scssscscccss" />
</svg>
