<?xml version="1.0" encoding="UTF-8" standalone="no"?>
<svg
   xmlns:dc="http://purl.org/dc/elements/1.1/"
   xmlns:cc="http://creativecommons.org/ns#"
   xmlns:rdf="http://www.w3.org/1999/02/22-rdf-syntax-ns#"
   xmlns:svg="http://www.w3.org/2000/svg"
   xmlns="http://www.w3.org/2000/svg"
   xmlns:sodipodi="http://sodipodi.sourceforge.net/DTD/sodipodi-0.dtd"
   xmlns:inkscape="http://www.inkscape.org/namespaces/inkscape"
   version="1.1"
   id="mdi-animation-play"
   width="24"
   height="24"
   viewBox="0 0 24 24"
   sodipodi:docname="entrance_animations.svg"
   inkscape:version="1.0.2 (e86c870879, 2021-01-15)">
  <metadata
     id="metadata9">
    <rdf:RDF>
      <cc:Work
         rdf:about="">
        <dc:format>image/svg+xml</dc:format>
        <dc:type
           rdf:resource="http://purl.org/dc/dcmitype/StillImage" />
      </cc:Work>
    </rdf:RDF>
  </metadata>
  <defs
     id="defs7" />
  <sodipodi:namedview
     pagecolor="#ffffff"
     bordercolor="#666666"
     borderopacity="1"
     objecttolerance="10"
     gridtolerance="10"
     guidetolerance="10"
     inkscape:pageopacity="0"
     inkscape:pageshadow="2"
     inkscape:window-width="1908"
     inkscape:window-height="1017"
     id="namedview5"
     showgrid="false"
     inkscape:zoom="21"
     inkscape:cx="10.837457"
     inkscape:cy="13.549992"
     inkscape:window-x="3848"
     inkscape:window-y="1097"
     inkscape:window-maximized="0"
     inkscape:current-layer="mdi-animation-play" />
  <path fill="#ffffff"
     id="path2-3"
     d="M 4,2 C 2.9,2 2,2.9 2,4 v 9 c 0,0.55 0.45,1 1,1 0.55,0 1,-0.45 1,-1 V 5 C 4,4.45 4.45,4 5,4 h 8 C 13.55,4 14,3.55 14,3 14,2.45 13.55,2 13,2 Z M 8,6 C 6.9,6 6,6.9 6,8 v 9 c 0,0.55 0.45,1 1,1 0.55,0 1,-0.45 1,-1 V 9 C 8,8.45 8.45,8 9,8 h 8 C 17.55,8 18,7.55 18,7 18,6.45 17.55,6 17,6 Z m 4,3.9999996 C 10.89,9.9999996 10,10.89 10,12 v 8 c 0,1.11 0.89,2 2,2 h 8 c 1.11,0 2,-0.89 2,-2 V 12 C 22,10.89 21.11,9.9999996 20,9.9999996 Z M 14,12 l 6,4 -6,4 z" />
</svg>
