<?xml version="1.0" encoding="UTF-8" standalone="no"?>
<svg
   xmlns:dc="http://purl.org/dc/elements/1.1/"
   xmlns:cc="http://creativecommons.org/ns#"
   xmlns:rdf="http://www.w3.org/1999/02/22-rdf-syntax-ns#"
   xmlns:svg="http://www.w3.org/2000/svg"
   xmlns="http://www.w3.org/2000/svg"
   xmlns:sodipodi="http://sodipodi.sourceforge.net/DTD/sodipodi-0.dtd"
   xmlns:inkscape="http://www.inkscape.org/namespaces/inkscape"
   version="1.1"
   id="mdi-pan"
   width="24"
   height="24"
   viewBox="0 0 24 24"
   sodipodi:docname="nemo-desktop-scale (copy).svg"
   inkscape:version="1.0.2 (e86c870879, 2021-01-15)">
  <metadata
     id="metadata9">
    <rdf:RDF>
      <cc:Work
         rdf:about="">
        <dc:format>image/svg+xml</dc:format>
        <dc:type
           rdf:resource="http://purl.org/dc/dcmitype/StillImage" />
      </cc:Work>
    </rdf:RDF>
  </metadata>
  <defs
     id="defs7" />
  <sodipodi:namedview
     pagecolor="#ffffff"
     bordercolor="#666666"
     borderopacity="1"
     objecttolerance="10"
     gridtolerance="10"
     guidetolerance="10"
     inkscape:pageopacity="0"
     inkscape:pageshadow="2"
     inkscape:window-width="1920"
     inkscape:window-height="1011"
     id="namedview5"
     showgrid="false"
     inkscape:zoom="12.582481"
     inkscape:cx="8.6408685"
     inkscape:cy="10.125736"
     inkscape:window-x="0"
     inkscape:window-y="0"
     inkscape:window-maximized="1"
     inkscape:current-layer="mdi-pan"
     inkscape:document-rotation="0" />
  <path fill="white"
     d="m 12,10 c -1.104569,0 -2,0.895431 -2,2 0,1.104569 0.895431,2 2,2 1.104569,0 2,-0.895431 2,-2 0,-1.104569 -0.895431,-2 -2,-2"
     id="path2"
     sodipodi:nodetypes="csssc" />
  <path fill="white"
     d="m 18.71,15.291718 2.59,-2.59 c 0.39,-0.39 0.39,-1.02 0,-1.41 L 18.71,8.7017178 c -0.63,-0.62 -1.71,-0.18 -1.71,0.71 v 5.1700002 c 0,0.9 1.08,1.34 1.71,0.71 z"
     id="path2-3" />
  <path fill="white"
     d="m 5.29,8.708281 -2.59,2.59 c -0.39,0.39 -0.39,1.02 0,1.41 l 2.59,2.59 c 0.63,0.62 1.71,0.18 1.71,-0.71 v -5.17 c 0,-0.9 -1.08,-1.34 -1.71,-0.71 z"
     id="path2-3-5" />
</svg>
