<?xml version="1.0" encoding="UTF-8" standalone="no"?>
<svg
   xmlns:dc="http://purl.org/dc/elements/1.1/"
   xmlns:cc="http://creativecommons.org/ns#"
   xmlns:rdf="http://www.w3.org/1999/02/22-rdf-syntax-ns#"
   xmlns:svg="http://www.w3.org/2000/svg"
   xmlns="http://www.w3.org/2000/svg"
   xmlns:sodipodi="http://sodipodi.sourceforge.net/DTD/sodipodi-0.dtd"
   xmlns:inkscape="http://www.inkscape.org/namespaces/inkscape"
   version="1.1"
   id="mdi-expand-all"
   width="24"
   height="24"
   viewBox="0 0 24 24"
   sodipodi:docname="expand-all.svg"
   inkscape:version="1.0.2 (e86c870879, 2021-01-15)">
  <metadata
     id="metadata9">
    <rdf:RDF>
      <cc:Work
         rdf:about="">
        <dc:format>image/svg+xml</dc:format>
        <dc:type
           rdf:resource="http://purl.org/dc/dcmitype/StillImage" />
      </cc:Work>
    </rdf:RDF>
  </metadata>
  <defs
     id="defs7" />
  <sodipodi:namedview
     pagecolor="#ffffff"
     bordercolor="#666666"
     borderopacity="1"
     objecttolerance="10"
     gridtolerance="10"
     guidetolerance="10"
     inkscape:pageopacity="0"
     inkscape:pageshadow="2"
     inkscape:window-width="1908"
     inkscape:window-height="2080"
     id="namedview5"
     showgrid="false"
     inkscape:zoom="42"
     inkscape:cx="12"
     inkscape:cy="12"
     inkscape:window-x="3848"
     inkscape:window-y="35"
     inkscape:window-maximized="0"
     inkscape:current-layer="mdi-expand-all" />
  <path fill="#ffffff"
     id="path2"
     d="M 4 2 C 2.9 2 2 2.9 2 4 L 2 13 C 2 13.55 2.45 14 3 14 C 3.55 14 4 13.55 4 13 L 4 5 C 4 4.45 4.4499998 4 5 4 L 13 4 C 13.55 4 14 3.55 14 3 C 14 2.45 13.55 2 13 2 L 4 2 z M 8 6 C 6.9 6 6 6.9 6 8 L 6 17 C 6 17.55 6.45 18 7 18 C 7.55 18 8 17.55 8 17 L 8 9 C 8 8.45 8.4499998 8 9 8 L 17 8 C 17.55 8 18 7.55 18 7 C 18 6.45 17.55 6 17 6 L 8 6 z M 12 10 C 10.895431 10 10 10.895431 10 12 L 10 20 C 10 21.104569 10.895431 22 12 22 L 20 22 C 21.104569 22 22 21.104569 22 20 L 22 12 C 22 10.895431 21.104569 10 20 10 L 12 10 z M 15 12 L 17 12 L 17 15 L 20 15 L 20 17 L 17 17 L 17 20 L 15 20 L 15 17 L 12 17 L 12 15 L 15 15 L 15 12 z " />
</svg>
