<?xml version="1.0" encoding="UTF-8" standalone="no"?>
<svg
   xmlns:dc="http://purl.org/dc/elements/1.1/"
   xmlns:cc="http://creativecommons.org/ns#"
   xmlns:rdf="http://www.w3.org/1999/02/22-rdf-syntax-ns#"
   xmlns:svg="http://www.w3.org/2000/svg"
   xmlns="http://www.w3.org/2000/svg"
   xmlns:sodipodi="http://sodipodi.sourceforge.net/DTD/sodipodi-0.dtd"
   xmlns:inkscape="http://www.inkscape.org/namespaces/inkscape"
   version="1.1"
   id="mdi-format-letter-case-upper"
   width="24"
   height="24"
   viewBox="0 0 24 24"
   sodipodi:docname="all_uppercase.svg"
   inkscape:version="1.0.2 (e86c870879, 2021-01-15)">
  <metadata
     id="metadata9">
    <rdf:RDF>
      <cc:Work
         rdf:about="">
        <dc:format>image/svg+xml</dc:format>
        <dc:type
           rdf:resource="http://purl.org/dc/dcmitype/StillImage" />
      </cc:Work>
    </rdf:RDF>
  </metadata>
  <defs
     id="defs7" />
  <sodipodi:namedview
     pagecolor="#ffffff"
     bordercolor="#666666"
     borderopacity="1"
     objecttolerance="10"
     gridtolerance="10"
     guidetolerance="10"
     inkscape:pageopacity="0"
     inkscape:pageshadow="2"
     inkscape:window-width="1904"
     inkscape:window-height="1000"
     id="namedview5"
     showgrid="false"
     inkscape:zoom="33.958333"
     inkscape:cx="12"
     inkscape:cy="12"
     inkscape:window-x="26"
     inkscape:window-y="23"
     inkscape:window-maximized="0"
     inkscape:current-layer="mdi-format-letter-case-upper" />
  <path fill="#ffffff"
     d="m 20.06,18 c -0.06,-0.17 -0.15,-0.46 -0.2,-0.89 -0.67,0.7 -1.48,1.05 -2.41,1.05 -0.83,0 -1.52,-0.24 -2.05,-0.71 -0.53,-0.45 -0.8,-1.06 -0.8,-1.79 0,-0.88 0.33,-1.56 1,-2.05 0.67,-0.49 1.61,-0.73 2.83,-0.73 h 1.4 v -0.64 c 0,-0.49 -0.15,-0.88 -0.45,-1.17 -0.3,-0.29 -0.75,-0.43 -1.33,-0.43 -0.52,0 -0.95,0.12 -1.3,0.36 -0.35,0.25 -0.52,0.54 -0.52,0.89 h -1.46 c 0,-0.43 0.15,-0.84 0.45,-1.24 0.28,-0.4 0.71,-0.71 1.22,-0.94 0.51,-0.21 1.06,-0.35 1.69,-0.35 0.98,0 1.74,0.24 2.29,0.73 0.55,0.49 0.84,1.16 0.86,2.02 V 16 c 0,0.8 0.1,1.42 0.3,1.88 V 18 h -1.52 m -2.4,-1.12 c 0.45,0 0.88,-0.11 1.29,-0.32 0.4,-0.21 0.7,-0.49 0.88,-0.83 V 14.16 H 18.7 c -1.77,0 -2.66,0.47 -2.66,1.41 0,0.43 0.15,0.73 0.46,0.96 0.3,0.23 0.68,0.35 1.16,0.35 M 5.46,13.71 H 9.53 L 7.5,8.29 5.46,13.71 M 6.64,6 h 1.72 l 4.71,12 H 11.14 L 10.17,15.43 H 4.82 L 3.86,18 H 1.93 L 6.64,6"
     id="path2"
     sodipodi:nodetypes="ccscssscssscccccsscscccccccssccccccccccccccc" />
</svg>
