<?xml version="1.0" encoding="UTF-8" standalone="no"?>
<svg
   xmlns:dc="http://purl.org/dc/elements/1.1/"
   xmlns:cc="http://creativecommons.org/ns#"
   xmlns:rdf="http://www.w3.org/1999/02/22-rdf-syntax-ns#"
   xmlns:svg="http://www.w3.org/2000/svg"
   xmlns="http://www.w3.org/2000/svg"
   xmlns:sodipodi="http://sodipodi.sourceforge.net/DTD/sodipodi-0.dtd"
   xmlns:inkscape="http://www.inkscape.org/namespaces/inkscape"
   height="24"
   viewBox="0 0 24 24"
   width="24"
   version="1.1"
   id="svg4"
   sodipodi:docname="kdenlive-zoom-small.svg"
   inkscape:version="1.0.2 (e86c870879, 2021-01-15)">
  <metadata
     id="metadata10">
    <rdf:RDF>
      <cc:Work
         rdf:about="">
        <dc:format>image/svg+xml</dc:format>
        <dc:type
           rdf:resource="http://purl.org/dc/dcmitype/StillImage" />
      </cc:Work>
    </rdf:RDF>
  </metadata>
  <defs
     id="defs8" />
  <sodipodi:namedview
     pagecolor="#ffffff"
     bordercolor="#666666"
     borderopacity="1"
     objecttolerance="10"
     gridtolerance="10"
     guidetolerance="10"
     inkscape:pageopacity="0"
     inkscape:pageshadow="2"
     inkscape:window-width="1908"
     inkscape:window-height="2107"
     id="namedview6"
     showgrid="false"
     inkscape:zoom="42"
     inkscape:cx="12"
     inkscape:cy="12"
     inkscape:window-x="1924"
     inkscape:window-y="8"
     inkscape:window-maximized="0"
     inkscape:current-layer="svg4" />
  <path fill="#ffffff"
     d="M 20.27,8.03 18.82,6.58 21,4.42 C 21.39,4.03 21.39,3.39 21,3 20.61,2.61 19.97,2.61 19.58,3 L 17.42,5.18 15.97,3.73 C 15.66,3.42 15.12,3.64 15.12,4.09 v 4.29 c 0,0.28 0.22,0.5 0.5,0.5 h 4.29 c 0.45,0 0.67,-0.54 0.36,-0.85 z M 8.03,3.73 6.58,5.18 4.42,3 C 4.03,2.61 3.39,2.61 3,3 2.61,3.39 2.61,4.03 3,4.42 L 5.18,6.58 3.73,8.03 C 3.42,8.34 3.64,8.88 4.09,8.88 h 4.29 c 0.28,0 0.5,-0.22 0.5,-0.5 V 4.09 C 8.88,3.64 8.2223383,3.3360381 8.03,3.73 Z M 3.73,15.97 5.18,17.42 3,19.58 c -0.39,0.39 -0.39,1.03 0,1.42 0.39,0.39 1.03,0.39 1.42,0 l 2.16,-2.18 1.45,1.45 c 0.31,0.31 0.85,0.09 0.85,-0.36 v -4.29 c 0,-0.28 -0.22,-0.5 -0.5,-0.5 H 4.09 c -0.45,0 -0.565646,0.462818 -0.36,0.85 z m 12.24,4.3 1.45,-1.45 2.16,2.18 c 0.39,0.39 1.03,0.39 1.42,0 0.39,-0.39 0.39,-1.03 0,-1.42 l -2.18,-2.16 1.45,-1.45 c 0.31,-0.31 0.09,-0.85 -0.36,-0.85 h -4.29 c -0.28,0 -0.5,0.22 -0.5,0.5 v 4.29 c 0,0.45 0.54,0.67 0.85,0.36 z"
     id="path2"
     sodipodi:nodetypes="sccsccsssssssccsccsssssssccsccsssssssccsccssssss" />
</svg>
