<?xml version="1.0" encoding="UTF-8" standalone="no"?>
<svg
   xmlns:dc="http://purl.org/dc/elements/1.1/"
   xmlns:cc="http://creativecommons.org/ns#"
   xmlns:rdf="http://www.w3.org/1999/02/22-rdf-syntax-ns#"
   xmlns:svg="http://www.w3.org/2000/svg"
   xmlns="http://www.w3.org/2000/svg"
   xmlns:sodipodi="http://sodipodi.sourceforge.net/DTD/sodipodi-0.dtd"
   xmlns:inkscape="http://www.inkscape.org/namespaces/inkscape"
   version="1.1"
   id="mdi-chart-areaspline-variant"
   width="24"
   height="24"
   viewBox="0 0 24 24"
   sodipodi:docname="office-chart-area (copy).svg"
   inkscape:version="1.0.2 (e86c870879, 2021-01-15)">
  <metadata
     id="metadata9">
    <rdf:RDF>
      <cc:Work
         rdf:about="">
        <dc:format>image/svg+xml</dc:format>
        <dc:type
           rdf:resource="http://purl.org/dc/dcmitype/StillImage" />
      </cc:Work>
    </rdf:RDF>
  </metadata>
  <defs
     id="defs7" />
  <sodipodi:namedview
     pagecolor="#ffffff"
     bordercolor="#666666"
     borderopacity="1"
     objecttolerance="10"
     gridtolerance="10"
     guidetolerance="10"
     inkscape:pageopacity="0"
     inkscape:pageshadow="2"
     inkscape:window-width="1844"
     inkscape:window-height="1031"
     id="namedview5"
     showgrid="false"
     inkscape:zoom="42"
     inkscape:cx="12"
     inkscape:cy="12"
     inkscape:window-x="8"
     inkscape:window-y="1109"
     inkscape:window-maximized="0"
     inkscape:current-layer="mdi-chart-areaspline-variant" />
  <path fill="#ffffff"
     id="path2"
     d="M 20.240234 2.4492188 L 16 9.7792969 L 9.5 6 L 4 15.539062 L 4 3 L 2 3 L 2 21 L 22 21 L 21.970703 3.4492188 L 20.240234 2.4492188 z M 18.931641 11.945312 L 19.992188 13.005859 L 13.992188 19.005859 L 12.931641 17.945312 L 18.931641 11.945312 z M 14.212891 11.974609 C 14.903247 11.974609 15.462891 12.534253 15.462891 13.224609 C 15.462891 13.914965 14.903247 14.474609 14.212891 14.474609 C 13.522535 14.474609 12.962891 13.914965 12.962891 13.224609 C 12.962891 12.534253 13.522535 11.974609 14.212891 11.974609 z M 18.712891 16.474609 C 19.403247 16.474609 19.962891 17.034253 19.962891 17.724609 C 19.962891 18.414965 19.403247 18.974609 18.712891 18.974609 C 18.022535 18.974609 17.462891 18.414965 17.462891 17.724609 C 17.462891 17.034253 18.022535 16.474609 18.712891 16.474609 z " />
</svg>
