<?xml version="1.0" encoding="UTF-8" standalone="no"?>
<svg
   xmlns:dc="http://purl.org/dc/elements/1.1/"
   xmlns:cc="http://creativecommons.org/ns#"
   xmlns:rdf="http://www.w3.org/1999/02/22-rdf-syntax-ns#"
   xmlns:svg="http://www.w3.org/2000/svg"
   xmlns="http://www.w3.org/2000/svg"
   xmlns:sodipodi="http://sodipodi.sourceforge.net/DTD/sodipodi-0.dtd"
   xmlns:inkscape="http://www.inkscape.org/namespaces/inkscape"
   version="1.1"
   id="mdi-hand-pointing-left"
   width="24"
   height="24"
   viewBox="0 0 24 24"
   sodipodi:docname="offset-symbolic.svg"
   inkscape:version="1.0.1 (3bc2e813f5, 2020-09-07)">
  <metadata
     id="metadata9">
    <rdf:RDF>
      <cc:Work
         rdf:about="">
        <dc:format>image/svg+xml</dc:format>
        <dc:type
           rdf:resource="http://purl.org/dc/dcmitype/StillImage" />
      </cc:Work>
    </rdf:RDF>
  </metadata>
  <defs
     id="defs7" />
  <sodipodi:namedview
     pagecolor="#ffffff"
     bordercolor="#666666"
     borderopacity="1"
     objecttolerance="10"
     gridtolerance="10"
     guidetolerance="10"
     inkscape:pageopacity="0"
     inkscape:pageshadow="2"
     inkscape:window-width="1908"
     inkscape:window-height="1022"
     id="namedview5"
     showgrid="false"
     inkscape:zoom="39.833333"
     inkscape:cx="12.050209"
     inkscape:cy="12"
     inkscape:window-x="8"
     inkscape:window-y="35"
     inkscape:window-maximized="0"
     inkscape:current-layer="mdi-hand-pointing-left" />
  <path fill="white"
     d="M 7.0856079,3.2364701 14.156676,10.307538 15.224407,6.8497857 15.358757,6.673009 C 15.563818,6.4679481 15.832519,6.3689531 16.10829,6.3760242 l 1.067732,0.021213 -0.494975,6.4346716 c 0.0071,0.374767 -0.127279,0.735391 -0.403051,1.011163 l -4.596194,4.596194 c -0.544472,0.544472 -1.555635,0.565685 -2.1213204,0 L 6.477496,15.35628 C 6.0461609,14.924945 5.9188817,14.302691 6.1310137,13.807716 L 8.0684863,8.758974 8.8321616,7.8114509 5.6713943,4.6506836 a 1,1 0 0 1 0,-1.4142135 1,1 0 0 1 1.4142136,0 m 4.9497471,17.6776699 5.656855,-5.656855 2.12132,2.121321 -5.656854,5.656854 z"
     id="path2" />
</svg>
