<?xml version="1.0" encoding="UTF-8" standalone="no"?>
<svg
   enable-background="new 0 0 24 24"
   height="24"
   viewBox="0 0 24 24"
   width="24"
   version="1.1"
   id="svg6"
   sodipodi:docname="sidebar-expand-left.svg"
   inkscape:version="1.1 (c68e22c387, 2021-05-23)"
   xmlns:inkscape="http://www.inkscape.org/namespaces/inkscape"
   xmlns:sodipodi="http://sodipodi.sourceforge.net/DTD/sodipodi-0.dtd"
   xmlns="http://www.w3.org/2000/svg"
   xmlns:svg="http://www.w3.org/2000/svg"
   xmlns:rdf="http://www.w3.org/1999/02/22-rdf-syntax-ns#"
   xmlns:cc="http://creativecommons.org/ns#"
   xmlns:dc="http://purl.org/dc/elements/1.1/">
  <metadata
     id="metadata12">
    <rdf:RDF>
      <cc:Work
         rdf:about="">
        <dc:format>image/svg+xml</dc:format>
        <dc:type
           rdf:resource="http://purl.org/dc/dcmitype/StillImage" />
      </cc:Work>
    </rdf:RDF>
  </metadata>
  <defs
     id="defs10" />
  <sodipodi:namedview
     pagecolor="#ffffff"
     bordercolor="#666666"
     borderopacity="1"
     objecttolerance="10"
     gridtolerance="10"
     guidetolerance="10"
     inkscape:pageopacity="0"
     inkscape:pageshadow="2"
     inkscape:window-width="948"
     inkscape:window-height="1000"
     id="namedview8"
     showgrid="false"
     inkscape:zoom="12.957031"
     inkscape:cx="9.5315043"
     inkscape:cy="12.734398"
     inkscape:window-x="26"
     inkscape:window-y="23"
     inkscape:window-maximized="0"
     inkscape:current-layer="svg6"
     inkscape:pagecheckerboard="0" />
  <path fill="#ffffff"
     id="path2"
     d="M 3 4 C 2.45 4 2 4.45 2 5 L 2 7 C 2 7.55 2.45 8 3 8 L 5 8 C 5.55 8 6 7.55 6 7 L 6 5 C 6 4.45 5.55 4 5 4 L 3 4 z M 9 4 C 8.45 4 8 4.45 8 5 L 8 19 C 8 19.55 8.45 20 9 20 L 21 20 C 21.55 20 22 19.55 22 19 L 22 5 C 22 4.45 21.55 4 21 4 L 9 4 z M 12.705078 6.4121094 C 12.960078 6.4121094 13.215156 6.5100781 13.410156 6.7050781 L 18 11.294922 C 18.39 11.684922 18.39 12.315078 18 12.705078 L 13.410156 17.294922 C 13.020156 17.684922 12.39 17.684922 12 17.294922 C 11.61 16.904922 11.61 16.274766 12 15.884766 L 15.880859 11.994141 L 12 8.1152344 C 11.61 7.7252344 11.62 7.0850781 12 6.7050781 C 12.195 6.5100781 12.450078 6.4121094 12.705078 6.4121094 z M 3 10 C 2.45 10 2 10.45 2 11 L 2 13 C 2 13.55 2.45 14 3 14 L 5 14 C 5.55 14 6 13.55 6 13 L 6 11 C 6 10.45 5.55 10 5 10 L 3 10 z M 3 16 C 2.45 16 2 16.45 2 17 L 2 19 C 2 19.55 2.45 20 3 20 L 5 20 C 5.55 20 6 19.55 6 19 L 6 17 C 6 16.45 5.55 16 5 16 L 3 16 z " />
</svg>
