<?xml version="1.0" encoding="UTF-8" standalone="no"?>
<svg
   xmlns:dc="http://purl.org/dc/elements/1.1/"
   xmlns:cc="http://creativecommons.org/ns#"
   xmlns:rdf="http://www.w3.org/1999/02/22-rdf-syntax-ns#"
   xmlns:svg="http://www.w3.org/2000/svg"
   xmlns="http://www.w3.org/2000/svg"
   xmlns:sodipodi="http://sodipodi.sourceforge.net/DTD/sodipodi-0.dtd"
   xmlns:inkscape="http://www.inkscape.org/namespaces/inkscape"
   enable-background="new 0 0 24 24"
   height="24"
   viewBox="0 0 24 24"
   width="24"
   version="1.1"
   id="svg10"
   sodipodi:docname="smudge-finger-symbolic.svg"
   inkscape:version="1.0.1 (3bc2e813f5, 2020-09-07)">
  <metadata
     id="metadata16">
    <rdf:RDF>
      <cc:Work
         rdf:about="">
        <dc:format>image/svg+xml</dc:format>
        <dc:type
           rdf:resource="http://purl.org/dc/dcmitype/StillImage" />
      </cc:Work>
    </rdf:RDF>
  </metadata>
  <defs
     id="defs14" />
  <sodipodi:namedview
     pagecolor="#ffffff"
     bordercolor="#666666"
     borderopacity="1"
     objecttolerance="10"
     gridtolerance="10"
     guidetolerance="10"
     inkscape:pageopacity="0"
     inkscape:pageshadow="2"
     inkscape:window-width="1908"
     inkscape:window-height="1054"
     id="namedview12"
     showgrid="false"
     inkscape:zoom="39.833333"
     inkscape:cx="12"
     inkscape:cy="4.9707113"
     inkscape:window-x="8"
     inkscape:window-y="35"
     inkscape:window-maximized="0"
     inkscape:current-layer="svg10" />
  <g
     id="g2" />
  <g
     id="g8">
    <g
       id="g6">
      <path fill="#ffffff"
         d="M 14.29,11.71 C 14.01,11.57 13.71,11.5 13.4,11.5 h -0.61 v -6 C 12.79,4.67 12.12,4 11.29,4 10.46,4 9.79,4.67 9.79,5.5 V 16.24 L 6.35,15.52 c -0.37,-0.08 -0.76,0.04 -1.03,0.31 -0.43,0.44 -0.43,1.14 0,1.58 l 4.01,4.01 C 9.71,21.79 10.22,22 10.75,22 h 6.1 c 1,0 1.84,-0.73 1.98,-1.72 l 0.63,-4.47 c 0.12,-0.85 -0.32,-1.69 -1.09,-2.07 z"
         id="path4"
         sodipodi:nodetypes="cscssscccccsscccc" />
    </g>
  </g>
</svg>
