<?xml version="1.0" encoding="UTF-8" standalone="no"?>
<svg
   xmlns:dc="http://purl.org/dc/elements/1.1/"
   xmlns:cc="http://creativecommons.org/ns#"
   xmlns:rdf="http://www.w3.org/1999/02/22-rdf-syntax-ns#"
   xmlns:svg="http://www.w3.org/2000/svg"
   xmlns="http://www.w3.org/2000/svg"
   xmlns:sodipodi="http://sodipodi.sourceforge.net/DTD/sodipodi-0.dtd"
   xmlns:inkscape="http://www.inkscape.org/namespaces/inkscape"
   version="1.1"
   id="mdi-timeline-alert-outline"
   width="24"
   height="24"
   viewBox="0 0 24 24"
   sodipodi:docname="timeline-use-zone-on (copy).svg"
   inkscape:version="1.0.2 (e86c870879, 2021-01-15)">
  <metadata
     id="metadata9">
    <rdf:RDF>
      <cc:Work
         rdf:about="">
        <dc:format>image/svg+xml</dc:format>
        <dc:type
           rdf:resource="http://purl.org/dc/dcmitype/StillImage" />
      </cc:Work>
    </rdf:RDF>
  </metadata>
  <defs
     id="defs7" />
  <sodipodi:namedview
     pagecolor="#ffffff"
     bordercolor="#666666"
     borderopacity="1"
     objecttolerance="10"
     gridtolerance="10"
     guidetolerance="10"
     inkscape:pageopacity="0"
     inkscape:pageshadow="2"
     inkscape:window-width="1908"
     inkscape:window-height="1031"
     id="namedview5"
     showgrid="false"
     inkscape:zoom="14.849242"
     inkscape:cx="9.7546044"
     inkscape:cy="12.529314"
     inkscape:window-x="1924"
     inkscape:window-y="1109"
     inkscape:window-maximized="0"
     inkscape:current-layer="mdi-timeline-alert-outline" />
  <path fill="white"
     id="path2"
     d="M 2,4.049267 V 8 H 4 V 4.421875 Z M 10,4 C 9.0235594,4 8.2087464,4.7027776 8.0371094,5.6367188 8.7287757,6.3278449 9.2759048,6.8741864 10,7.5976562 V 6 h 12 v 12 h -1.587891 c 0.58119,0.580684 1.468209,1.468584 1.962891,1.962891 C 23.303288,19.78844 24,18.981337 24,18 V 6 C 24,4.89 23.11,4 22,4 Z m 5,3 v 5.59375 C 15.149765,12.743372 15.259601,12.851539 15.408203,13 H 17 V 7 Z M 8,8.4179688 V 10 l -2,2 2,2 v 4 c 0,1.11 0.9,2 2,2 h 9.591797 L 17.589844,18 H 10 V 10.416016 Z M 3,10 c -1.1,0 -2,0.9 -2,2 0,1.11 0.9,2 2,2 1.11,0 2,-0.89 2,-2 0,-1.1 -0.89,-2 -2,-2 z m 12,5.412109 V 17 h 1.589844 z M 2,16 v 6 h 2 v -6 z"
     sodipodi:nodetypes="cccccscccccccssssccccccccccsscccccsssssccccccccc" />
  <path fill="white"
     id="path2-3"
     d="m 2.4140625,3.2265625 c -0.255,0 -0.508125,0.097969 -0.703125,0.2929687 -0.39,0.3900001 -0.39,1.0201563 0,1.4101563 2.6248857,2.6230847 5.7312293,5.7293845 8.6816405,8.6777345 2.94835,2.950411 6.05465,6.056755 8.677734,8.68164 0.390001,0.390001 1.020157,0.390001 1.410157,0 0.39,-0.39 0.39,-1.018203 0,-1.408203 L 18.507812,18.90625 c -0.0073,-0.0078 -0.01,-0.01779 -0.01758,-0.02539 l -6.6875,-6.683593 -6.6835934,-6.6875004 c -0.0076,-0.0076 -0.01761,-0.010272 -0.025391,-0.017578 L 3.1191406,3.5195312 c -0.195,-0.195 -0.4500781,-0.2929687 -0.7050781,-0.2929687 z" />
</svg>
