<?xml version="1.0" encoding="UTF-8" standalone="no"?>
<svg
   version="1.1"
   id="mdi-sort-descending"
   width="24"
   height="24"
   viewBox="0 0 24 24"
   sodipodi:docname="timepp-sort-ascending-symbolic.svg"
   inkscape:version="1.1 (c68e22c387, 2021-05-23)"
   xmlns:inkscape="http://www.inkscape.org/namespaces/inkscape"
   xmlns:sodipodi="http://sodipodi.sourceforge.net/DTD/sodipodi-0.dtd"
   xmlns="http://www.w3.org/2000/svg"
   xmlns:svg="http://www.w3.org/2000/svg">
  <defs
     id="defs7" />
  <sodipodi:namedview
     id="namedview5"
     pagecolor="#ffffff"
     bordercolor="#666666"
     borderopacity="1.0"
     inkscape:pageshadow="2"
     inkscape:pageopacity="0.0"
     inkscape:pagecheckerboard="0"
     showgrid="false"
     inkscape:zoom="33.541667"
     inkscape:cx="-2.7130435"
     inkscape:cy="14.191304"
     inkscape:window-width="1904"
     inkscape:window-height="1000"
     inkscape:window-x="26"
     inkscape:window-y="23"
     inkscape:window-maximized="0"
     inkscape:current-layer="mdi-sort-descending" />
  <path fill="#ffffff"
     id="path2"
     d="m 12.291534,5 a -1,1 0 0 0 -1,1 -1,1 0 0 0 1,1 h 2 a -1,1 0 0 0 1,-1 -1,1 0 0 0 -1,-1 z m 0,6 a -1,1 0 0 0 -1,1 -1,1 0 0 0 1,1 h 5 a -1,1 0 0 0 1,-1 -1,1 0 0 0 -1,-1 z m 0,6 a -1,1 0 0 0 -1,1 -1,1 0 0 0 1,1 h 8 a -1,1 0 0 0 1,-1 -1,1 0 0 0 -1,-1 z" />
  <path fill="#ffffff"
     d="m 6.2915344,7 v 13.01 c 0,0.55 -0.45,1 -1,1 -0.55,0 -1,-0.45 -1,-1 V 7 h -1.79 c -0.45,0 -0.67,-0.54 -0.35,-0.85 l 2.79,-2.78 c 0.2,-0.19 0.51,-0.19 0.71,0 l 2.79,2.78 c 0.32,0.31 0.09,0.85 -0.35,0.85 z"
     id="path2-3"
     sodipodi:nodetypes="cssscsccccsc" />
</svg>
