<?xml version="1.0" encoding="UTF-8" standalone="no"?>
<svg
   xmlns:dc="http://purl.org/dc/elements/1.1/"
   xmlns:cc="http://creativecommons.org/ns#"
   xmlns:rdf="http://www.w3.org/1999/02/22-rdf-syntax-ns#"
   xmlns:svg="http://www.w3.org/2000/svg"
   xmlns="http://www.w3.org/2000/svg"
   xmlns:sodipodi="http://sodipodi.sourceforge.net/DTD/sodipodi-0.dtd"
   xmlns:inkscape="http://www.inkscape.org/namespaces/inkscape"
   version="1.1"
   id="mdi-animation-play"
   width="24"
   height="24"
   viewBox="0 0 24 24"
   sodipodi:docname="tool-animator.svg"
   inkscape:version="1.0.2 (e86c870879, 2021-01-15)">
  <metadata
     id="metadata9">
    <rdf:RDF>
      <cc:Work
         rdf:about="">
        <dc:format>image/svg+xml</dc:format>
        <dc:type
           rdf:resource="http://purl.org/dc/dcmitype/StillImage" />
      </cc:Work>
    </rdf:RDF>
  </metadata>
  <defs
     id="defs7" />
  <sodipodi:namedview
     pagecolor="#ffffff"
     bordercolor="#666666"
     borderopacity="1"
     objecttolerance="10"
     gridtolerance="10"
     guidetolerance="10"
     inkscape:pageopacity="0"
     inkscape:pageshadow="2"
     inkscape:window-width="1908"
     inkscape:window-height="2080"
     id="namedview5"
     showgrid="false"
     inkscape:zoom="42"
     inkscape:cx="12"
     inkscape:cy="12"
     inkscape:window-x="5764"
     inkscape:window-y="35"
     inkscape:window-maximized="0"
     inkscape:current-layer="mdi-animation-play" />
  <path fill="#ffffff"
     id="path2-3"
     d="m 3.9999997,2 c -1.1,0 -2,0.9 -2,2 v 9 c 0,0.55 0.45,1 1,1 0.55,0 1,-0.45 1,-1 V 5 c 0,-0.55 0.4499998,-1 1,-1 H 13 C 13.55,4 14,3.55 14,3 14,2.45 13.55,2 13,2 Z m 4,4 c -1.1,0 -2,0.9 -2,2 v 9 c 0,0.55 0.45,1 1,1 0.55,0 1,-0.45 1,-1 V 9 c 0,-0.55 0.4499998,-1 1,-1 H 17 C 17.55,8 18,7.55 18,7 18,6.45 17.55,6 17,6 Z M 12,10 c -1.11,0 -2.0000003,0.89 -2.0000003,2 v 8 c 0,1.11 0.8900003,2 2.0000003,2 h 8 c 1.11,0 2,-0.89 2,-2 v -8 c 0,-1.11 -0.89,-2 -2,-2 z m 2,2 6,4 -6,4 z" />
</svg>
