<?xml version="1.0" encoding="UTF-8" standalone="no"?>
<svg
   xmlns:dc="http://purl.org/dc/elements/1.1/"
   xmlns:cc="http://creativecommons.org/ns#"
   xmlns:rdf="http://www.w3.org/1999/02/22-rdf-syntax-ns#"
   xmlns:svg="http://www.w3.org/2000/svg"
   xmlns="http://www.w3.org/2000/svg"
   xmlns:sodipodi="http://sodipodi.sourceforge.net/DTD/sodipodi-0.dtd"
   xmlns:inkscape="http://www.inkscape.org/namespaces/inkscape"
   version="1.1"
   id="mdi-skew-less"
   width="24"
   height="24"
   viewBox="0 0 24 24"
   sodipodi:docname="transform-shear-up.svg"
   inkscape:version="1.0.2 (e86c870879, 2021-01-15)">
  <metadata
     id="metadata9">
    <rdf:RDF>
      <cc:Work
         rdf:about="">
        <dc:format>image/svg+xml</dc:format>
        <dc:type
           rdf:resource="http://purl.org/dc/dcmitype/StillImage" />
      </cc:Work>
    </rdf:RDF>
  </metadata>
  <defs
     id="defs7" />
  <sodipodi:namedview
     pagecolor="#ffffff"
     bordercolor="#666666"
     borderopacity="1"
     objecttolerance="10"
     gridtolerance="10"
     guidetolerance="10"
     inkscape:pageopacity="0"
     inkscape:pageshadow="2"
     inkscape:window-width="1920"
     inkscape:window-height="1011"
     id="namedview5"
     showgrid="false"
     inkscape:zoom="42"
     inkscape:cx="12"
     inkscape:cy="12"
     inkscape:window-x="0"
     inkscape:window-y="0"
     inkscape:window-maximized="1"
     inkscape:current-layer="mdi-skew-less"
     inkscape:document-rotation="0" />
  <path fill="#ffffff"
     id="path2"
     d="M 18.005859 4.2265625 C 17.878359 4.2265625 17.750391 4.2741406 17.650391 4.3691406 L 14.859375 7.1503906 C 14.539375 7.4603906 14.760937 8 15.210938 8 L 17 8 L 17 15 C 17 15.55 17.45 16 18 16 C 18.55 16 19 15.55 19 15 L 19 8 L 20.800781 8 C 21.240781 8 21.470391 7.4603906 21.150391 7.1503906 L 18.359375 4.3691406 C 18.259375 4.2741406 18.133359 4.2265625 18.005859 4.2265625 z M 2 8 L 2 17 L 15 20 L 15 11 L 2 8 z M 4 10.5 L 13 12.589844 L 13 17.5 L 4 15.410156 L 4 10.5 z " />
</svg>
