<?xml version="1.0" encoding="UTF-8" standalone="no"?>
<svg
   xmlns:dc="http://purl.org/dc/elements/1.1/"
   xmlns:cc="http://creativecommons.org/ns#"
   xmlns:rdf="http://www.w3.org/1999/02/22-rdf-syntax-ns#"
   xmlns:svg="http://www.w3.org/2000/svg"
   xmlns="http://www.w3.org/2000/svg"
   xmlns:sodipodi="http://sodipodi.sourceforge.net/DTD/sodipodi-0.dtd"
   xmlns:inkscape="http://www.inkscape.org/namespaces/inkscape"
   height="24"
   viewBox="0 0 24 24"
   width="24"
   version="1.1"
   id="svg4"
   sodipodi:docname="view-split-top-bottom.svg"
   inkscape:version="1.0.2 (e86c870879, 2021-01-15)">
  <metadata
     id="metadata10">
    <rdf:RDF>
      <cc:Work
         rdf:about="">
        <dc:format>image/svg+xml</dc:format>
        <dc:type
           rdf:resource="http://purl.org/dc/dcmitype/StillImage" />
      </cc:Work>
    </rdf:RDF>
  </metadata>
  <defs
     id="defs8" />
  <sodipodi:namedview
     pagecolor="#ffffff"
     bordercolor="#666666"
     borderopacity="1"
     objecttolerance="10"
     gridtolerance="10"
     guidetolerance="10"
     inkscape:pageopacity="0"
     inkscape:pageshadow="2"
     inkscape:window-width="1908"
     inkscape:window-height="1031"
     id="namedview6"
     showgrid="false"
     inkscape:zoom="42"
     inkscape:cx="12"
     inkscape:cy="12"
     inkscape:window-x="8"
     inkscape:window-y="1109"
     inkscape:window-maximized="0"
     inkscape:current-layer="svg4" />
  <path fill="#ffffff"
     d="M4 19h16c.55 0 1-.45 1-1v-4c0-.55-.45-1-1-1H4c-.55 0-1 .45-1 1v4c0 .55.45 1 1 1zm0-8h16c.55 0 1-.45 1-1s-.45-1-1-1H4c-.55 0-1 .45-1 1s.45 1 1 1zM3 6c0 .55.45 1 1 1h16c.55 0 1-.45 1-1s-.45-1-1-1H4c-.55 0-1 .45-1 1z"
     id="path2" />
  <path fill="#ffffff"
     d="m 4,5.0000001 h 16 c 0.55,0 1,0.45 1,1 V 10 c 0,0.55 -0.45,1 -1,1 H 4 C 3.45,11 3,10.55 3,10 V 6.0000001 c 0,-0.55 0.45,-1 1,-1 z M 4,13 h 16 c 0.55,0 1,0.45 1,1 0,0.55 -0.45,1 -1,1 H 4 C 3.45,15 3,14.55 3,14 3,13.45 3.45,13 4,13 Z m -1,5 c 0,-0.55 0.45,-1 1,-1 h 16 c 0.55,0 1,0.45 1,1 0,0.55 -0.45,1 -1,1 H 4 C 3.45,19 3,18.55 3,18 Z"
     id="path2-3" />
</svg>
