<?xml version="1.0" encoding="UTF-8" standalone="no"?>
<svg
   xmlns:dc="http://purl.org/dc/elements/1.1/"
   xmlns:cc="http://creativecommons.org/ns#"
   xmlns:rdf="http://www.w3.org/1999/02/22-rdf-syntax-ns#"
   xmlns:svg="http://www.w3.org/2000/svg"
   xmlns="http://www.w3.org/2000/svg"
   xmlns:sodipodi="http://sodipodi.sourceforge.net/DTD/sodipodi-0.dtd"
   xmlns:inkscape="http://www.inkscape.org/namespaces/inkscape"
   version="1.1"
   id="mdi-file-key"
   width="24"
   height="24"
   viewBox="0 0 24 24"
   sodipodi:docname="view-financial-account-reopen.svg"
   inkscape:version="1.0.2 (e86c870879, 2021-01-15)">
  <metadata
     id="metadata9">
    <rdf:RDF>
      <cc:Work
         rdf:about="">
        <dc:format>image/svg+xml</dc:format>
        <dc:type
           rdf:resource="http://purl.org/dc/dcmitype/StillImage" />
      </cc:Work>
    </rdf:RDF>
  </metadata>
  <defs
     id="defs7" />
  <sodipodi:namedview
     pagecolor="#ffffff"
     bordercolor="#666666"
     borderopacity="1"
     objecttolerance="10"
     gridtolerance="10"
     guidetolerance="10"
     inkscape:pageopacity="0"
     inkscape:pageshadow="2"
     inkscape:window-width="1908"
     inkscape:window-height="1031"
     id="namedview5"
     showgrid="false"
     inkscape:zoom="42"
     inkscape:cx="12"
     inkscape:cy="12"
     inkscape:window-x="8"
     inkscape:window-y="1109"
     inkscape:window-maximized="0"
     inkscape:current-layer="mdi-file-key" />
  <path fill="white"
     d="M 11,14 C 11,14.890967 9.9228614,15.337003 9.2929291,14.707071 8.6629968,14.077139 9.1090332,13 10,13 c 0.552285,0 1,0.447715 1,1 m 9,-6 v 12 c 0,1.104569 -0.895431,2 -2,2 H 6 C 4.8954305,22 4,21.104569 4,20 V 4 C 4,2.8954305 4.8954305,2 6,2 h 8 m 3,11 h -4.17 c -1.125026,-3.1820531 -5.8273004,-2.369343 -5.8273004,1 0,3.369343 4.7022744,4.182053 5.8273004,1 H 14 v 2 h 2 v -2 h 1"
     id="path2"
     sodipodi:nodetypes="cssccsssssscccscccccc" />
</svg>
