<?xml version="1.0" encoding="UTF-8" standalone="no"?>
<svg
   xmlns:dc="http://purl.org/dc/elements/1.1/"
   xmlns:cc="http://creativecommons.org/ns#"
   xmlns:rdf="http://www.w3.org/1999/02/22-rdf-syntax-ns#"
   xmlns:svg="http://www.w3.org/2000/svg"
   xmlns="http://www.w3.org/2000/svg"
   xmlns:sodipodi="http://sodipodi.sourceforge.net/DTD/sodipodi-0.dtd"
   xmlns:inkscape="http://www.inkscape.org/namespaces/inkscape"
   version="1.1"
   id="mdi-file-edit"
   width="24"
   height="24"
   viewBox="0 0 24 24"
   sodipodi:docname="view-financial-account-edit.svg"
   inkscape:version="1.0.2 (e86c870879, 2021-01-15)">
  <metadata
     id="metadata9">
    <rdf:RDF>
      <cc:Work
         rdf:about="">
        <dc:format>image/svg+xml</dc:format>
        <dc:type
           rdf:resource="http://purl.org/dc/dcmitype/StillImage" />
      </cc:Work>
    </rdf:RDF>
  </metadata>
  <defs
     id="defs7" />
  <sodipodi:namedview
     pagecolor="#ffffff"
     bordercolor="#666666"
     borderopacity="1"
     objecttolerance="10"
     gridtolerance="10"
     guidetolerance="10"
     inkscape:pageopacity="0"
     inkscape:pageshadow="2"
     inkscape:window-width="1908"
     inkscape:window-height="2107"
     id="namedview5"
     showgrid="false"
     inkscape:zoom="42"
     inkscape:cx="12"
     inkscape:cy="12"
     inkscape:window-x="1924"
     inkscape:window-y="33"
     inkscape:window-maximized="0"
     inkscape:current-layer="mdi-file-edit" />
  <path fill="white"
     d="m 20.1,13 c -0.1,0 -0.3,0.1 -0.4,0.2 l -1,1 2.1,2.1 1,-1 c 0.2,-0.2 0.2,-0.6 0,-0.8 L 20.5,13.2 C 20.4,13.1 20.3,13 20.1,13 m -2,1.8 -6.1,6.1 V 23 h 2.1 l 6.1,-6.1 z"
     id="path2"
     sodipodi:nodetypes="csccsssccccccc" />
  <path fill="white"
     id="path2-3"
     d="M 6,2 C 4.9,2 4,2.9000001 4,4 v 16 c 0,1.1 0.9,2 2,2 h 4 v -1.900391 l 2.125,-2.125 C 12.082237,17.98025 12.044239,18 12,18 11.45,18 11,17.55 11,17 H 10 C 9.449999,17 9,16.55 9,16 9,15.45 9.449999,15 10,15 h 3 V 14 H 10 C 9.449999,14 9,13.55 9,13 V 10 C 9,9.4500005 9.449999,9 10,9 h 1 c 0,-0.55 0.45,-1 1,-1 0.55,0 1,0.45 1,1 h 1 c 0.55,0 1,0.4500005 1,1 0,0.55 -0.45,1 -1,1 h -3 v 1 h 3 c 0.55,0 1,0.45 1,1 v 2.099609 l 5,-5 V 8.8300781 c 0,-0.53 -0.209845,-1.039922 -0.589844,-1.4199219 L 14.580078,2.5800781 C 14.210078,2.2100781 13.699922,2 13.169922,2 Z"
     sodipodi:nodetypes="sssscccscsssccsssscscsssccssccscsss" />
</svg>
