<?xml version="1.0" encoding="UTF-8" standalone="no"?>
<svg
   xmlns:dc="http://purl.org/dc/elements/1.1/"
   xmlns:cc="http://creativecommons.org/ns#"
   xmlns:rdf="http://www.w3.org/1999/02/22-rdf-syntax-ns#"
   xmlns:svg="http://www.w3.org/2000/svg"
   xmlns="http://www.w3.org/2000/svg"
   xmlns:sodipodi="http://sodipodi.sourceforge.net/DTD/sodipodi-0.dtd"
   xmlns:inkscape="http://www.inkscape.org/namespaces/inkscape"
   version="1.1"
   id="mdi-alpha-e-box-outline"
   width="24"
   height="24"
   viewBox="0 0 24 24"
   sodipodi:docname="xml-element-symbolic.symbolic.svg"
   inkscape:version="1.0.2 (e86c870879, 2021-01-15)">
  <metadata
     id="metadata9">
    <rdf:RDF>
      <cc:Work
         rdf:about="">
        <dc:format>image/svg+xml</dc:format>
        <dc:type
           rdf:resource="http://purl.org/dc/dcmitype/StillImage" />
      </cc:Work>
    </rdf:RDF>
  </metadata>
  <defs
     id="defs7" />
  <sodipodi:namedview
     pagecolor="#ffffff"
     bordercolor="#666666"
     borderopacity="1"
     objecttolerance="10"
     gridtolerance="10"
     guidetolerance="10"
     inkscape:pageopacity="0"
     inkscape:pageshadow="2"
     inkscape:window-width="1908"
     inkscape:window-height="2107"
     id="namedview5"
     showgrid="false"
     inkscape:zoom="42"
     inkscape:cx="12"
     inkscape:cy="12"
     inkscape:window-x="1924"
     inkscape:window-y="33"
     inkscape:window-maximized="0"
     inkscape:current-layer="mdi-alpha-e-box-outline" />
  <path fill="white"
     id="path2"
     d="M 5 3 C 3.8954305 3 3 3.8954305 3 5 L 3 19 C 3 20.1 3.89 21 5 21 L 19 21 C 20.104569 21 21 20.104569 21 19 L 21 5 C 21 3.8954305 20.104569 3 19 3 L 5 3 z M 5 5 L 19 5 L 19 19 L 5 19 L 5 5 z M 10 7 C 9.45 7 9 7.45 9 8 L 9 16 C 9 16.55 9.45 17 10 17 L 14 17 C 14.55 17 15 16.55 15 16 C 15 15.45 14.55 15 14 15 L 11 15 L 11 13 L 14 13 C 14.55 13 15 12.55 15 12 C 15 11.45 14.55 11 14 11 L 11 11 L 11 9 L 14 9 C 14.55 9 15 8.55 15 8 C 15 7.45 14.55 7 14 7 L 10 7 z " />
</svg>
