<?xml version="1.0" encoding="UTF-8" standalone="no"?>
<svg
   xmlns:dc="http://purl.org/dc/elements/1.1/"
   xmlns:cc="http://creativecommons.org/ns#"
   xmlns:rdf="http://www.w3.org/1999/02/22-rdf-syntax-ns#"
   xmlns:svg="http://www.w3.org/2000/svg"
   xmlns="http://www.w3.org/2000/svg"
   xmlns:sodipodi="http://sodipodi.sourceforge.net/DTD/sodipodi-0.dtd"
   xmlns:inkscape="http://www.inkscape.org/namespaces/inkscape"
   version="1.1"
   id="mdi-calendar-start"
   width="24"
   height="24"
   viewBox="0 0 24 24"
   sodipodi:docname="view-calendar-whatsnext.svg"
   inkscape:version="1.0.2 (e86c870879, 2021-01-15)">
  <metadata
     id="metadata9">
    <rdf:RDF>
      <cc:Work
         rdf:about="">
        <dc:format>image/svg+xml</dc:format>
        <dc:type
           rdf:resource="http://purl.org/dc/dcmitype/StillImage" />
      </cc:Work>
    </rdf:RDF>
  </metadata>
  <defs
     id="defs7" />
  <sodipodi:namedview
     pagecolor="#ffffff"
     bordercolor="#666666"
     borderopacity="1"
     objecttolerance="10"
     gridtolerance="10"
     guidetolerance="10"
     inkscape:pageopacity="0"
     inkscape:pageshadow="2"
     inkscape:window-width="3824"
     inkscape:window-height="2080"
     id="namedview5"
     showgrid="false"
     inkscape:zoom="42"
     inkscape:cx="12"
     inkscape:cy="17.714286"
     inkscape:window-x="3848"
     inkscape:window-y="35"
     inkscape:window-maximized="0"
     inkscape:current-layer="mdi-calendar-start" />
  <path
     id="path2"
     d="M 7 1 C 6.45 1 6 1.45 6 2 L 6 3 L 5 3 C 3.89 3 3.0097656 3.9000005 3.0097656 5 L 3.0078125 6.9589844 C 3.007195 6.9733199 3 6.9855195 3 7 L 3 11 C 3 11.55 3.45 12 4 12 C 4.55 12 5 11.55 5 11 L 5 8 L 19 8 L 19 18 C 19 18.55 18.55 19 18 19 L 15 19 C 14.45 19 14 19.45 14 20 C 14 20.55 14.45 21 15 21 L 18 21 L 19 21 C 20.1 21 21 20.1 21 19 L 21 5 C 21 3.9000005 20.1 3 19 3 L 18 3 L 18 2 C 18 1.45 17.55 1 17 1 C 16.45 1 16 1.45 16 2 L 16 3 L 8 3 L 8 2 C 8 1.45 7.55 1 7 1 z M 3 14 C 2.45 14 2 14.45 2 15 L 2 21 C 2 21.55 2.45 22 3 22 C 3.55 22 4 21.55 4 21 L 4 19 L 9 19 L 9 20.785156 C 9 21.235156 9.5396094 21.456484 9.8496094 21.146484 L 12.640625 18.355469 C 12.840625 18.155469 12.840625 17.846484 12.640625 17.646484 L 9.8496094 14.855469 C 9.5396094 14.535469 9 14.755078 9 15.205078 L 9 16.996094 C 9.0001259 16.996097 8.999875 16.999982 9 17 L 4 17 L 4 15 C 4 14.45 3.55 14 3 14 z " />
</svg>
