<?xml version="1.0" encoding="UTF-8" standalone="no"?>
<svg
   height="24px"
   viewBox="0 0 24 24"
   width="24px"
   fill="#000000"
   version="1.1"
   id="svg4"
   sodipodi:docname="emblem-urgent.svg"
   inkscape:version="1.1 (c68e22c387, 2021-05-23)"
   xmlns:inkscape="http://www.inkscape.org/namespaces/inkscape"
   xmlns:sodipodi="http://sodipodi.sourceforge.net/DTD/sodipodi-0.dtd"
   xmlns="http://www.w3.org/2000/svg"
   xmlns:svg="http://www.w3.org/2000/svg">
  <path
     id="path2"
     style="fill:#000000;fill-opacity:1"
     d="M 11.871094 2 C 6.4105498 2.0692448 2 6.523125 2 12 C 2 17.52 6.48 22 12 22 C 17.52 22 22 17.52 22 12 C 22 6.48 17.52 2 12 2 C 11.956875 2 11.91409 1.9994548 11.871094 2 z M 11.720703 7 L 11.779297 7 C 12.179297 7 12.5 7.3207031 12.5 7.7207031 L 12.5 12.259766 L 16.369141 14.560547 C 16.719141 14.760547 16.829141 15.210781 16.619141 15.550781 C 16.419141 15.890781 15.980625 15.989062 15.640625 15.789062 L 11.490234 13.300781 C 11.180234 13.120781 11 12.789453 11 12.439453 L 11 7.7207031 C 11 7.3207031 11.320703 7 11.720703 7 z " />
  <defs
     id="defs8" />
  <sodipodi:namedview
     id="namedview6"
     pagecolor="#ffffff"
     bordercolor="#666666"
     borderopacity="1.0"
     inkscape:pageshadow="2"
     inkscape:pageopacity="0.0"
     inkscape:pagecheckerboard="0"
     showgrid="false"
     inkscape:zoom="26.487041"
     inkscape:cx="0.3397888"
     inkscape:cy="11.968117"
     inkscape:window-width="1920"
     inkscape:window-height="1080"
     inkscape:window-x="0"
     inkscape:window-y="0"
     inkscape:window-maximized="0"
     inkscape:current-layer="svg4" />
</svg>
