<?xml version="1.0" encoding="UTF-8" standalone="no"?>
<svg
   height="24"
   viewBox="0 0 24 24"
   width="24"
   version="1.1"
   id="svg4"
   sodipodi:docname="emblem-package.svg"
   inkscape:version="1.1 (c68e22c387, 2021-05-23)"
   xmlns:inkscape="http://www.inkscape.org/namespaces/inkscape"
   xmlns:sodipodi="http://sodipodi.sourceforge.net/DTD/sodipodi-0.dtd"
   xmlns="http://www.w3.org/2000/svg"
   xmlns:svg="http://www.w3.org/2000/svg"
   xmlns:rdf="http://www.w3.org/1999/02/22-rdf-syntax-ns#"
   xmlns:cc="http://creativecommons.org/ns#"
   xmlns:dc="http://purl.org/dc/elements/1.1/">
  <path
     id="path2"
     style="fill:#000000;fill-opacity:1"
     d="M 12 2 C 6.48 2 2 6.48 2 12 C 2 17.52 6.48 22 12 22 C 17.52 22 22 17.52 22 12 C 22 6.48 17.52 2 12 2 z M 12 6.5996094 C 13.326 6.5996094 14.400391 7.674 14.400391 9 L 16.800781 9 C 17.460781 9 18 9.5392187 18 10.199219 L 18 12 C 18 12.66 17.460781 13.199219 16.800781 13.199219 L 13.199219 13.199219 L 13.199219 12.599609 C 13.199219 12.269609 12.929609 12 12.599609 12 L 11.400391 12 C 11.070391 12 10.800781 12.269609 10.800781 12.599609 L 10.800781 13.199219 L 7.1992188 13.199219 C 6.5332187 13.199219 6 12.666 6 12 L 6 10.199219 C 6 9.5392187 6.5392187 9 7.1992188 9 L 9.5996094 9 C 9.5996094 7.674 10.674 6.5996094 12 6.5996094 z M 12 7.8007812 C 11.34 7.8007813 10.800781 8.34 10.800781 9 L 13.199219 9 C 13.199219 8.34 12.66 7.8007812 12 7.8007812 z M 6.6054688 13.800781 L 10.800781 13.800781 C 10.800781 14.130781 11.070391 14.400391 11.400391 14.400391 L 12.599609 14.400391 C 12.929609 14.400391 13.199219 14.130781 13.199219 13.800781 L 17.400391 13.800781 L 17.400391 16.199219 C 17.400391 16.859219 16.859219 17.400391 16.199219 17.400391 L 7.8066406 17.400391 C 7.1466406 17.400391 6.6054688 16.859219 6.6054688 16.199219 L 6.6054688 13.800781 z " />
  <metadata
     id="metadata10">
    <rdf:RDF>
      <cc:Work
         rdf:about="">
        <dc:format>image/svg+xml</dc:format>
        <dc:type
           rdf:resource="http://purl.org/dc/dcmitype/StillImage" />
      </cc:Work>
    </rdf:RDF>
  </metadata>
  <defs
     id="defs8" />
  <sodipodi:namedview
     pagecolor="#ffffff"
     bordercolor="#666666"
     borderopacity="1"
     objecttolerance="10"
     gridtolerance="10"
     guidetolerance="10"
     inkscape:pageopacity="0"
     inkscape:pageshadow="2"
     inkscape:window-width="1920"
     inkscape:window-height="1080"
     id="namedview6"
     showgrid="false"
     inkscape:zoom="39.833333"
     inkscape:cx="11.974895"
     inkscape:cy="12"
     inkscape:window-x="0"
     inkscape:window-y="0"
     inkscape:window-maximized="0"
     inkscape:current-layer="svg4"
     inkscape:pagecheckerboard="0" />
</svg>
