<?xml version="1.0" encoding="UTF-8" standalone="no"?>
<svg
   xmlns:dc="http://purl.org/dc/elements/1.1/"
   xmlns:cc="http://creativecommons.org/ns#"
   xmlns:rdf="http://www.w3.org/1999/02/22-rdf-syntax-ns#"
   xmlns:svg="http://www.w3.org/2000/svg"
   xmlns="http://www.w3.org/2000/svg"
   xmlns:sodipodi="http://sodipodi.sourceforge.net/DTD/sodipodi-0.dtd"
   xmlns:inkscape="http://www.inkscape.org/namespaces/inkscape"
   height="24"
   viewBox="0 0 24 24"
   width="24"
   version="1.1"
   id="svg4"
   sodipodi:docname="drive-harddisk-system.svg"
   inkscape:version="1.0.2 (e86c870879, 2021-01-15)">
  <metadata
     id="metadata10">
    <rdf:RDF>
      <cc:Work
         rdf:about="">
        <dc:format>image/svg+xml</dc:format>
        <dc:type
           rdf:resource="http://purl.org/dc/dcmitype/StillImage" />
      </cc:Work>
    </rdf:RDF>
  </metadata>
  <defs
     id="defs8" />
  <sodipodi:namedview
     pagecolor="#ffffff"
     bordercolor="#666666"
     borderopacity="1"
     objecttolerance="10"
     gridtolerance="10"
     guidetolerance="10"
     inkscape:pageopacity="0"
     inkscape:pageshadow="2"
     inkscape:window-width="3824"
     inkscape:window-height="2112"
     id="namedview6"
     showgrid="false"
     inkscape:zoom="40.218007"
     inkscape:cx="15.097462"
     inkscape:cy="16.015406"
     inkscape:window-x="8"
     inkscape:window-y="8"
     inkscape:window-maximized="0"
     inkscape:current-layer="svg4" />
  <path
     d="M 9,13 H 5 c -1.1,0 -2,0.9 -2,2 v 4 c 0,1.1 0.9,2 2,2 h 4 c 1.1,0 2,-0.9 2,-2 v -4 c 0,-1.1 -0.9,-2 -2,-2 z m -2,6 c -1.1,0 -2,-0.9 -2,-2 0,-1.1 0.9,-2 2,-2 1.1,0 2,0.9 2,2 0,1.1 -0.9,2 -2,2 z M 9,3 H 5 C 3.9,3 3,3.9 3,5 v 4 c 0,1.1 0.9,2 2,2 h 4 c 1.1,0 2,-0.9 2,-2 V 5 C 11,3.9 10.1,3 9,3 Z M 7,9 C 5.9,9 5,8.1 5,7 5,5.9 5.9,5 7,5 8.1,5 9,5.9 9,7 9,8.1 8.1,9 7,9 Z"
     id="path2"
     sodipodi:nodetypes="ssssssssssssssssssssssssssss" />
  <path
     d="m 3,9 c 0,1.1 0.9,2 2,2 h 14 c 1.1,0 2,-0.9 2,-2 V 5 C 21,3.9 20.1,3 19,3 H 5 C 3.9,3 3,3.9 3,5 Z M 6,5 h 12 c 0.55,0 1,0.45 1,1 v 2 c 0,0.55 -0.45,1 -1,1 H 6 C 5.45,9 5,8.55 5,8 V 6 C 5,5.45 5.45,5 6,5 Z"
     id="path2-5"
     sodipodi:nodetypes="ssssssssssssssssss" />
  <path
     d="m 3,19 c 0,1.1 0.9,2 2,2 h 14 c 1.1,0 2,-0.9 2,-2 v -4 c 0,-1.1 -0.9,-2 -2,-2 H 5 c -1.1,0 -2,0.9 -2,2 z m 3,-4 h 12 c 0.55,0 1,0.45 1,1 v 2 c 0,0.55 -0.45,1 -1,1 H 6 C 5.45,19 5,18.55 5,18 v -2 c 0,-0.55 0.45,-1 1,-1 z"
     id="path2-5-3"
     sodipodi:nodetypes="ssssssssssssssssss" />
  <path
     d="m 9,19 c 0,1.1 0.9,2 2,2 h 8 c 1.1,0 2,-0.9 2,-2 v -4 c 0,-1.1 -0.9,-2 -2,-2 h -8 c -1.1,0 -2,0.9 -2,2 z m 3,-4 h 6 c 0.55,0 1,0.45 1,1 v 2 c 0,0.55 -0.45,1 -1,1 h -6 c -0.55,0 -1,-0.45 -1,-1 v -2 c 0,-0.55 0.45,-1 1,-1 z"
     id="path2-5-3-5"
     sodipodi:nodetypes="ssssssssssssssssss" />
  <path
     d="m 9,9 c 0,1.1 0.9,2 2,2 h 8 c 1.1,0 2,-0.9 2,-2 V 5 C 21,3.9 20.1,3 19,3 H 11 C 9.9,3 9,3.9 9,5 Z m 3,-4 h 6 c 0.55,0 1,0.45 1,1 v 2 c 0,0.55 -0.45,1 -1,1 H 12 C 11.45,9 11,8.55 11,8 V 6 c 0,-0.55 0.45,-1 1,-1 z"
     id="path2-5-3-5-6"
     sodipodi:nodetypes="ssssssssssssssssss" />
</svg>
