<?xml version="1.0" encoding="UTF-8" standalone="no"?>
<svg
   xmlns:dc="http://purl.org/dc/elements/1.1/"
   xmlns:cc="http://creativecommons.org/ns#"
   xmlns:rdf="http://www.w3.org/1999/02/22-rdf-syntax-ns#"
   xmlns:svg="http://www.w3.org/2000/svg"
   xmlns="http://www.w3.org/2000/svg"
   xmlns:sodipodi="http://sodipodi.sourceforge.net/DTD/sodipodi-0.dtd"
   xmlns:inkscape="http://www.inkscape.org/namespaces/inkscape"
   height="24px"
   viewBox="0 0 24 24"
   width="24px"
   fill="#000000"
   version="1.1"
   id="svg8"
   sodipodi:docname="print_black_24dp.svg"
   inkscape:version="1.0.2 (e86c870879, 2021-01-15)">
  <metadata
     id="metadata14">
    <rdf:RDF>
      <cc:Work
         rdf:about="">
        <dc:format>image/svg+xml</dc:format>
        <dc:type
           rdf:resource="http://purl.org/dc/dcmitype/StillImage" />
      </cc:Work>
    </rdf:RDF>
  </metadata>
  <defs
     id="defs12" />
  <sodipodi:namedview
     pagecolor="#ffffff"
     bordercolor="#666666"
     borderopacity="1"
     objecttolerance="10"
     gridtolerance="10"
     guidetolerance="10"
     inkscape:pageopacity="0"
     inkscape:pageshadow="2"
     inkscape:window-width="1908"
     inkscape:window-height="1031"
     id="namedview10"
     showgrid="false"
     inkscape:zoom="18.836221"
     inkscape:cx="3.4456212"
     inkscape:cy="3.7767646"
     inkscape:window-x="8"
     inkscape:window-y="1084"
     inkscape:window-maximized="0"
     inkscape:current-layer="svg8"
     inkscape:document-rotation="0" />
  <path
     id="path4"
     d="M 7 3 C 6.45 3 6 3.45 6 4 L 6 5 L 6 6 L 6 8 L 5 8 C 3.34 8 2 9.34 2 11 L 2 15 C 2 16.1 2.9 17 4 17 L 6 17 L 6 19 C 6 20.1 6.9 21 8 21 L 16 21 C 17.1 21 18 20.1 18 19 L 18 17 L 20 17 C 21.1 17 22 16.1 22 15 L 22 11 C 22 9.34 20.66 8 19 8 L 18 8 L 18 6 L 18 5 L 18 4 C 18 3.45 17.55 3 17 3 L 16 3 L 8 3 L 7 3 z M 8 5 L 16 5 L 16 7 L 16 8 L 8 8 L 8 7 L 8 5 z M 5 10 L 19 10 C 19.4125 10 19.769531 10.252734 19.921875 10.611328 C 19.972656 10.730859 20 10.8625 20 11 L 20 15 L 18 15 L 18 14 C 18 12.9 17.1 12 16 12 L 8 12 C 6.9 12 6 12.9 6 14 L 6 15 L 4 15 L 4 11 C 4 10.45 4.45 10 5 10 z M 18 10.5 C 17.447715 10.5 17 10.947715 17 11.5 C 17 12.052285 17.447715 12.5 18 12.5 C 18.552285 12.5 19 12.052285 19 11.5 C 19 10.947715 18.552285 10.5 18 10.5 z M 8 14 L 16 14 L 16 15 L 16 17 L 16 18 L 16 19 L 15 19 L 9 19 L 8 19 L 8 18 L 8 15 L 8 14 z " />
</svg>
