<?xml version="1.0" encoding="UTF-8" standalone="no"?>
<svg
   height="24px"
   viewBox="0 0 24 24"
   width="24px"
   fill="#000000"
   version="1.1"
   id="svg4"
   sodipodi:docname="emblem-danger.svg"
   inkscape:version="1.1 (c68e22c387, 2021-05-23)"
   xmlns:inkscape="http://www.inkscape.org/namespaces/inkscape"
   xmlns:sodipodi="http://sodipodi.sourceforge.net/DTD/sodipodi-0.dtd"
   xmlns="http://www.w3.org/2000/svg"
   xmlns:svg="http://www.w3.org/2000/svg">
  <defs
     id="defs8" />
  <sodipodi:namedview
     id="namedview6"
     pagecolor="#ffffff"
     bordercolor="#666666"
     borderopacity="1.0"
     inkscape:pageshadow="2"
     inkscape:pageopacity="0.0"
     inkscape:pagecheckerboard="0"
     showgrid="false"
     inkscape:zoom="14.193196"
     inkscape:cx="6.6228915"
     inkscape:cy="18.177723"
     inkscape:window-width="984"
     inkscape:window-height="484"
     inkscape:window-x="45"
     inkscape:window-y="29"
     inkscape:window-maximized="0"
     inkscape:current-layer="svg4" />
  <path
     id="path2"
     d="M 11.871094 2 C 6.4105501 2.0692448 2 6.523125 2 12 C 2 17.52 6.48 22 12 22 C 17.52 22 22 17.52 22 12 C 22 6.48 17.52 2 12 2 C 11.956875 2 11.91409 1.9994548 11.871094 2 z M 12 7 C 12.55 7 13 7.45 13 8 L 13 12 C 13 12.55 12.55 13 12 13 C 11.45 13 11 12.55 11 12 L 11 8 C 11 7.45 11.45 7 12 7 z M 12 15 A 1 1 0 0 1 13 16 A 1 1 0 0 1 12 17 A 1 1 0 0 1 11 16 A 1 1 0 0 1 12 15 z "
     style="fill:#1a0600;fill-opacity:1" />
</svg>
