<?xml version="1.0" encoding="UTF-8" standalone="no"?>
<svg
   height="24"
   viewBox="0 0 24 24"
   width="24"
   version="1.1"
   id="svg4"
   sodipodi:docname="insync-synced.svg"
   inkscape:version="1.1 (c68e22c387, 2021-05-23)"
   xmlns:inkscape="http://www.inkscape.org/namespaces/inkscape"
   xmlns:sodipodi="http://sodipodi.sourceforge.net/DTD/sodipodi-0.dtd"
   xmlns="http://www.w3.org/2000/svg"
   xmlns:svg="http://www.w3.org/2000/svg">
  <defs
     id="defs8" />
  <sodipodi:namedview
     id="namedview6"
     pagecolor="#ffffff"
     bordercolor="#666666"
     borderopacity="1.0"
     inkscape:pageshadow="2"
     inkscape:pageopacity="0.0"
     inkscape:pagecheckerboard="0"
     showgrid="false"
     inkscape:zoom="37.458333"
     inkscape:cx="11.946607"
     inkscape:cy="12"
     inkscape:window-width="1908"
     inkscape:window-height="1017"
     inkscape:window-x="3848"
     inkscape:window-y="1097"
     inkscape:window-maximized="0"
     inkscape:current-layer="svg4" />
  <path
     d="M 12,2 C 6.48,2 2,6.48 2,12 2,17.52 6.48,22 12,22 17.52,22 22,17.52 22,12 22,6.48 17.52,2 12,2 Z m 0,18 C 7.59,20 4,16.41 4,12 4,7.59 7.59,4 12,4 c 4.41,0 8,3.59 8,8 0,4.41 -3.59,8 -8,8 z"
     id="path2"
     sodipodi:nodetypes="ssssssssss" />
  <path
     id="path2-3"
     d="m 15.863215,8.5386154 c 0.254999,-4e-7 0.508125,0.096016 0.703124,0.2910156 0.390001,0.39 0.390003,1.0201586 0,1.410156 l -5.975827,5.975829 c -0.38,0.390001 -1.020151,0.389995 -1.4101569,0 L 6.5905114,13.625773 c -0.390006,-0.389994 -0.3900001,-1.020157 0,-1.410157 0.3899999,-0.39 1.0201562,-0.39 1.4101562,0 l 1.890625,1.88086 5.2668434,-5.266845 c 0.195002,-0.1949987 0.450079,-0.2910153 0.705079,-0.2910156 z"
     sodipodi:nodetypes="ssccccscccs" />
</svg>
