<?xml version="1.0" encoding="UTF-8" standalone="no"?>
<svg
   xmlns:dc="http://purl.org/dc/elements/1.1/"
   xmlns:cc="http://creativecommons.org/ns#"
   xmlns:rdf="http://www.w3.org/1999/02/22-rdf-syntax-ns#"
   xmlns:svg="http://www.w3.org/2000/svg"
   xmlns="http://www.w3.org/2000/svg"
   xmlns:sodipodi="http://sodipodi.sourceforge.net/DTD/sodipodi-0.dtd"
   xmlns:inkscape="http://www.inkscape.org/namespaces/inkscape"
   version="1.1"
   id="mdi-alpha-s-circle"
   width="24"
   height="24"
   viewBox="0 0 24 24"
   sodipodi:docname="lang-struct-field-symbolic.symbolic (copy).svg"
   inkscape:version="1.0.2 (e86c870879, 2021-01-15)">
  <metadata
     id="metadata9">
    <rdf:RDF>
      <cc:Work
         rdf:about="">
        <dc:format>image/svg+xml</dc:format>
        <dc:type
           rdf:resource="http://purl.org/dc/dcmitype/StillImage" />
      </cc:Work>
    </rdf:RDF>
  </metadata>
  <defs
     id="defs7" />
  <sodipodi:namedview
     pagecolor="#ffffff"
     bordercolor="#666666"
     borderopacity="1"
     objecttolerance="10"
     gridtolerance="10"
     guidetolerance="10"
     inkscape:pageopacity="0"
     inkscape:pageshadow="2"
     inkscape:window-width="1908"
     inkscape:window-height="2107"
     id="namedview5"
     showgrid="false"
     inkscape:zoom="42"
     inkscape:cx="12"
     inkscape:cy="12"
     inkscape:window-x="8"
     inkscape:window-y="33"
     inkscape:window-maximized="0"
     inkscape:current-layer="mdi-alpha-s-circle" />
  <path
     id="path2"
     d="M 12 2 C 6.4771525 2 2 6.4771525 2 12 C 2 17.522847 6.4771525 22 12 22 C 17.522847 22 22 17.522847 22 12 C 22 6.4771525 17.522847 2 12 2 z M 9.6308594 6 L 11.630859 6 L 11.310547 9 L 13.310547 9 L 13.630859 6 L 15.630859 6 L 15.310547 9 L 17 9 L 17 11 L 15.099609 11 L 14.900391 13 L 17 13 L 17 15 L 14.689453 15 L 14.369141 18 L 12.369141 18 L 12.689453 15 L 10.689453 15 L 10.369141 18 L 8.3691406 18 L 8.6894531 15 L 7 15 L 7 13 L 8.9003906 13 L 9.0996094 11 L 7 11 L 7 9 L 9.3105469 9 L 9.6308594 6 z M 11.099609 11 L 10.900391 13 L 12.900391 13 L 13.099609 11 L 11.099609 11 z " />
</svg>
