<?xml version="1.0" encoding="UTF-8" standalone="no"?>
<svg
   enable-background="new 0 0 24 24"
   height="24"
   viewBox="0 0 24 24"
   width="24"
   version="1.1"
   id="svg8"
   sodipodi:docname="wolfram 3.svg"
   inkscape:version="1.1 (c68e22c387, 2021-05-23)"
   xmlns:inkscape="http://www.inkscape.org/namespaces/inkscape"
   xmlns:sodipodi="http://sodipodi.sourceforge.net/DTD/sodipodi-0.dtd"
   xmlns="http://www.w3.org/2000/svg"
   xmlns:svg="http://www.w3.org/2000/svg">
  <defs
     id="defs12" />
  <sodipodi:namedview
     id="namedview10"
     pagecolor="#ffffff"
     bordercolor="#666666"
     borderopacity="1.0"
     inkscape:pageshadow="2"
     inkscape:pageopacity="0.0"
     inkscape:pagecheckerboard="0"
     showgrid="false"
     inkscape:zoom="16"
     inkscape:cx="3.21875"
     inkscape:cy="14.46875"
     inkscape:window-width="1908"
     inkscape:window-height="1017"
     inkscape:window-x="3848"
     inkscape:window-y="1097"
     inkscape:window-maximized="0"
     inkscape:current-layer="svg8" />
  <g
     id="g2" />
  <path
     inkscape:connector-curvature="0"
     d="m 6.4362,4.4000005 c 0,0 1.034399,3.3336 0.4026,5.4714005 C 6.207601,12.0086 3,14.415799 3,14.415799 c 0,0 4.1934,0.228001 5.7858,1.245602 1.5918,1.017599 3.2106,4.938598 3.2106,4.938598 0,0 2.1498,-4.319999 3.0492,-4.938598 0.8994,-0.617999 5.9544,-1.2516 5.9544,-1.2516 0,0 -3.695999,-3.478199 -4.0104,-4.4484 -0.313801,-0.9702005 0.5754,-5.5590005 0.5754,-5.5590005 0,0 -3.326399,2.247599 -5.662199,2.247599 -2.335801,0 -5.466601,-2.249999 -5.466601,-2.249999 z m 8.1114,4.197599 c -0.0516,0.620402 -0.176999,1.0626025 0.1596,2.1023995 0.373799,1.154401 0.755401,1.378801 1.207801,1.914602 0.0552,0.0654 0.123598,0.130199 0.180599,0.195599 -0.100799,0.0234 -0.21,0.0384 -0.3084,0.0624 -0.6918,0.168602 -1.168801,0.169801 -2.1006,0.810601 -0.932401,0.640799 -1.1082,1.100999 -1.493401,1.678201 -0.0492,0.0744 -0.0924,0.158399 -0.141599,0.2346 -0.4794,-0.700199 -1.072799,-1.3818 -1.9734,-1.9572 -0.6948,-0.444 -1.3848,-0.689399 -2.063999,-0.880201 0.451799,-0.6306 0.8682,-1.333198 1.1262,-2.207398 0.201,-0.679801 0.228,-1.3140005 0.252,-1.9398015 0.757199,0.250199 1.583999,0.438599 2.5104,0.438599 0.970799,0 1.849799,-0.1866 2.644799,-0.4524 z"
     style="clip-rule:evenodd;fill:#000000;fill-opacity:1;fill-rule:evenodd;stroke-width:0.6;stroke-linejoin:round;stroke-miterlimit:2"
     id="path4" />
</svg>
