<?xml version="1.0" encoding="UTF-8" standalone="no"?>
<svg
   xmlns:dc="http://purl.org/dc/elements/1.1/"
   xmlns:cc="http://creativecommons.org/ns#"
   xmlns:rdf="http://www.w3.org/1999/02/22-rdf-syntax-ns#"
   xmlns:svg="http://www.w3.org/2000/svg"
   xmlns="http://www.w3.org/2000/svg"
   xmlns:sodipodi="http://sodipodi.sourceforge.net/DTD/sodipodi-0.dtd"
   xmlns:inkscape="http://www.inkscape.org/namespaces/inkscape"
   enable-background="new 0 0 24 24"
   height="24"
   viewBox="0 0 24 24"
   width="24"
   version="1.1"
   id="svg12"
   sodipodi:docname="touchpad-disabled-symbolic.svg"
   inkscape:version="1.0.1 (3bc2e813f5, 2020-09-07)">
  <metadata
     id="metadata18">
    <rdf:RDF>
      <cc:Work
         rdf:about="">
        <dc:format>image/svg+xml</dc:format>
        <dc:type
           rdf:resource="http://purl.org/dc/dcmitype/StillImage" />
      </cc:Work>
    </rdf:RDF>
  </metadata>
  <defs
     id="defs16" />
  <sodipodi:namedview
     pagecolor="#ffffff"
     bordercolor="#666666"
     borderopacity="1"
     objecttolerance="10"
     gridtolerance="10"
     guidetolerance="10"
     inkscape:pageopacity="0"
     inkscape:pageshadow="2"
     inkscape:window-width="948"
     inkscape:window-height="492"
     id="namedview14"
     showgrid="false"
     inkscape:zoom="13.02255"
     inkscape:cx="9.7527028"
     inkscape:cy="9.1724748"
     inkscape:window-x="8"
     inkscape:window-y="8"
     inkscape:window-maximized="0"
     inkscape:current-layer="svg12"
     inkscape:document-rotation="0" />
  <path
     d="m 2.82,2.6549155 c -0.39,0.39 -0.39,1.02 0,1.41 L 19.77,21.044915 c 0.39,0.39 1.02,0.39 1.41,0 v 0 c 0.39,-0.39 0.39,-1.02 0,-1.41 L 4.23,2.6549155 c -0.39,-0.39 -1.02,-0.39 -1.41,0 z"
     id="path4-7"
     sodipodi:nodetypes="sccssccs" />
  <g
     id="g10">
    <g
       id="g8">
      <path
         id="path6"
         d="M 11.289062 1 C 9.5521388 1 8.0668833 1.9890119 7.3164062 3.4257812 L 8.8515625 4.9609375 C 9.0987544 3.8404107 10.094577 3 11.289062 3 C 12.669062 3 13.789062 4.12 13.789062 5.5 L 13.789062 9.2402344 C 14.999063 8.4302344 15.789062 7.06 15.789062 5.5 C 15.789062 3.01 13.779063 1 11.289062 1 z M 11.289062 4 C 10.459062 4 9.7890625 4.67 9.7890625 5.5 L 9.7890625 5.8984375 L 12.789062 8.8984375 L 12.789062 5.5 C 12.789062 4.67 12.119063 4 11.289062 4 z M 6.8125 5.265625 C 6.8083691 5.3448889 6.7890625 5.4196861 6.7890625 5.5 C 6.7890625 7.06 7.5790625 8.4302344 8.7890625 9.2402344 L 8.7890625 7.2421875 L 6.8125 5.265625 z M 9.7890625 8.2421875 L 9.7890625 16.240234 L 6.3496094 15.519531 C 5.9796094 15.439531 5.5903125 15.560078 5.3203125 15.830078 C 4.8903125 16.270078 4.8903125 16.970156 5.3203125 17.410156 L 9.3300781 21.419922 C 9.7100781 21.789922 10.22 22 10.75 22 L 16.849609 22 C 17.849609 22 18.690078 21.269297 18.830078 20.279297 L 19.201172 17.652344 L 13.048828 11.5 L 12.789062 11.5 L 12.789062 11.240234 L 9.7890625 8.2421875 z M 16.902344 13.011719 L 19.472656 15.582031 C 19.49212 14.81321 19.070068 14.086147 18.369141 13.740234 L 16.902344 13.011719 z " />
    </g>
  </g>
</svg>
