<?xml version="1.0" encoding="UTF-8" standalone="no"?>
<svg
   xmlns:dc="http://purl.org/dc/elements/1.1/"
   xmlns:cc="http://creativecommons.org/ns#"
   xmlns:rdf="http://www.w3.org/1999/02/22-rdf-syntax-ns#"
   xmlns:svg="http://www.w3.org/2000/svg"
   xmlns="http://www.w3.org/2000/svg"
   xmlns:sodipodi="http://sodipodi.sourceforge.net/DTD/sodipodi-0.dtd"
   xmlns:inkscape="http://www.inkscape.org/namespaces/inkscape"
   height="24"
   viewBox="0 0 24 24"
   width="24"
   version="1.1"
   id="svg6"
   sodipodi:docname="selection-start-symbolic.svg"
   inkscape:version="1.0.1 (3bc2e813f5, 2020-09-07)">
  <g
     id="g855"
     transform="rotate(180,12,12)">
    <path
       d="M 3,19 V 4 C 3,3.45 3.45,3 4,3 4.55,3 5,3.45 5,4 v 14 c 0,0.55 0.45,1 1,1 h 14 c 0.55,0 1,0.45 1,1 0,0.55 -0.45,1 -1,1 H 5 C 3.9,21 3,20.1 3,19 Z"
       id="path4"
       sodipodi:nodetypes="sssssssssss" />
    <path
       d="m 13,3 h -2 v 2 h 2 z m 6,0 v 2 h 2 C 21,3.9 20.1,3 19,3 Z M 9,3 H 7 v 2 h 2 z m 10,10 h 2 v -2 h -2 z m 2,7 V 19 H 19 Z M 19,9 h 2 V 7 h -2 z m 0,8 h 2 V 15 H 19 Z M 15,5 h 2 V 3 h -2 z"
       id="path4-3"
       sodipodi:nodetypes="cccccccccccccccccccccccccccccccccccccc" />
    <path
       d="M 5,3 H 4 L 3.0000002,5 H 5 Z"
       id="path4-3-6"
       sodipodi:nodetypes="ccccc" />
  </g>
  <metadata
     id="metadata12">
    <rdf:RDF>
      <cc:Work
         rdf:about="">
        <dc:format>image/svg+xml</dc:format>
        <dc:type
           rdf:resource="http://purl.org/dc/dcmitype/StillImage" />
      </cc:Work>
    </rdf:RDF>
  </metadata>
  <defs
     id="defs10" />
  <sodipodi:namedview
     pagecolor="#ffffff"
     bordercolor="#666666"
     borderopacity="1"
     objecttolerance="10"
     gridtolerance="10"
     guidetolerance="10"
     inkscape:pageopacity="0"
     inkscape:pageshadow="2"
     inkscape:window-width="948"
     inkscape:window-height="477"
     id="namedview8"
     showgrid="false"
     inkscape:zoom="18.416667"
     inkscape:cx="8.4131002"
     inkscape:cy="11.955026"
     inkscape:window-x="26"
     inkscape:window-y="23"
     inkscape:window-maximized="0"
     inkscape:current-layer="svg6"
     inkscape:document-rotation="0" />
</svg>
