<?xml version="1.0" encoding="UTF-8" standalone="no"?>
<svg
   height="24px"
   viewBox="0 0 24 24"
   width="24px"
   fill="#000000"
   version="1.1"
   id="svg6"
   sodipodi:docname="people_black_24dp(1).svg"
   inkscape:version="1.1 (c68e22c387, 2021-05-23)"
   xmlns:inkscape="http://www.inkscape.org/namespaces/inkscape"
   xmlns:sodipodi="http://sodipodi.sourceforge.net/DTD/sodipodi-0.dtd"
   xmlns="http://www.w3.org/2000/svg"
   xmlns:svg="http://www.w3.org/2000/svg">
  <defs
     id="defs10" />
  <sodipodi:namedview
     id="namedview8"
     pagecolor="#ffffff"
     bordercolor="#666666"
     borderopacity="1.0"
     inkscape:pageshadow="2"
     inkscape:pageopacity="0.0"
     inkscape:pagecheckerboard="0"
     showgrid="false"
     inkscape:zoom="6.1095228"
     inkscape:cx="32.408423"
     inkscape:cy="48.285277"
     inkscape:window-width="1904"
     inkscape:window-height="1008"
     inkscape:window-x="45"
     inkscape:window-y="29"
     inkscape:window-maximized="0"
     inkscape:current-layer="svg6" />
  <path
     id="path4"
     d="M 8 5 C 6.34 5 5 6.34 5 8 C 5 9.66 6.34 11 8 11 C 9.66 11 10.990234 9.66 10.990234 8 C 10.990234 6.34 9.66 5 8 5 z M 16 5 C 14.34 5 13 6.34 13 8 C 13 9.66 14.34 11 16 11 C 17.66 11 18.990234 9.66 18.990234 8 C 18.990234 6.34 17.66 5 16 5 z M 8.0019531 7 C 8.5561881 7 9 7.4466669 9 8 C 9 8.5533333 8.5561881 9 8.0019531 9 C 7.4477176 9 7 8.5533333 7 8 C 7 7.4466669 7.4477176 7 8.0019531 7 z M 16.001953 7 C 16.556188 7 17 7.4466669 17 8 C 17 8.5533333 16.556188 9 16.001953 9 C 15.447718 9 15 8.5533333 15 8 C 15 7.4466669 15.447718 7 16.001953 7 z M 7.8886719 13 C 5.5247804 13.035989 1 14.206406 1 16.5 L 1 18 C 1 18.55 1.45 19 2 19 L 14 19 C 14.55 19 15 18.55 15 18 L 15 16.5 C 15 14.17 10.33 13 8 13 C 7.9635938 13 7.926194 12.999429 7.8886719 13 z M 15.888672 13 C 15.626311 13.004388 15.335547 13.024531 15.029297 13.050781 C 15.049297 13.060781 15.060313 13.079844 15.070312 13.089844 C 15.793127 13.616102 16.373969 14.25552 16.703125 15.027344 C 16.912172 15.042599 17.119777 15.06409 17.324219 15.091797 C 17.327519 15.092297 17.330684 15.093299 17.333984 15.09375 C 18.320834 15.22844 19.233434 15.496059 19.892578 15.806641 C 19.966064 15.841269 20.036626 15.876539 20.103516 15.912109 C 20.167314 15.946042 20.227806 15.979102 20.285156 16.013672 C 20.323854 16.036992 20.360884 16.060444 20.396484 16.083984 C 20.413384 16.094974 20.431076 16.106168 20.447266 16.117188 C 20.452196 16.120587 20.457991 16.123553 20.462891 16.126953 L 20.460938 16.130859 C 20.584264 16.220553 20.658056 16.363141 20.660156 16.515625 C 20.660451 16.78326 20.443416 17.000295 20.175781 17 C 20.174481 17.000005 20.173175 17.000005 20.171875 17 L 20.166016 17 L 17 17 L 17 18 C 17 18.35 16.930312 18.69 16.820312 19 L 22 19 C 22.55 19 23 18.55 23 18 L 23 16.5 C 23 14.17 18.33 13 16 13 C 15.96375 13 15.926152 12.999373 15.888672 13 z M 8 15 C 8.111237 15 8.2228544 15.001859 8.3339844 15.005859 L 8.3359375 15.005859 C 8.3424975 15.006159 8.3488687 15.007561 8.3554688 15.007812 C 8.6817547 15.020354 9.0067815 15.048777 9.3242188 15.091797 C 9.3275187 15.092297 9.3306844 15.093299 9.3339844 15.09375 C 10.320834 15.22844 11.233388 15.496059 11.892578 15.806641 C 11.966064 15.841269 12.036626 15.876539 12.103516 15.912109 C 12.167314 15.946042 12.227806 15.979102 12.285156 16.013672 C 12.323854 16.036992 12.360884 16.060444 12.396484 16.083984 C 12.413384 16.094974 12.431076 16.106168 12.447266 16.117188 C 12.452186 16.120587 12.457991 16.123553 12.462891 16.126953 L 12.460938 16.130859 A 0.48384118 0.48384118 0 0 1 12.660156 16.515625 A 0.48384118 0.48384118 0 0 1 12.175781 17 A 0.48384118 0.48384118 0 0 1 12.171875 17 L 12.166016 17 L 3.8339844 17 A 0.48384118 0.48384118 0 0 1 3.828125 17 A 0.48384118 0.48384118 0 0 1 3.8242188 17 A 0.48384118 0.48384118 0 0 1 3.3398438 16.515625 A 0.48384118 0.48384118 0 0 1 3.5390625 16.130859 L 3.5371094 16.126953 C 3.5419694 16.123553 3.5478344 16.120487 3.5527344 16.117188 A 0.48384118 0.48384118 0 0 0 3.5546875 16.115234 C 3.5571875 16.113434 3.56 16.111075 3.5625 16.109375 A 0.48384118 0.48384118 0 0 1 3.5703125 16.105469 C 3.5807125 16.098389 3.5928256 16.091084 3.6035156 16.083984 C 3.6399036 16.060314 3.6752838 16.037152 3.7148438 16.013672 C 3.7721976 15.979099 3.8326844 15.946039 3.8964844 15.912109 C 3.9633794 15.876531 4.0339319 15.841261 4.1074219 15.806641 C 4.7665659 15.496059 5.6791656 15.22844 6.6660156 15.09375 C 6.6693156 15.09325 6.6724813 15.092245 6.6757812 15.091797 C 6.9932193 15.048777 7.3182463 15.020342 7.6445312 15.007812 C 7.7630022 15.003216 7.881605 15 8 15 z " />
</svg>
