<?xml version="1.0" encoding="UTF-8" standalone="no"?>
<svg
   height="24"
   viewBox="0 0 24 24"
   width="24"
   version="1.1"
   id="svg4"
   sodipodi:docname="vcs-push.svg"
   inkscape:version="1.1 (c68e22c387, 2021-05-23)"
   xmlns:inkscape="http://www.inkscape.org/namespaces/inkscape"
   xmlns:sodipodi="http://sodipodi.sourceforge.net/DTD/sodipodi-0.dtd"
   xmlns="http://www.w3.org/2000/svg"
   xmlns:svg="http://www.w3.org/2000/svg">
  <defs
     id="defs8" />
  <sodipodi:namedview
     id="namedview6"
     pagecolor="#ffffff"
     bordercolor="#666666"
     borderopacity="1.0"
     inkscape:pageshadow="2"
     inkscape:pageopacity="0.0"
     inkscape:pagecheckerboard="0"
     showgrid="false"
     inkscape:zoom="33.541667"
     inkscape:cx="12"
     inkscape:cy="12.014907"
     inkscape:window-width="1920"
     inkscape:window-height="1016"
     inkscape:window-x="0"
     inkscape:window-y="0"
     inkscape:window-maximized="1"
     inkscape:current-layer="svg4" />
  <path
     d="M 14.79,6.64 H 13 v 9 c 0,0.55 -0.45,1 -1,1 -0.55,0 -1,-0.45 -1,-1 v -9 H 9.21 C 8.76,6.64 8.54,6.1 8.86,5.79 L 11.65,3 c 0.2,-0.2 0.51,-0.2 0.71,0 l 2.79,2.79 c 0.31,0.31 0.09,0.85 -0.36,0.85 z M 8,20 c 0,0.55 0.45,1 1,1 h 6 c 0.55,0 1,-0.45 1,-1 0,-0.55 -0.45,-1 -1,-1 H 9 c -0.55,0 -1,0.45 -1,1 z"
     id="path2"
     sodipodi:nodetypes="scssscscsssssssssss" />
</svg>
