<?xml version="1.0" encoding="UTF-8" standalone="no"?>
<svg
   height="24"
   viewBox="0 0 24 24"
   width="24"
   version="1.1"
   id="svg4"
   sodipodi:docname="calendar-go-today.svg"
   inkscape:version="1.1 (c68e22c387, 2021-05-23)"
   xmlns:inkscape="http://www.inkscape.org/namespaces/inkscape"
   xmlns:sodipodi="http://sodipodi.sourceforge.net/DTD/sodipodi-0.dtd"
   xmlns="http://www.w3.org/2000/svg"
   xmlns:svg="http://www.w3.org/2000/svg">
  <defs
     id="defs8" />
  <sodipodi:namedview
     id="namedview6"
     pagecolor="#ffffff"
     bordercolor="#666666"
     borderopacity="1.0"
     inkscape:pageshadow="2"
     inkscape:pageopacity="0.0"
     inkscape:pagecheckerboard="0"
     showgrid="false"
     inkscape:zoom="33.541667"
     inkscape:cx="12.014907"
     inkscape:cy="12"
     inkscape:window-width="1595"
     inkscape:window-height="991"
     inkscape:window-x="26"
     inkscape:window-y="23"
     inkscape:window-maximized="0"
     inkscape:current-layer="svg4" />
  <path fill="#909090"
     d="M 19,3 H 18 V 2 C 18,1.45 17.55,1 17,1 16.45,1 16,1.45 16,2 V 3 H 8 V 2 C 8,1.45 7.55,1 7,1 6.45,1 6,1.45 6,2 V 3 H 5 C 3.89,3 3.01,3.9 3.01,5 L 3,19 c 0,1.1 0.89,2 2,2 h 14 c 1.1,0 2,-0.9 2,-2 V 5 C 21,3.9 20.1,3 19,3 Z M 18,19 H 6 C 5.45,19 5,18.55 5,18 V 8 h 14 v 10 c 0,0.55 -0.45,1 -1,1 z m -5,-7 h 3 c 0.55,0 1,0.45 1,1 v 3 c 0,0.55 -0.45,1 -1,1 h -3 c -0.55,0 -1,-0.45 -1,-1 v -3 c 0,-0.55 0.45,-1 1,-1 z"
     id="path2"
     sodipodi:nodetypes="scsssccssscsccssssssssccsssssssssss" />
</svg>
