<?xml version="1.0" encoding="UTF-8" standalone="no"?>
<svg
   xmlns:dc="http://purl.org/dc/elements/1.1/"
   xmlns:cc="http://creativecommons.org/ns#"
   xmlns:rdf="http://www.w3.org/1999/02/22-rdf-syntax-ns#"
   xmlns:svg="http://www.w3.org/2000/svg"
   xmlns="http://www.w3.org/2000/svg"
   xmlns:sodipodi="http://sodipodi.sourceforge.net/DTD/sodipodi-0.dtd"
   xmlns:inkscape="http://www.inkscape.org/namespaces/inkscape"
   height="24"
   viewBox="0 0 24 24"
   width="24"
   version="1.1"
   id="svg6"
   sodipodi:docname="go-jump-symbolic.svg"
   inkscape:version="1.0.1 (3bc2e813f5, 2020-09-07)">
  <metadata
     id="metadata12">
    <rdf:RDF>
      <cc:Work
         rdf:about="">
        <dc:format>image/svg+xml</dc:format>
        <dc:type
           rdf:resource="http://purl.org/dc/dcmitype/StillImage" />
      </cc:Work>
    </rdf:RDF>
  </metadata>
  <defs
     id="defs10" />
  <sodipodi:namedview
     pagecolor="#ffffff"
     bordercolor="#666666"
     borderopacity="1"
     objecttolerance="10"
     gridtolerance="10"
     guidetolerance="10"
     inkscape:pageopacity="0"
     inkscape:pageshadow="2"
     inkscape:window-width="1908"
     inkscape:window-height="1032"
     id="namedview8"
     showgrid="false"
     inkscape:zoom="36.833333"
     inkscape:cx="6.4886877"
     inkscape:cy="12"
     inkscape:window-x="1924"
     inkscape:window-y="1084"
     inkscape:window-maximized="0"
     inkscape:current-layer="svg6"
     inkscape:document-rotation="0" />
  <path
     d="M 3.7,14.89 11.29,7.3 c 0.39,-0.39 1.02,-0.39 1.41,0 L 19,13.6 V 10 c 0,-0.55 0.45,-1 1,-1 0.55,0 1,0.45 1,1 v 6 c 0,0.55 -0.45,1 -1,1 h -6 c -0.55,0 -1,-0.45 -1,-1 0,-0.55 0.45,-1 1,-1 h 3.59 L 12,9.41 5.11,16.3 c -0.39,0.39 -1.02,0.39 -1.41,0 -0.38,-0.39 -0.38,-1.03 0,-1.41 z"
     id="path4" />
</svg>
