<?xml version="1.0" encoding="UTF-8" standalone="no"?>
<svg
   xmlns:dc="http://purl.org/dc/elements/1.1/"
   xmlns:cc="http://creativecommons.org/ns#"
   xmlns:rdf="http://www.w3.org/1999/02/22-rdf-syntax-ns#"
   xmlns:svg="http://www.w3.org/2000/svg"
   xmlns="http://www.w3.org/2000/svg"
   xmlns:sodipodi="http://sodipodi.sourceforge.net/DTD/sodipodi-0.dtd"
   xmlns:inkscape="http://www.inkscape.org/namespaces/inkscape"
   height="24"
   viewBox="0 0 24 24"
   width="24"
   version="1.1"
   id="svg14"
   sodipodi:docname="network-cellular-hspa-symbolic.svg"
   inkscape:version="1.0.1 (3bc2e813f5, 2020-09-07)">
  <metadata
     id="metadata20">
    <rdf:RDF>
      <cc:Work
         rdf:about="">
        <dc:format>image/svg+xml</dc:format>
        <dc:type
           rdf:resource="http://purl.org/dc/dcmitype/StillImage" />
      </cc:Work>
    </rdf:RDF>
  </metadata>
  <defs
     id="defs18" />
  <sodipodi:namedview
     pagecolor="#ffffff"
     bordercolor="#666666"
     borderopacity="1"
     objecttolerance="10"
     gridtolerance="10"
     guidetolerance="10"
     inkscape:pageopacity="0"
     inkscape:pageshadow="2"
     inkscape:window-width="1904"
     inkscape:window-height="1028"
     id="namedview16"
     showgrid="false"
     inkscape:zoom="18.416667"
     inkscape:cx="11.472839"
     inkscape:cy="19.725096"
     inkscape:window-x="8"
     inkscape:window-y="8"
     inkscape:window-maximized="0"
     inkscape:current-layer="svg14" />
  <g
     id="g38">
    <path
       d="M 19,3.0000001 H 5 c -1.11,0 -2,0.9 -2,1.9999999 v 14 c 0,1.1 0.89,2 2,2 h 14 c 1.1,0 2,-0.9 2,-2 V 5 C 21,3.9000001 20.1,3.0000001 19,3.0000001 Z M 14.576722,16.84043 c -0.645408,0 -1.180623,-0.535215 -1.180623,-1.180621 v -1.967705 h -3.148325 v 1.967705 c 0,0.645406 -0.5352147,1.180621 -1.180622,1.180621 -0.6454061,0 -1.1806214,-0.535215 -1.1806214,-1.180621 V 8.5760767 c 0,-0.6454072 0.5352153,-1.1806228 1.1806214,-1.1806228 0.6454073,0 1.180622,0.5352155 1.180622,1.1806228 v 2.7547853 h 3.148325 V 8.5760767 c 0,-0.6454072 0.535215,-1.1806228 1.180623,-1.1806228 0.645407,0 1.180621,0.5352155 1.180621,1.1806228 v 7.0837323 c 0,0.645406 -0.535214,1.180621 -1.180621,1.180621 z"
       id="path12"
       sodipodi:nodetypes="sssssssssssccssssssccsssss" />
  </g>
</svg>
