<?xml version="1.0" encoding="UTF-8" standalone="no"?>
<svg
   xmlns:dc="http://purl.org/dc/elements/1.1/"
   xmlns:cc="http://creativecommons.org/ns#"
   xmlns:rdf="http://www.w3.org/1999/02/22-rdf-syntax-ns#"
   xmlns:svg="http://www.w3.org/2000/svg"
   xmlns="http://www.w3.org/2000/svg"
   xmlns:sodipodi="http://sodipodi.sourceforge.net/DTD/sodipodi-0.dtd"
   xmlns:inkscape="http://www.inkscape.org/namespaces/inkscape"
   height="24"
   viewBox="0 0 24 24"
   width="24"
   version="1.1"
   id="svg4"
   sodipodi:docname="filter_none.svg"
   inkscape:version="1.0.2 (e86c870879, 2021-01-15)">
  <metadata
     id="metadata10">
    <rdf:RDF>
      <cc:Work
         rdf:about="">
        <dc:format>image/svg+xml</dc:format>
        <dc:type
           rdf:resource="http://purl.org/dc/dcmitype/StillImage" />
      </cc:Work>
    </rdf:RDF>
  </metadata>
  <defs
     id="defs8" />
  <sodipodi:namedview
     pagecolor="#ffffff"
     bordercolor="#666666"
     borderopacity="1"
     objecttolerance="10"
     gridtolerance="10"
     guidetolerance="10"
     inkscape:pageopacity="0"
     inkscape:pageshadow="2"
     inkscape:window-width="3824"
     inkscape:window-height="2107"
     id="namedview6"
     showgrid="false"
     inkscape:zoom="42"
     inkscape:cx="12"
     inkscape:cy="12"
     inkscape:window-x="8"
     inkscape:window-y="33"
     inkscape:window-maximized="0"
     inkscape:current-layer="svg4" />
  <path
     d="M 19,2 C 19,1.45 18.55,1 18,1 H 3 C 1.9,1 1,1.9 1,3 v 15 c 0,0.55 0.45,1 1,1 0.55,0 1,-0.45 1,-1 V 4 C 3,3.45 3.45,3 4,3 h 14 c 0.55,0 1,-0.45 1,-1 z m 4,19 V 7 C 23,5.9 22.1,5 21,5 H 7 C 5.9,5 5,5.9 5,7 v 14 c 0,1.1 0.9,2 2,2 h 14 c 1.1,0 2,-0.9 2,-2 z M 7,20 V 8 C 7,7.45 7.45,7 8,7 h 12 c 0.55,0 1,0.45 1,1 v 12 c 0,0.55 -0.45,1 -1,1 H 8 C 7.45,21 7,20.55 7,20 Z"
     id="path2" />
</svg>
