<?xml version="1.0" encoding="UTF-8" standalone="no"?>
<svg
   xmlns:dc="http://purl.org/dc/elements/1.1/"
   xmlns:cc="http://creativecommons.org/ns#"
   xmlns:rdf="http://www.w3.org/1999/02/22-rdf-syntax-ns#"
   xmlns:svg="http://www.w3.org/2000/svg"
   xmlns="http://www.w3.org/2000/svg"
   xmlns:sodipodi="http://sodipodi.sourceforge.net/DTD/sodipodi-0.dtd"
   xmlns:inkscape="http://www.inkscape.org/namespaces/inkscape"
   version="1.1"
   id="mdi-flash-auto"
   width="24"
   height="24"
   viewBox="0 0 24 24"
   sodipodi:docname="camera-flash-auto.svg"
   inkscape:version="1.0.2 (e86c870879, 2021-01-15)">
  <metadata
     id="metadata9">
    <rdf:RDF>
      <cc:Work
         rdf:about="">
        <dc:format>image/svg+xml</dc:format>
        <dc:type
           rdf:resource="http://purl.org/dc/dcmitype/StillImage" />
      </cc:Work>
    </rdf:RDF>
  </metadata>
  <defs
     id="defs7" />
  <sodipodi:namedview
     pagecolor="#ffffff"
     bordercolor="#666666"
     borderopacity="1"
     objecttolerance="10"
     gridtolerance="10"
     guidetolerance="10"
     inkscape:pageopacity="0"
     inkscape:pageshadow="2"
     inkscape:window-width="1908"
     inkscape:window-height="2107"
     id="namedview5"
     showgrid="false"
     inkscape:zoom="42"
     inkscape:cx="12"
     inkscape:cy="12"
     inkscape:window-x="8"
     inkscape:window-y="8"
     inkscape:window-maximized="0"
     inkscape:current-layer="mdi-flash-auto" />
  <path
     d="M 16.85,7.65 18,4 19.15,7.65 M 19,2 h -2 l -3.2,9 h 1.9 l 0.7,-2 h 3.2 l 0.7,2 h 1.9"
     id="path2"
     sodipodi:nodetypes="ccccccccccc" />
  <path
     d="m 3,4 v 9 c 0,0.55 0.45,1 1,1 h 2 v 7.15 c 0,0.51 0.67,0.69 0.93,0.25 l 5.19,-8.9 C 12.51,11.83 12.03,11 11.26,11 H 9 L 11.49,4.35 C 11.74,3.7 11.26,3 10.56,3 H 4 C 3.45,3 3,3.45 3,4 Z"
     id="path2-3" />
</svg>
