<?xml version="1.0" encoding="UTF-8" standalone="no"?>
<svg
   enable-background="new 0 0 24 24"
   height="24px"
   viewBox="0 0 24 24"
   width="24px"
   fill="#000000"
   version="1.1"
   id="svg10"
   sodipodi:docname="emblem-generic.svg"
   inkscape:version="1.1 (c68e22c387, 2021-05-23)"
   xmlns:inkscape="http://www.inkscape.org/namespaces/inkscape"
   xmlns:sodipodi="http://sodipodi.sourceforge.net/DTD/sodipodi-0.dtd"
   xmlns="http://www.w3.org/2000/svg"
   xmlns:svg="http://www.w3.org/2000/svg">
  <defs
     id="defs14" />
  <sodipodi:namedview
     id="namedview12"
     pagecolor="#ffffff"
     bordercolor="#666666"
     borderopacity="1.0"
     inkscape:pageshadow="2"
     inkscape:pageopacity="0.0"
     inkscape:pagecheckerboard="0"
     showgrid="false"
     inkscape:zoom="37.458333"
     inkscape:cx="4.5917687"
     inkscape:cy="11.986652"
     inkscape:window-width="1920"
     inkscape:window-height="1080"
     inkscape:window-x="0"
     inkscape:window-y="0"
     inkscape:window-maximized="0"
     inkscape:current-layer="svg10" />
  <path
     id="path6"
     style="fill:#000000;fill-opacity:1"
     d="M 12 2 C 6.49 2 2 6.49 2 12 C 2 17.51 6.49 22 12 22 C 17.51 22 22 17.51 22 12 C 22 6.49 17.51 2 12 2 z M 10.800781 6 L 13.199219 6 C 13.344933 6 13.474286 6.110904 13.5 6.2480469 L 13.722656 7.8339844 C 14.091227 7.9882701 14.425803 8.1857811 14.734375 8.4257812 L 16.226562 7.8261719 C 16.363705 7.7747429 16.516607 7.8265067 16.59375 7.9550781 L 17.794922 10.029297 C 17.872062 10.157868 17.837993 10.319776 17.726562 10.414062 L 16.457031 11.408203 C 16.482741 11.605345 16.5 11.802857 16.5 12 C 16.5 12.197143 16.482751 12.39346 16.457031 12.582031 L 17.726562 13.576172 C 17.837992 13.670462 17.872066 13.834321 17.794922 13.962891 L 16.59375 16.037109 C 16.51661 16.16568 16.363706 16.217445 16.226562 16.166016 L 14.734375 15.566406 C 14.425803 15.806406 14.082656 16.001964 13.722656 16.15625 L 13.5 17.742188 C 13.474291 17.887904 13.344933 18 13.199219 18 L 10.800781 18 C 10.655067 18 10.525714 17.889096 10.5 17.751953 L 10.277344 16.166016 C 9.9087717 16.01173 9.574197 15.814218 9.265625 15.574219 L 7.7734375 16.173828 C 7.6362945 16.225258 7.483393 16.173494 7.40625 16.044922 L 6.2050781 13.970703 C 6.1279381 13.842131 6.1620075 13.680223 6.2734375 13.585938 L 7.5429688 12.591797 C 7.5172567 12.394654 7.5 12.197143 7.5 12 C 7.5 11.802857 7.5172488 11.60654 7.5429688 11.417969 L 6.2734375 10.423828 C 6.1620085 10.329538 6.1279331 10.165681 6.2050781 10.037109 L 7.40625 7.9628906 C 7.48339 7.8343192 7.6362945 7.7825559 7.7734375 7.8339844 L 9.265625 8.4335938 C 9.574197 8.1935937 9.9173437 7.9980357 10.277344 7.84375 L 10.5 6.2578125 C 10.52571 6.1120982 10.655067 6 10.800781 6 z M 12 10.285156 C 11.057143 10.285156 10.285156 11.057143 10.285156 12 C 10.285156 12.942857 11.057143 13.714844 12 13.714844 C 12.942857 13.714844 13.714844 12.942857 13.714844 12 C 13.714844 11.057143 12.942857 10.285156 12 10.285156 z " />
</svg>
