<?xml version="1.0" encoding="UTF-8" standalone="no"?>
<svg
   xmlns:dc="http://purl.org/dc/elements/1.1/"
   xmlns:cc="http://creativecommons.org/ns#"
   xmlns:rdf="http://www.w3.org/1999/02/22-rdf-syntax-ns#"
   xmlns:svg="http://www.w3.org/2000/svg"
   xmlns="http://www.w3.org/2000/svg"
   xmlns:sodipodi="http://sodipodi.sourceforge.net/DTD/sodipodi-0.dtd"
   xmlns:inkscape="http://www.inkscape.org/namespaces/inkscape"
   version="1.1"
   id="mdi-transit-skip"
   width="24"
   height="24"
   viewBox="0 0 24 24"
   sodipodi:docname="node-align-horizontal.svg"
   inkscape:version="1.0.2 (e86c870879, 2021-01-15)">
  <metadata
     id="metadata9">
    <rdf:RDF>
      <cc:Work
         rdf:about="">
        <dc:format>image/svg+xml</dc:format>
        <dc:type
           rdf:resource="http://purl.org/dc/dcmitype/StillImage" />
      </cc:Work>
    </rdf:RDF>
  </metadata>
  <defs
     id="defs7" />
  <sodipodi:namedview
     pagecolor="#ffffff"
     bordercolor="#666666"
     borderopacity="1"
     objecttolerance="10"
     gridtolerance="10"
     guidetolerance="10"
     inkscape:pageopacity="0"
     inkscape:pageshadow="2"
     inkscape:window-width="3824"
     inkscape:window-height="2107"
     id="namedview5"
     showgrid="false"
     inkscape:zoom="42"
     inkscape:cx="5.5238095"
     inkscape:cy="12"
     inkscape:window-x="8"
     inkscape:window-y="33"
     inkscape:window-maximized="0"
     inkscape:current-layer="mdi-transit-skip"
     inkscape:document-rotation="0" />
  <path
     id="path2"
     d="M 12 3 C 8.0000002 3 4.6999999 5.5 3.5 9 C 3.2792091 9.0473123 3.0699174 9.1251157 2.8671875 9.2148438 C 2.7550458 9.2585849 2.6513368 9.3149214 2.546875 9.3710938 C 2.536035 9.3773929 2.5244316 9.3822515 2.5136719 9.3886719 C 1.7531125 9.8103214 1.2107051 10.544383 1.0527344 11.447266 C 1.019174 11.626136 1 11.810323 1 12 C 1 12.189677 1.019174 12.373864 1.0527344 12.552734 C 1.2103788 13.453752 1.7516864 14.187271 2.5097656 14.609375 C 2.5262429 14.619237 2.5438815 14.627142 2.5605469 14.636719 C 2.6609638 14.69006 2.7597352 14.743244 2.8671875 14.785156 C 3.0699174 14.874884 3.2792091 14.952688 3.5 15 C 4.6999999 18.5 8.0000002 21 12 21 C 15.9 21 19.3 18.5 20.5 15 C 20.720791 14.952688 20.930083 14.874884 21.132812 14.785156 C 21.240265 14.743244 21.339036 14.69006 21.439453 14.636719 C 21.456119 14.627142 21.473757 14.619237 21.490234 14.609375 C 22.248314 14.187271 22.789621 13.453752 22.947266 12.552734 C 22.980826 12.373864 23 12.189677 23 12 C 23 11.810323 22.980826 11.626136 22.947266 11.447266 C 22.789621 10.546248 22.248314 9.8127288 21.490234 9.390625 C 21.473757 9.3807632 21.456119 9.372858 21.439453 9.3632812 C 21.339036 9.3099402 21.240265 9.2567558 21.132812 9.2148438 C 20.930083 9.1251157 20.720791 9.0473123 20.5 9 C 19.3 5.5 15.9 3 12 3 z M 12 5 C 14.89909 5 17.497357 6.7997561 18.498047 9.3984375 C 17.858997 9.7582959 17.38246 10.34169 17.15625 11.060547 C 17.134003 11.128458 17.111243 11.195843 17.09375 11.265625 C 17.076102 11.339681 17.061125 11.413857 17.048828 11.490234 C 17.020117 11.657289 17 11.826391 17 12 C 17 12.173609 17.020117 12.342711 17.048828 12.509766 C 17.061125 12.586143 17.076102 12.660319 17.09375 12.734375 C 17.111243 12.804157 17.134003 12.871542 17.15625 12.939453 C 17.38246 13.65831 17.858997 14.241704 18.498047 14.601562 C 17.497357 17.200244 14.89909 19 12 19 C 9.0015818 19 6.5030064 17.201302 5.5019531 14.603516 C 6.1418629 14.243745 6.6173364 13.658957 6.84375 12.939453 C 6.8659974 12.871542 6.8887571 12.804157 6.90625 12.734375 C 6.9238983 12.660319 6.938875 12.586143 6.9511719 12.509766 C 6.9798834 12.342711 7 12.173609 7 12 C 7 11.826391 6.9798834 11.657289 6.9511719 11.490234 C 6.938875 11.413857 6.9238983 11.339681 6.90625 11.265625 C 6.8874216 11.190516 6.8641721 11.117853 6.8398438 11.044922 C 6.7752653 10.84346 6.69048 10.653145 6.5878906 10.474609 C 6.3279652 10.022263 5.9568995 9.6546244 5.5019531 9.3984375 C 6.5025809 6.7997566 9.0009425 5 12 5 z M 12 9 C 11.575 9 11.175391 9.0820312 10.814453 9.2304688 C 9.7316407 9.6757813 9 10.725 9 12 C 9 13.0625 9.5087891 13.969727 10.304688 14.5 C 10.782227 14.818164 11.3625 15 12 15 C 13.7 15 15 13.7 15 12 C 15 10.3 13.7 9 12 9 z M 4 11 C 4.5999999 11 5 11.4 5 12 C 5 12.6 4.5999999 13 4 13 C 3.4 13 3 12.6 3 12 C 3 11.85 3.0253906 11.711719 3.0722656 11.589844 C 3.2128906 11.224219 3.55 11 4 11 z M 20 11 C 20.6 11 21 11.4 21 12 C 21 12.6 20.6 13 20 13 C 19.4 13 19 12.6 19 12 C 19 11.85 19.025391 11.711719 19.072266 11.589844 C 19.212891 11.224219 19.55 11 20 11 z " />
</svg>
