<?xml version="1.0" encoding="UTF-8" standalone="no"?>
<svg
   enable-background="new 0 0 24 24"
   height="24px"
   viewBox="0 0 24 24"
   width="24px"
   fill="#000000"
   version="1.1"
   id="svg10"
   sodipodi:docname="emblem-music.svg"
   inkscape:version="1.1 (c68e22c387, 2021-05-23)"
   xmlns:inkscape="http://www.inkscape.org/namespaces/inkscape"
   xmlns:sodipodi="http://sodipodi.sourceforge.net/DTD/sodipodi-0.dtd"
   xmlns="http://www.w3.org/2000/svg"
   xmlns:svg="http://www.w3.org/2000/svg">
  <defs
     id="defs14" />
  <sodipodi:namedview
     id="namedview12"
     pagecolor="#ffffff"
     bordercolor="#666666"
     borderopacity="1.0"
     inkscape:pageshadow="2"
     inkscape:pageopacity="0.0"
     inkscape:pagecheckerboard="0"
     showgrid="false"
     inkscape:zoom="26.487041"
     inkscape:cx="-1.3969095"
     inkscape:cy="14.648673"
     inkscape:window-width="1920"
     inkscape:window-height="1080"
     inkscape:window-x="0"
     inkscape:window-y="0"
     inkscape:window-maximized="0"
     inkscape:current-layer="svg10" />
  <path
     id="path6"
     style="fill:#000000;fill-opacity:1"
     d="M 12 2 C 6.48 2 2 6.48 2 12 C 2 17.52 6.48 22 12 22 C 17.52 22 22 17.52 22 12 C 22 6.48 17.52 2 12 2 z M 13.248047 6.109375 L 14.570312 6.109375 C 15.297874 6.109375 15.892578 6.7040792 15.892578 7.4316406 C 15.892578 8.159202 15.297873 8.7558594 14.570312 8.7558594 L 13.248047 8.7558594 L 13.248047 15.269531 C 13.248047 16.585756 12.327632 17.777383 11.03125 17.982422 C 9.2255747 18.266832 7.6918407 16.718539 7.9960938 14.90625 C 8.1548344 13.980262 8.8363542 13.192482 9.7226562 12.875 C 10.536203 12.59059 11.302094 12.730725 11.923828 13.087891 L 11.923828 7.4316406 C 11.923828 6.7040792 12.520485 6.109375 13.248047 6.109375 z " />
</svg>
