<?xml version="1.0" encoding="UTF-8" standalone="no"?>
<svg
   enable-background="new 0 0 24 24"
   height="24px"
   viewBox="0 0 24 24"
   width="24px"
   fill="#000000"
   version="1.1"
   id="svg10"
   sodipodi:docname="emblem-documents.svg"
   inkscape:version="1.1 (c68e22c387, 2021-05-23)"
   xmlns:inkscape="http://www.inkscape.org/namespaces/inkscape"
   xmlns:sodipodi="http://sodipodi.sourceforge.net/DTD/sodipodi-0.dtd"
   xmlns="http://www.w3.org/2000/svg"
   xmlns:svg="http://www.w3.org/2000/svg">
  <defs
     id="defs14" />
  <sodipodi:namedview
     id="namedview12"
     pagecolor="#ffffff"
     bordercolor="#666666"
     borderopacity="1.0"
     inkscape:pageshadow="2"
     inkscape:pageopacity="0.0"
     inkscape:pagecheckerboard="0"
     showgrid="false"
     inkscape:zoom="11.070755"
     inkscape:cx="9.0328073"
     inkscape:cy="12.374946"
     inkscape:window-width="1904"
     inkscape:window-height="1008"
     inkscape:window-x="45"
     inkscape:window-y="29"
     inkscape:window-maximized="0"
     inkscape:current-layer="svg10" />
  <path
     id="path6"
     style="fill:#000000;fill-opacity:1"
     d="M 12 2 C 6.48 2 2 6.48 2 12 C 2 17.52 6.48 22 12 22 C 17.52 22 22 17.52 22 12 C 22 6.48 17.52 2 12 2 z M 8 7 L 16 7 C 16.55 7 17 7.45 17 8 C 17 8.55 16.55 9 16 9 L 8 9 C 7.45 9 7 8.55 7 8 C 7 7.45 7.45 7 8 7 z M 8 11 L 16 11 C 16.55 11 17 11.45 17 12 C 17 12.55 16.55 13 16 13 L 8 13 C 7.45 13 7 12.55 7 12 C 7 11.45 7.45 11 8 11 z M 8 15 L 13 15 C 13.55 15 14 15.45 14 16 C 14 16.55 13.55 17 13 17 L 8 17 C 7.45 17 7 16.55 7 16 C 7 15.45 7.45 15 8 15 z " />
</svg>
