<?xml version="1.0" encoding="UTF-8" standalone="no"?>
<svg
   xmlns:dc="http://purl.org/dc/elements/1.1/"
   xmlns:cc="http://creativecommons.org/ns#"
   xmlns:rdf="http://www.w3.org/1999/02/22-rdf-syntax-ns#"
   xmlns:svg="http://www.w3.org/2000/svg"
   xmlns="http://www.w3.org/2000/svg"
   xmlns:sodipodi="http://sodipodi.sourceforge.net/DTD/sodipodi-0.dtd"
   xmlns:inkscape="http://www.inkscape.org/namespaces/inkscape"
   height="24"
   viewBox="0 0 24 24"
   width="24"
   version="1.1"
   id="svg4"
   sodipodi:docname="forward.svg"
   inkscape:version="1.0.2 (e86c870879, 2021-01-15)">
  <metadata
     id="metadata10">
    <rdf:RDF>
      <cc:Work
         rdf:about="">
        <dc:format>image/svg+xml</dc:format>
        <dc:type
           rdf:resource="http://purl.org/dc/dcmitype/StillImage" />
      </cc:Work>
    </rdf:RDF>
  </metadata>
  <defs
     id="defs8" />
  <sodipodi:namedview
     pagecolor="#ffffff"
     bordercolor="#666666"
     borderopacity="1"
     objecttolerance="10"
     gridtolerance="10"
     guidetolerance="10"
     inkscape:pageopacity="0"
     inkscape:pageshadow="2"
     inkscape:window-width="1908"
     inkscape:window-height="2107"
     id="namedview6"
     showgrid="false"
     inkscape:zoom="42"
     inkscape:cx="12"
     inkscape:cy="12"
     inkscape:window-x="1924"
     inkscape:window-y="33"
     inkscape:window-maximized="0"
     inkscape:current-layer="svg4" />
  <path
     d="M 14.20375,8 V 6.41 c 0,-0.89 1.08,-1.34 1.71,-0.71 l 5.59,5.59 c 0.39,0.39 0.39,1.02 0,1.41 l -5.59,5.59 c -0.63,0.63 -1.71,0.19 -1.71,-0.7 V 16 h -7 c -0.55,0 -1,-0.45 -1,-1 V 9 c 0,-0.55 0.45,-1 1,-1 z"
     id="path2" />
  <path
     d="m 9.79625,8.0037675 v -1.59 c 0,-0.89 -1.08,-1.34 -1.71,-0.71 L 2.4962498,11.293768 c -0.39,0.39 -0.39,1.02 0,1.41 L 8.08625,18.293767 c 0.63,0.63 1.71,0.19 1.71,-0.7 v -1.59 h 7 c 0.55,0 1,-0.449999 1,-1 V 9.003768 c 0,-0.5500005 -0.45,-1.0000005 -1,-1.0000005 z"
     id="path2-3" />
</svg>
