<?xml version="1.0" encoding="UTF-8" standalone="no"?>
<svg
   xmlns:dc="http://purl.org/dc/elements/1.1/"
   xmlns:cc="http://creativecommons.org/ns#"
   xmlns:rdf="http://www.w3.org/1999/02/22-rdf-syntax-ns#"
   xmlns:svg="http://www.w3.org/2000/svg"
   xmlns="http://www.w3.org/2000/svg"
   xmlns:sodipodi="http://sodipodi.sourceforge.net/DTD/sodipodi-0.dtd"
   xmlns:inkscape="http://www.inkscape.org/namespaces/inkscape"
   height="24"
   viewBox="0 0 24 24"
   width="24"
   version="1.1"
   id="svg6"
   sodipodi:docname="orientation-portrait-left-symbolic.svg"
   inkscape:version="1.0.1 (3bc2e813f5, 2020-09-07)">
  <metadata
     id="metadata12">
    <rdf:RDF>
      <cc:Work
         rdf:about="">
        <dc:format>image/svg+xml</dc:format>
        <dc:type
           rdf:resource="http://purl.org/dc/dcmitype/StillImage" />
        <dc:title />
      </cc:Work>
    </rdf:RDF>
  </metadata>
  <defs
     id="defs10" />
  <sodipodi:namedview
     pagecolor="#ffffff"
     bordercolor="#666666"
     borderopacity="1"
     objecttolerance="10"
     gridtolerance="10"
     guidetolerance="10"
     inkscape:pageopacity="0"
     inkscape:pageshadow="2"
     inkscape:window-width="948"
     inkscape:window-height="492"
     id="namedview8"
     showgrid="false"
     inkscape:zoom="36.833333"
     inkscape:cx="9.2810938"
     inkscape:cy="12"
     inkscape:window-x="8"
     inkscape:window-y="8"
     inkscape:window-maximized="0"
     inkscape:current-layer="svg6"
     inkscape:document-rotation="0" />
  <path
     d="m 19,5 v 14 c 0,1.1 -0.9,2 -2,2 H 7 C 5.9,21 5,20.1 5,19 V 5 C 5,3.9 5.9,3 7,3 h 10 c 1.1,0 2,0.9 2,2 z M 7,6 v 12 c 0,0.55 0.45,1 1,1 h 8 c 0.55,0 1,-0.45 1,-1 V 6 C 17,5.45 16.55,5 16,5 H 8 C 7.45,5 7,5.45 7,6 Z"
     id="path4" />
  <path
     d="M 14.34875,9.0399999 V 14.96 c 0,0.42 -0.48,0.65 -0.81,0.39 L 9.8387499,12.39 c -0.25,-0.2 -0.25,-0.58 0,-0.78 L 13.53875,8.65 c 0.33,-0.26 0.81,-0.03 0.81,0.3899999 z"
     id="path4-3"
     sodipodi:nodetypes="sscsscs" />
</svg>
