<?xml version="1.0" encoding="UTF-8" standalone="no"?>
<svg
   version="1.1"
   width="24"
   height="24"
   viewBox="0 0 24 24"
   id="svg4"
   sodipodi:docname="weather-alert.svg"
   inkscape:version="1.1 (c68e22c387, 2021-05-23)"
   xmlns:inkscape="http://www.inkscape.org/namespaces/inkscape"
   xmlns:sodipodi="http://sodipodi.sourceforge.net/DTD/sodipodi-0.dtd"
   xmlns="http://www.w3.org/2000/svg"
   xmlns:svg="http://www.w3.org/2000/svg">
  <defs
     id="defs8" />
  <sodipodi:namedview
     id="namedview6"
     pagecolor="#ffffff"
     bordercolor="#666666"
     borderopacity="1.0"
     inkscape:pageshadow="2"
     inkscape:pageopacity="0.0"
     inkscape:pagecheckerboard="0"
     showgrid="false"
     inkscape:zoom="33.541667"
     inkscape:cx="12"
     inkscape:cy="12.014907"
     inkscape:window-width="1920"
     inkscape:window-height="1016"
     inkscape:window-x="0"
     inkscape:window-y="0"
     inkscape:window-maximized="1"
     inkscape:current-layer="svg4" />
  <path
     id="path2"
     d="M 12 5 C 9.3 5 7 6.65 6 9 C 3.2385763 9 1 11.238576 1 14 C 1 16.761424 3.2385763 19 6 19 L 19 19 C 21.209139 19 23 17.209139 23 15 C 23 12.790861 21.209139 11 19 11 L 18.5 11.029297 C 18.24 7.6592969 15.43 5 12 5 z M 12 7 C 14.761424 7 17 9.2385763 17 12 L 17 13 L 19 13 C 20.104569 13 21 13.895431 21 15 C 21 16.104569 20.104569 17 19 17 L 6 17 C 4.3431458 17 3 15.656854 3 14 C 3 12.343146 4.3431458 11 6 11 C 6.37 11 6.7305469 11.069453 7.0605469 11.189453 C 7.4505469 8.8194531 9.5 7 12 7 z M 12 8 A 1 1 0 0 0 11 9 L 11 11 A 1 1 0 0 0 12 12 A 1 1 0 0 0 13 11 L 13 9 A 1 1 0 0 0 12 8 z M 12 14 A 1 1 0 0 0 11 15 A 1 1 0 0 0 12 16 A 1 1 0 0 0 13 15 A 1 1 0 0 0 12 14 z " />
</svg>
