<?xml version="1.0" encoding="UTF-8" standalone="no"?>
<svg
   xmlns:dc="http://purl.org/dc/elements/1.1/"
   xmlns:cc="http://creativecommons.org/ns#"
   xmlns:rdf="http://www.w3.org/1999/02/22-rdf-syntax-ns#"
   xmlns:svg="http://www.w3.org/2000/svg"
   xmlns="http://www.w3.org/2000/svg"
   xmlns:sodipodi="http://sodipodi.sourceforge.net/DTD/sodipodi-0.dtd"
   xmlns:inkscape="http://www.inkscape.org/namespaces/inkscape"
   height="24"
   viewBox="0 0 24 24"
   width="24"
   version="1.1"
   id="svg4"
   sodipodi:docname="object-flip-vertical-symbolic.svg"
   inkscape:version="1.0.1 (3bc2e813f5, 2020-09-07)">
  <metadata
     id="metadata10">
    <rdf:RDF>
      <cc:Work
         rdf:about="">
        <dc:format>image/svg+xml</dc:format>
        <dc:type
           rdf:resource="http://purl.org/dc/dcmitype/StillImage" />
      </cc:Work>
    </rdf:RDF>
  </metadata>
  <defs
     id="defs8" />
  <sodipodi:namedview
     pagecolor="#ffffff"
     bordercolor="#666666"
     borderopacity="1"
     objecttolerance="10"
     gridtolerance="10"
     guidetolerance="10"
     inkscape:pageopacity="0"
     inkscape:pageshadow="2"
     inkscape:window-width="1908"
     inkscape:window-height="1022"
     id="namedview6"
     showgrid="false"
     inkscape:zoom="39.833333"
     inkscape:cx="12.050209"
     inkscape:cy="12"
     inkscape:window-x="8"
     inkscape:window-y="1097"
     inkscape:window-maximized="0"
     inkscape:current-layer="svg4" />
  <path
     d="m 3,15 v 2 h 2 v -2 z m 12,4 v 2 h 2 V 19 Z M 19,3 H 5 C 3.9,3 3,3.9 3,5 V 8 C 3,8.55 3.45,9 4,9 4.55,9 5,8.55 5,8 V 6 C 5,5.45 5.45,5 6,5 h 12 c 0.55,0 1,0.45 1,1 v 2 c 0,0.55 0.45,1 1,1 0.55,0 1,-0.45 1,-1 V 5 C 21,3.9 20.1,3 19,3 Z m 2,16 h -2 v 2 c 1.1,0 2,-0.9 2,-2 z M 1,12 c 0,0.55 0.45,1 1,1 h 20 c 0.55,0 1,-0.45 1,-1 0,-0.55 -0.45,-1 -1,-1 H 2 c -0.55,0 -1,0.45 -1,1 z m 6,7 v 2 h 2 v -2 z m 12,-4 v 2 h 2 v -2 z m -8,4 v 2 h 2 v -2 z m -8,0 c 0,1.1 0.9,2 2,2 v -2 z"
     id="path2" />
</svg>
