<?xml version="1.0" encoding="UTF-8" standalone="no"?>
<svg
   xmlns:dc="http://purl.org/dc/elements/1.1/"
   xmlns:cc="http://creativecommons.org/ns#"
   xmlns:rdf="http://www.w3.org/1999/02/22-rdf-syntax-ns#"
   xmlns:svg="http://www.w3.org/2000/svg"
   xmlns="http://www.w3.org/2000/svg"
   xmlns:sodipodi="http://sodipodi.sourceforge.net/DTD/sodipodi-0.dtd"
   xmlns:inkscape="http://www.inkscape.org/namespaces/inkscape"
   height="24"
   viewBox="0 0 24 24"
   width="24"
   version="1.1"
   id="svg4"
   sodipodi:docname="format-unordered-list-symbolic (copy).svg"
   inkscape:version="1.0.1 (3bc2e813f5, 2020-09-07)">
  <metadata
     id="metadata10">
    <rdf:RDF>
      <cc:Work
         rdf:about="">
        <dc:format>image/svg+xml</dc:format>
        <dc:type
           rdf:resource="http://purl.org/dc/dcmitype/StillImage" />
      </cc:Work>
    </rdf:RDF>
  </metadata>
  <defs
     id="defs8" />
  <sodipodi:namedview
     pagecolor="#ffffff"
     bordercolor="#666666"
     borderopacity="1"
     objecttolerance="10"
     gridtolerance="10"
     guidetolerance="10"
     inkscape:pageopacity="0"
     inkscape:pageshadow="2"
     inkscape:window-width="1908"
     inkscape:window-height="1032"
     id="namedview6"
     showgrid="false"
     inkscape:zoom="39.833333"
     inkscape:cx="12.050209"
     inkscape:cy="12"
     inkscape:window-x="8"
     inkscape:window-y="1084"
     inkscape:window-maximized="0"
     inkscape:current-layer="svg4" />
  <path
     d="m 19.5,10.5 c 0.83,0 1.5,0.67 1.5,1.5 0,0.83 -0.67,1.5 -1.5,1.5 -0.83,0 -1.5,-0.67 -1.5,-1.5 0,-0.83 0.67,-1.5 1.5,-1.5 z m 0,-6 C 20.33,4.5 21,5.17 21,6 21,6.83 20.33,7.5 19.5,7.5 18.67,7.5 18,6.83 18,6 18,5.17 18.67,4.5 19.5,4.5 Z m 0,12 c 0.83,0 1.5,0.68 1.5,1.5 0,0.82 -0.68,1.5 -1.5,1.5 -0.82,0 -1.5,-0.68 -1.5,-1.5 0,-0.82 0.67,-1.5 1.5,-1.5 z m -4,2.5 h -12 c -0.55,0 -1,-0.45 -1,-1 0,-0.55 0.45,-1 1,-1 h 12 c 0.55,0 1,0.45 1,1 0,0.55 -0.45,1 -1,1 z m 0,-6 h -12 c -0.55,0 -1,-0.45 -1,-1 0,-0.55 0.45,-1 1,-1 h 12 c 0.55,0 1,0.45 1,1 0,0.55 -0.45,1 -1,1 z m 1,-7 c 0,0.55 -0.45,1 -1,1 h -12 c -0.55,0 -1,-0.45 -1,-1 0,-0.55 0.45,-1 1,-1 h 12 c 0.55,0 1,0.45 1,1 z"
     id="path2" />
</svg>
