<?xml version="1.0" encoding="UTF-8" standalone="no"?>
<svg
   xmlns:dc="http://purl.org/dc/elements/1.1/"
   xmlns:cc="http://creativecommons.org/ns#"
   xmlns:rdf="http://www.w3.org/1999/02/22-rdf-syntax-ns#"
   xmlns:svg="http://www.w3.org/2000/svg"
   xmlns="http://www.w3.org/2000/svg"
   xmlns:sodipodi="http://sodipodi.sourceforge.net/DTD/sodipodi-0.dtd"
   xmlns:inkscape="http://www.inkscape.org/namespaces/inkscape"
   version="1.1"
   id="mdi-collapse-all"
   width="24"
   height="24"
   viewBox="0 0 24 24"
   sodipodi:docname="collapse-all.svg"
   inkscape:version="1.0.2 (e86c870879, 2021-01-15)">
  <metadata
     id="metadata9">
    <rdf:RDF>
      <cc:Work
         rdf:about="">
        <dc:format>image/svg+xml</dc:format>
        <dc:type
           rdf:resource="http://purl.org/dc/dcmitype/StillImage" />
      </cc:Work>
    </rdf:RDF>
  </metadata>
  <defs
     id="defs7" />
  <sodipodi:namedview
     pagecolor="#ffffff"
     bordercolor="#666666"
     borderopacity="1"
     objecttolerance="10"
     gridtolerance="10"
     guidetolerance="10"
     inkscape:pageopacity="0"
     inkscape:pageshadow="2"
     inkscape:window-width="1940"
     inkscape:window-height="1017"
     id="namedview5"
     showgrid="false"
     inkscape:zoom="21"
     inkscape:cx="14.578601"
     inkscape:cy="12.686427"
     inkscape:window-x="5732"
     inkscape:window-y="1097"
     inkscape:window-maximized="0"
     inkscape:current-layer="mdi-collapse-all" />
  <path
     id="path2-3"
     d="m 4,1.9999999 c -1.1,0 -2,0.9 -2,2 V 13 c 0,0.55 0.45,1 1,1 0.55,0 1,-0.45 1,-1 V 4.9999999 c 0,-0.55 0.45,-1 1,-1 h 8 c 0.55,0 1,-0.45 1,-1 0,-0.55 -0.45,-1 -1,-1 z M 8,6 C 6.9,6 6,6.9 6,8 v 9 c 0,0.55 0.45,1 1,1 0.55,0 1,-0.45 1,-1 V 9 C 8,8.45 8.45,8 9,8 h 8 C 17.55,8 18,7.55 18,7 18,6.45 17.55,6 17,6 Z m 4,4 c -1.104569,0 -2,0.895431 -2,2 v 8 c 0,1.104569 0.895431,2 2,2 h 8 c 1.104569,0 2,-0.895431 2,-2 v -8 c 0,-1.104569 -0.895431,-2 -2,-2 z m 3,5 h 2 v 0 h 3 v 2 h -3 v 0 h -2 v 0 h -3 v -2 z"
     sodipodi:nodetypes="sssssssssssssssssssssssssssssssccccccccccccc" />
</svg>
