<?xml version="1.0" encoding="UTF-8" standalone="no"?>
<svg
   xmlns:dc="http://purl.org/dc/elements/1.1/"
   xmlns:cc="http://creativecommons.org/ns#"
   xmlns:rdf="http://www.w3.org/1999/02/22-rdf-syntax-ns#"
   xmlns:svg="http://www.w3.org/2000/svg"
   xmlns="http://www.w3.org/2000/svg"
   xmlns:sodipodi="http://sodipodi.sourceforge.net/DTD/sodipodi-0.dtd"
   xmlns:inkscape="http://www.inkscape.org/namespaces/inkscape"
   height="24"
   viewBox="0 0 24 24"
   width="24"
   version="1.1"
   id="svg34"
   sodipodi:docname="audio-volume-muted-symbolic.svg"
   inkscape:version="1.0.1 (3bc2e813f5, 2020-09-07)">
  <metadata
     id="metadata40">
    <rdf:RDF>
      <cc:Work
         rdf:about="">
        <dc:format>image/svg+xml</dc:format>
        <dc:type
           rdf:resource="http://purl.org/dc/dcmitype/StillImage" />
      </cc:Work>
    </rdf:RDF>
  </metadata>
  <defs
     id="defs38" />
  <sodipodi:namedview
     pagecolor="#ffffff"
     bordercolor="#666666"
     borderopacity="1"
     objecttolerance="10"
     gridtolerance="10"
     guidetolerance="10"
     inkscape:pageopacity="0"
     inkscape:pageshadow="2"
     inkscape:window-width="1908"
     inkscape:window-height="1032"
     id="namedview36"
     showgrid="false"
     inkscape:zoom="39.833333"
     inkscape:cx="12.050209"
     inkscape:cy="12"
     inkscape:window-x="3848"
     inkscape:window-y="1084"
     inkscape:window-maximized="0"
     inkscape:current-layer="svg34" />
  <path
     d="m 3.63,3.63 c -0.39,0.39 -0.39,1.02 0,1.41 L 7.29,8.7 7,9 H 4 C 3.45,9 3,9.45 3,10 v 4 c 0,0.55 0.45,1 1,1 h 3 l 3.29,3.29 C 10.92,18.92 12,18.47 12,17.58 v -4.17 l 4.18,4.18 c -0.49,0.37 -1.02,0.68 -1.6,0.91 -0.36,0.15 -0.58,0.53 -0.58,0.92 0,0.72 0.73,1.18 1.39,0.91 0.8,-0.33 1.55,-0.77 2.22,-1.31 l 1.34,1.34 c 0.39,0.39 1.02,0.39 1.41,0 0.39,-0.39 0.39,-1.02 0,-1.41 L 5.05,3.63 C 4.66,3.24 4.03,3.24 3.63,3.63 Z M 19,12 c 0,0.82 -0.15,1.61 -0.41,2.34 l 1.53,1.53 C 20.68,14.7 21,13.39 21,12 21,8.17 18.6,4.89 15.22,3.6 14.63,3.37 14,3.83 14,4.46 V 4.65 C 14,5.03 14.25,5.36 14.61,5.5 17.18,6.54 19,9.06 19,12 Z M 10.29,5.71 10.12,5.88 12,7.76 V 6.41 C 12,5.52 10.92,5.08 10.29,5.71 Z M 16.5,12 C 16.5,10.23 15.48,8.71 14,7.97 v 1.79 l 2.48,2.48 C 16.49,12.16 16.5,12.08 16.5,12 Z"
     id="path32" />
</svg>
