<?xml version="1.0" encoding="UTF-8" standalone="no"?>
<svg
   xmlns:dc="http://purl.org/dc/elements/1.1/"
   xmlns:cc="http://creativecommons.org/ns#"
   xmlns:rdf="http://www.w3.org/1999/02/22-rdf-syntax-ns#"
   xmlns:svg="http://www.w3.org/2000/svg"
   xmlns="http://www.w3.org/2000/svg"
   xmlns:sodipodi="http://sodipodi.sourceforge.net/DTD/sodipodi-0.dtd"
   xmlns:inkscape="http://www.inkscape.org/namespaces/inkscape"
   height="24"
   viewBox="0 0 24 24"
   width="24"
   version="1.1"
   id="svg4"
   sodipodi:docname="fill-rule-nonzero-symbolic.svg"
   inkscape:version="1.0.1 (3bc2e813f5, 2020-09-07)">
  <metadata
     id="metadata10">
    <rdf:RDF>
      <cc:Work
         rdf:about="">
        <dc:format>image/svg+xml</dc:format>
        <dc:type
           rdf:resource="http://purl.org/dc/dcmitype/StillImage" />
      </cc:Work>
    </rdf:RDF>
  </metadata>
  <defs
     id="defs8" />
  <sodipodi:namedview
     pagecolor="#ffffff"
     bordercolor="#666666"
     borderopacity="1"
     objecttolerance="10"
     gridtolerance="10"
     guidetolerance="10"
     inkscape:pageopacity="0"
     inkscape:pageshadow="2"
     inkscape:window-width="948"
     inkscape:window-height="1005"
     id="namedview6"
     showgrid="false"
     inkscape:zoom="31"
     inkscape:cx="12.064516"
     inkscape:cy="12"
     inkscape:window-x="56"
     inkscape:window-y="50"
     inkscape:window-maximized="0"
     inkscape:current-layer="svg4" />
  <path
     d="M6.34 7.93c-3.12 3.12-3.12 8.19 0 11.31C7.9 20.8 9.95 21.58 12 21.58s4.1-.78 5.66-2.34c3.12-3.12 3.12-8.19 0-11.31l-4.95-4.95c-.39-.39-1.02-.39-1.41 0L6.34 7.93zM12 19.59c-1.6 0-3.11-.62-4.24-1.76C6.62 16.69 6 15.19 6 13.59s.62-3.11 1.76-4.24L12 5.1v14.49z"
     id="path2" />
  <path
     d="M 17.66,7.9300005 C 20.78,11.05 20.78,16.12 17.66,19.24 16.1,20.8 14.05,21.58 12,21.58 c -2.0500005,0 -4.1000005,-0.78 -5.6600005,-2.34 -3.12,-3.12 -3.12,-8.19 0,-11.3099995 L 11.29,2.9800004 c 0.39,-0.3899999 1.02,-0.3899999 1.41,0 z M 12,19.59 c 1.6,0 3.11,-0.62 4.24,-1.76 1.14,-1.14 1.76,-2.64 1.76,-4.239999 0,-1.6 -0.62,-3.11 -1.76,-4.2400005 l -4.24,-4.25 z"
     id="path2-3" />
</svg>
