<?xml version="1.0" encoding="UTF-8" standalone="no"?>
<svg
   xmlns:dc="http://purl.org/dc/elements/1.1/"
   xmlns:cc="http://creativecommons.org/ns#"
   xmlns:rdf="http://www.w3.org/1999/02/22-rdf-syntax-ns#"
   xmlns:svg="http://www.w3.org/2000/svg"
   xmlns="http://www.w3.org/2000/svg"
   xmlns:sodipodi="http://sodipodi.sourceforge.net/DTD/sodipodi-0.dtd"
   xmlns:inkscape="http://www.inkscape.org/namespaces/inkscape"
   height="24"
   viewBox="0 0 24 24"
   width="24"
   version="1.1"
   id="svg4"
   sodipodi:docname="format-indent-more-rtl-symbolic.svg"
   inkscape:version="1.0.1 (3bc2e813f5, 2020-09-07)">
  <metadata
     id="metadata10">
    <rdf:RDF>
      <cc:Work
         rdf:about="">
        <dc:format>image/svg+xml</dc:format>
        <dc:type
           rdf:resource="http://purl.org/dc/dcmitype/StillImage" />
      </cc:Work>
    </rdf:RDF>
  </metadata>
  <defs
     id="defs8" />
  <sodipodi:namedview
     pagecolor="#ffffff"
     bordercolor="#666666"
     borderopacity="1"
     objecttolerance="10"
     gridtolerance="10"
     guidetolerance="10"
     inkscape:pageopacity="0"
     inkscape:pageshadow="2"
     inkscape:window-width="948"
     inkscape:window-height="482"
     id="namedview6"
     showgrid="false"
     inkscape:zoom="31"
     inkscape:cx="12"
     inkscape:cy="12"
     inkscape:window-x="56"
     inkscape:window-y="50"
     inkscape:window-maximized="0"
     inkscape:current-layer="svg4" />
  <path
     d="M 20,21 H 4 C 3.45,21 3,20.55 3,20 3,19.45 3.45,19 4,19 h 16 c 0.55,0 1,0.45 1,1 0,0.55 -0.45,1 -1,1 z M 21,9.21 v 5.59 c 0,0.45 -0.54,0.67 -0.85,0.35 l -2.79,-2.79 c -0.2,-0.2 -0.2,-0.51 0,-0.71 l 2.79,-2.8 C 20.46,8.54 21,8.76 21,9.21 Z M 12,17 H 4 C 3.45,17 3,16.55 3,16 3,15.45 3.45,15 4,15 h 8 c 0.55,0 1,0.45 1,1 0,0.55 -0.45,1 -1,1 z M 21,4 c 0,0.55 -0.45,1 -1,1 H 4 C 3.45,5 3,4.55 3,4 3,3.45 3.45,3 4,3 h 16 c 0.55,0 1,0.45 1,1 z M 12,9 H 4 C 3.45,9 3,8.55 3,8 3,7.45 3.45,7 4,7 h 8 c 0.55,0 1,0.45 1,1 0,0.55 -0.45,1 -1,1 z m 0,4 H 4 C 3.45,13 3,12.55 3,12 3,11.45 3.45,11 4,11 h 8 c 0.55,0 1,0.45 1,1 0,0.55 -0.45,1 -1,1 z"
     id="path2" />
</svg>
