<?xml version="1.0" encoding="UTF-8" standalone="no"?>
<svg
   xmlns:dc="http://purl.org/dc/elements/1.1/"
   xmlns:cc="http://creativecommons.org/ns#"
   xmlns:rdf="http://www.w3.org/1999/02/22-rdf-syntax-ns#"
   xmlns:svg="http://www.w3.org/2000/svg"
   xmlns="http://www.w3.org/2000/svg"
   xmlns:sodipodi="http://sodipodi.sourceforge.net/DTD/sodipodi-0.dtd"
   xmlns:inkscape="http://www.inkscape.org/namespaces/inkscape"
   version="1.1"
   id="mdi-vector-curve"
   width="24"
   height="24"
   viewBox="0 0 24 24"
   sodipodi:docname="node-type-smooth-symbolic.svg"
   inkscape:version="1.0.1 (3bc2e813f5, 2020-09-07)">
  <metadata
     id="metadata9">
    <rdf:RDF>
      <cc:Work
         rdf:about="">
        <dc:format>image/svg+xml</dc:format>
        <dc:type
           rdf:resource="http://purl.org/dc/dcmitype/StillImage" />
      </cc:Work>
    </rdf:RDF>
  </metadata>
  <defs
     id="defs7" />
  <sodipodi:namedview
     pagecolor="#ffffff"
     bordercolor="#666666"
     borderopacity="1"
     objecttolerance="10"
     gridtolerance="10"
     guidetolerance="10"
     inkscape:pageopacity="0"
     inkscape:pageshadow="2"
     inkscape:window-width="1908"
     inkscape:window-height="1022"
     id="namedview5"
     showgrid="false"
     inkscape:zoom="39.833333"
     inkscape:cx="12.050209"
     inkscape:cy="12"
     inkscape:window-x="8"
     inkscape:window-y="1097"
     inkscape:window-maximized="0"
     inkscape:current-layer="mdi-vector-curve" />
  <path
     d="M 6.5,2 A -1.5,1.5 0 0 0 5,3.5 -1.5,1.5 0 0 0 6.5,5 C 6.73,5 6.95,4.95 7.15,4.85 L 10.84,8.55 10.5,9 C 8.31,7.74 5.74,7 3,7 L 2,7.03 V 9.04 L 3,9 c 2.58,0 5,0.75 7,2.04 A -3.96,3.96 0 0 0 13.96,15 c 1.29,2 2.04,4.42 2.04,7 l -0.04,1 h 2.01 L 18,22 c 0,-2.74 -0.74,-5.31 -2,-7.5 l 0.45,-0.34 3.7,3.69 C 20.05,18.05 20,18.27 20,18.5 A -1.5,1.5 0 0 0 21.5,20 -1.5,1.5 0 0 0 23,18.5 -1.5,1.5 0 0 0 21.5,17 c -0.23,0 -0.45,0.05 -0.65,0.15 l -3.69,-3.7 C 17.69,12.78 18,11.92 18,11 A -4,4 0 0 0 14,7 C 13.08,7 12.22,7.31 11.55,7.84 L 7.85,4.15 C 7.95,3.95 8,3.73 8,3.5 A -1.5,1.5 0 0 0 6.5,2 M 14,9 a -2,2 0 0 1 2,2 -2,2 0 0 1 -2,2 -2,2 0 0 1 -2,-2 -2,2 0 0 1 2,-2 z"
     id="path2" />
</svg>
