<?xml version="1.0" encoding="UTF-8" standalone="no"?>
<svg
   xmlns:dc="http://purl.org/dc/elements/1.1/"
   xmlns:cc="http://creativecommons.org/ns#"
   xmlns:rdf="http://www.w3.org/1999/02/22-rdf-syntax-ns#"
   xmlns:svg="http://www.w3.org/2000/svg"
   xmlns="http://www.w3.org/2000/svg"
   xmlns:sodipodi="http://sodipodi.sourceforge.net/DTD/sodipodi-0.dtd"
   xmlns:inkscape="http://www.inkscape.org/namespaces/inkscape"
   enable-background="new 0 0 24 24"
   height="24"
   viewBox="0 0 24 24"
   width="24"
   version="1.1"
   id="svg4"
   sodipodi:docname="office-chart-line-stacked.svg"
   inkscape:version="1.0.2 (e86c870879, 2021-01-15)">
  <metadata
     id="metadata10">
    <rdf:RDF>
      <cc:Work
         rdf:about="">
        <dc:format>image/svg+xml</dc:format>
        <dc:type
           rdf:resource="http://purl.org/dc/dcmitype/StillImage" />
      </cc:Work>
    </rdf:RDF>
  </metadata>
  <defs
     id="defs8" />
  <sodipodi:namedview
     pagecolor="#ffffff"
     bordercolor="#666666"
     borderopacity="1"
     objecttolerance="10"
     gridtolerance="10"
     guidetolerance="10"
     inkscape:pageopacity="0"
     inkscape:pageshadow="2"
     inkscape:window-width="1908"
     inkscape:window-height="2107"
     id="namedview6"
     showgrid="false"
     inkscape:zoom="42"
     inkscape:cx="12"
     inkscape:cy="12"
     inkscape:window-x="1924"
     inkscape:window-y="33"
     inkscape:window-maximized="0"
     inkscape:current-layer="svg4" />
  <path
     d="M 2.79,14.78 2.7,14.69 C 2.31,14.3 2.31,13.67 2.7,13.28 l 6.09,-6.1 c 0.39,-0.39 1.02,-0.39 1.41,0 l 3.29,3.29 6.39,-7.18 c 0.38,-0.43 1.05,-0.44 1.45,-0.04 v 0 c 0.37,0.38 0.39,0.98 0.04,1.37 l -7.17,8.07 c -0.38,0.43 -1.04,0.45 -1.45,0.04 L 9.5,9.48 4.2,14.78 c -0.38,0.39 -1.02,0.39 -1.41,0 z m 3.41,4 3.3,-3.3 3.25,3.25 c 0.41,0.41 1.07,0.39 1.45,-0.04 l 7.17,-8.07 C 21.72,10.23 21.7,9.63 21.33,9.25 v 0 c -0.4,-0.4 -1.07,-0.39 -1.45,0.04 l -6.39,7.18 -3.29,-3.29 c -0.39,-0.39 -1.02,-0.39 -1.41,0 l -6.09,6.1 c -0.39,0.39 -0.39,1.02 0,1.41 l 0.09,0.09 c 0.39,0.39 3.03,-1.61 3.41,-2 z"
     id="path2"
     sodipodi:nodetypes="ssccsccssccsccsccsccssccsccssc" />
  <path
     d="M 5.4599999,19 H 22 v 2 H 1.9999999 V 3.0000002 h 2 V 18.522602 c 0.2736799,0.009 0.9544618,0.805323 1.46,0.477398 z"
     id="path2-3"
     sodipodi:nodetypes="cccccccc" />
</svg>
