<?xml version="1.0" encoding="UTF-8" standalone="no"?>
<svg
   xmlns:dc="http://purl.org/dc/elements/1.1/"
   xmlns:cc="http://creativecommons.org/ns#"
   xmlns:rdf="http://www.w3.org/1999/02/22-rdf-syntax-ns#"
   xmlns:svg="http://www.w3.org/2000/svg"
   xmlns="http://www.w3.org/2000/svg"
   xmlns:sodipodi="http://sodipodi.sourceforge.net/DTD/sodipodi-0.dtd"
   xmlns:inkscape="http://www.inkscape.org/namespaces/inkscape"
   version="1.1"
   id="mdi-music-box-multiple"
   width="24"
   height="24"
   viewBox="0 0 24 24"
   sodipodi:docname="playlist-automatic.svg"
   inkscape:version="1.0.2 (e86c870879, 2021-01-15)">
  <metadata
     id="metadata9">
    <rdf:RDF>
      <cc:Work
         rdf:about="">
        <dc:format>image/svg+xml</dc:format>
        <dc:type
           rdf:resource="http://purl.org/dc/dcmitype/StillImage" />
      </cc:Work>
    </rdf:RDF>
  </metadata>
  <defs
     id="defs7" />
  <sodipodi:namedview
     pagecolor="#ffffff"
     bordercolor="#666666"
     borderopacity="1"
     objecttolerance="10"
     gridtolerance="10"
     guidetolerance="10"
     inkscape:pageopacity="0"
     inkscape:pageshadow="2"
     inkscape:window-width="1844"
     inkscape:window-height="1031"
     id="namedview5"
     showgrid="false"
     inkscape:zoom="42"
     inkscape:cx="12"
     inkscape:cy="11.047619"
     inkscape:window-x="8"
     inkscape:window-y="1109"
     inkscape:window-maximized="0"
     inkscape:current-layer="mdi-music-box-multiple" />
  <path
     d="M 4,18 H 2 V 4 C 2,2.8954305 2.906532,1.8437903 4,2 H 18 V 4 H 4 m 14,7 h -3 v 5.5 C 15,17.880712 13.880712,19 12.5,19 11.119288,19 10,17.880712 10,16.5 10,15.119288 11.119288,14 12.5,14 c 0.57,0 1.08,0.19 1.5,0.5 V 9 h 4 M 20,6 H 8 C 6.8954305,6 6,6.8954305 6,8 v 12 c 0,1.104569 0.8954305,2 2,2 h 12 c 1.104569,0 2,-0.895431 2,-2 V 8 C 22,6.8954305 21.104569,6 20,6 Z"
     id="path2"
     sodipodi:nodetypes="ccsscccccsssscccsssssssss" />
</svg>
