<?xml version="1.0" encoding="UTF-8" standalone="no"?>
<svg
   height="24"
   viewBox="0 0 24 24"
   width="24"
   version="1.1"
   id="svg4"
   sodipodi:docname="selection-opaque.svg"
   inkscape:version="1.1 (c68e22c387, 2021-05-23)"
   xmlns:inkscape="http://www.inkscape.org/namespaces/inkscape"
   xmlns:sodipodi="http://sodipodi.sourceforge.net/DTD/sodipodi-0.dtd"
   xmlns="http://www.w3.org/2000/svg"
   xmlns:svg="http://www.w3.org/2000/svg"
   xmlns:rdf="http://www.w3.org/1999/02/22-rdf-syntax-ns#"
   xmlns:cc="http://creativecommons.org/ns#"
   xmlns:dc="http://purl.org/dc/elements/1.1/">
  <metadata
     id="metadata10">
    <rdf:RDF>
      <cc:Work
         rdf:about="">
        <dc:format>image/svg+xml</dc:format>
        <dc:type
           rdf:resource="http://purl.org/dc/dcmitype/StillImage" />
      </cc:Work>
    </rdf:RDF>
  </metadata>
  <defs
     id="defs8" />
  <sodipodi:namedview
     pagecolor="#ffffff"
     bordercolor="#666666"
     borderopacity="1"
     objecttolerance="10"
     gridtolerance="10"
     guidetolerance="10"
     inkscape:pageopacity="0"
     inkscape:pageshadow="2"
     inkscape:window-width="3824"
     inkscape:window-height="2107"
     id="namedview6"
     showgrid="false"
     inkscape:zoom="39.833333"
     inkscape:cx="12.050209"
     inkscape:cy="11.987448"
     inkscape:window-x="8"
     inkscape:window-y="8"
     inkscape:window-maximized="0"
     inkscape:current-layer="svg4"
     inkscape:pagecheckerboard="0" />
  <path
     id="path2"
     d="M 5 3 C 3.9 3 3 3.9 3 5 L 5 5 L 5 3 z M 7 3 L 7 5 L 9 5 L 9 3 L 7 3 z M 11 3 L 11 5 L 13 5 L 13 3 L 11 3 z M 15 3 L 15 5 L 15 7 L 8 7 C 7.45 7 7 7.45 7 8 L 7 16 C 7 16.55 7.45 17 8 17 L 16 17 C 16.55 17 17 16.55 17 16 L 17 9 L 19 9 L 21 9 L 21 5 C 21 3.9 20.1 3 19 3 L 15 3 z M 3 7 L 3 9 L 5 9 L 5 7 L 3 7 z M 3 11 L 3 13 L 5 13 L 5 11 L 3 11 z M 19 11 L 19 13 L 21 13 L 21 11 L 19 11 z M 3 15 L 3 17 L 5 17 L 5 15 L 3 15 z M 19 15 L 19 17 L 21 17 L 21 15 L 19 15 z M 3 19 C 3 20.1 3.9 21 5 21 L 5 19 L 3 19 z M 7 19 L 7 21 L 9 21 L 9 19 L 7 19 z M 11 19 L 11 21 L 13 21 L 13 19 L 11 19 z M 15 19 L 15 21 L 17 21 L 17 19 L 15 19 z M 19 19 L 19 21 C 20.1 21 21 20.1 21 19 L 19 19 z " />
</svg>
