<?xml version="1.0" encoding="UTF-8" standalone="no"?>
<svg
   xmlns:dc="http://purl.org/dc/elements/1.1/"
   xmlns:cc="http://creativecommons.org/ns#"
   xmlns:rdf="http://www.w3.org/1999/02/22-rdf-syntax-ns#"
   xmlns:svg="http://www.w3.org/2000/svg"
   xmlns="http://www.w3.org/2000/svg"
   xmlns:sodipodi="http://sodipodi.sourceforge.net/DTD/sodipodi-0.dtd"
   xmlns:inkscape="http://www.inkscape.org/namespaces/inkscape"
   enable-background="new 0 0 24 24"
   height="24"
   viewBox="0 0 24 24"
   width="24"
   version="1.1"
   id="svg6"
   sodipodi:docname="view_sidebar-24px.svg"
   inkscape:version="1.0.1 (3bc2e813f5, 2020-09-07)">
  <metadata
     id="metadata12">
    <rdf:RDF>
      <cc:Work
         rdf:about="">
        <dc:format>image/svg+xml</dc:format>
        <dc:type
           rdf:resource="http://purl.org/dc/dcmitype/StillImage" />
      </cc:Work>
    </rdf:RDF>
  </metadata>
  <defs
     id="defs10" />
  <sodipodi:namedview
     pagecolor="#ffffff"
     bordercolor="#666666"
     borderopacity="1"
     objecttolerance="10"
     gridtolerance="10"
     guidetolerance="10"
     inkscape:pageopacity="0"
     inkscape:pageshadow="2"
     inkscape:window-width="948"
     inkscape:window-height="478"
     id="namedview8"
     showgrid="false"
     inkscape:zoom="35.666667"
     inkscape:cx="12"
     inkscape:cy="12"
     inkscape:window-x="8"
     inkscape:window-y="558"
     inkscape:window-maximized="0"
     inkscape:current-layer="svg6" />
  <g
     id="g4"
     transform="matrix(-1,0,0,1,24,0)">
    <path
       d="M 15,20 H 3 C 2.45,20 2,19.55 2,19 V 5 C 2,4.45 2.45,4 3,4 h 12 c 0.55,0 1,0.45 1,1 v 14 c 0,0.55 -0.45,1 -1,1 z M 19,8 h 2 c 0.55,0 1,-0.45 1,-1 V 5 C 22,4.45 21.55,4 21,4 h -2 c -0.55,0 -1,0.45 -1,1 v 2 c 0,0.55 0.45,1 1,1 z m 0,12 h 2 c 0.55,0 1,-0.45 1,-1 v -2 c 0,-0.55 -0.45,-1 -1,-1 h -2 c -0.55,0 -1,0.45 -1,1 v 2 c 0,0.55 0.45,1 1,1 z m 0,-6 h 2 c 0.55,0 1,-0.45 1,-1 v -2 c 0,-0.55 -0.45,-1 -1,-1 h -2 c -0.55,0 -1,0.45 -1,1 v 2 c 0,0.55 0.45,1 1,1 z"
       id="path2" />
  </g>
</svg>
