<?xml version="1.0" encoding="UTF-8" standalone="no"?>
<svg
   xmlns:dc="http://purl.org/dc/elements/1.1/"
   xmlns:cc="http://creativecommons.org/ns#"
   xmlns:rdf="http://www.w3.org/1999/02/22-rdf-syntax-ns#"
   xmlns:svg="http://www.w3.org/2000/svg"
   xmlns="http://www.w3.org/2000/svg"
   xmlns:sodipodi="http://sodipodi.sourceforge.net/DTD/sodipodi-0.dtd"
   xmlns:inkscape="http://www.inkscape.org/namespaces/inkscape"
   version="1.1"
   id="mdi-vector-difference-ab"
   width="24"
   height="24"
   viewBox="0 0 24 24"
   sodipodi:docname="spray-mode-copy-symbolic.svg"
   inkscape:version="1.0.1 (3bc2e813f5, 2020-09-07)">
  <metadata
     id="metadata9">
    <rdf:RDF>
      <cc:Work
         rdf:about="">
        <dc:format>image/svg+xml</dc:format>
        <dc:type
           rdf:resource="http://purl.org/dc/dcmitype/StillImage" />
      </cc:Work>
    </rdf:RDF>
  </metadata>
  <defs
     id="defs7" />
  <sodipodi:namedview
     pagecolor="#ffffff"
     bordercolor="#666666"
     borderopacity="1"
     objecttolerance="10"
     gridtolerance="10"
     guidetolerance="10"
     inkscape:pageopacity="0"
     inkscape:pageshadow="2"
     inkscape:window-width="1908"
     inkscape:window-height="1022"
     id="namedview5"
     showgrid="false"
     inkscape:zoom="39.833333"
     inkscape:cx="12.050209"
     inkscape:cy="8.9822056"
     inkscape:window-x="8"
     inkscape:window-y="35"
     inkscape:window-maximized="0"
     inkscape:current-layer="mdi-vector-difference-ab" />
  <path
     d="M 3,1 C 1.89,1 1,1.89 1,3 V 5 H 3 V 3 H 5 V 1 H 3 m 4,0 v 2 h 3 V 1 H 7 m 5,0 v 2 h 2 v 2 h 2 V 3 C 16,1.89 15.11,1 14,1 H 12 M 1,7 v 3 H 3 V 7 H 1 m 0,5 v 2 c 0,1.11 0.89,2 2,2 H 5 V 14 H 3 v -2 z"
     id="path2"
     sodipodi:nodetypes="csccccccccccccccccsscccccccssccccc" />
  <path
     d="m 20,22 c 1.11,0 2,-0.89 2,-2 V 9.0000004 C 22,7.8900004 21.11,7 20,7 H 9 C 7.89,7 7,7.8900004 7,9.0000004 V 20 c 0,1.11 0.89,2 2,2 h 11 m 0,-2 H 9 V 9.0000004 H 20 V 20"
     id="path2-3"
     sodipodi:nodetypes="cssssssscccccc" />
</svg>
