<?xml version="1.0" encoding="UTF-8" standalone="no"?>
<svg
   version="1.1"
   id="mdi-source-branch"
   width="24"
   height="24"
   viewBox="0 0 24 24"
   sodipodi:docname="vcs-commit.svg"
   inkscape:version="1.1 (c68e22c387, 2021-05-23)"
   xmlns:inkscape="http://www.inkscape.org/namespaces/inkscape"
   xmlns:sodipodi="http://sodipodi.sourceforge.net/DTD/sodipodi-0.dtd"
   xmlns="http://www.w3.org/2000/svg"
   xmlns:svg="http://www.w3.org/2000/svg">
  <defs
     id="defs7" />
  <sodipodi:namedview
     id="namedview5"
     pagecolor="#ffffff"
     bordercolor="#666666"
     borderopacity="1.0"
     inkscape:pageshadow="2"
     inkscape:pageopacity="0.0"
     inkscape:pagecheckerboard="0"
     showgrid="false"
     inkscape:zoom="13.270231"
     inkscape:cx="-11.906349"
     inkscape:cy="12.697594"
     inkscape:window-width="1595"
     inkscape:window-height="991"
     inkscape:window-x="26"
     inkscape:window-y="23"
     inkscape:window-maximized="0"
     inkscape:current-layer="mdi-source-branch" />
  <path
     id="path2-3"
     d="M 12 2 A 1 1 0 0 0 11 3 L 11 9.171875 C 9.8351206 9.5838805 9 10.694005 9 12 C 9 13.305995 9.8351206 14.416119 11 14.828125 L 11 21 A 1 1 0 0 0 12 22 A 1 1 0 0 0 13 21 L 13 14.828125 C 14.164879 14.416119 15 13.305995 15 12 C 15 10.694005 14.164879 9.5838805 13 9.171875 L 13 3 A 1 1 0 0 0 12 2 z M 12 11 C 12.552285 11 13 11.447715 13 12 C 13 12.552285 12.552285 13 12 13 C 11.447715 13 11 12.552285 11 12 C 11 11.447715 11.447715 11 12 11 z " />
</svg>
