<?xml version="1.0" encoding="UTF-8" standalone="no"?>
<svg
   xmlns:dc="http://purl.org/dc/elements/1.1/"
   xmlns:cc="http://creativecommons.org/ns#"
   xmlns:rdf="http://www.w3.org/1999/02/22-rdf-syntax-ns#"
   xmlns:svg="http://www.w3.org/2000/svg"
   xmlns="http://www.w3.org/2000/svg"
   xmlns:sodipodi="http://sodipodi.sourceforge.net/DTD/sodipodi-0.dtd"
   xmlns:inkscape="http://www.inkscape.org/namespaces/inkscape"
   enable-background="new 0 0 24 24"
   height="24"
   viewBox="0 0 24 24"
   width="24"
   version="1.1"
   id="svg4"
   sodipodi:docname="align-horizontal-bottom-out (another copy).svg"
   inkscape:version="1.0.2 (e86c870879, 2021-01-15)">
  <metadata
     id="metadata10">
    <rdf:RDF>
      <cc:Work
         rdf:about="">
        <dc:format>image/svg+xml</dc:format>
        <dc:type
           rdf:resource="http://purl.org/dc/dcmitype/StillImage" />
      </cc:Work>
    </rdf:RDF>
  </metadata>
  <defs
     id="defs8" />
  <sodipodi:namedview
     pagecolor="#ffffff"
     bordercolor="#666666"
     borderopacity="1"
     objecttolerance="10"
     gridtolerance="10"
     guidetolerance="10"
     inkscape:pageopacity="0"
     inkscape:pageshadow="2"
     inkscape:window-width="3824"
     inkscape:window-height="2107"
     id="namedview6"
     showgrid="false"
     inkscape:zoom="42"
     inkscape:cx="5.5238095"
     inkscape:cy="12"
     inkscape:window-x="8"
     inkscape:window-y="33"
     inkscape:window-maximized="0"
     inkscape:current-layer="svg4"
     inkscape:document-rotation="0" />
  <path fill="#afafaf"
     id="path2"
     d="M 8.5,22 C 7.67,22 7,21.33 7,20.5 v -7 -2 C 7,10.67 7.6699999,10 8.5,10 9.33,10 10,10.67 10,11.5 v 7 2 C 10,21.33 9.33,22 8.5,22 Z m 7,-6 C 14.67,16 14,15.33 14,14.5 V 10.5 8 H 3 C 2.45,8 2,7.55 2,7 2,6.45 2.45,6 3,6 H 14 V 3.5 C 14,2.67 14.67,2 15.5,2 16.33,2 17,2.67 17,3.5 V 6 h 4 c 0.55,0 1,0.45 1,1 0,0.55 -0.45,1 -1,1 h -4 v 2.5 4 c 0,0.83 -0.67,1.5 -1.5,1.5 z" />
</svg>
