<?xml version="1.0" encoding="UTF-8" standalone="no"?>
<svg
   xmlns:dc="http://purl.org/dc/elements/1.1/"
   xmlns:cc="http://creativecommons.org/ns#"
   xmlns:rdf="http://www.w3.org/1999/02/22-rdf-syntax-ns#"
   xmlns:svg="http://www.w3.org/2000/svg"
   xmlns="http://www.w3.org/2000/svg"
   xmlns:sodipodi="http://sodipodi.sourceforge.net/DTD/sodipodi-0.dtd"
   xmlns:inkscape="http://www.inkscape.org/namespaces/inkscape"
   version="1.1"
   id="mdi-rounded-corner"
   width="24"
   height="24"
   viewBox="0 0 24 24"
   sodipodi:docname="boundingbox_top_right-symbolic (copy).svg"
   inkscape:version="1.0.1 (3bc2e813f5, 2020-09-07)">
  <metadata
     id="metadata9">
    <rdf:RDF>
      <cc:Work
         rdf:about="">
        <dc:format>image/svg+xml</dc:format>
        <dc:type
           rdf:resource="http://purl.org/dc/dcmitype/StillImage" />
      </cc:Work>
    </rdf:RDF>
  </metadata>
  <defs
     id="defs7" />
  <sodipodi:namedview
     pagecolor="#ffffff"
     bordercolor="#666666"
     borderopacity="1"
     objecttolerance="10"
     gridtolerance="10"
     guidetolerance="10"
     inkscape:pageopacity="0"
     inkscape:pageshadow="2"
     inkscape:window-width="837"
     inkscape:window-height="482"
     id="namedview5"
     showgrid="false"
     inkscape:zoom="31"
     inkscape:cx="12"
     inkscape:cy="12"
     inkscape:window-x="56"
     inkscape:window-y="50"
     inkscape:window-maximized="0"
     inkscape:current-layer="mdi-rounded-corner" />
  <path fill="#afafaf"
     d="m 19,5 h 2 V 3 h -2 v 2 m 0,2 h 2 V 9 H 19 V 7 M 3,11 h 2 v 2 H 3 V 11 M 3,7 H 5 V 9 H 3 V 7 m 0,8 h 2 v 2 H 3 v -2 m 0,4 h 2 v 2 H 3 v -2 m 4,0 h 1.9999999 v 2 H 7 V 19 M 15,3 h 2 V 5 H 15 V 3 m -4,0 h 2 V 5 H 11 V 3 m 4,0 h 2 V 5 H 15 V 3 M 7,3 H 8.9999999 V 5 H 7 V 3 M 3,3 H 5 V 5 H 3 V 3 m 18,13 a 5,-5 0 0 1 -5,5 h -5 v -2 h 5 a 3.0000001,-3 0 0 0 3,-3 v -5 h 2 z"
     id="path2"
     style="stroke-width:0.999999" />
</svg>
