<?xml version="1.0" encoding="UTF-8" standalone="no"?>
<svg
   xmlns:dc="http://purl.org/dc/elements/1.1/"
   xmlns:cc="http://creativecommons.org/ns#"
   xmlns:rdf="http://www.w3.org/1999/02/22-rdf-syntax-ns#"
   xmlns:svg="http://www.w3.org/2000/svg"
   xmlns="http://www.w3.org/2000/svg"
   xmlns:sodipodi="http://sodipodi.sourceforge.net/DTD/sodipodi-0.dtd"
   xmlns:inkscape="http://www.inkscape.org/namespaces/inkscape"
   enable-background="new 0 0 24 24"
   height="24"
   viewBox="0 0 24 24"
   width="24"
   version="1.1"
   id="svg6"
   sodipodi:docname="rule_folder.svg"
   inkscape:version="1.0.2 (e86c870879, 2021-01-15)">
  <metadata
     id="metadata12">
    <rdf:RDF>
      <cc:Work
         rdf:about="">
        <dc:format>image/svg+xml</dc:format>
        <dc:type
           rdf:resource="http://purl.org/dc/dcmitype/StillImage" />
      </cc:Work>
    </rdf:RDF>
  </metadata>
  <defs
     id="defs10" />
  <sodipodi:namedview
     pagecolor="#ffffff"
     bordercolor="#666666"
     borderopacity="1"
     objecttolerance="10"
     gridtolerance="10"
     guidetolerance="10"
     inkscape:pageopacity="0"
     inkscape:pageshadow="2"
     inkscape:window-width="1904"
     inkscape:window-height="1000"
     id="namedview8"
     showgrid="false"
     inkscape:zoom="33.958333"
     inkscape:cx="12"
     inkscape:cy="12"
     inkscape:window-x="26"
     inkscape:window-y="23"
     inkscape:window-maximized="0"
     inkscape:current-layer="svg6" />
  <g
     id="g4">
    <path fill="#afafaf"
       d="M 20,6 H 12 L 10.59,4.59 C 10.21,4.21 9.7,4 9.17,4 H 4 C 2.9,4 2.01,4.9 2.01,6 L 2,18 c 0,1.1 0.9,2 2,2 h 16 c 1.1,0 2,-0.9 2,-2 V 8 C 22,6.9 21.1,6 20,6 Z m -2.59,7 0.88,0.88 c 0.39,0.39 0.39,1.02 0,1.41 v 0 c -0.39,0.39 -1.02,0.39 -1.41,0 L 16,14.41 15.12,15.29 c -0.39,0.39 -1.02,0.39 -1.41,0 v 0 c -0.39,-0.39 -0.39,-1.02 0,-1.41 L 14.59,13 13.71,12.12 c -0.39,-0.39 -0.39,-1.02 0,-1.41 v 0 c 0.39,-0.39 1.02,-0.39 1.41,0 l 0.88,0.88 0.88,-0.88 c 0.39,-0.39 1.02,-0.39 1.41,0 v 0 c 0.39,0.39 0.39,1.02 0,1.41 z"
       id="path2"
       sodipodi:nodetypes="scsssccssssscsssscsssscsssscssssc" />
  </g>
</svg>
