<?xml version="1.0" encoding="UTF-8" standalone="no"?>
<svg
   xmlns:dc="http://purl.org/dc/elements/1.1/"
   xmlns:cc="http://creativecommons.org/ns#"
   xmlns:rdf="http://www.w3.org/1999/02/22-rdf-syntax-ns#"
   xmlns:svg="http://www.w3.org/2000/svg"
   xmlns="http://www.w3.org/2000/svg"
   xmlns:sodipodi="http://sodipodi.sourceforge.net/DTD/sodipodi-0.dtd"
   xmlns:inkscape="http://www.inkscape.org/namespaces/inkscape"
   version="1.1"
   id="mdi-select"
   width="24"
   height="24"
   viewBox="0 0 24 24"
   sodipodi:docname="edit-select-same-object-type.svg"
   inkscape:version="1.0.1 (3bc2e813f5, 2020-09-07)">
  <metadata
     id="metadata9">
    <rdf:RDF>
      <cc:Work
         rdf:about="">
        <dc:format>image/svg+xml</dc:format>
        <dc:type
           rdf:resource="http://purl.org/dc/dcmitype/StillImage" />
      </cc:Work>
    </rdf:RDF>
  </metadata>
  <defs
     id="defs7" />
  <sodipodi:namedview
     pagecolor="#ffffff"
     bordercolor="#666666"
     borderopacity="1"
     objecttolerance="10"
     gridtolerance="10"
     guidetolerance="10"
     inkscape:pageopacity="0"
     inkscape:pageshadow="2"
     inkscape:window-width="1908"
     inkscape:window-height="1022"
     id="namedview5"
     showgrid="false"
     inkscape:zoom="39.833333"
     inkscape:cx="12.050209"
     inkscape:cy="12"
     inkscape:window-x="8"
     inkscape:window-y="1097"
     inkscape:window-maximized="0"
     inkscape:current-layer="mdi-select" />
  <path fill="#afafaf"
     d="M4,3H5V5H3V4A1,1 0 0,1 4,3M20,3A1,1 0 0,1 21,4V5H19V3H20M15,5V3H17V5H15M11,5V3H13V5H11M7,5V3H9V5H7M21,20A1,1 0 0,1 20,21H19V19H21V20M15,21V19H17V21H15M11,21V19H13V21H11M7,21V19H9V21H7M4,21A1,1 0 0,1 3,20V19H5V21H4M3,15H5V17H3V15M21,15V17H19V15H21M3,11H5V13H3V11M21,11V13H19V11H21M3,7H5V9H3V7M21,7V9H19V7H21Z"
     id="path2" />
  <circle fill="#afafaf"
     style="fill:#afafaf;fill-rule:evenodd"
     id="path15"
     cx="12"
     cy="12"
     r="5" />
</svg>
