<?xml version="1.0" encoding="UTF-8" standalone="no"?>
<svg
   xmlns:dc="http://purl.org/dc/elements/1.1/"
   xmlns:cc="http://creativecommons.org/ns#"
   xmlns:rdf="http://www.w3.org/1999/02/22-rdf-syntax-ns#"
   xmlns:svg="http://www.w3.org/2000/svg"
   xmlns="http://www.w3.org/2000/svg"
   xmlns:sodipodi="http://sodipodi.sourceforge.net/DTD/sodipodi-0.dtd"
   xmlns:inkscape="http://www.inkscape.org/namespaces/inkscape"
   version="1.1"
   id="mdi-origin"
   width="24"
   height="24"
   viewBox="0 0 24 24"
   sodipodi:docname="origin.svg"
   inkscape:version="1.0.2 (e86c870879, 2021-01-15)">
  <metadata
     id="metadata9">
    <rdf:RDF>
      <cc:Work
         rdf:about="">
        <dc:format>image/svg+xml</dc:format>
        <dc:type
           rdf:resource="http://purl.org/dc/dcmitype/StillImage" />
      </cc:Work>
    </rdf:RDF>
  </metadata>
  <defs
     id="defs7" />
  <sodipodi:namedview
     pagecolor="#ffffff"
     bordercolor="#666666"
     borderopacity="1"
     objecttolerance="10"
     gridtolerance="10"
     guidetolerance="10"
     inkscape:pageopacity="0"
     inkscape:pageshadow="2"
     inkscape:window-width="813"
     inkscape:window-height="480"
     id="namedview5"
     showgrid="false"
     inkscape:zoom="12.437882"
     inkscape:cx="12"
     inkscape:cy="12"
     inkscape:window-x="26"
     inkscape:window-y="23"
     inkscape:window-maximized="0"
     inkscape:current-layer="mdi-origin" />
  <path fill="#afafaf"
     d="m 21.854984,11.984984 c -0.1,0 -0.2,-0.05 -0.28,-0.11 -0.59,-0.39 -1.23,-0.73 -1.92,-0.85 l -0.23,-0.04 0.06,1 a 7.5,7.5 0 0 1 -7.5,7.5 c -1.62,0 -3.1100001,-0.5 -4.3400001,-1.38 -2.34,-1.39 -4.31,-3.4 -5.63,-5.78 -0.03,-0.09 -0.03,-0.22 0.04,-0.28 0.1,-0.06 0.23,-0.06 0.32,0.03 0.52,0.38 1.11,0.64 1.76,0.78 l 0.41,0.06 -0.06,-0.93 A 7.5,7.5 0 0 1 11.984984,4.4849839 c 1.61,0 3.11,0.5 4.33,1.38 2.35,1.38 4.33,3.4 5.67,5.7900001 0.05,0.11 0,0.27 -0.13,0.33 m -6.87,0 a 3,3 0 0 0 -3,-3.0000001 3,3 0 0 0 -3.0000001,3.0000001 3,3 0 0 0 3.0000001,3 3,3 0 0 0 3,-3 z"
     id="path2" />
</svg>
