<?xml version="1.0" encoding="UTF-8" standalone="no"?>
<svg
   xmlns:dc="http://purl.org/dc/elements/1.1/"
   xmlns:cc="http://creativecommons.org/ns#"
   xmlns:rdf="http://www.w3.org/1999/02/22-rdf-syntax-ns#"
   xmlns:svg="http://www.w3.org/2000/svg"
   xmlns="http://www.w3.org/2000/svg"
   xmlns:sodipodi="http://sodipodi.sourceforge.net/DTD/sodipodi-0.dtd"
   xmlns:inkscape="http://www.inkscape.org/namespaces/inkscape"
   version="1.1"
   id="mdi-arrow-collapse-right"
   width="24"
   height="24"
   viewBox="0 0 24 24"
   sodipodi:docname="zoom-in-x (copy) 3.svg"
   inkscape:version="1.0.2 (e86c870879, 2021-01-15)">
  <metadata
     id="metadata9">
    <rdf:RDF>
      <cc:Work
         rdf:about="">
        <dc:format>image/svg+xml</dc:format>
        <dc:type
           rdf:resource="http://purl.org/dc/dcmitype/StillImage" />
        <dc:title />
      </cc:Work>
    </rdf:RDF>
  </metadata>
  <defs
     id="defs7" />
  <sodipodi:namedview
     pagecolor="#ffffff"
     bordercolor="#666666"
     borderopacity="1"
     objecttolerance="10"
     gridtolerance="10"
     guidetolerance="10"
     inkscape:pageopacity="0"
     inkscape:pageshadow="2"
     inkscape:window-width="1920"
     inkscape:window-height="1011"
     id="namedview5"
     showgrid="false"
     inkscape:zoom="25.00354"
     inkscape:cx="15.632387"
     inkscape:cy="13.858448"
     inkscape:window-x="0"
     inkscape:window-y="0"
     inkscape:window-maximized="1"
     inkscape:current-layer="mdi-arrow-collapse-right"
     inkscape:document-rotation="0" />
  <path fill="#afafaf"
     id="path2-3"
     d="m 22.000234,3.000234 c 0,0.55 -0.45,1 -1,1 h -18 c -0.55,0 -1,-0.45 -1,-1 0,-0.55 0.45,-1 1,-1 h 18 c 0.55,0 1,0.45 1,1 z m -2.417969,11.412109 c 0,0.255 -0.09797,0.510079 -0.292968,0.705079 l -6.589844,6.589843 c -0.39,0.390001 -1.020156,0.390001 -1.410157,0 L 4.699453,15.117422 c -0.39,-0.39 -0.39,-1.020155 0,-1.410157 0.39,-0.39 1.029922,-0.39 1.419922,0 l 4.880859,4.88086 V 7.008046 c 0,-0.549999 0.45,-1 1,-1 0.55,0 1,0.45 1,1 v 11.580079 l 4.880859,-4.88086 c 0.39,-0.39 1.018204,-0.39 1.408204,0 0.194999,0.195 0.292968,0.450078 0.292968,0.705078 z" />
</svg>
