<?xml version="1.0" encoding="UTF-8" standalone="no"?>
<svg
   xmlns:dc="http://purl.org/dc/elements/1.1/"
   xmlns:cc="http://creativecommons.org/ns#"
   xmlns:rdf="http://www.w3.org/1999/02/22-rdf-syntax-ns#"
   xmlns:svg="http://www.w3.org/2000/svg"
   xmlns="http://www.w3.org/2000/svg"
   xmlns:sodipodi="http://sodipodi.sourceforge.net/DTD/sodipodi-0.dtd"
   xmlns:inkscape="http://www.inkscape.org/namespaces/inkscape"
   height="24"
   viewBox="0 0 24 24"
   width="24"
   version="1.1"
   id="svg4"
   sodipodi:docname="off-outline-symbolic.svg"
   inkscape:version="1.0.1 (3bc2e813f5, 2020-09-07)">
  <metadata
     id="metadata10">
    <rdf:RDF>
      <cc:Work
         rdf:about="">
        <dc:format>image/svg+xml</dc:format>
        <dc:type
           rdf:resource="http://purl.org/dc/dcmitype/StillImage" />
      </cc:Work>
    </rdf:RDF>
  </metadata>
  <defs
     id="defs8" />
  <sodipodi:namedview
     pagecolor="#ffffff"
     bordercolor="#666666"
     borderopacity="1"
     objecttolerance="10"
     gridtolerance="10"
     guidetolerance="10"
     inkscape:pageopacity="0"
     inkscape:pageshadow="2"
     inkscape:window-width="1908"
     inkscape:window-height="1022"
     id="namedview6"
     showgrid="false"
     inkscape:zoom="39.833333"
     inkscape:cx="12.050209"
     inkscape:cy="12"
     inkscape:window-x="8"
     inkscape:window-y="1097"
     inkscape:window-maximized="0"
     inkscape:current-layer="svg4" />
  <path fill="#afafaf"
     d="m 8.4644661,8.4644661 c -0.3889087,0.3889087 -0.3889087,1.0253048 0,1.4142136 L 10.585786,12 8.4644661,14.12132 c -0.3889087,0.388909 -0.3889087,1.025305 0,1.414214 0.3889087,0.388909 1.0253048,0.388909 1.4142136,0 L 12,13.414214 l 2.12132,2.12132 c 0.388909,0.388909 1.025305,0.388909 1.414214,0 0.388909,-0.388909 0.388909,-1.025305 0,-1.414214 L 13.414214,12 15.535534,9.8786797 c 0.388909,-0.3889088 0.388909,-1.0253049 0,-1.4142136 -0.388909,-0.3889087 -1.025305,-0.3889087 -1.414214,0 L 12,10.585786 9.8786797,8.4644661 c -0.3889088,-0.3889087 -1.0253049,-0.3889087 -1.4142136,0 z M 4.9289322,4.9289322 c -3.9032294,3.9032294 -3.9032294,10.2389058 0,14.1421358 3.9032294,3.903229 10.2389058,3.903229 14.1421358,0 3.903229,-3.90323 3.903229,-10.2389064 0,-14.1421358 -3.90323,-3.9032294 -10.2389064,-3.9032294 -14.1421358,0 z M 17.656854,17.656854 c -3.118341,3.118341 -8.1953673,3.118341 -11.3137082,0 -3.118341,-3.118341 -3.118341,-8.1953673 0,-11.3137082 3.1183409,-3.118341 8.1953672,-3.118341 11.3137082,0 3.118341,3.1183409 3.118341,8.1953672 0,11.3137082 z"
     id="path2" />
</svg>
