<?xml version="1.0" encoding="UTF-8" standalone="no"?>
<svg
   xmlns:dc="http://purl.org/dc/elements/1.1/"
   xmlns:cc="http://creativecommons.org/ns#"
   xmlns:rdf="http://www.w3.org/1999/02/22-rdf-syntax-ns#"
   xmlns:svg="http://www.w3.org/2000/svg"
   xmlns="http://www.w3.org/2000/svg"
   xmlns:sodipodi="http://sodipodi.sourceforge.net/DTD/sodipodi-0.dtd"
   xmlns:inkscape="http://www.inkscape.org/namespaces/inkscape"
   enable-background="new 0 0 24 24"
   height="24"
   viewBox="0 0 24 24"
   width="24"
   version="1.1"
   id="svg4"
   sodipodi:docname="preview-add-zone (copy).svg"
   inkscape:version="1.0.2 (e86c870879, 2021-01-15)">
  <metadata
     id="metadata10">
    <rdf:RDF>
      <cc:Work
         rdf:about="">
        <dc:format>image/svg+xml</dc:format>
        <dc:type
           rdf:resource="http://purl.org/dc/dcmitype/StillImage" />
      </cc:Work>
    </rdf:RDF>
  </metadata>
  <defs
     id="defs8" />
  <sodipodi:namedview
     pagecolor="#ffffff"
     bordercolor="#666666"
     borderopacity="1"
     objecttolerance="10"
     gridtolerance="10"
     guidetolerance="10"
     inkscape:pageopacity="0"
     inkscape:pageshadow="2"
     inkscape:window-width="1876"
     inkscape:window-height="1031"
     id="namedview6"
     showgrid="false"
     inkscape:zoom="42"
     inkscape:cx="12"
     inkscape:cy="8.1583518"
     inkscape:window-x="8"
     inkscape:window-y="1109"
     inkscape:window-maximized="0"
     inkscape:current-layer="svg4" />
  <path fill="#afafaf"
     d="M3,22L3,22c-0.55,0-1-0.45-1-1V3c0-0.55,0.45-1,1-1h0c0.55,0,1,0.45,1,1v18C4,21.55,3.55,22,3,22z M21,2L21,2 c-0.55,0-1,0.45-1,1v18c0,0.55,0.45,1,1,1h0c0.55,0,1-0.45,1-1V3C22,2.45,21.55,2,21,2z M12,7L12,7c-0.83,0-1.5,0.67-1.5,1.5v7 c0,0.83,0.67,1.5,1.5,1.5h0c0.83,0,1.5-0.67,1.5-1.5v-7C13.5,7.67,12.83,7,12,7z"
     id="path2" />
  <path fill="#afafaf"
     d="m 17,12 v 0 c 0,-0.830001 -0.67,-1.5 -1.5,-1.5 H 8.5000001 c -0.83,0 -1.5,0.669999 -1.5,1.5 v 0 c 0,0.83 0.67,1.5 1.5,1.5 H 15.5 c 0.83,0 1.5,-0.67 1.5,-1.5 z"
     id="path2-3"
     sodipodi:nodetypes="sssssssss" />
</svg>
