<?xml version="1.0" encoding="UTF-8" standalone="no"?>
<svg
   xmlns:dc="http://purl.org/dc/elements/1.1/"
   xmlns:cc="http://creativecommons.org/ns#"
   xmlns:rdf="http://www.w3.org/1999/02/22-rdf-syntax-ns#"
   xmlns:svg="http://www.w3.org/2000/svg"
   xmlns="http://www.w3.org/2000/svg"
   xmlns:sodipodi="http://sodipodi.sourceforge.net/DTD/sodipodi-0.dtd"
   xmlns:inkscape="http://www.inkscape.org/namespaces/inkscape"
   enable-background="new 0 0 24 24"
   height="24"
   viewBox="0 0 24 24"
   width="24"
   version="1.1"
   id="svg4"
   sodipodi:docname="preview-add-zone (copy).svg"
   inkscape:version="1.0.2 (e86c870879, 2021-01-15)">
  <metadata
     id="metadata10">
    <rdf:RDF>
      <cc:Work
         rdf:about="">
        <dc:format>image/svg+xml</dc:format>
        <dc:type
           rdf:resource="http://purl.org/dc/dcmitype/StillImage" />
      </cc:Work>
    </rdf:RDF>
  </metadata>
  <defs
     id="defs8" />
  <sodipodi:namedview
     pagecolor="#ffffff"
     bordercolor="#666666"
     borderopacity="1"
     objecttolerance="10"
     gridtolerance="10"
     guidetolerance="10"
     inkscape:pageopacity="0"
     inkscape:pageshadow="2"
     inkscape:window-width="1876"
     inkscape:window-height="1031"
     id="namedview6"
     showgrid="false"
     inkscape:zoom="42"
     inkscape:cx="12"
     inkscape:cy="13.993728"
     inkscape:window-x="8"
     inkscape:window-y="1109"
     inkscape:window-maximized="0"
     inkscape:current-layer="svg4" />
  <path fill="#909090"
     d="m 3,22 v 0 C 2.45,22 2,21.55 2,21 V 3 C 2,2.45 2.45,2 3,2 v 0 c 0.55,0 1,0.45 1,1 v 18 c 0,0.55 -0.45,1 -1,1 z M 21,2 v 0 c -0.55,0 -1,0.45 -1,1 v 18 c 0,0.55 0.45,1 1,1 v 0 c 0.55,0 1,-0.45 1,-1 V 3 C 22,2.45 21.55,2 21,2 Z"
     id="path2"
     sodipodi:nodetypes="ssssssssssssssssss" />
  <path fill="#909090"
     d="m 15.535534,8.4644661 v 0 c -0.586899,-0.5868994 -1.534422,-0.5868987 -2.12132,0 L 8.4644664,13.414213 c -0.5868987,0.586899 -0.5868994,1.534421 0,2.121321 v 0 c 0.5868986,0.586898 1.5344217,0.586898 2.1213206,0 l 4.949747,-4.949748 c 0.586899,-0.5868982 0.586899,-1.5344213 0,-2.1213199 z"
     id="path2-3"
     sodipodi:nodetypes="sssssssss" />
  <path fill="#909090"
     d="m 8.4644659,8.4644657 v 0 c -0.5868986,0.5868986 -0.5868986,1.5344217 0,2.1213203 l 4.9497481,4.949748 c 0.586898,0.586898 1.534421,0.586898 2.12132,0 v 0 c 0.586899,-0.586899 0.586898,-1.534423 0,-2.12132 L 10.585786,8.4644657 c -0.5868984,-0.5868986 -1.5344214,-0.5868986 -2.1213201,0 z"
     id="path2-6"
     sodipodi:nodetypes="sssssssss" />
</svg>
