<?xml version="1.0" encoding="UTF-8" standalone="no"?>
<svg
   xmlns:dc="http://purl.org/dc/elements/1.1/"
   xmlns:cc="http://creativecommons.org/ns#"
   xmlns:rdf="http://www.w3.org/1999/02/22-rdf-syntax-ns#"
   xmlns:svg="http://www.w3.org/2000/svg"
   xmlns="http://www.w3.org/2000/svg"
   xmlns:sodipodi="http://sodipodi.sourceforge.net/DTD/sodipodi-0.dtd"
   xmlns:inkscape="http://www.inkscape.org/namespaces/inkscape"
   version="1.1"
   id="mdi-strategy"
   width="24"
   height="24"
   viewBox="0 0 24 24"
   sodipodi:docname="snap-nodes-rotation-center-symbolic.svg"
   inkscape:version="1.0.1 (3bc2e813f5, 2020-09-07)">
  <metadata
     id="metadata9">
    <rdf:RDF>
      <cc:Work
         rdf:about="">
        <dc:format>image/svg+xml</dc:format>
        <dc:type
           rdf:resource="http://purl.org/dc/dcmitype/StillImage" />
      </cc:Work>
    </rdf:RDF>
  </metadata>
  <defs
     id="defs7" />
  <sodipodi:namedview
     pagecolor="#ffffff"
     bordercolor="#666666"
     borderopacity="1"
     objecttolerance="10"
     gridtolerance="10"
     guidetolerance="10"
     inkscape:pageopacity="0"
     inkscape:pageshadow="2"
     inkscape:window-width="950"
     inkscape:window-height="1022"
     id="namedview5"
     showgrid="false"
     inkscape:zoom="39.833333"
     inkscape:cx="8.4928304"
     inkscape:cy="8.9874477"
     inkscape:window-x="1924"
     inkscape:window-y="35"
     inkscape:window-maximized="0"
     inkscape:current-layer="mdi-strategy" />
  <path fill="#909090"
     d="M 20.4,6.83 17.18,11 15.6,9.73 16.77,8.23 c -3.032636,0.6160337 -5.542727,2.734159 -6.66,5.62 4.16976,3.006944 0.853066,9.515576 -4.0249805,7.92694 C 1.2069731,20.188304 2.3591859,12.974764 7.5,13 c 0.2619925,0.0011 0.5232474,0.02785 0.78,0.08 1.4070478,-3.4918818 4.464753,-6.0505996 8.15,-6.82 L 15,5.18 16.27,3.6 M 10,17.5 C 10,15.272583 7.3071536,14.157492 5.7323228,15.732323 4.1574921,17.307154 5.272583,20 7.5,20 8.8807119,20 10,18.880712 10,17.5 Z"
     id="path2"
     sodipodi:nodetypes="cccccscccccssss" />
</svg>
