<?xml version="1.0" encoding="UTF-8" standalone="no"?>
<svg
   xmlns:dc="http://purl.org/dc/elements/1.1/"
   xmlns:cc="http://creativecommons.org/ns#"
   xmlns:rdf="http://www.w3.org/1999/02/22-rdf-syntax-ns#"
   xmlns:svg="http://www.w3.org/2000/svg"
   xmlns="http://www.w3.org/2000/svg"
   xmlns:sodipodi="http://sodipodi.sourceforge.net/DTD/sodipodi-0.dtd"
   xmlns:inkscape="http://www.inkscape.org/namespaces/inkscape"
   version="1.1"
   id="mdi-transit-connection"
   width="24"
   height="24"
   viewBox="0 0 24 24"
   sodipodi:docname="snap-nodes-intersection-symbolic.svg"
   inkscape:version="1.0.1 (3bc2e813f5, 2020-09-07)">
  <metadata
     id="metadata9">
    <rdf:RDF>
      <cc:Work
         rdf:about="">
        <dc:format>image/svg+xml</dc:format>
        <dc:type
           rdf:resource="http://purl.org/dc/dcmitype/StillImage" />
      </cc:Work>
    </rdf:RDF>
  </metadata>
  <defs
     id="defs7" />
  <sodipodi:namedview
     pagecolor="#ffffff"
     bordercolor="#666666"
     borderopacity="1"
     objecttolerance="10"
     gridtolerance="10"
     guidetolerance="10"
     inkscape:pageopacity="0"
     inkscape:pageshadow="2"
     inkscape:window-width="950"
     inkscape:window-height="1022"
     id="namedview5"
     showgrid="false"
     inkscape:zoom="39.833333"
     inkscape:cx="12.050209"
     inkscape:cy="12"
     inkscape:window-x="2882"
     inkscape:window-y="35"
     inkscape:window-maximized="0"
     inkscape:current-layer="mdi-transit-connection" />
  <path fill="#afafaf"
     d="M15,12C15,10.7 14.16,9.6 13,9.18V6.82C14.16,6.4 15,5.3 15,4A3,3 0 0,0 12,1A3,3 0 0,0 9,4C9,5.3 9.84,6.4 11,6.82V9.19C9.84,9.6 9,10.7 9,12C9,13.3 9.84,14.4 11,14.82V17.18C9.84,17.6 9,18.7 9,20A3,3 0 0,0 12,23A3,3 0 0,0 15,20C15,18.7 14.16,17.6 13,17.18V14.82C14.16,14.4 15,13.3 15,12M12,3A1,1 0 0,1 13,4A1,1 0 0,1 12,5A1,1 0 0,1 11,4A1,1 0 0,1 12,3M12,21A1,1 0 0,1 11,20A1,1 0 0,1 12,19A1,1 0 0,1 13,20A1,1 0 0,1 12,21Z"
     id="path2" />
  <path fill="#afafaf"
     d="m 12,8.9999999 c -1.3,0 -2.4000004,0.84 -2.8200004,2.0000001 H 6.8199999 c -0.42,-1.1600001 -1.52,-2.0000001 -2.82,-2.0000001 a 3,3 0 0 0 -3,3.0000001 3,3 0 0 0 3,3 c 1.3,0 2.4,-0.84 2.82,-2 H 9.1899996 C 9.5999996,14.16 10.7,15 12,15 c 1.3,0 2.4,-0.84 2.82,-2 h 2.36 c 0.42,1.16 1.52,2 2.82,2 a 3,3 0 0 0 3,-3 3,3 0 0 0 -3,-3.0000001 c -1.3,0 -2.4,0.84 -2.82,2.0000001 H 14.82 C 14.4,9.8399999 13.3,8.9999999 12,8.9999999 M 2.9999999,12 a 1,1 0 0 1 1,-1 1,1 0 0 1 1,1 1,1 0 0 1 -1,1 1,1 0 0 1 -1,-1 M 21,12 a 1,1 0 0 1 -1,1 1,1 0 0 1 -1,-1 1,1 0 0 1 1,-1 1,1 0 0 1 1,1 z"
     id="path2-3" />
</svg>
