<?xml version="1.0" encoding="UTF-8" standalone="no"?>
<svg
   xmlns:dc="http://purl.org/dc/elements/1.1/"
   xmlns:cc="http://creativecommons.org/ns#"
   xmlns:rdf="http://www.w3.org/1999/02/22-rdf-syntax-ns#"
   xmlns:svg="http://www.w3.org/2000/svg"
   xmlns="http://www.w3.org/2000/svg"
   xmlns:sodipodi="http://sodipodi.sourceforge.net/DTD/sodipodi-0.dtd"
   xmlns:inkscape="http://www.inkscape.org/namespaces/inkscape"
   height="24"
   viewBox="0 0 24 24"
   width="24"
   version="1.1"
   id="svg4"
   sodipodi:docname="map-gnomonic (copy).svg"
   inkscape:version="1.0.2 (e86c870879, 2021-01-15)">
  <metadata
     id="metadata10">
    <rdf:RDF>
      <cc:Work
         rdf:about="">
        <dc:format>image/svg+xml</dc:format>
        <dc:type
           rdf:resource="http://purl.org/dc/dcmitype/StillImage" />
      </cc:Work>
    </rdf:RDF>
  </metadata>
  <defs
     id="defs8" />
  <sodipodi:namedview
     pagecolor="#ffffff"
     bordercolor="#666666"
     borderopacity="1"
     objecttolerance="10"
     gridtolerance="10"
     guidetolerance="10"
     inkscape:pageopacity="0"
     inkscape:pageshadow="2"
     inkscape:window-width="1908"
     inkscape:window-height="2107"
     id="namedview6"
     showgrid="false"
     inkscape:zoom="42"
     inkscape:cx="12"
     inkscape:cy="12"
     inkscape:window-x="1924"
     inkscape:window-y="33"
     inkscape:window-maximized="0"
     inkscape:current-layer="svg4"
     inkscape:document-rotation="0" />
  <path fill="#afafaf"
     id="path2"
     d="M 4,21.429687 C 4,21.769687 4.2308594,22 4.6308594,22 h 4 6.7499996 4 C 19.770859,22 20,21.769687 20,21.429687 c 0,-0.1 -0.02055,-0.200546 -0.06055,-0.310546 -1.1,-2.94 -1.638672,-6.029141 -1.638672,-9.119141 0,-3.09 0.548672,-6.179141 1.638672,-9.119141 C 19.979453,2.770859 20,2.670312 20,2.570312 20,2.240313 19.769141,2 19.369141,2 h -4 -6.7382816 -4 C 4.2308594,2 4,2.240312 4,2.570312 c 0,0.100001 0.020547,0.200547 0.060547,0.310547 1.1,2.94 1.6386719,6.029141 1.6386719,9.119141 0,3.09 -0.5486719,6.179141 -1.6386719,9.119141 C 4.0205469,21.229141 4,21.339687 4,21.429687 Z M 6.5390625,20 c 0.3892844,-1.314467 0.679307,-2.649807 0.8730469,-4 H 9.1054688 C 8.9937755,17.3493 8.804104,18.688762 8.4277344,20 Z m 0,-16 H 8.4316406 C 8.810405,5.31125 8.9990199,6.650687 9.109375,8 H 7.4199219 C 7.2262382,6.649805 6.9334031,5.314469 6.5390625,4 Z m 1.0898437,10 c 0.047111,-0.664085 0.070313,-1.330472 0.070313,-2 0.00246,-0.669528 -0.018592,-1.335915 -0.064453,-2 H 9.2226562 C 9.2403329,10.666033 9.25,11.332454 9.25,12 c 0,0.667547 -0.010989,1.333965 -0.029297,2 z m 2.9101558,6 c 0.389296,-1.314506 0.566486,-2.649766 0.646485,-4 h 1.621094 c 0.07873,1.350234 0.253282,2.685494 0.642578,4 z m 0,-16 h 2.910157 C 13.059923,5.314506 12.885375,6.649766 12.806641,8 H 11.193359 C 11.113417,6.649766 10.933414,5.314506 10.539062,4 Z m 0.708985,10 c 0.006,-0.664095 0.002,-1.330462 0.002,-2 0.0025,-0.669539 0.0087,-1.335905 0.0039,-2 h 1.492188 c -0.0055,0.664095 -0.002,1.330462 -0.002,2 0,0.669538 -0.0036,1.335905 0.002,2 z m 3.507812,-2 c 0,-0.667546 0.0094,-1.333967 0.02734,-2 h 1.578125 c -0.04711,0.664085 -0.07227,1.330471 -0.07227,2 0,0.669529 0.02515,1.335915 0.07227,2 H 14.78125 c -0.01731,-0.666032 -0.02539,-1.332455 -0.02539,-2 z m 0.138672,4 h 1.683594 c 0.19374,1.350193 0.481809,2.685533 0.871094,4 h -1.878907 c -0.378278,-1.31125 -0.566508,-2.650687 -0.675781,-4 z m 0.0039,-8 c 0.110611,-1.3493 0.297945,-2.688762 0.673828,-4 h 1.876953 c -0.389285,1.314467 -0.677354,2.649807 -0.871094,4 z" />
</svg>
