<?xml version="1.0" encoding="UTF-8" standalone="no"?>
<svg
   xmlns:dc="http://purl.org/dc/elements/1.1/"
   xmlns:cc="http://creativecommons.org/ns#"
   xmlns:rdf="http://www.w3.org/1999/02/22-rdf-syntax-ns#"
   xmlns:svg="http://www.w3.org/2000/svg"
   xmlns="http://www.w3.org/2000/svg"
   xmlns:sodipodi="http://sodipodi.sourceforge.net/DTD/sodipodi-0.dtd"
   xmlns:inkscape="http://www.inkscape.org/namespaces/inkscape"
   height="24"
   viewBox="0 0 24 24"
   width="24"
   version="1.1"
   id="svg4"
   sodipodi:docname="stroke-cap-square-symbolic.svg"
   inkscape:version="1.0.1 (3bc2e813f5, 2020-09-07)">
  <metadata
     id="metadata10">
    <rdf:RDF>
      <cc:Work
         rdf:about="">
        <dc:format>image/svg+xml</dc:format>
        <dc:type
           rdf:resource="http://purl.org/dc/dcmitype/StillImage" />
      </cc:Work>
    </rdf:RDF>
  </metadata>
  <defs
     id="defs8" />
  <sodipodi:namedview
     pagecolor="#ffffff"
     bordercolor="#666666"
     borderopacity="1"
     objecttolerance="10"
     gridtolerance="10"
     guidetolerance="10"
     inkscape:pageopacity="0"
     inkscape:pageshadow="2"
     inkscape:window-width="1908"
     inkscape:window-height="1022"
     id="namedview6"
     showgrid="false"
     inkscape:zoom="39.833333"
     inkscape:cx="14.655485"
     inkscape:cy="14.008368"
     inkscape:window-x="8"
     inkscape:window-y="1097"
     inkscape:window-maximized="0"
     inkscape:current-layer="svg4"
     inkscape:document-rotation="0" />
  <path fill="#afafaf"
     d="m 11,21 h 2 v -2 h -2 z m 0,-4 h 2 v -2 h -2 z m 0,-4 h 2 v -2 h -2 z m -7,8 c 0.55,0 1,-0.45 1,-1 V 4 C 5,3.45 4.55,3 4,3 3.45,3 3,3.45 3,4 v 16 c 0,0.55 0.45,1 1,1 z"
     id="path2"
     sodipodi:nodetypes="cccccccccccccccsssssss" />
  <path fill="#afafaf"
     d="m 20,21 c 0.55,0 1,-0.45 1,-1 V 3.9999999 C 21,3.45 20.55,3 20,3 19.45,3 19,3.45 19,3.9999999 V 20 c 0,0.55 0.45,1 1,1 z"
     id="path2-6"
     sodipodi:nodetypes="sssssss" />
  <path fill="#afafaf"
     d="M 21,4 C 21,3.45 20.55,3 20,3 H 4 C 3.45,3 3,3.45 3,4 3,4.55 3.45,5 4,5 h 16 c 0.55,0 1,-0.45 1,-1 z"
     id="path2-6-7"
     sodipodi:nodetypes="sssssss" />
</svg>
