<?xml version="1.0" encoding="UTF-8" standalone="no"?>
<svg
   xmlns:dc="http://purl.org/dc/elements/1.1/"
   xmlns:cc="http://creativecommons.org/ns#"
   xmlns:rdf="http://www.w3.org/1999/02/22-rdf-syntax-ns#"
   xmlns:svg="http://www.w3.org/2000/svg"
   xmlns="http://www.w3.org/2000/svg"
   xmlns:sodipodi="http://sodipodi.sourceforge.net/DTD/sodipodi-0.dtd"
   xmlns:inkscape="http://www.inkscape.org/namespaces/inkscape"
   height="24"
   viewBox="0 0 24 24"
   width="24"
   version="1.1"
   id="svg4"
   sodipodi:docname="stroke-cap-butt-symbolic.svg"
   inkscape:version="1.0.1 (3bc2e813f5, 2020-09-07)">
  <metadata
     id="metadata10">
    <rdf:RDF>
      <cc:Work
         rdf:about="">
        <dc:format>image/svg+xml</dc:format>
        <dc:type
           rdf:resource="http://purl.org/dc/dcmitype/StillImage" />
      </cc:Work>
    </rdf:RDF>
  </metadata>
  <defs
     id="defs8" />
  <sodipodi:namedview
     pagecolor="#ffffff"
     bordercolor="#666666"
     borderopacity="1"
     objecttolerance="10"
     gridtolerance="10"
     guidetolerance="10"
     inkscape:pageopacity="0"
     inkscape:pageshadow="2"
     inkscape:window-width="950"
     inkscape:window-height="1022"
     id="namedview6"
     showgrid="false"
     inkscape:zoom="39.833333"
     inkscape:cx="7.9297014"
     inkscape:cy="16.789648"
     inkscape:window-x="1924"
     inkscape:window-y="35"
     inkscape:window-maximized="0"
     inkscape:current-layer="svg4" />
  <path fill="#afafaf"
     d="m 11,13 h 2 v -2 h -2 z m 0,8 h 2 v -2 h -2 z m 0,-4 h 2 v -2 h -2 z m -7,4 c 0.55,0 1,-0.45 1,-1 V 12 C 5,11.45 4.55,11 4,11 3.45,11 3,11.45 3,12 v 8 c 0,0.55 0.45,1 1,1 z"
     id="path2"
     sodipodi:nodetypes="cccccccccccccccsssssss" />
  <path fill="#afafaf"
     d="m 13,13 h -2 v -2 h 2 z m 0,8 h -2 v -2 h 2 z m 0,-4 h -2 v -2 h 2 z m 7,4 c -0.55,0 -1,-0.45 -1,-1 v -8 c 0,-0.55 0.45,-1 1,-1 0.55,0 1,0.45 1,1 v 8 c 0,0.55 -0.45,1 -1,1 z"
     id="path2-3"
     sodipodi:nodetypes="cccccccccccccccsssssss" />
</svg>
