<?xml version="1.0" encoding="UTF-8" standalone="no"?>
<svg
   xmlns:dc="http://purl.org/dc/elements/1.1/"
   xmlns:cc="http://creativecommons.org/ns#"
   xmlns:rdf="http://www.w3.org/1999/02/22-rdf-syntax-ns#"
   xmlns:svg="http://www.w3.org/2000/svg"
   xmlns="http://www.w3.org/2000/svg"
   xmlns:sodipodi="http://sodipodi.sourceforge.net/DTD/sodipodi-0.dtd"
   xmlns:inkscape="http://www.inkscape.org/namespaces/inkscape"
   height="24"
   viewBox="0 0 24 24"
   width="24"
   version="1.1"
   id="svg4"
   sodipodi:docname="xml-comment-symbolic.symbolic.svg"
   inkscape:version="1.0.2 (e86c870879, 2021-01-15)">
  <metadata
     id="metadata10">
    <rdf:RDF>
      <cc:Work
         rdf:about="">
        <dc:format>image/svg+xml</dc:format>
        <dc:type
           rdf:resource="http://purl.org/dc/dcmitype/StillImage" />
      </cc:Work>
    </rdf:RDF>
  </metadata>
  <defs
     id="defs8" />
  <sodipodi:namedview
     pagecolor="#ffffff"
     bordercolor="#666666"
     borderopacity="1"
     objecttolerance="10"
     gridtolerance="10"
     guidetolerance="10"
     inkscape:pageopacity="0"
     inkscape:pageshadow="2"
     inkscape:window-width="3824"
     inkscape:window-height="2107"
     id="namedview6"
     showgrid="false"
     inkscape:zoom="42"
     inkscape:cx="12"
     inkscape:cy="12"
     inkscape:window-x="8"
     inkscape:window-y="33"
     inkscape:window-maximized="0"
     inkscape:current-layer="svg4" />
  <path fill="#afafaf"
     d="m 4,2 h 16 c 1.1,0 1.99,0.9 1.99,2 L 22,22 18,18 H 4 C 2.9,18 2,17.1 2,16 V 4 C 2,2.9 2.9,2 4,2 Z m 3,12 h 10 c 0.55,0 1,-0.45 1,-1 0,-0.55 -0.45,-1 -1,-1 H 7 c -0.55,0 -1,0.45 -1,1 0,0.55 0.45,1 1,1 z m 0,-3 h 10 c 0.55,0 1,-0.45 1,-1 C 18,9.45 17.55,9 17,9 H 7 c -0.55,0 -1,0.45 -1,1 0,0.55 0.45,1 1,1 z M 7,8 H 17 C 17.55,8 18,7.55 18,7 18,6.45 17.55,6 17,6 H 7 C 6.45,6 6,6.45 6,7 6,7.55 6.45,8 7,8 Z"
     id="path2" />
</svg>
