<?xml version="1.0" encoding="UTF-8" standalone="no"?>
<svg
   xmlns:dc="http://purl.org/dc/elements/1.1/"
   xmlns:cc="http://creativecommons.org/ns#"
   xmlns:rdf="http://www.w3.org/1999/02/22-rdf-syntax-ns#"
   xmlns:svg="http://www.w3.org/2000/svg"
   xmlns="http://www.w3.org/2000/svg"
   xmlns:sodipodi="http://sodipodi.sourceforge.net/DTD/sodipodi-0.dtd"
   xmlns:inkscape="http://www.inkscape.org/namespaces/inkscape"
   version="1.1"
   id="mdi-arrow-collapse-right"
   width="24"
   height="24"
   viewBox="0 0 24 24"
   sodipodi:docname="zoom-in-x (copy) 2.svg"
   inkscape:version="1.0.2 (e86c870879, 2021-01-15)">
  <metadata
     id="metadata9">
    <rdf:RDF>
      <cc:Work
         rdf:about="">
        <dc:format>image/svg+xml</dc:format>
        <dc:type
           rdf:resource="http://purl.org/dc/dcmitype/StillImage" />
      </cc:Work>
    </rdf:RDF>
  </metadata>
  <defs
     id="defs7" />
  <sodipodi:namedview
     pagecolor="#ffffff"
     bordercolor="#666666"
     borderopacity="1"
     objecttolerance="10"
     gridtolerance="10"
     guidetolerance="10"
     inkscape:pageopacity="0"
     inkscape:pageshadow="2"
     inkscape:window-width="1920"
     inkscape:window-height="1011"
     id="namedview5"
     showgrid="false"
     inkscape:zoom="25.00354"
     inkscape:cx="15.632387"
     inkscape:cy="13.858448"
     inkscape:window-x="0"
     inkscape:window-y="0"
     inkscape:window-maximized="1"
     inkscape:current-layer="mdi-arrow-collapse-right"
     inkscape:document-rotation="0" />
  <path fill="#afafaf"
     id="path2-3"
     d="M 21 2 C 20.45 2 20 2.45 20 3 L 20 21 C 20 21.55 20.45 22 21 22 C 21.55 22 22 21.55 22 21 L 22 3 C 22 2.45 21.55 2 21 2 z M 9.5878906 4.4179688 C 9.3328906 4.4179687 9.0778125 4.5159375 8.8828125 4.7109375 L 2.2929688 11.300781 C 1.9029678 11.690781 1.9029677 12.320937 2.2929688 12.710938 L 8.8828125 19.300781 C 9.2728125 19.690781 9.9029675 19.690781 10.292969 19.300781 C 10.682969 18.910781 10.682969 18.270859 10.292969 17.880859 L 5.4121094 13 L 16.992188 13 C 17.542187 13 17.992188 12.55 17.992188 12 C 17.992188 11.45 17.542188 11 16.992188 11 L 5.4121094 11 L 10.292969 6.1191406 C 10.682969 5.7291406 10.682969 5.1009375 10.292969 4.7109375 C 10.097969 4.5159378 9.8428906 4.4179688 9.5878906 4.4179688 z " />
</svg>
