<?xml version="1.0" encoding="UTF-8" standalone="no"?>
<svg
   xmlns:dc="http://purl.org/dc/elements/1.1/"
   xmlns:cc="http://creativecommons.org/ns#"
   xmlns:rdf="http://www.w3.org/1999/02/22-rdf-syntax-ns#"
   xmlns:svg="http://www.w3.org/2000/svg"
   xmlns="http://www.w3.org/2000/svg"
   xmlns:sodipodi="http://sodipodi.sourceforge.net/DTD/sodipodi-0.dtd"
   xmlns:inkscape="http://www.inkscape.org/namespaces/inkscape"
   version="1.1"
   id="mdi-numeric-2-box-multiple-outline"
   width="24"
   height="24"
   viewBox="0 0 24 24"
   sodipodi:docname="zoom-1-to-2.svg"
   inkscape:version="1.0.2 (e86c870879, 2021-01-15)">
  <metadata
     id="metadata9">
    <rdf:RDF>
      <cc:Work
         rdf:about="">
        <dc:format>image/svg+xml</dc:format>
        <dc:type
           rdf:resource="http://purl.org/dc/dcmitype/StillImage" />
      </cc:Work>
    </rdf:RDF>
  </metadata>
  <defs
     id="defs7" />
  <sodipodi:namedview
     pagecolor="#ffffff"
     bordercolor="#666666"
     borderopacity="1"
     objecttolerance="10"
     gridtolerance="10"
     guidetolerance="10"
     inkscape:pageopacity="0"
     inkscape:pageshadow="2"
     inkscape:window-width="2164"
     inkscape:window-height="1017"
     id="namedview5"
     showgrid="false"
     inkscape:zoom="21"
     inkscape:cx="23.471746"
     inkscape:cy="15.248741"
     inkscape:window-x="5508"
     inkscape:window-y="1097"
     inkscape:window-maximized="0"
     inkscape:current-layer="mdi-numeric-2-box-multiple-outline" />
  <path fill="#afafaf"
     d="m 16.5,12.7 h -3.666666 v -1.8 h 1.833333 C 15.679189,10.9 16.5,10.094113 16.5,9.0999998 V 7.2999999 C 16.5,6.301 15.675001,5.5 14.666667,5.5 H 11 v 1.7999999 h 3.666667 V 9.0999998 H 12.833334 C 11.820812,9.0999997 11,9.9058875 11,10.9 v 3.6 h 5.5"
     id="path2"
     style="stroke-width:0.908295"
     sodipodi:nodetypes="cccssssccccsscc" />
  <path fill="#afafaf"
     id="path2-3"
     d="m 8.0000002,1.999998 c -1.1100004,0 -2.0000004,0.89 -2.0000004,2 v 12 c 0,1.1 0.89,2 2.0000004,2 H 20 c 1.104569,0 2,-0.895431 2,-2 v -12 c 0,-1.104569 -0.895431,-2 -2,-2 z m 0,2 H 20 v 12 H 8.0000002 Z m -5.0000003,2 c -0.55,0 -1.0000001,0.45 -1.0000001,1 v 2 8.5 2.5 c 0,0.1375 0.014258,0.272461 0.041016,0.402344 0.1598508,0.781171 0.7754697,1.39679 1.5566405,1.55664 0.1298825,0.02676 0.2648434,0.04102 0.4023434,0.04102 H 17 c 0.1375,0 0.269141,-0.02734 0.388672,-0.07813 C 17.747266,21.769533 18,21.412502 18,21.000002 c 0,-0.55 -0.45,-1 -1,-1 h -11.5000002 -0.5 c -0.55,0 -0.9999999,-0.45 -0.9999999,-1 v -12 c 0,-0.55 -0.4500001,-1 -1,-1 z" />
</svg>
