<?xml version="1.0" encoding="UTF-8" standalone="no"?>
<svg
   height="24"
   viewBox="0 0 24 24"
   width="24"
   version="1.1"
   id="svg4"
   sodipodi:docname="gps-marker-highlighted.svg"
   inkscape:version="1.1 (c68e22c387, 2021-05-23)"
   xmlns:inkscape="http://www.inkscape.org/namespaces/inkscape"
   xmlns:sodipodi="http://sodipodi.sourceforge.net/DTD/sodipodi-0.dtd"
   xmlns="http://www.w3.org/2000/svg"
   xmlns:svg="http://www.w3.org/2000/svg">
  <defs
     id="defs8" />
  <sodipodi:namedview
     id="namedview6"
     pagecolor="#ffffff"
     bordercolor="#666666"
     borderopacity="1.0"
     inkscape:pageshadow="2"
     inkscape:pageopacity="0.0"
     inkscape:pagecheckerboard="0"
     showgrid="false"
     inkscape:zoom="30.458333"
     inkscape:cx="12.082079"
     inkscape:cy="12.016416"
     inkscape:window-width="976"
     inkscape:window-height="1008"
     inkscape:window-x="45"
     inkscape:window-y="29"
     inkscape:window-maximized="0"
     inkscape:current-layer="svg4" />
  <path
     d="M 12,2 C 8.1300001,2 5,5.13 5,9 c 0,4.17 4.42,9.92 6.24,12.11 0.4,0.48 1.13,0.48 1.53,0 C 14.579999,18.92 19,13.17 19,9 19,5.13 15.87,2 12,2 Z m 0,9.5 C 10.62,11.5 9.4999999,10.38 9.4999999,9 9.4999999,7.62 10.62,6.5 12,6.5 c 1.38,0 2.5,1.12 2.5,2.5 0,1.38 -1.12,2.5 -2.5,2.5 z"
     id="path2"
     style="fill:#82b1ff;fill-opacity:1;stroke-width:1" />
</svg>
