<?xml version="1.0" encoding="UTF-8" standalone="no"?>
<svg
   height="24"
   viewBox="0 0 24 24"
   width="24"
   version="1.1"
   id="svg4"
   sodipodi:docname="user-location-compass.svg"
   inkscape:version="1.1 (c68e22c387, 2021-05-23)"
   xmlns:inkscape="http://www.inkscape.org/namespaces/inkscape"
   xmlns:sodipodi="http://sodipodi.sourceforge.net/DTD/sodipodi-0.dtd"
   xmlns="http://www.w3.org/2000/svg"
   xmlns:svg="http://www.w3.org/2000/svg">
  <defs
     id="defs8" />
  <sodipodi:namedview
     id="namedview6"
     pagecolor="#ffffff"
     bordercolor="#666666"
     borderopacity="1.0"
     inkscape:pageshadow="2"
     inkscape:pageopacity="0.0"
     inkscape:pagecheckerboard="0"
     showgrid="false"
     inkscape:zoom="30.458333"
     inkscape:cx="3.0861833"
     inkscape:cy="12.016416"
     inkscape:window-width="984"
     inkscape:window-height="484"
     inkscape:window-x="45"
     inkscape:window-y="29"
     inkscape:window-maximized="0"
     inkscape:current-layer="svg4" />
  <path
     d="m 12,21.47 c -3.8699999,0 -7,-3.13 -7,-7 0,-4.17 4.42,-9.92 6.24,-12.11 0.4,-0.48 1.13,-0.48 1.53,0 1.809999,2.19 6.23,7.94 6.23,12.11 0,3.87 -3.13,7 -7,7 z m 0,-9.5 c -1.38,0 -2.5000001,1.12 -2.5000001,2.5 0,1.38 1.1200001,2.5 2.5000001,2.5 1.38,0 2.5,-1.12 2.5,-2.5 0,-1.38 -1.12,-2.5 -2.5,-2.5 z"
     id="path2"
     style="fill:#82b1ff;fill-opacity:1;stroke-width:1" />
</svg>
