<?xml version="1.0" encoding="UTF-8" standalone="no"?>
<svg
   xmlns:dc="http://purl.org/dc/elements/1.1/"
   xmlns:cc="http://creativecommons.org/ns#"
   xmlns:rdf="http://www.w3.org/1999/02/22-rdf-syntax-ns#"
   xmlns:svg="http://www.w3.org/2000/svg"
   xmlns="http://www.w3.org/2000/svg"
   xmlns:sodipodi="http://sodipodi.sourceforge.net/DTD/sodipodi-0.dtd"
   xmlns:inkscape="http://www.inkscape.org/namespaces/inkscape"
   height="24"
   viewBox="0 0 24 24"
   width="24"
   version="1.1"
   id="svg4"
   sodipodi:docname="compare_arrows.svg"
   inkscape:version="1.0.2 (e86c870879, 2021-01-15)">
  <metadata
     id="metadata10">
    <rdf:RDF>
      <cc:Work
         rdf:about="">
        <dc:format>image/svg+xml</dc:format>
        <dc:type
           rdf:resource="http://purl.org/dc/dcmitype/StillImage" />
      </cc:Work>
    </rdf:RDF>
  </metadata>
  <defs
     id="defs8" />
  <sodipodi:namedview
     pagecolor="#ffffff"
     bordercolor="#666666"
     borderopacity="1"
     objecttolerance="10"
     gridtolerance="10"
     guidetolerance="10"
     inkscape:pageopacity="0"
     inkscape:pageshadow="2"
     inkscape:window-width="1904"
     inkscape:window-height="1000"
     id="namedview6"
     showgrid="false"
     inkscape:zoom="33.208333"
     inkscape:cx="12"
     inkscape:cy="12"
     inkscape:window-x="26"
     inkscape:window-y="23"
     inkscape:window-maximized="0"
     inkscape:current-layer="svg4" />
  <path fill="#B9D4F0"
     d="M 10,9.01 V 3 C 10,2.45 9.55,2 9,2 8.45,2 8,2.45 8,3 V 9.01 H 6.21 c -0.45,0 -0.67,0.54 -0.35,0.85 l 2.79,2.78 c 0.2,0.19 0.51,0.19 0.71,0 L 12.15,9.86 C 12.47,9.55 12.24,9.01 11.8,9.01 Z m 2.21,5.98 H 14 V 21 c 0,0.55 0.45,1 1,1 0.55,0 1,-0.45 1,-1 v -6.01 h 1.79 c 0.45,0 0.67,-0.54 0.35,-0.85 l -2.79,-2.78 c -0.2,-0.19 -0.51,-0.19 -0.71,0 l -2.79,2.78 c -0.31,0.31 -0.09,0.85 0.36,0.85 z"
     id="path2" />
</svg>
