<?xml version="1.0" encoding="UTF-8" standalone="no"?>
<svg
   xmlns:dc="http://purl.org/dc/elements/1.1/"
   xmlns:cc="http://creativecommons.org/ns#"
   xmlns:rdf="http://www.w3.org/1999/02/22-rdf-syntax-ns#"
   xmlns:svg="http://www.w3.org/2000/svg"
   xmlns="http://www.w3.org/2000/svg"
   xmlns:sodipodi="http://sodipodi.sourceforge.net/DTD/sodipodi-0.dtd"
   xmlns:inkscape="http://www.inkscape.org/namespaces/inkscape"
   enable-background="new 0 0 24 24"
   height="24"
   viewBox="0 0 24 24"
   width="24"
   version="1.1"
   id="svg8"
   sodipodi:docname="image-missing-symbolic.svg"
   inkscape:version="1.0.1 (3bc2e813f5, 2020-09-07)">
  <metadata
     id="metadata14">
    <rdf:RDF>
      <cc:Work
         rdf:about="">
        <dc:format>image/svg+xml</dc:format>
        <dc:type
           rdf:resource="http://purl.org/dc/dcmitype/StillImage" />
      </cc:Work>
    </rdf:RDF>
  </metadata>
  <defs
     id="defs12" />
  <sodipodi:namedview
     pagecolor="#ffffff"
     bordercolor="#666666"
     borderopacity="1"
     objecttolerance="10"
     gridtolerance="10"
     guidetolerance="10"
     inkscape:pageopacity="0"
     inkscape:pageshadow="2"
     inkscape:window-width="1904"
     inkscape:window-height="1000"
     id="namedview10"
     showgrid="false"
     inkscape:zoom="33.208333"
     inkscape:cx="12"
     inkscape:cy="12"
     inkscape:window-x="26"
     inkscape:window-y="23"
     inkscape:window-maximized="0"
     inkscape:current-layer="svg8" />
  <path fill="#B9D4F0"
     d="m 21.899381,20.48 -0.78,-0.78 -2.41,-2.41 -4.59,-4.59 -9.8199999,-9.8199999 v 0 l -0.78,-0.78 c -0.39,-0.39 -1.02,-0.39 -1.41,0 -0.4,0.39 -0.4,1.02 -0.01,1.41 l 1.61,1.61 V 18.29 c 0,1.1 0.9,2 2,2 H 18.879381 l 1.61,1.61 c 0.39,0.39 1.02,0.39 1.41,0 0.39,-0.39 0.39,-1.03 0,-1.42 z M 6.7293811,17.29 c -0.42,0 -0.65,-0.48 -0.39,-0.81 l 2.49,-3.2 c 0.2,-0.25 0.58,-0.26 0.78,-0.01 l 2.0999999,2.53 1.17,-1.51 3,3 z M 21.709381,17.46 6.5393811,2.2900001 H 19.709381 c 1.1,0 2,0.9 2,2 z"
     id="path4" />
</svg>
