<?xml version="1.0" encoding="UTF-8" standalone="no"?>
<svg
   xmlns:dc="http://purl.org/dc/elements/1.1/"
   xmlns:cc="http://creativecommons.org/ns#"
   xmlns:rdf="http://www.w3.org/1999/02/22-rdf-syntax-ns#"
   xmlns:svg="http://www.w3.org/2000/svg"
   xmlns="http://www.w3.org/2000/svg"
   xmlns:sodipodi="http://sodipodi.sourceforge.net/DTD/sodipodi-0.dtd"
   xmlns:inkscape="http://www.inkscape.org/namespaces/inkscape"
   height="24"
   viewBox="0 0 24 24"
   width="24"
   version="1.1"
   id="svg8"
   sodipodi:docname="org.gnome.design.VectorSlicer.svg"
   inkscape:version="1.0.2 (e86c870879, 2021-01-15)">
  <metadata
     id="metadata14">
    <rdf:RDF>
      <cc:Work
         rdf:about="">
        <dc:format>image/svg+xml</dc:format>
        <dc:type
           rdf:resource="http://purl.org/dc/dcmitype/StillImage" />
      </cc:Work>
    </rdf:RDF>
  </metadata>
  <defs
     id="defs12" />
  <sodipodi:namedview
     pagecolor="#ffffff"
     bordercolor="#666666"
     borderopacity="1"
     objecttolerance="10"
     gridtolerance="10"
     guidetolerance="10"
     inkscape:pageopacity="0"
     inkscape:pageshadow="2"
     inkscape:window-width="1908"
     inkscape:window-height="1017"
     id="namedview10"
     showgrid="false"
     inkscape:zoom="21"
     inkscape:cx="13.468497"
     inkscape:cy="15.263107"
     inkscape:window-x="5764"
     inkscape:window-y="1097"
     inkscape:window-maximized="0"
     inkscape:current-layer="svg8" />
  <path fill="#afafaf"
     id="circle4"
     d="M 12 2.875 A 4.5 4.5 0 0 0 7.5 7.375 A 4.5 4.5 0 0 0 12 11.875 A 4.5 4.5 0 0 0 16.5 7.375 A 4.5 4.5 0 0 0 12 2.875 z M 6.5 12.125 A 4.5 4.5 0 0 0 2 16.625 A 4.5 4.5 0 0 0 6.5 21.125 A 4.5 4.5 0 0 0 11 16.625 A 4.5 4.5 0 0 0 6.5 12.125 z M 17.5 12.125 A 4.5 4.5 0 0 0 13 16.625 A 4.5 4.5 0 0 0 17.5 21.125 A 4.5 4.5 0 0 0 22 16.625 A 4.5 4.5 0 0 0 17.5 12.125 z " />
</svg>
