<?xml version="1.0" encoding="UTF-8" standalone="no"?>
<svg
   xmlns:dc="http://purl.org/dc/elements/1.1/"
   xmlns:cc="http://creativecommons.org/ns#"
   xmlns:rdf="http://www.w3.org/1999/02/22-rdf-syntax-ns#"
   xmlns:svg="http://www.w3.org/2000/svg"
   xmlns="http://www.w3.org/2000/svg"
   xmlns:sodipodi="http://sodipodi.sourceforge.net/DTD/sodipodi-0.dtd"
   xmlns:inkscape="http://www.inkscape.org/namespaces/inkscape"
   version="1.1"
   id="mdi-music-box-multiple"
   width="24"
   height="24"
   viewBox="0 0 24 24"
   sodipodi:docname="amarok_playlist.svg"
   inkscape:version="1.0.2 (e86c870879, 2021-01-15)">
  <metadata
     id="metadata9">
    <rdf:RDF>
      <cc:Work
         rdf:about="">
        <dc:format>image/svg+xml</dc:format>
        <dc:type
           rdf:resource="http://purl.org/dc/dcmitype/StillImage" />
      </cc:Work>
    </rdf:RDF>
  </metadata>
  <defs
     id="defs7" />
  <sodipodi:namedview
     pagecolor="#ffffff"
     bordercolor="#666666"
     borderopacity="1"
     objecttolerance="10"
     gridtolerance="10"
     guidetolerance="10"
     inkscape:pageopacity="0"
     inkscape:pageshadow="2"
     inkscape:window-width="1908"
     inkscape:window-height="2080"
     id="namedview5"
     showgrid="false"
     inkscape:zoom="42"
     inkscape:cx="12"
     inkscape:cy="12"
     inkscape:window-x="3848"
     inkscape:window-y="35"
     inkscape:window-maximized="0"
     inkscape:current-layer="mdi-music-box-multiple" />
  <path fill="#ffffff"
     id="path2"
     d="M 8 2 C 6.8954305 2 6 2.8954305 6 4 L 6 16 C 6 17.104569 6.8954305 18 8 18 L 20 18 C 21.104569 18 22 17.104569 22 16 L 22 4 C 22 2.8954305 21.104569 2 20 2 L 8 2 z M 14 5 L 18 5 L 18 7 L 15 7 L 15 12.5 C 15 13.880712 13.880712 15 12.5 15 C 11.119288 15 10 13.880712 10 12.5 C 10 11.119288 11.119288 10 12.5 10 C 13.07 10 13.58 10.19 14 10.5 L 14 5 z M 3 6 C 2.45 6 2 6.45 2 7 L 2 20 C 2 21.1 2.9 22 4 22 L 17 22 C 17.55 22 18 21.55 18 21 C 18 20.45 17.55 20 17 20 L 5 20 C 4.45 20 4 19.55 4 19 L 4 7 C 4 6.45 3.55 6 3 6 z " />
</svg>
