<?xml version="1.0" encoding="UTF-8" standalone="no"?>
<svg
   enable-background="new 0 0 24 24"
   height="24px"
   viewBox="0 0 24 24"
   width="24px"
   fill="#000000"
   version="1.1"
   id="svg10"
   sodipodi:docname="emblem-photos.svg"
   inkscape:version="1.1 (c68e22c387, 2021-05-23)"
   xmlns:inkscape="http://www.inkscape.org/namespaces/inkscape"
   xmlns:sodipodi="http://sodipodi.sourceforge.net/DTD/sodipodi-0.dtd"
   xmlns="http://www.w3.org/2000/svg"
   xmlns:svg="http://www.w3.org/2000/svg">
  <defs
     id="defs14" />
  <sodipodi:namedview
     id="namedview12"
     pagecolor="#ffffff"
     bordercolor="#666666"
     borderopacity="1.0"
     inkscape:pageshadow="2"
     inkscape:pageopacity="0.0"
     inkscape:pagecheckerboard="0"
     showgrid="false"
     inkscape:zoom="26.487041"
     inkscape:cx="8.8156318"
     inkscape:cy="14.66755"
     inkscape:window-width="1908"
     inkscape:window-height="1017"
     inkscape:window-x="3848"
     inkscape:window-y="35"
     inkscape:window-maximized="0"
     inkscape:current-layer="svg10" />
  <circle
     style="fill:#ffffff;fill-opacity:1;stroke-width:0.5;stroke-linecap:round"
     id="path969"
     cx="12"
     cy="12"
     r="5.7168469" />
  <g
     id="g8"
     style="fill:#00bfa5;fill-opacity:1">
    <path
       d="M 12,2 C 6.48,2 2,6.48 2,12 2,17.52 6.48,22 12,22 17.52,22 22,17.52 22,12 22,6.48 17.52,2 12,2 Z"
       id="path6"
       style="fill:#00bfa5;fill-opacity:1"
       sodipodi:nodetypes="sssss" />
  </g>
  <path
     d="M 17,15.888888 V 8.1111107 C 17,7.4999997 16.5,7 15.888888,7 H 8.111111 C 7.5,7 7,7.4999997 7,8.1111107 V 15.888888 C 7,16.5 7.5,17 8.111111,17 h 7.777777 C 16.5,17 17,16.5 17,15.888888 Z m -6.722222,-2.788887 1.166667,1.405555 1.722222,-2.216667 c 0.111111,-0.144444 0.333333,-0.144444 0.444444,0.0055 l 1.95,2.6 c 0.138888,0.183333 0.0055,0.444444 -0.222222,0.444444 H 8.6777777 c -0.2333333,0 -0.3611111,-0.266666 -0.2166666,-0.449999 L 9.8444444,13.11104 C 9.95,12.966596 10.161111,12.96104 10.277778,13.09993 Z"
     id="path2"
     style="fill:#ffffff;fill-opacity:1;stroke-width:0.555555" />
</svg>
