<?xml version="1.0" encoding="UTF-8" standalone="no"?>
<svg
   height="24"
   viewBox="0 0 24 24"
   width="24"
   version="1.1"
   id="svg4"
   sodipodi:docname="emblem-package.svg"
   inkscape:version="1.1 (c68e22c387, 2021-05-23)"
   xmlns:inkscape="http://www.inkscape.org/namespaces/inkscape"
   xmlns:sodipodi="http://sodipodi.sourceforge.net/DTD/sodipodi-0.dtd"
   xmlns="http://www.w3.org/2000/svg"
   xmlns:svg="http://www.w3.org/2000/svg"
   xmlns:rdf="http://www.w3.org/1999/02/22-rdf-syntax-ns#"
   xmlns:cc="http://creativecommons.org/ns#"
   xmlns:dc="http://purl.org/dc/elements/1.1/">
  <metadata
     id="metadata10">
    <rdf:RDF>
      <cc:Work
         rdf:about="">
        <dc:format>image/svg+xml</dc:format>
        <dc:type
           rdf:resource="http://purl.org/dc/dcmitype/StillImage" />
      </cc:Work>
    </rdf:RDF>
  </metadata>
  <defs
     id="defs8" />
  <sodipodi:namedview
     pagecolor="#ffffff"
     bordercolor="#666666"
     borderopacity="1"
     objecttolerance="10"
     gridtolerance="10"
     guidetolerance="10"
     inkscape:pageopacity="0"
     inkscape:pageshadow="2"
     inkscape:window-width="1908"
     inkscape:window-height="2108"
     id="namedview6"
     showgrid="false"
     inkscape:zoom="39.833333"
     inkscape:cx="11.974895"
     inkscape:cy="12"
     inkscape:window-x="1924"
     inkscape:window-y="8"
     inkscape:window-maximized="0"
     inkscape:current-layer="svg4"
     inkscape:pagecheckerboard="0" />
  <ellipse
     style="fill:#ffffff;fill-opacity:1"
     id="path835"
     cx="11.587641"
     cy="11.497617"
     rx="9.1649179"
     ry="8.990696" />
  <path
     d="M 12,2 C 6.48,2 2,6.48 2,12 2,17.52 6.48,22 12,22 17.52,22 22,17.52 22,12 22,6.48 17.52,2 12,2 Z"
     id="path2"
     style="fill:#b388ff;fill-opacity:1"
     sodipodi:nodetypes="sssss" />
  <path
     d="m 12.6,14.4 h -1.2 c -0.33,0 -0.6,-0.27 -0.6,-0.6 H 6.6060001 v 2.4 c 0,0.66 0.54,1.2 1.2,1.2 H 16.2 c 0.66,0 1.2,-0.54 1.2,-1.2 v -2.4 h -4.2 c 0,0.33 -0.27,0.6 -0.6,0.6 z M 16.8,9 H 14.4 C 14.4,7.674 13.326,6.6 12,6.6 10.674,6.6 9.6000001,7.674 9.6000001,9 h -2.4 c -0.66,0 -1.2,0.54 -1.2,1.2 V 12 c 0,0.666 0.534,1.2 1.2,1.2 H 10.8 v -0.6 c 0,-0.33 0.27,-0.6 0.6,-0.6 h 1.2 c 0.33,0 0.6,0.27 0.6,0.6 v 0.6 h 3.6 C 17.46,13.2 18,12.66 18,12 V 10.2 C 18,9.54 17.46,9 16.8,9 Z m -6,0 c 0,-0.66 0.54,-1.2 1.2,-1.2 0.66,0 1.2,0.54 1.2,1.2 h -2.406 z"
     id="path2-3"
     style="fill:#ffffff;fill-opacity:1;stroke-width:0.6" />
</svg>
