<?xml version="1.0" encoding="UTF-8" standalone="no"?>
<svg
   enable-background="new 0 0 24 24"
   height="24px"
   viewBox="0 0 24 24"
   width="24px"
   fill="#000000"
   version="1.1"
   id="svg10"
   sodipodi:docname="emblem-documents.svg"
   inkscape:version="1.1 (c68e22c387, 2021-05-23)"
   xmlns:inkscape="http://www.inkscape.org/namespaces/inkscape"
   xmlns:sodipodi="http://sodipodi.sourceforge.net/DTD/sodipodi-0.dtd"
   xmlns="http://www.w3.org/2000/svg"
   xmlns:svg="http://www.w3.org/2000/svg">
  <defs
     id="defs14" />
  <sodipodi:namedview
     id="namedview12"
     pagecolor="#ffffff"
     bordercolor="#666666"
     borderopacity="1.0"
     inkscape:pageshadow="2"
     inkscape:pageopacity="0.0"
     inkscape:pagecheckerboard="0"
     showgrid="false"
     inkscape:zoom="26.487041"
     inkscape:cx="11.307416"
     inkscape:cy="14.66755"
     inkscape:window-width="1908"
     inkscape:window-height="1017"
     inkscape:window-x="3848"
     inkscape:window-y="1097"
     inkscape:window-maximized="0"
     inkscape:current-layer="svg10" />
  <circle
     style="fill:#ffffff;fill-opacity:1;stroke-width:0.5;stroke-linecap:round"
     id="path969"
     cx="12"
     cy="12"
     r="5.7168469" />
  <g
     id="g8"
     style="fill:#00bfa5;fill-opacity:1">
    <path
       d="M 12,2 C 6.48,2 2,6.48 2,12 2,17.52 6.48,22 12,22 17.52,22 22,17.52 22,12 22,6.48 17.52,2 12,2 Z"
       id="path6"
       style="fill:#00bfa5;fill-opacity:1"
       sodipodi:nodetypes="sssss" />
  </g>
  <g
     id="g4"
     style="fill:#00bfa5;fill-opacity:1"
     transform="translate(-17.897341,1.5672414)">
    <path
       d="m 30.897341,15.432759 h -5 c -0.55,0 -1,-0.45 -1,-1 0,-0.55 0.45,-1 1,-1 h 5 c 0.55,0 1,0.45 1,1 0,0.55 -0.45,1 -1,1 z m 3,-4 h -8 c -0.55,0 -1,-0.45 -1,-1 0,-0.5500004 0.45,-1.0000004 1,-1.0000004 h 8 c 0.55,0 1,0.45 1,1.0000004 0,0.55 -0.45,1 -1,1 z m 0,-4.0000004 h -8 c -0.55,0 -1,-0.45 -1,-1 0,-0.55 0.45,-1 1,-1 h 8 c 0.55,0 1,0.45 1,1 0,0.55 -0.45,1 -1,1 z"
       id="path2-3"
       style="fill:#ffffff;fill-opacity:1"
       sodipodi:nodetypes="sssssssssssssssssssss" />
  </g>
</svg>
