<?xml version="1.0" encoding="UTF-8" standalone="no"?>
<svg
   enable-background="new 0 0 24 24"
   height="24px"
   viewBox="0 0 24 24"
   width="24px"
   fill="#000000"
   version="1.1"
   id="svg10"
   sodipodi:docname="emblem-system.svg"
   inkscape:version="1.1 (c68e22c387, 2021-05-23)"
   xmlns:inkscape="http://www.inkscape.org/namespaces/inkscape"
   xmlns:sodipodi="http://sodipodi.sourceforge.net/DTD/sodipodi-0.dtd"
   xmlns="http://www.w3.org/2000/svg"
   xmlns:svg="http://www.w3.org/2000/svg">
  <defs
     id="defs14" />
  <sodipodi:namedview
     id="namedview12"
     pagecolor="#ffffff"
     bordercolor="#666666"
     borderopacity="1.0"
     inkscape:pageshadow="2"
     inkscape:pageopacity="0.0"
     inkscape:pagecheckerboard="0"
     showgrid="false"
     inkscape:zoom="37.458333"
     inkscape:cx="11.866518"
     inkscape:cy="12"
     inkscape:window-width="1908"
     inkscape:window-height="1017"
     inkscape:window-x="3848"
     inkscape:window-y="1097"
     inkscape:window-maximized="0"
     inkscape:current-layer="svg10" />
  <circle
     style="opacity:1;fill:#fdfefe;fill-opacity:1;stroke-width:0.5;stroke-linecap:round"
     id="path969"
     cx="12"
     cy="12"
     r="7.9087539" />
  <g
     id="g8"
     style="fill:#90a4ae;fill-opacity:1">
    <path
       d="M 12,2 C 6.49,2 2,6.49 2,12 2,17.51 6.49,22 12,22 17.51,22 22,17.51 22,12 22,6.49 17.51,2 12,2 Z"
       id="path6"
       style="fill:#90a4ae;fill-opacity:1"
       sodipodi:nodetypes="sssss" />
  </g>
  <path
     d="m 12,10.285714 c -0.942857,0 -1.714286,0.771429 -1.714286,1.714286 0,0.942857 0.771429,1.714286 1.714286,1.714286 0.942857,0 1.714286,-0.771429 1.714286,-1.714286 0,-0.942857 -0.771429,-1.714286 -1.714286,-1.714286 z M 16.5,12 c 0,0.197143 -0.01714,0.394286 -0.04286,0.582857 l 1.268571,0.994286 c 0.111429,0.09429 0.145714,0.257144 0.06857,0.385714 l -1.2,2.074287 c -0.07714,0.128571 -0.231429,0.18 -0.368572,0.128571 l -1.491428,-0.6 c -0.308572,0.24 -0.651429,0.437143 -1.011429,0.591429 l -0.222857,1.585713 C 13.474286,17.888573 13.345714,18 13.2,18 h -2.4 c -0.145714,0 -0.274286,-0.111427 -0.3,-0.24857 L 10.277143,16.165715 C 9.9085714,16.011429 9.5742857,15.814286 9.2657143,15.574287 l -1.4914286,0.6 c -0.1371429,0.05143 -0.2914286,0 -0.3685714,-0.128572 L 6.2057142,13.97143 c -0.077143,-0.128572 -0.042857,-0.291429 0.068572,-0.385715 L 7.5428571,12.591429 C 7.5171428,12.394286 7.5,12.197143 7.5,12 7.5,11.802857 7.517143,11.605714 7.542857,11.417143 L 6.2742857,10.422857 C 6.1628571,10.328571 6.1285714,10.165715 6.2057142,10.037143 L 7.4057143,7.9628573 C 7.4828573,7.8342859 7.6371428,7.7828574 7.7742857,7.8342859 L 9.2657143,8.434286 C 9.5742857,8.1942859 9.9171429,7.997143 10.277143,7.8428573 L 10.5,6.257143 c 0.02571,-0.1457143 0.154286,-0.2571429 0.3,-0.2571429 h 2.4 c 0.145714,0 0.274286,0.1114286 0.3,0.2485715 l 0.222857,1.5857143 c 0.368571,0.1542857 0.702857,0.3514285 1.011429,0.5914286 l 1.491428,-0.6 c 0.137143,-0.051429 0.291429,0 0.368572,0.1285714 l 1.2,2.0742861 c 0.07714,0.128571 0.04286,0.291428 -0.06857,0.385714 l -1.268571,0.994286 c 0.02571,0.197142 0.04286,0.394285 0.04286,0.591428 z"
     id="path2"
     style="fill:#fdfdfd;fill-opacity:1;stroke-width:0.857143"
     sodipodi:nodetypes="ssssssccccccccssccccccccsccccccccssccccccccs" />
</svg>
