<?xml version="1.0" encoding="UTF-8" standalone="no"?>
<svg
   enable-background="new 0 0 24 24"
   height="24px"
   viewBox="0 0 24 24"
   width="24px"
   fill="#000000"
   version="1.1"
   id="svg10"
   sodipodi:docname="emblem-mail.svg"
   inkscape:version="1.1 (c68e22c387, 2021-05-23)"
   xmlns:inkscape="http://www.inkscape.org/namespaces/inkscape"
   xmlns:sodipodi="http://sodipodi.sourceforge.net/DTD/sodipodi-0.dtd"
   xmlns="http://www.w3.org/2000/svg"
   xmlns:svg="http://www.w3.org/2000/svg">
  <defs
     id="defs14" />
  <sodipodi:namedview
     id="namedview12"
     pagecolor="#ffffff"
     bordercolor="#666666"
     borderopacity="1.0"
     inkscape:pageshadow="2"
     inkscape:pageopacity="0.0"
     inkscape:pagecheckerboard="0"
     showgrid="false"
     inkscape:zoom="37.458333"
     inkscape:cx="11.799778"
     inkscape:cy="11.986652"
     inkscape:window-width="1908"
     inkscape:window-height="2108"
     inkscape:window-x="8"
     inkscape:window-y="8"
     inkscape:window-maximized="0"
     inkscape:current-layer="svg10" />
  <circle
     style="opacity:1;fill:#fdfefe;fill-opacity:1;stroke-width:0.5;stroke-linecap:round"
     id="path969"
     cx="12"
     cy="12"
     r="7.9087539" />
  <g
     id="g8"
     style="fill:#90a4ae;fill-opacity:1">
    <path
       d="M 12,2 C 6.49,2 2,6.49 2,12 2,17.51 6.49,22 12,22 17.51,22 22,17.51 22,12 22,6.49 17.51,2 12,2 Z"
       id="path6"
       style="fill:#90a4ae;fill-opacity:1"
       sodipodi:nodetypes="sssss" />
  </g>
  <path
     d="m 17.994,9.6237747 c 0,-0.432 -0.222,-0.81 -0.564,-1.02 l -4.824,-2.826 c -0.372,-0.222 -0.84,-0.222 -1.212,0 l -4.824,2.826 c -0.342,0.21 -0.57,0.588 -0.57,1.02 v 6.0000003 c 0,0.66 0.5399999,1.2 1.1999999,1.2 H 16.8 c 0.66,0 1.2,-0.54 1.2,-1.2 z m -6.63,2.6040003 -4.32,-2.7000003 4.35,-2.55 c 0.372,-0.222 0.84,-0.222 1.212,0 l 4.35,2.55 -4.32,2.7000003 c -0.39,0.24 -0.882,0.24 -1.272,0 z"
     id="path4"
     style="fill:#ffffff;fill-opacity:1;stroke-width:0.6" />
</svg>
