<?xml version="1.0" encoding="UTF-8" standalone="no"?>
<svg
   xmlns:dc="http://purl.org/dc/elements/1.1/"
   xmlns:cc="http://creativecommons.org/ns#"
   xmlns:rdf="http://www.w3.org/1999/02/22-rdf-syntax-ns#"
   xmlns:svg="http://www.w3.org/2000/svg"
   xmlns="http://www.w3.org/2000/svg"
   xmlns:sodipodi="http://sodipodi.sourceforge.net/DTD/sodipodi-0.dtd"
   xmlns:inkscape="http://www.inkscape.org/namespaces/inkscape"
   version="1.1"
   id="mdi-lock"
   width="24"
   height="24"
   viewBox="0 0 24 24"
   sodipodi:docname="emblem-readonly.svg"
   inkscape:version="1.0.1 (3bc2e813f5, 2020-09-07)">
  <metadata
     id="metadata9">
    <rdf:RDF>
      <cc:Work
         rdf:about="">
        <dc:format>image/svg+xml</dc:format>
        <dc:type
           rdf:resource="http://purl.org/dc/dcmitype/StillImage" />
      </cc:Work>
    </rdf:RDF>
  </metadata>
  <defs
     id="defs7" />
  <sodipodi:namedview
     pagecolor="#ffffff"
     bordercolor="#666666"
     borderopacity="1"
     objecttolerance="10"
     gridtolerance="10"
     guidetolerance="10"
     inkscape:pageopacity="0"
     inkscape:pageshadow="2"
     inkscape:window-width="3824"
     inkscape:window-height="2084"
     id="namedview5"
     showgrid="false"
     inkscape:zoom="39.833333"
     inkscape:cx="6.7907947"
     inkscape:cy="12"
     inkscape:window-x="8"
     inkscape:window-y="36"
     inkscape:window-maximized="0"
     inkscape:current-layer="mdi-lock"
     inkscape:document-rotation="0" />
  <path
     d="M 12,2 C 6.48,2 2,6.48 2,12 2,17.52 6.48,22 12,22 17.52,22 22,17.52 22,12 22,6.48 17.52,2 12,2 Z"
     id="path2-3"
     style="fill:#263238;fill-opacity:1"
     sodipodi:nodetypes="sssss" />
  <path
     d="m 12,14.600201 a 1.1621385,1.1621385 0 0 0 1.162138,-1.162138 c 0,-0.644988 -0.522962,-1.162139 -1.162138,-1.162139 A 1.1621385,1.1621385 0 0 0 10.837862,13.438063 1.1621385,1.1621385 0 0 0 12,14.600201 m 3.486415,-5.229623 a 1.1621385,1.1621385 0 0 1 1.162139,1.162138 v 5.810693 a 1.1621385,1.1621385 0 0 1 -1.162139,1.162138 H 8.5135845 A 1.1621385,1.1621385 0 0 1 7.351446,16.343409 v -5.810693 c 0,-0.6449866 0.5229623,-1.162138 1.1621385,-1.162138 H 9.0946537 V 8.2084396 A 2.9053462,2.9053462 0 0 1 12,5.3030933 2.9053462,2.9053462 0 0 1 14.905346,8.2084396 V 9.370578 h 0.581069 M 12,6.4652319 A 1.7432077,1.7432077 0 0 0 10.256792,8.2084396 V 9.370578 h 3.486416 V 8.2084396 A 1.7432077,1.7432077 0 0 0 12,6.4652319 Z"
     id="path2"
     style="fill:#ffffff;fill-opacity:1;stroke-width:0.581069" />
</svg>
