<?xml version="1.0" encoding="UTF-8" standalone="no"?>
<svg
   height="24px"
   viewBox="0 0 24 24"
   width="24px"
   fill="#000000"
   version="1.1"
   id="svg4"
   sodipodi:docname="emblem-urgent.svg"
   inkscape:version="1.1 (c68e22c387, 2021-05-23)"
   xmlns:inkscape="http://www.inkscape.org/namespaces/inkscape"
   xmlns:sodipodi="http://sodipodi.sourceforge.net/DTD/sodipodi-0.dtd"
   xmlns="http://www.w3.org/2000/svg"
   xmlns:svg="http://www.w3.org/2000/svg">
  <defs
     id="defs8" />
  <sodipodi:namedview
     id="namedview6"
     pagecolor="#ffffff"
     bordercolor="#666666"
     borderopacity="1.0"
     inkscape:pageshadow="2"
     inkscape:pageopacity="0.0"
     inkscape:pagecheckerboard="0"
     showgrid="false"
     inkscape:zoom="26.487041"
     inkscape:cx="10.68447"
     inkscape:cy="11.968117"
     inkscape:window-width="1908"
     inkscape:window-height="1032"
     inkscape:window-x="8"
     inkscape:window-y="8"
     inkscape:window-maximized="0"
     inkscape:current-layer="svg4" />
  <ellipse
     style="opacity:1;fill:#ffffff;fill-opacity:1;stroke-width:0.5;stroke-linecap:round"
     id="path1415"
     cx="12"
     cy="12"
     rx="5.8024497"
     ry="9.3885612" />
  <path
     id="path2"
     d="M 11.871094,2 C 6.4105501,2.0692448 2,6.523125 2,12 2,17.52 6.48,22 12,22 17.52,22 22,17.52 22,12 22,6.48 17.52,2 12,2 11.956875,2 11.91409,1.9994548 11.871094,2 Z"
     style="fill:#ff9e80;fill-opacity:1"
     sodipodi:nodetypes="cssssc" />
  <path
     d="M 11.78,7 H 11.72 C 11.32,7 11,7.32 11,7.72 v 4.72 c 0,0.35 0.18,0.68 0.49,0.86 l 4.15,2.49 c 0.34,0.2 0.78,0.1 0.98,-0.24 0.21,-0.34 0.1,-0.79 -0.25,-0.99 L 12.5,12.26 V 7.72 C 12.5,7.32 12.18,7 11.78,7 Z"
     id="path2-6"
     sodipodi:nodetypes="sssscccccss"
     style="fill:#fffefe;fill-opacity:1" />
</svg>
