<?xml version="1.0" encoding="UTF-8" standalone="no"?>
<svg
   xmlns:dc="http://purl.org/dc/elements/1.1/"
   xmlns:cc="http://creativecommons.org/ns#"
   xmlns:rdf="http://www.w3.org/1999/02/22-rdf-syntax-ns#"
   xmlns:svg="http://www.w3.org/2000/svg"
   xmlns="http://www.w3.org/2000/svg"
   xmlns:sodipodi="http://sodipodi.sourceforge.net/DTD/sodipodi-0.dtd"
   xmlns:inkscape="http://www.inkscape.org/namespaces/inkscape"
   height="24"
   viewBox="0 0 24 24"
   width="24"
   version="1.1"
   id="svg4"
   sodipodi:docname="emblem-dialog-question.svg"
   inkscape:version="1.0.1 (3bc2e813f5, 2020-09-07)">
  <metadata
     id="metadata10">
    <rdf:RDF>
      <cc:Work
         rdf:about="">
        <dc:format>image/svg+xml</dc:format>
        <dc:type
           rdf:resource="http://purl.org/dc/dcmitype/StillImage" />
      </cc:Work>
    </rdf:RDF>
  </metadata>
  <defs
     id="defs8" />
  <sodipodi:namedview
     pagecolor="#ffffff"
     bordercolor="#666666"
     borderopacity="1"
     objecttolerance="10"
     gridtolerance="10"
     guidetolerance="10"
     inkscape:pageopacity="0"
     inkscape:pageshadow="2"
     inkscape:window-width="3824"
     inkscape:window-height="2084"
     id="namedview6"
     showgrid="false"
     inkscape:zoom="39.833333"
     inkscape:cx="12.050209"
     inkscape:cy="14.008368"
     inkscape:window-x="8"
     inkscape:window-y="36"
     inkscape:window-maximized="0"
     inkscape:current-layer="svg4"
     inkscape:document-rotation="0" />
  <ellipse
     style="fill:#ffffff;fill-opacity:1"
     id="path835"
     cx="11.596531"
     cy="11.49891"
     rx="7.7173324"
     ry="9.0910425" />
  <path
     d="M12 2C6.48 2 2 6.48 2 12s4.48 10 10 10 10-4.48 10-10S17.52 2 12 2zm1 17h-2v-2h2v2zm2.07-7.75l-.9.92c-.5.51-.86.97-1.04 1.69-.08.32-.13.68-.13 1.14h-2v-.5c0-.46.08-.9.22-1.31.2-.58.53-1.1.95-1.52l1.24-1.26c.46-.44.68-1.1.55-1.8-.13-.72-.69-1.33-1.39-1.53-1.11-.31-2.14.32-2.47 1.27-.12.37-.43.65-.82.65h-.3C8.4 9 8 8.44 8.16 7.88c.43-1.47 1.68-2.59 3.23-2.83 1.52-.24 2.97.55 3.87 1.8 1.18 1.63.83 3.38-.19 4.4z"
     id="path2"
     style="fill:#B388FF;fill-opacity:1" />
</svg>
