<?xml version="1.0" encoding="UTF-8" standalone="no"?>
<svg
   xmlns:dc="http://purl.org/dc/elements/1.1/"
   xmlns:cc="http://creativecommons.org/ns#"
   xmlns:rdf="http://www.w3.org/1999/02/22-rdf-syntax-ns#"
   xmlns:svg="http://www.w3.org/2000/svg"
   xmlns="http://www.w3.org/2000/svg"
   xmlns:sodipodi="http://sodipodi.sourceforge.net/DTD/sodipodi-0.dtd"
   xmlns:inkscape="http://www.inkscape.org/namespaces/inkscape"
   version="1.1"
   id="mdi-sync-circle"
   width="24"
   height="24"
   viewBox="0 0 24 24"
   sodipodi:docname="emblem-dropbox-syncing.svg"
   inkscape:version="1.0.1 (3bc2e813f5, 2020-09-07)">
  <metadata
     id="metadata9">
    <rdf:RDF>
      <cc:Work
         rdf:about="">
        <dc:format>image/svg+xml</dc:format>
        <dc:type
           rdf:resource="http://purl.org/dc/dcmitype/StillImage" />
      </cc:Work>
    </rdf:RDF>
  </metadata>
  <defs
     id="defs7" />
  <sodipodi:namedview
     pagecolor="#ffffff"
     bordercolor="#666666"
     borderopacity="1"
     objecttolerance="10"
     gridtolerance="10"
     guidetolerance="10"
     inkscape:pageopacity="0"
     inkscape:pageshadow="2"
     inkscape:window-width="1908"
     inkscape:window-height="1022"
     id="namedview5"
     showgrid="false"
     inkscape:zoom="39.833333"
     inkscape:cx="12.050209"
     inkscape:cy="12"
     inkscape:window-x="1924"
     inkscape:window-y="1098"
     inkscape:window-maximized="0"
     inkscape:current-layer="mdi-sync-circle" />
  <ellipse
     style="fill:#ffffff;fill-opacity:1"
     id="path834"
     cx="11.963428"
     cy="11.442259"
     rx="9.7236023"
     ry="9.2700281" />
  <path
     d="M2 12A10 10 0 1 0 12 2A10 10 0 0 0 2 12M15.6 13.72A4 4 0 0 0 16 12A4 4 0 0 0 12 8V10L8.88 7L12 4V6A6 6 0 0 1 18 12A5.9 5.9 0 0 1 17.07 15.19M6 12A5.9 5.9 0 0 1 6.93 8.81L8.4 10.28A4 4 0 0 0 8 12A4 4 0 0 0 12 16V14L15 17L12 20V18A6 6 0 0 1 6 12Z"
     id="path2"
     style="fill:#82B1FF;fill-opacity:1" />
</svg>
