<?xml version="1.0" encoding="UTF-8" standalone="no"?>
<svg
   version="1.1"
   id="mdi-share-circle"
   width="24"
   height="24"
   viewBox="0 0 24 24"
   sodipodi:docname="emblem-shared.svg"
   inkscape:version="1.1 (c68e22c387, 2021-05-23)"
   xmlns:inkscape="http://www.inkscape.org/namespaces/inkscape"
   xmlns:sodipodi="http://sodipodi.sourceforge.net/DTD/sodipodi-0.dtd"
   xmlns="http://www.w3.org/2000/svg"
   xmlns:svg="http://www.w3.org/2000/svg"
   xmlns:rdf="http://www.w3.org/1999/02/22-rdf-syntax-ns#"
   xmlns:cc="http://creativecommons.org/ns#"
   xmlns:dc="http://purl.org/dc/elements/1.1/">
  <metadata
     id="metadata9">
    <rdf:RDF>
      <cc:Work
         rdf:about="">
        <dc:format>image/svg+xml</dc:format>
        <dc:type
           rdf:resource="http://purl.org/dc/dcmitype/StillImage" />
      </cc:Work>
    </rdf:RDF>
  </metadata>
  <defs
     id="defs7" />
  <sodipodi:namedview
     pagecolor="#ffffff"
     bordercolor="#666666"
     borderopacity="1"
     objecttolerance="10"
     gridtolerance="10"
     guidetolerance="10"
     inkscape:pageopacity="0"
     inkscape:pageshadow="2"
     inkscape:window-width="1908"
     inkscape:window-height="1031"
     id="namedview5"
     showgrid="false"
     inkscape:zoom="39.833333"
     inkscape:cx="6.7405858"
     inkscape:cy="11.987448"
     inkscape:window-x="8"
     inkscape:window-y="1084"
     inkscape:window-maximized="0"
     inkscape:current-layer="mdi-share-circle"
     inkscape:document-rotation="0"
     inkscape:pagecheckerboard="0" />
  <ellipse
     style="fill:#ffffff;fill-opacity:1"
     id="path834"
     cx="11.733901"
     cy="11.117701"
     rx="9.111475"
     ry="8.5828953" />
  <path
     d="M 12,2 C 6.5,2 2,6.5 2,12 2,17.5 6.5,22 12,22 17.5,22 22,17.5 22,12 22,6.5 17.5,2 12,2"
     id="path2"
     style="fill:#00bfa5;fill-opacity:1"
     sodipodi:nodetypes="csssc" />
  <path
     d="M 14.091797,8.908202 V 7.7385694 c 0,-0.6547 0.794469,-0.9857281 1.257907,-0.5222887 l 3.376486,3.3764873 c 0.286891,0.286891 0.286891,0.75033 0,1.037221 l -3.376486,3.376486 c -0.463438,0.463439 -1.257907,0.139768 -1.257907,-0.514932 V 13.248348 C 10.413709,13.248348 7.8390449,14.425337 6,17 6.735618,13.32191 8.942472,9.6438201 14.091797,8.908202 Z"
     id="path4"
     style="fill:#ffffff;fill-opacity:1;stroke-width:0.735618" />
</svg>
