<?xml version="1.0" encoding="UTF-8" standalone="no"?>
<svg
   xmlns:dc="http://purl.org/dc/elements/1.1/"
   xmlns:cc="http://creativecommons.org/ns#"
   xmlns:rdf="http://www.w3.org/1999/02/22-rdf-syntax-ns#"
   xmlns:svg="http://www.w3.org/2000/svg"
   xmlns="http://www.w3.org/2000/svg"
   xmlns:sodipodi="http://sodipodi.sourceforge.net/DTD/sodipodi-0.dtd"
   xmlns:inkscape="http://www.inkscape.org/namespaces/inkscape"
   enable-background="new 0 0 24 24"
   height="24"
   viewBox="0 0 24 24"
   width="24"
   version="1.1"
   id="svg6"
   sodipodi:docname="emblem-documents.svg"
   inkscape:version="1.0.1 (3bc2e813f5, 2020-09-07)">
  <metadata
     id="metadata12">
    <rdf:RDF>
      <cc:Work
         rdf:about="">
        <dc:format>image/svg+xml</dc:format>
        <dc:type
           rdf:resource="http://purl.org/dc/dcmitype/StillImage" />
      </cc:Work>
    </rdf:RDF>
  </metadata>
  <defs
     id="defs10" />
  <sodipodi:namedview
     pagecolor="#ffffff"
     bordercolor="#666666"
     borderopacity="1"
     objecttolerance="10"
     gridtolerance="10"
     guidetolerance="10"
     inkscape:pageopacity="0"
     inkscape:pageshadow="2"
     inkscape:window-width="1908"
     inkscape:window-height="1022"
     id="namedview8"
     showgrid="false"
     inkscape:zoom="39.833333"
     inkscape:cx="12.050209"
     inkscape:cy="12"
     inkscape:window-x="1924"
     inkscape:window-y="1098"
     inkscape:window-maximized="0"
     inkscape:current-layer="svg6" />
  <rect
     style="fill:#ffffff;fill-opacity:1"
     id="rect837"
     width="13.876275"
     height="13.595932"
     x="4.851244"
     y="5.3009663" />
  <g
     id="g4"
     style="fill:#006064;fill-opacity:1">
    <path
       d="M19,3H5C3.9,3,3,3.9,3,5v14c0,1.1,0.9,2,2,2h14c1.1,0,2-0.9,2-2V5C21,3.9,20.1,3,19,3z M13,17H8c-0.55,0-1-0.45-1-1 c0-0.55,0.45-1,1-1h5c0.55,0,1,0.45,1,1C14,16.55,13.55,17,13,17z M16,13H8c-0.55,0-1-0.45-1-1c0-0.55,0.45-1,1-1h8 c0.55,0,1,0.45,1,1C17,12.55,16.55,13,16,13z M16,9H8C7.45,9,7,8.55,7,8c0-0.55,0.45-1,1-1h8c0.55,0,1,0.45,1,1 C17,8.55,16.55,9,16,9z"
       id="path2"
       style="fill:#006064;fill-opacity:1" />
  </g>
</svg>
