<?xml version="1.0" encoding="UTF-8" standalone="no"?>
<svg
   enable-background="new 0 0 24 24"
   height="24px"
   viewBox="0 0 24 24"
   width="24px"
   fill="#000000"
   version="1.1"
   id="svg10"
   sodipodi:docname="download_for_offline_black_24dp.svg"
   inkscape:version="1.1 (c68e22c387, 2021-05-23)"
   xmlns:inkscape="http://www.inkscape.org/namespaces/inkscape"
   xmlns:sodipodi="http://sodipodi.sourceforge.net/DTD/sodipodi-0.dtd"
   xmlns="http://www.w3.org/2000/svg"
   xmlns:svg="http://www.w3.org/2000/svg">
  <defs
     id="defs14" />
  <sodipodi:namedview
     id="namedview12"
     pagecolor="#ffffff"
     bordercolor="#666666"
     borderopacity="1.0"
     inkscape:pageshadow="2"
     inkscape:pageopacity="0.0"
     inkscape:pagecheckerboard="0"
     showgrid="false"
     inkscape:zoom="37.458333"
     inkscape:cx="11.946607"
     inkscape:cy="12"
     inkscape:window-width="1908"
     inkscape:window-height="1017"
     inkscape:window-x="5764"
     inkscape:window-y="1097"
     inkscape:window-maximized="0"
     inkscape:current-layer="svg10" />
  <circle
     style="opacity:1;fill:#fdfefe;fill-opacity:1;stroke-width:0.5;stroke-linecap:round"
     id="path969"
     cx="12"
     cy="12"
     r="7.9087539" />
  <g
     id="g8"
     style="fill:#90a4ae;fill-opacity:1">
    <path
       d="M12,2C6.49,2,2,6.49,2,12s4.49,10,10,10s10-4.49,10-10S17.51,2,12,2z M11,10V7c0-0.55,0.45-1,1-1h0c0.55,0,1,0.45,1,1v3 h1.79c0.45,0,0.67,0.54,0.35,0.85l-2.79,2.79c-0.2,0.2-0.51,0.2-0.71,0l-2.79-2.79C8.54,10.54,8.76,10,9.21,10H11z M16,17H8 c-0.55,0-1-0.45-1-1v0c0-0.55,0.45-1,1-1h8c0.55,0,1,0.45,1,1v0C17,16.55,16.55,17,16,17z"
       id="path6"
       style="fill:#90a4ae;fill-opacity:1" />
  </g>
</svg>
