<?xml version="1.0" encoding="UTF-8" standalone="no"?>
<svg
   xmlns:dc="http://purl.org/dc/elements/1.1/"
   xmlns:cc="http://creativecommons.org/ns#"
   xmlns:rdf="http://www.w3.org/1999/02/22-rdf-syntax-ns#"
   xmlns:svg="http://www.w3.org/2000/svg"
   xmlns="http://www.w3.org/2000/svg"
   xmlns:sodipodi="http://sodipodi.sourceforge.net/DTD/sodipodi-0.dtd"
   xmlns:inkscape="http://www.inkscape.org/namespaces/inkscape"
   version="1.1"
   id="mdi-heart-circle"
   width="24"
   height="24"
   viewBox="0 0 24 24"
   sodipodi:docname="emblem-favorite.svg"
   inkscape:version="1.0.1 (3bc2e813f5, 2020-09-07)">
  <metadata
     id="metadata9">
    <rdf:RDF>
      <cc:Work
         rdf:about="">
        <dc:format>image/svg+xml</dc:format>
        <dc:type
           rdf:resource="http://purl.org/dc/dcmitype/StillImage" />
      </cc:Work>
    </rdf:RDF>
  </metadata>
  <defs
     id="defs7" />
  <sodipodi:namedview
     pagecolor="#ffffff"
     bordercolor="#666666"
     borderopacity="1"
     objecttolerance="10"
     gridtolerance="10"
     guidetolerance="10"
     inkscape:pageopacity="0"
     inkscape:pageshadow="2"
     inkscape:window-width="1908"
     inkscape:window-height="1022"
     id="namedview5"
     showgrid="false"
     inkscape:zoom="39.833333"
     inkscape:cx="12.050209"
     inkscape:cy="12"
     inkscape:window-x="1924"
     inkscape:window-y="1098"
     inkscape:window-maximized="0"
     inkscape:current-layer="mdi-heart-circle" />
  <ellipse
     style="fill:#fffdfd;fill-opacity:1"
     id="path834"
     cx="11.036635"
     cy="11.144312"
     rx="7.9946637"
     ry="7.0854874" />
  <path
     d="M12,2C6.47,2 2,6.5 2,12A10,10 0 0,0 12,22A10,10 0 0,0 22,12A10,10 0 0,0 12,2M9.75,7.82C10.62,7.82 11.45,8.23 12,8.87C12.55,8.23 13.38,7.82 14.25,7.82C15.79,7.82 17,9.03 17,10.57C17,12.46 15.3,14 12.72,16.34L12,17L11.28,16.34C8.7,14 7,12.46 7,10.57C7,9.03 8.21,7.82 9.75,7.82Z"
     id="path2"
     style="fill:#b71c1c;fill-opacity:1" />
</svg>
