<?xml version="1.0" encoding="UTF-8" standalone="no"?>
<svg
   xmlns:dc="http://purl.org/dc/elements/1.1/"
   xmlns:cc="http://creativecommons.org/ns#"
   xmlns:rdf="http://www.w3.org/1999/02/22-rdf-syntax-ns#"
   xmlns:svg="http://www.w3.org/2000/svg"
   xmlns="http://www.w3.org/2000/svg"
   xmlns:sodipodi="http://sodipodi.sourceforge.net/DTD/sodipodi-0.dtd"
   xmlns:inkscape="http://www.inkscape.org/namespaces/inkscape"
   version="1.1"
   width="24"
   height="24"
   viewBox="0 0 24 24"
   id="svg4"
   sodipodi:docname="libreoffice-calc.svg"
   inkscape:version="1.0.2 (e86c870879, 2021-01-15)">
  <metadata
     id="metadata10">
    <rdf:RDF>
      <cc:Work
         rdf:about="">
        <dc:format>image/svg+xml</dc:format>
        <dc:type
           rdf:resource="http://purl.org/dc/dcmitype/StillImage" />
      </cc:Work>
    </rdf:RDF>
  </metadata>
  <defs
     id="defs8" />
  <sodipodi:namedview
     pagecolor="#ffffff"
     bordercolor="#666666"
     borderopacity="1"
     objecttolerance="10"
     gridtolerance="10"
     guidetolerance="10"
     inkscape:pageopacity="0"
     inkscape:pageshadow="2"
     inkscape:window-width="1972"
     inkscape:window-height="1036"
     id="namedview6"
     showgrid="false"
     inkscape:zoom="39.833333"
     inkscape:cx="10.891946"
     inkscape:cy="11.212985"
     inkscape:window-x="1860"
     inkscape:window-y="1084"
     inkscape:window-maximized="0"
     inkscape:current-layer="svg4"
     inkscape:document-rotation="0" />
  <path fill="#afafaf"
     id="path2"
     d="M 7.8300781 3.25 C 7.6100781 3.25 7.4135677 3.3333333 7.2402344 3.5 C 7.0802344 3.66 7 3.8534114 7 4.0800781 L 7 7 L 2.8300781 7 C 2.6100781 7 2.4135677 7.0802344 2.2402344 7.2402344 C 2.0802344 7.4135677 2 7.6100781 2 7.8300781 L 2 16.169922 C 2 16.389922 2.0802344 16.586433 2.2402344 16.759766 C 2.4135677 16.919766 2.6100781 17 2.8300781 17 L 7 17 L 7 19.919922 C 7 20.146589 7.0802344 20.34 7.2402344 20.5 C 7.4135677 20.666667 7.6100781 20.75 7.8300781 20.75 L 21.169922 20.75 C 21.389922 20.75 21.586433 20.666667 21.759766 20.5 C 21.919766 20.34 22 20.146589 22 19.919922 L 22 4.0800781 C 22 3.8534114 21.919766 3.66 21.759766 3.5 C 21.586433 3.333333 21.389922 3.25 21.169922 3.25 L 7.8300781 3.25 z M 8.25 4.5 L 13.880859 4.5 L 13.880859 7 L 8.25 7 L 8.25 4.5 z M 15.130859 4.5 L 20.75 4.5 L 20.75 7 L 15.130859 7 L 15.130859 4.5 z M 12 8.25 L 13.880859 8.25 L 13.880859 11.380859 L 12 11.380859 L 12 8.25 z M 15.130859 8.25 L 20.75 8.25 L 20.75 11.380859 L 15.130859 11.380859 L 15.130859 8.25 z M 7.0351562 8.5214844 C 9.0049053 8.5214844 9.8036601 9.8765243 9.8769531 10.847656 L 8.5039062 10.847656 C 8.3939667 10.453707 8.1809632 9.7128906 7.0449219 9.7128906 C 6.385285 9.7128906 5.4140625 10.149956 5.4140625 12.009766 C 5.4140625 13.191614 5.8813957 14.255859 7.0449219 14.255859 C 7.8053366 14.255859 8.338997 13.825753 8.5039062 13.019531 L 9.8769531 13.019531 C 9.6021043 14.448744 8.6666703 15.447265 7.0175781 15.447266 C 5.267708 15.447266 4.0136719 14.26427 4.0136719 11.992188 C 4.0136719 9.6926194 5.3402559 8.5214842 7.0351562 8.5214844 z M 12 12.630859 L 13.880859 12.630859 L 13.880859 15.75 L 12 15.75 L 12 12.630859 z M 15.130859 12.630859 L 20.75 12.630859 L 20.75 15.75 L 15.130859 15.75 L 15.130859 12.630859 z M 8.25 17 L 13.880859 17 L 13.880859 19.5 L 8.25 19.5 L 8.25 17 z M 15.130859 17 L 20.75 17 L 20.75 19.5 L 15.130859 19.5 L 15.130859 17 z " />
</svg>
