<?xml version="1.0" encoding="UTF-8" standalone="no"?>
<svg
   xmlns:dc="http://purl.org/dc/elements/1.1/"
   xmlns:cc="http://creativecommons.org/ns#"
   xmlns:rdf="http://www.w3.org/1999/02/22-rdf-syntax-ns#"
   xmlns:svg="http://www.w3.org/2000/svg"
   xmlns="http://www.w3.org/2000/svg"
   xmlns:sodipodi="http://sodipodi.sourceforge.net/DTD/sodipodi-0.dtd"
   xmlns:inkscape="http://www.inkscape.org/namespaces/inkscape"
   version="1.1"
   width="24"
   height="24"
   viewBox="0 0 24 24"
   id="svg4"
   sodipodi:docname="libreoffice34-base.svg"
   inkscape:version="1.0.2 (e86c870879, 2021-01-15)">
  <metadata
     id="metadata10">
    <rdf:RDF>
      <cc:Work
         rdf:about="">
        <dc:format>image/svg+xml</dc:format>
        <dc:type
           rdf:resource="http://purl.org/dc/dcmitype/StillImage" />
      </cc:Work>
    </rdf:RDF>
  </metadata>
  <defs
     id="defs8" />
  <sodipodi:namedview
     pagecolor="#ffffff"
     bordercolor="#666666"
     borderopacity="1"
     objecttolerance="10"
     gridtolerance="10"
     guidetolerance="10"
     inkscape:pageopacity="0"
     inkscape:pageshadow="2"
     inkscape:window-width="2036"
     inkscape:window-height="1022"
     id="namedview6"
     showgrid="false"
     inkscape:zoom="39.833333"
     inkscape:cx="12.050209"
     inkscape:cy="10.474887"
     inkscape:window-x="3848"
     inkscape:window-y="1098"
     inkscape:window-maximized="0"
     inkscape:current-layer="svg4" />
  <path fill="#909090"
     id="path2"
     d="M 14.5 2.6308594 C 13.6 2.6308594 12.710078 2.676198 11.830078 2.7695312 C 11.670078 2.7895312 11.440625 2.819375 11.140625 2.859375 C 10.847292 2.9060417 10.523255 2.9657292 10.169922 3.0390625 C 9.8099219 3.1123958 9.4436458 3.2038802 9.0703125 3.3105469 C 8.6903125 3.4172136 8.3507812 3.5427864 8.0507812 3.6894531 C 7.7441145 3.8361198 7.4890625 4.0027864 7.2890625 4.1894531 C 7.0957292 4.3761198 7 4.5838802 7 4.8105469 L 7 7 L 2.8300781 7 C 2.6100781 7 2.4135677 7.0802344 2.2402344 7.2402344 C 2.0802344 7.4135677 2 7.6100781 2 7.8300781 L 2 16.169922 C 2 16.389922 2.0802344 16.586433 2.2402344 16.759766 C 2.4135677 16.919766 2.6100781 17 2.8300781 17 L 7 17 L 7 19.189453 C 7 19.41612 7.0957292 19.62388 7.2890625 19.810547 C 7.4890625 19.997214 7.7441145 20.16388 8.0507812 20.310547 C 8.3507813 20.457214 8.6903125 20.582786 9.0703125 20.689453 C 9.4436458 20.79612 9.806823 20.887604 10.160156 20.960938 C 10.520156 21.03427 10.850391 21.093955 11.150391 21.140625 C 11.443724 21.187295 11.66698 21.217139 11.820312 21.230469 C 12.706979 21.330469 13.6 21.380859 14.5 21.380859 C 15.393333 21.380859 16.283255 21.330469 17.169922 21.230469 C 17.329922 21.217139 17.559375 21.187295 17.859375 21.140625 C 18.152708 21.093958 18.476745 21.034267 18.830078 20.960938 C 19.190078 20.887605 19.556355 20.79612 19.929688 20.689453 C 20.309688 20.582786 20.65427 20.457214 20.960938 20.310547 C 21.260938 20.16388 21.510938 19.997214 21.710938 19.810547 C 21.904268 19.62388 22 19.41612 22 19.189453 L 22 4.8105469 C 22 4.5838802 21.90427 4.3761198 21.710938 4.1894531 C 21.517605 4.0027864 21.267605 3.8361198 20.960938 3.6894531 C 20.654271 3.5427864 20.309687 3.4172136 19.929688 3.3105469 C 19.556355 3.2038802 19.193177 3.1123955 18.839844 3.0390625 C 18.479844 2.9657292 18.149609 2.906042 17.849609 2.859375 L 17.179688 2.7695312 C 16.286354 2.6761983 15.393333 2.6308594 14.5 2.6308594 z M 14.5 3.8808594 C 14.926667 3.8808594 15.399922 3.8932552 15.919922 3.9199219 C 16.439922 3.9465886 16.966667 3.9969792 17.5 4.0703125 C 18.04 4.1436458 18.563645 4.239375 19.070312 4.359375 C 19.576979 4.479375 20.026589 4.6305469 20.419922 4.8105469 C 20.013255 5.0038802 19.560547 5.1592969 19.060547 5.2792969 C 18.55388 5.3992969 18.033333 5.4938799 17.5 5.5605469 C 16.973333 5.6272139 16.449687 5.6776045 15.929688 5.7109375 C 15.416355 5.7376045 14.94 5.75 14.5 5.75 C 14.066667 5.75 13.590312 5.7376045 13.070312 5.7109375 C 12.550312 5.6776042 12.026667 5.6272139 11.5 5.5605469 C 10.966667 5.4938802 10.449219 5.3992969 9.9492188 5.2792969 C 9.442552 5.1592969 8.9867448 5.0038802 8.5800781 4.8105469 C 8.9734114 4.6305469 9.4230208 4.479375 9.9296875 4.359375 C 10.436355 4.239375 10.96 4.1436455 11.5 4.0703125 C 12.033333 3.9969795 12.560078 3.9465889 13.080078 3.9199219 C 13.606745 3.8932549 14.08 3.8808594 14.5 3.8808594 z M 8.25 6 C 8.6766667 6.2066667 9.1561198 6.3733333 9.6894531 6.5 C 10.229453 6.62 10.776745 6.7157292 11.330078 6.7890625 C 11.890078 6.8623958 12.446667 6.9158855 13 6.9492188 C 13.54 6.982552 14.04 7 14.5 7 C 14.96 7 15.46 6.982552 16 6.9492188 C 16.553333 6.9158855 17.109922 6.8623958 17.669922 6.7890625 C 18.223255 6.7157292 18.770547 6.62 19.310547 6.5 C 19.84388 6.3733333 20.323333 6.2066667 20.75 6 L 20.75 9.6308594 C 20.543333 9.7775261 20.280938 9.9 19.960938 10 C 19.65427 10.12 19.300391 10.223877 18.900391 10.310547 C 18.520391 10.397214 18.119219 10.46 17.699219 10.5 C 17.285886 10.56667 16.886667 10.620156 16.5 10.660156 C 16.1 10.693486 15.727526 10.717139 15.380859 10.730469 C 15.034192 10.743769 14.74 10.75 14.5 10.75 C 14.086667 10.75 13.67 10.740703 13.25 10.720703 C 12.836667 10.700703 12.42 10.665811 12 10.619141 L 12 7.8300781 C 12 7.6100781 11.919766 7.4135677 11.759766 7.2402344 C 11.586433 7.0802344 11.389922 7 11.169922 7 L 8.25 7 L 8.25 6 z M 4.3261719 8.6894531 L 7.5488281 8.6894531 C 9.1740811 8.6894531 9.5898437 9.705327 9.5898438 10.388672 C 9.5898438 11.339815 9.0543757 11.609531 8.7773438 11.748047 C 9.5899697 12.052782 9.8007812 12.697874 9.8007812 13.353516 C 9.8007812 13.879876 9.5813758 14.377077 9.2304688 14.71875 C 8.8518587 15.088126 8.4902679 15.320312 7.1328125 15.320312 L 4.3261719 15.320312 L 4.3261719 8.6894531 z M 5.65625 9.8359375 L 5.65625 11.285156 L 7.28125 11.285156 C 7.826079 11.285156 8.2597656 11.071283 8.2597656 10.544922 C 8.2597656 10.000093 7.8720796 9.8359375 7.2441406 9.8359375 L 5.65625 9.8359375 z M 20.75 11 L 20.75 14.630859 C 20.55 14.777526 20.287605 14.9 19.960938 15 C 19.65427 15.12 19.300391 15.223877 18.900391 15.310547 C 18.520391 15.397214 18.119219 15.46 17.699219 15.5 C 17.285886 15.56667 16.886667 15.620156 16.5 15.660156 C 16.1 15.693486 15.727526 15.717139 15.380859 15.730469 C 15.034192 15.743769 14.74 15.75 14.5 15.75 C 14.086667 15.75 13.67 15.740703 13.25 15.720703 C 12.836667 15.700703 12.42 15.665811 12 15.619141 L 12 11.869141 C 12.42 11.909141 12.836667 11.944033 13.25 11.970703 C 13.67 11.990703 14.086667 12 14.5 12 C 14.96 12 15.46 11.982549 16 11.949219 C 16.553333 11.915886 17.109922 11.862393 17.669922 11.789062 C 18.223255 11.715729 18.770547 11.62 19.310547 11.5 C 19.84388 11.373333 20.323333 11.206667 20.75 11 z M 5.65625 12.402344 L 5.65625 14.175781 L 7.3554688 14.175781 C 8.0295797 14.175781 8.4160156 13.879189 8.4160156 13.205078 C 8.4160156 12.623311 7.9185789 12.402344 7.4199219 12.402344 L 5.65625 12.402344 z M 20.75 16 L 20.75 19 C 20.563333 19.14 20.313333 19.267526 20 19.380859 C 19.666667 19.500859 19.309687 19.599688 18.929688 19.679688 C 18.543021 19.766354 18.137604 19.840391 17.710938 19.900391 C 17.290937 19.967061 16.886667 20.009297 16.5 20.029297 C 16.086667 20.069297 15.706042 20.092909 15.359375 20.099609 C 15.012708 20.112939 14.726667 20.124159 14.5 20.130859 C 14.273333 20.130859 13.987292 20.122705 13.640625 20.109375 C 13.293958 20.096045 12.913333 20.069297 12.5 20.029297 C 12.113333 20.009297 11.709062 19.967061 11.289062 19.900391 C 10.862395 19.840391 10.456979 19.766358 10.070312 19.679688 C 9.6903125 19.599687 9.3333333 19.500859 9 19.380859 C 8.6866667 19.267526 8.4366667 19.14 8.25 19 L 8.25 17 L 11.169922 17 C 11.349922 17 11.516589 16.943411 11.669922 16.830078 C 12.136589 16.883408 12.606745 16.927608 13.080078 16.960938 C 13.553411 16.987608 14.026667 17 14.5 17 C 14.96 17 15.46 16.982549 16 16.949219 C 16.553333 16.915886 17.109922 16.862392 17.669922 16.789062 C 18.223255 16.71573 18.770547 16.62 19.310547 16.5 C 19.84388 16.373333 20.323333 16.206667 20.75 16 z " />
</svg>
