<?xml version="1.0" encoding="UTF-8" standalone="no"?>
<svg
   xmlns:dc="http://purl.org/dc/elements/1.1/"
   xmlns:cc="http://creativecommons.org/ns#"
   xmlns:rdf="http://www.w3.org/1999/02/22-rdf-syntax-ns#"
   xmlns:svg="http://www.w3.org/2000/svg"
   xmlns="http://www.w3.org/2000/svg"
   xmlns:sodipodi="http://sodipodi.sourceforge.net/DTD/sodipodi-0.dtd"
   xmlns:inkscape="http://www.inkscape.org/namespaces/inkscape"
   enable-background="new 0 0 24 24"
   height="24px"
   viewBox="0 0 24 24"
   width="24px"
   
   version="1.1"
   id="svg24"
   sodipodi:docname="palette_black_24dp.svg"
   inkscape:version="1.0.2 (e86c870879, 2021-01-15)">
  <metadata
     id="metadata30">
    <rdf:RDF>
      <cc:Work
         rdf:about="">
        <dc:format>image/svg+xml</dc:format>
        <dc:type
           rdf:resource="http://purl.org/dc/dcmitype/StillImage" />
      </cc:Work>
    </rdf:RDF>
  </metadata>
  <defs
     id="defs28" />
  <sodipodi:namedview
     pagecolor="#ffffff"
     bordercolor="#666666"
     borderopacity="1"
     objecttolerance="10"
     gridtolerance="10"
     guidetolerance="10"
     inkscape:pageopacity="0"
     inkscape:pageshadow="2"
     inkscape:window-width="1908"
     inkscape:window-height="2107"
     id="namedview26"
     showgrid="false"
     inkscape:zoom="42"
     inkscape:cx="12"
     inkscape:cy="12"
     inkscape:window-x="1924"
     inkscape:window-y="8"
     inkscape:window-maximized="0"
     inkscape:current-layer="svg24" />
  <g
     id="g22">
    <g
       id="g20">
      <g
         id="g18">
        <g
           id="g16">
          <path fill="#afafaf"
             d="M12,22C6.49,22,2,17.51,2,12S6.49,2,12,2s10,4.04,10,9c0,3.31-2.69,6-6,6h-1.77c-0.28,0-0.5,0.22-0.5,0.5 c0,0.12,0.05,0.23,0.13,0.33c0.41,0.47,0.64,1.06,0.64,1.67C14.5,20.88,13.38,22,12,22z M12,4c-4.41,0-8,3.59-8,8s3.59,8,8,8 c0.28,0,0.5-0.22,0.5-0.5c0-0.16-0.08-0.28-0.14-0.35c-0.41-0.46-0.63-1.05-0.63-1.65c0-1.38,1.12-2.5,2.5-2.5H16 c2.21,0,4-1.79,4-4C20,7.14,16.41,4,12,4z"
             id="path6" />
          <circle fill="#afafaf"
             cx="6.5"
             cy="11.5"
             r="1.5"
             id="circle8" />
          <circle fill="#afafaf"
             cx="9.5"
             cy="7.5"
             r="1.5"
             id="circle10" />
          <circle fill="#afafaf"
             cx="14.5"
             cy="7.5"
             r="1.5"
             id="circle12" />
          <circle fill="#afafaf"
             cx="17.5"
             cy="11.5"
             r="1.5"
             id="circle14" />
        </g>
      </g>
    </g>
  </g>
</svg>
