<?xml version="1.0" encoding="UTF-8" standalone="no"?>
<svg
   enable-background="new 0 0 24 24"
   height="24px"
   viewBox="0 0 24 24"
   width="24px"
   
   version="1.1"
   id="svg24"
   sodipodi:docname="preferences-color.svg"
   inkscape:version="1.1 (c68e22c387, 2021-05-23)"
   xmlns:inkscape="http://www.inkscape.org/namespaces/inkscape"
   xmlns:sodipodi="http://sodipodi.sourceforge.net/DTD/sodipodi-0.dtd"
   xmlns="http://www.w3.org/2000/svg"
   xmlns:svg="http://www.w3.org/2000/svg">
  <defs
     id="defs28" />
  <sodipodi:namedview
     id="namedview26"
     pagecolor="#ffffff"
     bordercolor="#666666"
     borderopacity="1.0"
     inkscape:pageshadow="2"
     inkscape:pageopacity="0.0"
     inkscape:pagecheckerboard="0"
     showgrid="false"
     inkscape:zoom="30.458333"
     inkscape:cx="12.016416"
     inkscape:cy="12.016416"
     inkscape:window-width="1920"
     inkscape:window-height="1024"
     inkscape:window-x="0"
     inkscape:window-y="0"
     inkscape:window-maximized="1"
     inkscape:current-layer="svg24" />
  <g
     id="g22">
    <g
       id="g20">
      <g
         id="g18">
        <g
           id="g16">
          <path fill="#909090"
             d="M12,22C6.49,22,2,17.51,2,12S6.49,2,12,2s10,4.04,10,9c0,3.31-2.69,6-6,6h-1.77c-0.28,0-0.5,0.22-0.5,0.5 c0,0.12,0.05,0.23,0.13,0.33c0.41,0.47,0.64,1.06,0.64,1.67C14.5,20.88,13.38,22,12,22z M12,4c-4.41,0-8,3.59-8,8s3.59,8,8,8 c0.28,0,0.5-0.22,0.5-0.5c0-0.16-0.08-0.28-0.14-0.35c-0.41-0.46-0.63-1.05-0.63-1.65c0-1.38,1.12-2.5,2.5-2.5H16 c2.21,0,4-1.79,4-4C20,7.14,16.41,4,12,4z"
             id="path6" />
          <circle fill="#909090"
             cx="6.5"
             cy="11.5"
             r="1.5"
             id="circle8" />
          <circle fill="#909090"
             cx="9.5"
             cy="7.5"
             r="1.5"
             id="circle10" />
          <circle fill="#909090"
             cx="14.5"
             cy="7.5"
             r="1.5"
             id="circle12" />
          <circle fill="#909090"
             cx="17.5"
             cy="11.5"
             r="1.5"
             id="circle14" />
        </g>
      </g>
    </g>
  </g>
</svg>
