<?xml version="1.0" encoding="UTF-8" standalone="no"?>
<svg
   xmlns:dc="http://purl.org/dc/elements/1.1/"
   xmlns:cc="http://creativecommons.org/ns#"
   xmlns:rdf="http://www.w3.org/1999/02/22-rdf-syntax-ns#"
   xmlns:svg="http://www.w3.org/2000/svg"
   xmlns="http://www.w3.org/2000/svg"
   xmlns:sodipodi="http://sodipodi.sourceforge.net/DTD/sodipodi-0.dtd"
   xmlns:inkscape="http://www.inkscape.org/namespaces/inkscape"
   version="1.1"
   id="mdi-android-messages"
   width="24"
   height="24"
   viewBox="0 0 24 24"
   sodipodi:docname="chat.svg"
   inkscape:version="1.0.2 (e86c870879, 2021-01-15)">
  <metadata
     id="metadata9">
    <rdf:RDF>
      <cc:Work
         rdf:about="">
        <dc:format>image/svg+xml</dc:format>
        <dc:type
           rdf:resource="http://purl.org/dc/dcmitype/StillImage" />
      </cc:Work>
    </rdf:RDF>
  </metadata>
  <defs
     id="defs7" />
  <sodipodi:namedview
     pagecolor="#ffffff"
     bordercolor="#666666"
     borderopacity="1"
     objecttolerance="10"
     gridtolerance="10"
     guidetolerance="10"
     inkscape:pageopacity="0"
     inkscape:pageshadow="2"
     inkscape:window-width="1908"
     inkscape:window-height="2107"
     id="namedview5"
     showgrid="false"
     inkscape:zoom="42"
     inkscape:cx="12"
     inkscape:cy="12"
     inkscape:window-x="8"
     inkscape:window-y="8"
     inkscape:window-maximized="0"
     inkscape:current-layer="mdi-android-messages" />
  <path fill="#484848"
     id="path2"
     d="M 3 4 A 1 1 0 0 0 2 5 C 2 5.24 2.0904687 5.470625 2.2304688 5.640625 L 5 8.9394531 L 5 18 A 2 2 0 0 0 7 20 L 20 20 A 2 2 0 0 0 20.070312 19.998047 L 13.072266 13 L 8.5 13 A 0.5 0.5 0 0 1 8 12.5 L 8 11.5 A 0.5 0.5 0 0 1 8.5 11 L 11.072266 11 L 9.0722656 9 L 8.5 9 A 0.5 0.5 0 0 1 8 8.5 L 8 7.9277344 L 4.0722656 4 L 3 4 z M 6.8925781 4 L 9.8925781 7 L 18.5 7 A 0.5 0.5 0 0 1 19 7.5 L 19 8.5 A 0.5 0.5 0 0 1 18.5 9 L 11.892578 9 L 13.892578 11 L 18.5 11 A 0.5 0.5 0 0 1 19 11.5 L 19 12.5 A 0.5 0.5 0 0 1 18.5 13 L 15.892578 13 L 21.787109 18.894531 A 2 2 0 0 0 22 18 L 22 6 A 2 2 0 0 0 20 4 L 6.8925781 4 z M 8.4882812 15 A 0.5 0.5 0 0 1 8.5 15 L 13.5 15 A 0.5 0.5 0 0 1 14 15.5 L 14 16.5 A 0.5 0.5 0 0 1 13.5 17 L 8.5 17 A 0.5 0.5 0 0 1 8 16.5 L 8 15.5 A 0.5 0.5 0 0 1 8.4882812 15 z " />
  <g
     id="g4"
     transform="translate(-0.02343586,-0.11418758)">
    <path fill="#484848"
       d="M 20.49,20.49 3.51,3.51 C 3.12,3.12 2.49,3.12 2.1,3.51 1.71,3.9 1.71,4.53 2.1,4.92 L 19.08,21.9 c 0.39,0.39 1.02,0.39 1.41,0 0.39,-0.39 0.39,-1.02 0,-1.41 z"
       id="path2-3"
       sodipodi:nodetypes="sssccss" />
  </g>
</svg>
