<?xml version="1.0" encoding="UTF-8" standalone="no"?>
<svg
   xmlns:dc="http://purl.org/dc/elements/1.1/"
   xmlns:cc="http://creativecommons.org/ns#"
   xmlns:rdf="http://www.w3.org/1999/02/22-rdf-syntax-ns#"
   xmlns:svg="http://www.w3.org/2000/svg"
   xmlns="http://www.w3.org/2000/svg"
   xmlns:sodipodi="http://sodipodi.sourceforge.net/DTD/sodipodi-0.dtd"
   xmlns:inkscape="http://www.inkscape.org/namespaces/inkscape"
   version="1.1"
   id="mdi-connection"
   width="24"
   height="24"
   viewBox="0 0 24 24"
   sodipodi:docname="network-connect.svg"
   inkscape:version="1.0.2 (e86c870879, 2021-01-15)">
  <metadata
     id="metadata9">
    <rdf:RDF>
      <cc:Work
         rdf:about="">
        <dc:format>image/svg+xml</dc:format>
        <dc:type
           rdf:resource="http://purl.org/dc/dcmitype/StillImage" />
      </cc:Work>
    </rdf:RDF>
  </metadata>
  <defs
     id="defs7" />
  <sodipodi:namedview
     pagecolor="#ffffff"
     bordercolor="#666666"
     borderopacity="1"
     objecttolerance="10"
     gridtolerance="10"
     guidetolerance="10"
     inkscape:pageopacity="0"
     inkscape:pageshadow="2"
     inkscape:window-width="1920"
     inkscape:window-height="1016"
     id="namedview5"
     showgrid="false"
     inkscape:zoom="33.958333"
     inkscape:cx="12"
     inkscape:cy="12"
     inkscape:window-x="0"
     inkscape:window-y="0"
     inkscape:window-maximized="1"
     inkscape:current-layer="mdi-connection" />
  <path
     d="m 19.4,9.5 c 0.8,0.8 0.8,2.1 0,2.8 L 16.6,15.1 8.8,7.3 11.6,4.5 c 0.8,-0.8 2.1,-0.8 2.8,0 l 1.8,1.8 5,-5 1.4,1.4 -5,5 1.8,1.8 m -4.220092,4.187653 -1.4,-1.4 L 13.4,12.7 l -2.1,-2.1 0.379908,-0.412347 -1.4,-1.3999996 L 9.9,9.2 8.4,7.8 5.6,10.6 c -0.8,0.8 -0.8,2.1 0,2.8 l 1.8,1.8 -6,6 1.4,1.4 6,-6 1.8,1.8 c 0.8,0.8 2.1,0.8 2.8,0 l 2.8,-2.8 -1.4,-1.4 z"
     id="path2"
     sodipodi:nodetypes="ccccsccccccccccccccscccccscccc" />
</svg>
