<?xml version="1.0" encoding="UTF-8" standalone="no"?>
<svg
   xmlns:dc="http://purl.org/dc/elements/1.1/"
   xmlns:cc="http://creativecommons.org/ns#"
   xmlns:rdf="http://www.w3.org/1999/02/22-rdf-syntax-ns#"
   xmlns:svg="http://www.w3.org/2000/svg"
   xmlns="http://www.w3.org/2000/svg"
   xmlns:sodipodi="http://sodipodi.sourceforge.net/DTD/sodipodi-0.dtd"
   xmlns:inkscape="http://www.inkscape.org/namespaces/inkscape"
   height="24"
   viewBox="0 0 24 24"
   width="24"
   version="1.1"
   id="svg4"
   sodipodi:docname="aptdaemon-download.svg"
   inkscape:version="1.0.2 (e86c870879, 2021-01-15)">
  <metadata
     id="metadata10">
    <rdf:RDF>
      <cc:Work
         rdf:about="">
        <dc:format>image/svg+xml</dc:format>
        <dc:type
           rdf:resource="http://purl.org/dc/dcmitype/StillImage" />
      </cc:Work>
    </rdf:RDF>
  </metadata>
  <defs
     id="defs8" />
  <sodipodi:namedview
     pagecolor="#ffffff"
     bordercolor="#666666"
     borderopacity="1"
     objecttolerance="10"
     gridtolerance="10"
     guidetolerance="10"
     inkscape:pageopacity="0"
     inkscape:pageshadow="2"
     inkscape:window-width="1920"
     inkscape:window-height="1016"
     id="namedview6"
     showgrid="false"
     inkscape:zoom="33.958333"
     inkscape:cx="12"
     inkscape:cy="12"
     inkscape:window-x="0"
     inkscape:window-y="0"
     inkscape:window-maximized="1"
     inkscape:current-layer="svg4" />
  <path
     id="path2"
     d="M 12 3 C 11.45 3 11 3.45 11 4 L 11 12.669922 L 9.109375 10.789062 C 8.719375 10.399062 8.0892188 10.399062 7.6992188 10.789062 C 7.3092187 11.179062 7.3092188 11.809219 7.6992188 12.199219 L 11.289062 15.789062 C 11.679062 16.179063 12.309219 16.179063 12.699219 15.789062 L 16.289062 12.199219 C 16.679063 11.809219 16.679063 11.179063 16.289062 10.789062 C 15.899063 10.399062 15.270859 10.399062 14.880859 10.789062 L 13 12.669922 L 13 4 C 13 3.45 12.55 3 12 3 z M 4 19 C 3.45 19 3 19.45 3 20 C 3 20.55 3.45 21 4 21 L 12.669922 21 L 19.990234 21 C 20.540234 21 20.990234 20.55 20.990234 20 C 20.990234 19.45 20.540234 19 19.990234 19 L 12.669922 19 L 4 19 z " />
</svg>
