<?xml version="1.0" encoding="UTF-8" standalone="no"?>
<svg
   xmlns:dc="http://purl.org/dc/elements/1.1/"
   xmlns:cc="http://creativecommons.org/ns#"
   xmlns:rdf="http://www.w3.org/1999/02/22-rdf-syntax-ns#"
   xmlns:svg="http://www.w3.org/2000/svg"
   xmlns="http://www.w3.org/2000/svg"
   xmlns:sodipodi="http://sodipodi.sourceforge.net/DTD/sodipodi-0.dtd"
   xmlns:inkscape="http://www.inkscape.org/namespaces/inkscape"
   height="24"
   viewBox="0 0 24 24"
   width="24"
   version="1.1"
   id="svg4"
   sodipodi:docname="video-x-generic.svg"
   inkscape:version="1.0.2 (e86c870879, 2021-01-15)">
  <metadata
     id="metadata10">
    <rdf:RDF>
      <cc:Work
         rdf:about="">
        <dc:format>image/svg+xml</dc:format>
        <dc:type
           rdf:resource="http://purl.org/dc/dcmitype/StillImage" />
      </cc:Work>
    </rdf:RDF>
  </metadata>
  <defs
     id="defs8" />
  <sodipodi:namedview
     pagecolor="#ffffff"
     bordercolor="#666666"
     borderopacity="1"
     objecttolerance="10"
     gridtolerance="10"
     guidetolerance="10"
     inkscape:pageopacity="0"
     inkscape:pageshadow="2"
     inkscape:window-width="1908"
     inkscape:window-height="1036"
     id="namedview6"
     showgrid="false"
     inkscape:zoom="28.16642"
     inkscape:cx="14.23906"
     inkscape:cy="7.0805071"
     inkscape:window-x="8"
     inkscape:window-y="1084"
     inkscape:window-maximized="0"
     inkscape:current-layer="svg4"
     inkscape:document-rotation="0" />
  <path fill="#FF5722"
     d="M 8.1775163,5 H 6 V 4 C 6,3.45 5.55,3 5,3 4.449999,3 4,3.45 4,4 v 16 c 0,0.55 0.449999,1 1,1 0.55,0 1,-0.45 1,-1 V 19 H 8.1775163 Z M 8,17 H 6 V 15 H 8 Z M 8,13 H 6 V 11 H 8 Z M 8,9 H 6 V 7 h 2 z"
     id="path2-6-7"
     sodipodi:nodetypes="ccsssssscccccccccccccccccc" />
  <path fill="#FF5722"
     d="M 15.822484,5 H 18 V 4 c 0,-0.55 0.45,-1 1,-1 0.550001,0 1,0.45 1,1 v 16 c 0,0.55 -0.449999,1 -1,1 -0.55,0 -1,-0.45 -1,-1 V 19 H 15.822484 Z M 16,17 h 2 v -2 h -2 z m 0,-4 h 2 v -2 h -2 z m 0,-4 h 2 V 7 h -2 z"
     id="path2-6-7-5"
     sodipodi:nodetypes="ccsssssscccccccccccccccccc" />
  <path fill="#FF5722"
     d="M 10,4 C 10,3.450001 9.55,3 9,3 8.4499991,3 8.0000001,3.450001 8.0000001,4 v 16 c 0,0.55 0.449999,1 0.9999999,1 0.55,0 1,-0.45 1,-1 0,0 0,-15.7337142 0,-16 z"
     id="path2-6-7-6"
     sodipodi:nodetypes="csssscc" />
  <path fill="#FF5722"
     d="M 16,4 C 16,3.450001 15.55,3 15,3 14.449999,3 14,3.450001 14,4 v 16 c 0,0.55 0.449999,1 1,1 0.55,0 1,-0.45 1,-1 0,0 0,-15.7337142 0,-16 z"
     id="path2-6-7-6-2"
     sodipodi:nodetypes="csssscc" />
  <path fill="#FF5722"
     d="m 15.001835,4.9045308 c 0.549999,0 1,-0.45 1,-1 0,-0.55 -0.450001,-1 -1,-1 H 9.0365098 c -0.55,0 -1,0.45 -1,1 0,0.55 0.45,1 1,1 z"
     id="path2-6-7-6-9"
     sodipodi:nodetypes="csssscc" />
  <path fill="#FF5722"
     d="m 15.001835,21.003424 c 0.549999,0 1,-0.45 1,-1 0,-0.55 -0.450001,-1 -1,-1 H 9.03651 c -0.550001,0 -1,0.45 -1,1 0,0.55 0.449999,1 1,1 z"
     id="path2-6-7-6-9-1"
     sodipodi:nodetypes="csssscc" />
</svg>
