<?xml version="1.0" encoding="UTF-8" standalone="no"?>
<svg
   xmlns:dc="http://purl.org/dc/elements/1.1/"
   xmlns:cc="http://creativecommons.org/ns#"
   xmlns:rdf="http://www.w3.org/1999/02/22-rdf-syntax-ns#"
   xmlns:svg="http://www.w3.org/2000/svg"
   xmlns="http://www.w3.org/2000/svg"
   xmlns:sodipodi="http://sodipodi.sourceforge.net/DTD/sodipodi-0.dtd"
   xmlns:inkscape="http://www.inkscape.org/namespaces/inkscape"
   version="1.1"
   id="mdi-file-document-outline"
   width="24"
   height="24"
   viewBox="0 0 24 24"
   sodipodi:docname="file-document-outline.svg"
   inkscape:version="1.0.2 (e86c870879, 2021-01-15)">
  <metadata
     id="metadata9">
    <rdf:RDF>
      <cc:Work
         rdf:about="">
        <dc:format>image/svg+xml</dc:format>
        <dc:type
           rdf:resource="http://purl.org/dc/dcmitype/StillImage" />
      </cc:Work>
    </rdf:RDF>
  </metadata>
  <defs
     id="defs7" />
  <sodipodi:namedview
     pagecolor="#ffffff"
     bordercolor="#666666"
     borderopacity="1"
     objecttolerance="10"
     gridtolerance="10"
     guidetolerance="10"
     inkscape:pageopacity="0"
     inkscape:pageshadow="2"
     inkscape:window-width="3824"
     inkscape:window-height="2112"
     id="namedview5"
     showgrid="false"
     inkscape:zoom="39.833333"
     inkscape:cx="12.050209"
     inkscape:cy="12"
     inkscape:window-x="8"
     inkscape:window-y="8"
     inkscape:window-maximized="0"
     inkscape:current-layer="mdi-file-document-outline" />
  <path fill="#FF9800"
     d="M 6,2 C 4.8954305,2 4,2.8954305 4,4 v 16 c 0,1.104569 0.8954305,2 2,2 h 12 c 1.104569,0 2,-0.895431 2,-2 V 8 L 14,2 H 6 m 0,2 h 7 v 5 h 5 V 20 H 6 V 4"
     id="path2"
     sodipodi:nodetypes="cssssscccccccccc" />
  <path fill="#FF9800"
     id="path2-3"
     d="m 9,12 c -0.55,0 -1,0.45 -1,1 0,0.550001 0.45,1 1,1 h 6.000001 c 0.55,0 1,-0.449999 1,-1 0,-0.55 -0.45,-1 -1,-1 z"
     sodipodi:nodetypes="sssssss" />
  <path fill="#FF9800"
     id="path2-3-6"
     d="m 9,16 c -0.55,0 -1,0.45 -1,1 0,0.550001 0.45,1 1,1 h 3.012539 c 0.55,0 1,-0.449999 1,-1 0,-0.55 -0.45,-1 -1,-1 z"
     sodipodi:nodetypes="sssssss" />
</svg>
