<?xml version="1.0" encoding="UTF-8" standalone="no"?>
<svg
   xmlns:dc="http://purl.org/dc/elements/1.1/"
   xmlns:cc="http://creativecommons.org/ns#"
   xmlns:rdf="http://www.w3.org/1999/02/22-rdf-syntax-ns#"
   xmlns:svg="http://www.w3.org/2000/svg"
   xmlns="http://www.w3.org/2000/svg"
   xmlns:sodipodi="http://sodipodi.sourceforge.net/DTD/sodipodi-0.dtd"
   xmlns:inkscape="http://www.inkscape.org/namespaces/inkscape"
   version="1.1"
   id="mdi-arrow-expand-horizontal"
   width="24"
   height="24"
   viewBox="0 0 24 24"
   sodipodi:docname="distribute-horizontal-gaps (copy).svg"
   inkscape:version="1.0.2 (e86c870879, 2021-01-15)">
  <metadata
     id="metadata9">
    <rdf:RDF>
      <cc:Work
         rdf:about="">
        <dc:format>image/svg+xml</dc:format>
        <dc:type
           rdf:resource="http://purl.org/dc/dcmitype/StillImage" />
      </cc:Work>
    </rdf:RDF>
  </metadata>
  <defs
     id="defs7" />
  <sodipodi:namedview
     pagecolor="#ffffff"
     bordercolor="#666666"
     borderopacity="1"
     objecttolerance="10"
     gridtolerance="10"
     guidetolerance="10"
     inkscape:pageopacity="0"
     inkscape:pageshadow="2"
     inkscape:window-width="1920"
     inkscape:window-height="1011"
     id="namedview5"
     showgrid="false"
     inkscape:zoom="33.208333"
     inkscape:cx="12"
     inkscape:cy="12"
     inkscape:window-x="0"
     inkscape:window-y="0"
     inkscape:window-maximized="1"
     inkscape:current-layer="mdi-arrow-expand-horizontal"
     inkscape:document-rotation="0" />
  <path
     id="path2-3"
     d="M 20,3 C 20,2.4499997 19.55,2 19,2 H 5 C 4.45,2 4,2.4499996 4,3 4,3.55 4.45,4 5,4 h 14 c 0.55,0 1,-0.45 1,-1 z m 0,18 c 0,-0.55 -0.45,-1 -1,-1 H 5 c -0.55,0 -1,0.45 -1,1 0,0.55 0.45,1 1,1 h 14 c 0.55,0 1,-0.45 1,-1 z M 15.287109,8.4140625 C 15.271172,8.3198438 15.227891,8.2278906 15.150391,8.1503906 L 12.359375,5.359375 c -0.200001,-0.1999999 -0.508985,-0.1999999 -0.708984,0 L 8.859375,8.1503906 C 8.539376,8.4603906 8.760938,9 9.210938,9 H 11 v 4 2 H 9.210938 c -0.45,0 -0.671562,0.539609 -0.351563,0.849609 l 2.791016,2.791016 c 0.199999,0.2 0.508983,0.2 0.708984,0 l 2.791016,-2.791016 C 15.460391,15.539609 15.239062,15 14.789063,15 H 13 V 13 9 h 1.789063 c 0.3375,0 0.545859,-0.3032814 0.498046,-0.5859375 z" />
</svg>
