<?xml version="1.0" encoding="UTF-8" standalone="no"?>
<svg
   xmlns:dc="http://purl.org/dc/elements/1.1/"
   xmlns:cc="http://creativecommons.org/ns#"
   xmlns:rdf="http://www.w3.org/1999/02/22-rdf-syntax-ns#"
   xmlns:svg="http://www.w3.org/2000/svg"
   xmlns="http://www.w3.org/2000/svg"
   xmlns:sodipodi="http://sodipodi.sourceforge.net/DTD/sodipodi-0.dtd"
   xmlns:inkscape="http://www.inkscape.org/namespaces/inkscape"
   enable-background="new 0 0 24 24"
   height="24"
   viewBox="0 0 24 24"
   width="24"
   version="1.1"
   id="svg4"
   sodipodi:docname="nm-device-wired (copy).svg"
   inkscape:version="1.0.2 (e86c870879, 2021-01-15)">
  <metadata
     id="metadata10">
    <rdf:RDF>
      <cc:Work
         rdf:about="">
        <dc:format>image/svg+xml</dc:format>
        <dc:type
           rdf:resource="http://purl.org/dc/dcmitype/StillImage" />
      </cc:Work>
    </rdf:RDF>
  </metadata>
  <defs
     id="defs8" />
  <sodipodi:namedview
     pagecolor="#ffffff"
     bordercolor="#666666"
     borderopacity="1"
     objecttolerance="10"
     gridtolerance="10"
     guidetolerance="10"
     inkscape:pageopacity="0"
     inkscape:pageshadow="2"
     inkscape:window-width="1908"
     inkscape:window-height="1031"
     id="namedview6"
     showgrid="false"
     showguides="false"
     inkscape:zoom="21"
     inkscape:cx="12.344828"
     inkscape:cy="14.229192"
     inkscape:window-x="8"
     inkscape:window-y="1109"
     inkscape:window-maximized="0"
     inkscape:current-layer="svg4" />
  <path
     id="path2"
     d="M 5.3984375,3 C 6.9749601,4.5755745 8.5452266,6.1445112 10.402344,8 H 11 v 0.5957031 c 0.747601,0.746933 1.248453,1.2491564 2,1.9999999 V 8 h 2 v 1 c 0,1.1 0.9,2 2,2 h 3 c 1.11,0 2,-0.9 2,-2 V 5 C 22,3.89 21.1,3 20,3 H 17 C 15.89,3 15,3.9 15,5 V 6 H 9.0097656 V 5 c 0,-1.11 -0.9,-2 -2,-2 z M 2.8913672,3.7340014 C 2.3457892,4.092153 2,4.3022595 2,5 v 4 c 0,1.11 0.9,2 2,2 H 7 C 7.9793173,11 8.7842401,10.299292 8.9609375,9.3789062 Z M 11,11.416016 v 3.59375 C 11,16.659766 12.340234,18 13.990234,18 H 15 v 1 c 0,1.11 0.9,2 2,2 h 3 c 0.180441,0 0.351643,-0.03161 0.517578,-0.07617 L 15,15.412109 V 16 H 13.990234 C 13.450234,16 13,15.549766 13,15.009766 V 13.414062 Z M 17,13 c -0.449312,0 -0.858627,0.151886 -1.191406,0.400391 2.21155,2.20944 4.509289,4.504701 6.117187,6.111328 C 21.969344,19.347523 22,19.177562 22,19 v -4 c 0,-1.11 -0.9,-2 -2,-2 z"
     sodipodi:nodetypes="cccccccssssssssccssccsssscccsscssscccssccsccssss" />
  <path
     id="path2-3"
     d="m 2.4140625,3.2265625 c -0.255,0 -0.508125,0.097969 -0.703125,0.2929687 -0.39,0.3900001 -0.39,1.0201563 0,1.4101563 2.6248857,2.6230847 5.7312293,5.7293845 8.6816405,8.6777345 2.94835,2.950411 6.05465,6.056755 8.677734,8.68164 0.390001,0.390001 1.020157,0.390001 1.410157,0 0.39,-0.39 0.39,-1.018203 0,-1.408203 L 18.507812,18.90625 c -0.0073,-0.0078 -0.01,-0.01779 -0.01758,-0.02539 l -6.6875,-6.683593 -6.6835934,-6.6875004 c -0.0076,-0.0076 -0.01761,-0.010272 -0.025391,-0.017578 L 3.1191406,3.5195312 c -0.195,-0.195 -0.4500781,-0.2929687 -0.7050781,-0.2929687 z" />
</svg>
