<?xml version="1.0" encoding="UTF-8" standalone="no"?>
<svg
   enable-background="new 0 0 24 24"
   height="24"
   viewBox="0 0 24 24"
   width="24"
   version="1.1"
   id="svg6"
   sodipodi:docname="sidebar-collapse-right.svg"
   inkscape:version="1.1 (c68e22c387, 2021-05-23)"
   xmlns:inkscape="http://www.inkscape.org/namespaces/inkscape"
   xmlns:sodipodi="http://sodipodi.sourceforge.net/DTD/sodipodi-0.dtd"
   xmlns="http://www.w3.org/2000/svg"
   xmlns:svg="http://www.w3.org/2000/svg"
   xmlns:rdf="http://www.w3.org/1999/02/22-rdf-syntax-ns#"
   xmlns:cc="http://creativecommons.org/ns#"
   xmlns:dc="http://purl.org/dc/elements/1.1/">
  <metadata
     id="metadata12">
    <rdf:RDF>
      <cc:Work
         rdf:about="">
        <dc:format>image/svg+xml</dc:format>
        <dc:type
           rdf:resource="http://purl.org/dc/dcmitype/StillImage" />
      </cc:Work>
    </rdf:RDF>
  </metadata>
  <defs
     id="defs10" />
  <sodipodi:namedview
     pagecolor="#ffffff"
     bordercolor="#666666"
     borderopacity="1"
     objecttolerance="10"
     gridtolerance="10"
     guidetolerance="10"
     inkscape:pageopacity="0"
     inkscape:pageshadow="2"
     inkscape:window-width="948"
     inkscape:window-height="1000"
     id="namedview8"
     showgrid="false"
     inkscape:zoom="12.957031"
     inkscape:cx="9.5315043"
     inkscape:cy="12.734398"
     inkscape:window-x="26"
     inkscape:window-y="23"
     inkscape:window-maximized="0"
     inkscape:current-layer="svg6"
     inkscape:pagecheckerboard="0" />
  <path
     id="path2"
     d="m 21,4 c 0.55,0 1,0.45 1,1 v 2 c 0,0.55 -0.45,1 -1,1 H 19 C 18.45,8 18,7.55 18,7 V 5 c 0,-0.55 0.45,-1 1,-1 z m -6,0 c 0.55,0 1,0.45 1,1 v 14 c 0,0.55 -0.45,1 -1,1 H 3 C 2.45,20 2,19.55 2,19 V 5 C 2,4.45 2.45,4 3,4 Z M 6.705078,6.4121094 c -0.255,0 -0.510078,0.097969 -0.705078,0.2929687 -0.38,0.38 -0.39,1.0201563 0,1.4101563 L 9.880859,11.994141 6,15.884766 c -0.39,0.39 -0.39,1.020156 0,1.410156 0.39,0.39 1.020156,0.39 1.410156,0 L 12,12.705078 c 0.39,-0.39 0.39,-1.020156 0,-1.410156 L 7.410156,6.7050781 c -0.195,-0.195 -0.450078,-0.2929687 -0.705078,-0.2929687 z M 21,10 c 0.55,0 1,0.45 1,1 v 2 c 0,0.55 -0.45,1 -1,1 h -2 c -0.55,0 -1,-0.45 -1,-1 v -2 c 0,-0.55 0.45,-1 1,-1 z m 0,6 c 0.55,0 1,0.45 1,1 v 2 c 0,0.55 -0.45,1 -1,1 h -2 c -0.55,0 -1,-0.45 -1,-1 v -2 c 0,-0.55 0.45,-1 1,-1 z" />
</svg>
