<?xml version="1.0" encoding="UTF-8" standalone="no"?>
<svg
   xmlns:dc="http://purl.org/dc/elements/1.1/"
   xmlns:cc="http://creativecommons.org/ns#"
   xmlns:rdf="http://www.w3.org/1999/02/22-rdf-syntax-ns#"
   xmlns:svg="http://www.w3.org/2000/svg"
   xmlns="http://www.w3.org/2000/svg"
   xmlns:sodipodi="http://sodipodi.sourceforge.net/DTD/sodipodi-0.dtd"
   xmlns:inkscape="http://www.inkscape.org/namespaces/inkscape"
   height="24"
   viewBox="0 0 24 24"
   width="24"
   version="1.1"
   id="svg4"
   sodipodi:docname="compare_arrows.svg"
   inkscape:version="1.0.2 (e86c870879, 2021-01-15)">
  <metadata
     id="metadata10">
    <rdf:RDF>
      <cc:Work
         rdf:about="">
        <dc:format>image/svg+xml</dc:format>
        <dc:type
           rdf:resource="http://purl.org/dc/dcmitype/StillImage" />
      </cc:Work>
    </rdf:RDF>
  </metadata>
  <defs
     id="defs8" />
  <sodipodi:namedview
     pagecolor="#ffffff"
     bordercolor="#666666"
     borderopacity="1"
     objecttolerance="10"
     gridtolerance="10"
     guidetolerance="10"
     inkscape:pageopacity="0"
     inkscape:pageshadow="2"
     inkscape:window-width="1904"
     inkscape:window-height="1000"
     id="namedview6"
     showgrid="false"
     inkscape:zoom="33.958333"
     inkscape:cx="12"
     inkscape:cy="12"
     inkscape:window-x="26"
     inkscape:window-y="23"
     inkscape:window-maximized="0"
     inkscape:current-layer="svg4" />
  <path
     d="m 5.63,14 h 6.01 c 0.55,0 1,0.45 1,1 0,0.55 -0.45,1 -1,1 H 5.63 v 1.79 c 0,0.45 -0.54,0.67 -0.85,0.35 L 2,15.35 C 1.81,15.15 1.81,14.84 2,14.64 L 4.78,11.85 C 5.09,11.53 5.63,11.76 5.63,12.2 Z M 18.37,11.79 V 10 h -6.01 c -0.55,0 -1,-0.45 -1,-1 0,-0.55 0.45,-1 1,-1 h 6.01 V 6.21 c 0,-0.45 0.54,-0.67 0.85,-0.35 L 22,8.65 c 0.19,0.2 0.19,0.51 0,0.71 l -2.78,2.79 c -0.31,0.31 -0.85,0.09 -0.85,-0.36 z"
     id="path2"
     sodipodi:nodetypes="cssscsccccscscssscsccccs" />
</svg>
