<?xml version="1.0" encoding="UTF-8" standalone="no"?>
<svg
   height="24"
   viewBox="0 0 24 24"
   width="24"
   version="1.1"
   id="svg4"
   sodipodi:docname="view-split-effect.svg"
   inkscape:version="1.1 (c68e22c387, 2021-05-23)"
   xmlns:inkscape="http://www.inkscape.org/namespaces/inkscape"
   xmlns:sodipodi="http://sodipodi.sourceforge.net/DTD/sodipodi-0.dtd"
   xmlns="http://www.w3.org/2000/svg"
   xmlns:svg="http://www.w3.org/2000/svg">
  <defs
     id="defs8" />
  <sodipodi:namedview
     id="namedview6"
     pagecolor="#ffffff"
     bordercolor="#666666"
     borderopacity="1.0"
     inkscape:pageshadow="2"
     inkscape:pageopacity="0.0"
     inkscape:pagecheckerboard="0"
     showgrid="false"
     inkscape:zoom="33.541667"
     inkscape:cx="7.0062112"
     inkscape:cy="13.028571"
     inkscape:window-width="1920"
     inkscape:window-height="1016"
     inkscape:window-x="0"
     inkscape:window-y="0"
     inkscape:window-maximized="1"
     inkscape:current-layer="svg4" />
  <path
     id="path2"
     d="M 4 5 C 3.45 5 3 5.45 3 6 C 3 6.55 3.45 7 4 7 L 10 7 C 10.55 7 11 6.55 11 6 C 11 5.45 10.55 5 10 5 L 4 5 z M 14 5 C 13.45 5 13 5.45 13 6 C 13 6.55 13.45 7 14 7 L 20 7 C 20.55 7 21 6.55 21 6 C 21 5.45 20.55 5 20 5 L 14 5 z M 4 9 C 3.45 9 3 9.45 3 10 C 3 10.55 3.45 11 4 11 L 10 11 C 10.55 11 11 10.55 11 10 C 11 9.45 10.55 9 10 9 L 4 9 z M 14 9 C 13.45 9 13 9.45 13 10 C 13 10.55 13.45 11 14 11 L 20 11 C 20.55 11 21 10.55 21 10 C 21 9.45 20.55 9 20 9 L 14 9 z M 4 13 C 3.45 13 3 13.45 3 14 C 3 14.55 3.45 15 4 15 L 10 15 C 10.55 15 11 14.55 11 14 C 11 13.45 10.55 13 10 13 L 4 13 z M 14 13 C 13.45 13 13 13.45 13 14 C 13 14.55 13.45 15 14 15 L 20 15 C 20.55 15 21 14.55 21 14 C 21 13.45 20.55 13 20 13 L 14 13 z M 4 17 C 3.45 17 3 17.45 3 18 C 3 18.55 3.45 19 4 19 L 10 19 C 10.55 19 11 18.55 11 18 C 11 17.45 10.55 17 10 17 L 4 17 z M 14 17 C 13.45 17 13 17.45 13 18 C 13 18.55 13.45 19 14 19 L 20 19 C 20.55 19 21 18.55 21 18 C 21 17.45 20.55 17 20 17 L 14 17 z " />
</svg>
