<?xml version="1.0" encoding="UTF-8" standalone="no"?>
<svg
   xmlns:dc="http://purl.org/dc/elements/1.1/"
   xmlns:cc="http://creativecommons.org/ns#"
   xmlns:rdf="http://www.w3.org/1999/02/22-rdf-syntax-ns#"
   xmlns:svg="http://www.w3.org/2000/svg"
   xmlns="http://www.w3.org/2000/svg"
   xmlns:sodipodi="http://sodipodi.sourceforge.net/DTD/sodipodi-0.dtd"
   xmlns:inkscape="http://www.inkscape.org/namespaces/inkscape"
   version="1.1"
   id="mdi-skew-more"
   width="24"
   height="24"
   viewBox="0 0 24 24"
   sodipodi:docname="transform-skew-vertical.svg"
   inkscape:version="1.0.2 (e86c870879, 2021-01-15)">
  <metadata
     id="metadata9">
    <rdf:RDF>
      <cc:Work
         rdf:about="">
        <dc:format>image/svg+xml</dc:format>
        <dc:type
           rdf:resource="http://purl.org/dc/dcmitype/StillImage" />
      </cc:Work>
    </rdf:RDF>
  </metadata>
  <defs
     id="defs7" />
  <sodipodi:namedview
     pagecolor="#ffffff"
     bordercolor="#666666"
     borderopacity="1"
     objecttolerance="10"
     gridtolerance="10"
     guidetolerance="10"
     inkscape:pageopacity="0"
     inkscape:pageshadow="2"
     inkscape:window-width="1920"
     inkscape:window-height="1011"
     id="namedview5"
     showgrid="false"
     inkscape:zoom="19.916667"
     inkscape:cx="14.593376"
     inkscape:cy="12.900835"
     inkscape:window-x="0"
     inkscape:window-y="0"
     inkscape:window-maximized="1"
     inkscape:current-layer="mdi-skew-more"
     inkscape:document-rotation="0" />
  <path
     id="path2"
     d="M 2 3 L 2 12 L 15 15 L 15 6 L 2 3 z M 4 5.5 L 13 7.5898438 L 13 12.5 L 4 10.410156 L 4 5.5 z M 18 9 C 17.45 9 17 9.4500003 17 10 L 17 17 L 15.210938 17 C 14.760938 17 14.539375 17.539609 14.859375 17.849609 L 17.650391 20.630859 C 17.850391 20.820859 18.159375 20.820859 18.359375 20.630859 L 21.150391 17.849609 C 21.470391 17.539609 21.240781 17 20.800781 17 L 19 17 L 19 10 C 19 9.4500003 18.55 9 18 9 z " />
</svg>
