<?xml version="1.0" encoding="UTF-8" standalone="no"?>
<svg
   xmlns:dc="http://purl.org/dc/elements/1.1/"
   xmlns:cc="http://creativecommons.org/ns#"
   xmlns:rdf="http://www.w3.org/1999/02/22-rdf-syntax-ns#"
   xmlns:svg="http://www.w3.org/2000/svg"
   xmlns="http://www.w3.org/2000/svg"
   xmlns:sodipodi="http://sodipodi.sourceforge.net/DTD/sodipodi-0.dtd"
   xmlns:inkscape="http://www.inkscape.org/namespaces/inkscape"
   version="1.1"
   width="24"
   height="24"
   viewBox="0 0 24 24"
   id="svg4"
   sodipodi:docname="dock-window.svg"
   inkscape:version="1.0.2 (e86c870879, 2021-01-15)">
  <metadata
     id="metadata10">
    <rdf:RDF>
      <cc:Work
         rdf:about="">
        <dc:format>image/svg+xml</dc:format>
        <dc:type
           rdf:resource="http://purl.org/dc/dcmitype/StillImage" />
      </cc:Work>
    </rdf:RDF>
  </metadata>
  <defs
     id="defs8" />
  <sodipodi:namedview
     pagecolor="#ffffff"
     bordercolor="#666666"
     borderopacity="1"
     objecttolerance="10"
     gridtolerance="10"
     guidetolerance="10"
     inkscape:pageopacity="0"
     inkscape:pageshadow="2"
     inkscape:window-width="1908"
     inkscape:window-height="2080"
     id="namedview6"
     showgrid="false"
     inkscape:zoom="42"
     inkscape:cx="12"
     inkscape:cy="9.1428571"
     inkscape:window-x="3848"
     inkscape:window-y="35"
     inkscape:window-maximized="0"
     inkscape:current-layer="svg4" />
  <path
     id="path2"
     d="M 8,2 C 6.8954305,2 6,2.8954305 6,4 v 12 c 0,1.104569 0.8954305,2 2,2 h 12 c 1.104569,0 2,-0.895431 2,-2 V 4 C 22,2.8954305 21.104569,2 20,2 Z M 8,4 H 20 V 16 H 8 Z M 3,6 C 2.45,6 2,6.45 2,7 v 1 9 3 c 0,1.104569 0.8954305,2 2,2 h 1 11 1 c 0.55,0 1,-0.45 1,-1 0,-0.55 -0.45,-1 -1,-1 H 16 5 4 V 17 8 7 C 4,6.45 3.55,6 3,6 Z"
     sodipodi:nodetypes="ssssssssscccccssccssccssscccccss" />
  <path
     d="M 15,9 V 7 C 15,6.45 14.55,6 14,6 13.45,6 13,6.45 13,7 v 2 h -2 c -0.55,0 -1,0.45 -1,1 0,0.55 0.45,1 1,1 h 2 v 2 c 0,0.55 0.45,1 1,1 0.55,0 1,-0.45 1,-1 v -2 h 2 c 0.55,0 1,-0.45 1,-1 0,-0.55 -0.45,-1 -1,-1 z"
     id="path2-7"
     sodipodi:nodetypes="cssscssscssscsssc" />
</svg>
