<?xml version="1.0" encoding="UTF-8" standalone="no"?>
<svg
   xmlns:dc="http://purl.org/dc/elements/1.1/"
   xmlns:cc="http://creativecommons.org/ns#"
   xmlns:rdf="http://www.w3.org/1999/02/22-rdf-syntax-ns#"
   xmlns:svg="http://www.w3.org/2000/svg"
   xmlns="http://www.w3.org/2000/svg"
   xmlns:sodipodi="http://sodipodi.sourceforge.net/DTD/sodipodi-0.dtd"
   xmlns:inkscape="http://www.inkscape.org/namespaces/inkscape"
   height="24"
   viewBox="0 0 24 24"
   width="24"
   version="1.1"
   id="svg4"
   sodipodi:docname="audio-volume-high-symbolic.svg"
   inkscape:version="1.0.1 (3bc2e813f5, 2020-09-07)">
  <metadata
     id="metadata10">
    <rdf:RDF>
      <cc:Work
         rdf:about="">
        <dc:format>image/svg+xml</dc:format>
        <dc:type
           rdf:resource="http://purl.org/dc/dcmitype/StillImage" />
      </cc:Work>
    </rdf:RDF>
  </metadata>
  <defs
     id="defs8" />
  <sodipodi:namedview
     pagecolor="#ffffff"
     bordercolor="#666666"
     borderopacity="1"
     objecttolerance="10"
     gridtolerance="10"
     guidetolerance="10"
     inkscape:pageopacity="0"
     inkscape:pageshadow="2"
     inkscape:window-width="1908"
     inkscape:window-height="2108"
     id="namedview6"
     showgrid="false"
     inkscape:zoom="39.833333"
     inkscape:cx="12.050209"
     inkscape:cy="12"
     inkscape:window-x="5764"
     inkscape:window-y="8"
     inkscape:window-maximized="0"
     inkscape:current-layer="svg4" />
  <path
     d="m 3,10.001813 v 4 c 0,0.55 0.45,1 1,1 h 3 l 3.29,3.29 c 0.63,0.63 1.71,0.18 1.71,-0.71 V 6.4118131 c 0,-0.89 -1.08,-1.34 -1.71,-0.71 l -3.29,3.3 H 4 c -0.55,0 -1,0.45 -1,0.9999999 z m 13.5,2 c 0,-1.77 -1.02,-3.2899999 -2.5,-4.0299999 v 8.0499999 c 1.48,-0.73 2.5,-2.25 2.5,-4.02 z M 14,4.4518131 v 0.2 c 0,0.38 0.25,0.71 0.6,0.85 2.58,1.03 4.4,3.56 4.4,6.4999999 0,2.94 -1.82,5.47 -4.4,6.5 -0.36,0.14 -0.6,0.47 -0.6,0.85 v 0.2 c 0,0.63 0.63,1.07 1.21,0.85 3.39,-1.29 5.79,-4.56 5.79,-8.4 0,-3.8399999 -2.4,-7.1099999 -5.79,-8.3999999 -0.58,-0.23 -1.21,0.22 -1.21,0.85 z"
     id="path2" />
</svg>
