<?xml version="1.0" encoding="UTF-8" standalone="no"?>
<svg
   xmlns:dc="http://purl.org/dc/elements/1.1/"
   xmlns:cc="http://creativecommons.org/ns#"
   xmlns:rdf="http://www.w3.org/1999/02/22-rdf-syntax-ns#"
   xmlns:svg="http://www.w3.org/2000/svg"
   xmlns="http://www.w3.org/2000/svg"
   xmlns:sodipodi="http://sodipodi.sourceforge.net/DTD/sodipodi-0.dtd"
   xmlns:inkscape="http://www.inkscape.org/namespaces/inkscape"
   height="24"
   viewBox="0 0 24 24"
   width="24"
   version="1.1"
   id="svg6"
   sodipodi:docname="network-cellular-signal-weak-secure-symbolic (copy).svg"
   inkscape:version="1.0.1 (3bc2e813f5, 2020-09-07)">
  <metadata
     id="metadata12">
    <rdf:RDF>
      <cc:Work
         rdf:about="">
        <dc:format>image/svg+xml</dc:format>
        <dc:type
           rdf:resource="http://purl.org/dc/dcmitype/StillImage" />
      </cc:Work>
    </rdf:RDF>
  </metadata>
  <defs
     id="defs10" />
  <sodipodi:namedview
     pagecolor="#ffffff"
     bordercolor="#666666"
     borderopacity="1"
     objecttolerance="10"
     gridtolerance="10"
     guidetolerance="10"
     inkscape:pageopacity="0"
     inkscape:pageshadow="2"
     inkscape:window-width="948"
     inkscape:window-height="477"
     id="namedview8"
     showgrid="false"
     inkscape:zoom="8.3020833"
     inkscape:cx="-7.8807783"
     inkscape:cy="12.921719"
     inkscape:window-x="26"
     inkscape:window-y="23"
     inkscape:window-maximized="0"
     inkscape:current-layer="svg6"
     inkscape:document-rotation="0" />
  <path
     d="M 22,16 V 15.5 C 22,14.12 20.88,13 19.5,13 c -1.379999,0 -2.499999,1.12 -2.499999,2.5 V 16 c -0.55,0 -1,0.45 -1,1 v 4 c 0,0.55 0.45,1 1,1 H 22 c 0.55,0 1,-0.45 1,-1 v -4 c 0,-0.55 -0.45,-1 -1,-1 z m -1,0 H 18.000001 V 15.5 C 18.000001,14.67 18.67,14 19.5,14 c 0.83,0 1.5,0.67 1.5,1.5 z"
     id="path4"
     sodipodi:nodetypes="cssscsssssscccsssc" />
  <path
     d="m 19.5,11 c 0.17,0 0.33,0.03 0.5,0.05 V 3.4099996 C 20,2.52 18.92,2.07 18.29,2.7 L 2.7100004,18.29 c -0.63,0.63 -0.19,1.71 0.6999999,1.71 H 14.000001 v -3 c 0,-0.92 0.42,-1.74 1.07,-2.3 0.38,-2.1 2.22,-3.7 4.429999,-3.7 z"
     id="path4-3"
     sodipodi:nodetypes="scsccscscs"
     style="fill:#000000;fill-opacity:0.3" />
</svg>
