<?xml version="1.0" encoding="UTF-8" standalone="no"?>
<svg
   xmlns:dc="http://purl.org/dc/elements/1.1/"
   xmlns:cc="http://creativecommons.org/ns#"
   xmlns:rdf="http://www.w3.org/1999/02/22-rdf-syntax-ns#"
   xmlns:svg="http://www.w3.org/2000/svg"
   xmlns="http://www.w3.org/2000/svg"
   xmlns:sodipodi="http://sodipodi.sourceforge.net/DTD/sodipodi-0.dtd"
   xmlns:inkscape="http://www.inkscape.org/namespaces/inkscape"
   height="24"
   viewBox="0 0 24 24"
   width="24"
   version="1.1"
   id="svg6"
   sodipodi:docname="network-cellular-gprs-symbolic.svg"
   inkscape:version="1.0.1 (3bc2e813f5, 2020-09-07)">
  <metadata
     id="metadata12">
    <rdf:RDF>
      <cc:Work
         rdf:about="">
        <dc:format>image/svg+xml</dc:format>
        <dc:type
           rdf:resource="http://purl.org/dc/dcmitype/StillImage" />
      </cc:Work>
    </rdf:RDF>
  </metadata>
  <defs
     id="defs10" />
  <sodipodi:namedview
     pagecolor="#ffffff"
     bordercolor="#666666"
     borderopacity="1"
     objecttolerance="10"
     gridtolerance="10"
     guidetolerance="10"
     inkscape:pageopacity="0"
     inkscape:pageshadow="2"
     inkscape:window-width="1904"
     inkscape:window-height="1028"
     id="namedview8"
     showgrid="false"
     inkscape:zoom="36.833333"
     inkscape:cx="16.435439"
     inkscape:cy="12"
     inkscape:window-x="8"
     inkscape:window-y="8"
     inkscape:window-maximized="0"
     inkscape:current-layer="svg6" />
  <path
     d="M0 0h24v24H0V0z"
     fill="none"
     id="path2" />
  <path
     d="m 9,15 h 6 V 13 H 9 Z M 19,3 H 5 C 3.9,3 3,3.9 3,5 v 14 c 0,1.1 0.9,2 2,2 h 14 c 1.1,0 2,-0.9 2,-2 V 5 C 21,3.9 20.1,3 19,3 Z M 16,9 H 9 v 2 h 6 c 1.1,0 2,0.9 2,2 v 2 c 0,1.11 -0.9,2 -2,2 H 9 C 7.9,17 7,16.11 7,15 V 9 C 7,7.9 7.9,7 9,7 h 7 c 0.55,0 1,0.45 1,1 0,0.55 -0.45,1 -1,1 z"
     id="path4"
     sodipodi:nodetypes="cccccssssssssssccsssssssssss" />
  <path
     id="rect14"
     style="fill:#000000;fill-rule:evenodd;stroke-width:1.11629"
     d="M 9 9 L 9 14.166016 L 11.798828 14.166016 L 11.798828 13 C 11.248828 13 10.798828 12.55 10.798828 12 C 10.798828 11.45 11.248828 11 11.798828 11 L 11.798828 9 L 9 9 z " />
</svg>
