<?xml version="1.0" encoding="UTF-8" standalone="no"?>
<svg
   xmlns:dc="http://purl.org/dc/elements/1.1/"
   xmlns:cc="http://creativecommons.org/ns#"
   xmlns:rdf="http://www.w3.org/1999/02/22-rdf-syntax-ns#"
   xmlns:svg="http://www.w3.org/2000/svg"
   xmlns="http://www.w3.org/2000/svg"
   xmlns:sodipodi="http://sodipodi.sourceforge.net/DTD/sodipodi-0.dtd"
   xmlns:inkscape="http://www.inkscape.org/namespaces/inkscape"
   height="24"
   viewBox="0 0 24 24"
   width="24"
   version="1.1"
   id="svg6"
   sodipodi:docname="network-wired-disconnected-symbolic.svg"
   inkscape:version="1.0.1 (3bc2e813f5, 2020-09-07)">
  <metadata
     id="metadata12">
    <rdf:RDF>
      <cc:Work
         rdf:about="">
        <dc:format>image/svg+xml</dc:format>
        <dc:type
           rdf:resource="http://purl.org/dc/dcmitype/StillImage" />
      </cc:Work>
    </rdf:RDF>
  </metadata>
  <defs
     id="defs10" />
  <sodipodi:namedview
     pagecolor="#ffffff"
     bordercolor="#666666"
     borderopacity="1"
     objecttolerance="10"
     gridtolerance="10"
     guidetolerance="10"
     inkscape:pageopacity="0"
     inkscape:pageshadow="2"
     inkscape:window-width="1908"
     inkscape:window-height="2108"
     id="namedview8"
     showgrid="false"
     inkscape:zoom="36.833333"
     inkscape:cx="12.054299"
     inkscape:cy="12"
     inkscape:window-x="1924"
     inkscape:window-y="8"
     inkscape:window-maximized="0"
     inkscape:current-layer="svg6"
     inkscape:document-rotation="0" />
  <path
     d="M 7,6.12 C 6.57,5.77 5.94,5.82 5.59,6.25 l -4.24,5.11 c -0.31,0.37 -0.31,0.91 0,1.28 l 4.24,5.11 C 5.94,18.18 6.57,18.23 7,17.88 7.43,17.53 7.48,16.9 7.13,16.47 L 3.42,12 7.13,7.53 C 7.48,7.1 7.43,6.47 7,6.12 Z m 10,0 C 16.57,6.47 16.52,7.1 16.87,7.53 l 3.71,4.47 -3.71,4.47 c -0.35,0.43 -0.29,1.06 0.13,1.41 0.43,0.35 1.06,0.3 1.41,-0.13 l 4.24,-5.11 c 0.31,-0.37 0.31,-0.91 0,-1.28 L 18.41,6.25 C 18.06,5.83 17.42,5.77 17,6.12 Z"
     id="path4"
     sodipodi:nodetypes="sccccscccscccccccccc" />
</svg>
