<?xml version="1.0" encoding="UTF-8" standalone="no"?>
<svg
   xmlns:dc="http://purl.org/dc/elements/1.1/"
   xmlns:cc="http://creativecommons.org/ns#"
   xmlns:rdf="http://www.w3.org/1999/02/22-rdf-syntax-ns#"
   xmlns:svg="http://www.w3.org/2000/svg"
   xmlns="http://www.w3.org/2000/svg"
   xmlns:sodipodi="http://sodipodi.sourceforge.net/DTD/sodipodi-0.dtd"
   xmlns:inkscape="http://www.inkscape.org/namespaces/inkscape"
   style="clip-rule:evenodd;fill-rule:evenodd;stroke-linejoin:round;stroke-miterlimit:1.41421"
   version="1.1"
   viewBox="0 0 16 16"
   id="svg4"
   sodipodi:docname="process-working-symbolic.svg"
   inkscape:version="1.0.1 (3bc2e813f5, 2020-09-07)">
  <metadata
     id="metadata10">
    <rdf:RDF>
      <cc:Work
         rdf:about="">
        <dc:format>image/svg+xml</dc:format>
        <dc:type
           rdf:resource="http://purl.org/dc/dcmitype/StillImage" />
      </cc:Work>
    </rdf:RDF>
  </metadata>
  <defs
     id="defs8" />
  <sodipodi:namedview
     pagecolor="#ffffff"
     bordercolor="#666666"
     borderopacity="1"
     objecttolerance="10"
     gridtolerance="10"
     guidetolerance="10"
     inkscape:pageopacity="0"
     inkscape:pageshadow="2"
     inkscape:window-width="1908"
     inkscape:window-height="2108"
     id="namedview6"
     showgrid="false"
     inkscape:zoom="59.75"
     inkscape:cx="8.0334728"
     inkscape:cy="8"
     inkscape:window-x="1924"
     inkscape:window-y="8"
     inkscape:window-maximized="0"
     inkscape:current-layer="svg4" />
  <path
     d="m2.522 8c0-2.06 1.821-5.241 5.478-5.222 0.695 4e-3 1.259-0.436 1.294-1.103 0.033-0.622-0.519-1.147-1.294-1.168-3.436-0.092-7.314 2.826-7.219 7.493 0.084 4.134 3.67 6.826 6.83 6.833 3.426 7e-3 6.811-2.4 6.83-6.833 6e-3 -1.349-0.681-2.677-0.681-2.677s0.522 0.919 0.491 2.677c-0.047 2.684-2.342 5.883-5.876 5.873-3.305-8e-3 -5.853-2.444-5.853-5.873z"
     style="fill:#000000;fill-opacity:1"
     id="path2" />
</svg>
