<?xml version="1.0" encoding="UTF-8" standalone="no"?>
<svg
   xmlns:dc="http://purl.org/dc/elements/1.1/"
   xmlns:cc="http://creativecommons.org/ns#"
   xmlns:rdf="http://www.w3.org/1999/02/22-rdf-syntax-ns#"
   xmlns:svg="http://www.w3.org/2000/svg"
   xmlns="http://www.w3.org/2000/svg"
   xmlns:sodipodi="http://sodipodi.sourceforge.net/DTD/sodipodi-0.dtd"
   xmlns:inkscape="http://www.inkscape.org/namespaces/inkscape"
   height="24"
   viewBox="0 0 24 24"
   width="24"
   version="1.1"
   id="svg4"
   sodipodi:docname="security-low-symbolic.svg"
   inkscape:version="1.0.1 (3bc2e813f5, 2020-09-07)">
  <metadata
     id="metadata10">
    <rdf:RDF>
      <cc:Work
         rdf:about="">
        <dc:format>image/svg+xml</dc:format>
        <dc:type
           rdf:resource="http://purl.org/dc/dcmitype/StillImage" />
      </cc:Work>
    </rdf:RDF>
  </metadata>
  <defs
     id="defs8" />
  <sodipodi:namedview
     pagecolor="#ffffff"
     bordercolor="#666666"
     borderopacity="1"
     objecttolerance="10"
     gridtolerance="10"
     guidetolerance="10"
     inkscape:pageopacity="0"
     inkscape:pageshadow="2"
     inkscape:window-width="948"
     inkscape:window-height="1028"
     id="namedview6"
     showgrid="false"
     inkscape:zoom="32"
     inkscape:cx="12.132068"
     inkscape:cy="12.620814"
     inkscape:window-x="964"
     inkscape:window-y="8"
     inkscape:window-maximized="0"
     inkscape:current-layer="svg4" />
  <path
     d="m 11.19,1.36 -7,3.11 C 3.47,4.79 3,5.51 3,6.3 V 11 c 0,5.55 3.84,10.74 9,12 5.16,-1.26 9,-6.45 9,-12 V 6.3 C 21,5.51 20.53,4.79 19.81,4.47 l -7,-3.11 C 12.3,1.13 11.7,1.13 11.19,1.36 Z M 19,11.99 c -0.53,4.12 -3.28,7.79 -7,8.94 L 5.8629227,18.066992 5,12 V 6.3 l 7,-3.11 7,3.11 z"
     id="path2"
     sodipodi:nodetypes="ccsscssccccccccccc" />
  <path
     d="m 12.81,1.36 7,3.11 C 20.53,4.79 21,5.51 21,6.3 V 11 C 21,16.55 17.16,21.74 12,23 6.84,21.74 3,16.55 3,11 V 6.3 C 3,5.51 3.47,4.79 4.19,4.47 l 7,-3.11 c 0.51,-0.23 1.11,-0.23 1.62,0 z M 5,11.99 c 0.53,4.12 3.28,7.79 7,8.94 L 18.137077,18.066992 19,12 V 6.3 L 12,3.19 5,6.3 Z"
     id="path2-3"
     sodipodi:nodetypes="ccsscssccccccccccc" />
</svg>
