<?xml version="1.0" encoding="UTF-8" standalone="no"?>
<svg
   xmlns:dc="http://purl.org/dc/elements/1.1/"
   xmlns:cc="http://creativecommons.org/ns#"
   xmlns:rdf="http://www.w3.org/1999/02/22-rdf-syntax-ns#"
   xmlns:svg="http://www.w3.org/2000/svg"
   xmlns="http://www.w3.org/2000/svg"
   xmlns:sodipodi="http://sodipodi.sourceforge.net/DTD/sodipodi-0.dtd"
   xmlns:inkscape="http://www.inkscape.org/namespaces/inkscape"
   height="24"
   viewBox="0 0 24 24"
   width="24"
   version="1.1"
   id="svg6"
   sodipodi:docname="semi-starred-symbolic (copy).svg"
   inkscape:version="1.0.1 (3bc2e813f5, 2020-09-07)">
  <metadata
     id="metadata12">
    <rdf:RDF>
      <cc:Work
         rdf:about="">
        <dc:format>image/svg+xml</dc:format>
        <dc:type
           rdf:resource="http://purl.org/dc/dcmitype/StillImage" />
      </cc:Work>
    </rdf:RDF>
  </metadata>
  <defs
     id="defs10" />
  <sodipodi:namedview
     pagecolor="#ffffff"
     bordercolor="#666666"
     borderopacity="1"
     objecttolerance="10"
     gridtolerance="10"
     guidetolerance="10"
     inkscape:pageopacity="0"
     inkscape:pageshadow="2"
     inkscape:window-width="948"
     inkscape:window-height="492"
     id="namedview8"
     showgrid="false"
     inkscape:zoom="36.833333"
     inkscape:cx="12"
     inkscape:cy="12"
     inkscape:window-x="8"
     inkscape:window-y="544"
     inkscape:window-maximized="0"
     inkscape:current-layer="svg6" />
  <path
     d="M 24,0 H 0 v 24 h 24 z"
     fill="none"
     id="path2" />
  <path
     d="M 4.35,9.04 9.19,8.62 11.08,4.17 c 0.34,-0.81 1.5,-0.81 1.84,0 l 1.89,4.46 4.83,0.41 c 0.88,0.07 1.24,1.17 0.57,1.75 l -3.67,3.18 1.1,4.72 c 0.2,0.86 -0.73,1.54 -1.49,1.08 L 12,17.27 7.85,19.78 C 7.09,20.24 6.16,19.56 6.36,18.7 L 7.46,13.97 3.79,10.79 C 3.12,10.21 3.47,9.11 4.35,9.04 Z M 12,15.4 V 6.1 l -1.71,4.04 -4.38,0.38 3.32,2.88 -1,4.28 z"
     id="path4" />
</svg>
