<?xml version="1.0" encoding="UTF-8" standalone="no"?>
<svg
   xmlns:dc="http://purl.org/dc/elements/1.1/"
   xmlns:cc="http://creativecommons.org/ns#"
   xmlns:rdf="http://www.w3.org/1999/02/22-rdf-syntax-ns#"
   xmlns:svg="http://www.w3.org/2000/svg"
   xmlns="http://www.w3.org/2000/svg"
   xmlns:sodipodi="http://sodipodi.sourceforge.net/DTD/sodipodi-0.dtd"
   xmlns:inkscape="http://www.inkscape.org/namespaces/inkscape"
   height="24"
   viewBox="0 0 24 24"
   width="24"
   version="1.1"
   id="svg6"
   sodipodi:docname="view-wrapped-symbolic-rtl.svg"
   inkscape:version="1.0.1 (3bc2e813f5, 2020-09-07)">
  <metadata
     id="metadata12">
    <rdf:RDF>
      <cc:Work
         rdf:about="">
        <dc:format>image/svg+xml</dc:format>
        <dc:type
           rdf:resource="http://purl.org/dc/dcmitype/StillImage" />
      </cc:Work>
    </rdf:RDF>
  </metadata>
  <defs
     id="defs10" />
  <sodipodi:namedview
     pagecolor="#ffffff"
     bordercolor="#666666"
     borderopacity="1"
     objecttolerance="10"
     gridtolerance="10"
     guidetolerance="10"
     inkscape:pageopacity="0"
     inkscape:pageshadow="2"
     inkscape:window-width="948"
     inkscape:window-height="492"
     id="namedview8"
     showgrid="false"
     inkscape:zoom="6.5112749"
     inkscape:cx="10.875073"
     inkscape:cy="6.363094"
     inkscape:window-x="8"
     inkscape:window-y="8"
     inkscape:window-maximized="0"
     inkscape:current-layer="svg6"
     inkscape:document-rotation="0" />
  <path
     d="M 19,7 H 5 C 4.45,7 4,6.55 4,6 4,5.45 4.45,5 5,5 h 14 c 0.55,0 1,0.45 1,1 0,0.55 -0.45,1 -1,1 z M 7.17,11 H 19 c 0.55,0 1,0.45 1,1 0,0.55 -0.45,1 -1,1 H 6.87 c -1,0 -1.93,0.67 -2.09,1.66 C 4.57,15.91 5.54,17 6.75,17 H 9 v -0.79 c 0,-0.45 0.54,-0.67 0.85,-0.35 l 1.79,1.79 c 0.2,0.2 0.2,0.51 0,0.71 L 9.85,20.15 C 9.53,20.47 9,20.24 9,19.8 V 19 H 7 C 4.66,19 2.79,16.99 3.02,14.61 3.22,12.53 5.08,11 7.17,11 Z M 15,17 h 4 c 0.55,0 1,0.45 1,1 0,0.55 -0.45,1 -1,1 h -4 c -0.55,0 -1,-0.45 -1,-1 0,-0.55 0.45,-1 1,-1 z"
     id="path4" />
</svg>
