<?xml version="1.0" encoding="UTF-8" standalone="no"?>
<svg
   xmlns:dc="http://purl.org/dc/elements/1.1/"
   xmlns:cc="http://creativecommons.org/ns#"
   xmlns:rdf="http://www.w3.org/1999/02/22-rdf-syntax-ns#"
   xmlns:svg="http://www.w3.org/2000/svg"
   xmlns="http://www.w3.org/2000/svg"
   xmlns:sodipodi="http://sodipodi.sourceforge.net/DTD/sodipodi-0.dtd"
   xmlns:inkscape="http://www.inkscape.org/namespaces/inkscape"
   enable-background="new 0 0 24 24"
   height="24"
   viewBox="0 0 24 24"
   width="24"
   version="1.1"
   id="svg14"
   sodipodi:docname="document-page-setup-symbolic.svg"
   inkscape:version="1.0.1 (3bc2e813f5, 2020-09-07)">
  <metadata
     id="metadata20">
    <rdf:RDF>
      <cc:Work
         rdf:about="">
        <dc:format>image/svg+xml</dc:format>
        <dc:type
           rdf:resource="http://purl.org/dc/dcmitype/StillImage" />
      </cc:Work>
    </rdf:RDF>
  </metadata>
  <defs
     id="defs18" />
  <sodipodi:namedview
     pagecolor="#ffffff"
     bordercolor="#666666"
     borderopacity="1"
     objecttolerance="10"
     gridtolerance="10"
     guidetolerance="10"
     inkscape:pageopacity="0"
     inkscape:pageshadow="2"
     inkscape:window-width="948"
     inkscape:window-height="482"
     id="namedview16"
     showgrid="false"
     inkscape:zoom="31"
     inkscape:cx="12"
     inkscape:cy="12"
     inkscape:window-x="56"
     inkscape:window-y="50"
     inkscape:window-maximized="0"
     inkscape:current-layer="svg14" />
  <g
     id="g12">
    <g
       id="g10">
      <path fill="#B9D4F0"
         d="M17.66,17.66l-0.71,0.71c-0.2,0.2-0.51,0.2-0.71,0l0,0c-0.2-0.2-0.2-0.51,0-0.71l0.71-0.71l-1.94-1.94l-0.71,0.71 c-0.2,0.2-0.51,0.2-0.71,0l0,0c-0.2-0.2-0.2-0.51,0-0.71l0.71-0.71l-1.94-1.94l-0.71,0.71c-0.2,0.2-0.51,0.2-0.71,0l0,0 c-0.2-0.2-0.2-0.51,0-0.71l0.71-0.71L9.7,9.7l-0.71,0.71c-0.2,0.2-0.51,0.2-0.71,0l0,0c-0.2-0.2-0.2-0.51,0-0.71l0.71-0.71 L7.05,7.05L6.34,7.76c-0.2,0.2-0.51,0.2-0.71,0l0,0c-0.2-0.2-0.2-0.51,0-0.71l0.71-0.71L4.85,4.85C4.54,4.54,4,4.76,4,5.21V18 c0,1.1,0.9,2,2,2h12.79c0.45,0,0.67-0.54,0.35-0.85L17.66,17.66z M7,16v-4.76L12.76,17H8C7.45,17,7,16.55,7,16z"
         id="path8" />
    </g>
  </g>
</svg>
