<?xml version="1.0" encoding="UTF-8" standalone="no"?>
<svg
   xmlns:dc="http://purl.org/dc/elements/1.1/"
   xmlns:cc="http://creativecommons.org/ns#"
   xmlns:rdf="http://www.w3.org/1999/02/22-rdf-syntax-ns#"
   xmlns:svg="http://www.w3.org/2000/svg"
   xmlns="http://www.w3.org/2000/svg"
   xmlns:sodipodi="http://sodipodi.sourceforge.net/DTD/sodipodi-0.dtd"
   xmlns:inkscape="http://www.inkscape.org/namespaces/inkscape"
   height="24"
   viewBox="0 0 24 24"
   width="24"
   version="1.1"
   id="svg4"
   sodipodi:docname="addons.svg"
   inkscape:version="1.0.2 (e86c870879, 2021-01-15)">
  <metadata
     id="metadata10">
    <rdf:RDF>
      <cc:Work
         rdf:about="">
        <dc:format>image/svg+xml</dc:format>
        <dc:type
           rdf:resource="http://purl.org/dc/dcmitype/StillImage" />
      </cc:Work>
    </rdf:RDF>
  </metadata>
  <defs
     id="defs8" />
  <sodipodi:namedview
     pagecolor="#ffffff"
     bordercolor="#666666"
     borderopacity="1"
     objecttolerance="10"
     gridtolerance="10"
     guidetolerance="10"
     inkscape:pageopacity="0"
     inkscape:pageshadow="2"
     inkscape:window-width="1904"
     inkscape:window-height="1000"
     id="namedview6"
     showgrid="false"
     inkscape:zoom="33.208333"
     inkscape:cx="12"
     inkscape:cy="12"
     inkscape:window-x="26"
     inkscape:window-y="23"
     inkscape:window-maximized="0"
     inkscape:current-layer="svg4" />
  <path
     fill="context-fill"
     fill-opacity="context-fill-opacity"
     d="M 21.142857,11.428571 H 19.428571 V 6.8571429 C 19.428571,5.6 18.4,4.5714286 17.142857,4.5714286 H 12.571429 V 2.8571429 C 12.571429,1.28 11.291429,0 9.714286,0 8.137143,0 6.8571429,1.28 6.8571429,2.8571429 V 4.5714286 H 2.2857143 C 1.0285714,4.5714286 0.0114286,5.6 0.0114286,6.8571429 V 11.2 H 1.7142857 C 3.4171429,11.2 4.8,12.582857 4.8,14.285714 c 0,1.702857 -1.3828571,3.085715 -3.0857143,3.085715 H 0 v 4.342857 C 0,22.971429 1.0285714,24 2.2857143,24 H 6.6285714 V 22.285714 C 6.6285714,20.582857 8.011429,19.2 9.714286,19.2 11.417143,19.2 12.8,20.582857 12.8,22.285714 V 24 h 4.342857 C 18.4,24 19.428571,22.971429 19.428571,21.714286 v -4.571429 h 1.714286 C 22.72,17.142857 24,15.862857 24,14.285714 24,12.708571 22.72,11.428571 21.142857,11.428571 Z"
     id="path2"
     style="stroke-width:1.14286" />
</svg>
