<?xml version="1.0" encoding="UTF-8" standalone="no"?>
<svg
   xmlns:dc="http://purl.org/dc/elements/1.1/"
   xmlns:cc="http://creativecommons.org/ns#"
   xmlns:rdf="http://www.w3.org/1999/02/22-rdf-syntax-ns#"
   xmlns:svg="http://www.w3.org/2000/svg"
   xmlns="http://www.w3.org/2000/svg"
   xmlns:sodipodi="http://sodipodi.sourceforge.net/DTD/sodipodi-0.dtd"
   xmlns:inkscape="http://www.inkscape.org/namespaces/inkscape"
   height="24"
   viewBox="0 0 24 24"
   width="24"
   version="1.1"
   id="svg4"
   sodipodi:docname="bookmark.svg"
   inkscape:version="1.0.2 (e86c870879, 2021-01-15)">
  <metadata
     id="metadata10">
    <rdf:RDF>
      <cc:Work
         rdf:about="">
        <dc:format>image/svg+xml</dc:format>
        <dc:type
           rdf:resource="http://purl.org/dc/dcmitype/StillImage" />
      </cc:Work>
    </rdf:RDF>
  </metadata>
  <defs
     id="defs8" />
  <sodipodi:namedview
     pagecolor="#ffffff"
     bordercolor="#666666"
     borderopacity="1"
     objecttolerance="10"
     gridtolerance="10"
     guidetolerance="10"
     inkscape:pageopacity="0"
     inkscape:pageshadow="2"
     inkscape:window-width="1904"
     inkscape:window-height="1000"
     id="namedview6"
     showgrid="false"
     inkscape:zoom="33.208333"
     inkscape:cx="12"
     inkscape:cy="12"
     inkscape:window-x="26"
     inkscape:window-y="23"
     inkscape:window-maximized="0"
     inkscape:current-layer="svg4" />
  <path
     fill="context-fill"
     fill-opacity="context-fill-opacity"
     d="M 22.724223,8.2066742 15.937925,7.6177812 13.287904,1.3783128 c -0.476724,-1.13572351 -2.103192,-1.13572351 -2.579915,0 L 8.0579684,7.6318022 1.2856913,8.2066742 c -1.2338723,0.09815 -1.7386383,1.64049 -0.7992127,2.4537238 l 5.1458085,4.458766 -1.5423404,6.618042 c -0.2804255,1.20583 1.0235532,2.159277 2.0891702,1.514298 l 5.8188291,-3.505319 5.81883,3.519341 c 1.065617,0.644978 2.369596,-0.308469 2.08917,-1.514298 l -1.54234,-6.632064 5.145809,-4.458766 C 24.44884,9.8471642 23.958095,8.3048232 22.724223,8.2066742 Z m -10.726277,8.9175318 -5.2719996,3.18283 1.402128,-6.001106 -4.6550639,-4.038128 6.1413189,-0.5328088 2.3836166,-5.650574 2.397639,5.664596 6.141319,0.5328078 -4.655064,4.038128 1.402128,6.001106 z"
     id="path2"
     style="stroke-width:1.40213" />
</svg>
