<?xml version="1.0" encoding="UTF-8" standalone="no"?>
<svg
   xmlns:dc="http://purl.org/dc/elements/1.1/"
   xmlns:cc="http://creativecommons.org/ns#"
   xmlns:rdf="http://www.w3.org/1999/02/22-rdf-syntax-ns#"
   xmlns:svg="http://www.w3.org/2000/svg"
   xmlns="http://www.w3.org/2000/svg"
   xmlns:sodipodi="http://sodipodi.sourceforge.net/DTD/sodipodi-0.dtd"
   xmlns:inkscape="http://www.inkscape.org/namespaces/inkscape"
   version="1.1"
   id="mdi-bug"
   width="24"
   height="24"
   viewBox="0 0 24 24"
   sodipodi:docname="bug.svg"
   inkscape:version="1.0.2 (e86c870879, 2021-01-15)">
  <metadata
     id="metadata9">
    <rdf:RDF>
      <cc:Work
         rdf:about="">
        <dc:format>image/svg+xml</dc:format>
        <dc:type
           rdf:resource="http://purl.org/dc/dcmitype/StillImage" />
      </cc:Work>
    </rdf:RDF>
  </metadata>
  <defs
     id="defs7" />
  <sodipodi:namedview
     pagecolor="#ffffff"
     bordercolor="#666666"
     borderopacity="1"
     objecttolerance="10"
     gridtolerance="10"
     guidetolerance="10"
     inkscape:pageopacity="0"
     inkscape:pageshadow="2"
     inkscape:window-width="1904"
     inkscape:window-height="1000"
     id="namedview5"
     showgrid="false"
     inkscape:zoom="33.208333"
     inkscape:cx="12"
     inkscape:cy="12"
     inkscape:window-x="26"
     inkscape:window-y="23"
     inkscape:window-maximized="0"
     inkscape:current-layer="mdi-bug" />
  <path
     fill="context-fill"
     fill-opacity="context-fill-opacity"
     d="M 14.666667,12 H 9.3333335 V 9.333333 h 5.3333335 m 0,8 H 9.3333335 V 14.666667 H 14.666667 M 22.666666,6.6666667 H 18.92 c -0.6,-1.04 -1.426667,-1.9333334 -2.426667,-2.6133334 L 18.666666,1.88 16.786667,0 13.893333,2.8933333 C 13.280001,2.7466667 12.666667,2.6666667 12.000001,2.6666667 c -0.666667,0 -1.28,0.08 -1.88,0.2266666 L 7.2133335,0 l -1.88,1.88 2.16,2.1733333 c -0.9866667,0.68 -1.8133333,1.5733334 -2.4133333,2.6133334 H 1.3333335 V 9.333333 h 2.7866667 c -0.066667,0.44 -0.12,0.88 -0.12,1.333334 V 12 H 1.3333335 v 2.666667 H 4.0000002 V 16 c 0,0.453333 0.053333,0.893333 0.12,1.333333 H 1.3333335 V 20 h 3.7466667 c 1.3866666,2.386667 3.9600003,4 6.9200008,4 2.96,0 5.533332,-1.613333 6.919999,-4 h 3.746666 V 17.333333 H 19.880001 C 19.94667,16.893333 20,16.453333 20,16 v -1.333333 h 2.666666 V 12 H 20 v -1.333333 c 0,-0.453334 -0.05333,-0.893334 -0.119999,-1.333334 h 2.786665 z"
     id="path2"
     style="stroke-width:1.33333" />
</svg>
