<?xml version="1.0" encoding="UTF-8" standalone="no"?>
<svg
   xmlns:dc="http://purl.org/dc/elements/1.1/"
   xmlns:cc="http://creativecommons.org/ns#"
   xmlns:rdf="http://www.w3.org/1999/02/22-rdf-syntax-ns#"
   xmlns:svg="http://www.w3.org/2000/svg"
   xmlns="http://www.w3.org/2000/svg"
   xmlns:sodipodi="http://sodipodi.sourceforge.net/DTD/sodipodi-0.dtd"
   xmlns:inkscape="http://www.inkscape.org/namespaces/inkscape"
   height="24"
   viewBox="0 0 24 24"
   width="24"
   version="1.1"
   id="svg4"
   sodipodi:docname="copy.svg"
   inkscape:version="1.0.2 (e86c870879, 2021-01-15)">
  <metadata
     id="metadata10">
    <rdf:RDF>
      <cc:Work
         rdf:about="">
        <dc:format>image/svg+xml</dc:format>
        <dc:type
           rdf:resource="http://purl.org/dc/dcmitype/StillImage" />
      </cc:Work>
    </rdf:RDF>
  </metadata>
  <defs
     id="defs8" />
  <sodipodi:namedview
     pagecolor="#ffffff"
     bordercolor="#666666"
     borderopacity="1"
     objecttolerance="10"
     gridtolerance="10"
     guidetolerance="10"
     inkscape:pageopacity="0"
     inkscape:pageshadow="2"
     inkscape:window-width="1904"
     inkscape:window-height="1000"
     id="namedview6"
     showgrid="false"
     inkscape:zoom="33.208333"
     inkscape:cx="12"
     inkscape:cy="12"
     inkscape:window-x="26"
     inkscape:window-y="23"
     inkscape:window-maximized="0"
     inkscape:current-layer="svg4" />
  <path
     fill="context-fill"
     fill-opacity="context-fill-opacity"
     d="M 15.818182,0 H 3.8181817 c -1.2,0 -2.1818182,0.9818182 -2.1818182,2.1818182 V 16.363636 c 0,0.6 0.4909091,1.090909 1.0909091,1.090909 0.6,0 1.0909091,-0.490909 1.0909091,-1.090909 V 3.2727273 c 0,-0.6 0.4909091,-1.0909091 1.0909091,-1.0909091 H 15.818182 c 0.6,0 1.090908,-0.4909091 1.090908,-1.0909091 C 16.90909,0.4909091 16.418182,0 15.818182,0 Z m 4.363636,4.3636364 h -12 c -1.2,0 -2.1818181,0.9818181 -2.1818181,2.1818181 V 21.818182 c 0,1.2 0.9818181,2.181818 2.1818181,2.181818 h 12 c 1.200001,0 2.181818,-0.981818 2.181818,-2.181818 V 6.5454545 c 0,-1.2 -0.981817,-2.1818181 -2.181818,-2.1818181 z M 19.090908,21.818182 H 9.2727271 c -0.6,0 -1.0909091,-0.490909 -1.0909091,-1.090909 V 7.6363636 c 0,-0.6 0.4909091,-1.0909091 1.0909091,-1.0909091 h 9.8181809 c 0.6,0 1.09091,0.4909091 1.09091,1.0909091 V 20.727273 c 0,0.6 -0.49091,1.090909 -1.09091,1.090909 z"
     id="path2"
     style="stroke-width:1.09091" />
</svg>
