<?xml version="1.0" encoding="UTF-8" standalone="no"?>
<svg
   xmlns:dc="http://purl.org/dc/elements/1.1/"
   xmlns:cc="http://creativecommons.org/ns#"
   xmlns:rdf="http://www.w3.org/1999/02/22-rdf-syntax-ns#"
   xmlns:svg="http://www.w3.org/2000/svg"
   xmlns="http://www.w3.org/2000/svg"
   xmlns:sodipodi="http://sodipodi.sourceforge.net/DTD/sodipodi-0.dtd"
   xmlns:inkscape="http://www.inkscape.org/namespaces/inkscape"
   height="24"
   viewBox="0 0 24 24"
   width="24"
   version="1.1"
   id="svg4"
   sodipodi:docname="cut.svg"
   inkscape:version="1.0.2 (e86c870879, 2021-01-15)">
  <metadata
     id="metadata10">
    <rdf:RDF>
      <cc:Work
         rdf:about="">
        <dc:format>image/svg+xml</dc:format>
        <dc:type
           rdf:resource="http://purl.org/dc/dcmitype/StillImage" />
      </cc:Work>
    </rdf:RDF>
  </metadata>
  <defs
     id="defs8" />
  <sodipodi:namedview
     pagecolor="#ffffff"
     bordercolor="#666666"
     borderopacity="1"
     objecttolerance="10"
     gridtolerance="10"
     guidetolerance="10"
     inkscape:pageopacity="0"
     inkscape:pageshadow="2"
     inkscape:window-width="1904"
     inkscape:window-height="1000"
     id="namedview6"
     showgrid="false"
     inkscape:zoom="33.208333"
     inkscape:cx="12"
     inkscape:cy="12"
     inkscape:window-x="26"
     inkscape:window-y="23"
     inkscape:window-maximized="0"
     inkscape:current-layer="svg4" />
  <path
     fill="context-fill"
     fill-opacity="context-fill-opacity"
     d="M 9.1712445,6.7717747 C 9.5190075,6.0282826 9.6749005,5.1768642 9.5789665,4.2654868 9.3511215,2.190904 7.7322276,0.42810816 5.6696366,0.08034566 2.3479057,-0.49526114 -0.49415278,2.3467975 0.08145402,5.6565365 c 0.3597542,2.0625911 2.11055818,3.681485 4.18514098,3.90933 0.9113775,0.09593 1.750804,-0.05996 2.5062879,-0.407722 L 9.6029495,12.000203 6.7728829,14.830269 C 6.0293908,14.482507 5.1779725,14.326613 4.266595,14.422548 c -2.0745828,0.227844 -3.83737858,1.846738 -4.18514098,3.909329 -0.5756068,3.321731 2.26645168,6.151798 5.57619078,5.576191 2.062591,-0.359754 3.6814847,-2.110558 3.9093297,-4.185141 0.09593,-0.911377 -0.05996,-1.750804 -0.407722,-2.506288 l 2.8420595,-2.818075 9.101782,9.101783 c 1.067271,1.067271 2.890026,0.311787 2.890026,-1.199181 v -0.01199 c 0,-0.443697 -0.179877,-0.875402 -0.491664,-1.199181 z M 4.8062264,7.2034798 c -1.3190989,0 -2.3983616,-1.0672709 -2.3983616,-2.3983616 0,-1.3310907 1.0792627,-2.3983617 2.3983616,-2.3983617 1.3190989,0 2.3983616,1.067271 2.3983616,2.3983617 0,1.3310907 -1.0792627,2.3983616 -2.3983616,2.3983616 z m 0,14.3901692 c -1.3190989,0 -2.3983616,-1.067271 -2.3983616,-2.398362 0,-1.33109 1.0792627,-2.398361 2.3983616,-2.398361 1.3190989,0 2.3983616,1.067271 2.3983616,2.398361 0,1.331091 -1.0792627,2.398362 -2.3983616,2.398362 z m 7.1950856,-8.993856 c -0.335771,0 -0.599591,-0.26382 -0.599591,-0.59959 0,-0.335771 0.26382,-0.599591 0.599591,-0.599591 0.33577,0 0.59959,0.26382 0.59959,0.599591 0,0.33577 -0.26382,0.59959 -0.59959,0.59959 z M 21.103094,0.50005896 13.200493,8.4026605 15.598854,10.801022 23.501456,2.8984207 C 23.813243,2.5866336 23.99312,2.1549285 23.99312,1.6992398 v -0.011992 c 0,-1.49897604 -1.822755,-2.25445994 -2.890026,-1.18718884 z"
     id="path2"
     style="stroke-width:1.19918" />
</svg>
