<?xml version="1.0" encoding="UTF-8" standalone="no"?>
<svg
   xmlns:dc="http://purl.org/dc/elements/1.1/"
   xmlns:cc="http://creativecommons.org/ns#"
   xmlns:rdf="http://www.w3.org/1999/02/22-rdf-syntax-ns#"
   xmlns:svg="http://www.w3.org/2000/svg"
   xmlns="http://www.w3.org/2000/svg"
   xmlns:sodipodi="http://sodipodi.sourceforge.net/DTD/sodipodi-0.dtd"
   xmlns:inkscape="http://www.inkscape.org/namespaces/inkscape"
   height="24"
   viewBox="0 0 24 24"
   width="24"
   version="1.1"
   id="svg4"
   sodipodi:docname="developer.svg"
   inkscape:version="1.0.2 (e86c870879, 2021-01-15)">
  <metadata
     id="metadata10">
    <rdf:RDF>
      <cc:Work
         rdf:about="">
        <dc:format>image/svg+xml</dc:format>
        <dc:type
           rdf:resource="http://purl.org/dc/dcmitype/StillImage" />
      </cc:Work>
    </rdf:RDF>
  </metadata>
  <defs
     id="defs8" />
  <sodipodi:namedview
     pagecolor="#ffffff"
     bordercolor="#666666"
     borderopacity="1"
     objecttolerance="10"
     gridtolerance="10"
     guidetolerance="10"
     inkscape:pageopacity="0"
     inkscape:pageshadow="2"
     inkscape:window-width="1904"
     inkscape:window-height="1000"
     id="namedview6"
     showgrid="false"
     inkscape:zoom="33.208333"
     inkscape:cx="12"
     inkscape:cy="12"
     inkscape:window-x="26"
     inkscape:window-y="23"
     inkscape:window-maximized="0"
     inkscape:current-layer="svg4" />
  <path
     fill="context-fill"
     fill-opacity="context-fill-opacity"
     d="M 12.533148,2.1367785 C 10.268229,-0.12813978 6.8764862,-0.59013802 4.1495698,0.73951545 L 8.2399445,4.8298902 c 0.4394617,0.4394617 0.4394617,1.1493614 0,1.5888232 L 6.4482927,8.2103651 c -0.4394617,0.45073 -1.1493614,0.45073 -1.5888232,0 L 0.76909488,4.1199904 C -0.54929039,6.8581751 -0.08729215,10.227381 2.1776261,12.4923 4.2735205,14.588194 7.3384845,15.140338 9.94145,14.16 l 8.969527,8.969527 c 1.16063,1.16063 3.031159,1.16063 4.180521,0 1.160629,-1.160629 1.160629,-3.031159 0,-4.18052 L 14.167044,10.013285 C 15.203723,7.3765146 14.662847,4.2664777 12.533148,2.1367785 Z"
     id="path2"
     style="stroke-width:1.12682" />
</svg>
