<?xml version="1.0" encoding="UTF-8" standalone="no"?>
<svg
   xmlns:dc="http://purl.org/dc/elements/1.1/"
   xmlns:cc="http://creativecommons.org/ns#"
   xmlns:rdf="http://www.w3.org/1999/02/22-rdf-syntax-ns#"
   xmlns:svg="http://www.w3.org/2000/svg"
   xmlns="http://www.w3.org/2000/svg"
   xmlns:sodipodi="http://sodipodi.sourceforge.net/DTD/sodipodi-0.dtd"
   xmlns:inkscape="http://www.inkscape.org/namespaces/inkscape"
   height="24"
   viewBox="0 0 24 24"
   width="24"
   version="1.1"
   id="svg4"
   sodipodi:docname="fullscreen-exit.svg"
   inkscape:version="1.0.2 (e86c870879, 2021-01-15)">
  <metadata
     id="metadata10">
    <rdf:RDF>
      <cc:Work
         rdf:about="">
        <dc:format>image/svg+xml</dc:format>
        <dc:type
           rdf:resource="http://purl.org/dc/dcmitype/StillImage" />
      </cc:Work>
    </rdf:RDF>
  </metadata>
  <defs
     id="defs8" />
  <sodipodi:namedview
     pagecolor="#ffffff"
     bordercolor="#666666"
     borderopacity="1"
     objecttolerance="10"
     gridtolerance="10"
     guidetolerance="10"
     inkscape:pageopacity="0"
     inkscape:pageshadow="2"
     inkscape:window-width="1904"
     inkscape:window-height="1000"
     id="namedview6"
     showgrid="false"
     inkscape:zoom="33.208333"
     inkscape:cx="12"
     inkscape:cy="12"
     inkscape:window-x="26"
     inkscape:window-y="23"
     inkscape:window-maximized="0"
     inkscape:current-layer="svg4" />
  <path
     fill="context-fill"
     fill-opacity="context-fill-opacity"
     d="m 3,18 h 3 v 3 c 0,0.825 0.675,1.5 1.5,1.5 C 8.325,22.5 9,21.825 9,21 V 16.5 C 9,15.675 8.325,15 7.5,15 H 3 C 2.175,15 1.5,15.675 1.5,16.5 1.5,17.325 2.175,18 3,18 Z M 6,6 H 3 C 2.175,6 1.5,6.675 1.5,7.5 1.5,8.325 2.175,9 3,9 H 7.5 C 8.325,9 9,8.325 9,7.5 V 3 C 9,2.175 8.325,1.5 7.5,1.5 6.675,1.5 6,2.175 6,3 Z m 10.5,16.5 c 0.825,0 1.5,-0.675 1.5,-1.5 v -3 h 3 c 0.825,0 1.5,-0.675 1.5,-1.5 C 22.5,15.675 21.825,15 21,15 H 16.5 C 15.675,15 15,15.675 15,16.5 V 21 c 0,0.825 0.675,1.5 1.5,1.5 z M 18,6 V 3 C 18,2.175 17.325,1.5 16.5,1.5 15.675,1.5 15,2.175 15,3 V 7.5 C 15,8.325 15.675,9 16.5,9 H 21 C 21.825,9 22.5,8.325 22.5,7.5 22.5,6.675 21.825,6 21,6 Z"
     id="path2"
     style="stroke-width:1.5" />
</svg>
