<?xml version="1.0" encoding="UTF-8" standalone="no"?>
<svg
   xmlns:dc="http://purl.org/dc/elements/1.1/"
   xmlns:cc="http://creativecommons.org/ns#"
   xmlns:rdf="http://www.w3.org/1999/02/22-rdf-syntax-ns#"
   xmlns:svg="http://www.w3.org/2000/svg"
   xmlns="http://www.w3.org/2000/svg"
   xmlns:sodipodi="http://sodipodi.sourceforge.net/DTD/sodipodi-0.dtd"
   xmlns:inkscape="http://www.inkscape.org/namespaces/inkscape"
   version="1.1"
   width="24"
   height="24"
   viewBox="0 0 24 24"
   id="svg4"
   sodipodi:docname="help.svg"
   inkscape:version="1.0.2 (e86c870879, 2021-01-15)">
  <metadata
     id="metadata10">
    <rdf:RDF>
      <cc:Work
         rdf:about="">
        <dc:format>image/svg+xml</dc:format>
        <dc:type
           rdf:resource="http://purl.org/dc/dcmitype/StillImage" />
      </cc:Work>
    </rdf:RDF>
  </metadata>
  <defs
     id="defs8" />
  <sodipodi:namedview
     pagecolor="#ffffff"
     bordercolor="#666666"
     borderopacity="1"
     objecttolerance="10"
     gridtolerance="10"
     guidetolerance="10"
     inkscape:pageopacity="0"
     inkscape:pageshadow="2"
     inkscape:window-width="1904"
     inkscape:window-height="1000"
     id="namedview6"
     showgrid="false"
     inkscape:zoom="33.208333"
     inkscape:cx="12"
     inkscape:cy="12"
     inkscape:window-x="26"
     inkscape:window-y="23"
     inkscape:window-maximized="0"
     inkscape:current-layer="svg4" />
  <path
     fill="context-fill"
     fill-opacity="context-fill-opacity"
     d="m 21.348,16.092 c 1.14,-2.604 1.14,-5.592 0,-8.184 L 18.06,9.396 c 0.72,1.656 0.72,3.54 0.012,5.208 l 3.276,1.488 M 16.104,2.652 c -2.604,-1.14 -5.592,-1.14 -8.196,0 L 9.396,5.928 C 11.064,5.22 12.948,5.22 14.616,5.94 L 16.104,2.652 M 2.652,7.896 c -1.14,2.616 -1.14,5.592 0,8.208 l 3.288,-1.5 c -0.72,-1.656 -0.72,-3.552 0,-5.22 L 2.652,7.896 m 5.256,13.452 c 2.604,1.14 5.592,1.14 8.196,-0.012 L 14.616,18.06 c -1.656,0.72 -3.552,0.72 -5.208,0.012 l -1.5,3.276 M 12,0 A 12,12 0 0 1 24,12 12,12 0 0 1 12,24 12,12 0 0 1 0,12 12,12 0 0 1 12,0 m 0,7.2 A 4.8,4.8 0 0 0 7.2,12 4.8,4.8 0 0 0 12,16.8 4.8,4.8 0 0 0 16.8,12 4.8,4.8 0 0 0 12,7.2 Z"
     id="path2"
     style="stroke-width:1.2" />
</svg>
