<?xml version="1.0" encoding="UTF-8" standalone="no"?>
<svg
   xmlns:dc="http://purl.org/dc/elements/1.1/"
   xmlns:cc="http://creativecommons.org/ns#"
   xmlns:rdf="http://www.w3.org/1999/02/22-rdf-syntax-ns#"
   xmlns:svg="http://www.w3.org/2000/svg"
   xmlns="http://www.w3.org/2000/svg"
   xmlns:sodipodi="http://sodipodi.sourceforge.net/DTD/sodipodi-0.dtd"
   xmlns:inkscape="http://www.inkscape.org/namespaces/inkscape"
   height="24"
   viewBox="0 0 24 24"
   width="24"
   version="1.1"
   id="svg4"
   sodipodi:docname="history.svg"
   inkscape:version="1.0.2 (e86c870879, 2021-01-15)">
  <metadata
     id="metadata10">
    <rdf:RDF>
      <cc:Work
         rdf:about="">
        <dc:format>image/svg+xml</dc:format>
        <dc:type
           rdf:resource="http://purl.org/dc/dcmitype/StillImage" />
      </cc:Work>
    </rdf:RDF>
  </metadata>
  <defs
     id="defs8" />
  <sodipodi:namedview
     pagecolor="#ffffff"
     bordercolor="#666666"
     borderopacity="1"
     objecttolerance="10"
     gridtolerance="10"
     guidetolerance="10"
     inkscape:pageopacity="0"
     inkscape:pageshadow="2"
     inkscape:window-width="1904"
     inkscape:window-height="1000"
     id="namedview6"
     showgrid="false"
     inkscape:zoom="33.208333"
     inkscape:cx="12"
     inkscape:cy="12"
     inkscape:window-x="26"
     inkscape:window-y="23"
     inkscape:window-maximized="0"
     inkscape:current-layer="svg4" />
  <path
     fill="context-fill"
     fill-opacity="context-fill-opacity"
     d="M 13.660335,1.3590587 C 7.6411254,1.1935009 2.7098675,6.0301544 2.7098675,12.002062 H 0.59309254 c -0.5321501,0 -0.7923124,0.63858 -0.4138945,1.005172 l 3.29933076,3.311157 c 0.2365112,0.236511 0.6031035,0.236511 0.8396147,0 l 3.2993308,-3.311157 c 0.3665923,-0.366592 0.10643,-1.005172 -0.4257201,-1.005172 h -2.116775 c 0,-4.6119684 3.7605273,-8.3370193 8.3961468,-8.2778916 4.399108,0.059128 8.100508,3.7605276 8.159636,8.1596356 0.05913,4.623794 -3.665924,8.396147 -8.277891,8.396147 -1.903915,0 -3.6659235,-0.650406 -5.0613399,-1.750183 -0.4730223,-0.366592 -1.1352536,-0.331116 -1.5609737,0.09461 -0.4966735,0.496673 -0.4611968,1.336288 0.094605,1.762008 1.7974851,1.419067 4.0561676,2.258681 6.5277096,2.258681 5.971906,0 10.80856,-4.931257 10.643001,-10.950467 C 23.842141,6.1484099 19.206522,1.512791 13.660335,1.3590587 Z M 13.057232,7.271838 c -0.484848,0 -0.886917,0.402069 -0.886917,0.8869169 v 4.3518061 c 0,0.413894 0.224685,0.804138 0.579452,1.016998 l 3.689574,2.187728 c 0.425721,0.248337 0.969696,0.10643 1.218033,-0.307464 0.248337,-0.42572 0.10643,-0.969696 -0.307465,-1.218033 l -3.40576,-2.02217 V 8.1469293 c 0,-0.4730223 -0.402069,-0.8750913 -0.886917,-0.8750913 z"
     id="path2"
     style="stroke-width:1.18256" />
</svg>
