<?xml version="1.0" encoding="UTF-8" standalone="no"?>
<svg
   xmlns:dc="http://purl.org/dc/elements/1.1/"
   xmlns:cc="http://creativecommons.org/ns#"
   xmlns:rdf="http://www.w3.org/1999/02/22-rdf-syntax-ns#"
   xmlns:svg="http://www.w3.org/2000/svg"
   xmlns="http://www.w3.org/2000/svg"
   xmlns:sodipodi="http://sodipodi.sourceforge.net/DTD/sodipodi-0.dtd"
   xmlns:inkscape="http://www.inkscape.org/namespaces/inkscape"
   height="24"
   viewBox="0 0 24 24"
   width="24"
   version="1.1"
   id="svg4"
   sodipodi:docname="hyperlink.svg"
   inkscape:version="1.0.2 (e86c870879, 2021-01-15)">
  <metadata
     id="metadata10">
    <rdf:RDF>
      <cc:Work
         rdf:about="">
        <dc:format>image/svg+xml</dc:format>
        <dc:type
           rdf:resource="http://purl.org/dc/dcmitype/StillImage" />
      </cc:Work>
    </rdf:RDF>
  </metadata>
  <defs
     id="defs8" />
  <sodipodi:namedview
     pagecolor="#ffffff"
     bordercolor="#666666"
     borderopacity="1"
     objecttolerance="10"
     gridtolerance="10"
     guidetolerance="10"
     inkscape:pageopacity="0"
     inkscape:pageshadow="2"
     inkscape:window-width="1904"
     inkscape:window-height="1000"
     id="namedview6"
     showgrid="false"
     inkscape:zoom="33.208333"
     inkscape:cx="12"
     inkscape:cy="12"
     inkscape:window-x="26"
     inkscape:window-y="23"
     inkscape:window-maximized="0"
     inkscape:current-layer="svg4" />
  <path
     fill="context-fill"
     fill-opacity="context-fill-opacity"
     d="M 2.3455455,11.255893 C 2.6815941,9.4916365 4.3378341,8.2794609 6.138095,8.2794609 h 3.516509 c 0.624091,0 1.140166,-0.5160748 1.140166,-1.1401652 0,-0.6240904 -0.516075,-1.1401652 -1.140166,-1.1401652 H 6.2581124 c -3.1324539,0 -5.92885906,2.2923321 -6.22890256,5.4127845 -0.3480504,3.576518 2.46035646,6.588954 5.96486426,6.588954 H 9.654604 c 0.624091,0 1.140166,-0.516075 1.140166,-1.140165 0,-0.624091 -0.516075,-1.140164 -1.140166,-1.140164 H 5.9940741 c -2.2923321,0 -4.1045947,-2.088303 -3.6485286,-4.464647 z m 6.0488765,1.944281 h 7.201043 c 0.660096,0 1.200174,-0.540078 1.200174,-1.200174 0,-0.660096 -0.540078,-1.200173 -1.200174,-1.200173 H 8.394422 c -0.6600958,0 -1.200174,0.540077 -1.200174,1.200173 0,0.660095 0.5400782,1.200174 1.200174,1.200174 z m 9.337353,-7.2010435 h -3.396492 c -0.624091,0 -1.140166,0.5160748 -1.140166,1.1401652 0,0.6240904 0.516075,1.1401652 1.140166,1.1401652 h 3.516509 c 1.800261,0 3.456501,1.2121756 3.79255,2.9764321 0.456066,2.376343 -1.356197,4.464647 -3.648529,4.464647 h -3.66053 c -0.624091,0 -1.140166,0.516073 -1.140166,1.140164 0,0.62409 0.516075,1.140165 1.140166,1.140165 h 3.66053 c 3.504508,0 6.312915,-3.012436 5.976866,-6.588954 -0.300043,-3.1204524 -3.10845,-5.4127845 -6.240904,-5.4127845 z"
     id="path2"
     style="stroke-width:1.20017" />
</svg>
