<?xml version="1.0" encoding="UTF-8" standalone="no"?>
<svg
   xmlns:dc="http://purl.org/dc/elements/1.1/"
   xmlns:cc="http://creativecommons.org/ns#"
   xmlns:rdf="http://www.w3.org/1999/02/22-rdf-syntax-ns#"
   xmlns:svg="http://www.w3.org/2000/svg"
   xmlns="http://www.w3.org/2000/svg"
   xmlns:sodipodi="http://sodipodi.sourceforge.net/DTD/sodipodi-0.dtd"
   xmlns:inkscape="http://www.inkscape.org/namespaces/inkscape"
   height="24"
   viewBox="0 0 24 24"
   width="24"
   version="1.1"
   id="svg4"
   sodipodi:docname="circle-filled.svg"
   inkscape:version="1.0.2 (e86c870879, 2021-01-15)">
  <metadata
     id="metadata10">
    <rdf:RDF>
      <cc:Work
         rdf:about="">
        <dc:format>image/svg+xml</dc:format>
        <dc:type
           rdf:resource="http://purl.org/dc/dcmitype/StillImage" />
      </cc:Work>
    </rdf:RDF>
  </metadata>
  <defs
     id="defs8" />
  <sodipodi:namedview
     pagecolor="#ffffff"
     bordercolor="#666666"
     borderopacity="1"
     objecttolerance="10"
     gridtolerance="10"
     guidetolerance="10"
     inkscape:pageopacity="0"
     inkscape:pageshadow="2"
     inkscape:window-width="1904"
     inkscape:window-height="1000"
     id="namedview6"
     showgrid="false"
     inkscape:zoom="33.208333"
     inkscape:cx="12"
     inkscape:cy="12"
     inkscape:window-x="26"
     inkscape:window-y="23"
     inkscape:window-maximized="0"
     inkscape:current-layer="svg4"
     inkscape:document-rotation="0" />
  <path
     fill="context-fill" fill-opacity="context-fill-opacity"
     id="path2"
     d="M 12,0 C 5.364,0 0,5.364 0,12 0,18.636 5.364,24 12,24 18.636,24 24,18.636 24,12 24,5.364 18.636,0 12,0 Z M 6.6420992,8.540149 c 3.0773318,0 3.8890668,1.258594 5.3718748,1.258594 1.482808,0 2.396106,-1.258594 5.371874,-1.258594 2.97577,0 3.768752,0.801572 3.768752,3.086718 0,3.879673 -1.716417,6.053907 -4.113282,6.053907 -1.939836,0 -3.199226,-2.285157 -5.027344,-2.285157 -1.828118,0 -3.199226,2.285157 -5.0273435,2.285157 -2.3968661,0 -4.1132813,-2.174234 -4.1132813,-6.053907 0,-2.396865 0.6914182,-3.086718 3.76875,-3.086718 z m 1.8796878,2.849999 c -0.12973,-0.01044 -0.258497,-0.0092 -0.386719,0.0047 -1.8281181,0.121874 -2.6320313,1.146095 -2.6320312,1.481251 0,0.233592 1.2500041,1.035937 2.3976562,1.035937 1.147652,0 2.629687,-0.456252 2.629687,-0.801562 -0.204393,-0.995302 -1.100485,-1.647407 -2.008593,-1.720306 z m 6.958593,0 c -0.968371,0.0729 -1.778419,0.725004 -1.982812,1.720313 0,0.345311 1.370317,0.801563 2.629687,0.801563 1.25937,0 2.397656,-0.800783 2.397656,-1.02422 0,-0.233593 -0.792194,-1.371093 -2.620311,-1.492969 -0.143458,-0.01397 -0.285881,-0.0151 -0.42422,-0.0047 z"
     sodipodi:nodetypes="ssssssssssssssscsscsscsscs"
     style="stroke-width:1.2" />
</svg>
