<?xml version="1.0" encoding="UTF-8" standalone="no"?>
<svg
   xmlns:dc="http://purl.org/dc/elements/1.1/"
   xmlns:cc="http://creativecommons.org/ns#"
   xmlns:rdf="http://www.w3.org/1999/02/22-rdf-syntax-ns#"
   xmlns:svg="http://www.w3.org/2000/svg"
   xmlns="http://www.w3.org/2000/svg"
   xmlns:sodipodi="http://sodipodi.sourceforge.net/DTD/sodipodi-0.dtd"
   xmlns:inkscape="http://www.inkscape.org/namespaces/inkscape"
   height="24"
   viewBox="0 0 24 24"
   width="24"
   version="1.1"
   id="svg4"
   sodipodi:docname="key.svg"
   inkscape:version="1.0.2 (e86c870879, 2021-01-15)">
  <metadata
     id="metadata10">
    <rdf:RDF>
      <cc:Work
         rdf:about="">
        <dc:format>image/svg+xml</dc:format>
        <dc:type
           rdf:resource="http://purl.org/dc/dcmitype/StillImage" />
      </cc:Work>
    </rdf:RDF>
  </metadata>
  <defs
     id="defs8" />
  <sodipodi:namedview
     pagecolor="#ffffff"
     bordercolor="#666666"
     borderopacity="1"
     objecttolerance="10"
     gridtolerance="10"
     guidetolerance="10"
     inkscape:pageopacity="0"
     inkscape:pageshadow="2"
     inkscape:window-width="1904"
     inkscape:window-height="1000"
     id="namedview6"
     showgrid="false"
     inkscape:zoom="33.208333"
     inkscape:cx="12"
     inkscape:cy="12"
     inkscape:window-x="26"
     inkscape:window-y="23"
     inkscape:window-maximized="0"
     inkscape:current-layer="svg4" />
  <path
     fill="context-fill"
     fill-opacity="context-fill-opacity"
     d="M 12.708183,9.8191376 C 11.671736,6.8843562 8.6169448,4.9096519 5.2021248,5.58607 2.703742,6.0879285 0.67448789,8.0844527 0.15080949,10.582836 c -0.89461743,4.222158 2.31291321,7.964277 6.39324141,7.964277 2.847502,0 5.2695151,-1.821965 6.1641321,-4.363988 h 4.745836 v 2.181994 c 0,1.200097 0.981897,2.181994 2.181994,2.181994 1.200096,0 2.181994,-0.981897 2.181994,-2.181994 V 14.183125 C 23.018103,14.183125 24,13.201228 24,12.001132 24,10.801035 23.018103,9.8191376 21.818007,9.8191376 Z M 6.5440509,14.183125 c -1.2000965,0 -2.1819937,-0.981897 -2.1819937,-2.181993 0,-1.200097 0.9818972,-2.1819944 2.1819937,-2.1819944 1.2000965,0 2.1819936,0.9818974 2.1819936,2.1819944 0,1.200096 -0.9818971,2.181993 -2.1819936,2.181993 z"
     id="path2"
     style="stroke-width:1.091" />
</svg>
