<?xml version="1.0" encoding="UTF-8" standalone="no"?>
<svg
   xmlns:dc="http://purl.org/dc/elements/1.1/"
   xmlns:cc="http://creativecommons.org/ns#"
   xmlns:rdf="http://www.w3.org/1999/02/22-rdf-syntax-ns#"
   xmlns:svg="http://www.w3.org/2000/svg"
   xmlns="http://www.w3.org/2000/svg"
   xmlns:sodipodi="http://sodipodi.sourceforge.net/DTD/sodipodi-0.dtd"
   xmlns:inkscape="http://www.inkscape.org/namespaces/inkscape"
   version="1.1"
   id="mdi-dots-horizontal"
   width="24"
   height="24"
   viewBox="0 0 24 24"
   sodipodi:docname="menu.svg"
   inkscape:version="1.0.2 (e86c870879, 2021-01-15)">
  <metadata
     id="metadata9">
    <rdf:RDF>
      <cc:Work
         rdf:about="">
        <dc:format>image/svg+xml</dc:format>
        <dc:type
           rdf:resource="http://purl.org/dc/dcmitype/StillImage" />
      </cc:Work>
    </rdf:RDF>
  </metadata>
  <defs
     id="defs7" />
  <sodipodi:namedview
     pagecolor="#ffffff"
     bordercolor="#666666"
     borderopacity="1"
     objecttolerance="10"
     gridtolerance="10"
     guidetolerance="10"
     inkscape:pageopacity="0"
     inkscape:pageshadow="2"
     inkscape:window-width="1904"
     inkscape:window-height="1000"
     id="namedview5"
     showgrid="false"
     inkscape:zoom="33.208333"
     inkscape:cx="12"
     inkscape:cy="12"
     inkscape:window-x="26"
     inkscape:window-y="23"
     inkscape:window-maximized="0"
     inkscape:current-layer="mdi-dots-horizontal"
     inkscape:document-rotation="0" />
  <path
     fill="context-fill"
     fill-opacity="context-fill-opacity"
     d="M 17.25,12 A 2.625,2.625 0 0 1 19.875,9.375 2.625,2.625 0 0 1 22.5,12 2.625,2.625 0 0 1 19.875,14.625 2.625,2.625 0 0 1 17.25,12 M 9.375,12 A 2.625,2.625 0 0 1 12,9.375 2.625,2.625 0 0 1 14.625,12 2.625,2.625 0 0 1 12,14.625 2.625,2.625 0 0 1 9.375,12 M 1.5,12 A 2.625,2.625 0 0 1 4.125,9.375 2.625,2.625 0 0 1 6.75,12 2.625,2.625 0 0 1 4.125,14.625 2.625,2.625 0 0 1 1.5,12 Z"
     id="path2"
     style="stroke-width:1.3125" />
</svg>
