<?xml version="1.0" encoding="UTF-8" standalone="no"?>
<svg
   xmlns:dc="http://purl.org/dc/elements/1.1/"
   xmlns:cc="http://creativecommons.org/ns#"
   xmlns:rdf="http://www.w3.org/1999/02/22-rdf-syntax-ns#"
   xmlns:svg="http://www.w3.org/2000/svg"
   xmlns="http://www.w3.org/2000/svg"
   xmlns:sodipodi="http://sodipodi.sourceforge.net/DTD/sodipodi-0.dtd"
   xmlns:inkscape="http://www.inkscape.org/namespaces/inkscape"
   height="24"
   viewBox="0 0 24 24"
   width="24"
   version="1.1"
   id="svg4"
   sodipodi:docname="menu-update.svg"
   inkscape:version="1.0.2 (e86c870879, 2021-01-15)">
  <metadata
     id="metadata10">
    <rdf:RDF>
      <cc:Work
         rdf:about="">
        <dc:format>image/svg+xml</dc:format>
        <dc:type
           rdf:resource="http://purl.org/dc/dcmitype/StillImage" />
      </cc:Work>
    </rdf:RDF>
  </metadata>
  <defs
     id="defs8" />
  <sodipodi:namedview
     pagecolor="#ffffff"
     bordercolor="#666666"
     borderopacity="1"
     objecttolerance="10"
     gridtolerance="10"
     guidetolerance="10"
     inkscape:pageopacity="0"
     inkscape:pageshadow="2"
     inkscape:window-width="1904"
     inkscape:window-height="1000"
     id="namedview6"
     showgrid="false"
     inkscape:zoom="33.208333"
     inkscape:cx="12"
     inkscape:cy="12"
     inkscape:window-x="26"
     inkscape:window-y="23"
     inkscape:window-maximized="0"
     inkscape:current-layer="svg4" />
  <path
     fill="context-fill"
     fill-opacity="context-fill-opacity"
     d="m 9.1071265,18.214253 h 5.7857475 c 0.795539,0 1.446435,-0.650896 1.446435,-1.446436 V 9.535634 h 2.299835 c 1.287328,0 1.938225,-1.562152 1.02697,-2.473407 L 13.026971,0.42308271 c -0.564111,-0.5641103 -1.475366,-0.5641103 -2.039476,0 L 4.3483502,7.062227 C 3.4370951,7.973482 4.0735272,9.535634 5.3608558,9.535634 h 2.2998347 v 7.232183 c 0,0.79554 0.650896,1.446436 1.446436,1.446436 z M 3.3213801,21.107127 H 20.678619 c 0.795541,0 1.446437,0.650896 1.446437,1.446436 C 22.125056,23.349104 21.47416,24 20.678619,24 H 3.3213801 C 2.52584,24 1.8749435,23.349104 1.8749435,22.553563 c 0,-0.79554 0.6508965,-1.446436 1.4464366,-1.446436 z"
     id="path2"
     style="stroke-width:1.44644" />
</svg>
