<?xml version="1.0" encoding="UTF-8" standalone="no"?>
<svg
   xmlns:dc="http://purl.org/dc/elements/1.1/"
   xmlns:cc="http://creativecommons.org/ns#"
   xmlns:rdf="http://www.w3.org/1999/02/22-rdf-syntax-ns#"
   xmlns:svg="http://www.w3.org/2000/svg"
   xmlns="http://www.w3.org/2000/svg"
   xmlns:sodipodi="http://sodipodi.sourceforge.net/DTD/sodipodi-0.dtd"
   xmlns:inkscape="http://www.inkscape.org/namespaces/inkscape"
   version="1.1"
   id="mdi-domino-mask"
   width="24"
   height="24"
   viewBox="0 0 24 24"
   sodipodi:docname="new-private-window.svg"
   inkscape:version="1.0.2 (e86c870879, 2021-01-15)">
  <metadata
     id="metadata9">
    <rdf:RDF>
      <cc:Work
         rdf:about="">
        <dc:format>image/svg+xml</dc:format>
        <dc:type
           rdf:resource="http://purl.org/dc/dcmitype/StillImage" />
      </cc:Work>
    </rdf:RDF>
  </metadata>
  <defs
     id="defs7" />
  <sodipodi:namedview
     pagecolor="#ffffff"
     bordercolor="#666666"
     borderopacity="1"
     objecttolerance="10"
     gridtolerance="10"
     guidetolerance="10"
     inkscape:pageopacity="0"
     inkscape:pageshadow="2"
     inkscape:window-width="1904"
     inkscape:window-height="1000"
     id="namedview5"
     showgrid="false"
     inkscape:zoom="33.208333"
     inkscape:cx="12"
     inkscape:cy="12"
     inkscape:window-x="26"
     inkscape:window-y="23"
     inkscape:window-maximized="0"
     inkscape:current-layer="mdi-domino-mask" />
  <path
     fill="context-fill"
     fill-opacity="context-fill-opacity"
     d="M 17.106667,9.746667 C 15.6,9.6 14.253333,10.506667 13.946667,12 c 0,0.453333 1.8,1.053333 3.453333,1.053333 1.653333,0 3.146667,-1.053333 3.146667,-1.346666 0,-0.306667 -1.04,-1.8 -3.44,-1.96 m -10.2000003,0 c -2.4,0.16 -3.4533334,1.506666 -3.4533334,1.946666 0,0.306667 1.64,1.36 3.1466667,1.36 1.506667,0 3.453333,-0.6 3.453333,-1.053333 -0.306666,-1.493333 -1.8,-2.4 -3.1466663,-2.253333 M 18.6,18 C 16.053333,18 14.4,15 12,15 9.6,15 7.8,18 5.4,18 2.2533333,18 0,15.146667 0,10.053333 0,6.9066667 0.9066667,6 4.9466667,6 8.986667,6 10.053333,7.6533333 12,7.6533333 13.946667,7.6533333 15.146667,6 19.053333,6 22.96,6 24,7.0533333 24,10.053333 24,15.146667 21.746667,18 18.6,18 Z"
     id="path2"
     style="stroke-width:1.33333" />
</svg>
