<?xml version="1.0" encoding="UTF-8" standalone="no"?>
<svg
   xmlns:dc="http://purl.org/dc/elements/1.1/"
   xmlns:cc="http://creativecommons.org/ns#"
   xmlns:rdf="http://www.w3.org/1999/02/22-rdf-syntax-ns#"
   xmlns:svg="http://www.w3.org/2000/svg"
   xmlns="http://www.w3.org/2000/svg"
   xmlns:sodipodi="http://sodipodi.sourceforge.net/DTD/sodipodi-0.dtd"
   xmlns:inkscape="http://www.inkscape.org/namespaces/inkscape"
   height="24"
   viewBox="0 0 24 24"
   width="24"
   version="1.1"
   id="svg4"
   sodipodi:docname="new-tab-image.svg"
   inkscape:version="1.0.2 (e86c870879, 2021-01-15)">
  <metadata
     id="metadata10">
    <rdf:RDF>
      <cc:Work
         rdf:about="">
        <dc:format>image/svg+xml</dc:format>
        <dc:type
           rdf:resource="http://purl.org/dc/dcmitype/StillImage" />
      </cc:Work>
    </rdf:RDF>
  </metadata>
  <defs
     id="defs8" />
  <sodipodi:namedview
     pagecolor="#ffffff"
     bordercolor="#666666"
     borderopacity="1"
     objecttolerance="10"
     gridtolerance="10"
     guidetolerance="10"
     inkscape:pageopacity="0"
     inkscape:pageshadow="2"
     inkscape:window-width="1904"
     inkscape:window-height="1000"
     id="namedview6"
     showgrid="false"
     inkscape:zoom="33.208333"
     inkscape:cx="12"
     inkscape:cy="12"
     inkscape:window-x="26"
     inkscape:window-y="23"
     inkscape:window-maximized="0"
     inkscape:current-layer="svg4" />
  <path
     fill="context-fill"
     fill-opacity="context-fill-opacity"
     d="M 21.333333,0 H 2.6666667 C 1.1866667,0 0,1.2 0,2.6666667 V 21.333333 C 0,22.8 1.1866667,24 2.6666667,24 H 21.333333 C 22.8,24 24,22.8 24,21.333333 V 2.6666667 C 24,1.2 22.8,0 21.333333,0 Z m -4,13.333333 h -4 v 4 c 0,0.733334 -0.6,1.333334 -1.333333,1.333334 -0.733333,0 -1.333333,-0.6 -1.333333,-1.333334 v -4 H 6.6666667 c -0.7333334,0 -1.3333334,-0.6 -1.3333334,-1.333333 0,-0.733333 0.6,-1.333333 1.3333334,-1.333333 H 10.666667 V 6.6666667 c 0,-0.7333334 0.6,-1.3333334 1.333333,-1.3333334 0.733333,0 1.333333,0.6 1.333333,1.3333334 v 4.0000003 h 4 c 0.733334,0 1.333334,0.6 1.333334,1.333333 0,0.733333 -0.6,1.333333 -1.333334,1.333333 z"
     id="path2"
     style="stroke-width:1.33333" />
</svg>
