<?xml version="1.0" encoding="UTF-8" standalone="no"?>
<svg
   xmlns:dc="http://purl.org/dc/elements/1.1/"
   xmlns:cc="http://creativecommons.org/ns#"
   xmlns:rdf="http://www.w3.org/1999/02/22-rdf-syntax-ns#"
   xmlns:svg="http://www.w3.org/2000/svg"
   xmlns="http://www.w3.org/2000/svg"
   xmlns:sodipodi="http://sodipodi.sourceforge.net/DTD/sodipodi-0.dtd"
   xmlns:inkscape="http://www.inkscape.org/namespaces/inkscape"
   height="24"
   viewBox="0 0 24 24"
   width="24"
   version="1.1"
   id="svg4"
   sodipodi:docname="new-window.svg"
   inkscape:version="1.0.2 (e86c870879, 2021-01-15)">
  <metadata
     id="metadata10">
    <rdf:RDF>
      <cc:Work
         rdf:about="">
        <dc:format>image/svg+xml</dc:format>
        <dc:type
           rdf:resource="http://purl.org/dc/dcmitype/StillImage" />
      </cc:Work>
    </rdf:RDF>
  </metadata>
  <defs
     id="defs8" />
  <sodipodi:namedview
     pagecolor="#ffffff"
     bordercolor="#666666"
     borderopacity="1"
     objecttolerance="10"
     gridtolerance="10"
     guidetolerance="10"
     inkscape:pageopacity="0"
     inkscape:pageshadow="2"
     inkscape:window-width="1904"
     inkscape:window-height="1000"
     id="namedview6"
     showgrid="false"
     inkscape:zoom="33.208333"
     inkscape:cx="12"
     inkscape:cy="12"
     inkscape:window-x="26"
     inkscape:window-y="23"
     inkscape:window-maximized="0"
     inkscape:current-layer="svg4" />
  <path
     fill="context-fill"
     fill-opacity="context-fill-opacity"
     d="M 1.2,4.8 C 0.54,4.8 0,5.34 0,6 V 21.6 C 0,22.92 1.08,24 2.4,24 H 18 c 0.66,0 1.2,-0.54 1.2,-1.2 0,-0.66 -0.54,-1.2 -1.2,-1.2 H 3.6 C 2.94,21.6 2.4,21.06 2.4,20.4 V 6 C 2.4,5.34 1.86,4.8 1.2,4.8 Z M 21.6,0 H 7.2 C 5.88,0 4.8,1.08 4.8,2.4 v 14.4 c 0,1.32 1.08,2.4 2.4,2.4 h 14.4 c 1.32,0 2.4,-1.08 2.4,-2.4 V 2.4 C 24,1.08 22.92,0 21.6,0 Z m -2.4,10.8 h -3.6 v 3.6 c 0,0.66 -0.54,1.2 -1.2,1.2 -0.66,0 -1.2,-0.54 -1.2,-1.2 V 10.8 H 9.6 C 8.94,10.8 8.4,10.26 8.4,9.6 8.4,8.94 8.94,8.4 9.6,8.4 h 3.6 V 4.8 c 0,-0.66 0.54,-1.2 1.2,-1.2 0.66,0 1.2,0.54 1.2,1.2 v 3.6 h 3.6 c 0.66,0 1.2,0.54 1.2,1.2 0,0.66 -0.54,1.2 -1.2,1.2 z"
     id="path2"
     style="stroke-width:1.2" />
</svg>
