<?xml version="1.0" encoding="UTF-8" standalone="no"?>
<svg
   xmlns:dc="http://purl.org/dc/elements/1.1/"
   xmlns:cc="http://creativecommons.org/ns#"
   xmlns:rdf="http://www.w3.org/1999/02/22-rdf-syntax-ns#"
   xmlns:svg="http://www.w3.org/2000/svg"
   xmlns="http://www.w3.org/2000/svg"
   xmlns:sodipodi="http://sodipodi.sourceforge.net/DTD/sodipodi-0.dtd"
   xmlns:inkscape="http://www.inkscape.org/namespaces/inkscape"
   height="24"
   viewBox="0 0 24 24"
   width="24"
   version="1.1"
   id="svg4"
   sodipodi:docname="paste.svg"
   inkscape:version="1.0.2 (e86c870879, 2021-01-15)">
  <metadata
     id="metadata10">
    <rdf:RDF>
      <cc:Work
         rdf:about="">
        <dc:format>image/svg+xml</dc:format>
        <dc:type
           rdf:resource="http://purl.org/dc/dcmitype/StillImage" />
      </cc:Work>
    </rdf:RDF>
  </metadata>
  <defs
     id="defs8" />
  <sodipodi:namedview
     pagecolor="#ffffff"
     bordercolor="#666666"
     borderopacity="1"
     objecttolerance="10"
     gridtolerance="10"
     guidetolerance="10"
     inkscape:pageopacity="0"
     inkscape:pageshadow="2"
     inkscape:window-width="1904"
     inkscape:window-height="1000"
     id="namedview6"
     showgrid="false"
     inkscape:zoom="33.208333"
     inkscape:cx="12"
     inkscape:cy="12"
     inkscape:window-x="26"
     inkscape:window-y="23"
     inkscape:window-maximized="0"
     inkscape:current-layer="svg4" />
  <path
     fill="context-fill"
     fill-opacity="context-fill-opacity"
     d="m 19.636363,2.1818182 h -4.56 C 14.618182,0.91636364 13.418182,0 12,0 10.581818,0 9.381818,0.91636364 8.9236362,2.1818182 h -4.56 c -1.2,0 -2.1818182,0.9818182 -2.1818182,2.1818182 V 21.818182 c 0,1.2 0.9818182,2.181818 2.1818182,2.181818 H 19.636363 c 1.2,0 2.181819,-0.981818 2.181819,-2.181818 V 4.3636364 c 0,-1.2 -0.981819,-2.1818182 -2.181819,-2.1818182 z m -7.636363,0 c 0.6,0 1.090909,0.4909091 1.090909,1.0909091 0,0.6 -0.490909,1.0909091 -1.090909,1.0909091 -0.6,0 -1.090909,-0.4909091 -1.090909,-1.0909091 0,-0.6 0.490909,-1.0909091 1.090909,-1.0909091 z M 18.545454,21.818182 H 5.4545453 c -0.6,0 -1.0909091,-0.490909 -1.0909091,-1.090909 V 5.4545455 c 0,-0.6 0.4909091,-1.0909091 1.0909091,-1.0909091 h 1.0909091 v 1.0909091 c 0,1.2 0.9818181,2.1818181 2.1818181,2.1818181 h 6.5454545 c 1.2,0 2.181818,-0.9818181 2.181818,-2.1818181 V 4.3636364 h 1.090909 c 0.6,0 1.090909,0.4909091 1.090909,1.0909091 V 20.727273 c 0,0.6 -0.490909,1.090909 -1.090909,1.090909 z"
     id="path2"
     style="stroke-width:1.09091" />
</svg>
