<?xml version="1.0" encoding="UTF-8" standalone="no"?>
<svg
   xmlns:dc="http://purl.org/dc/elements/1.1/"
   xmlns:cc="http://creativecommons.org/ns#"
   xmlns:rdf="http://www.w3.org/1999/02/22-rdf-syntax-ns#"
   xmlns:svg="http://www.w3.org/2000/svg"
   xmlns="http://www.w3.org/2000/svg"
   xmlns:sodipodi="http://sodipodi.sourceforge.net/DTD/sodipodi-0.dtd"
   xmlns:inkscape="http://www.inkscape.org/namespaces/inkscape"
   height="24"
   viewBox="0 0 24 24"
   width="24"
   version="1.1"
   id="svg4"
   sodipodi:docname="print.svg"
   inkscape:version="1.0.2 (e86c870879, 2021-01-15)">
  <metadata
     id="metadata10">
    <rdf:RDF>
      <cc:Work
         rdf:about="">
        <dc:format>image/svg+xml</dc:format>
        <dc:type
           rdf:resource="http://purl.org/dc/dcmitype/StillImage" />
      </cc:Work>
    </rdf:RDF>
  </metadata>
  <defs
     id="defs8" />
  <sodipodi:namedview
     pagecolor="#ffffff"
     bordercolor="#666666"
     borderopacity="1"
     objecttolerance="10"
     gridtolerance="10"
     guidetolerance="10"
     inkscape:pageopacity="0"
     inkscape:pageshadow="2"
     inkscape:window-width="1904"
     inkscape:window-height="1000"
     id="namedview6"
     showgrid="false"
     inkscape:zoom="33.208333"
     inkscape:cx="12"
     inkscape:cy="12"
     inkscape:window-x="26"
     inkscape:window-y="23"
     inkscape:window-maximized="0"
     inkscape:current-layer="svg4" />
  <path
     fill="context-fill"
     fill-opacity="context-fill-opacity"
     d="M 20.4,7.2 H 3.6 C 1.608,7.2 0,8.808 0,10.8 v 4.8 C 0,16.92 1.08,18 2.4,18 h 2.4 v 2.4 c 0,1.32 1.08,2.4 2.4,2.4 h 9.6 c 1.32,0 2.4,-1.08 2.4,-2.4 V 18 h 2.4 C 22.92,18 24,16.92 24,15.6 V 10.8 C 24,8.808 22.392,7.2 20.4,7.2 Z M 15.6,20.4 H 8.4 c -0.66,0 -1.2,-0.54 -1.2,-1.2 v -4.8 h 9.6 v 4.8 c 0,0.66 -0.54,1.2 -1.2,1.2 z M 20.4,12 c -0.66,0 -1.2,-0.54 -1.2,-1.2 0,-0.66 0.54,-1.2 1.2,-1.2 0.66,0 1.2,0.54 1.2,1.2 0,0.66 -0.54,1.2 -1.2,1.2 z M 18,1.2 H 6 C 5.34,1.2 4.8,1.74 4.8,2.4 V 4.8 C 4.8,5.46 5.34,6 6,6 h 12 c 0.66,0 1.2,-0.54 1.2,-1.2 V 2.4 C 19.2,1.74 18.66,1.2 18,1.2 Z"
     id="path2"
     style="stroke-width:1.2" />
</svg>
