<?xml version="1.0" encoding="UTF-8" standalone="no"?>
<svg
   xmlns:dc="http://purl.org/dc/elements/1.1/"
   xmlns:cc="http://creativecommons.org/ns#"
   xmlns:rdf="http://www.w3.org/1999/02/22-rdf-syntax-ns#"
   xmlns:svg="http://www.w3.org/2000/svg"
   xmlns="http://www.w3.org/2000/svg"
   xmlns:sodipodi="http://sodipodi.sourceforge.net/DTD/sodipodi-0.dtd"
   xmlns:inkscape="http://www.inkscape.org/namespaces/inkscape"
   version="1.1"
   id="mdi-account-circle"
   width="24"
   height="24"
   viewBox="0 0 24 24"
   sodipodi:docname="account-circle.svg"
   inkscape:version="1.0.2 (e86c870879, 2021-01-15)">
  <metadata
     id="metadata9">
    <rdf:RDF>
      <cc:Work
         rdf:about="">
        <dc:format>image/svg+xml</dc:format>
        <dc:type
           rdf:resource="http://purl.org/dc/dcmitype/StillImage" />
      </cc:Work>
    </rdf:RDF>
  </metadata>
  <defs
     id="defs7" />
  <sodipodi:namedview
     pagecolor="#ffffff"
     bordercolor="#666666"
     borderopacity="1"
     objecttolerance="10"
     gridtolerance="10"
     guidetolerance="10"
     inkscape:pageopacity="0"
     inkscape:pageshadow="2"
     inkscape:window-width="1904"
     inkscape:window-height="1000"
     id="namedview5"
     showgrid="false"
     inkscape:zoom="33.208333"
     inkscape:cx="12"
     inkscape:cy="12"
     inkscape:window-x="26"
     inkscape:window-y="23"
     inkscape:window-maximized="0"
     inkscape:current-layer="mdi-account-circle" />
  <path
     fill="context-fill" fill-opacity="context-fill-opacity"
     d="m 12,20.64 c -3,0 -5.652,-1.536 -7.2,-3.84 0.036,-2.4 4.8,-3.72 7.2,-3.72 2.4,0 7.164,1.32 7.2,3.72 -1.548,2.304 -4.2,3.84 -7.2,3.84 M 12,3.6 A 3.6,3.6 0 0 1 15.6,7.2 3.6,3.6 0 0 1 12,10.8 3.6,3.6 0 0 1 8.4,7.2 3.6,3.6 0 0 1 12,3.6 M 12,0 A 12,12 0 0 0 0,12 12,12 0 0 0 12,24 12,12 0 0 0 24,12 C 24,5.364 18.6,0 12,0 Z"
     id="path2"
     style="stroke-width:1.2" />
</svg>
