<?xml version="1.0" encoding="UTF-8" standalone="no"?>
<svg
   xmlns:dc="http://purl.org/dc/elements/1.1/"
   xmlns:cc="http://creativecommons.org/ns#"
   xmlns:rdf="http://www.w3.org/1999/02/22-rdf-syntax-ns#"
   xmlns:svg="http://www.w3.org/2000/svg"
   xmlns="http://www.w3.org/2000/svg"
   xmlns:sodipodi="http://sodipodi.sourceforge.net/DTD/sodipodi-0.dtd"
   xmlns:inkscape="http://www.inkscape.org/namespaces/inkscape"
   height="24"
   viewBox="0 0 24 24"
   width="24"
   version="1.1"
   id="svg4"
   sodipodi:docname="refresh.svg"
   inkscape:version="1.0.2 (e86c870879, 2021-01-15)">
  <metadata
     id="metadata10">
    <rdf:RDF>
      <cc:Work
         rdf:about="">
        <dc:format>image/svg+xml</dc:format>
        <dc:type
           rdf:resource="http://purl.org/dc/dcmitype/StillImage" />
      </cc:Work>
    </rdf:RDF>
  </metadata>
  <defs
     id="defs8" />
  <sodipodi:namedview
     pagecolor="#ffffff"
     bordercolor="#666666"
     borderopacity="1"
     objecttolerance="10"
     gridtolerance="10"
     guidetolerance="10"
     inkscape:pageopacity="0"
     inkscape:pageshadow="2"
     inkscape:window-width="1904"
     inkscape:window-height="1000"
     id="namedview6"
     showgrid="false"
     inkscape:zoom="33.208333"
     inkscape:cx="12"
     inkscape:cy="12"
     inkscape:window-x="26"
     inkscape:window-y="23"
     inkscape:window-maximized="0"
     inkscape:current-layer="svg4"
     inkscape:document-rotation="0" />
  <path
     fill="context-fill"
     fill-opacity="context-fill-opacity"
     d="M 20.471397,3.5287384 C 18.023898,1.0841849 14.555357,-0.32555768 10.741463,0.06437112 5.2308365,0.61926982 0.69620671,5.0884536 0.08057811,10.592449 -0.74526509,17.86612 4.8854839,24 11.987735,24 c 4.789891,0 8.904092,-2.804488 10.826054,-6.838751 0.48049,-1.004817 -0.240245,-2.159606 -1.35138,-2.159606 -0.555567,0 -1.081104,0.299946 -1.321349,0.794855 -1.696732,3.644335 -5.765887,5.953913 -10.210425,4.964094 C 6.597232,20.025726 3.9094874,17.311222 3.2037669,13.98183 1.9424791,8.1628919 6.372002,3.0038343 11.987735,3.0038343 c 2.492545,0 4.714814,1.034811 6.33647,2.6695125 L 16.05689,7.9379329 c -0.945966,0.944828 -0.285291,2.5645321 1.051073,2.5645321 h 5.390504 C 23.32431,10.502465 24,9.8275879 24,9.0027389 V 3.618722 C 24,2.2839658 22.378344,1.609089 21.432378,2.5539165 Z"
     id="path2"
     style="stroke-width:1.50063" />
</svg>
