<?xml version="1.0" encoding="UTF-8" standalone="no"?>
<svg
   xmlns:dc="http://purl.org/dc/elements/1.1/"
   xmlns:cc="http://creativecommons.org/ns#"
   xmlns:rdf="http://www.w3.org/1999/02/22-rdf-syntax-ns#"
   xmlns:svg="http://www.w3.org/2000/svg"
   xmlns="http://www.w3.org/2000/svg"
   xmlns:sodipodi="http://sodipodi.sourceforge.net/DTD/sodipodi-0.dtd"
   xmlns:inkscape="http://www.inkscape.org/namespaces/inkscape"
   width="16"
   height="16"
   viewBox="0 0 16 16"
   version="1.1"
   id="svg4"
   sodipodi:docname="save-pocket.svg"
   inkscape:version="1.0.2 (e86c870879, 2021-01-15)">
  <metadata
     id="metadata10">
    <rdf:RDF>
      <cc:Work
         rdf:about="">
        <dc:format>image/svg+xml</dc:format>
        <dc:type
           rdf:resource="http://purl.org/dc/dcmitype/StillImage" />
      </cc:Work>
    </rdf:RDF>
  </metadata>
  <defs
     id="defs8" />
  <sodipodi:namedview
     pagecolor="#ffffff"
     bordercolor="#666666"
     borderopacity="1"
     objecttolerance="10"
     gridtolerance="10"
     guidetolerance="10"
     inkscape:pageopacity="0"
     inkscape:pageshadow="2"
     inkscape:window-width="1904"
     inkscape:window-height="1000"
     id="namedview6"
     showgrid="false"
     inkscape:zoom="49.8125"
     inkscape:cx="8"
     inkscape:cy="8"
     inkscape:window-x="26"
     inkscape:window-y="23"
     inkscape:window-maximized="0"
     inkscape:current-layer="svg4" />
  <path
     id="path2"
     style="fill:#000000;fill-opacity:1"
     d="M 1.9550781 2 C 0.88153481 2 1.4802974e-16 2.8815348 0 3.9550781 L 0 6.2265625 C 0 10.513399 3.4866011 14 7.7734375 14 L 8.2265625 14 C 12.513399 14 16 10.513399 16 6.2265625 L 16 3.9550781 C 16 2.8815348 15.118465 2 14.044922 2 L 1.9550781 2 z M 11.869141 5.2246094 C 12.084063 5.2246094 12.298539 5.3063508 12.462891 5.4707031 C 12.791596 5.7994078 12.791596 6.3314516 12.462891 6.6601562 L 8.59375 10.529297 C 8.2650455 10.858002 7.7349538 10.858002 7.40625 10.529297 L 3.5371094 6.6601562 C 3.2084048 6.3314515 3.2084048 5.7994078 3.5371094 5.4707031 C 3.865814 5.1504269 4.4056704 5.1419985 4.734375 5.4707031 L 8.0039062 8.7421875 L 11.273438 5.4707031 C 11.43779 5.3063508 11.654218 5.2246094 11.869141 5.2246094 z " />
</svg>
