<?xml version="1.0" encoding="UTF-8" standalone="no"?>
<svg
   xmlns:dc="http://purl.org/dc/elements/1.1/"
   xmlns:cc="http://creativecommons.org/ns#"
   xmlns:rdf="http://www.w3.org/1999/02/22-rdf-syntax-ns#"
   xmlns:svg="http://www.w3.org/2000/svg"
   xmlns="http://www.w3.org/2000/svg"
   xmlns:sodipodi="http://sodipodi.sourceforge.net/DTD/sodipodi-0.dtd"
   xmlns:inkscape="http://www.inkscape.org/namespaces/inkscape"
   height="24"
   viewBox="0 0 24 24"
   width="24"
   version="1.1"
   id="svg4"
   sodipodi:docname="savefile.svg"
   inkscape:version="1.0.2 (e86c870879, 2021-01-15)">
  <metadata
     id="metadata10">
    <rdf:RDF>
      <cc:Work
         rdf:about="">
        <dc:format>image/svg+xml</dc:format>
        <dc:type
           rdf:resource="http://purl.org/dc/dcmitype/StillImage" />
      </cc:Work>
    </rdf:RDF>
  </metadata>
  <defs
     id="defs8" />
  <sodipodi:namedview
     pagecolor="#ffffff"
     bordercolor="#666666"
     borderopacity="1"
     objecttolerance="10"
     gridtolerance="10"
     guidetolerance="10"
     inkscape:pageopacity="0"
     inkscape:pageshadow="2"
     inkscape:window-width="1904"
     inkscape:window-height="1000"
     id="namedview6"
     showgrid="false"
     inkscape:zoom="33.208333"
     inkscape:cx="12"
     inkscape:cy="12"
     inkscape:window-x="26"
     inkscape:window-y="23"
     inkscape:window-maximized="0"
     inkscape:current-layer="svg4" />
  <path
     fill="context-fill"
     fill-opacity="context-fill-opacity"
     d="M 19.453333,0.7866667 C 18.946667,0.28 18.266667,0 17.56,0 H 2.6666667 C 1.1866667,0 0,1.2 0,2.6666667 V 21.333333 C 0,22.8 1.2,24 2.6666667,24 H 21.333333 C 22.8,24 24,22.8 24,21.333333 V 6.44 C 24,5.7333333 23.72,5.0533333 23.213333,4.56 Z M 12,21.333333 c -2.213333,0 -4,-1.786666 -4,-4 0,-2.213333 1.786667,-4 4,-4 2.213333,0 4,1.786667 4,4 0,2.213334 -1.786667,4 -4,4 z M 13.333333,8 H 5.3333333 C 3.8666667,8 2.6666667,6.8 2.6666667,5.3333333 c 0,-1.4666666 1.2,-2.6666666 2.6666666,-2.6666666 H 13.333333 C 14.8,2.6666667 16,3.8666667 16,5.3333333 16,6.8 14.8,8 13.333333,8 Z"
     id="path2"
     style="stroke-width:1.33333" />
</svg>
