<?xml version="1.0" encoding="UTF-8" standalone="no"?>
<svg
   xmlns:dc="http://purl.org/dc/elements/1.1/"
   xmlns:cc="http://creativecommons.org/ns#"
   xmlns:rdf="http://www.w3.org/1999/02/22-rdf-syntax-ns#"
   xmlns:svg="http://www.w3.org/2000/svg"
   xmlns="http://www.w3.org/2000/svg"
   xmlns:sodipodi="http://sodipodi.sourceforge.net/DTD/sodipodi-0.dtd"
   xmlns:inkscape="http://www.inkscape.org/namespaces/inkscape"
   height="24"
   viewBox="0 0 24 24"
   width="24"
   version="1.1"
   id="svg4"
   sodipodi:docname="search.svg"
   inkscape:version="1.0.2 (e86c870879, 2021-01-15)">
  <metadata
     id="metadata10">
    <rdf:RDF>
      <cc:Work
         rdf:about="">
        <dc:format>image/svg+xml</dc:format>
        <dc:type
           rdf:resource="http://purl.org/dc/dcmitype/StillImage" />
      </cc:Work>
    </rdf:RDF>
  </metadata>
  <defs
     id="defs8" />
  <sodipodi:namedview
     pagecolor="#ffffff"
     bordercolor="#666666"
     borderopacity="1"
     objecttolerance="10"
     gridtolerance="10"
     guidetolerance="10"
     inkscape:pageopacity="0"
     inkscape:pageshadow="2"
     inkscape:window-width="1904"
     inkscape:window-height="1000"
     id="namedview6"
     showgrid="false"
     inkscape:zoom="33.208333"
     inkscape:cx="12"
     inkscape:cy="12"
     inkscape:window-x="26"
     inkscape:window-y="23"
     inkscape:window-maximized="0"
     inkscape:current-layer="svg4" />
  <path
     fill="context-fill"
     fill-opacity="context-fill-opacity"
     d="M 17.594841,15.477376 H 16.483347 L 16.0894,15.097498 C 17.777745,13.127762 18.650057,10.44048 18.171692,7.5843627 17.510424,3.6730305 14.24629,0.54959236 10.306819,0.07122796 4.3554031,-0.66038814 -0.65335351,4.3483685 0.07826259,10.299785 c 0.4783644,3.939471 3.60180251,7.203605 7.51313471,7.864873 2.8561167,0.478365 5.5433987,-0.393947 7.5131347,-2.082292 l 0.379878,0.393947 v 1.111494 l 5.979555,5.979555 c 0.576851,0.576851 1.51951,0.576851 2.096361,0 0.576852,-0.576851 0.576852,-1.51951 0,-2.096362 z m -8.4417247,0 c -3.5033154,0 -6.3312932,-2.827978 -6.3312932,-6.3312943 0,-3.5033154 2.8279778,-6.3312932 6.3312932,-6.3312932 3.5033157,0 6.3312937,2.8279778 6.3312937,6.3312932 0,3.5033163 -2.827978,6.3312943 -6.3312937,6.3312943 z"
     id="path2"
     style="stroke-width:1.40695" />
</svg>
