<?xml version="1.0" encoding="UTF-8" standalone="no"?>
<svg
   xmlns:dc="http://purl.org/dc/elements/1.1/"
   xmlns:cc="http://creativecommons.org/ns#"
   xmlns:rdf="http://www.w3.org/1999/02/22-rdf-syntax-ns#"
   xmlns:svg="http://www.w3.org/2000/svg"
   xmlns="http://www.w3.org/2000/svg"
   xmlns:sodipodi="http://sodipodi.sourceforge.net/DTD/sodipodi-0.dtd"
   xmlns:inkscape="http://www.inkscape.org/namespaces/inkscape"
   height="24"
   viewBox="0 0 24 24"
   width="24"
   version="1.1"
   id="svg4"
   sodipodi:docname="stop.svg"
   inkscape:version="1.0.2 (e86c870879, 2021-01-15)">
  <metadata
     id="metadata10">
    <rdf:RDF>
      <cc:Work
         rdf:about="">
        <dc:format>image/svg+xml</dc:format>
        <dc:type
           rdf:resource="http://purl.org/dc/dcmitype/StillImage" />
      </cc:Work>
    </rdf:RDF>
  </metadata>
  <defs
     id="defs8" />
  <sodipodi:namedview
     pagecolor="#ffffff"
     bordercolor="#666666"
     borderopacity="1"
     objecttolerance="10"
     gridtolerance="10"
     guidetolerance="10"
     inkscape:pageopacity="0"
     inkscape:pageshadow="2"
     inkscape:window-width="1904"
     inkscape:window-height="1000"
     id="namedview6"
     showgrid="false"
     inkscape:zoom="33.208333"
     inkscape:cx="12"
     inkscape:cy="12"
     inkscape:window-x="26"
     inkscape:window-y="23"
     inkscape:window-maximized="0"
     inkscape:current-layer="svg4"
     inkscape:document-rotation="0" />
  <path
     fill="context-fill"
     fill-opacity="context-fill-opacity"
     d="m 20.600683,3.4129692 c -0.532423,-0.5324232 -1.392491,-0.5324232 -1.924915,0 L 12,10.075085 5.3242319,3.3993173 c -0.5324232,-0.5324232 -1.3924915,-0.5324232 -1.9249147,0 -0.5324232,0.5324232 -0.5324232,1.3924915 0,1.9249147 L 10.075085,12 3.3993172,18.675768 c -0.5324232,0.532424 -0.5324232,1.392492 0,1.924915 0.5324232,0.532423 1.3924915,0.532423 1.9249147,0 L 12,13.924915 l 6.675768,6.675768 c 0.532424,0.532423 1.392492,0.532423 1.924915,0 0.532423,-0.532423 0.532423,-1.392491 0,-1.924915 L 13.924915,12 20.600683,5.324232 c 0.518771,-0.5187713 0.518771,-1.3924915 0,-1.9112628 z"
     id="path2"
     style="stroke-width:1.36519" />
</svg>
