<?xml version="1.0" encoding="UTF-8" standalone="no"?>
<svg
   xmlns:dc="http://purl.org/dc/elements/1.1/"
   xmlns:cc="http://creativecommons.org/ns#"
   xmlns:rdf="http://www.w3.org/1999/02/22-rdf-syntax-ns#"
   xmlns:svg="http://www.w3.org/2000/svg"
   xmlns="http://www.w3.org/2000/svg"
   xmlns:sodipodi="http://sodipodi.sourceforge.net/DTD/sodipodi-0.dtd"
   xmlns:inkscape="http://www.inkscape.org/namespaces/inkscape"
   height="24"
   viewBox="0 0 24 24"
   width="24"
   version="1.1"
   id="svg4"
   sodipodi:docname="sync.svg"
   inkscape:version="1.0.2 (e86c870879, 2021-01-15)">
  <metadata
     id="metadata10">
    <rdf:RDF>
      <cc:Work
         rdf:about="">
        <dc:format>image/svg+xml</dc:format>
        <dc:type
           rdf:resource="http://purl.org/dc/dcmitype/StillImage" />
      </cc:Work>
    </rdf:RDF>
  </metadata>
  <defs
     id="defs8" />
  <sodipodi:namedview
     pagecolor="#ffffff"
     bordercolor="#666666"
     borderopacity="1"
     objecttolerance="10"
     gridtolerance="10"
     guidetolerance="10"
     inkscape:pageopacity="0"
     inkscape:pageshadow="2"
     inkscape:window-width="979"
     inkscape:window-height="477"
     id="namedview6"
     showgrid="false"
     inkscape:zoom="33.208333"
     inkscape:cx="12"
     inkscape:cy="12"
     inkscape:window-x="26"
     inkscape:window-y="23"
     inkscape:window-maximized="0"
     inkscape:current-layer="svg4"
     inkscape:document-rotation="0" />
  <path
     fill="context-fill"
     fill-opacity="context-fill-opacity"
     d="m 12,21.328055 v 2.087152 c 0,0.524703 -0.629644,0.781225 -0.991106,0.408102 L 7.744075,20.57015 c -0.2332014,-0.233201 -0.2332014,-0.594663 0,-0.827865 l 3.253159,-3.253159 C 11.370356,16.127664 12,16.384186 12,16.908889 v 2.087152 c 3.859483,0 6.996041,-3.136559 6.996041,-6.996041 0,-0.921145 -0.174901,-1.81897 -0.513043,-2.6235154 -0.174901,-0.419763 -0.04664,-0.897825 0.268182,-1.212647 0.594663,-0.594664 1.597429,-0.384783 1.912251,0.396442 0.431423,1.061066 0.664624,2.2270734 0.664624,3.4397204 0,5.15375 -4.174304,9.328055 -9.328055,9.328055 z M 12,5.0039586 c -3.8594827,0 -6.9960412,3.136559 -6.9960412,6.9960414 0,0.921146 0.174901,1.818971 0.513043,2.623515 0.174901,0.419762 0.04664,0.897825 -0.2681816,1.212647 C 4.6541567,16.430826 3.6513908,16.220945 3.3365689,15.43972 2.9051464,14.378653 2.671945,13.212648 2.671945,12 2.671945,6.8462496 6.8462497,2.6719446 12,2.6719446 V 0.58479261 c 0,-0.524703 0.629644,-0.781225 0.991106,-0.408102 l 3.253159,3.25315899 c 0.233202,0.233201 0.233202,0.594663 0,0.827865 l -3.253159,3.253159 C 12.629644,7.8723356 12,7.6158146 12,7.0911106 Z"
     id="path2"
     style="stroke-width:1.16601" />
</svg>
