<?xml version="1.0" encoding="UTF-8" standalone="no"?>
<svg
   xmlns:dc="http://purl.org/dc/elements/1.1/"
   xmlns:cc="http://creativecommons.org/ns#"
   xmlns:rdf="http://www.w3.org/1999/02/22-rdf-syntax-ns#"
   xmlns:svg="http://www.w3.org/2000/svg"
   xmlns="http://www.w3.org/2000/svg"
   xmlns:sodipodi="http://sodipodi.sourceforge.net/DTD/sodipodi-0.dtd"
   xmlns:inkscape="http://www.inkscape.org/namespaces/inkscape"
   version="1.1"
   id="mdi-gift"
   width="24"
   height="24"
   viewBox="0 0 24 24"
   sodipodi:docname="whatsnew.svg"
   inkscape:version="1.0.2 (e86c870879, 2021-01-15)">
  <metadata
     id="metadata9">
    <rdf:RDF>
      <cc:Work
         rdf:about="">
        <dc:format>image/svg+xml</dc:format>
        <dc:type
           rdf:resource="http://purl.org/dc/dcmitype/StillImage" />
      </cc:Work>
    </rdf:RDF>
  </metadata>
  <defs
     id="defs7" />
  <sodipodi:namedview
     pagecolor="#ffffff"
     bordercolor="#666666"
     borderopacity="1"
     objecttolerance="10"
     gridtolerance="10"
     guidetolerance="10"
     inkscape:pageopacity="0"
     inkscape:pageshadow="2"
     inkscape:window-width="1904"
     inkscape:window-height="1000"
     id="namedview5"
     showgrid="false"
     inkscape:zoom="33.208333"
     inkscape:cx="12"
     inkscape:cy="12"
     inkscape:window-x="26"
     inkscape:window-y="23"
     inkscape:window-maximized="0"
     inkscape:current-layer="mdi-gift" />
  <path
     fill="context-fill"
     fill-opacity="context-fill-opacity"
     d="M 8.7927273,1.0527497 C 6.7309091,1.0418406 4.7236364,3.0272952 5.64,5.4927497 H 2.1818182 A 2.1818182,2.1818182 0 0 0 0,7.6745679 V 9.856386 a 1.0909091,1.0909091 0 0 0 1.0909091,1.090909 H 10.909091 V 7.6745679 h 2.181818 v 3.2727271 h 9.818182 A 1.0909091,1.0909091 0 0 0 24,9.856386 V 7.6745679 A 2.1818182,2.1818182 0 0 0 21.818182,5.4927497 H 18.36 C 19.636364,1.925477 14.836364,-0.59452298 12.621818,2.4818406 L 12,3.3109315 11.378182,2.4600225 C 10.690909,1.4891134 9.741818,1.0636588 8.7927273,1.0527497 m -0.065455,2.2581818 c 0.9709097,0 1.4618187,1.1781819 0.7745457,1.8654546 C 8.8145455,5.8636588 7.6363636,5.3727497 7.6363636,4.4018406 A 1.0909091,1.0909091 0 0 1 8.7272727,3.3109315 m 6.5454543,0 c 0.970909,0 1.461818,1.1781819 0.774546,1.8654546 C 15.36,5.8636588 14.181818,5.3727497 14.181818,4.4018406 A 1.0909091,1.0909091 0 0 1 15.272727,3.3109315 M 1.0909091,12.038204 v 8.727273 a 2.1818182,2.1818182 0 0 0 2.1818182,2.181818 H 20.727273 a 2.1818182,2.1818182 0 0 0 2.181818,-2.181818 v -8.727273 h -9.818182 v 8.727273 h -2.181818 v -8.727273 z"
     id="path2"
     style="stroke-width:1.09091" />
</svg>
