<?xml version="1.0" encoding="UTF-8" standalone="no"?>
<svg
   xmlns:dc="http://purl.org/dc/elements/1.1/"
   xmlns:cc="http://creativecommons.org/ns#"
   xmlns:rdf="http://www.w3.org/1999/02/22-rdf-syntax-ns#"
   xmlns:svg="http://www.w3.org/2000/svg"
   xmlns="http://www.w3.org/2000/svg"
   xmlns:sodipodi="http://sodipodi.sourceforge.net/DTD/sodipodi-0.dtd"
   xmlns:inkscape="http://www.inkscape.org/namespaces/inkscape"
   height="24px"
   viewBox="0 0 24 24"
   width="24px"
   fill="#000000"
   version="1.1"
   id="svg6"
   sodipodi:docname="keyboard_black_24dp.svg"
   inkscape:version="1.0.2 (e86c870879, 2021-01-15)">
  <metadata
     id="metadata12">
    <rdf:RDF>
      <cc:Work
         rdf:about="">
        <dc:format>image/svg+xml</dc:format>
        <dc:type
           rdf:resource="http://purl.org/dc/dcmitype/StillImage" />
      </cc:Work>
    </rdf:RDF>
  </metadata>
  <defs
     id="defs10" />
  <sodipodi:namedview
     pagecolor="#ffffff"
     bordercolor="#666666"
     borderopacity="1"
     objecttolerance="10"
     gridtolerance="10"
     guidetolerance="10"
     inkscape:pageopacity="0"
     inkscape:pageshadow="2"
     inkscape:window-width="1908"
     inkscape:window-height="1031"
     id="namedview8"
     showgrid="false"
     inkscape:zoom="42"
     inkscape:cx="5.5238095"
     inkscape:cy="12"
     inkscape:window-x="8"
     inkscape:window-y="1084"
     inkscape:window-maximized="0"
     inkscape:current-layer="svg6"
     inkscape:document-rotation="0" />
  <path
     id="path4"
     d="M 4 5 C 2.9 5 2.0097656 5.9 2.0097656 7 L 2 17 C 2 18.1 2.9 19 4 19 L 20 19 C 21.1 19 22 18.1 22 17 L 22 7 C 22 5.9 21.1 5 20 5 L 4 5 z M 4 7 L 20 7 L 20 17 L 4 17 L 4 7 z M 5 8 L 5 10 L 7 10 L 7 8 L 5 8 z M 8 8 L 8 10 L 10 10 L 10 8 L 8 8 z M 11 8 L 11 10 L 13 10 L 13 8 L 11 8 z M 14 8 L 14 10 L 16 10 L 16 8 L 14 8 z M 17 8 L 17 10 L 19 10 L 19 8 L 17 8 z M 5 11 L 5 13 L 7 13 L 7 11 L 5 11 z M 8 11 L 8 13 L 10 13 L 10 11 L 8 11 z M 11 11 L 11 13 L 13 13 L 13 11 L 11 11 z M 14 11 L 14 13 L 16 13 L 16 11 L 14 11 z M 17 11 L 17 13 L 19 13 L 19 11 L 17 11 z M 9 14 C 8.45 14 8 14.45 8 15 C 8 15.55 8.45 16 9 16 L 15 16 C 15.55 16 16 15.55 16 15 C 16 14.45 15.55 14 15 14 L 9 14 z " />
</svg>
