<?xml version="1.0" encoding="UTF-8" standalone="no"?>
<svg
   height="24px"
   viewBox="0 0 24 24"
   width="24px"
   fill="#000000"
   version="1.1"
   id="svg6"
   sodipodi:docname="send_black_24dp(1).svg"
   inkscape:version="1.1 (c68e22c387, 2021-05-23)"
   xmlns:inkscape="http://www.inkscape.org/namespaces/inkscape"
   xmlns:sodipodi="http://sodipodi.sourceforge.net/DTD/sodipodi-0.dtd"
   xmlns="http://www.w3.org/2000/svg"
   xmlns:svg="http://www.w3.org/2000/svg">
  <defs
     id="defs10" />
  <sodipodi:namedview
     id="namedview8"
     pagecolor="#ffffff"
     bordercolor="#666666"
     borderopacity="1.0"
     inkscape:pageshadow="2"
     inkscape:pageopacity="0.0"
     inkscape:pagecheckerboard="0"
     showgrid="false"
     inkscape:zoom="26.439138"
     inkscape:cx="15.03453"
     inkscape:cy="13.616178"
     inkscape:window-width="1904"
     inkscape:window-height="1000"
     inkscape:window-x="26"
     inkscape:window-y="23"
     inkscape:window-maximized="0"
     inkscape:current-layer="svg6" />
  <path
     id="path4"
     d="M 3.0273438 3.515625 C 2.4926172 3.5016602 2.0097656 3.9328906 2.0097656 4.5097656 L 2.0039062 7.4199219 L 2.0019531 9.1308594 C 2.007834 9.6257085 2.3731568 10.049857 2.8691406 10.109375 L 17 12 L 2.8339844 13.888672 C 2.3564956 13.973247 2.0076892 14.386475 2.0019531 14.869141 L 2.0039062 16.580078 L 2.0097656 19.490234 C 2.0097656 20.200234 2.7403906 20.690391 3.4003906 20.400391 L 20.849609 12.919922 C 21.659609 12.569922 21.659609 11.430078 20.849609 11.080078 L 3.4003906 3.5996094 C 3.2766406 3.5452344 3.1507422 3.5188477 3.0273438 3.515625 z M 4.0097656 6.0292969 L 11.519531 9.25 L 4 8.25 L 4.0097656 6.0292969 z M 11.509766 14.75 L 4 17.970703 L 4 15.75 L 11.509766 14.75 z " />
</svg>
