<?xml version="1.0" encoding="UTF-8" standalone="no"?>
<svg
   version="1.1"
   id="mdi-dock-window"
   width="24"
   height="24"
   viewBox="0 0 24 24"
   sodipodi:docname="windows (1).svg"
   inkscape:version="1.1 (c68e22c387, 2021-05-23)"
   xmlns:inkscape="http://www.inkscape.org/namespaces/inkscape"
   xmlns:sodipodi="http://sodipodi.sourceforge.net/DTD/sodipodi-0.dtd"
   xmlns="http://www.w3.org/2000/svg"
   xmlns:svg="http://www.w3.org/2000/svg">
  <defs
     id="defs7" />
  <sodipodi:namedview
     id="namedview5"
     pagecolor="#ffffff"
     bordercolor="#666666"
     borderopacity="1.0"
     inkscape:pageshadow="2"
     inkscape:pageopacity="0.0"
     inkscape:pagecheckerboard="0"
     showgrid="false"
     inkscape:zoom="30.458333"
     inkscape:cx="12.016416"
     inkscape:cy="12.016416"
     inkscape:window-width="1904"
     inkscape:window-height="1008"
     inkscape:window-x="45"
     inkscape:window-y="29"
     inkscape:window-maximized="0"
     inkscape:current-layer="mdi-dock-window" />
  <path
     d="m 2,9 v 9 c 0,1.1 0.9,2 2,2 h 11 c 0.55,0 1,-0.45 1,-1 0,-0.55 -0.45,-1 -1,-1 H 5 C 4.45,18 4,17.55 4,17 V 9 C 4,8.45 3.55,8 3,8 2.45,8 2,8.45 2,9 Z M 6,6 v 8 c 0,1.1 0.9,2 2,2 h 12 c 1.1,0 2,-0.9 2,-2 V 6 C 22,4.9 21.1,4 20,4 H 8 C 6.9,4 6,4.9 6,6 Z m 14,1 v 6 c 0,0.55 -0.45,1 -1,1 H 9 C 8.45,14 8,13.55 8,13 V 7 C 8,6.45 8.45,6 9,6 h 10 c 0.55,0 1,0.45 1,1 z"
     id="path2-3"
     sodipodi:nodetypes="sssssssssssssssssssssssssssss" />
</svg>
