<?xml version="1.0" encoding="UTF-8" standalone="no"?>
<svg
   xmlns:dc="http://purl.org/dc/elements/1.1/"
   xmlns:cc="http://creativecommons.org/ns#"
   xmlns:rdf="http://www.w3.org/1999/02/22-rdf-syntax-ns#"
   xmlns:svg="http://www.w3.org/2000/svg"
   xmlns="http://www.w3.org/2000/svg"
   xmlns:sodipodi="http://sodipodi.sourceforge.net/DTD/sodipodi-0.dtd"
   xmlns:inkscape="http://www.inkscape.org/namespaces/inkscape"
   enable-background="new 0 0 24 24"
   height="24"
   viewBox="0 0 24 24"
   width="24"
   version="1.1"
   id="svg8"
   sodipodi:docname="network-receive-symbolic.svg"
   inkscape:version="1.0.1 (3bc2e813f5, 2020-09-07)">
  <metadata
     id="metadata14">
    <rdf:RDF>
      <cc:Work
         rdf:about="">
        <dc:format>image/svg+xml</dc:format>
        <dc:type
           rdf:resource="http://purl.org/dc/dcmitype/StillImage" />
      </cc:Work>
    </rdf:RDF>
  </metadata>
  <defs
     id="defs12" />
  <sodipodi:namedview
     pagecolor="#ffffff"
     bordercolor="#666666"
     borderopacity="1"
     objecttolerance="10"
     gridtolerance="10"
     guidetolerance="10"
     inkscape:pageopacity="0"
     inkscape:pageshadow="2"
     inkscape:window-width="948"
     inkscape:window-height="482"
     id="namedview10"
     showgrid="false"
     inkscape:zoom="13.02255"
     inkscape:cx="9.529437"
     inkscape:cy="11.26743"
     inkscape:window-x="56"
     inkscape:window-y="50"
     inkscape:window-maximized="0"
     inkscape:current-layer="svg8"
     inkscape:document-rotation="0" />
  <path fill="#909090"
     d="M 7,18.789999 C 7,19.239999 6.46,19.46 6.15,19.14 L 3.36,16.35 c -0.2,-0.200001 -0.2,-0.51 0,-0.71 L 6.15,12.85 C 6.46,12.54 7,12.76 7,13.21 V 15 h 11 v 2 H 7 Z M 18,17 c 0.55,0 1,-0.450001 1,-1 0,-0.550001 -0.45,-1 -1,-1 z M 17,7 h -3 c -0.55,0 -1,0.45 -1,1 v 0 c 0,0.55 0.45,1 1,1 h 3 v 1.79 c 0,0.45 0.54,0.67 0.85,0.35 l 2.79,-2.79 c 0.2,-0.2 0.2,-0.51 0,-0.71 L 17.85,4.8500003 c -0.31,-0.31 -0.85,-0.09 -0.85,0.36 z M 10,7 C 9.45,7 9,7.45 9,8 9,8.55 9.45,9 10,9 10.55,9 11,8.55 11,8 11,7.45 10.55,7 10,7 Z M 6,7 C 5.45,7 5,7.45 5,8 5,8.55 5.45,9 6,9 6.55,9 7,8.55 7,8 7,7.45 6.55,7 6,7 Z"
     id="path4-3"
     sodipodi:nodetypes="scssssccccscscccsssscscsssscssssssssss" />
</svg>
