<?xml version="1.0" encoding="UTF-8" standalone="no"?>
<svg
   xmlns:dc="http://purl.org/dc/elements/1.1/"
   xmlns:cc="http://creativecommons.org/ns#"
   xmlns:rdf="http://www.w3.org/1999/02/22-rdf-syntax-ns#"
   xmlns:svg="http://www.w3.org/2000/svg"
   xmlns="http://www.w3.org/2000/svg"
   xmlns:sodipodi="http://sodipodi.sourceforge.net/DTD/sodipodi-0.dtd"
   xmlns:inkscape="http://www.inkscape.org/namespaces/inkscape"
   height="24"
   viewBox="0 0 24 24"
   width="24"
   version="1.1"
   id="svg4"
   sodipodi:docname="align-vertical-bottom-to-anchor 2.svg"
   inkscape:version="1.0.2 (e86c870879, 2021-01-15)">
  <metadata
     id="metadata10">
    <rdf:RDF>
      <cc:Work
         rdf:about="">
        <dc:format>image/svg+xml</dc:format>
        <dc:type
           rdf:resource="http://purl.org/dc/dcmitype/StillImage" />
        <dc:title></dc:title>
      </cc:Work>
    </rdf:RDF>
  </metadata>
  <defs
     id="defs8" />
  <sodipodi:namedview
     pagecolor="#ffffff"
     bordercolor="#666666"
     borderopacity="1"
     objecttolerance="10"
     gridtolerance="10"
     guidetolerance="10"
     inkscape:pageopacity="0"
     inkscape:pageshadow="2"
     inkscape:window-width="979"
     inkscape:window-height="480"
     id="namedview6"
     showgrid="false"
     inkscape:zoom="5.5777287"
     inkscape:cx="7.0975641"
     inkscape:cy="11.527891"
     inkscape:window-x="26"
     inkscape:window-y="23"
     inkscape:window-maximized="0"
     inkscape:current-layer="svg4" />
  <path fill="#ffffff"
     d="M 13,9.21 V 11 H 4 c -0.55,0 -1,0.45 -1,1 0,0.55 0.45,1 1,1 h 9 v 1.79 c 0,0.45 0.54,0.67 0.85,0.35 l 2.79,-2.79 c 0.2,-0.2 0.2,-0.51 0,-0.71 L 13.85,8.85 C 13.54,8.54 13,8.76 13,9.21 Z M 20,20 c 0.55,0 1,-0.45 1,-1 V 5 C 21,4.45 20.55,4 20,4 19.45,4 19,4.45 19,5 v 14 c 0,0.55 0.45,1 1,1 z"
     id="path2" />
</svg>
