<?xml version="1.0" encoding="UTF-8" standalone="no"?>
<svg
   height="24"
   viewBox="0 0 24 24"
   width="24"
   version="1.1"
   id="svg4"
   sodipodi:docname="software-update-urgent.svg"
   inkscape:version="1.1 (c68e22c387, 2021-05-23)"
   xmlns:inkscape="http://www.inkscape.org/namespaces/inkscape"
   xmlns:sodipodi="http://sodipodi.sourceforge.net/DTD/sodipodi-0.dtd"
   xmlns="http://www.w3.org/2000/svg"
   xmlns:svg="http://www.w3.org/2000/svg">
  <defs
     id="defs8" />
  <sodipodi:namedview
     id="namedview6"
     pagecolor="#ffffff"
     bordercolor="#666666"
     borderopacity="1.0"
     inkscape:pageshadow="2"
     inkscape:pageopacity="0.0"
     inkscape:pagecheckerboard="0"
     showgrid="false"
     inkscape:zoom="37.458333"
     inkscape:cx="12"
     inkscape:cy="12"
     inkscape:window-width="3824"
     inkscape:window-height="2107"
     inkscape:window-x="8"
     inkscape:window-y="8"
     inkscape:window-maximized="0"
     inkscape:current-layer="svg4" />
  <path fill="#ffffff"
     id="path2"
     d="M 11.990234 2 C 6.4702344 2 2 6.48 2 12 C 2 17.52 6.4702344 22 11.990234 22 C 17.520234 22 22 17.52 22 12 C 22 6.48 17.520234 2 11.990234 2 z M 12 4 C 16.42 4 20 7.58 20 12 C 20 16.42 16.42 20 12 20 C 7.58 20 4 16.42 4 12 C 4 7.58 7.58 4 12 4 z M 12 7 C 11.45 7 11 7.45 11 8 L 11 12 C 11 12.55 11.45 13 12 13 C 12.55 13 13 12.55 13 12 L 13 8 C 13 7.45 12.55 7 12 7 z M 12 15 A 1 1 0 0 0 11 16 A 1 1 0 0 0 12 17 A 1 1 0 0 0 13 16 A 1 1 0 0 0 12 15 z " />
</svg>
