<?xml version="1.0" encoding="UTF-8" standalone="no"?>
<svg
   xmlns:dc="http://purl.org/dc/elements/1.1/"
   xmlns:cc="http://creativecommons.org/ns#"
   xmlns:rdf="http://www.w3.org/1999/02/22-rdf-syntax-ns#"
   xmlns:svg="http://www.w3.org/2000/svg"
   xmlns="http://www.w3.org/2000/svg"
   xmlns:sodipodi="http://sodipodi.sourceforge.net/DTD/sodipodi-0.dtd"
   xmlns:inkscape="http://www.inkscape.org/namespaces/inkscape"
   height="24"
   viewBox="0 0 24 24"
   width="24"
   version="1.1"
   id="svg4"
   sodipodi:docname="system-settings-lineart (copy).svg"
   inkscape:version="1.0.2 (e86c870879, 2021-01-15)">
  <metadata
     id="metadata10">
    <rdf:RDF>
      <cc:Work
         rdf:about="">
        <dc:format>image/svg+xml</dc:format>
        <dc:type
           rdf:resource="http://purl.org/dc/dcmitype/StillImage" />
      </cc:Work>
    </rdf:RDF>
  </metadata>
  <defs
     id="defs8" />
  <sodipodi:namedview
     pagecolor="#ffffff"
     bordercolor="#666666"
     borderopacity="1"
     objecttolerance="10"
     gridtolerance="10"
     guidetolerance="10"
     inkscape:pageopacity="0"
     inkscape:pageshadow="2"
     inkscape:window-width="3824"
     inkscape:window-height="2107"
     id="namedview6"
     showgrid="false"
     inkscape:zoom="42"
     inkscape:cx="12"
     inkscape:cy="12"
     inkscape:window-x="8"
     inkscape:window-y="33"
     inkscape:window-maximized="0"
     inkscape:current-layer="svg4" />
  <path fill="#ffffff"
     id="path2-3"
     d="M 5 3 C 3.895431 3 3 3.895431 3 5 L 3 19 C 3 20.104569 3.895431 21 5 21 L 19 21 C 20.1 21 21 20.11 21 19 L 21 5 C 21 3.895431 20.104569 3 19 3 L 5 3 z M 6 5 L 13 5 L 13 7 L 6 7 C 5.45 7 5 6.55 5 6 C 5 5.45 5.45 5 6 5 z M 15 5 L 17 5 L 18 5 C 18.55 5 19 5.45 19 6 C 19 6.55 18.55 7 18 7 L 17 7 L 17 8 C 17 8.55 16.55 9 16 9 C 15.45 9 15 8.55 15 8 L 15 5 z M 8 9 C 8.55 9 9 9.45 9 10 L 9 14 C 9 14.55 8.55 15 8 15 C 7.45 15 7 14.55 7 14 L 7 13 L 6 13 C 5.45 13 5 12.55 5 12 C 5 11.45 5.45 11 6 11 L 7 11 L 7 10 C 7 9.45 7.45 9 8 9 z M 11 11 L 18 11 C 18.55 11 19 11.45 19 12 C 19 12.55 18.55 13 18 13 L 11 13 L 11 11 z M 12 15 C 12.55 15 13 15.45 13 16 L 13 17 L 18 17 C 18.55 17 19 17.45 19 18 C 19 18.55 18.55 19 18 19 L 13 19 L 11 19 L 11 16 C 11 15.45 11.45 15 12 15 z M 6 17 L 9 17 L 9 19 L 6 19 C 5.45 19 5 18.55 5 18 C 5 17.45 5.45 17 6 17 z " />
</svg>
