<?xml version="1.0" encoding="UTF-8" standalone="no"?>
<svg
   version="1.1"
   id="mdi-lock"
   width="24"
   height="24"
   viewBox="0 0 24 24"
   sodipodi:docname="emblem-readonly.svg"
   inkscape:version="1.1 (c68e22c387, 2021-05-23)"
   xmlns:inkscape="http://www.inkscape.org/namespaces/inkscape"
   xmlns:sodipodi="http://sodipodi.sourceforge.net/DTD/sodipodi-0.dtd"
   xmlns="http://www.w3.org/2000/svg"
   xmlns:svg="http://www.w3.org/2000/svg"
   xmlns:rdf="http://www.w3.org/1999/02/22-rdf-syntax-ns#"
   xmlns:cc="http://creativecommons.org/ns#"
   xmlns:dc="http://purl.org/dc/elements/1.1/">
  <metadata
     id="metadata9">
    <rdf:RDF>
      <cc:Work
         rdf:about="">
        <dc:format>image/svg+xml</dc:format>
        <dc:type
           rdf:resource="http://purl.org/dc/dcmitype/StillImage" />
      </cc:Work>
    </rdf:RDF>
  </metadata>
  <defs
     id="defs7" />
  <sodipodi:namedview
     pagecolor="#ffffff"
     bordercolor="#666666"
     borderopacity="1"
     objecttolerance="10"
     gridtolerance="10"
     guidetolerance="10"
     inkscape:pageopacity="0"
     inkscape:pageshadow="2"
     inkscape:window-width="1920"
     inkscape:window-height="1080"
     id="namedview5"
     showgrid="false"
     inkscape:zoom="39.833333"
     inkscape:cx="10.066946"
     inkscape:cy="12"
     inkscape:window-x="0"
     inkscape:window-y="0"
     inkscape:window-maximized="0"
     inkscape:current-layer="mdi-lock"
     inkscape:document-rotation="0"
     inkscape:pagecheckerboard="0" />
  <path fill="#ffffff"
     id="path2-3"
     style="fill:#ffffff;fill-opacity:1"
     d="M 12 2 C 6.48 2 2 6.48 2 12 C 2 17.52 6.48 22 12 22 C 17.52 22 22 17.52 22 12 C 22 6.48 17.52 2 12 2 z M 12 5.3027344 A 2.9053462 2.9053462 0 0 1 14.90625 8.2089844 L 14.90625 9.3710938 L 15.486328 9.3710938 A 1.1621385 1.1621385 0 0 1 16.648438 10.533203 L 16.648438 16.34375 A 1.1621385 1.1621385 0 0 1 15.486328 17.505859 L 8.5136719 17.505859 A 1.1621385 1.1621385 0 0 1 7.3515625 16.34375 L 7.3515625 10.533203 C 7.3515625 9.8882165 7.8744957 9.3710938 8.5136719 9.3710938 L 9.09375 9.3710938 L 9.09375 8.2089844 A 2.9053462 2.9053462 0 0 1 12 5.3027344 z M 12 6.4648438 A 1.7432077 1.7432077 0 0 0 10.255859 8.2089844 L 10.255859 9.3710938 L 13.744141 9.3710938 L 13.744141 8.2089844 A 1.7432077 1.7432077 0 0 0 12 6.4648438 z M 12 12.275391 A 1.1621385 1.1621385 0 0 0 10.837891 13.4375 A 1.1621385 1.1621385 0 0 0 12 14.599609 A 1.1621385 1.1621385 0 0 0 13.162109 13.4375 C 13.162109 12.792512 12.639176 12.275391 12 12.275391 z " />
</svg>
