<?xml version="1.0" encoding="UTF-8" standalone="no"?>
<svg
   enable-background="new 0 0 24 24"
   height="24px"
   viewBox="0 0 24 24"
   width="24px"
   
   version="1.1"
   id="svg6"
   sodipodi:docname="emblem-dropbox-syncing.svg"
   inkscape:version="1.1 (c68e22c387, 2021-05-23)"
   xmlns:inkscape="http://www.inkscape.org/namespaces/inkscape"
   xmlns:sodipodi="http://sodipodi.sourceforge.net/DTD/sodipodi-0.dtd"
   xmlns="http://www.w3.org/2000/svg"
   xmlns:svg="http://www.w3.org/2000/svg">
  <defs
     id="defs10" />
  <sodipodi:namedview
     id="namedview8"
     pagecolor="#ffffff"
     bordercolor="#666666"
     borderopacity="1.0"
     inkscape:pageshadow="2"
     inkscape:pageopacity="0.0"
     inkscape:pagecheckerboard="0"
     showgrid="false"
     inkscape:zoom="37.458333"
     inkscape:cx="4.6451613"
     inkscape:cy="11.986652"
     inkscape:window-width="1920"
     inkscape:window-height="1080"
     inkscape:window-x="0"
     inkscape:window-y="0"
     inkscape:window-maximized="0"
     inkscape:current-layer="svg6" />
  <path fill="#ffffff"
     d="M 12,2 C 17.52,2 22,6.48 22,12 22,17.52 17.52,22 12,22 6.48,22 2,17.52 2,12 2,6.48 6.48,2 12,2 Z m -0.91,16.15 c 0.31,0.31 0.85,0.09 0.85,-0.35 V 17 c 0.02,0 0.04,0 0.06,0 1.28,0 2.56,-0.49 3.54,-1.46 1.43,-1.43 1.81,-3.52 1.14,-5.3 C 16.49,9.73 15.82,9.6 15.44,9.99 v 0 c -0.22,0.22 -0.27,0.54 -0.17,0.82 0.46,1.24 0.2,2.68 -0.8,3.68 -0.7,0.7 -1.62,1.03 -2.54,1.01 v -0.94 c 0,-0.45 -0.54,-0.67 -0.85,-0.35 l -1.62,1.62 c -0.2,0.2 -0.2,0.51 0,0.71 z M 8.56,14.02 v 0 C 8.78,13.8 8.83,13.48 8.73,13.2 8.27,11.96 8.53,10.52 9.53,9.52 c 0.7,-0.7 1.62,-1.04 2.53,-1.02 0,0 0,0 0,0 v 0.94 c 0,0.45 0.54,0.67 0.85,0.35 l 1.63,-1.61 c 0.2,-0.2 0.2,-0.51 0,-0.71 L 12.92,5.85 C 12.61,5.54 12.07,5.76 12.07,6.2 v 0.81 c -1.3,-0.02 -2.61,0.45 -3.6,1.45 -1.43,1.43 -1.81,3.52 -1.14,5.3 0.19,0.52 0.85,0.65 1.23,0.26 z"
     id="path4"
     style="fill:#ffffff;fill-opacity:1" />
</svg>
