<?xml version="1.0" encoding="UTF-8" standalone="no"?>
<svg
   version="1.1"
   id="mdi-share-circle"
   width="24"
   height="24"
   viewBox="0 0 24 24"
   sodipodi:docname="emblem-shared.svg"
   inkscape:version="1.1 (c68e22c387, 2021-05-23)"
   xmlns:inkscape="http://www.inkscape.org/namespaces/inkscape"
   xmlns:sodipodi="http://sodipodi.sourceforge.net/DTD/sodipodi-0.dtd"
   xmlns="http://www.w3.org/2000/svg"
   xmlns:svg="http://www.w3.org/2000/svg"
   xmlns:rdf="http://www.w3.org/1999/02/22-rdf-syntax-ns#"
   xmlns:cc="http://creativecommons.org/ns#"
   xmlns:dc="http://purl.org/dc/elements/1.1/">
  <path fill="#ffffff"
     id="path2"
     style="fill:#ffffff;fill-opacity:1"
     d="M 12 2 C 6.5 2 2 6.5 2 12 C 2 17.5 6.5 22 12 22 C 17.5 22 22 17.5 22 12 C 22 6.5 17.5 2 12 2 z M 14.853516 7 C 15.028647 7.0040229 15.204785 7.0719721 15.349609 7.2167969 L 18.726562 10.591797 C 19.013454 10.878688 19.013453 11.343968 18.726562 11.630859 L 15.349609 15.005859 C 14.886171 15.469298 14.091797 15.146888 14.091797 14.492188 L 14.091797 13.248047 C 10.413709 13.248047 7.8390449 14.425337 6 17 C 6.735618 13.32191 8.9424719 9.6438212 14.091797 8.9082031 L 14.091797 7.7382812 C 14.091797 7.288175 14.468227 6.9911496 14.853516 7 z " />
  <metadata
     id="metadata9">
    <rdf:RDF>
      <cc:Work
         rdf:about="">
        <dc:format>image/svg+xml</dc:format>
        <dc:type
           rdf:resource="http://purl.org/dc/dcmitype/StillImage" />
      </cc:Work>
    </rdf:RDF>
  </metadata>
  <defs
     id="defs7" />
  <sodipodi:namedview
     pagecolor="#ffffff"
     bordercolor="#666666"
     borderopacity="1"
     objecttolerance="10"
     gridtolerance="10"
     guidetolerance="10"
     inkscape:pageopacity="0"
     inkscape:pageshadow="2"
     inkscape:window-width="1920"
     inkscape:window-height="1080"
     id="namedview5"
     showgrid="false"
     inkscape:zoom="39.833333"
     inkscape:cx="9.3640168"
     inkscape:cy="12"
     inkscape:window-x="0"
     inkscape:window-y="0"
     inkscape:window-maximized="0"
     inkscape:current-layer="mdi-share-circle"
     inkscape:document-rotation="0"
     inkscape:pagecheckerboard="0" />
</svg>
