<?xml version="1.0" encoding="UTF-8" standalone="no"?>
<svg
   version="1.1"
   id="mdi-comment-processing"
   width="24"
   height="24"
   viewBox="0 0 24 24"
   sodipodi:docname="annotation-comment.svg"
   inkscape:version="1.1 (c68e22c387, 2021-05-23)"
   xmlns:inkscape="http://www.inkscape.org/namespaces/inkscape"
   xmlns:sodipodi="http://sodipodi.sourceforge.net/DTD/sodipodi-0.dtd"
   xmlns="http://www.w3.org/2000/svg"
   xmlns:svg="http://www.w3.org/2000/svg">
  <defs
     id="defs7" />
  <sodipodi:namedview
     id="namedview5"
     pagecolor="#ffffff"
     bordercolor="#666666"
     borderopacity="1.0"
     inkscape:pageshadow="2"
     inkscape:pageopacity="0.0"
     inkscape:pagecheckerboard="0"
     showgrid="false"
     inkscape:zoom="33.541667"
     inkscape:cx="12"
     inkscape:cy="12.014907"
     inkscape:window-width="1920"
     inkscape:window-height="1016"
     inkscape:window-x="0"
     inkscape:window-y="0"
     inkscape:window-maximized="1"
     inkscape:current-layer="mdi-comment-processing" />
  <path fill="#ffffff"
     id="path2"
     d="M 4 2 C 2.9 2 2 2.89 2 4 L 2 16 C 2 17.104569 2.8954305 18 4 18 L 8 18 L 8 21 C 8 21.552285 8.4477153 22 9 22 L 9.5 22 C 9.75 22 9.9992184 21.900939 10.199219 21.710938 L 13.900391 18 L 20 18 C 21.104569 18 22 17.104569 22 16 L 22 4 C 22 2.8954305 21.104569 2 20 2 L 4 2 z M 8 9 C 8.5522847 9 9 9.4477153 9 10 C 9 10.552285 8.5522847 11 8 11 C 7.4477153 11 7 10.552285 7 10 C 7 9.4477153 7.4477153 9 8 9 z M 12 9 C 12.552285 9 13 9.4477153 13 10 C 13 10.552285 12.552285 11 12 11 C 11.447715 11 11 10.552285 11 10 C 11 9.4477153 11.447715 9 12 9 z M 16 9 A 1 1 0 0 1 17 10 A 1 1 0 0 1 16 11 A 1 1 0 0 1 15 10 A 1 1 0 0 1 16 9 z " />
</svg>
