<?xml version="1.0" encoding="UTF-8" standalone="no"?>
<svg
   xmlns:dc="http://purl.org/dc/elements/1.1/"
   xmlns:cc="http://creativecommons.org/ns#"
   xmlns:rdf="http://www.w3.org/1999/02/22-rdf-syntax-ns#"
   xmlns:svg="http://www.w3.org/2000/svg"
   xmlns="http://www.w3.org/2000/svg"
   xmlns:sodipodi="http://sodipodi.sourceforge.net/DTD/sodipodi-0.dtd"
   xmlns:inkscape="http://www.inkscape.org/namespaces/inkscape"
   height="24"
   viewBox="0 0 24 24"
   width="24"
   version="1.1"
   id="svg4"
   sodipodi:docname="display-brightness-off (copy).svg"
   inkscape:version="1.0.2 (e86c870879, 2021-01-15)">
  <metadata
     id="metadata10">
    <rdf:RDF>
      <cc:Work
         rdf:about="">
        <dc:format>image/svg+xml</dc:format>
        <dc:type
           rdf:resource="http://purl.org/dc/dcmitype/StillImage" />
      </cc:Work>
    </rdf:RDF>
  </metadata>
  <defs
     id="defs8" />
  <sodipodi:namedview
     pagecolor="#ffffff"
     bordercolor="#666666"
     borderopacity="1"
     objecttolerance="10"
     gridtolerance="10"
     guidetolerance="10"
     inkscape:pageopacity="0"
     inkscape:pageshadow="2"
     inkscape:window-width="1908"
     inkscape:window-height="1031"
     id="namedview6"
     showgrid="false"
     inkscape:zoom="14.849242"
     inkscape:cx="20.013117"
     inkscape:cy="14.382026"
     inkscape:window-x="1924"
     inkscape:window-y="1084"
     inkscape:window-maximized="0"
     inkscape:current-layer="svg4" />
  <path fill="#ffffff"
     id="path2"
     d="M 12.005859 1.1074219 C 11.750859 1.1074219 11.495781 1.2053906 11.300781 1.4003906 L 8.6894531 4 L 5 4 C 4.45 4 4 4.45 4 5 L 4 8.6894531 L 1.4003906 11.289062 C 1.0103906 11.679063 1.0103906 12.309219 1.4003906 12.699219 L 4 15.300781 L 4 19 C 4 19.55 4.45 20 5 20 L 8.6894531 20 L 11.289062 22.599609 C 11.679063 22.989609 12.309219 22.989609 12.699219 22.599609 L 15.300781 20 L 19 20 C 19.55 20 20 19.55 20 19 L 20 15.310547 L 22.599609 12.710938 C 22.989609 12.320937 22.989609 11.690781 22.599609 11.300781 L 20 8.6894531 L 20 5 C 20 4.45 19.55 4 19 4 L 15.310547 4 L 12.710938 1.4003906 C 12.515937 1.2053906 12.260859 1.1074219 12.005859 1.1074219 z M 12 6 C 15.31 6 18 8.69 18 12 C 18 15.31 15.31 18 12 18 L 12 6 z " />
</svg>
