<?xml version="1.0" encoding="UTF-8" standalone="no"?>
<svg
   xmlns:dc="http://purl.org/dc/elements/1.1/"
   xmlns:cc="http://creativecommons.org/ns#"
   xmlns:rdf="http://www.w3.org/1999/02/22-rdf-syntax-ns#"
   xmlns:svg="http://www.w3.org/2000/svg"
   xmlns="http://www.w3.org/2000/svg"
   xmlns:sodipodi="http://sodipodi.sourceforge.net/DTD/sodipodi-0.dtd"
   xmlns:inkscape="http://www.inkscape.org/namespaces/inkscape"
   version="1.1"
   id="mdi-application-export"
   width="24"
   height="24"
   viewBox="0 0 24 24"
   sodipodi:docname="document-export-ocal.svg"
   inkscape:version="1.0.2 (e86c870879, 2021-01-15)">
  <metadata
     id="metadata9">
    <rdf:RDF>
      <cc:Work
         rdf:about="">
        <dc:format>image/svg+xml</dc:format>
        <dc:type
           rdf:resource="http://purl.org/dc/dcmitype/StillImage" />
      </cc:Work>
    </rdf:RDF>
  </metadata>
  <defs
     id="defs7" />
  <sodipodi:namedview
     pagecolor="#ffffff"
     bordercolor="#666666"
     borderopacity="1"
     objecttolerance="10"
     gridtolerance="10"
     guidetolerance="10"
     inkscape:pageopacity="0"
     inkscape:pageshadow="2"
     inkscape:window-width="1908"
     inkscape:window-height="2080"
     id="namedview5"
     showgrid="false"
     inkscape:zoom="38.361486"
     inkscape:cx="12.456418"
     inkscape:cy="15.048146"
     inkscape:window-x="5764"
     inkscape:window-y="35"
     inkscape:window-maximized="0"
     inkscape:current-layer="mdi-application-export"
     inkscape:document-rotation="0" />
  <path fill="#ffffff"
     id="path2"
     d="M 5 3 C 3.8954305 3 3 3.8954305 3 5 L 3 6 L 3 19 C 3 19.1375 3.0142578 19.272461 3.0410156 19.402344 C 3.1737856 20.052985 3.6221238 20.588484 4.2226562 20.841797 C 4.3414034 20.891886 4.4663705 20.932479 4.5957031 20.958984 C 4.7261594 20.98599 4.8618476 21 5 21 L 19 21 C 20.1 21 21 20.1 21 19 L 21 18.765625 C 21 18.215625 20.55 17.765625 20 17.765625 C 19.45 17.765625 19 18.215625 19 18.765625 L 19 19 L 18 19 L 6 19 L 5 19 L 5 7 L 19 7 L 19 7.1503906 C 19 7.7003906 19.45 8.1503906 20 8.1503906 C 20.55 8.1503906 21 7.7003906 21 7.1503906 L 21 7.0429688 L 21 6 L 21 5 C 21 3.9 20.11 3 19 3 L 5 3 z M 16.585938 8.4082031 C 16.330938 8.4082031 16.075859 8.5042187 15.880859 8.6992188 C 15.490859 9.0892188 15.490859 9.719375 15.880859 10.109375 L 17.759766 12 L 9.0898438 12 C 8.5398437 12 8.0898438 12.45 8.0898438 13 C 8.0898438 13.55 8.5398437 14 9.0898438 14 L 17.759766 14 L 15.880859 15.880859 C 15.490859 16.270859 15.500859 16.909062 15.880859 17.289062 C 16.091114 17.499318 16.369978 17.586761 16.644531 17.570312 C 16.919698 17.587328 17.199412 17.499807 17.410156 17.289062 L 21 13.699219 C 21.39 13.309219 21.39 12.679062 21 12.289062 L 17.410156 8.6992188 C 17.199412 8.4884741 16.919698 8.402906 16.644531 8.4199219 C 16.624611 8.4187285 16.605886 8.4082031 16.585938 8.4082031 z " />
</svg>
