<?xml version="1.0" encoding="UTF-8" standalone="no"?>
<svg
   xmlns:dc="http://purl.org/dc/elements/1.1/"
   xmlns:cc="http://creativecommons.org/ns#"
   xmlns:rdf="http://www.w3.org/1999/02/22-rdf-syntax-ns#"
   xmlns:svg="http://www.w3.org/2000/svg"
   xmlns="http://www.w3.org/2000/svg"
   xmlns:sodipodi="http://sodipodi.sourceforge.net/DTD/sodipodi-0.dtd"
   xmlns:inkscape="http://www.inkscape.org/namespaces/inkscape"
   version="1.1"
   id="mdi-alpha-r-circle"
   width="24"
   height="24"
   viewBox="0 0 24 24"
   sodipodi:docname="alpha-r-circle.svg"
   inkscape:version="1.0.2 (e86c870879, 2021-01-15)">
  <metadata
     id="metadata9">
    <rdf:RDF>
      <cc:Work
         rdf:about="">
        <dc:format>image/svg+xml</dc:format>
        <dc:type
           rdf:resource="http://purl.org/dc/dcmitype/StillImage" />
      </cc:Work>
    </rdf:RDF>
  </metadata>
  <defs
     id="defs7" />
  <sodipodi:namedview
     pagecolor="#ffffff"
     bordercolor="#666666"
     borderopacity="1"
     objecttolerance="10"
     gridtolerance="10"
     guidetolerance="10"
     inkscape:pageopacity="0"
     inkscape:pageshadow="2"
     inkscape:window-width="1908"
     inkscape:window-height="2107"
     id="namedview5"
     showgrid="false"
     inkscape:zoom="42"
     inkscape:cx="12"
     inkscape:cy="12"
     inkscape:window-x="8"
     inkscape:window-y="33"
     inkscape:window-maximized="0"
     inkscape:current-layer="mdi-alpha-r-circle" />
  <path fill="#ffffff"
     id="path2"
     d="M 12 2 C 6.4771525 2 2 6.477152 2 12 C 2 17.522847 6.4771525 22 12 22 C 17.522847 22 22 17.522847 22 12 C 22 6.477152 17.522847 2 12 2 z M 12 6 C 15.287326 6 17.953784 8.644593 17.996094 11.921875 A 1 1 0 0 1 18 12 A 1 1 0 0 1 17 13 L 15.857422 13 L 8.1425781 13 C 8.5886461 14.722267 10.138261 16 12 16 L 14 16 A 1 1 0 0 1 15 17 A 1 1 0 0 1 14 18 L 12 18 C 9.027861 18 6.5669337 15.836505 6.0898438 13 C 6.0350138 12.674017 6 12.34157 6 12 C 6 8.686292 8.686291 6 12 6 z M 12 8 C 10.138261 8 8.5886461 9.277733 8.1425781 11 L 15.857422 11 C 15.49459 9.599108 14.400892 8.5054101 13 8.1425781 C 12.873245 8.1097481 12.743489 8.08572 12.613281 8.0625 C 12.412063 8.03133 12.209953 8 12 8 z " />
</svg>
