<?xml version="1.0" encoding="UTF-8" standalone="no"?>
<svg
   xmlns:dc="http://purl.org/dc/elements/1.1/"
   xmlns:cc="http://creativecommons.org/ns#"
   xmlns:rdf="http://www.w3.org/1999/02/22-rdf-syntax-ns#"
   xmlns:svg="http://www.w3.org/2000/svg"
   xmlns="http://www.w3.org/2000/svg"
   xmlns:sodipodi="http://sodipodi.sourceforge.net/DTD/sodipodi-0.dtd"
   xmlns:inkscape="http://www.inkscape.org/namespaces/inkscape"
   version="1.1"
   id="mdi-format-columns"
   width="24"
   height="24"
   viewBox="0 0 24 24"
   sodipodi:docname="mode1.svg"
   inkscape:version="1.0.2 (e86c870879, 2021-01-15)">
  <metadata
     id="metadata9">
    <rdf:RDF>
      <cc:Work
         rdf:about="">
        <dc:format>image/svg+xml</dc:format>
        <dc:type
           rdf:resource="http://purl.org/dc/dcmitype/StillImage" />
      </cc:Work>
    </rdf:RDF>
  </metadata>
  <defs
     id="defs7" />
  <sodipodi:namedview
     pagecolor="#ffffff"
     bordercolor="#666666"
     borderopacity="1"
     objecttolerance="10"
     gridtolerance="10"
     guidetolerance="10"
     inkscape:pageopacity="0"
     inkscape:pageshadow="2"
     inkscape:window-width="1844"
     inkscape:window-height="1031"
     id="namedview5"
     showgrid="false"
     inkscape:zoom="42"
     inkscape:cx="12"
     inkscape:cy="16.761905"
     inkscape:window-x="8"
     inkscape:window-y="1109"
     inkscape:window-maximized="0"
     inkscape:current-layer="mdi-format-columns"
     inkscape:document-rotation="0" />
  <path fill="#ffffff"
     d="m 3,3 h 8 V 5 H 3 V 3 m 10,0 h 8 V 5 H 13 V 3 M 3,7 h 8 V 9 H 3 V 7 m 10,0 h 8 V 9 H 13 V 7 M 3,13 h 8 v 2 H 3 v -2 m 8,0 h 10 v 2 H 11 v -2 m -8,6 h 8 v 2 H 3 v -2 m 8,0 h 10 v 2 H 11 Z"
     id="path2"
     sodipodi:nodetypes="cccccccccccccccccccccccccccccccccccccccc" />
  <path fill="#ffffff"
     d="m 21.64,19.64893 -2.78,-2.79 c -0.31,-0.32 -0.85,-0.09 -0.85,0.35 v 1.79 l -0.01,2 v 1.79 c 0,0.45 0.54,0.67 0.85,0.35 l 2.78,-2.79 c 0.2,-0.19 0.2,-0.51 0.01,-0.7 z"
     id="path2-3"
     sodipodi:nodetypes="ccsccsccc" />
</svg>
