<?xml version="1.0" encoding="UTF-8" standalone="no"?>
<svg
   xmlns:dc="http://purl.org/dc/elements/1.1/"
   xmlns:cc="http://creativecommons.org/ns#"
   xmlns:rdf="http://www.w3.org/1999/02/22-rdf-syntax-ns#"
   xmlns:svg="http://www.w3.org/2000/svg"
   xmlns="http://www.w3.org/2000/svg"
   xmlns:sodipodi="http://sodipodi.sourceforge.net/DTD/sodipodi-0.dtd"
   xmlns:inkscape="http://www.inkscape.org/namespaces/inkscape"
   height="24"
   viewBox="0 0 24 24"
   width="24"
   version="1.1"
   id="svg4"
   sodipodi:docname="run-build-clean.svg"
   inkscape:version="1.0.2 (e86c870879, 2021-01-15)">
  <metadata
     id="metadata10">
    <rdf:RDF>
      <cc:Work
         rdf:about="">
        <dc:format>image/svg+xml</dc:format>
        <dc:type
           rdf:resource="http://purl.org/dc/dcmitype/StillImage" />
      </cc:Work>
    </rdf:RDF>
  </metadata>
  <defs
     id="defs8" />
  <sodipodi:namedview
     pagecolor="#ffffff"
     bordercolor="#666666"
     borderopacity="1"
     objecttolerance="10"
     gridtolerance="10"
     guidetolerance="10"
     inkscape:pageopacity="0"
     inkscape:pageshadow="2"
     inkscape:window-width="1908"
     inkscape:window-height="1031"
     id="namedview6"
     showgrid="false"
     inkscape:zoom="14.045518"
     inkscape:cx="36.77186"
     inkscape:cy="5.7042683"
     inkscape:window-x="8"
     inkscape:window-y="1109"
     inkscape:window-maximized="0"
     inkscape:current-layer="svg4"
     inkscape:document-rotation="0" />
  <path fill="#ffffff"
     id="path2"
     style="stroke-width:1"
     d="M 10 2 C 9.7500001 2 9.5397657 2.1799219 9.5097656 2.4199219 L 9.1308594 5.0703125 C 8.5208595 5.3203125 7.9594531 5.6607812 7.4394531 6.0507812 L 4.9492188 5.0507812 C 4.7192187 4.9607813 4.4598439 5.0495313 4.3398438 5.2695312 L 2.3398438 8.7304688 C 2.2098438 8.9504686 2.2709378 9.2191406 2.4609375 9.3691406 L 4.5703125 11.019531 C 4.5303125 11.339531 4.5 11.67 4.5 12 C 4.5 12.33 4.5303125 12.660469 4.5703125 12.980469 L 2.4609375 14.630859 C 2.2709375 14.780859 2.2198436 15.049531 2.3398438 15.269531 L 4.3398438 18.730469 C 4.4598439 18.950469 4.7292186 19.029219 4.9492188 18.949219 L 7.4394531 17.949219 C 7.9594531 18.349219 8.5208595 18.679686 9.1308594 18.929688 L 9.5097656 21.580078 C 9.5397674 21.820078 9.7500001 22 10 22 L 14 22 C 14.25 22 14.460234 21.820078 14.490234 21.580078 L 14.869141 18.929688 C 15.479141 18.679688 16.040547 18.339219 16.560547 17.949219 L 19.050781 18.949219 C 19.280781 19.039219 19.540156 18.950419 19.660156 18.730469 L 21.660156 15.269531 C 21.780156 15.049531 21.729066 14.780859 21.539062 14.630859 L 19.429688 12.980469 C 19.469684 12.660469 19.5 12.34 19.5 12 C 19.5 11.66 19.469687 11.339531 19.429688 11.019531 L 21.539062 9.3691406 C 21.729063 9.2191406 21.780156 8.9504687 21.660156 8.7304688 L 19.660156 5.2695312 C 19.540156 5.0495313 19.270781 4.9707814 19.050781 5.0507812 L 16.560547 6.0507812 C 16.040547 5.6507813 15.479141 5.3203125 14.869141 5.0703125 L 14.490234 2.4199219 C 14.460234 2.1799219 14.25 2 14 2 L 10 2 z M 11.001953 9 L 14.001953 9.0097656 C 15.101953 9.0097656 16.001953 9.9000003 16.001953 11 L 16.001953 13 C 16.001953 14.100001 15.101953 14.990234 14.001953 14.990234 L 11.001953 15 C 10.331953 15 9.7330469 14.670157 9.3730469 14.160156 L 8.1855469 12.580078 C 7.9355469 12.230078 7.9355469 11.769922 8.1855469 11.419922 L 9.3730469 9.8398438 C 9.7330469 9.3298438 10.331953 9 11.001953 9 z " />
</svg>
