<?xml version="1.0" encoding="UTF-8" standalone="no"?>
<svg
   xmlns:dc="http://purl.org/dc/elements/1.1/"
   xmlns:cc="http://creativecommons.org/ns#"
   xmlns:rdf="http://www.w3.org/1999/02/22-rdf-syntax-ns#"
   xmlns:svg="http://www.w3.org/2000/svg"
   xmlns="http://www.w3.org/2000/svg"
   xmlns:sodipodi="http://sodipodi.sourceforge.net/DTD/sodipodi-0.dtd"
   xmlns:inkscape="http://www.inkscape.org/namespaces/inkscape"
   version="1.1"
   id="mdi-format-color-fill"
   width="24"
   height="24"
   viewBox="0 0 24 24"
   sodipodi:docname="color-fill-symbolic.svg"
   inkscape:version="1.0.1 (3bc2e813f5, 2020-09-07)">
  <metadata
     id="metadata9">
    <rdf:RDF>
      <cc:Work
         rdf:about="">
        <dc:format>image/svg+xml</dc:format>
        <dc:type
           rdf:resource="http://purl.org/dc/dcmitype/StillImage" />
      </cc:Work>
    </rdf:RDF>
  </metadata>
  <defs
     id="defs7" />
  <sodipodi:namedview
     pagecolor="#ffffff"
     bordercolor="#666666"
     borderopacity="1"
     objecttolerance="10"
     gridtolerance="10"
     guidetolerance="10"
     inkscape:pageopacity="0"
     inkscape:pageshadow="2"
     inkscape:window-width="1904"
     inkscape:window-height="1005"
     id="namedview5"
     showgrid="false"
     inkscape:zoom="10.960155"
     inkscape:cx="3.4488518"
     inkscape:cy="11.916976"
     inkscape:window-x="56"
     inkscape:window-y="50"
     inkscape:window-maximized="0"
     inkscape:current-layer="mdi-format-color-fill" />
  <path fill="#ffffff"
     d="m 19,15.183798 c 0,0 -2,2.17 -2,3.5 a 2,2 0 0 0 2,2 2,2 0 0 0 2,-2 c 0,-1.33 -2,-3.5 -2,-3.5 m -13.7900001,-1.5 L 10,8.8937982 14.79,13.683798 m 1.77,-1.06 -8.94,-8.9399998 -1.4099999,1.41 2.38,2.38 L 3.44,12.623798 c -0.59,0.56 -0.59,1.53 0,2.12 l 5.5,5.5 c 0.2899999,0.29 0.68,0.44 1.06,0.44 0.38,0 0.77,-0.15 1.06,-0.44 l 5.5,-5.5 c 0.59,-0.59 0.59,-1.56 0,-2.12 z"
     id="path2"
     style="stroke-width:1" />
</svg>
