<?xml version="1.0" encoding="UTF-8" standalone="no"?>
<svg
   height="24"
   viewBox="0 0 24 24"
   width="24"
   version="1.1"
   id="svg4"
   sodipodi:docname="vcs-merge.svg"
   inkscape:version="1.1 (c68e22c387, 2021-05-23)"
   xmlns:inkscape="http://www.inkscape.org/namespaces/inkscape"
   xmlns:sodipodi="http://sodipodi.sourceforge.net/DTD/sodipodi-0.dtd"
   xmlns="http://www.w3.org/2000/svg"
   xmlns:svg="http://www.w3.org/2000/svg">
  <defs
     id="defs8" />
  <sodipodi:namedview
     id="namedview6"
     pagecolor="#ffffff"
     bordercolor="#666666"
     borderopacity="1.0"
     inkscape:pageshadow="2"
     inkscape:pageopacity="0.0"
     inkscape:pagecheckerboard="0"
     showgrid="false"
     inkscape:zoom="33.541667"
     inkscape:cx="9.2273291"
     inkscape:cy="11.329192"
     inkscape:window-width="1920"
     inkscape:window-height="1016"
     inkscape:window-x="0"
     inkscape:window-y="0"
     inkscape:window-maximized="1"
     inkscape:current-layer="svg4" />
  <path fill="#ffffff"
     id="path2"
     d="M 12 3 C 10.34313 3 9 4.343131 9 6 C 9 7.3060074 9.835117 8.4161231 11 8.828125 L 11 11 L 6 11 C 5.45 11 5 11.45 5 12 L 5 15.171875 C 3.835117 15.583877 3 16.693993 3 18 C 3 19.65687 4.343131 21 6 21 C 7.65687 21 9 19.65687 9 18 C 9 16.693993 8.164883 15.583877 7 15.171875 L 7 13 L 12 13 L 13 13 L 17 13 L 17 15.171875 C 15.835117 15.583877 15 16.693993 15 18 C 15 19.65687 16.34313 21 18 21 C 19.656869 21 21 19.65687 21 18 C 21 16.693993 20.164883 15.583877 19 15.171875 L 19 12 C 19 11.45 18.55 11 18 11 L 13 11 L 13 9 L 13 8.828125 C 14.164883 8.4161231 15 7.3060074 15 6 C 15 4.343131 13.656869 3 12 3 z M 12 5 C 12.552302 5 13 5.447698 13 6 C 13 6.552303 12.552302 7 12 7 C 11.447697 7 11 6.552303 11 6 C 11 5.447698 11.447697 5 12 5 z M 6 17 C 6.552303 17 7 17.447698 7 18 C 7 18.552303 6.552303 19 6 19 C 5.447698 19 5 18.552303 5 18 C 5 17.447698 5.447698 17 6 17 z M 18 17 C 18.552302 17 19 17.447698 19 18 C 19 18.552303 18.552302 19 18 19 C 17.447697 19 17 18.552303 17 18 C 17 17.447698 17.447697 17 18 17 z " />
</svg>
