<?xml version="1.0" encoding="UTF-8" standalone="no"?>
<svg
   version="1.1"
   width="24"
   height="24"
   viewBox="0 0 24 24"
   id="svg4"
   sodipodi:docname="weather-alert-alt.svg"
   inkscape:version="1.1 (c68e22c387, 2021-05-23)"
   xmlns:inkscape="http://www.inkscape.org/namespaces/inkscape"
   xmlns:sodipodi="http://sodipodi.sourceforge.net/DTD/sodipodi-0.dtd"
   xmlns="http://www.w3.org/2000/svg"
   xmlns:svg="http://www.w3.org/2000/svg">
  <defs
     id="defs8" />
  <sodipodi:namedview
     id="namedview6"
     pagecolor="#ffffff"
     bordercolor="#666666"
     borderopacity="1.0"
     inkscape:pageshadow="2"
     inkscape:pageopacity="0.0"
     inkscape:pagecheckerboard="0"
     showgrid="false"
     inkscape:zoom="21.653589"
     inkscape:cx="0.16163602"
     inkscape:cy="7.1581665"
     inkscape:window-width="1920"
     inkscape:window-height="1016"
     inkscape:window-x="0"
     inkscape:window-y="0"
     inkscape:window-maximized="1"
     inkscape:current-layer="svg4" />
  <path fill="#ffffff"
     id="path2"
     d="M 12 5 C 9.3 5 7 6.65 6 9 C 3.2385763 9 1 11.238576 1 14 C 1 16.761424 3.2385763 19 6 19 L 19 19 C 21.209139 19 23 17.209139 23 15 C 23 12.790861 21.209139 11 19 11 L 18.5 11.029297 C 18.24 7.6592938 15.43 5 12 5 z M 12 8 C 12.552285 8 13 8.4477153 13 9 L 13 11 C 13 11.552285 12.552285 12 12 12 C 11.447715 12 11 11.552285 11 11 L 11 9 C 11 8.4477153 11.447715 8 12 8 z M 12 14 C 12.552285 14 13 14.447715 13 15 C 13 15.552285 12.552285 16 12 16 C 11.447715 16 11 15.552285 11 15 C 11 14.447715 11.447715 14 12 14 z " />
</svg>
