<?xml version="1.0" encoding="UTF-8" standalone="no"?>
<svg
   height="24"
   viewBox="0 0 24 24"
   width="24"
   version="1.1"
   id="svg4"
   sodipodi:docname="auth-sim-locked.svg"
   inkscape:version="1.1 (c68e22c387, 2021-05-23)"
   xmlns:inkscape="http://www.inkscape.org/namespaces/inkscape"
   xmlns:sodipodi="http://sodipodi.sourceforge.net/DTD/sodipodi-0.dtd"
   xmlns="http://www.w3.org/2000/svg"
   xmlns:svg="http://www.w3.org/2000/svg">
  <defs
     id="defs8" />
  <sodipodi:namedview
     id="namedview6"
     pagecolor="#ffffff"
     bordercolor="#666666"
     borderopacity="1.0"
     inkscape:pageshadow="2"
     inkscape:pageopacity="0.0"
     inkscape:pagecheckerboard="0"
     showgrid="false"
     inkscape:zoom="33.541667"
     inkscape:cx="12.014907"
     inkscape:cy="12.014907"
     inkscape:window-width="1920"
     inkscape:window-height="1016"
     inkscape:window-x="0"
     inkscape:window-y="0"
     inkscape:window-maximized="1"
     inkscape:current-layer="svg4" />
  <path fill="#484848"
     id="path2"
     d="M 10 2 L 4.0195312 8 L 4 20 C 4 21.1 4.9 22 6 22 L 18 22 C 19.1 22 20 21.1 20 20 L 20 4 C 20 2.9 19.1 2 18 2 L 10 2 z M 12 8 A 1 1 0 0 1 13 9 L 13 12 A 1 1 0 0 1 12 13 A 1 1 0 0 1 11 12 L 11 9 A 1 1 0 0 1 12 8 z M 12 15 C 12.552285 15 13 15.447715 13 16 C 13 16.552285 12.552285 17 12 17 C 11.447715 17 11 16.552285 11 16 C 11 15.447715 11.447715 15 12 15 z " />
</svg>
