<?xml version="1.0" encoding="UTF-8" standalone="no"?>
<svg
   xmlns:dc="http://purl.org/dc/elements/1.1/"
   xmlns:cc="http://creativecommons.org/ns#"
   xmlns:rdf="http://www.w3.org/1999/02/22-rdf-syntax-ns#"
   xmlns:svg="http://www.w3.org/2000/svg"
   xmlns="http://www.w3.org/2000/svg"
   xmlns:sodipodi="http://sodipodi.sourceforge.net/DTD/sodipodi-0.dtd"
   xmlns:inkscape="http://www.inkscape.org/namespaces/inkscape"
   height="24"
   viewBox="0 0 24 24"
   width="24"
   version="1.1"
   id="svg6"
   sodipodi:docname="daytime-sunset-symbolic.svg"
   inkscape:version="1.0.1 (3bc2e813f5, 2020-09-07)">
  <metadata
     id="metadata12">
    <rdf:RDF>
      <cc:Work
         rdf:about="">
        <dc:format>image/svg+xml</dc:format>
        <dc:type
           rdf:resource="http://purl.org/dc/dcmitype/StillImage" />
        <dc:title />
      </cc:Work>
    </rdf:RDF>
  </metadata>
  <defs
     id="defs10" />
  <sodipodi:namedview
     pagecolor="#ffffff"
     bordercolor="#666666"
     borderopacity="1"
     objecttolerance="10"
     gridtolerance="10"
     guidetolerance="10"
     inkscape:pageopacity="0"
     inkscape:pageshadow="2"
     inkscape:window-width="948"
     inkscape:window-height="482"
     id="namedview8"
     showgrid="false"
     inkscape:zoom="26.0451"
     inkscape:cx="6.0991517"
     inkscape:cy="10.068653"
     inkscape:window-x="56"
     inkscape:window-y="50"
     inkscape:window-maximized="0"
     inkscape:current-layer="svg6"
     inkscape:document-rotation="0" />
  <path fill="#484848"
     d="m 6.05,14.380084 -0.39,0.39 c -0.39,0.39 -1.02,0.38 -1.4,0 l -0.01,-0.01 c -0.39,-0.39 -0.39,-1.02 0,-1.4 l 0.39,-0.39 c 0.39,-0.39 1.01,-0.39 1.4,0 l 0.01,0.01 c 0.39,0.38 0.39,1.02 0,1.4 z m 7.088385,-6.36 H 1.99 c -0.55,0 -0.99,-0.44 -0.99,-0.99 v -0.01 c 0,-0.55 0.44,-0.99 0.99,-0.99 h 11.138385 c 0.56,-0.01 1,0.43 1,0.98 v 0.01 c 0,0.56 -0.44,1 -0.99,1 z m -1.128385,9.95 H 12 c -0.56,0 -1,-0.44 -1,-0.99 v -0.96 c 0,-0.55 0.44,-0.99 0.99,-0.99 H 12 c 0.56,-0.01 1,0.43 1,0.98 v 0.97 c 0,0.55 -0.44,0.99 -0.99,0.99 z m 7.74,-3.21 c -0.39,0.39 -1.02,0.39 -1.41,0.01 l -0.39,-0.39 c -0.39,-0.39 -0.39,-1.02 0,-1.4 l 0.01,-0.01 c 0.39,-0.39 1.02,-0.39 1.4,0 l 0.39,0.39 c 0.39,0.39 0.39,1.01 0,1.4 z m -9.714684,-7.73 v -0.01 c 0,-0.55 0.44,-0.99 0.99,-0.99 H 22 c 0.55,0 0.99,0.44 0.99,0.99 v 0.01 c 0,0.55 -0.44,0.99 -0.99,0.99 H 11.025316 c -0.55,0 -0.99,-0.44 -0.99,-0.99 z M 12,13.020084 c -3.31,0 -6,-2.69 -6,-6 h 12 c 0,3.31 -2.69,6 -6,6 z"
     id="path4"
     sodipodi:nodetypes="cssscssccssssscsssssssscsssscscscssssssssssssccs" />
</svg>
