<?xml version="1.0" encoding="UTF-8" standalone="no"?>
<svg
   xmlns:dc="http://purl.org/dc/elements/1.1/"
   xmlns:cc="http://creativecommons.org/ns#"
   xmlns:rdf="http://www.w3.org/1999/02/22-rdf-syntax-ns#"
   xmlns:svg="http://www.w3.org/2000/svg"
   xmlns="http://www.w3.org/2000/svg"
   xmlns:sodipodi="http://sodipodi.sourceforge.net/DTD/sodipodi-0.dtd"
   xmlns:inkscape="http://www.inkscape.org/namespaces/inkscape"
   height="24"
   viewBox="0 0 24 24"
   width="24"
   version="1.1"
   id="svg4"
   sodipodi:docname="media-playlist-repeat-one-symbolic (copy).svg"
   inkscape:version="1.0.1 (3bc2e813f5, 2020-09-07)">
  <metadata
     id="metadata10">
    <rdf:RDF>
      <cc:Work
         rdf:about="">
        <dc:format>image/svg+xml</dc:format>
        <dc:type
           rdf:resource="http://purl.org/dc/dcmitype/StillImage" />
      </cc:Work>
    </rdf:RDF>
  </metadata>
  <defs
     id="defs8" />
  <sodipodi:namedview
     pagecolor="#ffffff"
     bordercolor="#666666"
     borderopacity="1"
     objecttolerance="10"
     gridtolerance="10"
     guidetolerance="10"
     inkscape:pageopacity="0"
     inkscape:pageshadow="2"
     inkscape:window-width="948"
     inkscape:window-height="1000"
     id="namedview6"
     showgrid="false"
     inkscape:zoom="11.740919"
     inkscape:cx="8.5088935"
     inkscape:cy="7.1425536"
     inkscape:window-x="26"
     inkscape:window-y="23"
     inkscape:window-maximized="0"
     inkscape:current-layer="svg4" />
  <path fill="#484848"
     d="M 17,7 H 7 V 8.79 C 7,9.24 6.46,9.46 6.15,9.14 L 3.36,6.35 c -0.2,-0.2 -0.2,-0.51 0,-0.71 L 6.15,2.85 C 6.46,2.54 7,2.76 7,3.21 V 5 h 11 c 0.55,0 1,0.45 1,1 v 4 c 0,0.55 -0.45,1 -1,1 -0.55,0 -1,-0.45 -1,-1 z M 7,17 h 10 v -1.79 c 0,-0.45 0.54,-0.67 0.85,-0.35 l 2.79,2.79 c 0.2,0.2 0.2,0.51 0,0.71 l -2.79,2.79 C 17.54,21.46 17,21.24 17,20.79 V 19 H 6 C 5.45,19 5,18.55 5,18 v -4 c 0,-0.55 0.45,-1 1,-1 0.55,0 1,0.45 1,1 z"
     id="path2"
     sodipodi:nodetypes="ccscsssscssssscccscsssscsssssc" />
  <path fill="#484848"
     d="M 13,14.25 V 9.81 C 13,9.36 12.64,9 12.19,9 12.06,9 11.94,9.03 11.83,9.09 L 10.34,9.83 C 10.13,9.93 9.9999998,10.15 9.9999998,10.38 9.9999998,10.72 10.28,11 10.62,11 h 0.88 v 3.25 c 0,0.41 0.34,0.75 0.75,0.75 0.41,0 0.75,-0.34 0.75,-0.75 z"
     id="path2-3"
     sodipodi:nodetypes="sssccsscsss" />
</svg>
