<?xml version="1.0" encoding="UTF-8" standalone="no"?>
<svg
   xmlns:dc="http://purl.org/dc/elements/1.1/"
   xmlns:cc="http://creativecommons.org/ns#"
   xmlns:rdf="http://www.w3.org/1999/02/22-rdf-syntax-ns#"
   xmlns:svg="http://www.w3.org/2000/svg"
   xmlns="http://www.w3.org/2000/svg"
   xmlns:sodipodi="http://sodipodi.sourceforge.net/DTD/sodipodi-0.dtd"
   xmlns:inkscape="http://www.inkscape.org/namespaces/inkscape"
   version="1.1"
   id="mdi-wifi-remove"
   width="24"
   height="24"
   viewBox="0 0 24 24"
   sodipodi:docname="network-wireless-disconnected.svg"
   inkscape:version="1.0.2 (e86c870879, 2021-01-15)">
  <metadata
     id="metadata9">
    <rdf:RDF>
      <cc:Work
         rdf:about="">
        <dc:format>image/svg+xml</dc:format>
        <dc:type
           rdf:resource="http://purl.org/dc/dcmitype/StillImage" />
      </cc:Work>
    </rdf:RDF>
  </metadata>
  <defs
     id="defs7" />
  <sodipodi:namedview
     pagecolor="#ffffff"
     bordercolor="#666666"
     borderopacity="1"
     objecttolerance="10"
     gridtolerance="10"
     guidetolerance="10"
     inkscape:pageopacity="0"
     inkscape:pageshadow="2"
     inkscape:window-width="1904"
     inkscape:window-height="1004"
     id="namedview5"
     showgrid="false"
     inkscape:zoom="31"
     inkscape:cx="12.064516"
     inkscape:cy="12"
     inkscape:window-x="56"
     inkscape:window-y="50"
     inkscape:window-maximized="0"
     inkscape:current-layer="mdi-wifi-remove" />
  <path fill="#484848"
     d="M 21.12,15.46 19,17.59 16.88,15.47 15.47,16.88 17.59,19 15.47,21.12 16.88,22.54 19,20.41 21.12,22.54 22.54,21.12 20.41,19 22.54,16.88 Z"
     id="path2"
     sodipodi:nodetypes="ccccccccccccc" />
  <g
     id="g850"
     style="fill:#484848;fill-opacity:1">
    <path fill="#484848"
       d="m 2.06,10.06 c 0.51,0.51 1.32,0.56 1.87,0.1 4.67,-3.84 11.45,-3.84 16.13,-0.01 0.56,0.46 1.38,0.42 1.89,-0.09 0.59,-0.59 0.55,-1.57 -0.1,-2.1 -5.71,-4.67 -13.97,-4.67 -19.69,0 -0.65,0.52 -0.7,1.5 -0.1,2.1 z m 7.76,7.76 1.47,1.47 c 0.39,0.39 1.02,0.39 1.41,0 l 1.47,-1.47 c 0.47,-0.47 0.37,-1.28 -0.23,-1.59 -1.22,-0.63 -2.68,-0.63 -3.91,0 -0.57,0.31 -0.68,1.12 -0.21,1.59 z M 6.09,14.09 c 0.49,0.49 1.26,0.54 1.83,0.13 2.44,-1.73 5.72,-1.73 8.16,0 0.57,0.4 1.34,0.36 1.83,-0.13 l 0.01,-0.01 c 0.6,-0.6 0.56,-1.62 -0.13,-2.11 -3.44,-2.49 -8.13,-2.49 -11.58,0 -0.69,0.5 -0.73,1.51 -0.12,2.12 z"
       id="path2-7"
       style="fill:#484848;fill-opacity:1" />
  </g>
</svg>
