<?xml version="1.0" encoding="UTF-8" standalone="no"?>
<svg
   xmlns:dc="http://purl.org/dc/elements/1.1/"
   xmlns:cc="http://creativecommons.org/ns#"
   xmlns:rdf="http://www.w3.org/1999/02/22-rdf-syntax-ns#"
   xmlns:svg="http://www.w3.org/2000/svg"
   xmlns="http://www.w3.org/2000/svg"
   xmlns:sodipodi="http://sodipodi.sourceforge.net/DTD/sodipodi-0.dtd"
   xmlns:inkscape="http://www.inkscape.org/namespaces/inkscape"
   height="24"
   viewBox="0 0 24 24"
   width="24"
   version="1.1"
   id="svg4"
   sodipodi:docname="rotation-locked (copy).svg"
   inkscape:version="1.0.2 (e86c870879, 2021-01-15)">
  <metadata
     id="metadata10">
    <rdf:RDF>
      <cc:Work
         rdf:about="">
        <dc:format>image/svg+xml</dc:format>
        <dc:type
           rdf:resource="http://purl.org/dc/dcmitype/StillImage" />
      </cc:Work>
    </rdf:RDF>
  </metadata>
  <defs
     id="defs8" />
  <sodipodi:namedview
     pagecolor="#ffffff"
     bordercolor="#666666"
     borderopacity="1"
     objecttolerance="10"
     gridtolerance="10"
     guidetolerance="10"
     inkscape:pageopacity="0"
     inkscape:pageshadow="2"
     inkscape:window-width="3824"
     inkscape:window-height="2107"
     id="namedview6"
     showgrid="false"
     inkscape:zoom="42"
     inkscape:cx="12"
     inkscape:cy="12"
     inkscape:window-x="8"
     inkscape:window-y="8"
     inkscape:window-maximized="0"
     inkscape:current-layer="svg4" />
  <path fill="#484848"
     id="path2"
     d="M 11.912109 0.009765625 C 11.732109 0.009765625 11.651484 0.229375 11.771484 0.359375 L 15.251953 3.8496094 L 16.582031 2.5195312 C 19.672031 3.9795312 21.920703 6.8908594 22.470703 10.380859 C 22.530703 10.790859 22.912031 11.07 23.332031 11 C 23.742031 10.94 24.021172 10.550625 23.951172 10.140625 C 23.351172 6.330625 20.990938 3.130625 17.710938 1.390625 C 16.140937 0.560625 14.162109 -0.040234375 11.912109 0.009765625 z M 9.2167969 1.3066406 C 9.0249219 1.3066406 8.8342383 1.3440039 8.6542969 1.4179688 C 8.5644153 1.4548437 8.4771445 1.5013281 8.3945312 1.5566406 C 8.3118579 1.6120337 8.2326563 1.67625 8.1601562 1.75 L 1.8007812 8.109375 C 1.2107812 8.699375 1.2107812 9.6504687 1.8007812 10.230469 L 13.662109 22.099609 C 13.668989 22.106489 13.677699 22.110047 13.685547 22.115234 C 13.687509 22.116531 13.68963 22.117489 13.691406 22.119141 L 13.820312 22.25 L 13.822266 22.25 C 13.895706 22.323294 13.973504 22.388321 14.056641 22.443359 C 14.057054 22.443634 14.058181 22.443085 14.058594 22.443359 C 14.141706 22.498243 14.22838 22.545371 14.318359 22.582031 C 14.318886 22.582247 14.319786 22.581816 14.320312 22.582031 C 14.340677 22.590298 14.362186 22.594228 14.382812 22.601562 C 14.536566 22.656659 14.696362 22.688447 14.857422 22.691406 C 14.866537 22.691574 14.875649 22.693359 14.884766 22.693359 C 15.076641 22.693359 15.267324 22.655996 15.447266 22.582031 C 15.627029 22.508281 15.794453 22.3975 15.939453 22.25 L 22.300781 15.890625 C 22.890781 15.300625 22.890781 14.349531 22.300781 13.769531 L 10.439453 1.9003906 C 10.432536 1.8934739 10.423851 1.8899442 10.416016 1.8847656 C 10.414057 1.883471 10.411932 1.8825119 10.410156 1.8808594 L 10.28125 1.75 C 10.280885 1.7496349 10.279662 1.7503646 10.279297 1.75 C 10.115132 1.5858356 9.922588 1.4714822 9.71875 1.3984375 C 9.5649969 1.3433406 9.4052004 1.3115521 9.2441406 1.3085938 C 9.2350254 1.3084263 9.2259132 1.3066406 9.2167969 1.3066406 z M 9.2207031 3.5097656 L 10.619141 4.9101562 C 10.620872 4.9118881 10.622992 4.9128544 10.625 4.9140625 L 18.560547 12.849609 L 20.539062 14.830078 L 14.880859 20.490234 L 13.482422 19.089844 C 13.480699 19.088121 13.478568 19.087146 13.476562 19.085938 L 5.5410156 11.150391 L 3.5625 9.1699219 L 9.2207031 3.5097656 z M 0.76953125 13 C 0.35953125 13.06 0.08039063 13.449375 0.15039062 13.859375 C 0.75039062 17.669375 3.110625 20.869375 6.390625 22.609375 C 7.960625 23.439375 9.9394532 24.040234 12.189453 23.990234 C 12.369453 23.990234 12.450078 23.770625 12.330078 23.640625 L 8.8496094 20.150391 L 7.5195312 21.480469 C 4.4295313 20.020469 2.1808594 17.109141 1.6308594 13.619141 C 1.5708594 13.209141 1.1895312 12.93 0.76953125 13 z " />
</svg>
