<?xml version="1.0" encoding="UTF-8" standalone="no"?>
<svg
   xmlns:dc="http://purl.org/dc/elements/1.1/"
   xmlns:cc="http://creativecommons.org/ns#"
   xmlns:rdf="http://www.w3.org/1999/02/22-rdf-syntax-ns#"
   xmlns:svg="http://www.w3.org/2000/svg"
   xmlns="http://www.w3.org/2000/svg"
   xmlns:sodipodi="http://sodipodi.sourceforge.net/DTD/sodipodi-0.dtd"
   xmlns:inkscape="http://www.inkscape.org/namespaces/inkscape"
   height="24"
   viewBox="0 0 24 24"
   width="24"
   version="1.1"
   id="svg4"
   sodipodi:docname="rate_review-24px.svg"
   inkscape:version="1.0.1 (3bc2e813f5, 2020-09-07)">
  <metadata
     id="metadata10">
    <rdf:RDF>
      <cc:Work
         rdf:about="">
        <dc:format>image/svg+xml</dc:format>
        <dc:type
           rdf:resource="http://purl.org/dc/dcmitype/StillImage" />
      </cc:Work>
    </rdf:RDF>
  </metadata>
  <defs
     id="defs8" />
  <sodipodi:namedview
     pagecolor="#ffffff"
     bordercolor="#666666"
     borderopacity="1"
     objecttolerance="10"
     gridtolerance="10"
     guidetolerance="10"
     inkscape:pageopacity="0"
     inkscape:pageshadow="2"
     inkscape:window-width="948"
     inkscape:window-height="478"
     id="namedview6"
     showgrid="false"
     inkscape:zoom="8.9166667"
     inkscape:cx="1.5660725"
     inkscape:cy="10.593458"
     inkscape:window-x="8"
     inkscape:window-y="36"
     inkscape:window-maximized="0"
     inkscape:current-layer="svg4" />
  <path
     d="m 4,2 h 16 c 1.1,0 2,0.9 2,2 V 22 L 18,18 H 4 C 2.9,18 2,17.1 2,16 V 4 C 2,2.9 2.9,2 4,2 Z M 18,14 V 11.53 L 11.12,4.65 c -0.2,-0.2 -0.51,-0.2 -0.71,0 L 8.64,6.42 c -0.2,0.2 -0.2,0.51 0,0.71 L 15.53,14 Z M 7,14 h 6.5 l -2,-2 H 7 c -0.55,0 -1,0.45 -1,1 0,0.55 0.45,1 1,1 z"
     id="path2" />
</svg>
