<?xml version="1.0" encoding="UTF-8" standalone="no"?>
<svg
   xmlns:dc="http://purl.org/dc/elements/1.1/"
   xmlns:cc="http://creativecommons.org/ns#"
   xmlns:rdf="http://www.w3.org/1999/02/22-rdf-syntax-ns#"
   xmlns:svg="http://www.w3.org/2000/svg"
   xmlns="http://www.w3.org/2000/svg"
   xmlns:sodipodi="http://sodipodi.sourceforge.net/DTD/sodipodi-0.dtd"
   xmlns:inkscape="http://www.inkscape.org/namespaces/inkscape"
   enable-background="new 0 0 24 24"
   height="24"
   viewBox="0 0 24 24"
   width="24"
   version="1.1"
   id="svg8"
   sodipodi:docname="preferences-system-privacy-symbolic.svg"
   inkscape:version="1.0.1 (3bc2e813f5, 2020-09-07)">
  <metadata
     id="metadata14">
    <rdf:RDF>
      <cc:Work
         rdf:about="">
        <dc:format>image/svg+xml</dc:format>
        <dc:type
           rdf:resource="http://purl.org/dc/dcmitype/StillImage" />
      </cc:Work>
    </rdf:RDF>
  </metadata>
  <defs
     id="defs12" />
  <sodipodi:namedview
     pagecolor="#ffffff"
     bordercolor="#666666"
     borderopacity="1"
     objecttolerance="10"
     gridtolerance="10"
     guidetolerance="10"
     inkscape:pageopacity="0"
     inkscape:pageshadow="2"
     inkscape:window-width="948"
     inkscape:window-height="1028"
     id="namedview10"
     showgrid="false"
     inkscape:zoom="13.02255"
     inkscape:cx="11.807252"
     inkscape:cy="21.464549"
     inkscape:window-x="964"
     inkscape:window-y="8"
     inkscape:window-maximized="0"
     inkscape:current-layer="g6" />
  <g
     id="g6">
    <path
       d="m 4.1899998,4.3762501 c -0.72,0.32 -1.1899999,1.04 -1.1899999,1.83 V 10.90625 c 0,5.55 3.8399999,10.74 9.0000001,12 5.16,-1.26 9,-6.45 9,-12 V 6.2062501 c 0,-0.79 -0.47,-1.51 -1.19,-1.83 l -7,-3.1100001 c -0.52,-0.23 -1.11,-0.23 -1.62,0 z M 12,6.9062501 v 0 c 0.55,0 1,0.4499999 1,1 v 0 c 0,0.55 -0.45,1 -1,1 v 0 c -0.55,0 -1,-0.45 -1,-1 v 0 c 0,-0.5500001 0.45,-1 1,-1 z m 0,3.9999999 v 0 c 0.55,0 1,0.45 1,1 v 4 c 0,0.55 -0.45,1 -1,1 v 0 c -0.55,0 -1,-0.45 -1,-1 v -4 c 0,-0.55 0.45,-1 1,-1 z"
       id="path4" />
  </g>
</svg>
