<?xml version="1.0" encoding="UTF-8" standalone="no"?>
<svg
   xmlns:dc="http://purl.org/dc/elements/1.1/"
   xmlns:cc="http://creativecommons.org/ns#"
   xmlns:rdf="http://www.w3.org/1999/02/22-rdf-syntax-ns#"
   xmlns:svg="http://www.w3.org/2000/svg"
   xmlns="http://www.w3.org/2000/svg"
   xmlns:sodipodi="http://sodipodi.sourceforge.net/DTD/sodipodi-0.dtd"
   xmlns:inkscape="http://www.inkscape.org/namespaces/inkscape"
   version="1.1"
   id="mdi-printer-eye"
   width="24"
   height="24"
   viewBox="0 0 24 24"
   sodipodi:docname="document-print-preview.svg"
   inkscape:version="1.0.2 (e86c870879, 2021-01-15)">
  <metadata
     id="metadata9">
    <rdf:RDF>
      <cc:Work
         rdf:about="">
        <dc:format>image/svg+xml</dc:format>
        <dc:type
           rdf:resource="http://purl.org/dc/dcmitype/StillImage" />
      </cc:Work>
    </rdf:RDF>
  </metadata>
  <defs
     id="defs7" />
  <sodipodi:namedview
     pagecolor="#ffffff"
     bordercolor="#666666"
     borderopacity="1"
     objecttolerance="10"
     gridtolerance="10"
     guidetolerance="10"
     inkscape:pageopacity="0"
     inkscape:pageshadow="2"
     inkscape:window-width="960"
     inkscape:window-height="1016"
     id="namedview5"
     showgrid="false"
     inkscape:zoom="9.3662299"
     inkscape:cx="-5.7196379"
     inkscape:cy="-3.867642"
     inkscape:window-x="26"
     inkscape:window-y="23"
     inkscape:window-maximized="0"
     inkscape:current-layer="mdi-printer-eye" />
  <path fill="#484848"
     id="path2-3-7"
     d="M 7,3 C 6.5875008,3 6.230469,3.2527344 6.078125,3.6113281 6.0273437,3.7308594 6,3.8625 6,4 V 6 C 6,6.4125 6.2527345,6.7695312 6.6113281,6.921875 6.7308593,6.9726562 6.8625003,7 7,7 h 10 c 0.55,0 1,-0.45 1,-1 V 4 C 18,3.45 17.55,3 17,3 Z M 5,8 C 3.5475009,8 2.3397267,9.0259766 2.0605469,10.394531 2.0206641,10.590039 2,10.7925 2,11 v 4 c 0,0.9625 0.688477,1.77168 1.5976562,1.958984 C 3.727539,16.985742 3.8625001,17 4,17 h 2 v 2 c 0,0.9625 0.688477,1.77168 1.5976562,1.958984 C 7.727539,20.985742 7.8625001,21 8,21 H 9.8007812 C 9.6007813,20.6 9.3014726,20.216895 9.0661768,19.709362 L 8.8007812,19 H 8 v -1 -4 h 5 c 1.2,-0.6 2.6,-1 4,-1 1.9,0 3.6,0.599609 5,1.599609 V 11 c 0,-0.2075 -0.02066,-0.409961 -0.06055,-0.605469 C 21.89957,10.199023 21.841406,10.009609 21.765625,9.8300781 21.310938,8.7528906 20.245,8 19,8 Z m 14,2 c 0.6,0 1,0.4 1,1 0,0.6 -0.4,1 -1,1 -0.6,0 -1,-0.4 -1,-1 0,-0.6 0.4,-1 1,-1 z"
     sodipodi:nodetypes="ssssssssssssssssscssscccccccscssssssssss" />
  <path fill="#484848"
     d="m 17,18 c 0.6,0 1,0.4 1,1 0,0.6 -0.4,1 -1,1 -0.6,0 -1,-0.4 -1,-1 0,-0.6 0.4,-1 1,-1 m 0,-3 c -2.7,0 -5.1,1.7 -6,4 0.9,2.3 3.3,4 6,4 2.7,0 5.1,-1.7 6,-4 -0.9,-2.3 -3.3,-4 -6,-4 m 0,6.5 c -1.4,0 -2.5,-1.1 -2.5,-2.5 0,-1.4 1.1,-2.5 2.5,-2.5 1.4,0 2.5,1.1 2.5,2.5 0,1.4 -1.1,2.5 -2.5,2.5 z"
     id="path2-6"
     sodipodi:nodetypes="cssscccsccsssss" />
</svg>
