<?xml version="1.0" encoding="UTF-8" standalone="no"?>
<svg
   xmlns:dc="http://purl.org/dc/elements/1.1/"
   xmlns:cc="http://creativecommons.org/ns#"
   xmlns:rdf="http://www.w3.org/1999/02/22-rdf-syntax-ns#"
   xmlns:svg="http://www.w3.org/2000/svg"
   xmlns="http://www.w3.org/2000/svg"
   xmlns:sodipodi="http://sodipodi.sourceforge.net/DTD/sodipodi-0.dtd"
   xmlns:inkscape="http://www.inkscape.org/namespaces/inkscape"
   height="24"
   viewBox="0 0 24 24"
   width="24"
   version="1.1"
   id="svg4"
   sodipodi:docname="go-next-context.svg"
   inkscape:version="1.0.2 (e86c870879, 2021-01-15)">
  <metadata
     id="metadata10">
    <rdf:RDF>
      <cc:Work
         rdf:about="">
        <dc:format>image/svg+xml</dc:format>
        <dc:type
           rdf:resource="http://purl.org/dc/dcmitype/StillImage" />
      </cc:Work>
    </rdf:RDF>
  </metadata>
  <defs
     id="defs8" />
  <sodipodi:namedview
     pagecolor="#ffffff"
     bordercolor="#666666"
     borderopacity="1"
     objecttolerance="10"
     gridtolerance="10"
     guidetolerance="10"
     inkscape:pageopacity="0"
     inkscape:pageshadow="2"
     inkscape:window-width="1908"
     inkscape:window-height="2107"
     id="namedview6"
     showgrid="false"
     inkscape:zoom="42"
     inkscape:cx="12"
     inkscape:cy="13.904762"
     inkscape:window-x="1924"
     inkscape:window-y="33"
     inkscape:window-maximized="0"
     inkscape:current-layer="svg4" />
  <path fill="#484848"
     id="path2"
     d="M 16,5 5,5.0097656 C 3.9,5.0097656 3,5.9 3,7 v 10 c 0,1.1 0.9,1.990234 2,1.990234 L 16,19 c 0.67,0 1.270859,-0.329844 1.630859,-0.839844 l 3.958985,-5.580078 c 0.25,-0.35 0.25,-0.810156 0,-1.160156 L 17.533586,5.8724191 C 17.173586,5.3624191 16.67,5 16,5 Z M 8.7915213,6.9772019 h 1.9999997 v 2 H 8.7915213 V 10 c 0,1.1 -0.8999999,2 -2,2 1.1000001,0 2,0.9 2,2 v 1.039234 h 1.9999997 v 2 H 8.7915213 c -1.1,0 -2,-0.9 -2,-2 V 15 c 0,-1.1 -0.9,-2 -2,-2 v -2 c 1.1,0 2,-0.9 2,-2 V 8.977202 c 0,-1.1 0.9,-2.0000001 2,-2.0000001 z m 3.9999997,0 h 2 c 1.1,0 2,0.9 2,2 V 9 c 0,1.1 0.9,2 2,2 v 2 c -1.1,0 -2,0.9 -2,2 v 0.03923 c 0,1.1 -0.9,2 -2,2 h -2 v -2 h 2 V 14 c 0,0 0.9,-2 2,-2 -1.1,0 -2,-0.9 -2,-2 V 8.9772019 h -2 z"
     sodipodi:nodetypes="ccsscccccccscccscscccsssccssscsssccssscccscsccc" />
</svg>
