<?xml version="1.0" encoding="UTF-8" standalone="no"?>
<svg
   xmlns:dc="http://purl.org/dc/elements/1.1/"
   xmlns:cc="http://creativecommons.org/ns#"
   xmlns:rdf="http://www.w3.org/1999/02/22-rdf-syntax-ns#"
   xmlns:svg="http://www.w3.org/2000/svg"
   xmlns="http://www.w3.org/2000/svg"
   xmlns:sodipodi="http://sodipodi.sourceforge.net/DTD/sodipodi-0.dtd"
   xmlns:inkscape="http://www.inkscape.org/namespaces/inkscape"
   enable-background="new 0 0 24 24"
   height="24"
   viewBox="0 0 24 24"
   width="24"
   version="1.1"
   id="svg6"
   sodipodi:docname="dash-none-symbolic.svg"
   inkscape:version="1.0.2 (e86c870879, 2021-01-15)">
  <metadata
     id="metadata12">
    <rdf:RDF>
      <cc:Work
         rdf:about="">
        <dc:format>image/svg+xml</dc:format>
        <dc:type
           rdf:resource="http://purl.org/dc/dcmitype/StillImage" />
      </cc:Work>
    </rdf:RDF>
  </metadata>
  <defs
     id="defs10" />
  <sodipodi:namedview
     pagecolor="#ffffff"
     bordercolor="#666666"
     borderopacity="1"
     objecttolerance="10"
     gridtolerance="10"
     guidetolerance="10"
     inkscape:pageopacity="0"
     inkscape:pageshadow="2"
     inkscape:window-width="1904"
     inkscape:window-height="1000"
     id="namedview8"
     showgrid="false"
     inkscape:zoom="33.958333"
     inkscape:cx="12"
     inkscape:cy="14.783742"
     inkscape:window-x="26"
     inkscape:window-y="23"
     inkscape:window-maximized="0"
     inkscape:current-layer="svg6"
     inkscape:document-rotation="0" />
  <g
     id="g2" />
  <g
     id="g1063"
     transform="translate(-0.49023438,0.4904686)">
    <path fill="#484848"
       id="path4-3"
       d="m 20.490234,2.5117188 c -0.255,-1e-7 -0.510078,0.097969 -0.705078,0.2929687 -0.39,0.39 -0.39,1.0201562 0,1.4101563 0.39,0.3899999 1.020156,0.3899999 1.410156,0 0.390001,-0.3900001 0.390001,-1.0201563 0,-1.4101563 -0.195,-0.195 -0.450078,-0.2929687 -0.705078,-0.2929687 z" />
    <path fill="#484848"
       id="path4-3-2"
       d="m 16.490234,6.5117188 c -0.255,-10e-8 -0.510078,0.097969 -0.705078,0.2929687 -0.39,0.39 -0.39,1.0201561 0,1.4101562 0.39,0.3899999 1.020156,0.3899999 1.410156,0 0.390001,-0.3900001 0.390001,-1.0201563 0,-1.4101562 -0.195,-0.195 -0.450078,-0.2929687 -0.705078,-0.2929687 z" />
    <path fill="#484848"
       id="path4-3-2-9"
       d="m 4.490234,18.511719 c -0.255,0 -0.510078,0.09797 -0.705078,0.292969 -0.39,0.39 -0.39,1.020156 0,1.410156 0.39,0.39 1.020156,0.39 1.410156,0 0.390001,-0.39 0.390001,-1.020157 0,-1.410156 -0.195,-0.195 -0.450078,-0.292969 -0.705078,-0.292969 z" />
    <path fill="#484848"
       id="path4-3-2-9-1"
       d="m 8.490234,14.511719 c -0.255,0 -0.510078,0.09797 -0.705078,0.292969 -0.39,0.39 -0.39,1.020156 0,1.410156 0.39,0.39 1.020156,0.39 1.410156,0 0.390001,-0.39 0.390001,-1.020157 0,-1.410156 -0.195,-0.195 -0.450078,-0.292969 -0.705078,-0.292969 z" />
    <path fill="#484848"
       id="path4-3-2-9-1-2"
       d="m 12.515337,10.310163 c -0.255,0 -0.510078,0.09797 -0.705078,0.292969 -0.39,0.39 -0.39,1.020156 0,1.410156 0.39,0.39 1.020156,0.39 1.410156,0 0.390001,-0.39 0.390001,-1.020157 0,-1.410156 -0.195,-0.195 -0.450078,-0.292969 -0.705078,-0.292969 z" />
  </g>
</svg>
