<?xml version="1.0" encoding="UTF-8" standalone="no"?>
<svg
   xmlns:dc="http://purl.org/dc/elements/1.1/"
   xmlns:cc="http://creativecommons.org/ns#"
   xmlns:rdf="http://www.w3.org/1999/02/22-rdf-syntax-ns#"
   xmlns:svg="http://www.w3.org/2000/svg"
   xmlns="http://www.w3.org/2000/svg"
   xmlns:sodipodi="http://sodipodi.sourceforge.net/DTD/sodipodi-0.dtd"
   xmlns:inkscape="http://www.inkscape.org/namespaces/inkscape"
   height="24"
   viewBox="0 0 24 24"
   width="24"
   version="1.1"
   id="svg4"
   sodipodi:docname="map-gnomonic.svg"
   inkscape:version="1.0.2 (e86c870879, 2021-01-15)">
  <metadata
     id="metadata10">
    <rdf:RDF>
      <cc:Work
         rdf:about="">
        <dc:format>image/svg+xml</dc:format>
        <dc:type
           rdf:resource="http://purl.org/dc/dcmitype/StillImage" />
      </cc:Work>
    </rdf:RDF>
  </metadata>
  <defs
     id="defs8" />
  <sodipodi:namedview
     pagecolor="#ffffff"
     bordercolor="#666666"
     borderopacity="1"
     objecttolerance="10"
     gridtolerance="10"
     guidetolerance="10"
     inkscape:pageopacity="0"
     inkscape:pageshadow="2"
     inkscape:window-width="1908"
     inkscape:window-height="1031"
     id="namedview6"
     showgrid="false"
     inkscape:zoom="42"
     inkscape:cx="12"
     inkscape:cy="12"
     inkscape:window-x="8"
     inkscape:window-y="1109"
     inkscape:window-maximized="0"
     inkscape:current-layer="svg4" />
  <path fill="#484848"
     id="path2"
     d="M 2.5703125 4 C 2.2303125 4 2 4.2308594 2 4.6308594 L 2 8.6308594 L 2 15.380859 L 2 19.380859 C 2 19.770859 2.2303125 20 2.5703125 20 C 2.6703125 20 2.7708594 19.979453 2.8808594 19.939453 C 5.8208594 18.839453 8.91 18.300781 12 18.300781 C 15.09 18.300781 18.179141 18.849453 21.119141 19.939453 C 21.229141 19.979453 21.329688 20 21.429688 20 C 21.759687 20 22 19.769141 22 19.369141 L 22 15.369141 L 22 8.6308594 L 22 4.6308594 C 22 4.2308594 21.759688 4 21.429688 4 C 21.329687 4 21.229141 4.0205469 21.119141 4.0605469 C 18.179141 5.1605469 15.09 5.6992188 12 5.6992188 C 8.91 5.6992188 5.8208594 5.1505469 2.8808594 4.0605469 C 2.7708594 4.0205469 2.6603125 4 2.5703125 4 z M 4 6.5390625 C 5.3144667 6.9283469 6.6498068 7.2183695 8 7.4121094 L 8 9.1054688 C 6.6506996 8.9937755 5.311238 8.804104 4 8.4277344 L 4 6.5390625 z M 20 6.5390625 L 20 8.4316406 C 18.68875 8.810405 17.349313 8.9990199 16 9.109375 L 16 7.4199219 C 17.350195 7.2262382 18.685531 6.9334031 20 6.5390625 z M 10 7.6289062 C 10.664085 7.6760172 11.330472 7.6992188 12 7.6992188 C 12.669528 7.7016803 13.335915 7.6806269 14 7.6347656 L 14 9.2226562 C 13.333967 9.2403329 12.667546 9.25 12 9.25 C 11.332453 9.25 10.666035 9.2390108 10 9.2207031 L 10 7.6289062 z M 4 10.539062 C 5.314506 10.928358 6.6497658 11.105548 8 11.185547 L 8 12.806641 C 6.6497655 12.885375 5.3145062 13.059923 4 13.449219 L 4 10.539062 z M 20 10.539062 L 20 13.449219 C 18.685494 13.059923 17.350234 12.885375 16 12.806641 L 16 11.193359 C 17.350234 11.113417 18.685494 10.933414 20 10.539062 z M 10 11.248047 C 10.664095 11.25405 11.330462 11.25 12 11.25 C 12.669539 11.252462 13.335905 11.25866 14 11.253906 L 14 12.746094 C 13.335905 12.740547 12.669538 12.744141 12 12.744141 C 11.330462 12.744141 10.664095 12.740547 10 12.746094 L 10 11.248047 z M 12 14.755859 C 12.667546 14.755859 13.333967 14.765261 14 14.783203 L 14 16.361328 C 13.335915 16.314217 12.669529 16.289062 12 16.289062 C 11.330471 16.289062 10.664085 16.314217 10 16.361328 L 10 14.78125 C 10.666032 14.763939 11.332455 14.755859 12 14.755859 z M 8 14.894531 L 8 16.578125 C 6.6498068 16.771865 5.3144667 17.059934 4 17.449219 L 4 15.570312 C 5.31125 15.192034 6.650687 15.003804 8 14.894531 z M 16 14.898438 C 17.3493 15.009049 18.688762 15.196383 20 15.572266 L 20 17.449219 C 18.685533 17.059934 17.350193 16.771865 16 16.578125 L 16 14.898438 z " />
</svg>
