<?xml version="1.0" encoding="UTF-8" standalone="no"?>
<svg
   xmlns:dc="http://purl.org/dc/elements/1.1/"
   xmlns:cc="http://creativecommons.org/ns#"
   xmlns:rdf="http://www.w3.org/1999/02/22-rdf-syntax-ns#"
   xmlns:svg="http://www.w3.org/2000/svg"
   xmlns="http://www.w3.org/2000/svg"
   xmlns:sodipodi="http://sodipodi.sourceforge.net/DTD/sodipodi-0.dtd"
   xmlns:inkscape="http://www.inkscape.org/namespaces/inkscape"
   version="1.1"
   id="mdi-chart-bar"
   width="24"
   height="24"
   viewBox="0 0 24 24"
   sodipodi:docname="office-chart-bar (copy).svg"
   inkscape:version="1.0.2 (e86c870879, 2021-01-15)">
  <metadata
     id="metadata9">
    <rdf:RDF>
      <cc:Work
         rdf:about="">
        <dc:format>image/svg+xml</dc:format>
        <dc:type
           rdf:resource="http://purl.org/dc/dcmitype/StillImage" />
      </cc:Work>
    </rdf:RDF>
  </metadata>
  <defs
     id="defs7" />
  <sodipodi:namedview
     pagecolor="#ffffff"
     bordercolor="#666666"
     borderopacity="1"
     objecttolerance="10"
     gridtolerance="10"
     guidetolerance="10"
     inkscape:pageopacity="0"
     inkscape:pageshadow="2"
     inkscape:window-width="1972"
     inkscape:window-height="1031"
     id="namedview5"
     showgrid="false"
     inkscape:zoom="14.849242"
     inkscape:cx="3.9114513"
     inkscape:cy="11.529958"
     inkscape:window-x="1860"
     inkscape:window-y="33"
     inkscape:window-maximized="0"
     inkscape:current-layer="mdi-chart-bar" />
  <path fill="#484848"
     id="path2"
     d="M 2 3 L 2 21 L 22 21 L 22 14 L 18 14 L 18 19 L 16 19 L 16 12 L 14 12 L 14 6 L 12 6 L 12 19 L 10 19 L 10 10 L 6 10 L 6 19 L 4 19 L 4 3 L 2 3 z " />
  <path fill="#484848"
     d="m 20.931623,3.995267 1.06,1.06 -6,6 -1.06,-1.06 m 1.28,-5.97 c 0.690356,0 1.25,0.559644 1.25,1.25 0,0.690356 -0.559644,1.25 -1.25,1.25 -0.690356,0 -1.25,-0.559644 -1.25,-1.25 0,-0.690356 0.559644,-1.25 1.25,-1.25 m 4.5,4.5 c 0.690356,0 1.25,0.559644 1.25,1.25 0,0.690356 -0.559644,1.25 -1.25,1.25 -0.690356,0 -1.25,-0.559644 -1.25,-1.25 0,-0.690356 0.559644,-1.25 1.25,-1.25 z"
     id="path2-3"
     sodipodi:nodetypes="cccccssscsssss" />
</svg>
