<?xml version="1.0" encoding="UTF-8" standalone="no"?>
<svg
   xmlns:dc="http://purl.org/dc/elements/1.1/"
   xmlns:cc="http://creativecommons.org/ns#"
   xmlns:rdf="http://www.w3.org/1999/02/22-rdf-syntax-ns#"
   xmlns:svg="http://www.w3.org/2000/svg"
   xmlns="http://www.w3.org/2000/svg"
   xmlns:sodipodi="http://sodipodi.sourceforge.net/DTD/sodipodi-0.dtd"
   xmlns:inkscape="http://www.inkscape.org/namespaces/inkscape"
   enable-background="new 0 0 24 24"
   height="24"
   viewBox="0 0 24 24"
   width="24"
   version="1.1"
   id="svg10"
   sodipodi:docname="smiley (copy).svg"
   inkscape:version="1.0.2 (e86c870879, 2021-01-15)">
  <metadata
     id="metadata16">
    <rdf:RDF>
      <cc:Work
         rdf:about="">
        <dc:format>image/svg+xml</dc:format>
        <dc:type
           rdf:resource="http://purl.org/dc/dcmitype/StillImage" />
      </cc:Work>
    </rdf:RDF>
  </metadata>
  <defs
     id="defs14" />
  <sodipodi:namedview
     pagecolor="#ffffff"
     bordercolor="#666666"
     borderopacity="1"
     objecttolerance="10"
     gridtolerance="10"
     guidetolerance="10"
     inkscape:pageopacity="0"
     inkscape:pageshadow="2"
     inkscape:window-width="1908"
     inkscape:window-height="1031"
     id="namedview12"
     showgrid="false"
     inkscape:zoom="12.523446"
     inkscape:cx="17.552239"
     inkscape:cy="6.1736891"
     inkscape:window-x="1924"
     inkscape:window-y="1109"
     inkscape:window-maximized="0"
     inkscape:current-layer="svg10" />
  <g
     id="g2" />
  <g
     id="g4" />
  <path fill="#484848"
     id="path6"
     d="M 11.990234 2 C 6.4702344 2 2 6.48 2 12 C 2 17.52 6.4702344 22 11.990234 22 C 14.032967 22 15.930367 21.38514 17.513672 20.335938 A 5 5 0 0 1 15.074219 16.849609 C 14.20434 17.567597 13.149884 18 12 18 C 9.96 18 8.1990625 16.670703 7.2890625 14.720703 C 7.1290625 14.390703 7.3702344 14 7.7402344 14 L 15.417969 14 A 5 5 0 0 1 20 11 A 5 5 0 0 1 21.970703 11.40625 C 21.66139 6.1639743 17.319339 2 11.990234 2 z M 8.5 8 C 9.33 8 10 8.67 10 9.5 C 10 10.33 9.33 11 8.5 11 C 7.67 11 7 10.33 7 9.5 C 7 8.67 7.67 8 8.5 8 z M 15.5 8 C 16.33 8 17 8.67 17 9.5 C 17 10.33 16.33 11 15.5 11 C 14.67 11 14 10.33 14 9.5 C 14 8.67 14.67 8 15.5 8 z " />
  <path fill="#484848"
     d="m 19,15 h -2 c -0.55,0 -1,0.45 -1,1 v 0 c 0,0.55 0.45,1 1,1 h 2 v 2 c 0,0.55 0.45,1 1,1 v 0 c 0.55,0 1,-0.45 1,-1 v -2 h 2 c 0.55,0 1,-0.45 1,-1 v 0 c 0,-0.55 -0.45,-1 -1,-1 h -2 v -2 c 0,-0.55 -0.45,-1 -1,-1 v 0 c -0.55,0 -1,0.45 -1,1 z"
     id="path2"
     sodipodi:nodetypes="csssscsssscsssscssssc" />
</svg>
