<?xml version="1.0" encoding="UTF-8" standalone="no"?>
<svg
   height="24"
   viewBox="0 0 24 24"
   width="24"
   version="1.1"
   id="svg4"
   sodipodi:docname="media-repeat-playlist-amarok 2.svg"
   inkscape:version="1.1 (c68e22c387, 2021-05-23)"
   xmlns:inkscape="http://www.inkscape.org/namespaces/inkscape"
   xmlns:sodipodi="http://sodipodi.sourceforge.net/DTD/sodipodi-0.dtd"
   xmlns="http://www.w3.org/2000/svg"
   xmlns:svg="http://www.w3.org/2000/svg">
  <defs
     id="defs8" />
  <sodipodi:namedview
     id="namedview6"
     pagecolor="#ffffff"
     bordercolor="#666666"
     borderopacity="1.0"
     inkscape:pageshadow="2"
     inkscape:pageopacity="0.0"
     inkscape:pagecheckerboard="0"
     showgrid="false"
     inkscape:zoom="33.541667"
     inkscape:cx="2.1614907"
     inkscape:cy="11.418634"
     inkscape:window-width="1920"
     inkscape:window-height="1016"
     inkscape:window-x="0"
     inkscape:window-y="0"
     inkscape:window-maximized="1"
     inkscape:current-layer="svg4" />
  <path fill="#484848"
     id="path2"
     d="M 14.269531 2.7070312 C 14.163335 2.7169464 14.057891 2.7624219 13.970703 2.8496094 L 11.179688 5.640625 C 10.979688 5.840625 10.979688 6.1496094 11.179688 6.3496094 L 13.970703 9.140625 C 14.280703 9.460625 14.820312 9.2390625 14.820312 8.7890625 L 14.820312 7 L 17 7 L 17 15.171875 C 15.835117 15.583877 15 16.693993 15 18 C 15 19.65687 16.34313 21 18 21 C 19.656869 21 21 19.65687 21 18 C 21 16.693993 20.164883 15.583877 19 15.171875 L 19 6 C 19 5.45 18.55 5 18 5 L 14.820312 5 L 14.820312 3.2109375 C 14.820312 2.9296875 14.608887 2.7373044 14.375 2.7089844 C 14.339917 2.7047363 14.30493 2.7037262 14.269531 2.7070312 z M 6 3 C 4.34313 3 3 4.343131 3 6 C 3 7.3060074 3.835117 8.4161231 5 8.828125 L 5 14 L 5 15.171875 C 3.835117 15.583877 3 16.693992 3 18 C 3 19.656869 4.34313 21 6 21 C 7.656868 21 9 19.656869 9 18 C 9 16.693992 8.164883 15.583877 7 15.171875 L 7 13 L 7 9 L 7 8.828125 C 8.164883 8.4161231 9 7.3060074 9 6 C 9 4.343131 7.656869 3 6 3 z M 6 5 C 6.552302 5 7 5.447698 7 6 C 7 6.552303 6.552302 7 6 7 C 5.447697 7 5 6.552303 5 6 C 5 5.447698 5.447697 5 6 5 z M 6 17 C 6.552301 17 7 17.447697 7 18 C 7 18.552302 6.552301 19 6 19 C 5.447696 19 5 18.552302 5 18 C 5 17.447697 5.447696 17 6 17 z M 18 17 C 18.552302 17 19 17.447698 19 18 C 19 18.552303 18.552302 19 18 19 C 17.447697 19 17 18.552303 17 18 C 17 17.447698 17.447697 17 18 17 z " />
</svg>
