<?xml version="1.0" encoding="UTF-8" standalone="no"?>
<svg
   height="24"
   viewBox="0 0 24 24"
   width="24"
   version="1.1"
   id="svg4"
   sodipodi:docname="vcs-pull.svg"
   inkscape:version="1.1 (c68e22c387, 2021-05-23)"
   xmlns:inkscape="http://www.inkscape.org/namespaces/inkscape"
   xmlns:sodipodi="http://sodipodi.sourceforge.net/DTD/sodipodi-0.dtd"
   xmlns="http://www.w3.org/2000/svg"
   xmlns:svg="http://www.w3.org/2000/svg">
  <defs
     id="defs8" />
  <sodipodi:namedview
     id="namedview6"
     pagecolor="#ffffff"
     bordercolor="#666666"
     borderopacity="1.0"
     inkscape:pageshadow="2"
     inkscape:pageopacity="0.0"
     inkscape:pagecheckerboard="0"
     showgrid="false"
     inkscape:zoom="33.541667"
     inkscape:cx="12"
     inkscape:cy="12.014907"
     inkscape:window-width="1920"
     inkscape:window-height="1016"
     inkscape:window-x="0"
     inkscape:window-y="0"
     inkscape:window-maximized="1"
     inkscape:current-layer="svg4" />
  <path fill="#484848"
     d="M 14.79,13 H 13 V 4 C 13,3.45 12.55,3 12,3 11.45,3 11,3.45 11,4 v 9 H 9.21 c -0.45,0 -0.67,0.54 -0.35,0.85 l 2.79,2.79 c 0.2,0.2 0.51,0.2 0.71,0 l 2.79,-2.79 C 15.46,13.54 15.24,13 14.79,13 Z M 8,20 c 0,0.55 0.45,1 1,1 h 6 c 0.55,0 1,-0.45 1,-1 0,-0.55 -0.45,-1 -1,-1 H 9 c -0.55,0 -1,0.45 -1,1 z"
     id="path2"
     sodipodi:nodetypes="scssscscsssssssssss" />
</svg>
