<?xml version="1.0" encoding="UTF-8" standalone="no"?>
<svg
   xmlns:dc="http://purl.org/dc/elements/1.1/"
   xmlns:cc="http://creativecommons.org/ns#"
   xmlns:rdf="http://www.w3.org/1999/02/22-rdf-syntax-ns#"
   xmlns:svg="http://www.w3.org/2000/svg"
   xmlns="http://www.w3.org/2000/svg"
   xmlns:sodipodi="http://sodipodi.sourceforge.net/DTD/sodipodi-0.dtd"
   xmlns:inkscape="http://www.inkscape.org/namespaces/inkscape"
   version="1.1"
   id="mdi-calendar-edit"
   width="24"
   height="24"
   viewBox="0 0 24 24"
   sodipodi:docname="view-time-schedule-edit.svg"
   inkscape:version="1.0.2 (e86c870879, 2021-01-15)">
  <metadata
     id="metadata9">
    <rdf:RDF>
      <cc:Work
         rdf:about="">
        <dc:format>image/svg+xml</dc:format>
        <dc:type
           rdf:resource="http://purl.org/dc/dcmitype/StillImage" />
      </cc:Work>
    </rdf:RDF>
  </metadata>
  <defs
     id="defs7" />
  <sodipodi:namedview
     pagecolor="#ffffff"
     bordercolor="#666666"
     borderopacity="1"
     objecttolerance="10"
     gridtolerance="10"
     guidetolerance="10"
     inkscape:pageopacity="0"
     inkscape:pageshadow="2"
     inkscape:window-width="2068"
     inkscape:window-height="1031"
     id="namedview5"
     showgrid="false"
     inkscape:zoom="29.698485"
     inkscape:cx="12.931622"
     inkscape:cy="9.7653398"
     inkscape:window-x="1764"
     inkscape:window-y="1084"
     inkscape:window-maximized="0"
     inkscape:current-layer="mdi-calendar-edit" />
  <path fill="#484848"
     d="m 21.7,13.35 -1,1 -2.05,-2 1,-1 c 0.2,-0.21 0.54,-0.22 0.77,0 l 1.28,1.28 c 0.19,0.2 0.19,0.52 0,0.72 m -9.7,5.59 6.07,-6.06 2.05,2 L 14.06,21 H 12 Z"
     id="path2"
     sodipodi:nodetypes="ccccccccccccc" />
  <path fill="#484848"
     id="path2-3"
     d="m 7.0000003,1 c -0.55,0 -1,0.45 -1,1 v 1 h -1 c -1.1,0 -2,0.9 -2,2 v 14 c 0,1.1 0.9,2 2,2 h 1 3 C 9.5500003,21 10,20.55 10,20 10,19.45 9.5500003,19 9.0000003,19 h -3 c -0.55,0 -1,-0.45 -1,-1 V 8 H 19 v 0.5 c 0,0.55 0.45,1 1,1 0.55,0 1,-0.45 1,-1 V 7 C 21,6.985519 20.9928,6.973319 20.9922,6.958984 L 20.9902,5 c 0,-1.1 -0.880234,-2 -1.990234,-2 h -1 V 2 c 0,-0.55 -0.45,-1 -1,-1 -0.55,0 -1,0.45 -1,1 V 3 H 8.0000003 V 2 c 0,-0.55 -0.45,-1 -1,-1 z"
     sodipodi:nodetypes="sscsssscsssssccssssccscsssccss" />
</svg>
