<?xml version="1.0" encoding="UTF-8" standalone="no"?>
<svg
   xmlns:dc="http://purl.org/dc/elements/1.1/"
   xmlns:cc="http://creativecommons.org/ns#"
   xmlns:rdf="http://www.w3.org/1999/02/22-rdf-syntax-ns#"
   xmlns:svg="http://www.w3.org/2000/svg"
   xmlns="http://www.w3.org/2000/svg"
   xmlns:sodipodi="http://sodipodi.sourceforge.net/DTD/sodipodi-0.dtd"
   xmlns:inkscape="http://www.inkscape.org/namespaces/inkscape"
   version="1.1"
   width="24"
   height="24"
   viewBox="0 0 24 24"
   id="svg4"
   sodipodi:docname="calendar-year.svg"
   inkscape:version="1.0.2 (e86c870879, 2021-01-15)">
  <metadata
     id="metadata10">
    <rdf:RDF>
      <cc:Work
         rdf:about="">
        <dc:format>image/svg+xml</dc:format>
        <dc:type
           rdf:resource="http://purl.org/dc/dcmitype/StillImage" />
      </cc:Work>
    </rdf:RDF>
  </metadata>
  <defs
     id="defs8" />
  <sodipodi:namedview
     pagecolor="#ffffff"
     bordercolor="#666666"
     borderopacity="1"
     objecttolerance="10"
     gridtolerance="10"
     guidetolerance="10"
     inkscape:pageopacity="0"
     inkscape:pageshadow="2"
     inkscape:window-width="1908"
     inkscape:window-height="2080"
     id="namedview6"
     showgrid="false"
     inkscape:zoom="18.537944"
     inkscape:cx="-7.4627175"
     inkscape:cy="15.511498"
     inkscape:window-x="3848"
     inkscape:window-y="35"
     inkscape:window-maximized="0"
     inkscape:current-layer="svg4"
     inkscape:document-rotation="0" />
  <path fill="#484848"
     id="path2"
     d="M 9 1 C 8.45 1 8 1.45 8 2 L 8 3 L 7 3 C 5.89 3 5.0097656 3.9 5.0097656 5 L 5 17 C 5 18.1 5.89 19 7 19 L 21 19 C 22.1 19 23 18.1 23 17 L 23 5 C 23 3.9 22.1 3 21 3 L 20 3 L 20 2 C 20 1.45 19.55 1 19 1 C 18.45 1 18 1.45 18 2 L 18 3 L 10 3 L 10 2 C 10 1.45 9.55 1 9 1 z M 7 8 L 21 8 L 21 16 C 21 16.55 20.55 17 20 17 L 8 17 C 7.45 17 7 16.55 7 16 L 7 8 z M 2 9 C 1.45 9 1 9.45 1 10 L 1 12 L 1 18.5 L 1 20 L 1 21 C 1 21.1375 1.0142576 21.272461 1.0410156 21.402344 C 1.2008664 22.183515 1.8164856 22.799134 2.5976562 22.958984 C 2.7275384 22.985744 2.8625 23 3 23 L 16 23 C 16.1375 23 16.269141 22.972665 16.388672 22.921875 C 16.747266 22.769541 17 22.4125 17 22 C 17 21.45 16.55 21 16 21 L 4.5 21 L 4 21 C 3.45 21 3 20.55 3 20 L 3 18.5 L 3 10 C 3 9.45 2.55 9 2 9 z M 16 11 C 15.45 11 15 11.45 15 12 L 15 14 C 15 14.55 15.45 15 16 15 L 18 15 C 18.55 15 19 14.55 19 14 L 19 12 C 19 11.45 18.55 11 18 11 L 16 11 z " />
</svg>
