<?xml version="1.0" encoding="UTF-8" standalone="no"?>
<svg
   xmlns:dc="http://purl.org/dc/elements/1.1/"
   xmlns:cc="http://creativecommons.org/ns#"
   xmlns:rdf="http://www.w3.org/1999/02/22-rdf-syntax-ns#"
   xmlns:svg="http://www.w3.org/2000/svg"
   xmlns="http://www.w3.org/2000/svg"
   xmlns:sodipodi="http://sodipodi.sourceforge.net/DTD/sodipodi-0.dtd"
   xmlns:inkscape="http://www.inkscape.org/namespaces/inkscape"
   version="1.1"
   id="mdi-content-save-all"
   width="24"
   height="24"
   viewBox="0 0 24 24"
   sodipodi:docname="document-save-all.svg"
   inkscape:version="1.0.2 (e86c870879, 2021-01-15)">
  <metadata
     id="metadata9">
    <rdf:RDF>
      <cc:Work
         rdf:about="">
        <dc:format>image/svg+xml</dc:format>
        <dc:type
           rdf:resource="http://purl.org/dc/dcmitype/StillImage" />
      </cc:Work>
    </rdf:RDF>
  </metadata>
  <defs
     id="defs7" />
  <sodipodi:namedview
     pagecolor="#ffffff"
     bordercolor="#666666"
     borderopacity="1"
     objecttolerance="10"
     gridtolerance="10"
     guidetolerance="10"
     inkscape:pageopacity="0"
     inkscape:pageshadow="2"
     inkscape:window-width="2196"
     inkscape:window-height="1017"
     id="namedview5"
     showgrid="false"
     inkscape:zoom="21"
     inkscape:cx="22.892157"
     inkscape:cy="13.421623"
     inkscape:window-x="5476"
     inkscape:window-y="1097"
     inkscape:window-maximized="0"
     inkscape:current-layer="mdi-content-save-all" />
  <path fill="#484848"
     id="path2"
     d="M 7 1 C 5.8954305 1 5 1.8954305 5 3 L 5 17 C 5 18.1 5.89 19 7 19 L 21 19 C 22.104569 19 23 18.104569 23 17 L 23 5 L 19 1 L 7 1 z M 7 3 L 17 3 L 17 7 L 7 7 L 7 3 z M 2 7 C 1.4500001 7 1 7.45 1 8 L 1 10 L 1 18.5 L 1 21 C 1 21.1375 1.0142576 21.272461 1.0410156 21.402344 C 1.2008664 22.183515 1.8164855 22.799134 2.5976562 22.958984 C 2.7275387 22.985744 2.8625 23 3 23 L 16 23 C 16.1375 23 16.269141 22.972665 16.388672 22.921875 C 16.747266 22.769536 17 22.4125 17 22 C 17 21.45 16.55 21 16 21 L 4.5 21 L 4 21 C 3.45 21 3 20.55 3 20 L 3 8 C 3 7.45 2.55 7 2 7 z M 14 11 C 15.656854 11 17 12.343146 17 14 C 17 15.656854 15.656854 17 14 17 C 12.343146 17 11 15.656854 11 14 C 11 12.343146 12.343146 11 14 11 z " />
</svg>
