<?xml version="1.0" encoding="UTF-8" standalone="no"?>
<svg
   xmlns:dc="http://purl.org/dc/elements/1.1/"
   xmlns:cc="http://creativecommons.org/ns#"
   xmlns:rdf="http://www.w3.org/1999/02/22-rdf-syntax-ns#"
   xmlns:svg="http://www.w3.org/2000/svg"
   xmlns="http://www.w3.org/2000/svg"
   xmlns:sodipodi="http://sodipodi.sourceforge.net/DTD/sodipodi-0.dtd"
   xmlns:inkscape="http://www.inkscape.org/namespaces/inkscape"
   height="24"
   viewBox="0 0 24 24"
   width="24"
   version="1.1"
   id="svg4"
   sodipodi:docname="gnumeric-format-border-bottom-symbolic (copy).svg"
   inkscape:version="1.0.1 (3bc2e813f5, 2020-09-07)">
  <metadata
     id="metadata10">
    <rdf:RDF>
      <cc:Work
         rdf:about="">
        <dc:format>image/svg+xml</dc:format>
        <dc:type
           rdf:resource="http://purl.org/dc/dcmitype/StillImage" />
      </cc:Work>
    </rdf:RDF>
  </metadata>
  <defs
     id="defs8" />
  <sodipodi:namedview
     pagecolor="#ffffff"
     bordercolor="#666666"
     borderopacity="1"
     objecttolerance="10"
     gridtolerance="10"
     guidetolerance="10"
     inkscape:pageopacity="0"
     inkscape:pageshadow="2"
     inkscape:window-width="950"
     inkscape:window-height="1022"
     id="namedview6"
     showgrid="false"
     inkscape:zoom="14.08321"
     inkscape:cx="14.768981"
     inkscape:cy="-2.3750861"
     inkscape:window-x="1924"
     inkscape:window-y="35"
     inkscape:window-maximized="0"
     inkscape:current-layer="svg4" />
  <path fill="#484848"
     d="M 9,11 H 7 v 2 h 2 z m 4,4 h -2 v 2 h 2 z m 0,-4 h -2 v 2 h 2 z m 0,-4 h -2 v 2 h 2 z m 4,4 h -2 v 2 h 2 z m 2,2 h 2 v -2 h -2 z m 0,4 h 2 V 15 H 19 Z M 5,7 H 3 v 2 h 2 z m 14,2 h 2 V 7 H 19 Z M 5,11 H 3 v 2 H 5 Z M 4,21 h 16 c 0.55,0 1,-0.45 1,-1 0,-0.55 -0.45,-1 -1,-1 H 4 c -0.55,0 -1,0.45 -1,1 0,0.55 0.45,1 1,1 z M 5,15 H 3 v 2 h 2 z"
     id="path2"
     sodipodi:nodetypes="ccccccccccccccccccccccccccccccccccccccccccccccccccsssssssccccc" />
  <path fill="#484848"
     d="M 4,5 H 20 C 20.55,5 21,4.55 21,4 21,3.45 20.55,3 20,3 H 4 C 3.45,3 3,3.45 3,4 3,4.55 3.45,5 4,5 Z"
     id="path2-3"
     sodipodi:nodetypes="sssssss" />
</svg>
