<?xml version="1.0" encoding="UTF-8" standalone="no"?>
<svg
   xmlns:dc="http://purl.org/dc/elements/1.1/"
   xmlns:cc="http://creativecommons.org/ns#"
   xmlns:rdf="http://www.w3.org/1999/02/22-rdf-syntax-ns#"
   xmlns:svg="http://www.w3.org/2000/svg"
   xmlns="http://www.w3.org/2000/svg"
   xmlns:sodipodi="http://sodipodi.sourceforge.net/DTD/sodipodi-0.dtd"
   xmlns:inkscape="http://www.inkscape.org/namespaces/inkscape"
   height="24"
   viewBox="0 0 24 24"
   width="24"
   version="1.1"
   id="svg4"
   sodipodi:docname="hb-view-column (copy).svg"
   inkscape:version="1.0.2 (e86c870879, 2021-01-15)">
  <metadata
     id="metadata10">
    <rdf:RDF>
      <cc:Work
         rdf:about="">
        <dc:format>image/svg+xml</dc:format>
        <dc:type
           rdf:resource="http://purl.org/dc/dcmitype/StillImage" />
      </cc:Work>
    </rdf:RDF>
  </metadata>
  <defs
     id="defs8" />
  <sodipodi:namedview
     pagecolor="#ffffff"
     bordercolor="#666666"
     borderopacity="1"
     objecttolerance="10"
     gridtolerance="10"
     guidetolerance="10"
     inkscape:pageopacity="0"
     inkscape:pageshadow="2"
     inkscape:window-width="979"
     inkscape:window-height="477"
     id="namedview6"
     showgrid="false"
     inkscape:zoom="5.8704594"
     inkscape:cx="11.474627"
     inkscape:cy="10.708891"
     inkscape:window-x="26"
     inkscape:window-y="23"
     inkscape:window-maximized="0"
     inkscape:current-layer="svg4" />
  <path fill="#484848"
     d="M 14.8,6.4 V 6.6 C 14.8,7.37 14.17,8 13.4,8 h -7 C 5.63,8 5,7.37 5,6.6 V 6.4 C 5,5.63 5.63,5 6.4,5 h 7 c 0.77,0 1.4,0.63 1.4,1.4 z M 19,12 c 0,0.77 -0.63,1.4 -1.4,1.4 H 6.4 C 5.63,13.4 5,12.77 5,12 5,11.23 5.63,10.6 6.4,10.6 h 11.2 c 0.77,0 1.4,0.63 1.4,1.4 z m -8,5.6 C 11,18.37 10.37,19 9.6,19 H 6.4 C 5.63,19 5,18.37 5,17.6 5,16.83 5.63,16.2 6.4,16.2 h 3.2 c 0.77,0 1.4,0.63 1.4,1.4 z"
     id="path2" />
</svg>
