<?xml version="1.0" encoding="UTF-8" standalone="no"?>
<svg
   enable-background="new 0 0 24 24"
   height="24"
   viewBox="0 0 24 24"
   width="24"
   version="1.1"
   id="svg8"
   sodipodi:docname="wolfram 2.svg"
   inkscape:version="1.1 (c68e22c387, 2021-05-23)"
   xmlns:inkscape="http://www.inkscape.org/namespaces/inkscape"
   xmlns:sodipodi="http://sodipodi.sourceforge.net/DTD/sodipodi-0.dtd"
   xmlns="http://www.w3.org/2000/svg"
   xmlns:svg="http://www.w3.org/2000/svg">
  <defs
     id="defs12" />
  <sodipodi:namedview
     id="namedview10"
     pagecolor="#ffffff"
     bordercolor="#666666"
     borderopacity="1.0"
     inkscape:pageshadow="2"
     inkscape:pageopacity="0.0"
     inkscape:pagecheckerboard="0"
     showgrid="false"
     inkscape:zoom="16"
     inkscape:cx="3.21875"
     inkscape:cy="14.46875"
     inkscape:window-width="1908"
     inkscape:window-height="1017"
     inkscape:window-x="3848"
     inkscape:window-y="1097"
     inkscape:window-maximized="0"
     inkscape:current-layer="svg8" />
  <g
     id="g2" />
  <path fill="#484848"
     inkscape:connector-curvature="0"
     d="m 12.000003,2.9999995 c -0.302132,6.61e-4 -0.604264,0.01671 -0.90511,0.04757 -0.286061,0.02893 -0.568265,0.072 -0.845326,0.126638 -0.01286,0.0019 -0.02507,0.0039 -0.03728,0.0052 -0.260991,0.05335 -0.515554,0.122137 -0.768187,0.19735 -0.03536,0.009 -0.07135,0.01864 -0.107353,0.02764 -0.284133,0.08871 -0.563123,0.188994 -0.834398,0.304704 -0.268706,0.113139 -0.531624,0.240421 -0.787472,0.379272 -0.508482,0.276418 -0.988679,0.601693 -1.434805,0.970679 -0.222422,0.183208 -0.435843,0.377344 -0.63962,0.581765 -0.194136,0.194778 -0.379915,0.397915 -0.55541,0.609406 -0.01029,0.01286 -0.02121,0.02443 -0.0315,0.03728 -0.142066,0.175494 -0.277704,0.356773 -0.406271,0.543195 -0.04564,0.06428 -0.09321,0.127281 -0.136923,0.193493 -0.09771,0.149137 -0.190922,0.301489 -0.279634,0.457056 -0.06235,0.106709 -0.126637,0.212134 -0.184494,0.321416 -0.072,0.139495 -0.140779,0.280275 -0.205705,0.423628 -0.06043,0.129209 -0.119567,0.259061 -0.174209,0.392129 -0.05335,0.135637 -0.104138,0.272561 -0.151065,0.41077 -0.05078,0.145923 -0.102211,0.291204 -0.145925,0.439699 -0.03664,0.130495 -0.07071,0.261633 -0.101567,0.394056 -0.03857,0.1562085 -0.07714,0.3130605 -0.107352,0.4724825 -0.027,0.151066 -0.0495,0.302775 -0.06878,0.455127 -0.01928,0.141423 -0.03857,0.282204 -0.05078,0.425556 -0.02507,0.260348 -0.03857,0.521981 -0.0405,0.784257 6.61e-4,0.302133 0.01671,0.604264 0.04757,0.905111 0.154922,1.537659 0.699404,2.962178 1.532516,4.174563 0.0077,0.01093 0.01543,0.0225 0.02314,0.03343 0.06428,0.09257 0.130494,0.183851 0.198635,0.273848 0,-0.0026 0.0013,-0.0058 0.0019,-0.0084 1.643083,2.192063 4.253632,3.621084 7.195883,3.621084 1.69001,0 3.268167,-0.477626 4.621333,-1.292098 l 0.0013,0.0019 c 0.01864,-0.01221 0.03664,-0.02507 0.05464,-0.03728 0.214706,-0.131139 0.423627,-0.269991 0.626119,-0.418485 0.04628,-0.03407 0.09257,-0.06878 0.138854,-0.103496 0.177422,-0.135639 0.349701,-0.277062 0.516838,-0.425557 0.0675,-0.06043 0.134353,-0.122138 0.199921,-0.184493 0.139495,-0.131139 0.273847,-0.266132 0.404343,-0.405629 0.07778,-0.08292 0.154279,-0.166494 0.228849,-0.251347 0.122782,-0.141423 0.239134,-0.287347 0.352916,-0.436484 0.06235,-0.08036 0.123424,-0.161352 0.183208,-0.244277 0.119567,-0.16778 0.230777,-0.340703 0.338773,-0.516839 0.045,-0.07135 0.08935,-0.143353 0.131781,-0.215992 0.107353,-0.185779 0.205064,-0.377343 0.298917,-0.57148 0.03729,-0.07393 0.07264,-0.147852 0.107354,-0.223063 0.08421,-0.186422 0.158779,-0.377987 0.230134,-0.57148 0.03536,-0.09128 0.06878,-0.183208 0.100281,-0.275775 0.06236,-0.186422 0.115712,-0.376059 0.16521,-0.567622 0.02636,-0.09643 0.05078,-0.192852 0.07392,-0.289918 0.0405,-0.18128 0.07264,-0.365131 0.102211,-0.550268 0.02057,-0.121494 0.03857,-0.243632 0.054,-0.365771 0.01864,-0.158138 0.02893,-0.318845 0.03921,-0.479555 0.01607,-0.191563 0.02571,-0.383128 0.02957,-0.574693 0,-0.304061 -0.01607,-0.602978 -0.04564,-0.898682 l -0.0019,-0.0071 c -0.02893,-0.286061 -0.07135,-0.567621 -0.126638,-0.845327 -0.0026,-0.01221 -0.0026,-0.02507 -0.0051,-0.03664 -0.05271,-0.2609895 -0.122139,-0.5161945 -0.196708,-0.7681855 -0.01029,-0.03407 -0.01607,-0.07007 -0.02636,-0.10414 l -0.0039,-0.01221 c -0.08743,-0.281561 -0.18835,-0.556693 -0.302131,-0.826041 -0.113783,-0.268704 -0.240421,-0.530981 -0.379915,-0.787471 -0.276419,-0.50784 -0.601051,-0.988679 -0.970038,-1.434163 -0.183849,-0.222421 -0.377986,-0.435841 -0.581764,-0.63962 -0.194778,-0.194778 -0.398557,-0.379914 -0.61005,-0.556052 -0.01028,-0.0084 -0.01993,-0.01736 -0.03021,-0.02636 -0.0019,-0.0013 -0.0045,-0.0032 -0.0064,-0.0051 -0.176137,-0.142066 -0.357416,-0.277703 -0.543194,-0.405627 -0.06493,-0.04564 -0.127925,-0.09321 -0.193494,-0.137566 -0.149779,-0.09771 -0.302131,-0.190923 -0.457055,-0.278991 -0.106709,-0.063 -0.212135,-0.126637 -0.321416,-0.185136 -0.139496,-0.072 -0.28092,-0.140781 -0.423629,-0.205707 -0.129852,-0.05978 -0.259704,-0.119567 -0.392128,-0.173564 -0.135638,-0.054 -0.273204,-0.10414 -0.411413,-0.151066 -0.145281,-0.05143 -0.290562,-0.102211 -0.439056,-0.145924 -0.130495,-0.03728 -0.262276,-0.07135 -0.394058,-0.102211 -0.156851,-0.03857 -0.31306,-0.07714 -0.473126,-0.107353 -0.151065,-0.02635 -0.302774,-0.0495 -0.455126,-0.06814 -0.141423,-0.01928 -0.282204,-0.03857 -0.424912,-0.05143 -0.260991,-0.02443 -0.522624,-0.03793 -0.784257,-0.0405 z m -1.367308,1.299168 1.215599,2.854826 2.080211,-1.766508 v 4.9356775 l 4.821255,3.926431 -1.481733,0.985464 -4.118637,-0.04178 2.306489,3.127387 c -1.025321,0.559908 -2.201707,0.878755 -3.455876,0.878755 -3.000106,0 -5.559871,-1.819221 -6.644332,-4.418842 0.567623,-2.192707 1.41552,-4.310202 2.629835,-5.4910875 0.518123,-1.906002 1.528659,-3.484159 2.647189,-4.990319 z m 1.431591,6.8005405 6.61e-4,0.766901 1.735009,0.133065 c -0.223064,-0.539338 -0.708403,-0.787471 -1.735652,-0.899966 z"
     style="clip-rule:evenodd;fill:#484848;fill-opacity:1;fill-rule:nonzero;stroke-width:0.642834;stroke-linejoin:round;stroke-miterlimit:2"
     id="path4-3" />
</svg>
