<?xml version="1.0" encoding="UTF-8" standalone="no"?>
<svg
   enable-background="new 0 0 24 24"
   height="24px"
   viewBox="0 0 24 24"
   width="24px"
   
   version="1.1"
   id="svg14"
   sodipodi:docname="mail-archive.svg"
   inkscape:version="1.1 (c68e22c387, 2021-05-23)"
   xmlns:inkscape="http://www.inkscape.org/namespaces/inkscape"
   xmlns:sodipodi="http://sodipodi.sourceforge.net/DTD/sodipodi-0.dtd"
   xmlns="http://www.w3.org/2000/svg"
   xmlns:svg="http://www.w3.org/2000/svg">
  <defs
     id="defs18" />
  <sodipodi:namedview
     id="namedview16"
     pagecolor="#ffffff"
     bordercolor="#666666"
     borderopacity="1.0"
     inkscape:pageshadow="2"
     inkscape:pageopacity="0.0"
     inkscape:pagecheckerboard="0"
     showgrid="false"
     inkscape:zoom="18.264512"
     inkscape:cx="3.4219364"
     inkscape:cy="7.6651376"
     inkscape:window-width="1904"
     inkscape:window-height="1000"
     inkscape:window-x="26"
     inkscape:window-y="23"
     inkscape:window-maximized="0"
     inkscape:current-layer="svg14" />
  <path fill="#484848"
     id="path6"
     d="M 4 2 C 3 2 2 2.9 2 4 L 2 7.0097656 C 2 7.7297656 2.43 8.3492188 3 8.6992188 L 3 20 C 3 21.1 4.1 22 5 22 L 19 22 C 19.9 22 21 21.1 21 20 L 21 8.6992188 C 21.57 8.3492188 22 7.7297656 22 7.0097656 L 22 4 C 22 2.9 21 2 20 2 L 4 2 z M 5 4 L 19 4 C 19.55 4 20 4.45 20 5 L 20 6 C 20 6.55 19.55 7 19 7 L 5 7 C 4.45 7 4 6.55 4 6 L 4 5 C 4 4.45 4.45 4 5 4 z M 5 9 L 19 9 L 19 19 C 19 19.55 18.55 20 18 20 L 6 20 C 5.45 20 5 19.55 5 19 L 5 9 z M 10 12 C 9.45 12 9 12.45 9 13 C 9 13.55 9.45 14 10 14 L 14 14 C 14.55 14 15 13.55 15 13 C 15 12.45 14.55 12 14 12 L 10 12 z " />
</svg>
