<?xml version="1.0" encoding="UTF-8" standalone="no"?>
<svg
   height="24"
   viewBox="0 0 24 24"
   width="24"
   version="1.1"
   id="svg4"
   sodipodi:docname="gps-markers-many.svg"
   inkscape:version="1.1 (c68e22c387, 2021-05-23)"
   xmlns:inkscape="http://www.inkscape.org/namespaces/inkscape"
   xmlns:sodipodi="http://sodipodi.sourceforge.net/DTD/sodipodi-0.dtd"
   xmlns="http://www.w3.org/2000/svg"
   xmlns:svg="http://www.w3.org/2000/svg">
  <defs
     id="defs8" />
  <sodipodi:namedview
     id="namedview6"
     pagecolor="#ffffff"
     bordercolor="#666666"
     borderopacity="1.0"
     inkscape:pageshadow="2"
     inkscape:pageopacity="0.0"
     inkscape:pagecheckerboard="0"
     showgrid="false"
     inkscape:zoom="13.149704"
     inkscape:cx="11.255006"
     inkscape:cy="1.5209468"
     inkscape:window-width="976"
     inkscape:window-height="1008"
     inkscape:window-x="45"
     inkscape:window-y="29"
     inkscape:window-maximized="0"
     inkscape:current-layer="svg4" />
  <path fill="#484848"
     d="M12 2C8.13 2 5 5.13 5 9c0 4.17 4.42 9.92 6.24 12.11.4.48 1.13.48 1.53 0C14.58 18.92 19 13.17 19 9c0-3.87-3.13-7-7-7zm0 9.5c-1.38 0-2.5-1.12-2.5-2.5s1.12-2.5 2.5-2.5 2.5 1.12 2.5 2.5-1.12 2.5-2.5 2.5z"
     id="path2"
     style="fill:#484848;fill-opacity:1" />
  <g
     id="path2-7"
     style="fill:#484848;fill-opacity:1">
    <path fill="#484848"
       style="color:#000000;fill:#484848;stroke-width:4;-inkscape-stroke:none;fill-opacity:1"
       d="M 12,1.9999996 C 8.1300003,1.9999996 5.0000002,5.13 5.0000002,9 c 0,4.17 4.42,9.92 6.2399998,12.11 0.4,0.48 1.13,0.48 1.53,0 C 14.58,18.92 19,13.17 19,9 19,5.13 15.87,1.9999996 12,1.9999996 Z M 12,11.5 C 10.62,11.5 9.5000002,10.38 9.5000002,9 9.5000002,7.62 10.62,6.5 12,6.5 c 1.38,0 2.5,1.12 2.5,2.5 0,1.38 -1.12,2.5 -2.5,2.5 z"
       id="path1059" />
    <path fill="#484848"
       style="color:#000000;fill:#484848;stroke-width:4;-inkscape-stroke:none;fill-opacity:1"
       d="M 12,1.9999999 C 8.1300004,1.9999999 5.0000003,5.13 5.0000003,9 c 0,4.17 4.42,9.92 6.2399997,12.11 0.4,0.48 1.13,0.48 1.53,0 C 14.58,18.92 19,13.17 19,9 19,5.13 15.87,1.9999999 12,1.9999999 Z M 12,11.5 C 10.62,11.5 9.5000003,10.38 9.5000003,9 9.5000003,7.62 10.62,6.5 12,6.5 c 1.38,0 2.5,1.12 2.5,2.5 0,1.38 -1.12,2.5 -2.5,2.5 z"
       id="path1059-5" />
  </g>
  <path fill="#484848"
     id="path1059-6"
     style="color:#000000;fill:#484848;stroke-width:4;-inkscape-stroke:none;fill-opacity:1"
     d="M 17.064541,18.726568 20.574219,6.2734375 Z M 20.574219,6.2734375 C 20.850249,7.1345732 21,8.0505532 21,9 c 0,2.791632 -1.303273,5.448294 -2.71875,7.822266 -0.397114,0.665959 -0.808112,1.302549 -1.216797,1.904296 0.137802,0.172027 0.279556,0.35033 0.392578,0.486329 0.285714,0.342857 0.808036,0.342857 1.09375,0 C 19.843638,17.648605 23,13.541071 23,10.5625 23,8.7402602 22.02827,7.1472577 20.574219,6.2734375 Z"
     sodipodi:nodetypes="ccccsccccsc" />
  <path fill="#484848"
     id="path1059-6-1"
     style="color:#000000;fill:#484848;stroke-width:4;-inkscape-stroke:none;fill-opacity:1"
     d="M 6.941406,18.728516 3.431728,6.2753852 Z M 3.431728,6.2753852 c -0.27603,0.861136 -0.425781,1.777116 -0.425781,2.726563 0,2.7916318 1.303273,5.4482938 2.71875,7.8222658 0.397114,0.665959 0.808112,1.302549 1.216797,1.904296 -0.137802,0.172027 -0.279556,0.35033 -0.392578,0.486329 -0.285714,0.342857 -0.808036,0.342857 -1.09375,0 -1.292857,-1.564286 -4.449219,-5.67182 -4.449219,-8.650391 0,-1.8222398 0.97173,-3.4152428 2.425781,-4.2890628 z"
     sodipodi:nodetypes="ccccsccccsc" />
</svg>
