<?xml version="1.0" encoding="UTF-8" standalone="no"?>
<svg
   xmlns:dc="http://purl.org/dc/elements/1.1/"
   xmlns:cc="http://creativecommons.org/ns#"
   xmlns:rdf="http://www.w3.org/1999/02/22-rdf-syntax-ns#"
   xmlns:svg="http://www.w3.org/2000/svg"
   xmlns="http://www.w3.org/2000/svg"
   xmlns:sodipodi="http://sodipodi.sourceforge.net/DTD/sodipodi-0.dtd"
   xmlns:inkscape="http://www.inkscape.org/namespaces/inkscape"
   version="1.1"
   id="mdi-gesture-two-tap"
   width="24"
   height="24"
   viewBox="0 0 24 24"
   sodipodi:docname="gesture-two-tap.svg"
   inkscape:version="1.0.2 (e86c870879, 2021-01-15)">
  <metadata
     id="metadata9">
    <rdf:RDF>
      <cc:Work
         rdf:about="">
        <dc:format>image/svg+xml</dc:format>
        <dc:type
           rdf:resource="http://purl.org/dc/dcmitype/StillImage" />
      </cc:Work>
    </rdf:RDF>
  </metadata>
  <defs
     id="defs7" />
  <sodipodi:namedview
     pagecolor="#ffffff"
     bordercolor="#666666"
     borderopacity="1"
     objecttolerance="10"
     gridtolerance="10"
     guidetolerance="10"
     inkscape:pageopacity="0"
     inkscape:pageshadow="2"
     inkscape:window-width="1908"
     inkscape:window-height="1031"
     id="namedview5"
     showgrid="false"
     inkscape:zoom="29.698485"
     inkscape:cx="13.365294"
     inkscape:cy="11.921329"
     inkscape:window-x="8"
     inkscape:window-y="33"
     inkscape:window-maximized="0"
     inkscape:current-layer="mdi-gesture-two-tap" />
  <path fill="#484848"
     id="path2"
     d="M 6.1855469 1.0078125 C 6.0913281 1.024375 5.999375 1.0684375 5.921875 1.1484375 L 3.1425781 3.9394531 C 2.9525781 4.1394531 2.9525781 4.4484375 3.1425781 4.6484375 L 5.921875 7.4394531 C 6.231875 7.7594531 6.7734375 7.5398438 6.7734375 7.0898438 L 6.7734375 5.2988281 L 11 5.2988281 C 11.55 5.2988281 12 4.8488281 12 4.2988281 C 12 3.7488281 11.55 3.2988281 11 3.2988281 L 6.7734375 3.2988281 L 6.7734375 1.5 C 6.7734375 1.17 6.4682031 0.958125 6.1855469 1.0078125 z M 13 6 C 12.447715 6 12 6.4477153 12 7 L 12 9 C 12 8.4477153 11.552285 8 11 8 C 10.447715 8 10 8.4477153 10 9 L 10 19 L 6.8007812 17.279297 L 6.5800781 17.279297 C 6.3000781 17.279297 6.0298438 17.389609 5.8398438 17.599609 L 5.0996094 18.369141 L 10 22.570312 C 10.26 22.850312 10.62 23 11 23 L 17.5 23 C 18.32 22.97 18.97 22.32 19 21.5 L 19 15.140625 C 19 14.580625 18.660391 14.069844 18.150391 13.839844 L 16 12.886719 L 16 8.5234375 C 16 7.9711528 15.552285 7.5234375 15 7.5234375 C 14.447715 7.5234375 14 7.9711528 14 8.5234375 L 14 7 C 14 6.4477153 13.552285 6 13 6 z " />
</svg>
