<?xml version="1.0" encoding="UTF-8" standalone="no"?>
<svg
   xmlns:dc="http://purl.org/dc/elements/1.1/"
   xmlns:cc="http://creativecommons.org/ns#"
   xmlns:rdf="http://www.w3.org/1999/02/22-rdf-syntax-ns#"
   xmlns:svg="http://www.w3.org/2000/svg"
   xmlns="http://www.w3.org/2000/svg"
   xmlns:sodipodi="http://sodipodi.sourceforge.net/DTD/sodipodi-0.dtd"
   xmlns:inkscape="http://www.inkscape.org/namespaces/inkscape"
   version="1.1"
   id="mdi-layers-outline"
   width="24"
   height="24"
   viewBox="0 0 24 24"
   sodipodi:docname="selection-move-to-layer.svg"
   inkscape:version="1.0.2 (e86c870879, 2021-01-15)">
  <metadata
     id="metadata9">
    <rdf:RDF>
      <cc:Work
         rdf:about="">
        <dc:format>image/svg+xml</dc:format>
        <dc:type
           rdf:resource="http://purl.org/dc/dcmitype/StillImage" />
      </cc:Work>
    </rdf:RDF>
  </metadata>
  <defs
     id="defs7" />
  <sodipodi:namedview
     pagecolor="#ffffff"
     bordercolor="#666666"
     borderopacity="1"
     objecttolerance="10"
     gridtolerance="10"
     guidetolerance="10"
     inkscape:pageopacity="0"
     inkscape:pageshadow="2"
     inkscape:window-width="1524"
     inkscape:window-height="1017"
     id="namedview5"
     showgrid="false"
     inkscape:zoom="21"
     inkscape:cx="9.963858"
     inkscape:cy="16.699786"
     inkscape:window-x="3848"
     inkscape:window-y="1097"
     inkscape:window-maximized="0"
     inkscape:current-layer="mdi-layers-outline" />
  <path fill="#484848"
     id="path2"
     d="M 12.007812 2.5 C 11.666216 2.5 11.325923 2.5900091 11.017578 2.7636719 L 3.9179688 8.2871094 C 3.514357 8.7055995 3.5429044 9.39877 4.015625 9.7695312 L 10.775391 15.029297 C 11.495391 15.589297 12.514375 15.589531 13.234375 15.019531 L 19.994141 9.7597656 C 20.438415 9.411315 20.49578 8.7743389 20.166016 8.3515625 L 12.939453 2.7304688 C 12.649119 2.5776687 12.328234 2.5 12.007812 2.5 z M 12 4.5292969 L 17.740234 9 L 12 13.470703 L 6.2597656 9 L 12 4.5292969 z M 19.365234 13.039062 C 19.195055 13.039062 19.029775 13.095881 18.876953 13.183594 L 12 18.539062 L 5.1347656 13.210938 C 4.8229901 13.016638 4.4415002 13.012528 4.125 13.195312 L 3.8730469 13.390625 C 3.5041016 13.810476 3.5461889 14.469552 4.0058594 14.830078 L 10.765625 20.089844 C 11.485625 20.649844 12.494609 20.649844 13.224609 20.089844 L 19.984375 14.830078 C 20.458212 14.458441 20.486717 13.770447 20.080078 13.353516 L 19.880859 13.199219 C 19.721137 13.100656 19.545632 13.039062 19.365234 13.039062 z " />
</svg>
