<?xml version="1.0" encoding="UTF-8" standalone="no"?>
<svg
   enable-background="new 0 0 24 24"
   height="24px"
   viewBox="0 0 24 24"
   width="24px"
   
   version="1.1"
   id="svg8"
   sodipodi:docname="slideshow-emblem.svg"
   inkscape:version="1.1 (c68e22c387, 2021-05-23)"
   xmlns:inkscape="http://www.inkscape.org/namespaces/inkscape"
   xmlns:sodipodi="http://sodipodi.sourceforge.net/DTD/sodipodi-0.dtd"
   xmlns="http://www.w3.org/2000/svg"
   xmlns:svg="http://www.w3.org/2000/svg">
  <defs
     id="defs12" />
  <sodipodi:namedview
     id="namedview10"
     pagecolor="#ffffff"
     bordercolor="#666666"
     borderopacity="1.0"
     inkscape:pageshadow="2"
     inkscape:pageopacity="0.0"
     inkscape:pagecheckerboard="0"
     showgrid="false"
     inkscape:zoom="18.729167"
     inkscape:cx="2.3492769"
     inkscape:cy="13.241379"
     inkscape:window-width="1920"
     inkscape:window-height="1080"
     inkscape:window-x="0"
     inkscape:window-y="0"
     inkscape:window-maximized="0"
     inkscape:current-layer="svg8" />
  <path fill="#484848"
     d="M 12,2 C 6.48,2 2,6.48 2,12 2,17.52 6.48,22 12,22 17.52,22 22,17.52 22,12 22,6.48 17.52,2 12,2 Z m -1,13 c 0,0.55 -0.45,1 -1,1 C 9.45,16 9,15.55 9,15 V 8.9999999 c 0,-0.5500001 0.45,-1.0000001 1,-1.0000001 0.55,0 1,0.45 1,1.0000001 z m 5.02,-2.22 -2.4,1.92 C 12.97,15.22 12,14.76 12,13.92 V 10.08 C 12,9.2399999 12.97,8.7799998 13.62,9.2999998 L 16.02,11.22 c 0.5,0.4 0.5,1.16 0,1.56 z"
     id="path892"
     style="fill:#484848;fill-opacity:1" />
</svg>
