<?xml version="1.0" encoding="UTF-8" standalone="no"?>
<svg
   xmlns:dc="http://purl.org/dc/elements/1.1/"
   xmlns:cc="http://creativecommons.org/ns#"
   xmlns:rdf="http://www.w3.org/1999/02/22-rdf-syntax-ns#"
   xmlns:svg="http://www.w3.org/2000/svg"
   xmlns="http://www.w3.org/2000/svg"
   xmlns:sodipodi="http://sodipodi.sourceforge.net/DTD/sodipodi-0.dtd"
   xmlns:inkscape="http://www.inkscape.org/namespaces/inkscape"
   version="1.1"
   id="mdi-contain"
   width="24"
   height="24"
   viewBox="0 0 24 24"
   sodipodi:docname="contain.svg"
   inkscape:version="1.0.2 (e86c870879, 2021-01-15)">
  <metadata
     id="metadata9">
    <rdf:RDF>
      <cc:Work
         rdf:about="">
        <dc:format>image/svg+xml</dc:format>
        <dc:type
           rdf:resource="http://purl.org/dc/dcmitype/StillImage" />
      </cc:Work>
    </rdf:RDF>
  </metadata>
  <defs
     id="defs7" />
  <sodipodi:namedview
     pagecolor="#ffffff"
     bordercolor="#666666"
     borderopacity="1"
     objecttolerance="10"
     gridtolerance="10"
     guidetolerance="10"
     inkscape:pageopacity="0"
     inkscape:pageshadow="2"
     inkscape:window-width="1908"
     inkscape:window-height="1031"
     id="namedview5"
     showgrid="false"
     inkscape:zoom="29.698485"
     inkscape:cx="12.836523"
     inkscape:cy="12.539258"
     inkscape:window-x="8"
     inkscape:window-y="1109"
     inkscape:window-maximized="0"
     inkscape:current-layer="mdi-contain" />
  <path fill="#484848"
     id="path2"
     d="M 2,4.7979695 V 21 H 8 V 19 H 4 V 5 H 4.578125 L 2.5761719,4.7979695 Z M 5.3984375,3 C 6.0291081,3.6302914 6.7098192,4.3099439 7.4003906,5 H 8 V 3 Z M 16,3 v 2 h 4 v 12.587891 c 0.60824,0.607701 1.47764,1.47805 2,2 V 3 Z M 7,15 v 2 h 2 v -2 z m 4,0 v 2 h 2 v -2 z m 4,0.412109 V 17 h 1.589844 z M 16,19 v 2 h 4.591797 l -2,-2 z"
     sodipodi:nodetypes="cccccccccccccccccccccccccccccccccccccccc" />
  <path fill="#484848"
     id="path2-3"
     d="m 2.4140625,3.2265625 c -0.255,0 -0.508125,0.097969 -0.703125,0.2929687 -0.39,0.3900001 -0.39,1.0201563 0,1.4101563 2.6248857,2.6230847 5.7312293,5.7293845 8.6816405,8.6777345 2.94835,2.950411 6.05465,6.056755 8.677734,8.68164 0.390001,0.390001 1.020157,0.390001 1.410157,0 0.39,-0.39 0.39,-1.018203 0,-1.408203 L 18.507812,18.90625 c -0.0073,-0.0078 -0.01,-0.01779 -0.01758,-0.02539 l -6.6875,-6.683593 -6.6835934,-6.6875004 c -0.0076,-0.0076 -0.01761,-0.010272 -0.025391,-0.017578 L 3.1191406,3.5195312 c -0.195,-0.195 -0.4500781,-0.2929687 -0.7050781,-0.2929687 z" />
</svg>
