<?xml version="1.0" encoding="UTF-8" standalone="no"?>
<svg
   height="24"
   viewBox="0 0 24 24"
   width="24"
   version="1.1"
   id="svg4"
   sodipodi:docname="media-repeat-playlist-amarok.svg"
   inkscape:version="1.1 (c68e22c387, 2021-05-23)"
   xmlns:inkscape="http://www.inkscape.org/namespaces/inkscape"
   xmlns:sodipodi="http://sodipodi.sourceforge.net/DTD/sodipodi-0.dtd"
   xmlns="http://www.w3.org/2000/svg"
   xmlns:svg="http://www.w3.org/2000/svg">
  <defs
     id="defs8" />
  <sodipodi:namedview
     id="namedview6"
     pagecolor="#ffffff"
     bordercolor="#666666"
     borderopacity="1.0"
     inkscape:pageshadow="2"
     inkscape:pageopacity="0.0"
     inkscape:pagecheckerboard="0"
     showgrid="false"
     inkscape:zoom="33.541667"
     inkscape:cx="12"
     inkscape:cy="12.014907"
     inkscape:window-width="1920"
     inkscape:window-height="1016"
     inkscape:window-x="0"
     inkscape:window-y="0"
     inkscape:window-maximized="1"
     inkscape:current-layer="svg4" />
  <path fill="#484848"
     id="path2"
     d="m 14.375,2.7089844 c 0.233887,0.02832 0.445313,0.2207031 0.445313,0.5019531 V 5 H 18 c 0.55,0 1,0.45 1,1 v 9.171875 c 1.164883,0.412002 2,1.522118 2,2.828125 0,1.65687 -1.343131,3 -3,3 -1.65687,0 -3,-1.34313 -3,-3 0,-1.306007 0.835117,-2.416123 2,-2.828125 V 7 h -2.179687 v 1.7890625 c 0,0.45 -0.53961,0.6715625 -0.84961,0.3515625 L 11.179688,6.3496094 c -0.2,-0.2 -0.2,-0.5089844 0,-0.7089844 l 2.791015,-2.7910156 c 0.11625,-0.11625 0.263965,-0.1576172 0.404297,-0.140625 z M 6,3 C 7.656869,3 9,4.343131 9,6 9,7.3060074 8.164883,8.4161231 7,8.828125 V 17 h 2.179688 v -1.789062 c 0,-0.45 0.539609,-0.671563 0.849609,-0.351563 l 2.791015,2.791016 c 0.2,0.2 0.2,0.508984 0,0.708984 l -2.791015,2.791016 c -0.31,0.31 -0.849609,0.08867 -0.849609,-0.361329 V 19 H 6 C 5.45,19 5,18.55 5,18 V 8.828125 C 3.835117,8.4161231 3,7.3060074 3,6 3,4.343131 4.34313,3 6,3 Z M 6,5 C 5.447697,5 5,5.447698 5,6 5,6.552303 5.447697,7 6,7 6.552302,7 7,6.552303 7,6 7,5.447698 6.552302,5 6,5 Z m 12,12 c -0.552303,0 -1,0.447698 -1,1 0,0.552303 0.447697,1 1,1 0.552302,0 1,-0.447697 1,-1 0,-0.552302 -0.447698,-1 -1,-1 z" />
</svg>
