<?xml version="1.0" encoding="UTF-8" standalone="no"?>
<svg
   xmlns:dc="http://purl.org/dc/elements/1.1/"
   xmlns:cc="http://creativecommons.org/ns#"
   xmlns:rdf="http://www.w3.org/1999/02/22-rdf-syntax-ns#"
   xmlns:svg="http://www.w3.org/2000/svg"
   xmlns="http://www.w3.org/2000/svg"
   xmlns:sodipodi="http://sodipodi.sourceforge.net/DTD/sodipodi-0.dtd"
   xmlns:inkscape="http://www.inkscape.org/namespaces/inkscape"
   version="1.1"
   width="24"
   height="24"
   viewBox="0 0 24 24"
   id="svg4"
   sodipodi:docname="weather-clouds-night.svg"
   inkscape:version="1.0.2 (e86c870879, 2021-01-15)">
  <metadata
     id="metadata10">
    <rdf:RDF>
      <cc:Work
         rdf:about="">
        <dc:format>image/svg+xml</dc:format>
        <dc:type
           rdf:resource="http://purl.org/dc/dcmitype/StillImage" />
      </cc:Work>
    </rdf:RDF>
  </metadata>
  <defs
     id="defs8" />
  <sodipodi:namedview
     pagecolor="#ffffff"
     bordercolor="#666666"
     borderopacity="1"
     objecttolerance="10"
     gridtolerance="10"
     guidetolerance="10"
     inkscape:pageopacity="0"
     inkscape:pageshadow="2"
     inkscape:window-width="1908"
     inkscape:window-height="1031"
     id="namedview6"
     showgrid="false"
     inkscape:zoom="33.208333"
     inkscape:cx="11.939774"
     inkscape:cy="12"
     inkscape:window-x="8"
     inkscape:window-y="1109"
     inkscape:window-maximized="0"
     inkscape:current-layer="svg4"
     inkscape:document-rotation="0" />
  <path fill="#484848"
     id="path839"
     style="fill:#484848;fill-opacity:1;stroke:none;stroke-width:1px;stroke-linecap:butt;stroke-linejoin:miter;stroke-opacity:1"
     d="M 12.710938 1 C 12.570937 1 12.440312 1.0391406 12.320312 1.1191406 C 12.000312 1.3591406 11.659375 1.6394531 11.359375 1.9394531 C 9.049375 4.2394531 8.5498438 7.6609375 9.8398438 10.460938 C 8.3098438 11.110937 7.1294531 12.430547 6.6894531 14.060547 L 6 14 A 4 4 0 0 0 2 18 A 4 4 0 0 0 6 22 L 19 22 A 3 3 0 0 0 22 19 A 3 3 0 0 0 19 16 C 18.42 16 17.879922 16.159219 17.419922 16.449219 L 17.5 15.5 C 17.5 15.28 17.500937 15.050078 17.460938 14.830078 C 19.140937 14.670078 20.770547 13.940625 22.060547 12.640625 C 22.380547 12.340625 22.640859 11.999688 22.880859 11.679688 C 23.270859 11.129688 22.649062 10.279297 22.039062 10.279297 L 22 10.279297 C 21.74 10.299297 21.499766 10.310547 21.259766 10.310547 C 19.319766 10.310547 17.390156 9.5698437 15.910156 8.0898438 C 14.250156 6.4398438 13.500703 4.19 13.720703 2 C 13.770703 1.53 13.220937 1 12.710938 1 z M 11.859375 4.5507812 C 12.209375 6.4107813 13.12 8.14 14.5 9.5 C 15.86 10.88 17.579219 11.790625 19.449219 12.140625 C 18.659219 12.600625 17.760078 12.839375 16.830078 12.859375 C 15.900078 11.159375 14.08 10 12 10 L 11.869141 10 C 11.409141 9.19 11.140625 8.2590625 11.140625 7.2890625 C 11.140625 6.3090625 11.389375 5.3707813 11.859375 4.5507812 z " />
</svg>
