<?xml version="1.0" encoding="UTF-8" standalone="no"?>
<svg
   xmlns:dc="http://purl.org/dc/elements/1.1/"
   xmlns:cc="http://creativecommons.org/ns#"
   xmlns:rdf="http://www.w3.org/1999/02/22-rdf-syntax-ns#"
   xmlns:svg="http://www.w3.org/2000/svg"
   xmlns="http://www.w3.org/2000/svg"
   xmlns:sodipodi="http://sodipodi.sourceforge.net/DTD/sodipodi-0.dtd"
   xmlns:inkscape="http://www.inkscape.org/namespaces/inkscape"
   height="24"
   viewBox="0 0 24 24"
   width="24"
   version="1.1"
   id="svg4"
   sodipodi:docname="assistive-listening-symbolic.svg"
   inkscape:version="1.0.1 (3bc2e813f5, 2020-09-07)">
  <metadata
     id="metadata10">
    <rdf:RDF>
      <cc:Work
         rdf:about="">
        <dc:format>image/svg+xml</dc:format>
        <dc:type
           rdf:resource="http://purl.org/dc/dcmitype/StillImage" />
      </cc:Work>
    </rdf:RDF>
  </metadata>
  <defs
     id="defs8" />
  <sodipodi:namedview
     pagecolor="#ffffff"
     bordercolor="#666666"
     borderopacity="1"
     objecttolerance="10"
     gridtolerance="10"
     guidetolerance="10"
     inkscape:pageopacity="0"
     inkscape:pageshadow="2"
     inkscape:window-width="950"
     inkscape:window-height="1054"
     id="namedview6"
     showgrid="false"
     inkscape:zoom="39.833333"
     inkscape:cx="12"
     inkscape:cy="12"
     inkscape:window-x="2882"
     inkscape:window-y="35"
     inkscape:window-maximized="0"
     inkscape:current-layer="svg4" />
  <path fill="#afafaf"
     d="m 6.9461048,20 c 0.29,0 0.56,-0.06 0.76,-0.15 0.71,-0.37 1.21,-0.88 1.71,-2.38 0.51,-1.56 1.4700002,-2.29 2.3900002,-3 0.79,-0.61 1.61,-1.24 2.32,-2.53 0.53,-0.96 0.82,-2.01 0.82,-2.94 0,-2.8 -2.2,-5 -5.0000002,-5 -2.56,0 -4.63,1.85 -4.95,4.31 -0.06,0.4 -0.41,0.69 -0.82,0.69 h -0.34 c -0.5,0 -0.89,-0.44 -0.83,-0.94 0.45,-3.47 3.33,-6.06 6.94,-6.06 3.9300002,0 7.0000002,3.07 7.0000002,7 0,1.26 -0.38,2.65 -1.07,3.9 -0.91,1.65 -1.98,2.48 -2.85,3.15 -0.81,0.62 -1.39,1.07 -1.71,2.05 -0.6,1.82 -1.3700002,2.84 -2.7300002,3.55 -0.51,0.23 -1.07,0.35 -1.64,0.35 -1.84,0 -3.39,-1.24 -3.86,-2.93 -0.14,-0.54 0.25,-1.07 0.81,-1.07 h 0.35 c 0.38,0 0.68,0.27 0.81,0.63 0.26,0.79 1.01,1.37 1.89,1.37 z M 16.976105,1.97 c 0.43,-0.43 1.12,-0.39 1.5,0.07 1.54,1.9 2.47,4.32 2.47,6.96 0,2.64 -0.93,5.06 -2.47,6.95 -0.38,0.46 -1.07,0.5 -1.49,0.08 -0.36,-0.36 -0.39,-0.93 -0.07,-1.32 1.26,-1.55 2.03,-3.54 2.03,-5.71 0,-2.17 -0.77,-4.16 -2.04,-5.7 -0.33,-0.4 -0.29,-0.97 0.07,-1.33 z m -4.53,7.03 c 0,1.38 -1.12,2.5 -2.5000002,2.5 -1.38,0 -2.5,-1.12 -2.5,-2.5 0,-1.38 1.12,-2.5 2.5,-2.5 1.3800002,0 2.5000002,1.12 2.5000002,2.5 z"
     id="path2" />
</svg>
