<?xml version="1.0" encoding="UTF-8" standalone="no"?>
<svg
   xmlns:dc="http://purl.org/dc/elements/1.1/"
   xmlns:cc="http://creativecommons.org/ns#"
   xmlns:rdf="http://www.w3.org/1999/02/22-rdf-syntax-ns#"
   xmlns:svg="http://www.w3.org/2000/svg"
   xmlns="http://www.w3.org/2000/svg"
   xmlns:sodipodi="http://sodipodi.sourceforge.net/DTD/sodipodi-0.dtd"
   xmlns:inkscape="http://www.inkscape.org/namespaces/inkscape"
   version="1.1"
   width="24"
   height="24"
   viewBox="0 0 24 24"
   id="svg4"
   sodipodi:docname="calendar-year.svg"
   inkscape:version="1.0.2 (e86c870879, 2021-01-15)">
  <metadata
     id="metadata10">
    <rdf:RDF>
      <cc:Work
         rdf:about="">
        <dc:format>image/svg+xml</dc:format>
        <dc:type
           rdf:resource="http://purl.org/dc/dcmitype/StillImage" />
      </cc:Work>
    </rdf:RDF>
  </metadata>
  <defs
     id="defs8" />
  <sodipodi:namedview
     pagecolor="#ffffff"
     bordercolor="#666666"
     borderopacity="1"
     objecttolerance="10"
     gridtolerance="10"
     guidetolerance="10"
     inkscape:pageopacity="0"
     inkscape:pageshadow="2"
     inkscape:window-width="1940"
     inkscape:window-height="2080"
     id="namedview6"
     showgrid="false"
     inkscape:zoom="18.537944"
     inkscape:cx="7.2098913"
     inkscape:cy="15.511498"
     inkscape:window-x="5732"
     inkscape:window-y="35"
     inkscape:window-maximized="0"
     inkscape:current-layer="svg4"
     inkscape:document-rotation="0" />
  <path fill="#afafaf"
     id="path2"
     d="M 2,9 C 1.45,9 1,9.45 1,10 v 2 6.5 1.5 1 c 0,0.1375 0.014258,0.272461 0.041016,0.402344 0.1598508,0.781171 0.7754699,1.39679 1.5566406,1.55664 C 2.7275387,22.985744 2.8625,23 3,23 h 13 c 0.1375,0 0.269141,-0.02734 0.388672,-0.07813 C 16.747266,22.769536 17,22.4125 17,22 17,21.45 16.55,21 16,21 H 4.5 4 C 3.45,21 3,20.55 3,20 V 18.5 10 C 3,9.45 2.55,9 2,9 Z"
     sodipodi:nodetypes="sscccsccsscsscsscss" />
  <path fill="#afafaf"
     d="M 21,3 H 20 V 2 C 20,1.45 19.55,1 19,1 18.45,1 18,1.45 18,2 V 3 H 10 V 2 C 10,1.45 9.55,1 9,1 8.45,1 8,1.45 8,2 V 3 H 7 C 5.89,3 5.01,3.9 5.01,5 L 5,17 c 0,1.1 0.89,2 2,2 h 14 c 1.1,0 2,-0.9 2,-2 V 5 C 23,3.9 22.1,3 21,3 Z M 20,17 H 8 C 7.45,17 7,16.55 7,16 V 8 h 14 v 8 c 0,0.55 -0.45,1 -1,1 z m -4,-6 h 2 c 0.55,0 1,0.45 1,1 v 2 c 0,0.55 -0.45,1 -1,1 h -2 c -0.55,0 -1,-0.45 -1,-1 v -2 c 0,-0.55 0.45,-1 1,-1 z"
     id="path2-3"
     sodipodi:nodetypes="scsssccssscsccssssssssccsssssssssss" />
</svg>
