<?xml version="1.0" encoding="UTF-8" standalone="no"?>
<svg
   xmlns:dc="http://purl.org/dc/elements/1.1/"
   xmlns:cc="http://creativecommons.org/ns#"
   xmlns:rdf="http://www.w3.org/1999/02/22-rdf-syntax-ns#"
   xmlns:svg="http://www.w3.org/2000/svg"
   xmlns="http://www.w3.org/2000/svg"
   xmlns:sodipodi="http://sodipodi.sourceforge.net/DTD/sodipodi-0.dtd"
   xmlns:inkscape="http://www.inkscape.org/namespaces/inkscape"
   height="24"
   viewBox="0 0 24 24"
   width="24"
   version="1.1"
   id="svg4"
   sodipodi:docname="bar_chart.svg"
   inkscape:version="1.0.2 (e86c870879, 2021-01-15)">
  <metadata
     id="metadata10">
    <rdf:RDF>
      <cc:Work
         rdf:about="">
        <dc:format>image/svg+xml</dc:format>
        <dc:type
           rdf:resource="http://purl.org/dc/dcmitype/StillImage" />
      </cc:Work>
    </rdf:RDF>
  </metadata>
  <defs
     id="defs8" />
  <sodipodi:namedview
     pagecolor="#ffffff"
     bordercolor="#666666"
     borderopacity="1"
     objecttolerance="10"
     gridtolerance="10"
     guidetolerance="10"
     inkscape:pageopacity="0"
     inkscape:pageshadow="2"
     inkscape:window-width="1908"
     inkscape:window-height="1031"
     id="namedview6"
     showgrid="false"
     inkscape:zoom="42"
     inkscape:cx="12"
     inkscape:cy="11.600123"
     inkscape:window-x="8"
     inkscape:window-y="1109"
     inkscape:window-maximized="0"
     inkscape:current-layer="svg4" />
  <path fill="#909090"
     d="m 6.4,13.2 h 0.2 c 0.77,0 1.4,0.63 1.4,1.4 v 3 C 8,18.37 7.37,19 6.6,19 H 6.4 C 5.63,19 5,18.37 5,17.6 v -3 C 5,13.83 5.63,13.2 6.4,13.2 Z M 17.583686,5 c 0.77,0 1.4,0.63 1.4,1.4 v 11.2 c 0,0.77 -0.63,1.4 -1.4,1.4 -0.77,0 -1.4,-0.63 -1.4,-1.4 V 6.4 c 0,-0.77 0.63,-1.4 1.4,-1.4 z"
     id="path2"
     sodipodi:nodetypes="ssssssssssssssss" />
  <path fill="#909090"
     d="m 11.9,9.2 h 0.2 c 0.77,0 1.4,0.630001 1.4,1.400001 V 17.6 c 0,0.77 -0.63,1.4 -1.4,1.4 h -0.2 c -0.77,0 -1.4,-0.63 -1.4,-1.4 V 10.600001 C 10.5,9.830001 11.13,9.2 11.9,9.2 Z"
     id="path2-3"
     sodipodi:nodetypes="sssssssss" />
</svg>
