<?xml version="1.0" encoding="UTF-8" standalone="no"?>
<svg
   xmlns:dc="http://purl.org/dc/elements/1.1/"
   xmlns:cc="http://creativecommons.org/ns#"
   xmlns:rdf="http://www.w3.org/1999/02/22-rdf-syntax-ns#"
   xmlns:svg="http://www.w3.org/2000/svg"
   xmlns="http://www.w3.org/2000/svg"
   xmlns:sodipodi="http://sodipodi.sourceforge.net/DTD/sodipodi-0.dtd"
   xmlns:inkscape="http://www.inkscape.org/namespaces/inkscape"
   height="24"
   viewBox="0 0 24 24"
   width="24"
   version="1.1"
   id="svg4"
   sodipodi:docname="go-jump-declaration (another copy).svg"
   inkscape:version="1.0.2 (e86c870879, 2021-01-15)">
  <metadata
     id="metadata10">
    <rdf:RDF>
      <cc:Work
         rdf:about="">
        <dc:format>image/svg+xml</dc:format>
        <dc:type
           rdf:resource="http://purl.org/dc/dcmitype/StillImage" />
      </cc:Work>
    </rdf:RDF>
  </metadata>
  <defs
     id="defs8" />
  <sodipodi:namedview
     pagecolor="#ffffff"
     bordercolor="#666666"
     borderopacity="1"
     objecttolerance="10"
     gridtolerance="10"
     guidetolerance="10"
     inkscape:pageopacity="0"
     inkscape:pageshadow="2"
     inkscape:window-width="1908"
     inkscape:window-height="2107"
     id="namedview6"
     showgrid="false"
     inkscape:zoom="21"
     inkscape:cx="9.6138666"
     inkscape:cy="7.9081423"
     inkscape:window-x="1924"
     inkscape:window-y="33"
     inkscape:window-maximized="0"
     inkscape:current-layer="svg4"
     inkscape:document-rotation="0" />
  <path fill="#909090"
     d="m 11.4,6.7766638 -0.24,-1.2 c -0.09,-0.46 -0.5,-0.8 -0.98,-0.8 H 3 c -0.55,0 -1,0.45 -1,1 V 20.776664 c 0,0.55 0.45,1 1,1 0.55,0 1,-0.45 1,-1 v -6 h 5.6 l 0.24,1.2 c 0.09,0.47 0.5,0.8 0.98,0.8 H 16 c 0.55,0 1,-0.45 1,-1 V 7.7766638 c 0,-0.55 -0.45,-1 -1,-1 z"
     id="path2" />
  <path fill="#909090"
     d="M 20.71,6.7925 C 20.224543,10.027475 19.861359,8.3961775 21,9.9125001 V 20.0825 c 0,0.55 -0.45,1 -1,1 H 9.2745187 c -0.55,0 -1,-0.45 -1,-1 0,-0.55 0.45,-1 1,-1 H 19 V 9.9125001 C 19.609676,8.4681883 19.460229,9.4190486 19.29,6.7925 c 0.39,-0.39 1.03,-0.39 1.42,0 z"
     id="path4"
     sodipodi:nodetypes="ccssssscccc" />
  <path fill="#909090"
     d="m 19.000395,5.7725 v 9.01 c 0,0.55 0.45,1 1,1 0.55,0 1,-0.45 1,-1 v -9.01 h 1.79 c 0.45,0 0.67,-0.54 0.35,-0.85 l -2.79,-2.78 c -0.2,-0.19 -0.51,-0.19 -0.71,0 l -2.79,2.78 c -0.32,0.31 -0.09,0.85 0.35,0.85 z"
     id="path2-3"
     sodipodi:nodetypes="cssscsccccsc" />
</svg>
