<?xml version="1.0" encoding="UTF-8" standalone="no"?>
<svg
   xmlns:dc="http://purl.org/dc/elements/1.1/"
   xmlns:cc="http://creativecommons.org/ns#"
   xmlns:rdf="http://www.w3.org/1999/02/22-rdf-syntax-ns#"
   xmlns:svg="http://www.w3.org/2000/svg"
   xmlns="http://www.w3.org/2000/svg"
   xmlns:sodipodi="http://sodipodi.sourceforge.net/DTD/sodipodi-0.dtd"
   xmlns:inkscape="http://www.inkscape.org/namespaces/inkscape"
   height="24"
   viewBox="0 0 24 24"
   width="24"
   version="1.1"
   id="svg4"
   sodipodi:docname="mouse.svg"
   inkscape:version="1.0.2 (e86c870879, 2021-01-15)">
  <metadata
     id="metadata10">
    <rdf:RDF>
      <cc:Work
         rdf:about="">
        <dc:format>image/svg+xml</dc:format>
        <dc:type
           rdf:resource="http://purl.org/dc/dcmitype/StillImage" />
      </cc:Work>
    </rdf:RDF>
  </metadata>
  <defs
     id="defs8" />
  <sodipodi:namedview
     pagecolor="#ffffff"
     bordercolor="#666666"
     borderopacity="1"
     objecttolerance="10"
     gridtolerance="10"
     guidetolerance="10"
     inkscape:pageopacity="0"
     inkscape:pageshadow="2"
     inkscape:window-width="1908"
     inkscape:window-height="2107"
     id="namedview6"
     showgrid="false"
     inkscape:zoom="42"
     inkscape:cx="12"
     inkscape:cy="12"
     inkscape:window-x="1924"
     inkscape:window-y="33"
     inkscape:window-maximized="0"
     inkscape:current-layer="svg4" />
  <path fill="#afafaf"
     id="path2"
     d="m 12,1.0136719 c -0.339357,0 -0.671787,0.029346 -1,0.070312 V 9 h 2 V 1.0839844 C 12.671787,1.0430174 12.339357,1.0136725 12,1.0136719 Z M 9,1.59375 C 7.9968667,2.0011947 7.094623,2.6041698 6.3417969,3.3574219 6.163203,3.5361168 5.9950544,3.7230733 5.8339844,3.9179688 5.8286498,3.9244153 5.8236741,3.9310363 5.8183594,3.9375 5.6679069,4.12071 5.5245405,4.3095409 5.390625,4.5058594 5.3744117,4.5295847 5.3597134,4.5542169 5.34375,4.578125 5.2174704,4.7675957 5.0983224,4.9616832 4.9882812,5.1621094 c -0.012239,0.022233 -0.025076,0.044045 -0.037109,0.066406 -0.1089584,0.2030376 -0.2073962,0.4119014 -0.2988281,0.625 -0.010749,0.024962 -0.022702,0.049126 -0.033203,0.074219 -0.088643,0.2125859 -0.169895,0.4289388 -0.2402344,0.6503906 -0.00815,0.025543 -0.017487,0.050518 -0.025391,0.076172 -0.068383,0.2231266 -0.1249121,0.4506366 -0.1738281,0.6816406 -0.00602,0.028211 -0.013805,0.055664 -0.019531,0.083984 -0.047025,0.2346531 -0.083367,0.4732095 -0.109375,0.7148437 -0.00259,0.023676 -0.00738,0.046575 -0.00977,0.070312 C 4.0152019,8.4667691 4,8.731455 4,9 c -7.8e-6,0.00461 0,0.00906 0,0.013672 V 11 13.013672 15 v 0.01367 c 0,0.268581 0.015195,0.53515 0.041016,0.796875 0.00252,0.02502 0.00702,0.04926 0.00977,0.07422 0.025826,0.23877 0.061069,0.473126 0.1074219,0.705078 0.00744,0.03691 0.01745,0.07265 0.025391,0.109375 0.04815,0.224335 0.1053443,0.445233 0.171875,0.662109 0.00706,0.02289 0.014225,0.04556 0.021484,0.06836 0.070626,0.223012 0.1510533,0.442216 0.2402344,0.65625 0.011934,0.02854 0.026808,0.05561 0.039063,0.08398 0.089194,0.207201 0.1852322,0.409744 0.2910156,0.607422 0.015474,0.02885 0.031059,0.0573 0.046875,0.08594 0.1100515,0.199714 0.2292791,0.393231 0.3554688,0.582031 0.012073,0.01803 0.022941,0.03677 0.035156,0.05469 0.1334119,0.196133 0.2758782,0.385269 0.4257813,0.568359 0.00999,0.01219 0.019236,0.02498 0.029297,0.03711 0.1591111,0.192018 0.3258028,0.376484 0.5019531,0.552734 C 7.5678056,21.884911 9.1865278,22.718397 11,22.943359 v -0.01172 C 11.328213,22.972609 11.660643,23 12,23 c 0.339357,0 0.671787,-0.02739 1,-0.06836 v 0.01172 c 1.813472,-0.224962 3.432189,-1.058448 4.658203,-2.285156 0.17615,-0.17625 0.342842,-0.360716 0.501953,-0.552734 0.0044,-0.0053 0.0093,-0.01028 0.01367,-0.01563 0.0056,-0.0068 0.01002,-0.01465 0.01563,-0.02148 0.149903,-0.18309 0.29237,-0.372226 0.425781,-0.568359 0.01221,-0.01792 0.02308,-0.03666 0.03516,-0.05469 0.126189,-0.1888 0.245417,-0.382317 0.355468,-0.582031 0.01582,-0.02863 0.0314,-0.05709 0.04687,-0.08594 0.105784,-0.197678 0.201822,-0.400221 0.291016,-0.607422 0.01225,-0.02837 0.02713,-0.05544 0.03906,-0.08398 0.08918,-0.214035 0.169609,-0.43324 0.240235,-0.65625 0.0073,-0.0228 0.01442,-0.04547 0.02148,-0.06836 0.06653,-0.216876 0.123726,-0.437774 0.171875,-0.662109 0.0079,-0.03673 0.01796,-0.07246 0.02539,-0.109375 0.04635,-0.231952 0.0816,-0.466308 0.107422,-0.705078 0.0024,-0.02243 0.0075,-0.04392 0.0098,-0.06641 2.6e-4,-0.0026 -2.57e-4,-0.0052 0,-0.0078 C 19.984776,15.548813 20,15.282253 20,15.013672 c 8e-6,-0.0046 0,-0.0091 0,-0.01367 V 13.013672 11 9.0136719 c 0,-0.00461 8e-6,-0.00906 0,-0.013672 0,-0.268545 -0.0152,-0.5332309 -0.04102,-0.7949219 -2.55e-4,-0.00258 2.58e-4,-0.00523 0,-0.00781 -0.0021,-0.021164 -0.0075,-0.041386 -0.0098,-0.0625 -0.02601,-0.2416342 -0.06235,-0.4801909 -0.109375,-0.7148437 -0.0057,-0.02832 -0.01351,-0.055774 -0.01953,-0.083984 -0.04892,-0.231004 -0.105444,-0.458514 -0.173828,-0.6816406 -0.0079,-0.025654 -0.01724,-0.050629 -0.02539,-0.076172 -0.07034,-0.2214518 -0.151591,-0.4378047 -0.240235,-0.6503906 -0.0105,-0.025092 -0.02245,-0.049257 -0.0332,-0.074219 -0.09143,-0.2130986 -0.189869,-0.4219624 -0.298828,-0.625 -0.01203,-0.022361 -0.02487,-0.044173 -0.03711,-0.066406 C 18.901713,4.9616809 18.78253,4.7675957 18.65625,4.578125 18.640287,4.5542169 18.625588,4.5295847 18.609375,4.5058594 18.47546,4.3095409 18.332093,4.12071 18.181641,3.9375 c -0.003,-0.00362 -0.0048,-0.00811 -0.0078,-0.011719 -0.0023,-0.00284 -0.0055,-0.00498 -0.0078,-0.00781 C 18.004921,3.723071 17.836797,3.5361168 17.658203,3.3574219 16.905377,2.6041698 16.003133,2.0011947 15,1.59375 v 9.419922 h -2 -2.054688 v -0.01563 H 9 Z"
     sodipodi:nodetypes="sccccscscccccccccccccccscccsccccccccccccccsccsccscccccccccccccccccsccscscccccccccccccccsccccccc" />
</svg>
