<?xml version="1.0" encoding="UTF-8" standalone="no"?>
<svg
   xmlns:dc="http://purl.org/dc/elements/1.1/"
   xmlns:cc="http://creativecommons.org/ns#"
   xmlns:rdf="http://www.w3.org/1999/02/22-rdf-syntax-ns#"
   xmlns:svg="http://www.w3.org/2000/svg"
   xmlns="http://www.w3.org/2000/svg"
   xmlns:sodipodi="http://sodipodi.sourceforge.net/DTD/sodipodi-0.dtd"
   xmlns:inkscape="http://www.inkscape.org/namespaces/inkscape"
   version="1.1"
   id="mdi-matrix"
   width="24"
   height="24"
   viewBox="0 0 24 24"
   sodipodi:docname="labplot-matrix (copy).svg"
   inkscape:version="1.0.2 (e86c870879, 2021-01-15)">
  <metadata
     id="metadata9">
    <rdf:RDF>
      <cc:Work
         rdf:about="">
        <dc:format>image/svg+xml</dc:format>
        <dc:type
           rdf:resource="http://purl.org/dc/dcmitype/StillImage" />
      </cc:Work>
    </rdf:RDF>
  </metadata>
  <defs
     id="defs7" />
  <sodipodi:namedview
     pagecolor="#ffffff"
     bordercolor="#666666"
     borderopacity="1"
     objecttolerance="10"
     gridtolerance="10"
     guidetolerance="10"
     inkscape:pageopacity="0"
     inkscape:pageshadow="2"
     inkscape:window-width="1908"
     inkscape:window-height="2107"
     id="namedview5"
     showgrid="false"
     inkscape:zoom="42"
     inkscape:cx="12"
     inkscape:cy="12"
     inkscape:window-x="1924"
     inkscape:window-y="33"
     inkscape:window-maximized="0"
     inkscape:current-layer="mdi-matrix" />
  <path fill="#909090"
     id="path2"
     d="M 2 2 L 2 22 L 6 22 L 6 20 L 4 20 L 4 4 L 6 4 L 6 2 L 2 2 z M 18 2 L 18 4 L 20 4 L 20 13.083984 A 6 6 0 0 1 22 13.804688 L 22 2 L 18 2 z M 9 5 L 8 5.5 L 8 6.5 L 9 6 L 9 10 L 8 10 L 8 11 L 11 11 L 11 10 L 10 10 L 10 5 L 9 5 z M 15 5 C 13.9 5 13 6.34 13 8 C 13 9.66 13.9 11 15 11 C 16.1 11 17 9.66 17 8 C 17 6.34 16.1 5 15 5 z M 15 6 C 15.55 6 16 6.9 16 8 C 16 9.1 15.55 10 15 10 C 14.45 10 14 9.1 14 8 C 14 6.9 14.45 6 15 6 z M 9 13 C 7.9 13 7 14.34 7 16 C 7 17.66 7.9 19 9 19 C 10.1 19 11 17.66 11 16 C 11 14.34 10.1 13 9 13 z M 15 13 L 14 13.5 L 14 14.5 L 15 14 L 15 14.529297 A 6 6 0 0 1 16 13.804688 L 16 13 L 15 13 z M 9 14 C 9.55 14 10 14.9 10 16 C 10 17.1 9.55 18 9 18 C 8.45 18 8 17.1 8 16 C 8 14.9 8.45 14 9 14 z " />
  <path fill="#909090"
     d="m 18,15 v 3 h -3 v 2 h 3 v 3 h 2 v -3 h 3 v -2 h -3 v -3 z"
     id="path2-3"
     sodipodi:nodetypes="ccccccccccccc" />
</svg>
