<?xml version="1.0" encoding="UTF-8" standalone="no"?>
<svg
   xmlns:dc="http://purl.org/dc/elements/1.1/"
   xmlns:cc="http://creativecommons.org/ns#"
   xmlns:rdf="http://www.w3.org/1999/02/22-rdf-syntax-ns#"
   xmlns:svg="http://www.w3.org/2000/svg"
   xmlns="http://www.w3.org/2000/svg"
   xmlns:sodipodi="http://sodipodi.sourceforge.net/DTD/sodipodi-0.dtd"
   xmlns:inkscape="http://www.inkscape.org/namespaces/inkscape"
   version="1.1"
   id="mdi-folder-multiple-plus"
   width="24"
   height="24"
   viewBox="0 0 24 24"
   sodipodi:docname="folder-move (copy).svg"
   inkscape:version="1.0.2 (e86c870879, 2021-01-15)">
  <metadata
     id="metadata9">
    <rdf:RDF>
      <cc:Work
         rdf:about="">
        <dc:format>image/svg+xml</dc:format>
        <dc:type
           rdf:resource="http://purl.org/dc/dcmitype/StillImage" />
      </cc:Work>
    </rdf:RDF>
  </metadata>
  <defs
     id="defs7" />
  <sodipodi:namedview
     pagecolor="#ffffff"
     bordercolor="#666666"
     borderopacity="1"
     objecttolerance="10"
     gridtolerance="10"
     guidetolerance="10"
     inkscape:pageopacity="0"
     inkscape:pageshadow="2"
     inkscape:window-width="1908"
     inkscape:window-height="2107"
     id="namedview5"
     showgrid="false"
     inkscape:zoom="42"
     inkscape:cx="11.238095"
     inkscape:cy="12"
     inkscape:window-x="8"
     inkscape:window-y="33"
     inkscape:window-maximized="0"
     inkscape:current-layer="mdi-folder-multiple-plus"
     inkscape:document-rotation="0" />
  <path fill="#afafaf"
     d="M 19,2 H 2 C 0.9,2 0,2.9 0,4 v 13.000001 c 0,0.55 0.45,1 0.99999997,1 C 1.55,18.000001 2,17.550001 2,17.000001 V 5 C 2,4.45 2.45,4 3,4 H 19 C 19.55,4 20,3.55 20,3 20,2.45 19.55,2 19,2 Z"
     id="path2-3"
     sodipodi:nodetypes="sssssssssss" />
  <path fill="#afafaf"
     d="M 22,6 H 6 C 4.9,6 4.01,6.9 4.01,8 L 4,20 c 0,1.1 0.9,2 2,2 h 16 c 1.1,0 2,-0.9 2,-2 V 8 C 24,6.9 23.1,6 22,6 Z m -0.4,4.25 -7.07,4.42 c -0.32,0.2 -0.74,0.2 -1.06,0 L 6.4,10.25 C 6.15,10.09 6,9.82 6,9.53 6,8.86 6.73,8.46 7.3,8.81 L 14,13 20.7,8.81 c 0.57,-0.35 1.3,0.05 1.3,0.72 0,0.29 -0.15,0.56 -0.4,0.72 z"
     id="path2-36" />
</svg>
