<?xml version="1.0" encoding="UTF-8" standalone="no"?>
<svg
   xmlns:dc="http://purl.org/dc/elements/1.1/"
   xmlns:cc="http://creativecommons.org/ns#"
   xmlns:rdf="http://www.w3.org/1999/02/22-rdf-syntax-ns#"
   xmlns:svg="http://www.w3.org/2000/svg"
   xmlns="http://www.w3.org/2000/svg"
   xmlns:sodipodi="http://sodipodi.sourceforge.net/DTD/sodipodi-0.dtd"
   xmlns:inkscape="http://www.inkscape.org/namespaces/inkscape"
   version="1.1"
   id="mdi-calendar-blank-multiple"
   width="24"
   height="24"
   viewBox="0 0 24 24"
   sodipodi:docname="resource-calendar-child (copy).svg"
   inkscape:version="1.0.2 (e86c870879, 2021-01-15)">
  <metadata
     id="metadata9">
    <rdf:RDF>
      <cc:Work
         rdf:about="">
        <dc:format>image/svg+xml</dc:format>
        <dc:type
           rdf:resource="http://purl.org/dc/dcmitype/StillImage" />
      </cc:Work>
    </rdf:RDF>
  </metadata>
  <defs
     id="defs7" />
  <sodipodi:namedview
     pagecolor="#ffffff"
     bordercolor="#666666"
     borderopacity="1"
     objecttolerance="10"
     gridtolerance="10"
     guidetolerance="10"
     inkscape:pageopacity="0"
     inkscape:pageshadow="2"
     inkscape:window-width="1876"
     inkscape:window-height="1031"
     id="namedview5"
     showgrid="false"
     inkscape:zoom="21"
     inkscape:cx="4.4140759"
     inkscape:cy="8.2387926"
     inkscape:window-x="8"
     inkscape:window-y="1109"
     inkscape:window-maximized="0"
     inkscape:current-layer="mdi-calendar-blank-multiple"
     inkscape:document-rotation="0" />
  <path fill="#afafaf"
     d="M 3,17 V 8 h 14 v 9 H 3 M 3,3 C 1.9,3 1,3.9 1,5 v 12 c 0,1.1 0.9,2 2,2 h 14 c 1.11,0 2,-0.9 2,-2 V 5 C 19,3.9 18.1,3 17,3 H 16 V 1 H 14 V 3 H 6 V 1 H 4 V 3 H 3 M 21,21 H 7 v 2 h 14 c 1.11,0 2,-0.9 2,-2 V 9 h -2 z"
     id="path2" />
  <path fill="#afafaf"
     d="m 9,9 h 2 v 2.5 h 2.5 v 2 H 11 V 16 H 9 V 13.5 H 6.5 v -2 H 9 Z"
     id="path2-3"
     sodipodi:nodetypes="ccccccccccccc" />
</svg>
