<?xml version="1.0" encoding="UTF-8" standalone="no"?>
<svg
   xmlns:dc="http://purl.org/dc/elements/1.1/"
   xmlns:cc="http://creativecommons.org/ns#"
   xmlns:rdf="http://www.w3.org/1999/02/22-rdf-syntax-ns#"
   xmlns:svg="http://www.w3.org/2000/svg"
   xmlns="http://www.w3.org/2000/svg"
   xmlns:sodipodi="http://sodipodi.sourceforge.net/DTD/sodipodi-0.dtd"
   xmlns:inkscape="http://www.inkscape.org/namespaces/inkscape"
   version="1.1"
   id="mdi-calendar-blank-multiple"
   width="24"
   height="24"
   viewBox="0 0 24 24"
   sodipodi:docname="resource-calendar-child-insert.svg"
   inkscape:version="1.0.2 (e86c870879, 2021-01-15)">
  <metadata
     id="metadata9">
    <rdf:RDF>
      <cc:Work
         rdf:about="">
        <dc:format>image/svg+xml</dc:format>
        <dc:type
           rdf:resource="http://purl.org/dc/dcmitype/StillImage" />
      </cc:Work>
    </rdf:RDF>
  </metadata>
  <defs
     id="defs7" />
  <sodipodi:namedview
     pagecolor="#ffffff"
     bordercolor="#666666"
     borderopacity="1"
     objecttolerance="10"
     gridtolerance="10"
     guidetolerance="10"
     inkscape:pageopacity="0"
     inkscape:pageshadow="2"
     inkscape:window-width="1908"
     inkscape:window-height="2080"
     id="namedview5"
     showgrid="false"
     inkscape:zoom="23.550479"
     inkscape:cx="12.088701"
     inkscape:cy="10.459433"
     inkscape:window-x="5764"
     inkscape:window-y="35"
     inkscape:window-maximized="0"
     inkscape:current-layer="mdi-calendar-blank-multiple"
     inkscape:document-rotation="0" />
  <path fill="#afafaf"
     id="path2-36"
     d="M 5 1 C 4.45 1 4 1.45 4 2 L 4 3 L 3 3 C 1.9 3 1 3.9 1 5 L 1 17 C 1 18.1 1.9 19 3 19 L 17 19 C 18.11 19 19 18.1 19 17 L 18.990234 5 C 18.990234 3.9 18.11 3 17 3 L 16 3 L 16 2 C 16 1.45 15.55 1 15 1 C 14.45 1 14 1.45 14 2 L 14 3 L 6 3 L 6 2 C 6 1.45 5.55 1 5 1 z M 3 8 L 17 8 L 17 16 C 17 16.55 16.55 17 16 17 L 4 17 C 3.45 17 3 16.55 3 16 L 3 8 z M 10 9 C 9.4500003 9 9 9.45 9 10 L 9 11.5 L 7.5 11.5 C 6.95 11.5 6.5 11.95 6.5 12.5 C 6.5 13.05 6.95 13.5 7.5 13.5 L 9 13.5 L 9 15 C 9 15.55 9.4500003 16 10 16 C 10.55 16 11 15.55 11 15 L 11 13.5 L 12.5 13.5 C 13.05 13.5 13.5 13.05 13.5 12.5 C 13.5 11.95 13.05 11.5 12.5 11.5 L 11 11.5 L 11 10 C 11 9.45 10.55 9 10 9 z M 22 9 C 21.45 9 21 9.45 21 10 L 21 18.5 L 21 20 C 21 20.55 20.55 21 20 21 L 19.5 21 L 8 21 C 7.45 21 7 21.45 7 22 C 7 22.4125 7.2527341 22.769546 7.6113281 22.921875 C 7.7308591 22.972665 7.8625 23 8 23 L 21 23 C 21.1375 23 21.272466 22.985744 21.402344 22.958984 C 22.183515 22.799134 22.799133 22.183515 22.958984 21.402344 C 22.985744 21.272461 23 21.1375 23 21 L 23 20 L 23 18.5 L 23 12 L 23 10 C 23 9.45 22.55 9 22 9 z " />
</svg>
