<?xml version="1.0" encoding="UTF-8" standalone="no"?>
<svg
   xmlns:dc="http://purl.org/dc/elements/1.1/"
   xmlns:cc="http://creativecommons.org/ns#"
   xmlns:rdf="http://www.w3.org/1999/02/22-rdf-syntax-ns#"
   xmlns:svg="http://www.w3.org/2000/svg"
   xmlns="http://www.w3.org/2000/svg"
   xmlns:sodipodi="http://sodipodi.sourceforge.net/DTD/sodipodi-0.dtd"
   xmlns:inkscape="http://www.inkscape.org/namespaces/inkscape"
   version="1.1"
   id="mdi-calendar-blank-multiple"
   width="24"
   height="24"
   viewBox="0 0 24 24"
   sodipodi:docname="resource-calendar-child.svg"
   inkscape:version="1.0.2 (e86c870879, 2021-01-15)">
  <metadata
     id="metadata9">
    <rdf:RDF>
      <cc:Work
         rdf:about="">
        <dc:format>image/svg+xml</dc:format>
        <dc:type
           rdf:resource="http://purl.org/dc/dcmitype/StillImage" />
      </cc:Work>
    </rdf:RDF>
  </metadata>
  <defs
     id="defs7" />
  <sodipodi:namedview
     pagecolor="#ffffff"
     bordercolor="#666666"
     borderopacity="1"
     objecttolerance="10"
     gridtolerance="10"
     guidetolerance="10"
     inkscape:pageopacity="0"
     inkscape:pageshadow="2"
     inkscape:window-width="1908"
     inkscape:window-height="2080"
     id="namedview5"
     showgrid="false"
     inkscape:zoom="42"
     inkscape:cx="12"
     inkscape:cy="12"
     inkscape:window-x="5764"
     inkscape:window-y="35"
     inkscape:window-maximized="0"
     inkscape:current-layer="mdi-calendar-blank-multiple"
     inkscape:document-rotation="0" />
  <path fill="#afafaf"
     id="path2-36"
     d="m 15,0.9999996 c 0.55,0 1,0.45 1,1 v 1 h 1 c 1.11,0 1.990234,0.9 1.990234,2 L 19.000004,17 c 0,1.1 -0.89,2 -2,2 H 3.0000002 c -1.1,0 -2,-0.9 -2,-2 V 4.9999996 c 0,-1.1 0.9,-2 2,-2 h 1 v -1 c 0,-0.55 0.45,-1 1,-1 0.55,0 1,0.45 1,1 v 1 H 14 v -1 c 0,-0.55 0.45,-1 1,-1 z M 17,8 H 3.0000002 v 8 c 0,0.55 0.45,1 1,1 H 16 c 0.55,0 1,-0.45 1,-1 z m 5,1 c 0.55,0 1,0.45 1,1 v 2 6.5 1.5 1 c 0,0.1375 -0.01426,0.272461 -0.04102,0.402344 -0.159851,0.781171 -0.77547,1.39679 -1.556641,1.55664 C 21.272461,22.985744 21.1375,23 21,23 H 8.0000002 c -0.1375,0 -0.269141,-0.02734 -0.388672,-0.07813 C 7.2527342,22.769541 7.0000002,22.4125 7.0000002,22 c 0,-0.55 0.45,-1 1,-1 H 19.5 20 c 0.55,0 1,-0.45 1,-1 V 18.5 10 c 0,-0.5499996 0.45,-0.9999996 1,-1 z"
     sodipodi:nodetypes="sscsccssssscsssccssccsssscsscccsccsscsscsscss" />
</svg>
