<?xml version="1.0" encoding="UTF-8" standalone="no"?>
<svg
   xmlns:dc="http://purl.org/dc/elements/1.1/"
   xmlns:cc="http://creativecommons.org/ns#"
   xmlns:rdf="http://www.w3.org/1999/02/22-rdf-syntax-ns#"
   xmlns:svg="http://www.w3.org/2000/svg"
   xmlns="http://www.w3.org/2000/svg"
   xmlns:sodipodi="http://sodipodi.sourceforge.net/DTD/sodipodi-0.dtd"
   xmlns:inkscape="http://www.inkscape.org/namespaces/inkscape"
   version="1.1"
   id="mdi-symbol"
   width="24"
   height="24"
   viewBox="0 0 24 24"
   sodipodi:docname="strong-language (copy).svg"
   inkscape:version="1.0.2 (e86c870879, 2021-01-15)">
  <metadata
     id="metadata9">
    <rdf:RDF>
      <cc:Work
         rdf:about="">
        <dc:format>image/svg+xml</dc:format>
        <dc:type
           rdf:resource="http://purl.org/dc/dcmitype/StillImage" />
      </cc:Work>
    </rdf:RDF>
  </metadata>
  <defs
     id="defs7" />
  <sodipodi:namedview
     pagecolor="#ffffff"
     bordercolor="#666666"
     borderopacity="1"
     objecttolerance="10"
     gridtolerance="10"
     guidetolerance="10"
     inkscape:pageopacity="0"
     inkscape:pageshadow="2"
     inkscape:window-width="1920"
     inkscape:window-height="1016"
     id="namedview5"
     showgrid="false"
     inkscape:zoom="33.958333"
     inkscape:cx="12"
     inkscape:cy="12.386503"
     inkscape:window-x="0"
     inkscape:window-y="0"
     inkscape:window-maximized="1"
     inkscape:current-layer="mdi-symbol" />
  <path fill="#afafaf"
     id="path2"
     d="M 2.390625 1.7304688 L 1.109375 3 L 6 7.890625 L 6 9 L 7.109375 9 L 9.109375 11 L 8 11 L 8 14 L 10 14 L 10 13 C 10.323508 13 10.624091 12.918169 10.892578 12.783203 L 14.828125 16.71875 L 14.800781 17 L 15.109375 17 L 20.839844 22.730469 L 22.109375 21.460938 L 16.878906 16.226562 L 16.878906 16.220703 L 14 13.341797 L 14 13.347656 L 11.966797 11.3125 C 11.96702 11.311072 11.96853 11.310022 11.96875 11.308594 L 10 9.3398438 L 10 9.34375 L 9.65625 9 L 9.6601562 9 L 7.6601562 7 L 7.65625 7 L 2.390625 1.7304688 z M 2 7 L 2 14 L 4 14 L 4 7 L 2 7 z M 15.800781 7 L 15.599609 9 L 14 9 L 14 10.794922 L 14.205078 11 L 15.400391 11 L 15.291016 12.085938 L 18.203125 15 L 18.400391 15 L 18.382812 15.179688 L 20.199219 16.998047 L 20.400391 15 L 22 15 L 22 13 L 20.599609 13 L 20.800781 11 L 22 11 L 22 9 L 21 9 L 21.199219 7 L 19.199219 7 L 19 9 L 17.599609 9 L 17.800781 7 L 15.800781 7 z M 10.230469 7.0234375 L 11.976562 8.7714844 C 11.871509 7.8485618 11.153117 7.1293564 10.230469 7.0234375 z M 17.400391 11 L 18.800781 11 L 18.599609 13 L 17.199219 13 L 17.400391 11 z M 2 15 L 2 17 L 4 17 L 4 15 L 2 15 z M 8 15 L 8 17 L 10 17 L 10 15 L 8 15 z " />
</svg>
