<?xml version="1.0" encoding="UTF-8" standalone="no"?>
<svg
   xmlns:dc="http://purl.org/dc/elements/1.1/"
   xmlns:cc="http://creativecommons.org/ns#"
   xmlns:rdf="http://www.w3.org/1999/02/22-rdf-syntax-ns#"
   xmlns:svg="http://www.w3.org/2000/svg"
   xmlns="http://www.w3.org/2000/svg"
   xmlns:sodipodi="http://sodipodi.sourceforge.net/DTD/sodipodi-0.dtd"
   xmlns:inkscape="http://www.inkscape.org/namespaces/inkscape"
   height="24"
   viewBox="0 0 24 24"
   width="24"
   version="1.1"
   id="svg4"
   sodipodi:docname="timepp-graph-symbolic (copy).svg"
   inkscape:version="1.0.2 (e86c870879, 2021-01-15)">
  <metadata
     id="metadata10">
    <rdf:RDF>
      <cc:Work
         rdf:about="">
        <dc:format>image/svg+xml</dc:format>
        <dc:type
           rdf:resource="http://purl.org/dc/dcmitype/StillImage" />
      </cc:Work>
    </rdf:RDF>
  </metadata>
  <defs
     id="defs8" />
  <sodipodi:namedview
     pagecolor="#ffffff"
     bordercolor="#666666"
     borderopacity="1"
     objecttolerance="10"
     gridtolerance="10"
     guidetolerance="10"
     inkscape:pageopacity="0"
     inkscape:pageshadow="2"
     inkscape:window-width="1430"
     inkscape:window-height="1036"
     id="namedview6"
     showgrid="false"
     inkscape:zoom="24.115059"
     inkscape:cx="10.736833"
     inkscape:cy="13.704968"
     inkscape:window-x="8"
     inkscape:window-y="1084"
     inkscape:window-maximized="0"
     inkscape:current-layer="svg4" />
  <path fill="#afafaf"
     d="m 8,15.734947 c -0.55,0 -1,-0.45 -1,-1 v -4.396241 c 0,-0.55 0.45,-1 1,-1 0.55,0 1,0.45 1,1 v 4.396241 c 0,0.55 -0.45,1 -1,1 z m 8,0.241882 c -0.55,0 -1,-0.45 -1,-1 v -1.659262 c 0,-0.55 0.45,-1 1,-1 0.55,0 1,0.45 1,1 v 1.659262 c 0,0.55 -0.45,1 -1,1 z M 18,19 H 6 C 5.45,19 5,18.55 5,18 V 6 C 5,5.45 5.45,5 6,5 h 12 c 0.55,0 1,0.45 1,1 v 12 c 0,0.55 -0.45,1 -1,1 z M 19,3 H 5 C 3.9,3 3,3.9 3,5 v 14 c 0,1.1 0.9,2 2,2 h 14 c 1.1,0 2,-0.9 2,-2 V 5 C 21,3.9 20.1,3 19,3 Z"
     id="path2"
     sodipodi:nodetypes="ssssssssssssssssssssssssssssssss" />
  <path fill="#afafaf"
     d="m 12,17 c -0.55,0 -1,-0.45 -1,-1 v -2 c 0,-0.55 0.45,-1 1,-1 0.55,0 1,0.45 1,1 v 2 c 0,0.55 -0.45,1 -1,1 z"
     id="path2-3"
     sodipodi:nodetypes="sssssss" />
  <path fill="#afafaf"
     d="m 12,11.620583 c -0.55,0 -1,-0.45 -1,-1.000001 V 7.9938416 c 0,-0.55 0.45,-1 1,-1 0.55,0 1,0.45 1,1 v 2.6267404 c 0,0.550001 -0.45,1.000001 -1,1.000001 z"
     id="path2-3-6"
     sodipodi:nodetypes="sssssss" />
  <path fill="#afafaf"
     d="m 16,10.557244 c -0.55,0 -1,-0.45 -1,-1.0000006 V 8.8459313 c 0,-0.5500004 0.45,-1.0000004 1,-1.0000004 0.55,0 1,0.45 1,1.0000004 v 0.7113121 c 0,0.5500006 -0.45,1.0000006 -1,1.0000006 z"
     id="path2-3-6-7"
     sodipodi:nodetypes="sssssss" />
</svg>
