<?xml version="1.0" encoding="UTF-8" standalone="no"?>
<svg
   xmlns:dc="http://purl.org/dc/elements/1.1/"
   xmlns:cc="http://creativecommons.org/ns#"
   xmlns:rdf="http://www.w3.org/1999/02/22-rdf-syntax-ns#"
   xmlns:svg="http://www.w3.org/2000/svg"
   xmlns="http://www.w3.org/2000/svg"
   xmlns:sodipodi="http://sodipodi.sourceforge.net/DTD/sodipodi-0.dtd"
   xmlns:inkscape="http://www.inkscape.org/namespaces/inkscape"
   version="1.1"
   id="mdi-dots-grid"
   width="24"
   height="24"
   viewBox="0 0 24 24"
   sodipodi:docname="grid-rectangular.svg"
   inkscape:version="1.0.2 (e86c870879, 2021-01-15)">
  <metadata
     id="metadata9">
    <rdf:RDF>
      <cc:Work
         rdf:about="">
        <dc:format>image/svg+xml</dc:format>
        <dc:type
           rdf:resource="http://purl.org/dc/dcmitype/StillImage" />
      </cc:Work>
    </rdf:RDF>
  </metadata>
  <defs
     id="defs7" />
  <sodipodi:namedview
     pagecolor="#ffffff"
     bordercolor="#666666"
     borderopacity="1"
     objecttolerance="10"
     gridtolerance="10"
     guidetolerance="10"
     inkscape:pageopacity="0"
     inkscape:pageshadow="2"
     inkscape:window-width="1430"
     inkscape:window-height="1036"
     id="namedview5"
     showgrid="false"
     inkscape:zoom="26.260109"
     inkscape:cx="11.429347"
     inkscape:cy="11.62209"
     inkscape:window-x="8"
     inkscape:window-y="1084"
     inkscape:window-maximized="0"
     inkscape:current-layer="mdi-dots-grid" />
  <path fill="#afafaf"
     d="m 18,4.6832447 c 0.724216,0 1.316756,0.5925399 1.316756,1.3167553 0,0.7242154 -0.59254,1.3167553 -1.316756,1.3167553 -0.724216,0 -1.316756,-0.5925399 -1.316756,-1.3167553 0,-0.7242154 0.59254,-1.3167553 1.316756,-1.3167553 z"
     id="path2-3"
     sodipodi:nodetypes="sssss"
     style="stroke-width:0.658378" />
  <path fill="#afafaf"
     d="m 12,10.00271 c 1.09851,0 1.99729,0.898781 1.99729,1.99729 0,1.09851 -0.89878,1.99729 -1.99729,1.99729 -1.098509,0 -1.99729,-0.89878 -1.99729,-1.99729 0,-1.098509 0.898781,-1.99729 1.99729,-1.99729 z"
     id="path2-3-6"
     sodipodi:nodetypes="sssss"
     style="stroke-width:0.998642" />
  <path fill="#afafaf"
     d="m 12,5.0946304 c 0.497953,0 0.90537,0.4074164 0.90537,0.9053696 0,0.4979532 -0.407417,0.9053696 -0.90537,0.9053696 -0.497953,0 -0.90537,-0.4074164 -0.90537,-0.9053696 0,-0.4979532 0.407417,-0.9053696 0.90537,-0.9053696 z"
     id="path2-3-7"
     sodipodi:nodetypes="sssss"
     style="stroke-width:0.452685" />
  <path fill="#afafaf"
     d="M 6,3.3949549 C 7.4327748,3.3949549 8.6050451,4.5672252 8.6050451,6 8.6050451,7.4327748 7.4327748,8.6050451 6,8.6050451 4.5672252,8.6050451 3.3949549,7.4327748 3.3949549,6 3.3949549,4.5672252 4.5672252,3.3949549 6,3.3949549 Z"
     id="path2-3-5"
     sodipodi:nodetypes="sssss"
     style="stroke-width:1.30252" />
  <path fill="#afafaf"
     d="M 6,9.9934049 C 7.1036273,9.9934049 8.0065951,10.896373 8.0065951,12 8.0065951,13.103627 7.1036273,14.006595 6,14.006595 4.8963727,14.006595 3.9934049,13.103627 3.9934049,12 3.9934049,10.896373 4.8963727,9.9934049 6,9.9934049 Z"
     id="path2-3-3"
     sodipodi:nodetypes="sssss"
     style="stroke-width:1.0033" />
  <path fill="#afafaf"
     d="m 18,10.334609 c 0.915965,0 1.665391,0.749426 1.665391,1.665391 0,0.915965 -0.749426,1.665391 -1.665391,1.665391 -0.915965,0 -1.665391,-0.749426 -1.665391,-1.665391 0,-0.915965 0.749426,-1.665391 1.665391,-1.665391 z"
     id="path2-3-56"
     sodipodi:nodetypes="sssss"
     style="stroke-width:0.832696" />
  <path fill="#afafaf"
     d="m 18,16.125738 c 1.030844,0 1.874262,0.843418 1.874262,1.874262 0,1.030844 -0.843418,1.874262 -1.874262,1.874262 -1.030844,0 -1.874262,-0.843418 -1.874262,-1.874262 0,-1.030844 0.843418,-1.874262 1.874262,-1.874262 z"
     id="path2-3-2"
     sodipodi:nodetypes="sssss"
     style="stroke-width:0.937129" />
  <path fill="#afafaf"
     d="m 12,16.647297 c 0.743987,0 1.352703,0.608716 1.352703,1.352703 0,0.743987 -0.608716,1.352703 -1.352703,1.352703 -0.743987,0 -1.352703,-0.608716 -1.352703,-1.352703 0,-0.743987 0.608716,-1.352703 1.352703,-1.352703 z"
     id="path2-3-9"
     sodipodi:nodetypes="sssss"
     style="stroke-width:0.676352" />
  <path fill="#afafaf"
     d="m 6,15.526336 c 1.3605154,0 2.4736643,1.113149 2.4736643,2.473664 0,1.360515 -1.1131489,2.473664 -2.4736643,2.473664 -1.3605154,0 -2.4736643,-1.113149 -2.4736643,-2.473664 0,-1.360515 1.1131489,-2.473664 2.4736643,-2.473664 z"
     id="path2-3-1"
     sodipodi:nodetypes="sssss"
     style="stroke-width:1.23683" />
</svg>
