<?xml version="1.0" encoding="UTF-8" standalone="no"?>
<svg
   xmlns:dc="http://purl.org/dc/elements/1.1/"
   xmlns:cc="http://creativecommons.org/ns#"
   xmlns:rdf="http://www.w3.org/1999/02/22-rdf-syntax-ns#"
   xmlns:svg="http://www.w3.org/2000/svg"
   xmlns="http://www.w3.org/2000/svg"
   xmlns:sodipodi="http://sodipodi.sourceforge.net/DTD/sodipodi-0.dtd"
   xmlns:inkscape="http://www.inkscape.org/namespaces/inkscape"
   height="24"
   viewBox="0 0 24 24"
   width="24"
   version="1.1"
   id="svg4"
   sodipodi:docname="transform-scale-vertical-symbolic (copy).svg"
   inkscape:version="1.0.1 (3bc2e813f5, 2020-09-07)">
  <metadata
     id="metadata10">
    <rdf:RDF>
      <cc:Work
         rdf:about="">
        <dc:format>image/svg+xml</dc:format>
        <dc:type
           rdf:resource="http://purl.org/dc/dcmitype/StillImage" />
      </cc:Work>
    </rdf:RDF>
  </metadata>
  <defs
     id="defs8" />
  <sodipodi:namedview
     pagecolor="#ffffff"
     bordercolor="#666666"
     borderopacity="1"
     objecttolerance="10"
     gridtolerance="10"
     guidetolerance="10"
     inkscape:pageopacity="0"
     inkscape:pageshadow="2"
     inkscape:window-width="950"
     inkscape:window-height="1022"
     id="namedview6"
     showgrid="false"
     inkscape:zoom="39.833333"
     inkscape:cx="12"
     inkscape:cy="12"
     inkscape:window-x="2882"
     inkscape:window-y="35"
     inkscape:window-maximized="0"
     inkscape:current-layer="svg4"
     inkscape:document-rotation="0" />
  <g
     id="g29"
     transform="rotate(180,12.008088,11.99607)">
    <path fill="#afafaf"
       d="M 18.01,11 H 9 c -0.55,0 -1,0.45 -1,1 0,0.55 0.45,1 1,1 h 9.01 v 1.79 c 0,0.45 0.54,0.67 0.85,0.35 l 2.78,-2.79 c 0.19,-0.2 0.19,-0.51 0,-0.71 L 18.86,8.85 C 18.55,8.53 18.01,8.76 18.01,9.2 Z"
       id="path2"
       sodipodi:nodetypes="cssscsccccsc" />
    <path fill="#afafaf"
       d="m 6.0061761,11 h 9.0099999 c 0.55,0 1,0.45 1,1 0,0.55 -0.45,1 -1,1 H 6.0061761 v 1.79 c 0,0.45 -0.54,0.67 -0.85,0.35 l -2.78,-2.79 c -0.19,-0.2 -0.19,-0.51 0,-0.71 l 2.78,-2.7899998 c 0.31,-0.32 0.85,-0.09 0.85,0.35 z"
       id="path2-3"
       sodipodi:nodetypes="cssscsccccsc" />
  </g>
</svg>
