<?xml version="1.0" encoding="UTF-8" standalone="no"?>
<svg
   xmlns:dc="http://purl.org/dc/elements/1.1/"
   xmlns:cc="http://creativecommons.org/ns#"
   xmlns:rdf="http://www.w3.org/1999/02/22-rdf-syntax-ns#"
   xmlns:svg="http://www.w3.org/2000/svg"
   xmlns="http://www.w3.org/2000/svg"
   xmlns:sodipodi="http://sodipodi.sourceforge.net/DTD/sodipodi-0.dtd"
   xmlns:inkscape="http://www.inkscape.org/namespaces/inkscape"
   version="1.1"
   id="mdi-skew-less"
   width="24"
   height="24"
   viewBox="0 0 24 24"
   sodipodi:docname="transform-shear-left.svg"
   inkscape:version="1.0.2 (e86c870879, 2021-01-15)">
  <metadata
     id="metadata9">
    <rdf:RDF>
      <cc:Work
         rdf:about="">
        <dc:format>image/svg+xml</dc:format>
        <dc:type
           rdf:resource="http://purl.org/dc/dcmitype/StillImage" />
      </cc:Work>
    </rdf:RDF>
  </metadata>
  <defs
     id="defs7" />
  <sodipodi:namedview
     pagecolor="#ffffff"
     bordercolor="#666666"
     borderopacity="1"
     objecttolerance="10"
     gridtolerance="10"
     guidetolerance="10"
     inkscape:pageopacity="0"
     inkscape:pageshadow="2"
     inkscape:window-width="1920"
     inkscape:window-height="1011"
     id="namedview5"
     showgrid="false"
     inkscape:zoom="33.208333"
     inkscape:cx="12"
     inkscape:cy="12"
     inkscape:window-x="0"
     inkscape:window-y="0"
     inkscape:window-maximized="1"
     inkscape:current-layer="mdi-skew-less" />
  <path fill="#afafaf"
     id="path2"
     d="M 7.4140625 2.7167969 C 7.3198438 2.7341406 7.2278906 2.779375 7.1503906 2.859375 L 4.3691406 5.6503906 C 4.1791406 5.8503906 4.1791406 6.159375 4.3691406 6.359375 L 7.1503906 9.1503906 C 7.4603906 9.4703906 8 9.2407813 8 8.8007812 L 8 7 L 15 7 C 15.55 7 16 6.55 16 6 C 16 5.45 15.55 5 15 5 L 8 5 L 8 3.2109375 C 8 2.8734375 7.6967187 2.6647656 7.4140625 2.7167969 z M 11 9 L 8 22 L 17 22 L 20 9 L 11 9 z M 12.589844 11 L 17.5 11 L 15.410156 20 L 10.5 20 L 12.589844 11 z " />
</svg>
