<?xml version="1.0" encoding="UTF-8" standalone="no"?>
<svg
   xmlns:dc="http://purl.org/dc/elements/1.1/"
   xmlns:cc="http://creativecommons.org/ns#"
   xmlns:rdf="http://www.w3.org/1999/02/22-rdf-syntax-ns#"
   xmlns:svg="http://www.w3.org/2000/svg"
   xmlns="http://www.w3.org/2000/svg"
   xmlns:sodipodi="http://sodipodi.sourceforge.net/DTD/sodipodi-0.dtd"
   xmlns:inkscape="http://www.inkscape.org/namespaces/inkscape"
   version="1.1"
   id="mdi-account-cash"
   width="24"
   height="24"
   viewBox="0 0 24 24"
   sodipodi:docname="view-financial-account-liability (copy).svg"
   inkscape:version="1.0.2 (e86c870879, 2021-01-15)">
  <metadata
     id="metadata9">
    <rdf:RDF>
      <cc:Work
         rdf:about="">
        <dc:format>image/svg+xml</dc:format>
        <dc:type
           rdf:resource="http://purl.org/dc/dcmitype/StillImage" />
      </cc:Work>
    </rdf:RDF>
  </metadata>
  <defs
     id="defs7" />
  <sodipodi:namedview
     pagecolor="#ffffff"
     bordercolor="#666666"
     borderopacity="1"
     objecttolerance="10"
     gridtolerance="10"
     guidetolerance="10"
     inkscape:pageopacity="0"
     inkscape:pageshadow="2"
     inkscape:window-width="1908"
     inkscape:window-height="1031"
     id="namedview5"
     showgrid="false"
     inkscape:zoom="42"
     inkscape:cx="12"
     inkscape:cy="11.047619"
     inkscape:window-x="1924"
     inkscape:window-y="1109"
     inkscape:window-maximized="0"
     inkscape:current-layer="mdi-account-cash" />
  <path fill="#afafaf"
     id="path2"
     d="M 13 3 L 13 10.595703 C 13.75118 11.34618 14.264824 11.859275 15 12.59375 L 15 7 C 16.11 7 17 6.11 17 5 L 20 5 C 20 6.11 20.9 7 22 7 L 22 16 C 21.027456 16 20.213199 16.703696 20.037109 17.626953 C 20.757674 18.346881 21.817778 19.404166 22.414062 20 L 24 20 L 24 3 L 13 3 z M 7 4 C 6.8134059 4 6.6348596 4.0299913 6.4550781 4.0546875 C 7.9461763 5.5447638 9.2684613 6.8656611 10.945312 8.5410156 C 10.969665 8.3624562 11 8.1852701 11 8 C 11 5.79 9.21 4 7 4 z M 4.4882812 4.9101562 C 3.5873543 5.6434524 3 6.7471513 3 8 C 3 10.21 4.79 12 7 12 C 8.2543811 12 9.3585461 11.410639 10.091797 10.507812 L 4.4882812 4.9101562 z M 18.5 9 C 17.12 9 16 10.12 16 11.5 C 16 12.88 17.12 14 18.5 14 C 19.88 14 21 12.88 21 11.5 C 21 10.12 19.88 9 18.5 9 z M 13 13.414062 L 13 20 L 19.591797 20 L 17.589844 18 L 17 18 C 17 17.741458 16.947055 17.494934 16.857422 17.267578 L 15.730469 16.142578 C 15.504061 16.053585 15.258825 16 15 16 L 15 15.412109 L 13 13.414062 z M 7 14 C 3.13 14 0 15.79 0 18 L 0 20 L 11 20 L 11 14.720703 C 9.87 14.270703 8.5 14 7 14 z " />
  <path fill="#afafaf"
     id="path2-3"
     d="m 2.4140625,3.2265625 c -0.255,0 -0.508125,0.097969 -0.703125,0.2929687 -0.39,0.3900001 -0.39,1.0201563 0,1.4101563 2.6248857,2.6230847 5.7312293,5.7293845 8.6816405,8.6777345 2.94835,2.950411 6.05465,6.056755 8.677734,8.68164 0.390001,0.390001 1.020157,0.390001 1.410157,0 0.39,-0.39 0.39,-1.018203 0,-1.408203 L 18.507812,18.90625 c -0.0073,-0.0078 -0.01,-0.01779 -0.01758,-0.02539 l -6.6875,-6.683593 -6.6835934,-6.6875004 c -0.0076,-0.0076 -0.01761,-0.010272 -0.025391,-0.017578 L 3.1191406,3.5195312 c -0.195,-0.195 -0.4500781,-0.2929687 -0.7050781,-0.2929687 z" />
</svg>
